<svg width="121" height="22" viewBox="0 0 121 22" fill="none" xmlns="http://www.w3.org/2000/svg">
<g filter="url(#filter0_d_187_7450)">
<path d="M8.32679 2.524C8.32679 1.48 8.59679 1.228 10.1988 1.228C13.0068 1.228 14.4108 2.488 14.4108 6.826C14.4108 10.192 13.7628 12.388 10.1988 12.388C8.59679 12.388 8.32679 12.136 8.32679 11.092V2.524ZM4.79879 1.228C6.18479 1.228 6.49079 1.552 6.49079 2.416V11.2C6.49079 12.064 6.18479 12.388 4.79879 12.388V13H10.7748C13.3308 13 16.4988 11.02 16.4988 6.808C16.4988 2.596 13.2948 0.616 10.6308 0.616H4.79879V1.228ZM21.731 13V12.388C20.183 12.388 19.823 12.136 19.823 11.452C19.823 10.948 20.345 9.868 20.651 8.86H24.899C25.385 9.904 25.907 11.344 25.907 11.722C25.907 12.244 25.835 12.388 24.485 12.388V13H29.489V12.388C28.445 12.388 28.031 12.064 27.491 10.678L23.549 0.543999H22.901L19.265 10.48C18.869 11.578 18.491 12.388 17.033 12.388V13H21.731ZM20.903 8.104L22.703 3.37L24.611 8.104H20.903ZM29.5969 0.616V1.228C31.0189 1.228 31.3249 1.552 31.3249 2.416V11.2C31.3249 12.064 31.0189 12.388 29.5969 12.388V13H34.8889V12.388C33.4669 12.388 33.1609 12.064 33.1609 11.2V2.416C33.1609 1.552 33.4669 1.228 34.8889 1.228V0.616H29.5969ZM45.095 8.374H44.537C43.745 11.848 41.873 12.388 40.325 12.388C39.407 12.388 39.011 12.064 39.011 11.2V2.416C39.011 1.552 39.317 1.228 40.739 1.228V0.616H35.591V1.228C36.869 1.228 37.175 1.552 37.175 2.416V11.2C37.175 12.064 36.869 12.388 35.555 12.388V13H44.987L45.095 8.374ZM45.323 1.228C46.259 1.228 46.601 1.372 47.087 2.326L49.841 7.744V11.2C49.841 12.064 49.535 12.388 47.969 12.388V13H53.621V12.388C51.983 12.388 51.677 12.064 51.677 11.2V7.744L54.215 2.938C54.881 1.678 55.115 1.228 56.411 1.228V0.616H52.289V1.228C53.423 1.228 53.819 1.444 53.819 1.822C53.819 2.74 51.677 6.088 51.335 6.844C51.029 6.034 48.923 2.452 48.923 1.84C48.923 1.408 49.355 1.228 50.435 1.228V0.616H45.323V1.228ZM62.8609 11.2C62.8609 12.064 62.5549 12.388 61.2049 12.388V13H68.0629C71.1049 13 72.1669 10.768 72.1669 9.616C72.1669 7.708 70.6909 6.52 68.0269 6.43V6.394C69.9349 6.394 71.5549 5.26 71.5549 3.676C71.5549 2.2 70.4389 0.616 67.0189 0.616H61.2049V1.228C62.5549 1.228 62.8609 1.552 62.8609 2.416V11.2ZM67.5589 6.808C69.3229 6.808 70.0789 7.924 70.0789 9.616C70.0789 11.398 69.2869 12.388 66.5509 12.388C65.0389 12.388 64.6969 12.082 64.6969 11.146V6.808H67.5589ZM64.6969 6.196V2.128C64.6969 1.624 64.8589 1.228 66.3349 1.228C68.5309 1.228 69.4669 1.948 69.4669 3.82C69.4669 5.224 68.8909 6.196 66.4789 6.196H64.6969ZM83.9567 10.408C83.9567 11.002 83.7767 11.848 83.2907 11.848C81.7607 11.848 82.8587 7.456 79.3847 6.898V6.862C81.4907 6.862 83.6867 5.98 83.6867 3.712C83.6867 2.488 82.7687 0.616 79.7987 0.616H73.3007V1.228C74.6687 1.228 74.9747 1.552 74.9747 2.416V11.2C74.9747 12.064 74.6687 12.388 73.3007 12.388V13H78.5927V12.388C77.1167 12.388 76.8107 12.064 76.8107 11.2V6.988H77.5127C79.4207 6.988 80.2847 7.384 80.2847 10.264C80.2847 11.92 80.9687 13.108 82.3187 13.108C83.9747 13.108 84.4607 11.884 84.4607 10.408H83.9567ZM76.8107 2.272C76.8107 1.534 77.2967 1.228 78.8447 1.228C80.9687 1.228 81.7427 2.326 81.7427 3.964C81.7427 5.854 80.5007 6.376 78.8807 6.376C78.0527 6.376 77.3327 6.358 76.8107 6.34V2.272ZM90.2926 0.616H85.0006V1.228C86.4226 1.228 86.7286 1.552 86.7286 2.416V9.58C86.7286 12.1 88.5106 13.216 91.2826 13.216C93.8746 13.216 95.7646 11.776 95.7646 9.184V2.956C95.7646 1.984 95.9446 1.228 97.5286 1.228V0.616H93.1906V1.228C94.9366 1.228 95.1166 1.984 95.1166 2.956V9.04C95.1166 11.056 94.1266 12.604 91.4986 12.604C89.5186 12.604 88.5646 11.56 88.5646 9.634V2.416C88.5646 1.552 88.8706 1.228 90.2926 1.228V0.616ZM98.0988 0.616V1.228C99.5208 1.228 99.8268 1.552 99.8268 2.416V11.2C99.8268 12.064 99.5208 12.388 98.0988 12.388V13H103.391V12.388C101.969 12.388 101.663 12.064 101.663 11.2V2.416C101.663 1.552 101.969 1.228 103.391 1.228V0.616H98.0988ZM104.273 0.616V1.228C105.191 1.228 105.515 1.3 106.091 1.966V11.2C106.091 12.064 105.785 12.388 104.309 12.388V13H108.737V12.388C107.153 12.388 106.847 12.064 106.847 11.2V3.1H106.883L113.957 13.108H114.659V2.416C114.659 1.552 114.965 1.228 116.225 1.228V0.616H112.121V1.228C113.597 1.228 113.903 1.552 113.903 2.416V9.886H113.867L107.387 0.616H104.273Z" fill="#8C8FFE"/>
</g>
<defs>
<filter id="filter0_d_187_7450" x="0.798828" y="0.544" width="119.426" height="20.672" filterUnits="userSpaceOnUse" color-interpolation-filters="sRGB">
<feFlood flood-opacity="0" result="BackgroundImageFix"/>
<feColorMatrix in="SourceAlpha" type="matrix" values="0 0 0 0 0 0 0 0 0 0 0 0 0 0 0 0 0 0 127 0" result="hardAlpha"/>
<feOffset dy="4"/>
<feGaussianBlur stdDeviation="2"/>
<feComposite in2="hardAlpha" operator="out"/>
<feColorMatrix type="matrix" values="0 0 0 0 0 0 0 0 0 0 0 0 0 0 0 0 0 0 0.25 0"/>
<feBlend mode="normal" in2="BackgroundImageFix" result="effect1_dropShadow_187_7450"/>
<feBlend mode="normal" in="SourceGraphic" in2="effect1_dropShadow_187_7450" result="shape"/>
</filter>
</defs>
</svg>
