<svg width="36" height="36" viewBox="0 0 24 24" fill="none" xmlns="http://www.w3.org/2000/svg">
<path d="M6.25 9.5C6.25 10.4665 5.4665 11.25 4.5 11.25C3.5335 11.25 2.75 10.4665 2.75 9.5C2.75 8.5335 3.5335 7.75 4.5 7.75C5.4665 7.75 6.25 8.5335 6.25 9.5Z" fill="black" stroke="black" stroke-width="1.5"/>
<path d="M10.75 5.5C10.75 6.4665 9.9665 7.25 9 7.25C8.0335 7.25 7.25 6.4665 7.25 5.5C7.25 4.5335 8.0335 3.75 9 3.75C9.9665 3.75 10.75 4.5335 10.75 5.5Z" fill="black" stroke="black" stroke-width="1.5"/>
<path d="M16.75 5.5C16.75 6.4665 15.9665 7.25 15 7.25C14.0335 7.25 13.25 6.4665 13.25 5.5C13.25 4.5335 14.0335 3.75 15 3.75C15.9665 3.75 16.75 4.5335 16.75 5.5Z" stroke="black" stroke-width="1.5"/>
<path d="M21.25 9.5C21.25 10.4665 20.4665 11.25 19.5 11.25C18.5335 11.25 17.75 10.4665 17.75 9.5C17.75 8.5335 18.5335 7.75 19.5 7.75C20.4665 7.75 21.25 8.5335 21.25 9.5Z" stroke="black" stroke-width="1.5"/>
<path d="M16.7694 15.3467L16.7887 15.3693L16.8097 15.3903C16.8898 15.4705 16.9698 15.5499 17.0491 15.6288C17.6447 16.2207 18.2103 16.7829 18.6309 17.4059C19.0818 18.0738 19.3167 18.7436 19.2153 19.4999C18.9692 20.3113 18.4074 21.0319 17.4713 21.2447C17.4024 21.2557 17.2215 21.2579 16.8671 21.2238C16.5783 21.1959 16.2362 21.1513 15.8372 21.0992C15.7611 21.0893 15.6829 21.0791 15.6026 21.0687C14.6173 20.941 13.3727 20.79 12.08 20.79H11.9C10.6065 20.79 9.36114 20.9437 8.37642 21.0726C8.30579 21.0818 8.23679 21.0909 8.16941 21.0998C7.75886 21.1538 7.40834 21.1999 7.11384 21.2279C6.75367 21.2621 6.57654 21.2575 6.51472 21.2461C5.57317 21.0346 5.01117 20.3205 4.76528 19.5023C4.66803 18.7515 4.9044 18.0836 5.35705 17.4158C5.77861 16.794 6.34397 16.2321 6.93879 15.6409C7.01886 15.5613 7.09947 15.4812 7.18033 15.4003L7.19984 15.3808L7.21787 15.3599C7.78367 14.7041 8.28984 14.1075 8.80859 13.4961C9.09707 13.1561 9.38945 12.8115 9.69813 12.4496C10.1444 11.9374 10.6163 11.5233 11.1232 11.3495L11.1233 11.3496L11.1363 11.3448C11.2084 11.3186 11.2776 11.3 11.3442 11.2879L11.3442 11.2879L11.3516 11.2865C11.5296 11.2523 11.7274 11.25 12 11.25C12.2684 11.25 12.4747 11.2516 12.6534 11.2793C12.7176 11.2914 12.7843 11.3096 12.8537 11.3348L12.8536 11.335L12.8668 11.3395C13.3769 11.5144 13.86 11.9327 14.2891 12.4363L14.2891 12.4364L14.2921 12.4399C14.8545 13.0918 15.3532 13.6796 15.8689 14.2873C16.1589 14.6292 16.4543 14.9773 16.7694 15.3467Z" stroke="black" stroke-width="1.5"/>
<path d="M11.25 11.309V20.8023C10.1934 20.8412 9.1949 20.9655 8.37642 21.0726C8.30579 21.0818 8.23679 21.0909 8.16941 21.0998C7.75886 21.1538 7.40834 21.1999 7.11385 21.2279C6.75367 21.2621 6.57654 21.2575 6.51473 21.2461C5.57317 21.0346 5.01117 20.3205 4.76529 19.5024C4.66803 18.7515 4.9044 18.0836 5.35706 17.4158C5.77861 16.794 6.34397 16.2321 6.93879 15.6409C7.01886 15.5613 7.09947 15.4812 7.18033 15.4003L7.19984 15.3808L7.21787 15.3599C7.78367 14.7041 8.28985 14.1075 8.8086 13.4961C9.09708 13.1561 9.38946 12.8115 9.69814 12.4496C10.1444 11.9374 10.6163 11.5233 11.1232 11.3495L11.1233 11.3496L11.1363 11.3448C11.175 11.3308 11.2129 11.3189 11.25 11.309Z" fill="black" stroke="black" stroke-width="1.5"/>
</svg>
