<svg width="836" height="181" viewBox="0 0 836 181" fill="none" xmlns="http://www.w3.org/2000/svg">
<path d="M111.89 86.18C111.89 101.66 108.11 114.14 100.55 123.62C93.11 132.98 82.49 138.74 68.69 140.9C68.45 149.06 70.67 155.72 75.35 160.88C80.15 166.16 86.51 168.8 94.43 168.8L92.63 175.28C82.55 175.28 73.67 173.78 65.99 170.78C58.31 167.9 52.43 163.82 48.35 158.54C44.27 153.26 42.29 147.26 42.41 140.54C29.09 138.14 18.77 132.26 11.45 122.9C4.24999 113.54 0.649994 101.3 0.649994 86.18C0.649994 68.3 5.50999 54.62 15.23 45.14C24.95 35.54 38.63 30.74 56.27 30.74C74.15 30.74 87.89 35.6 97.49 45.32C107.09 55.04 111.89 68.66 111.89 86.18ZM27.83 86.18C27.83 98.78 28.85 108.68 30.89 115.88C32.93 122.96 35.99 128 40.07 131C44.15 134 49.55 135.5 56.27 135.5C62.99 135.5 68.39 134 72.47 131C76.55 128 79.61 122.96 81.65 115.88C83.69 108.68 84.71 98.78 84.71 86.18C84.71 73.7 83.69 63.86 81.65 56.66C79.61 49.46 76.55 44.36 72.47 41.36C68.39 38.36 62.99 36.86 56.27 36.86C49.55 36.86 44.15 38.36 40.07 41.36C35.99 44.36 32.93 49.46 30.89 56.66C28.85 63.86 27.83 73.7 27.83 86.18Z" fill="black"/>
<path d="M207.82 133.88V140H174.88C175.48 138.2 175.78 135.56 175.78 132.08V123.98C170.38 135.86 161.26 141.8 148.42 141.8C140.62 141.8 134.92 139.7 131.32 135.5C127.72 131.18 125.92 124.4 125.92 115.16V72.5C125.92 70.22 125.14 69.08 123.58 69.08L117.64 69.44V63.5H149.5V116.24C149.5 122.36 149.98 126.74 150.94 129.38C152.02 132.02 154.18 133.34 157.42 133.34C160.3 133.34 163.12 132.08 165.88 129.56C168.76 127.04 171.1 123.32 172.9 118.4C174.7 113.36 175.66 107.36 175.78 100.4V72.68C175.78 70.28 175.06 69.08 173.62 69.08L166.6 69.44V63.5H199.54V130.82C199.54 132.98 200.32 134.12 201.88 134.24L207.82 133.88Z" fill="black"/>
<path d="M293.541 133.88V140H260.781C261.261 137.12 261.501 134.9 261.501 133.34L261.681 128.48C256.401 136.76 248.121 140.9 236.841 140.9C229.281 140.9 223.521 139.22 219.561 135.86C215.721 132.38 213.801 127.28 213.801 120.56C213.801 111.8 217.641 105.32 225.321 101.12C233.001 96.92 245.121 94.82 261.681 94.82V82.22C261.681 77.66 260.901 74.12 259.341 71.6C257.781 69.08 254.541 67.82 249.621 67.82C245.421 67.82 242.421 68.54 240.621 69.98C238.941 71.42 238.101 73.16 238.101 75.2C238.101 76.76 238.401 78.14 239.001 79.34C239.481 81.02 239.721 82.22 239.721 82.94C239.721 85.58 238.761 87.62 236.841 89.06C235.041 90.5 232.701 91.22 229.821 91.22C226.461 91.22 223.701 90.26 221.541 88.34C219.501 86.3 218.481 83.78 218.481 80.78C218.481 75.02 221.481 70.4 227.481 66.92C233.481 63.44 241.581 61.7 251.781 61.7C274.101 61.7 285.261 69.68 285.261 85.64V130.82C285.261 133.1 286.041 134.24 287.601 134.24L293.541 133.88ZM247.101 130.28C250.821 130.28 254.001 128.72 256.641 125.6C259.401 122.36 261.081 118.16 261.681 113V101.12C253.521 101.12 247.581 102.56 243.861 105.44C240.141 108.32 238.281 112.64 238.281 118.4C238.281 126.32 241.221 130.28 247.101 130.28Z" fill="black"/>
<path d="M352.184 61.7C357.344 61.7 361.544 63.2 364.784 66.2C368.144 69.2 369.824 73.1 369.824 77.9C369.824 81.5 368.744 84.2 366.584 86C364.544 87.8 362.024 88.7 359.024 88.7C356.504 88.7 354.224 88.1 352.184 86.9C350.264 85.58 349.304 83.72 349.304 81.32C349.304 80.48 349.544 79.22 350.024 77.54C350.384 75.38 350.564 74.18 350.564 73.94C350.564 71.3 349.424 69.98 347.144 69.98C344.024 69.98 341.204 71.78 338.684 75.38C336.284 78.86 334.424 83.24 333.104 88.52C331.784 93.8 331.064 98.9 330.944 103.82V130.82C330.944 133.1 331.724 134.24 333.284 134.24L345.704 133.88V140H299.984V133.88L305.024 134.24C306.584 134.24 307.364 133.1 307.364 130.82V72.68C307.364 70.28 306.584 69.08 305.024 69.08L299.264 69.44V63.5H332.024C331.784 64.22 331.544 65.42 331.304 67.1C331.064 68.66 330.944 70.22 330.944 71.78V80.06C335.264 67.82 342.344 61.7 352.184 61.7Z" fill="black"/>
<path d="M452.975 133.88V140H420.215C420.695 137.12 420.935 134.9 420.935 133.34L421.115 128.48C415.835 136.76 407.555 140.9 396.275 140.9C388.715 140.9 382.955 139.22 378.995 135.86C375.155 132.38 373.235 127.28 373.235 120.56C373.235 111.8 377.075 105.32 384.755 101.12C392.435 96.92 404.555 94.82 421.115 94.82V82.22C421.115 77.66 420.335 74.12 418.775 71.6C417.215 69.08 413.975 67.82 409.055 67.82C404.855 67.82 401.855 68.54 400.055 69.98C398.375 71.42 397.535 73.16 397.535 75.2C397.535 76.76 397.835 78.14 398.435 79.34C398.915 81.02 399.155 82.22 399.155 82.94C399.155 85.58 398.195 87.62 396.275 89.06C394.475 90.5 392.135 91.22 389.255 91.22C385.895 91.22 383.135 90.26 380.975 88.34C378.935 86.3 377.915 83.78 377.915 80.78C377.915 75.02 380.915 70.4 386.915 66.92C392.915 63.44 401.015 61.7 411.215 61.7C433.535 61.7 444.695 69.68 444.695 85.64V130.82C444.695 133.1 445.475 134.24 447.035 134.24L452.975 133.88ZM406.535 130.28C410.255 130.28 413.435 128.72 416.075 125.6C418.835 122.36 420.515 118.16 421.115 113V101.12C412.955 101.12 407.015 102.56 403.295 105.44C399.575 108.32 397.715 112.64 397.715 118.4C397.715 126.32 400.655 130.28 406.535 130.28Z" fill="black"/>
<path d="M549.958 133.88V140H508.918V133.88L515.758 134.24C517.318 133.88 518.098 132.74 518.098 130.82V87.26C518.098 81.02 517.558 76.64 516.478 74.12C515.518 71.48 513.238 70.16 509.638 70.16C506.518 70.16 503.458 71.48 500.458 74.12C497.578 76.76 495.178 80.66 493.258 85.82C491.338 90.98 490.378 97.16 490.378 104.36V130.82C490.378 133.1 491.158 134.24 492.718 134.24L499.738 133.88V140H458.518V133.88L464.458 134.24C466.018 133.88 466.798 132.74 466.798 130.82V72.68C466.798 70.64 466.018 69.44 464.458 69.08L458.518 69.44V63.5H491.278C490.678 65.3 490.378 67.4 490.378 69.8V79.88C493.018 74.12 496.678 69.68 501.358 66.56C506.158 63.32 511.798 61.7 518.278 61.7C526.438 61.7 532.378 63.8 536.098 68C539.818 72.08 541.678 78.56 541.678 87.44V130.82C541.678 133.1 542.458 134.24 544.018 134.24L549.958 133.88Z" fill="black"/>
<path d="M588.129 63.5H605.949V69.26H588.129V124.34C588.129 128.54 588.669 131.36 589.749 132.8C590.829 134.24 592.509 134.96 594.789 134.96C596.229 134.96 597.729 134.36 599.289 133.16C600.969 131.84 602.229 130.1 603.069 127.94L607.929 130.64C606.369 134.48 603.909 137.3 600.549 139.1C597.309 140.78 593.169 141.62 588.129 141.62C580.809 141.62 575.049 140.24 570.849 137.48C566.649 134.6 564.549 130.1 564.549 123.98V69.26H553.749V63.5C558.549 63.5 562.209 63.08 564.729 62.24C567.249 61.28 569.229 59.54 570.669 57.02C572.229 54.5 573.669 50.54 574.989 45.14H588.129V63.5Z" fill="black"/>
<path d="M633.704 21.74C637.784 21.74 641.084 22.76 643.604 24.8C646.244 26.84 647.564 29.54 647.564 32.9C647.564 36.38 646.244 39.14 643.604 41.18C641.084 43.22 637.784 44.24 633.704 44.24C629.624 44.24 626.264 43.22 623.624 41.18C621.104 39.14 619.844 36.38 619.844 32.9C619.844 29.54 621.104 26.84 623.624 24.8C626.264 22.76 629.624 21.74 633.704 21.74ZM645.944 130.82C645.944 133.22 646.724 134.36 648.284 134.24L654.224 133.88V140H614.084V133.88L620.024 134.24H620.384C621.704 134.24 622.364 133.1 622.364 130.82V72.68C622.364 70.64 621.644 69.44 620.204 69.08L614.264 69.44V63.5H645.944V130.82Z" fill="black"/>
<path d="M752.809 133.88V140H711.77V133.88L718.61 134.24C720.17 133.88 720.949 132.74 720.949 130.82V87.26C720.949 81.02 720.409 76.64 719.329 74.12C718.369 71.48 716.09 70.16 712.49 70.16C709.37 70.16 706.309 71.48 703.309 74.12C700.429 76.76 698.03 80.66 696.11 85.82C694.19 90.98 693.23 97.16 693.23 104.36V130.82C693.23 133.1 694.009 134.24 695.569 134.24L702.59 133.88V140H661.369V133.88L667.309 134.24C668.869 133.88 669.65 132.74 669.65 130.82V72.68C669.65 70.64 668.869 69.44 667.309 69.08L661.369 69.44V63.5H694.129C693.529 65.3 693.23 67.4 693.23 69.8V79.88C695.87 74.12 699.53 69.68 704.21 66.56C709.01 63.32 714.649 61.7 721.129 61.7C729.289 61.7 735.229 63.8 738.949 68C742.669 72.08 744.53 78.56 744.53 87.44V130.82C744.53 133.1 745.31 134.24 746.87 134.24L752.809 133.88Z" fill="black"/>
<path d="M799.261 61.7C810.181 61.7 818.881 64.7 825.361 70.7C831.961 76.58 835.321 84.98 835.441 95.9V102.56H783.601C783.601 112.88 785.461 120.74 789.181 126.14C793.021 131.54 798.721 134.3 806.281 134.42C811.921 134.42 816.781 133.04 820.861 130.28C824.941 127.4 827.941 123.92 829.861 119.84L834.721 123.26C831.961 129.14 827.521 133.7 821.401 136.94C815.401 140.18 808.141 141.8 799.621 141.8C785.341 141.8 774.901 138.56 768.301 132.08C761.701 125.6 758.401 115.58 758.401 102.02C758.401 88.22 761.821 78.08 768.661 71.6C775.501 65 785.701 61.7 799.261 61.7ZM798.721 67.82C793.561 67.82 789.781 70.52 787.381 75.92C784.981 81.2 783.781 88.1 783.781 96.62H807.721C808.921 96.62 809.821 96.2 810.421 95.36C811.021 94.52 811.321 92.96 811.321 90.68C811.321 82.88 810.301 77.12 808.261 73.4C806.341 69.68 803.161 67.82 798.721 67.82Z" fill="black"/>
<path d="M168.867 6.76801C168.099 5.73601 167.151 4.96801 166.023 4.46401C164.895 3.93601 163.719 3.67201 162.495 3.67201C161.079 3.67201 159.771 3.96001 158.571 4.53601C157.395 5.11201 156.375 5.89201 155.511 6.87601C154.647 7.83601 153.975 8.96401 153.495 10.26C153.015 11.532 152.775 12.864 152.775 14.256C152.775 15.744 153.015 17.136 153.495 18.432C153.975 19.704 154.635 20.82 155.475 21.78C156.339 22.716 157.359 23.46 158.535 24.012C159.735 24.564 161.055 24.84 162.495 24.84C164.055 24.84 165.447 24.54 166.671 23.94C167.895 23.316 168.963 22.428 169.875 21.276L172.143 23.184C170.991 24.72 169.599 25.848 167.967 26.568C166.359 27.288 164.535 27.648 162.495 27.648C160.671 27.648 158.967 27.312 157.383 26.64C155.799 25.968 154.419 25.044 153.243 23.868C152.091 22.668 151.179 21.252 150.507 19.62C149.859 17.988 149.535 16.2 149.535 14.256C149.535 12.384 149.847 10.632 150.471 9.00001C151.119 7.36801 152.019 5.95201 153.171 4.75201C154.323 3.55201 155.691 2.60401 157.275 1.90801C158.859 1.21201 160.599 0.864014 162.495 0.864014C164.223 0.864014 165.879 1.17601 167.463 1.80001C169.071 2.42401 170.415 3.44401 171.495 4.86001L168.867 6.76801Z" fill="black"/>
<path d="M196.842 27.648C194.898 27.648 193.11 27.312 191.478 26.64C189.87 25.968 188.466 25.044 187.266 23.868C186.09 22.668 185.166 21.252 184.494 19.62C183.846 17.964 183.522 16.176 183.522 14.256C183.522 12.336 183.846 10.56 184.494 8.92801C185.166 7.27201 186.09 5.85601 187.266 4.68001C188.466 3.48001 189.87 2.54401 191.478 1.87201C193.11 1.20001 194.898 0.864014 196.842 0.864014C198.786 0.864014 200.562 1.20001 202.17 1.87201C203.802 2.54401 205.206 3.48001 206.382 4.68001C207.582 5.85601 208.506 7.27201 209.154 8.92801C209.826 10.56 210.162 12.336 210.162 14.256C210.162 16.176 209.826 17.964 209.154 19.62C208.506 21.252 207.582 22.668 206.382 23.868C205.206 25.044 203.802 25.968 202.17 26.64C200.562 27.312 198.786 27.648 196.842 27.648ZM196.842 24.84C198.33 24.84 199.686 24.564 200.91 24.012C202.158 23.46 203.226 22.704 204.114 21.744C205.002 20.784 205.686 19.668 206.166 18.396C206.67 17.1 206.922 15.72 206.922 14.256C206.922 12.792 206.67 11.424 206.166 10.152C205.686 8.85601 205.002 7.72801 204.114 6.76801C203.226 5.80801 202.158 5.05201 200.91 4.50001C199.686 3.94801 198.33 3.67201 196.842 3.67201C195.354 3.67201 193.986 3.94801 192.738 4.50001C191.514 5.05201 190.458 5.80801 189.57 6.76801C188.682 7.72801 187.986 8.85601 187.482 10.152C187.002 11.424 186.762 12.792 186.762 14.256C186.762 15.72 187.002 17.1 187.482 18.396C187.986 19.668 188.682 20.784 189.57 21.744C190.458 22.704 191.514 23.46 192.738 24.012C193.986 24.564 195.354 24.84 196.842 24.84Z" fill="black"/>
<path d="M223.662 1.51201H226.686V24.192H238.35V27H223.662V1.51201Z" fill="black"/>
<path d="M269.418 17.28C269.418 18.672 269.238 19.992 268.878 21.24C268.542 22.488 267.99 23.592 267.222 24.552C266.478 25.488 265.494 26.244 264.27 26.82C263.046 27.372 261.558 27.648 259.806 27.648C258.054 27.648 256.566 27.372 255.342 26.82C254.118 26.244 253.122 25.488 252.354 24.552C251.61 23.592 251.058 22.488 250.698 21.24C250.362 19.992 250.194 18.672 250.194 17.28V1.51201H253.218V16.848C253.218 17.88 253.326 18.876 253.542 19.836C253.758 20.796 254.118 21.648 254.622 22.392C255.126 23.136 255.798 23.736 256.638 24.192C257.478 24.624 258.534 24.84 259.806 24.84C261.078 24.84 262.134 24.624 262.974 24.192C263.814 23.736 264.486 23.136 264.99 22.392C265.494 21.648 265.854 20.796 266.07 19.836C266.286 18.876 266.394 17.88 266.394 16.848V1.51201H269.418V17.28Z" fill="black"/>
<path d="M284.29 1.51201H288.79L297.43 21.492H297.502L306.214 1.51201H310.606V27H307.582V5.61601H307.51L298.366 27H296.53L287.386 5.61601H287.314V27H284.29V1.51201Z" fill="black"/>
<path d="M325.59 1.51201H329.406L344.166 22.68H344.238V1.51201H347.262V27H343.446L328.686 5.83201H328.614V27H325.59V1.51201Z" fill="black"/>
<path d="M374.345 6.01201C373.841 5.19601 373.169 4.60801 372.329 4.24801C371.489 3.86401 370.613 3.67201 369.701 3.67201C369.029 3.67201 368.369 3.75601 367.721 3.92401C367.073 4.09201 366.485 4.34401 365.957 4.68001C365.453 5.01601 365.045 5.46001 364.733 6.01201C364.421 6.56401 364.265 7.21201 364.265 7.95601C364.265 8.53201 364.349 9.04801 364.517 9.50401C364.709 9.93601 365.009 10.332 365.417 10.692C365.825 11.052 366.377 11.388 367.073 11.7C367.769 12.012 368.621 12.324 369.629 12.636C370.613 12.948 371.561 13.284 372.473 13.644C373.409 14.004 374.225 14.46 374.921 15.012C375.641 15.564 376.205 16.26 376.613 17.1C377.045 17.916 377.261 18.948 377.261 20.196C377.261 21.468 377.009 22.572 376.505 23.508C376.001 24.444 375.329 25.224 374.489 25.848C373.673 26.448 372.725 26.892 371.645 27.18C370.565 27.492 369.449 27.648 368.297 27.648C367.553 27.648 366.809 27.576 366.065 27.432C365.321 27.312 364.601 27.12 363.905 26.856C363.233 26.568 362.597 26.208 361.997 25.776C361.397 25.32 360.881 24.768 360.449 24.12L363.041 21.996C363.593 22.932 364.361 23.64 365.345 24.12C366.329 24.6 367.373 24.84 368.477 24.84C369.125 24.84 369.773 24.744 370.421 24.552C371.093 24.36 371.693 24.084 372.221 23.724C372.749 23.34 373.181 22.872 373.517 22.32C373.853 21.768 374.021 21.132 374.021 20.412C374.021 19.62 373.889 18.984 373.625 18.504C373.361 18 372.953 17.568 372.401 17.208C371.849 16.848 371.153 16.524 370.313 16.236C369.473 15.948 368.489 15.612 367.361 15.228C366.449 14.94 365.609 14.616 364.841 14.256C364.073 13.872 363.401 13.416 362.825 12.888C362.273 12.336 361.829 11.688 361.493 10.944C361.181 10.176 361.025 9.26401 361.025 8.20801C361.025 6.98401 361.265 5.91601 361.745 5.00401C362.225 4.09201 362.873 3.33601 363.689 2.73601C364.505 2.11201 365.429 1.64401 366.461 1.33201C367.493 1.02001 368.573 0.864014 369.701 0.864014C371.141 0.864014 372.449 1.09201 373.625 1.54801C374.825 1.98001 375.893 2.74801 376.829 3.85201L374.345 6.01201Z" fill="black"/>
<path d="M409.553 1.51201H425.357V4.32001H412.577V12.744H424.457V15.552H412.577V27H409.553V1.51201Z" fill="black"/>
<path d="M438.197 1.51201H444.713C445.937 1.51201 447.149 1.58401 448.349 1.72801C449.573 1.87201 450.665 2.18401 451.625 2.66401C452.585 3.14401 453.365 3.85201 453.965 4.78801C454.565 5.70001 454.865 6.94801 454.865 8.53201C454.865 10.404 454.301 11.916 453.173 13.068C452.045 14.22 450.485 14.952 448.493 15.264L455.729 27H452.021L445.109 15.552H441.221V27H438.197V1.51201ZM441.221 12.744H443.921C444.761 12.744 445.625 12.72 446.513 12.672C447.425 12.624 448.253 12.468 448.997 12.204C449.765 11.94 450.389 11.532 450.869 10.98C451.373 10.404 451.625 9.58801 451.625 8.53201C451.625 7.62001 451.445 6.88801 451.085 6.33601C450.725 5.78401 450.245 5.36401 449.645 5.07601C449.069 4.76401 448.409 4.56001 447.665 4.46401C446.945 4.36801 446.213 4.32001 445.469 4.32001H441.221V12.744Z" fill="black"/>
<path d="M480.688 27.648C478.744 27.648 476.956 27.312 475.324 26.64C473.716 25.968 472.312 25.044 471.112 23.868C469.936 22.668 469.012 21.252 468.34 19.62C467.692 17.964 467.368 16.176 467.368 14.256C467.368 12.336 467.692 10.56 468.34 8.92801C469.012 7.27201 469.936 5.85601 471.112 4.68001C472.312 3.48001 473.716 2.54401 475.324 1.87201C476.956 1.20001 478.744 0.864014 480.688 0.864014C482.632 0.864014 484.408 1.20001 486.016 1.87201C487.648 2.54401 489.052 3.48001 490.228 4.68001C491.428 5.85601 492.352 7.27201 493 8.92801C493.672 10.56 494.008 12.336 494.008 14.256C494.008 16.176 493.672 17.964 493 19.62C492.352 21.252 491.428 22.668 490.228 23.868C489.052 25.044 487.648 25.968 486.016 26.64C484.408 27.312 482.632 27.648 480.688 27.648ZM480.688 24.84C482.176 24.84 483.532 24.564 484.756 24.012C486.004 23.46 487.072 22.704 487.96 21.744C488.848 20.784 489.532 19.668 490.012 18.396C490.516 17.1 490.768 15.72 490.768 14.256C490.768 12.792 490.516 11.424 490.012 10.152C489.532 8.85601 488.848 7.72801 487.96 6.76801C487.072 5.80801 486.004 5.05201 484.756 4.50001C483.532 3.94801 482.176 3.67201 480.688 3.67201C479.2 3.67201 477.832 3.94801 476.584 4.50001C475.36 5.05201 474.304 5.80801 473.416 6.76801C472.528 7.72801 471.832 8.85601 471.328 10.152C470.848 11.424 470.608 12.792 470.608 14.256C470.608 15.72 470.848 17.1 471.328 18.396C471.832 19.668 472.528 20.784 473.416 21.744C474.304 22.704 475.36 23.46 476.584 24.012C477.832 24.564 479.2 24.84 480.688 24.84Z" fill="black"/>
<path d="M507.508 1.51201H512.008L520.648 21.492H520.72L529.432 1.51201H533.824V27H530.8V5.61601H530.728L521.584 27H519.748L510.604 5.61601H510.532V27H507.508V1.51201Z" fill="black"/>
<path d="M583.197 165.84H587.517C588.103 165.84 588.677 165.9 589.237 166.02C589.797 166.14 590.297 166.34 590.737 166.62C591.177 166.887 591.53 167.24 591.797 167.68C592.077 168.12 592.217 168.667 592.217 169.32C592.217 170.147 591.99 170.833 591.537 171.38C591.097 171.913 590.497 172.293 589.737 172.52V172.56C590.19 172.6 590.61 172.72 590.997 172.92C591.397 173.107 591.737 173.353 592.017 173.66C592.31 173.967 592.537 174.327 592.697 174.74C592.857 175.14 592.937 175.573 592.937 176.04C592.937 176.827 592.77 177.473 592.437 177.98C592.117 178.487 591.69 178.893 591.157 179.2C590.637 179.493 590.043 179.7 589.377 179.82C588.723 179.94 588.07 180 587.417 180H583.197V165.84ZM584.877 171.84H587.197C587.597 171.84 587.983 171.813 588.357 171.76C588.743 171.707 589.09 171.6 589.397 171.44C589.703 171.267 589.95 171.033 590.137 170.74C590.323 170.433 590.417 170.033 590.417 169.54C590.417 169.1 590.33 168.747 590.157 168.48C589.983 168.2 589.75 167.98 589.457 167.82C589.177 167.66 588.85 167.553 588.477 167.5C588.117 167.433 587.75 167.4 587.377 167.4H584.877V171.84ZM584.877 178.44H587.717C588.13 178.44 588.537 178.4 588.937 178.32C589.35 178.227 589.717 178.087 590.037 177.9C590.37 177.7 590.637 177.447 590.837 177.14C591.037 176.82 591.137 176.433 591.137 175.98C591.137 175.487 591.037 175.073 590.837 174.74C590.65 174.407 590.397 174.14 590.077 173.94C589.77 173.74 589.41 173.6 588.997 173.52C588.597 173.44 588.183 173.4 587.757 173.4H584.877V178.44Z" fill="black"/>
<path d="M602.734 173.9L597.454 165.84H599.594L603.574 172.24L607.674 165.84H609.694L604.414 173.9V180H602.734V173.9Z" fill="black"/>
<path d="M633.536 167.4H628.856V180H627.176V167.4H622.496V165.84H633.536V167.4Z" fill="black"/>
<path d="M639.12 165.84H640.8V171.84H648.36V165.84H650.04V180H648.36V173.4H640.8V180H639.12V165.84Z" fill="black"/>
<path d="M657.154 165.84H666.054V167.4H658.834V171.84H665.574V173.4H658.834V178.44H666.414V180H657.154V165.84Z" fill="black"/>
<path d="M681.516 165.84H686.956C687.422 165.84 687.916 165.893 688.436 166C688.956 166.107 689.469 166.28 689.976 166.52C690.496 166.747 690.989 167.047 691.456 167.42C691.936 167.793 692.356 168.247 692.716 168.78C693.076 169.3 693.362 169.907 693.576 170.6C693.789 171.28 693.896 172.053 693.896 172.92C693.896 173.787 693.789 174.567 693.576 175.26C693.362 175.94 693.076 176.547 692.716 177.08C692.356 177.6 691.936 178.047 691.456 178.42C690.989 178.793 690.496 179.1 689.976 179.34C689.469 179.567 688.956 179.733 688.436 179.84C687.916 179.947 687.422 180 686.956 180H681.516V165.84ZM683.196 178.44H686.396C687.209 178.44 687.962 178.333 688.656 178.12C689.349 177.907 689.949 177.58 690.456 177.14C690.962 176.687 691.362 176.113 691.656 175.42C691.949 174.727 692.096 173.893 692.096 172.92C692.096 171.947 691.949 171.113 691.656 170.42C691.362 169.727 690.962 169.16 690.456 168.72C689.949 168.267 689.349 167.933 688.656 167.72C687.962 167.507 687.209 167.4 686.396 167.4H683.196V178.44Z" fill="black"/>
<path d="M704.8 165.84H706.38L712.4 180H710.44L709 176.52H701.92L700.46 180H698.56L704.8 165.84ZM705.56 168H705.52L702.58 174.96H708.36L705.56 168Z" fill="black"/>
<path d="M717.882 165.84H719.562V180H717.882V165.84Z" fill="black"/>
<path d="M726.677 165.84H728.357V178.44H734.837V180H726.677V165.84Z" fill="black"/>
<path d="M741.391 173.9L736.111 165.84H738.251L742.231 172.24L746.331 165.84H748.351L743.071 173.9V180H741.391V173.9Z" fill="black"/>
<path d="M762.692 165.84H767.012C767.599 165.84 768.172 165.9 768.732 166.02C769.292 166.14 769.792 166.34 770.232 166.62C770.672 166.887 771.025 167.24 771.292 167.68C771.572 168.12 771.712 168.667 771.712 169.32C771.712 170.147 771.485 170.833 771.032 171.38C770.592 171.913 769.992 172.293 769.232 172.52V172.56C769.685 172.6 770.105 172.72 770.492 172.92C770.892 173.107 771.232 173.353 771.512 173.66C771.805 173.967 772.032 174.327 772.192 174.74C772.352 175.14 772.432 175.573 772.432 176.04C772.432 176.827 772.265 177.473 771.932 177.98C771.612 178.487 771.185 178.893 770.652 179.2C770.132 179.493 769.539 179.7 768.872 179.82C768.219 179.94 767.565 180 766.912 180H762.692V165.84ZM764.372 171.84H766.692C767.092 171.84 767.479 171.813 767.852 171.76C768.239 171.707 768.585 171.6 768.892 171.44C769.199 171.267 769.445 171.033 769.632 170.74C769.819 170.433 769.912 170.033 769.912 169.54C769.912 169.1 769.825 168.747 769.652 168.48C769.479 168.2 769.245 167.98 768.952 167.82C768.672 167.66 768.345 167.553 767.972 167.5C767.612 167.433 767.245 167.4 766.872 167.4H764.372V171.84ZM764.372 178.44H767.212C767.625 178.44 768.032 178.4 768.432 178.32C768.845 178.227 769.212 178.087 769.532 177.9C769.865 177.7 770.132 177.447 770.332 177.14C770.532 176.82 770.632 176.433 770.632 175.98C770.632 175.487 770.532 175.073 770.332 174.74C770.145 174.407 769.892 174.14 769.572 173.94C769.265 173.74 768.905 173.6 768.492 173.52C768.092 173.44 767.679 173.4 767.252 173.4H764.372V178.44Z" fill="black"/>
<path d="M778.89 165.84H782.51C783.19 165.84 783.863 165.88 784.53 165.96C785.21 166.04 785.816 166.213 786.35 166.48C786.883 166.747 787.316 167.14 787.65 167.66C787.983 168.167 788.15 168.86 788.15 169.74C788.15 170.78 787.836 171.62 787.21 172.26C786.583 172.9 785.716 173.307 784.61 173.48L788.63 180H786.57L782.73 173.64H780.57V180H778.89V165.84ZM780.57 172.08H782.07C782.536 172.08 783.016 172.067 783.51 172.04C784.016 172.013 784.476 171.927 784.89 171.78C785.316 171.633 785.663 171.407 785.93 171.1C786.21 170.78 786.35 170.327 786.35 169.74C786.35 169.233 786.25 168.827 786.05 168.52C785.85 168.213 785.583 167.98 785.25 167.82C784.93 167.647 784.563 167.533 784.15 167.48C783.75 167.427 783.343 167.4 782.93 167.4H780.57V172.08Z" fill="black"/>
<path d="M805.336 174.6C805.336 175.373 805.236 176.107 805.036 176.8C804.85 177.493 804.543 178.107 804.116 178.64C803.703 179.16 803.156 179.58 802.476 179.9C801.796 180.207 800.97 180.36 799.996 180.36C799.023 180.36 798.196 180.207 797.516 179.9C796.836 179.58 796.283 179.16 795.856 178.64C795.443 178.107 795.136 177.493 794.936 176.8C794.75 176.107 794.656 175.373 794.656 174.6V165.84H796.336V174.36C796.336 174.933 796.396 175.487 796.516 176.02C796.636 176.553 796.836 177.027 797.116 177.44C797.396 177.853 797.77 178.187 798.236 178.44C798.703 178.68 799.29 178.8 799.996 178.8C800.703 178.8 801.29 178.68 801.756 178.44C802.223 178.187 802.596 177.853 802.876 177.44C803.156 177.027 803.356 176.553 803.476 176.02C803.596 175.487 803.656 174.933 803.656 174.36V165.84H805.336V174.6Z" fill="black"/>
<path d="M812.398 165.84H814.078V180H812.398V165.84Z" fill="black"/>
<path d="M821.194 165.84H823.314L831.514 177.6H831.554V165.84H833.234V180H831.114L822.914 168.24H822.874V180H821.194V165.84Z" fill="black"/>
</svg>
