<svg width="1440" height="611" viewBox="0 0 1440 611" fill="none" xmlns="http://www.w3.org/2000/svg">
<rect x="-1" y="0.999634" width="1443" height="610" fill="#8E90FD"/>
<path d="M386.734 62.0544C386.734 93.8264 359.948 119.583 326.905 119.583C293.863 119.583 267.076 93.8264 267.076 62.0544" stroke="#B0DC7B" stroke-width="2"/>
<path d="M374.768 62.0543C374.768 87.4719 353.339 108.077 326.905 108.077C300.471 108.077 279.042 87.4719 279.042 62.0543" stroke="#B0DC7B" stroke-width="2"/>
<path d="M362.803 60.109C362.803 79.1722 346.731 94.626 326.905 94.626C307.08 94.626 291.008 79.1722 291.008 60.1091" stroke="#B0DC7B" stroke-width="2"/>
<path d="M350.836 56.7041C350.836 69.4129 340.122 79.7154 326.905 79.7154C313.688 79.7154 302.973 69.4129 302.973 56.7041" stroke="#B0DC7B" stroke-width="2"/>
<path d="M440.58 5.2841C440.58 37.056 413.794 62.8123 380.751 62.8123C347.709 62.8123 320.922 37.0561 320.922 5.28411" stroke="#B0DC7B" stroke-width="2"/>
<path d="M428.615 5.28399C428.615 30.7016 407.185 51.3066 380.751 51.3066C354.317 51.3066 332.888 30.7016 332.888 5.284" stroke="#B0DC7B" stroke-width="2"/>
<path d="M416.649 5.28415C416.649 24.3473 400.577 39.8011 380.751 39.8011C360.926 39.8011 344.854 24.3473 344.854 5.28416" stroke="#B0DC7B" stroke-width="2"/>
<path d="M404.683 0.420101C404.683 13.1289 393.968 23.4314 380.751 23.4314C367.534 23.4314 356.82 13.1289 356.82 0.420105" stroke="#B0DC7B" stroke-width="2"/>
<path d="M548.272 5.2841C548.272 37.056 521.486 62.8123 488.443 62.8123C455.401 62.8123 428.614 37.0561 428.614 5.28411" stroke="#B0DC7B" stroke-width="2"/>
<path d="M536.306 5.28399C536.306 30.7016 514.877 51.3066 488.443 51.3066C462.009 51.3066 440.58 30.7016 440.58 5.284" stroke="#B0DC7B" stroke-width="2"/>
<path d="M524.341 5.28415C524.341 24.3473 508.269 39.8011 488.443 39.8011C468.618 39.8011 452.546 24.3473 452.546 5.28416" stroke="#B0DC7B" stroke-width="2"/>
<path d="M512.375 0.420101C512.375 13.1289 501.66 23.4314 488.443 23.4314C475.226 23.4314 464.512 13.1289 464.512 0.420105" stroke="#B0DC7B" stroke-width="2"/>
<path d="M332.888 5.2841C332.888 37.056 306.102 62.8123 273.059 62.8123C240.016 62.8123 213.23 37.0561 213.23 5.28411" stroke="#B0DC7B" stroke-width="2"/>
<path d="M320.922 5.28399C320.922 30.7016 299.493 51.3066 273.059 51.3066C246.625 51.3066 225.196 30.7016 225.196 5.284" stroke="#B0DC7B" stroke-width="2"/>
<path d="M308.956 5.28415C308.956 24.3473 292.885 39.8011 273.059 39.8011C253.233 39.8011 237.162 24.3473 237.162 5.28416" stroke="#B0DC7B" stroke-width="2"/>
<path d="M296.991 0.420162C296.991 13.1289 286.276 23.4315 273.059 23.4315C259.842 23.4315 249.127 13.129 249.127 0.420166" stroke="#B0DC7B" stroke-width="2"/>
<path d="M494.426 62.0544C494.426 93.8264 467.64 119.583 434.597 119.583C401.555 119.583 374.769 93.8264 374.769 62.0544" stroke="#B0DC7B" stroke-width="2"/>
<path d="M482.46 62.0543C482.46 87.4719 461.031 108.077 434.597 108.077C408.163 108.077 386.734 87.4719 386.734 62.0543" stroke="#B0DC7B" stroke-width="2"/>
<path d="M470.495 60.109C470.495 79.1722 454.423 94.626 434.598 94.626C414.772 94.626 398.7 79.1722 398.7 60.1091" stroke="#B0DC7B" stroke-width="2"/>
<path d="M458.529 56.7041C458.529 69.4129 447.815 79.7154 434.598 79.7154C421.381 79.7154 410.666 69.4129 410.666 56.7041" stroke="#B0DC7B" stroke-width="2"/>
<path d="M117.505 5.28422C117.505 37.0562 90.7182 62.8124 57.6756 62.8124C24.633 62.8124 -2.15332 37.0562 -2.15333 5.28423" stroke="#B0DC7B" stroke-width="2"/>
<path d="M105.538 5.28411C105.538 30.7017 84.1093 51.3067 57.6752 51.3067C31.2411 51.3067 9.81201 30.7017 9.81201 5.28412" stroke="#B0DC7B" stroke-width="2"/>
<path d="M93.5726 5.28428C93.5726 24.3474 77.5008 39.8012 57.6752 39.8012C37.8496 39.8012 21.7778 24.3475 21.7778 5.28428" stroke="#B0DC7B" stroke-width="2"/>
<path d="M81.6068 0.420162C81.6068 13.1289 70.8923 23.4315 57.6752 23.4315C44.4582 23.4315 33.7437 13.129 33.7437 0.420166" stroke="#B0DC7B" stroke-width="2"/>
<path d="M225.196 5.28422C225.196 37.0562 198.41 62.8124 165.367 62.8124C132.324 62.8124 105.538 37.0562 105.538 5.28423" stroke="#B0DC7B" stroke-width="2"/>
<path d="M213.23 5.28411C213.23 30.7017 191.801 51.3067 165.367 51.3067C138.933 51.3067 117.504 30.7017 117.504 5.28412" stroke="#B0DC7B" stroke-width="2"/>
<path d="M201.264 5.28415C201.264 24.3473 185.193 39.8011 165.367 39.8011C145.542 39.8011 129.47 24.3473 129.47 5.28416" stroke="#B0DC7B" stroke-width="2"/>
<path d="M189.299 0.420162C189.299 13.1289 178.584 23.4315 165.367 23.4315C152.15 23.4315 141.436 13.129 141.436 0.420166" stroke="#B0DC7B" stroke-width="2"/>
<path d="M117.505 118.339C117.505 150.111 90.7182 175.867 57.6756 175.867C24.633 175.867 -2.15332 150.111 -2.15333 118.339" stroke="#B0DC7B" stroke-width="2"/>
<path d="M105.538 118.339C105.538 143.756 84.1093 164.361 57.6752 164.361C31.2411 164.361 9.81201 143.756 9.81201 118.339" stroke="#B0DC7B" stroke-width="2"/>
<path d="M93.5721 118.339C93.5721 137.402 77.5003 152.855 57.6747 152.855C37.8491 152.855 21.7773 137.402 21.7773 118.339" stroke="#B0DC7B" stroke-width="2"/>
<path d="M81.6063 111.529C81.6063 124.238 70.8918 134.54 57.6747 134.54C44.4577 134.54 33.7432 124.238 33.7432 111.529" stroke="#B0DC7B" stroke-width="2"/>
<path d="M171.35 62.0545C171.35 93.8265 144.564 119.583 111.521 119.583C78.4787 119.583 51.6924 93.8265 51.6924 62.0546" stroke="#B0DC7B" stroke-width="2"/>
<path d="M159.385 62.0543C159.385 87.4719 137.955 108.077 111.521 108.077C85.0873 108.077 63.6582 87.4719 63.6582 62.0543" stroke="#B0DC7B" stroke-width="2"/>
<path d="M147.418 60.5955C147.418 79.6587 131.346 95.1124 111.521 95.1124C91.6953 95.1124 75.6235 79.6587 75.6235 60.5955" stroke="#B0DC7B" stroke-width="2"/>
<path d="M135.453 55.7314C135.453 68.4402 124.738 78.7427 111.521 78.7427C98.3039 78.7427 87.5894 68.4402 87.5894 55.7314" stroke="#B0DC7B" stroke-width="2"/>
<path d="M279.042 62.0544C279.042 93.8264 252.256 119.583 219.213 119.583C186.171 119.583 159.384 93.8264 159.384 62.0544" stroke="#B0DC7B" stroke-width="2"/>
<path d="M267.076 62.0543C267.076 87.4719 245.647 108.077 219.213 108.077C192.779 108.077 171.35 87.4719 171.35 62.0543" stroke="#B0DC7B" stroke-width="2"/>
<path d="M255.111 60.109C255.111 79.1722 239.039 94.626 219.213 94.626C199.388 94.626 183.316 79.1722 183.316 60.1091" stroke="#B0DC7B" stroke-width="2"/>
<path d="M243.145 56.7041C243.145 69.4129 232.43 79.7154 219.213 79.7154C205.996 79.7154 195.282 69.4129 195.282 56.7041" stroke="#B0DC7B" stroke-width="2"/>
<path d="M63.6579 62.0545C63.6579 93.8265 36.8716 119.583 3.82894 119.583C-29.2137 119.583 -56 93.8265 -56 62.0546" stroke="#B0DC7B" stroke-width="2"/>
<path d="M51.6921 62.0543C51.6921 87.4719 30.2631 108.077 3.82898 108.077C-22.6051 108.077 -44.0342 87.4719 -44.0342 62.0543" stroke="#B0DC7B" stroke-width="2"/>
<path d="M39.7264 60.5955C39.7264 79.6587 23.6546 95.1124 3.829 95.1124C-15.9966 95.1124 -32.0684 79.6587 -32.0684 60.5955" stroke="#B0DC7B" stroke-width="2"/>
<path d="M27.7606 56.7041C27.7606 69.4129 17.0461 79.7154 3.82904 79.7154C-9.38801 79.7154 -20.1025 69.4129 -20.1025 56.7041" stroke="#B0DC7B" stroke-width="2"/>
<path d="M225.196 118.339C225.196 150.111 198.41 175.867 165.367 175.867C132.324 175.867 105.538 150.111 105.538 118.339" stroke="#B0DC7B" stroke-width="2"/>
<path d="M213.23 118.339C213.23 143.756 191.801 164.361 165.367 164.361C138.933 164.361 117.504 143.756 117.504 118.339" stroke="#B0DC7B" stroke-width="2"/>
<path d="M201.264 118.339C201.264 137.402 185.192 152.855 165.367 152.855C145.541 152.855 129.469 137.402 129.469 118.339" stroke="#B0DC7B" stroke-width="2"/>
<path d="M189.299 112.502C189.299 125.211 178.584 135.513 165.367 135.513C152.15 135.513 141.436 125.211 141.436 112.502" stroke="#B0DC7B" stroke-width="2"/>
<path d="M1053.54 62.0544C1053.54 93.8264 1080.32 119.583 1113.37 119.583C1146.41 119.583 1173.2 93.8264 1173.2 62.0544" stroke="#B0DC7B" stroke-width="2"/>
<path d="M1065.5 62.0543C1065.5 87.4719 1086.93 108.077 1113.37 108.077C1139.8 108.077 1161.23 87.4719 1161.23 62.0543" stroke="#B0DC7B" stroke-width="2"/>
<path d="M1077.47 60.109C1077.47 79.1722 1093.54 94.626 1113.37 94.626C1133.19 94.626 1149.26 79.1722 1149.26 60.1091" stroke="#B0DC7B" stroke-width="2"/>
<path d="M1089.44 56.7041C1089.44 69.4129 1100.15 79.7154 1113.37 79.7154C1126.58 79.7154 1137.3 69.4129 1137.3 56.7041" stroke="#B0DC7B" stroke-width="2"/>
<path d="M999.692 5.2841C999.692 37.056 1026.48 62.8123 1059.52 62.8123C1092.56 62.8123 1119.35 37.0561 1119.35 5.28411" stroke="#B0DC7B" stroke-width="2"/>
<path d="M1011.66 5.28399C1011.66 30.7016 1033.09 51.3066 1059.52 51.3066C1085.96 51.3066 1107.38 30.7016 1107.38 5.284" stroke="#B0DC7B" stroke-width="2"/>
<path d="M1023.62 5.28415C1023.62 24.3473 1039.7 39.8011 1059.52 39.8011C1079.35 39.8011 1095.42 24.3473 1095.42 5.28416" stroke="#B0DC7B" stroke-width="2"/>
<path d="M1035.59 0.420101C1035.59 13.1289 1046.3 23.4314 1059.52 23.4314C1072.74 23.4314 1083.45 13.1289 1083.45 0.420105" stroke="#B0DC7B" stroke-width="2"/>
<path d="M892 5.2841C892 37.056 918.787 62.8123 951.829 62.8123C984.872 62.8123 1011.66 37.0561 1011.66 5.28411" stroke="#B0DC7B" stroke-width="2"/>
<path d="M903.966 5.28399C903.966 30.7016 925.395 51.3066 951.829 51.3066C978.263 51.3066 999.692 30.7016 999.692 5.284" stroke="#B0DC7B" stroke-width="2"/>
<path d="M915.932 5.28415C915.932 24.3473 932.004 39.8011 951.829 39.8011C971.655 39.8011 987.727 24.3473 987.727 5.28416" stroke="#B0DC7B" stroke-width="2"/>
<path d="M927.898 0.420101C927.898 13.1289 938.612 23.4314 951.829 23.4314C965.046 23.4314 975.761 13.1289 975.761 0.420105" stroke="#B0DC7B" stroke-width="2"/>
<path d="M1107.38 5.2841C1107.38 37.056 1134.17 62.8123 1167.21 62.8123C1200.26 62.8123 1227.04 37.0561 1227.04 5.28411" stroke="#B0DC7B" stroke-width="2"/>
<path d="M1119.35 5.28399C1119.35 30.7016 1140.78 51.3066 1167.21 51.3066C1193.65 51.3066 1215.08 30.7016 1215.08 5.284" stroke="#B0DC7B" stroke-width="2"/>
<path d="M1131.32 5.28415C1131.32 24.3473 1147.39 39.8011 1167.21 39.8011C1187.04 39.8011 1203.11 24.3473 1203.11 5.28416" stroke="#B0DC7B" stroke-width="2"/>
<path d="M1143.28 0.420162C1143.28 13.1289 1154 23.4315 1167.21 23.4315C1180.43 23.4315 1191.15 13.129 1191.15 0.420166" stroke="#B0DC7B" stroke-width="2"/>
<path d="M945.846 62.0544C945.846 93.8264 972.632 119.583 1005.67 119.583C1038.72 119.583 1065.5 93.8264 1065.5 62.0544" stroke="#B0DC7B" stroke-width="2"/>
<path d="M957.812 62.0543C957.812 87.4719 979.241 108.077 1005.68 108.077C1032.11 108.077 1053.54 87.4719 1053.54 62.0543" stroke="#B0DC7B" stroke-width="2"/>
<path d="M969.778 60.109C969.778 79.1722 985.849 94.626 1005.67 94.626C1025.5 94.626 1041.57 79.1722 1041.57 60.1091" stroke="#B0DC7B" stroke-width="2"/>
<path d="M981.743 56.7041C981.743 69.4129 992.458 79.7154 1005.67 79.7154C1018.89 79.7154 1029.61 69.4129 1029.61 56.7041" stroke="#B0DC7B" stroke-width="2"/>
<path d="M1322.77 5.28422C1322.77 37.0562 1349.55 62.8124 1382.6 62.8124C1415.64 62.8124 1442.43 37.0562 1442.43 5.28423" stroke="#B0DC7B" stroke-width="2"/>
<path d="M1334.73 5.28411C1334.73 30.7017 1356.16 51.3067 1382.6 51.3067C1409.03 51.3067 1430.46 30.7017 1430.46 5.28412" stroke="#B0DC7B" stroke-width="2"/>
<path d="M1346.7 5.28428C1346.7 24.3474 1362.77 39.8012 1382.6 39.8012C1402.42 39.8012 1418.5 24.3475 1418.5 5.28428" stroke="#B0DC7B" stroke-width="2"/>
<path d="M1358.67 0.420162C1358.67 13.1289 1369.38 23.4315 1382.6 23.4315C1395.81 23.4315 1406.53 13.129 1406.53 0.420166" stroke="#B0DC7B" stroke-width="2"/>
<path d="M1215.08 5.28422C1215.08 37.0562 1241.86 62.8124 1274.91 62.8124C1307.95 62.8124 1334.73 37.0562 1334.73 5.28423" stroke="#B0DC7B" stroke-width="2"/>
<path d="M1227.04 5.28411C1227.04 30.7017 1248.47 51.3067 1274.91 51.3067C1301.34 51.3067 1322.77 30.7017 1322.77 5.28412" stroke="#B0DC7B" stroke-width="2"/>
<path d="M1239.01 5.28415C1239.01 24.3473 1255.08 39.8011 1274.91 39.8011C1294.73 39.8011 1310.8 24.3473 1310.8 5.28416" stroke="#B0DC7B" stroke-width="2"/>
<path d="M1250.97 0.420162C1250.97 13.1289 1261.69 23.4315 1274.91 23.4315C1288.12 23.4315 1298.84 13.129 1298.84 0.420166" stroke="#B0DC7B" stroke-width="2"/>
<path d="M1322.77 118.339C1322.77 150.111 1349.55 175.867 1382.6 175.867C1415.64 175.867 1442.43 150.111 1442.43 118.339" stroke="#B0DC7B" stroke-width="2"/>
<path d="M1334.73 118.339C1334.73 143.756 1356.16 164.361 1382.6 164.361C1409.03 164.361 1430.46 143.756 1430.46 118.339" stroke="#B0DC7B" stroke-width="2"/>
<path d="M1346.7 118.339C1346.7 137.402 1362.77 152.855 1382.6 152.855C1402.42 152.855 1418.5 137.402 1418.5 118.339" stroke="#B0DC7B" stroke-width="2"/>
<path d="M1358.67 111.529C1358.67 124.238 1369.38 134.54 1382.6 134.54C1395.81 134.54 1406.53 124.238 1406.53 111.529" stroke="#B0DC7B" stroke-width="2"/>
<path d="M1268.92 62.0545C1268.92 93.8265 1295.71 119.583 1328.75 119.583C1361.79 119.583 1388.58 93.8265 1388.58 62.0546" stroke="#B0DC7B" stroke-width="2"/>
<path d="M1280.89 62.0543C1280.89 87.4719 1302.32 108.077 1328.75 108.077C1355.19 108.077 1376.61 87.4719 1376.61 62.0543" stroke="#B0DC7B" stroke-width="2"/>
<path d="M1292.85 60.5955C1292.85 79.6587 1308.93 95.1124 1328.75 95.1124C1348.58 95.1124 1364.65 79.6587 1364.65 60.5955" stroke="#B0DC7B" stroke-width="2"/>
<path d="M1304.82 55.7314C1304.82 68.4402 1315.53 78.7427 1328.75 78.7427C1341.97 78.7427 1352.68 68.4402 1352.68 55.7314" stroke="#B0DC7B" stroke-width="2"/>
<path d="M1161.23 62.0544C1161.23 93.8264 1188.02 119.583 1221.06 119.583C1254.1 119.583 1280.89 93.8264 1280.89 62.0544" stroke="#B0DC7B" stroke-width="2"/>
<path d="M1173.2 62.0543C1173.2 87.4719 1194.63 108.077 1221.06 108.077C1247.49 108.077 1268.92 87.4719 1268.92 62.0543" stroke="#B0DC7B" stroke-width="2"/>
<path d="M1185.16 60.109C1185.16 79.1722 1201.23 94.626 1221.06 94.626C1240.88 94.626 1256.96 79.1722 1256.96 60.1091" stroke="#B0DC7B" stroke-width="2"/>
<path d="M1197.13 56.7041C1197.13 69.4129 1207.84 79.7154 1221.06 79.7154C1234.28 79.7154 1244.99 69.4129 1244.99 56.7041" stroke="#B0DC7B" stroke-width="2"/>
<path d="M1376.61 62.0545C1376.61 93.8265 1403.4 119.583 1436.44 119.583C1469.49 119.583 1496.27 93.8265 1496.27 62.0546" stroke="#B0DC7B" stroke-width="2"/>
<path d="M1388.58 62.0543C1388.58 87.4719 1410.01 108.077 1436.44 108.077C1462.88 108.077 1484.31 87.4719 1484.31 62.0543" stroke="#B0DC7B" stroke-width="2"/>
<path d="M1400.55 60.5955C1400.55 79.6587 1416.62 95.1124 1436.44 95.1124C1456.27 95.1124 1472.34 79.6587 1472.34 60.5955" stroke="#B0DC7B" stroke-width="2"/>
<path d="M1412.51 56.7041C1412.51 69.4129 1423.23 79.7154 1436.44 79.7154C1449.66 79.7154 1460.38 69.4129 1460.38 56.7041" stroke="#B0DC7B" stroke-width="2"/>
<path d="M1215.08 118.339C1215.08 150.111 1241.86 175.867 1274.91 175.867C1307.95 175.867 1334.73 150.111 1334.73 118.339" stroke="#B0DC7B" stroke-width="2"/>
<path d="M1227.04 118.339C1227.04 143.756 1248.47 164.361 1274.91 164.361C1301.34 164.361 1322.77 143.756 1322.77 118.339" stroke="#B0DC7B" stroke-width="2"/>
<path d="M1239.01 118.339C1239.01 137.402 1255.08 152.855 1274.91 152.855C1294.73 152.855 1310.8 137.402 1310.8 118.339" stroke="#B0DC7B" stroke-width="2"/>
<path d="M1250.97 112.502C1250.97 125.211 1261.69 135.513 1274.91 135.513C1288.12 135.513 1298.84 125.211 1298.84 112.502" stroke="#B0DC7B" stroke-width="2"/>
<path d="M258.283 260.373C178.393 457.605 241.511 503.56 283.056 501.884" stroke="#B0DC7B" stroke-width="4"/>
<path d="M220.713 398.29C214.664 334.783 194.396 316.476 185.019 315.261" stroke="#B0DC7B" stroke-width="4"/>
<path d="M287.797 372.601C228.75 401.646 218.627 426.549 220.946 435.37" stroke="#B0DC7B" stroke-width="4"/>
<g style="mix-blend-mode:overlay">
<g style="mix-blend-mode:exclusion">
<ellipse rx="18.9551" ry="18.9394" transform="matrix(0.728074 -0.685498 0.713506 0.700649 245.355 246.061)" fill="#FFB59F"/>
</g>
<g style="mix-blend-mode:exclusion">
<ellipse rx="18.9551" ry="18.9394" transform="matrix(0.728074 -0.685498 0.713506 0.700649 266.809 242.648)" fill="#FFB59F"/>
</g>
<g style="mix-blend-mode:exclusion">
<ellipse rx="18.9551" ry="18.9394" transform="matrix(0.728074 -0.685498 0.713506 0.700649 279.311 263.478)" fill="#FFB59F"/>
</g>
<g style="mix-blend-mode:exclusion">
<ellipse rx="18.9551" ry="18.9394" transform="matrix(0.728074 -0.685498 0.713506 0.700649 261.922 279.107)" fill="#FFB59F"/>
</g>
<g style="mix-blend-mode:exclusion">
<ellipse rx="18.9551" ry="18.9394" transform="matrix(0.728074 -0.685498 0.713506 0.700649 242.066 271.289)" fill="#FFB59F"/>
</g>
</g>
<g style="mix-blend-mode:overlay">
<g style="mix-blend-mode:exclusion">
<ellipse rx="12.6994" ry="12.689" transform="matrix(0.728074 -0.685498 0.713506 0.700649 174.615 305.266)" fill="#B0DC7B"/>
</g>
<g style="mix-blend-mode:exclusion">
<ellipse rx="12.6994" ry="12.689" transform="matrix(0.728074 -0.685498 0.713506 0.700649 188.988 302.979)" fill="#B0DC7B"/>
</g>
<g style="mix-blend-mode:exclusion">
<ellipse rx="12.6994" ry="12.689" transform="matrix(0.728074 -0.685498 0.713506 0.700649 197.364 316.934)" fill="#B0DC7B"/>
</g>
<g style="mix-blend-mode:exclusion">
<ellipse rx="12.6994" ry="12.689" transform="matrix(0.728074 -0.685498 0.713506 0.700649 185.714 327.406)" fill="#B0DC7B"/>
</g>
<g style="mix-blend-mode:exclusion">
<ellipse rx="12.6994" ry="12.689" transform="matrix(0.728074 -0.685498 0.713506 0.700649 172.411 322.168)" fill="#B0DC7B"/>
</g>
</g>
<g style="mix-blend-mode:overlay">
<g style="mix-blend-mode:exclusion">
<ellipse rx="12.6994" ry="12.689" transform="matrix(0.728074 -0.685498 0.713506 0.700649 277.704 364.546)" fill="#FFEC43"/>
</g>
<g style="mix-blend-mode:exclusion">
<ellipse rx="12.6994" ry="12.689" transform="matrix(0.728074 -0.685498 0.713506 0.700649 292.077 362.259)" fill="#FFEC43"/>
</g>
<g style="mix-blend-mode:exclusion">
<ellipse rx="12.6994" ry="12.689" transform="matrix(0.728074 -0.685498 0.713506 0.700649 300.453 376.215)" fill="#FFEC43"/>
</g>
<g style="mix-blend-mode:exclusion">
<ellipse rx="12.6994" ry="12.689" transform="matrix(0.728074 -0.685498 0.713506 0.700649 288.803 386.686)" fill="#FFEC43"/>
</g>
<g style="mix-blend-mode:exclusion">
<ellipse rx="12.6994" ry="12.689" transform="matrix(0.728074 -0.685498 0.713506 0.700649 275.5 381.448)" fill="#FFEC43"/>
</g>
</g>
<path d="M1181.34 260.373C1261.23 457.605 1198.11 503.56 1156.57 501.884" stroke="#B0DC7B" stroke-width="4"/>
<path d="M1218.91 398.29C1224.96 334.782 1245.23 316.475 1254.6 315.261" stroke="#B0DC7B" stroke-width="4"/>
<path d="M1151.83 372.6C1210.87 401.646 1221 426.549 1218.68 435.37" stroke="#B0DC7B" stroke-width="4"/>
<g style="mix-blend-mode:overlay">
<g style="mix-blend-mode:exclusion">
<ellipse rx="18.9551" ry="18.9394" transform="matrix(-0.728074 -0.685498 -0.713506 0.700649 1194.27 246.061)" fill="#FFB59F"/>
</g>
<g style="mix-blend-mode:exclusion">
<ellipse rx="18.9551" ry="18.9394" transform="matrix(-0.728074 -0.685498 -0.713506 0.700649 1172.81 242.648)" fill="#FFB59F"/>
</g>
<g style="mix-blend-mode:exclusion">
<ellipse rx="18.9551" ry="18.9394" transform="matrix(-0.728074 -0.685498 -0.713506 0.700649 1160.31 263.478)" fill="#FFB59F"/>
</g>
<g style="mix-blend-mode:exclusion">
<ellipse rx="18.9551" ry="18.9394" transform="matrix(-0.728074 -0.685498 -0.713506 0.700649 1177.7 279.107)" fill="#FFB59F"/>
</g>
<g style="mix-blend-mode:exclusion">
<ellipse rx="18.9551" ry="18.9394" transform="matrix(-0.728074 -0.685498 -0.713506 0.700649 1197.56 271.289)" fill="#FFB59F"/>
</g>
</g>
<g style="mix-blend-mode:overlay">
<g style="mix-blend-mode:exclusion">
<ellipse rx="12.6994" ry="12.689" transform="matrix(-0.728074 -0.685498 -0.713506 0.700649 1265.01 305.266)" fill="#B0DC7B"/>
</g>
<g style="mix-blend-mode:exclusion">
<ellipse rx="12.6994" ry="12.689" transform="matrix(-0.728074 -0.685498 -0.713506 0.700649 1250.63 302.979)" fill="#B0DC7B"/>
</g>
<g style="mix-blend-mode:exclusion">
<ellipse rx="12.6994" ry="12.689" transform="matrix(-0.728074 -0.685498 -0.713506 0.700649 1242.26 316.934)" fill="#B0DC7B"/>
</g>
<g style="mix-blend-mode:exclusion">
<ellipse rx="12.6994" ry="12.689" transform="matrix(-0.728074 -0.685498 -0.713506 0.700649 1253.91 327.405)" fill="#B0DC7B"/>
</g>
<g style="mix-blend-mode:exclusion">
<ellipse rx="12.6994" ry="12.689" transform="matrix(-0.728074 -0.685498 -0.713506 0.700649 1267.21 322.167)" fill="#B0DC7B"/>
</g>
</g>
<g style="mix-blend-mode:overlay">
<g style="mix-blend-mode:exclusion">
<ellipse rx="12.6994" ry="12.689" transform="matrix(-0.728074 -0.685498 -0.713506 0.700649 1161.92 364.546)" fill="#FFEC43"/>
</g>
<g style="mix-blend-mode:exclusion">
<ellipse rx="12.6994" ry="12.689" transform="matrix(-0.728074 -0.685498 -0.713506 0.700649 1147.54 362.259)" fill="#FFEC43"/>
</g>
<g style="mix-blend-mode:exclusion">
<ellipse rx="12.6994" ry="12.689" transform="matrix(-0.728074 -0.685498 -0.713506 0.700649 1139.17 376.214)" fill="#FFEC43"/>
</g>
<g style="mix-blend-mode:exclusion">
<ellipse rx="12.6994" ry="12.689" transform="matrix(-0.728074 -0.685498 -0.713506 0.700649 1150.82 386.686)" fill="#FFEC43"/>
</g>
<g style="mix-blend-mode:exclusion">
<ellipse rx="12.6994" ry="12.689" transform="matrix(-0.728074 -0.685498 -0.713506 0.700649 1164.12 381.448)" fill="#FFEC43"/>
</g>
</g>
</svg>
