<svg width="1440" height="295" viewBox="0 0 1440 295" fill="none" xmlns="http://www.w3.org/2000/svg">
<rect x="1" width="1440" height="295" fill="#8C8FFE"/>
<path d="M169.768 104.065C173.711 102.347 181.503 100.098 182.022 101.289C182.541 102.479 175.59 106.657 171.647 108.375C167.704 110.094 167.97 108.951 167.451 107.761C166.932 106.571 165.826 105.784 169.768 104.065Z" fill="#B0DC7B"/>
<path d="M170.119 97.6747C174.398 98.1088 182.292 99.9678 182.161 101.26C182.03 102.551 173.923 102.787 169.644 102.353C165.365 101.918 166.157 101.053 166.288 99.7609C166.419 98.4691 165.84 97.2406 170.119 97.6747Z" fill="#B0DC7B"/>
<path d="M195.047 85.4373C190.967 86.7971 183.005 88.3411 182.595 87.1093C182.184 85.8775 189.48 82.3364 193.561 80.9766C197.641 79.6167 197.275 80.731 197.685 81.9628C198.096 83.1946 199.128 84.0775 195.047 85.4373Z" fill="#B0DC7B"/>
<path d="M194.128 91.771C189.905 90.9569 182.208 88.4011 182.454 87.1261C182.699 85.8512 190.795 86.3399 195.018 87.1541C199.241 87.9683 198.376 88.76 198.13 90.035C197.884 91.3099 198.351 92.5852 194.128 91.771Z" fill="#B0DC7B"/>
<path d="M197.328 113.265C193.248 114.625 185.286 116.169 184.875 114.937C184.465 113.705 191.761 110.164 195.842 108.804C199.922 107.444 199.555 108.559 199.966 109.79C200.376 111.022 201.408 111.905 197.328 113.265Z" fill="#B0DC7B"/>
<path d="M171.136 117.752C175.079 116.033 182.871 113.785 183.39 114.975C183.908 116.165 176.957 120.343 173.015 122.062C169.072 123.78 169.337 122.638 168.819 121.448C168.3 120.257 167.193 119.47 171.136 117.752Z" fill="#B0DC7B"/>
<path d="M171.487 111.361C175.766 111.795 183.66 113.654 183.529 114.946C183.398 116.238 175.291 116.473 171.012 116.039C166.733 115.605 167.525 114.739 167.656 113.447C167.787 112.156 167.208 110.927 171.487 111.361Z" fill="#B0DC7B"/>
<path d="M197.784 127.407C193.704 128.767 185.742 130.311 185.332 129.079C184.921 127.847 192.217 124.306 196.298 122.946C200.378 121.586 200.011 122.701 200.422 123.933C200.833 125.164 201.865 126.047 197.784 127.407Z" fill="#B0DC7B"/>
<path d="M196.865 133.741C192.642 132.927 184.945 130.371 185.191 129.096C185.437 127.821 193.532 128.31 197.755 129.124C201.978 129.938 201.113 130.73 200.867 132.005C200.621 133.28 201.088 134.555 196.865 133.741Z" fill="#B0DC7B"/>
<path d="M197.784 127.407C193.704 128.767 185.742 130.311 185.332 129.079C184.921 127.847 192.217 124.306 196.298 122.946C200.378 121.586 200.011 122.701 200.422 123.933C200.833 125.164 201.865 126.047 197.784 127.407Z" fill="#B0DC7B"/>
<path d="M196.865 133.741C192.642 132.927 184.945 130.371 185.191 129.096C185.437 127.821 193.532 128.31 197.755 129.124C201.978 129.938 201.113 130.73 200.867 132.005C200.621 133.28 201.088 134.555 196.865 133.741Z" fill="#B0DC7B"/>
<path d="M200.066 155.691C195.986 157.051 188.024 158.595 187.613 157.363C187.203 156.132 194.499 152.59 198.579 151.231C202.66 149.871 202.293 150.985 202.704 152.217C203.114 153.449 204.146 154.331 200.066 155.691Z" fill="#B0DC7B"/>
<path d="M199.146 162.025C194.923 161.211 187.226 158.655 187.472 157.38C187.717 156.105 195.813 156.594 200.036 157.408C204.259 158.222 203.394 159.014 203.148 160.289C202.902 161.564 203.369 162.839 199.146 162.025Z" fill="#B0DC7B"/>
<path d="M173.874 160.175C177.816 158.457 185.609 156.209 186.127 157.399C186.646 158.589 179.695 162.767 175.752 164.486C171.81 166.204 172.075 165.062 171.556 163.871C171.038 162.681 169.931 161.894 173.874 160.175Z" fill="#B0DC7B"/>
<path d="M199.153 141.549C195.073 142.909 187.111 144.453 186.7 143.221C186.29 141.989 193.586 138.448 197.666 137.088C201.747 135.729 201.38 136.843 201.791 138.075C202.201 139.306 203.233 140.189 199.153 141.549Z" fill="#B0DC7B"/>
<path d="M198.233 147.883C194.01 147.069 186.313 144.513 186.559 143.238C186.805 141.963 194.9 142.452 199.123 143.266C203.347 144.081 202.481 144.872 202.235 146.147C201.989 147.422 202.456 148.697 198.233 147.883Z" fill="#B0DC7B"/>
<path d="M172.961 146.034C176.903 144.316 184.696 142.068 185.214 143.258C185.733 144.448 178.782 148.626 174.839 150.345C170.897 152.063 171.162 150.921 170.643 149.73C170.125 148.54 169.018 147.753 172.961 146.034Z" fill="#B0DC7B"/>
<path d="M173.311 139.644C177.59 140.078 185.484 141.937 185.353 143.229C185.222 144.521 177.115 144.756 172.836 144.322C168.558 143.888 169.349 143.022 169.48 141.73C169.611 140.438 169.032 139.21 173.311 139.644Z" fill="#B0DC7B"/>
<path d="M201.434 169.378C197.353 170.737 189.391 172.281 188.981 171.05C188.57 169.818 195.867 166.277 199.947 164.917C204.027 163.557 203.661 164.671 204.071 165.903C204.482 167.135 205.514 168.018 201.434 169.378Z" fill="#B0DC7B"/>
<path d="M200.515 175.71C196.291 174.896 188.594 172.34 188.84 171.065C189.086 169.79 197.181 170.279 201.405 171.093C205.628 171.907 204.762 172.699 204.517 173.974C204.271 175.249 204.738 176.524 200.515 175.71Z" fill="#B0DC7B"/>
<path d="M175.242 173.862C179.185 172.144 186.977 169.896 187.496 171.086C188.014 172.276 181.063 176.454 177.121 178.173C173.178 179.891 173.443 178.749 172.925 177.558C172.406 176.368 171.299 175.581 175.242 173.862Z" fill="#B0DC7B"/>
<path d="M175.592 167.473C179.871 167.907 187.766 169.766 187.635 171.057C187.503 172.349 179.397 172.585 175.118 172.15C170.839 171.716 171.63 170.85 171.761 169.559C171.892 168.267 171.313 167.038 175.592 167.473Z" fill="#B0DC7B"/>
<path d="M201.89 183.518C197.81 184.878 189.848 186.422 189.437 185.19C189.027 183.958 196.323 180.417 200.404 179.057C204.484 177.697 204.117 178.812 204.528 180.043C204.938 181.275 205.971 182.158 201.89 183.518Z" fill="#B0DC7B"/>
<path d="M200.971 189.852C196.747 189.038 189.05 186.482 189.296 185.207C189.542 183.932 197.637 184.421 201.861 185.235C206.084 186.049 205.218 186.841 204.973 188.116C204.727 189.391 205.194 190.666 200.971 189.852Z" fill="#B0DC7B"/>
<path d="M175.698 188.005C179.641 186.286 187.433 184.038 187.952 185.228C188.471 186.419 181.52 190.596 177.577 192.315C173.634 194.033 173.9 192.891 173.381 191.701C172.862 190.51 171.756 189.723 175.698 188.005Z" fill="#B0DC7B"/>
<path d="M176.049 181.614C180.328 182.048 188.222 183.907 188.091 185.198C187.96 186.49 179.853 186.726 175.574 186.292C171.295 185.857 172.087 184.992 172.218 183.7C172.349 182.408 171.77 181.18 176.049 181.614Z" fill="#B0DC7B"/>
<path d="M199.609 183.518C195.529 184.878 187.567 186.422 187.156 185.19C186.746 183.958 194.042 180.417 198.122 179.058C202.203 177.698 201.836 178.812 202.247 180.044C202.657 181.276 203.689 182.159 199.609 183.518Z" fill="#B0DC7B"/>
<path d="M198.69 189.852C194.467 189.038 186.77 186.482 187.015 185.207C187.261 183.932 195.357 184.421 199.58 185.235C203.803 186.049 202.938 186.841 202.692 188.116C202.446 189.391 202.913 190.666 198.69 189.852Z" fill="#B0DC7B"/>
<path d="M179.496 74.1377C181.014 78.1615 182.87 86.0566 181.655 86.5151C180.44 86.9736 176.615 79.8219 175.097 75.7981C173.578 71.7743 174.706 72.0967 175.92 71.6382C177.135 71.1797 177.977 70.1139 179.496 74.1377Z" fill="#B0DC7B"/>
<path d="M185.861 74.808C185.213 79.0598 182.961 86.851 181.677 86.6554C180.394 86.4599 180.564 78.3515 181.212 74.0996C181.86 69.8478 182.685 70.6816 183.969 70.8772C185.253 71.0728 186.509 70.5561 185.861 74.808Z" fill="#B0DC7B"/>
<path d="M175.698 188.005C179.641 186.286 187.433 184.038 187.952 185.228C188.471 186.419 181.52 190.596 177.577 192.315C173.634 194.033 173.9 192.891 173.381 191.701C172.862 190.51 171.756 189.723 175.698 188.005Z" fill="#B0DC7B"/>
<path d="M176.049 181.614C180.328 182.048 188.222 183.907 188.091 185.198C187.96 186.49 179.853 186.726 175.574 186.292C171.295 185.857 172.087 184.992 172.218 183.7C172.349 182.408 171.77 181.18 176.049 181.614Z" fill="#B0DC7B"/>
<path d="M171.246 217.415C175.441 216.466 183.516 215.717 183.803 216.983C184.089 218.25 176.479 221.052 172.284 222.001C168.089 222.951 168.564 221.878 168.277 220.612C167.991 219.346 167.051 218.365 171.246 217.415Z" fill="#B0DC7B"/>
<path d="M172.788 211.203C176.91 212.431 184.316 215.736 183.946 216.98C183.575 218.225 175.568 216.938 171.446 215.71C167.324 214.482 168.263 213.779 168.634 212.535C169.005 211.291 168.666 209.975 172.788 211.203Z" fill="#B0DC7B"/>
<path d="M197.742 203.853C193.48 204.425 185.369 204.45 185.197 203.163C185.024 201.876 192.855 199.765 197.118 199.193C201.38 198.622 200.812 199.648 200.984 200.934C201.157 202.221 202.005 203.282 197.742 203.853Z" fill="#B0DC7B"/>
<path d="M195.653 209.903C191.657 208.312 184.576 204.36 185.056 203.153C185.536 201.947 193.397 203.943 197.393 205.534C201.388 207.125 200.39 207.741 199.91 208.947C199.429 210.153 199.649 211.494 195.653 209.903Z" fill="#B0DC7B"/>
<path d="M181.334 77.0806L188.186 176.933L177.701 259.223" stroke="#B0DC7B" stroke-width="2.89698"/>
<path d="M47.3158 103.34C43.3731 101.622 35.5807 99.3735 35.0619 100.564C34.5431 101.754 41.4944 105.932 45.4371 107.65C49.3798 109.369 49.1143 108.226 49.6331 107.036C50.1519 105.846 51.2586 105.058 47.3158 103.34Z" fill="#B0DC7B"/>
<path d="M46.9653 96.9501C42.6863 97.3842 34.7921 99.2431 34.9231 100.535C35.0542 101.827 43.1609 102.062 47.4399 101.628C51.7189 101.194 50.9275 100.328 50.7964 99.0363C50.6653 97.7445 51.2442 96.5159 46.9653 96.9501Z" fill="#B0DC7B"/>
<path d="M22.0366 84.7127C26.1169 86.0726 34.0788 87.6166 34.4893 86.3848C34.8998 85.153 27.6035 81.6119 23.5232 80.252C19.4429 78.8921 19.8093 80.0064 19.3988 81.2382C18.9883 82.47 17.9563 83.3529 22.0366 84.7127Z" fill="#B0DC7B"/>
<path d="M22.9562 91.0464C27.1794 90.2322 34.8763 87.6763 34.6305 86.4014C34.3847 85.1265 26.2893 85.6153 22.0661 86.4295C17.8429 87.2437 18.7084 88.0354 18.9542 89.3103C19.2 90.5853 18.733 91.8606 22.9562 91.0464Z" fill="#B0DC7B"/>
<path d="M19.7558 112.541C23.8361 113.901 31.798 115.445 32.2085 114.213C32.619 112.981 25.3227 109.44 21.2424 108.08C17.1621 106.72 17.5286 107.835 17.1181 109.066C16.7075 110.298 15.6755 111.181 19.7558 112.541Z" fill="#B0DC7B"/>
<path d="M45.948 117.027C42.0053 115.308 34.213 113.06 33.6942 114.25C33.1754 115.441 40.1267 119.619 44.0694 121.337C48.0122 123.056 47.7466 121.913 48.2653 120.723C48.7841 119.533 49.8908 118.746 45.948 117.027Z" fill="#B0DC7B"/>
<path d="M45.5976 110.636C41.3186 111.07 33.4243 112.929 33.5554 114.22C33.6864 115.512 41.7932 115.748 46.0722 115.314C50.3512 114.879 49.5598 114.014 49.4287 112.722C49.2977 111.43 49.8766 110.201 45.5976 110.636Z" fill="#B0DC7B"/>
<path d="M19.2993 126.683C23.3796 128.043 31.3415 129.587 31.752 128.355C32.1625 127.123 24.8662 123.582 20.7859 122.222C16.7056 120.862 17.072 121.977 16.6615 123.208C16.251 124.44 15.219 125.323 19.2993 126.683Z" fill="#B0DC7B"/>
<path d="M20.2194 133.017C24.4425 132.202 32.1395 129.647 31.8937 128.372C31.6479 127.097 23.5524 127.585 19.3293 128.4C15.1061 129.214 15.9716 130.006 16.2174 131.281C16.4632 132.555 15.9962 133.831 20.2194 133.017Z" fill="#B0DC7B"/>
<path d="M19.2993 126.683C23.3796 128.043 31.3415 129.587 31.752 128.355C32.1625 127.123 24.8662 123.582 20.7859 122.222C16.7056 120.862 17.072 121.977 16.6615 123.208C16.251 124.44 15.219 125.323 19.2993 126.683Z" fill="#B0DC7B"/>
<path d="M20.2194 133.017C24.4425 132.202 32.1395 129.647 31.8937 128.372C31.6479 127.097 23.5524 127.585 19.3293 128.4C15.1061 129.214 15.9716 130.006 16.2174 131.281C16.4632 132.555 15.9962 133.831 20.2194 133.017Z" fill="#B0DC7B"/>
<path d="M17.0185 154.967C21.0988 156.327 29.0607 157.871 29.4712 156.639C29.8817 155.407 22.5854 151.866 18.5051 150.506C14.4248 149.146 14.7913 150.26 14.3808 151.492C13.9703 152.724 12.9382 153.607 17.0185 154.967Z" fill="#B0DC7B"/>
<path d="M17.9381 161.3C22.1613 160.486 29.8582 157.93 29.6124 156.655C29.3666 155.38 21.2712 155.869 17.048 156.683C12.8248 157.498 13.6903 158.289 13.9361 159.564C14.1819 160.839 13.7149 162.114 17.9381 161.3Z" fill="#B0DC7B"/>
<path d="M43.2104 159.452C39.2676 157.733 31.4753 155.485 30.9565 156.676C30.4377 157.866 37.3889 162.044 41.3316 163.762C45.2744 165.481 45.0088 164.338 45.5276 163.148C46.0464 161.958 47.1531 161.17 43.2104 159.452Z" fill="#B0DC7B"/>
<path d="M17.9311 140.825C22.0114 142.185 29.9733 143.729 30.3838 142.497C30.7943 141.265 23.498 137.724 19.4177 136.364C15.3374 135.004 15.7039 136.119 15.2934 137.351C14.8828 138.582 13.8508 139.465 17.9311 140.825Z" fill="#B0DC7B"/>
<path d="M18.8507 147.159C23.0738 146.345 30.7707 143.789 30.5249 142.514C30.2791 141.239 22.1837 141.728 17.9606 142.542C13.7374 143.356 14.6029 144.148 14.8487 145.423C15.0945 146.698 14.6276 147.973 18.8507 147.159Z" fill="#B0DC7B"/>
<path d="M44.123 145.31C40.1802 143.591 32.3879 141.343 31.8691 142.533C31.3503 143.724 38.3015 147.902 42.2442 149.62C46.187 151.338 45.9214 150.196 46.4402 149.006C46.959 147.815 48.0657 147.028 44.123 145.31Z" fill="#B0DC7B"/>
<path d="M43.7724 138.919C39.4934 139.354 31.599 141.213 31.73 142.504C31.8611 143.796 39.9679 144.031 44.247 143.597C48.526 143.163 47.7346 142.297 47.6035 141.006C47.4725 139.714 48.0514 138.485 43.7724 138.919Z" fill="#B0DC7B"/>
<path d="M15.6503 168.653C19.7307 170.012 27.6926 171.556 28.1031 170.325C28.5136 169.093 21.2173 165.552 17.137 164.192C13.0566 162.832 13.4231 163.946 13.0126 165.178C12.602 166.41 11.57 167.293 15.6503 168.653Z" fill="#B0DC7B"/>
<path d="M16.5695 174.986C20.7926 174.172 28.4896 171.616 28.2438 170.341C27.998 169.066 19.9025 169.555 15.6794 170.369C11.4562 171.184 12.3217 171.975 12.5675 173.25C12.8133 174.525 12.3463 175.801 16.5695 174.986Z" fill="#B0DC7B"/>
<path d="M41.8422 173.138C37.8995 171.42 30.1071 169.172 29.5883 170.362C29.0695 171.552 36.0208 175.73 39.9635 177.449C43.9062 179.167 43.6406 178.025 44.1594 176.834C44.6782 175.644 45.7849 174.857 41.8422 173.138Z" fill="#B0DC7B"/>
<path d="M41.4916 166.748C37.2126 167.182 29.3182 169.041 29.4492 170.332C29.5803 171.624 37.6871 171.86 41.9662 171.425C46.2452 170.991 45.4538 170.125 45.3228 168.834C45.1917 167.542 45.7707 166.313 41.4916 166.748Z" fill="#B0DC7B"/>
<path d="M15.1938 182.794C19.2741 184.154 27.236 185.698 27.6465 184.466C28.057 183.234 20.7607 179.693 16.6804 178.333C12.6001 176.973 12.9666 178.087 12.556 179.319C12.1455 180.551 11.1135 181.434 15.1938 182.794Z" fill="#B0DC7B"/>
<path d="M16.1134 189.127C20.3366 188.313 28.0335 185.757 27.7877 184.482C27.5419 183.208 19.4465 183.696 15.2233 184.511C11.0001 185.325 11.8656 186.116 12.1114 187.391C12.3572 188.666 11.8902 189.942 16.1134 189.127Z" fill="#B0DC7B"/>
<path d="M41.3862 187.28C37.4434 185.562 29.6511 183.314 29.1323 184.504C28.6135 185.694 35.5647 189.872 39.5074 191.591C43.4501 193.309 43.1846 192.167 43.7034 190.976C44.2222 189.786 45.3289 188.999 41.3862 187.28Z" fill="#B0DC7B"/>
<path d="M41.0356 180.89C36.7566 181.324 28.8623 183.183 28.9933 184.474C29.1244 185.766 37.2312 186.002 41.5102 185.567C45.7892 185.133 44.9978 184.267 44.8667 182.976C44.7356 181.684 45.3146 180.455 41.0356 180.89Z" fill="#B0DC7B"/>
<path d="M17.4746 182.794C21.5549 184.154 29.5168 185.698 29.9273 184.466C30.3378 183.234 23.0415 179.693 18.9612 178.334C14.8809 176.974 15.2473 178.088 14.8368 179.32C14.4263 180.552 13.3942 181.434 17.4746 182.794Z" fill="#B0DC7B"/>
<path d="M18.3942 189.128C22.6173 188.314 30.3143 185.758 30.0685 184.483C29.8227 183.208 21.7273 183.697 17.5041 184.511C13.2809 185.325 14.1464 186.117 14.3922 187.392C14.638 188.667 14.171 189.942 18.3942 189.128Z" fill="#B0DC7B"/>
<path d="M37.5884 73.4136C36.0696 77.4374 34.2145 85.3327 35.4293 85.7912C36.644 86.2497 40.4685 79.0979 41.9874 75.074C43.5062 71.0501 42.3784 71.3726 41.1636 70.9141C39.9489 70.4556 39.1072 69.3897 37.5884 73.4136Z" fill="#B0DC7B"/>
<path d="M31.2233 74.0834C31.8712 78.3352 34.1232 86.1265 35.4068 85.9309C36.6904 85.7353 36.5195 77.6269 35.8716 73.375C35.2237 69.1232 34.3986 69.957 33.115 70.1526C31.8314 70.3482 30.5754 69.8315 31.2233 74.0834Z" fill="#B0DC7B"/>
<path d="M41.3862 187.28C37.4434 185.562 29.6511 183.314 29.1323 184.504C28.6135 185.694 35.5647 189.872 39.5074 191.591C43.4501 193.309 43.1846 192.167 43.7034 190.976C44.2222 189.786 45.3289 188.999 41.3862 187.28Z" fill="#B0DC7B"/>
<path d="M41.0356 180.89C36.7566 181.324 28.8623 183.183 28.9933 184.474C29.1244 185.766 37.2312 186.002 41.5102 185.567C45.7892 185.133 44.9978 184.267 44.8667 182.976C44.7356 181.684 45.3146 180.455 41.0356 180.89Z" fill="#B0DC7B"/>
<path d="M45.8379 216.691C41.6431 215.742 33.5676 214.993 33.281 216.26C32.9943 217.526 40.605 220.328 44.7998 221.277C48.9946 222.227 48.5197 221.154 48.8063 219.888C49.093 218.621 50.0327 217.641 45.8379 216.691Z" fill="#B0DC7B"/>
<path d="M44.2964 210.48C40.1744 211.708 32.768 215.013 33.1387 216.257C33.5094 217.501 41.5168 216.214 45.6388 214.986C49.7608 213.758 48.8212 213.056 48.4505 211.811C48.0798 210.567 48.4183 209.252 44.2964 210.48Z" fill="#B0DC7B"/>
<path d="M19.3411 203.128C23.604 203.7 31.7142 203.725 31.8867 202.438C32.0592 201.151 24.2287 199.039 19.9659 198.468C15.703 197.896 16.2717 198.922 16.0992 200.209C15.9267 201.496 15.0783 202.557 19.3411 203.128Z" fill="#B0DC7B"/>
<path d="M21.4306 209.179C25.4265 207.588 32.5085 203.635 32.0283 202.429C31.548 201.223 23.6874 203.219 19.6915 204.81C15.6955 206.401 16.694 207.017 17.1743 208.223C17.6545 209.429 17.4347 210.769 21.4306 209.179Z" fill="#B0DC7B"/>
<path d="M35.7495 76.3564L28.8985 176.209L39.3827 258.499" stroke="#B0DC7B" stroke-width="2.89698"/>
<path d="M119.507 45.4258L110.456 155.422L117.119 247.06" stroke="#B0DC7B" stroke-width="1.44849"/>
<path d="M134.256 54.1896C133.704 64.7694 126.247 73.0511 117.6 72.6874C108.953 72.3237 102.391 63.4522 102.943 52.8724" stroke="#B0DC7B" stroke-width="1.44849"/>
<path d="M132.627 81.0002C132.074 91.5799 124.617 99.8617 115.97 99.4979C107.323 99.1342 100.761 90.2627 101.313 79.683" stroke="#B0DC7B" stroke-width="1.44849"/>
<path d="M130.114 106.977C129.562 117.557 122.105 125.839 113.458 125.475C104.811 125.111 98.2489 116.24 98.8011 105.66" stroke="#B0DC7B" stroke-width="1.44849"/>
<path d="M127.72 135.656C127.168 146.236 119.711 154.517 111.064 154.154C102.417 153.79 95.8549 144.919 96.407 134.339" stroke="#B0DC7B" stroke-width="1.44849"/>
<path d="M127.181 161.776C128.02 172.278 121.709 181.873 113.085 183.207C104.461 184.541 96.7903 177.109 95.9516 166.607" stroke="#B0DC7B" stroke-width="1.44849"/>
<path d="M128.878 190.367C129.717 200.869 123.406 210.463 114.782 211.797C106.158 213.131 98.4871 205.7 97.6484 195.198" stroke="#B0DC7B" stroke-width="1.44849"/>
<path d="M124.132 40.953C123.913 43.9736 121.779 46.0189 119.632 45.8633C117.485 45.7076 115.669 43.3757 115.888 40.3551C116.107 37.3345 118.241 35.2891 120.388 35.4448C122.534 35.6005 124.351 37.9324 124.132 40.953Z" fill="#B0DC7B" stroke="#B0DC7B" stroke-width="1.44849"/>
<path d="M106.901 48.9359C106.682 51.9565 104.548 54.0018 102.402 53.8462C100.255 53.6905 98.4383 51.3586 98.6574 48.338C98.8765 45.3174 101.011 43.272 103.157 43.4277C105.304 43.5834 107.121 45.9153 106.901 48.9359Z" fill="#B0DC7B" stroke="#B0DC7B" stroke-width="1.44849"/>
<path d="M138.579 49.6942C138.36 52.7148 136.226 54.7602 134.079 54.6045C131.932 54.4488 130.116 52.1169 130.335 49.0963C130.554 46.0757 132.688 44.0303 134.834 44.186C136.981 44.3417 138.798 46.6736 138.579 49.6942Z" fill="#B0DC7B" stroke="#B0DC7B" stroke-width="1.44849"/>
<path d="M105.639 75.0037C105.42 78.0243 103.286 80.0697 101.139 79.914C98.9928 79.7584 97.1761 77.4265 97.3952 74.4059C97.6143 71.3853 99.7483 69.3399 101.895 69.4956C104.042 69.6512 105.858 71.9831 105.639 75.0037Z" fill="#B0DC7B" stroke="#B0DC7B" stroke-width="1.44849"/>
<path d="M137.344 75.3797C137.125 78.4003 134.991 80.4457 132.845 80.29C130.698 80.1343 128.881 77.8024 129.1 74.7818C129.319 71.7612 131.453 69.7158 133.6 69.8715C135.747 70.0272 137.563 72.3591 137.344 75.3797Z" fill="#B0DC7B" stroke="#B0DC7B" stroke-width="1.44849"/>
<path d="M132.098 130.395C131.879 133.416 129.745 135.461 127.598 135.306C125.451 135.15 123.635 132.818 123.854 129.797C124.073 126.777 126.207 124.731 128.354 124.887C130.5 125.043 132.317 127.375 132.098 130.395Z" fill="#B0DC7B" stroke="#B0DC7B" stroke-width="1.44849"/>
<path d="M101.018 130.065C100.799 133.085 98.6645 135.131 96.5179 134.975C94.3712 134.819 92.5546 132.487 92.7736 129.467C92.9927 126.446 95.1268 124.401 97.2734 124.557C99.4201 124.712 101.237 127.044 101.018 130.065Z" fill="#B0DC7B" stroke="#B0DC7B" stroke-width="1.44849"/>
<path d="M136.256 103.384C136.037 106.404 133.903 108.45 131.756 108.294C129.609 108.138 127.793 105.806 128.012 102.786C128.231 99.7651 130.365 97.7197 132.512 97.8754C134.658 98.0311 136.475 100.363 136.256 103.384Z" fill="#B0DC7B" stroke="#B0DC7B" stroke-width="1.44849"/>
<path d="M103.099 101.364C102.88 104.384 100.746 106.43 98.5994 106.274C96.4527 106.118 94.6361 103.786 94.8551 100.766C95.0742 97.7451 97.2083 95.6997 99.355 95.8554C101.502 96.0111 103.318 98.343 103.099 101.364Z" fill="#B0DC7B" stroke="#B0DC7B" stroke-width="1.44849"/>
<path d="M100.562 162.346C100.343 165.367 98.2085 167.412 96.0618 167.257C93.9151 167.101 92.0985 164.769 92.3175 161.749C92.5366 158.728 94.6707 156.683 96.8174 156.838C98.9641 156.994 100.781 159.326 100.562 162.346Z" fill="#B0DC7B" stroke="#B0DC7B" stroke-width="1.44849"/>
<path d="M132.343 157.342C132.124 160.362 129.99 162.408 127.843 162.252C125.696 162.096 123.88 159.764 124.099 156.744C124.318 153.723 126.452 151.678 128.599 151.833C130.745 151.989 132.562 154.321 132.343 157.342Z" fill="#B0DC7B" stroke="#B0DC7B" stroke-width="1.44849"/>
<path d="M102.029 189.766C101.81 192.787 99.6758 194.832 97.5291 194.676C95.3824 194.521 93.5658 192.189 93.7848 189.168C94.0039 186.147 96.138 184.102 98.2847 184.258C100.431 184.413 102.248 186.745 102.029 189.766Z" fill="#B0DC7B" stroke="#B0DC7B" stroke-width="1.44849"/>
<path d="M134.352 185.955C134.133 188.976 131.999 191.021 129.852 190.865C127.706 190.71 125.889 188.378 126.108 185.357C126.327 182.336 128.461 180.291 130.608 180.447C132.755 180.602 134.571 182.934 134.352 185.955Z" fill="#B0DC7B" stroke="#B0DC7B" stroke-width="1.44849"/>
<path d="M295.369 66.4038C238.12 213.392 283.35 247.641 313.121 246.391" stroke="#B0DC7B" stroke-width="2.89698"/>
<path d="M268.447 169.188C264.112 121.858 249.589 108.215 242.869 107.31" stroke="#B0DC7B" stroke-width="2.89698"/>
<path d="M316.519 150.042C274.206 171.689 266.952 190.248 268.614 196.822" stroke="#B0DC7B" stroke-width="2.89698"/>
<g style="mix-blend-mode:overlay">
<g style="mix-blend-mode:exclusion">
<circle r="13.841" transform="matrix(0.714505 -0.69963 0.699631 0.714504 286.105 55.7386)" fill="#FFEC43"/>
</g>
<g style="mix-blend-mode:exclusion">
<circle r="13.841" transform="matrix(0.714505 -0.69963 0.699632 0.714504 301.478 53.1942)" fill="#FFEC43"/>
</g>
<g style="mix-blend-mode:exclusion">
<circle r="13.841" transform="matrix(0.714506 -0.69963 0.699632 0.714504 310.437 68.7181)" fill="#FFEC43"/>
</g>
<g style="mix-blend-mode:exclusion">
<circle r="13.841" transform="matrix(0.714505 -0.69963 0.699632 0.714504 297.976 80.366)" fill="#FFEC43"/>
</g>
<g style="mix-blend-mode:exclusion">
<circle r="13.841" transform="matrix(0.714506 -0.699629 0.699632 0.714503 283.748 74.5394)" fill="#FFEC43"/>
</g>
</g>
<g style="mix-blend-mode:overlay">
<g style="mix-blend-mode:exclusion">
<circle r="9.27314" transform="matrix(0.71451 -0.699626 0.699636 0.7145 235.413 99.8601)" fill="#FFEC43"/>
</g>
<g style="mix-blend-mode:exclusion">
<circle r="9.27314" transform="matrix(0.714503 -0.699632 0.699629 0.714506 245.713 98.156)" fill="#FFEC43"/>
</g>
<g style="mix-blend-mode:exclusion">
<circle r="9.27314" transform="matrix(0.714504 -0.699631 0.69963 0.714505 251.715 108.556)" fill="#FFEC43"/>
</g>
<g style="mix-blend-mode:exclusion">
<circle r="9.27314" transform="matrix(0.714503 -0.699632 0.699629 0.714506 243.366 116.36)" fill="#FFEC43"/>
</g>
<g style="mix-blend-mode:exclusion">
<circle r="9.27314" transform="matrix(0.714503 -0.699632 0.699629 0.714506 233.834 112.457)" fill="#FFEC43"/>
</g>
</g>
<g style="mix-blend-mode:overlay">
<g style="mix-blend-mode:exclusion">
<circle cx="309.286" cy="144.039" r="9.27314" transform="rotate(-44.3974 309.286 144.039)" fill="#FFEC43"/>
</g>
<g style="mix-blend-mode:exclusion">
<circle cx="319.586" cy="142.335" r="9.27314" transform="rotate(-44.3974 319.586 142.335)" fill="#FFEC43"/>
</g>
<g style="mix-blend-mode:exclusion">
<circle r="9.27314" transform="matrix(0.714503 -0.699632 0.699629 0.714506 325.588 152.736)" fill="#FFEC43"/>
</g>
<g style="mix-blend-mode:exclusion">
<circle cx="317.239" cy="160.539" r="9.27314" transform="rotate(-44.3974 317.239 160.539)" fill="#FFEC43"/>
</g>
<g style="mix-blend-mode:exclusion">
<circle r="9.27314" transform="matrix(0.714503 -0.699632 0.699629 0.714506 307.707 156.635)" fill="#FFEC43"/>
</g>
</g>
<path d="M517.768 104.065C521.711 102.347 529.503 100.098 530.022 101.289C530.541 102.479 523.59 106.657 519.647 108.375C515.704 110.094 515.97 108.951 515.451 107.761C514.932 106.571 513.826 105.784 517.768 104.065Z" fill="#B0DC7B"/>
<path d="M518.119 97.6747C522.398 98.1088 530.292 99.9678 530.161 101.26C530.03 102.551 521.923 102.787 517.644 102.353C513.365 101.918 514.157 101.053 514.288 99.7609C514.419 98.4691 513.84 97.2406 518.119 97.6747Z" fill="#B0DC7B"/>
<path d="M543.047 85.4373C538.967 86.7971 531.005 88.341 530.595 87.1092C530.184 85.8774 537.48 82.3363 541.561 80.9765C545.641 79.6167 545.275 80.731 545.685 81.9628C546.096 83.1946 547.128 84.0775 543.047 85.4373Z" fill="#B0DC7B"/>
<path d="M542.128 91.7711C537.905 90.9569 530.208 88.4011 530.454 87.1261C530.699 85.8512 538.795 86.3399 543.018 87.1541C547.241 87.9683 546.376 88.76 546.13 90.035C545.884 91.3099 546.351 92.5852 542.128 91.7711Z" fill="#B0DC7B"/>
<path d="M545.328 113.264C541.248 114.624 533.286 116.168 532.875 114.937C532.465 113.705 539.761 110.164 543.842 108.804C547.922 107.444 547.555 108.558 547.966 109.79C548.376 111.022 549.408 111.905 545.328 113.264Z" fill="#B0DC7B"/>
<path d="M519.136 117.751C523.079 116.033 530.871 113.785 531.39 114.975C531.909 116.165 524.957 120.343 521.015 122.061C517.072 123.78 517.337 122.637 516.819 121.447C516.3 120.257 515.193 119.47 519.136 117.751Z" fill="#B0DC7B"/>
<path d="M519.487 111.361C523.766 111.795 531.66 113.654 531.529 114.946C531.398 116.238 523.291 116.473 519.012 116.039C514.733 115.605 515.525 114.739 515.656 113.447C515.787 112.156 515.208 110.927 519.487 111.361Z" fill="#B0DC7B"/>
<path d="M545.784 127.407C541.704 128.767 533.742 130.311 533.332 129.079C532.921 127.847 540.217 124.306 544.298 122.946C548.378 121.586 548.011 122.701 548.422 123.933C548.833 125.164 549.865 126.047 545.784 127.407Z" fill="#B0DC7B"/>
<path d="M544.865 133.741C540.641 132.927 532.945 130.371 533.19 129.096C533.436 127.821 541.532 128.31 545.755 129.124C549.978 129.938 549.112 130.73 548.867 132.005C548.621 133.28 549.088 134.555 544.865 133.741Z" fill="#B0DC7B"/>
<path d="M545.784 127.407C541.704 128.767 533.742 130.311 533.332 129.079C532.921 127.847 540.217 124.306 544.298 122.946C548.378 121.586 548.011 122.701 548.422 123.933C548.833 125.164 549.865 126.047 545.784 127.407Z" fill="#B0DC7B"/>
<path d="M544.865 133.741C540.641 132.927 532.945 130.371 533.19 129.096C533.436 127.821 541.532 128.31 545.755 129.124C549.978 129.938 549.112 130.73 548.867 132.005C548.621 133.28 549.088 134.555 544.865 133.741Z" fill="#B0DC7B"/>
<path d="M548.066 155.691C543.986 157.051 536.024 158.595 535.613 157.363C535.203 156.132 542.499 152.59 546.579 151.231C550.66 149.871 550.293 150.985 550.704 152.217C551.114 153.449 552.146 154.331 548.066 155.691Z" fill="#B0DC7B"/>
<path d="M547.146 162.025C542.923 161.211 535.226 158.655 535.472 157.38C535.718 156.105 543.813 156.594 548.036 157.408C552.259 158.222 551.394 159.014 551.148 160.289C550.902 161.564 551.369 162.839 547.146 162.025Z" fill="#B0DC7B"/>
<path d="M521.874 160.176C525.816 158.458 533.609 156.21 534.127 157.4C534.646 158.59 527.695 162.768 523.752 164.486C519.81 166.205 520.075 165.062 519.556 163.872C519.038 162.682 517.931 161.894 521.874 160.176Z" fill="#B0DC7B"/>
<path d="M547.153 141.549C543.073 142.909 535.111 144.453 534.7 143.221C534.29 141.989 541.586 138.448 545.666 137.088C549.747 135.729 549.38 136.843 549.791 138.075C550.201 139.306 551.233 140.189 547.153 141.549Z" fill="#B0DC7B"/>
<path d="M546.233 147.883C542.01 147.069 534.313 144.513 534.559 143.238C534.805 141.963 542.9 142.452 547.123 143.266C551.347 144.081 550.481 144.872 550.235 146.147C549.989 147.422 550.456 148.697 546.233 147.883Z" fill="#B0DC7B"/>
<path d="M520.961 146.035C524.904 144.316 532.696 142.068 533.215 143.258C533.734 144.449 526.782 148.627 522.84 150.345C518.897 152.064 519.163 150.921 518.644 149.731C518.125 148.541 517.018 147.753 520.961 146.035Z" fill="#B0DC7B"/>
<path d="M521.312 139.644C525.591 140.079 533.485 141.937 533.354 143.229C533.223 144.521 525.116 144.756 520.837 144.322C516.558 143.888 517.349 143.022 517.48 141.731C517.612 140.439 517.033 139.21 521.312 139.644Z" fill="#B0DC7B"/>
<path d="M549.434 169.377C545.353 170.737 537.391 172.281 536.981 171.049C536.57 169.817 543.867 166.276 547.947 164.916C552.027 163.557 551.661 164.671 552.071 165.903C552.482 167.135 553.514 168.017 549.434 169.377Z" fill="#B0DC7B"/>
<path d="M548.515 175.71C544.291 174.896 536.594 172.34 536.84 171.065C537.086 169.79 545.181 170.279 549.405 171.093C553.628 171.907 552.762 172.699 552.517 173.974C552.271 175.249 552.738 176.524 548.515 175.71Z" fill="#B0DC7B"/>
<path d="M523.242 173.863C527.185 172.144 534.977 169.896 535.496 171.086C536.015 172.277 529.064 176.454 525.121 178.173C521.178 179.891 521.444 178.749 520.925 177.558C520.406 176.368 519.3 175.581 523.242 173.863Z" fill="#B0DC7B"/>
<path d="M523.593 167.472C527.872 167.906 535.766 169.765 535.635 171.057C535.504 172.349 527.397 172.584 523.118 172.15C518.839 171.716 519.631 170.85 519.762 169.558C519.893 168.266 519.314 167.038 523.593 167.472Z" fill="#B0DC7B"/>
<path d="M549.89 183.518C545.81 184.878 537.848 186.422 537.437 185.19C537.027 183.959 544.323 180.418 548.404 179.058C552.484 177.698 552.117 178.812 552.528 180.044C552.938 181.276 553.97 182.159 549.89 183.518Z" fill="#B0DC7B"/>
<path d="M548.971 189.852C544.747 189.038 537.05 186.482 537.296 185.207C537.542 183.932 545.637 184.421 549.861 185.235C554.084 186.049 553.218 186.841 552.973 188.116C552.727 189.391 553.194 190.666 548.971 189.852Z" fill="#B0DC7B"/>
<path d="M523.698 188.005C527.641 186.286 535.433 184.038 535.952 185.228C536.47 186.419 529.519 190.596 525.577 192.315C521.634 194.033 521.899 192.891 521.381 191.701C520.862 190.51 519.755 189.723 523.698 188.005Z" fill="#B0DC7B"/>
<path d="M524.049 181.613C528.328 182.047 536.222 183.906 536.091 185.198C535.96 186.49 527.853 186.725 523.574 186.291C519.295 185.857 520.087 184.991 520.218 183.699C520.349 182.408 519.77 181.179 524.049 181.613Z" fill="#B0DC7B"/>
<path d="M547.609 183.518C543.529 184.878 535.567 186.422 535.157 185.19C534.746 183.959 542.042 180.418 546.123 179.058C550.203 177.698 549.837 178.812 550.247 180.044C550.658 181.276 551.69 182.159 547.609 183.518Z" fill="#B0DC7B"/>
<path d="M546.69 189.852C542.467 189.038 534.77 186.482 535.015 185.207C535.261 183.932 543.357 184.421 547.58 185.235C551.803 186.049 550.938 186.841 550.692 188.116C550.446 189.391 550.913 190.666 546.69 189.852Z" fill="#B0DC7B"/>
<path d="M527.496 74.1377C529.014 78.1615 530.87 86.0566 529.655 86.5151C528.44 86.9736 524.615 79.8219 523.097 75.7981C521.578 71.7743 522.706 72.0967 523.92 71.6382C525.135 71.1797 525.977 70.1139 527.496 74.1377Z" fill="#B0DC7B"/>
<path d="M533.861 74.808C533.213 79.0598 530.961 86.851 529.677 86.6554C528.394 86.4599 528.564 78.3515 529.212 74.0996C529.86 69.8478 530.685 70.6816 531.969 70.8772C533.253 71.0728 534.509 70.5561 533.861 74.808Z" fill="#B0DC7B"/>
<path d="M523.698 188.005C527.641 186.286 535.433 184.038 535.952 185.228C536.47 186.419 529.519 190.596 525.577 192.315C521.634 194.033 521.899 192.891 521.381 191.701C520.862 190.51 519.755 189.723 523.698 188.005Z" fill="#B0DC7B"/>
<path d="M524.049 181.613C528.328 182.047 536.222 183.906 536.091 185.198C535.96 186.49 527.853 186.725 523.574 186.291C519.295 185.857 520.087 184.991 520.218 183.699C520.349 182.408 519.77 181.179 524.049 181.613Z" fill="#B0DC7B"/>
<path d="M519.246 217.416C523.441 216.466 531.516 215.718 531.803 216.984C532.089 218.25 524.479 221.052 520.284 222.002C516.089 222.951 516.564 221.879 516.277 220.612C515.991 219.346 515.051 218.365 519.246 217.416Z" fill="#B0DC7B"/>
<path d="M520.788 211.204C524.91 212.432 532.316 215.737 531.946 216.981C531.575 218.225 523.568 216.938 519.446 215.71C515.324 214.482 516.263 213.78 516.634 212.536C517.005 211.291 516.666 209.976 520.788 211.204Z" fill="#B0DC7B"/>
<path d="M545.742 203.853C541.48 204.424 533.37 204.45 533.197 203.163C533.024 201.876 540.855 199.764 545.118 199.193C549.38 198.621 548.812 199.647 548.984 200.934C549.157 202.221 550.005 203.281 545.742 203.853Z" fill="#B0DC7B"/>
<path d="M543.653 209.903C539.657 208.312 532.575 204.36 533.056 203.153C533.536 201.947 541.397 203.943 545.393 205.534C549.388 207.125 548.39 207.741 547.91 208.947C547.429 210.153 547.649 211.494 543.653 209.903Z" fill="#B0DC7B"/>
<path d="M529.334 77.0806L536.186 176.933L525.701 259.223" stroke="#B0DC7B" stroke-width="2.89698"/>
<path d="M395.316 103.34C391.373 101.622 383.581 99.3735 383.062 100.564C382.543 101.754 389.494 105.932 393.437 107.65C397.38 109.369 397.114 108.226 397.633 107.036C398.152 105.846 399.259 105.058 395.316 103.34Z" fill="#B0DC7B"/>
<path d="M394.965 96.9501C390.686 97.3842 382.792 99.2431 382.923 100.535C383.054 101.827 391.161 102.062 395.44 101.628C399.719 101.194 398.927 100.328 398.796 99.0363C398.665 97.7445 399.244 96.5159 394.965 96.9501Z" fill="#B0DC7B"/>
<path d="M370.037 84.7127C374.117 86.0726 382.079 87.6166 382.489 86.3848C382.9 85.153 375.604 81.6119 371.523 80.252C367.443 78.8921 367.809 80.0064 367.399 81.2382C366.988 82.47 365.956 83.3529 370.037 84.7127Z" fill="#B0DC7B"/>
<path d="M370.956 91.0464C375.179 90.2322 382.876 87.6763 382.631 86.4014C382.385 85.1265 374.289 85.6153 370.066 86.4295C365.843 87.2437 366.708 88.0354 366.954 89.3103C367.2 90.5853 366.733 91.8606 370.956 91.0464Z" fill="#B0DC7B"/>
<path d="M367.756 112.541C371.836 113.901 379.798 115.445 380.208 114.213C380.619 112.981 373.323 109.44 369.242 108.08C365.162 106.72 365.529 107.835 365.118 109.066C364.708 110.298 363.676 111.181 367.756 112.541Z" fill="#B0DC7B"/>
<path d="M393.948 117.027C390.005 115.308 382.213 113.06 381.694 114.25C381.175 115.441 388.127 119.619 392.069 121.337C396.012 123.056 395.747 121.913 396.265 120.723C396.784 119.533 397.891 118.746 393.948 117.027Z" fill="#B0DC7B"/>
<path d="M393.598 110.636C389.319 111.07 381.424 112.929 381.555 114.22C381.686 115.512 389.793 115.748 394.072 115.314C398.351 114.879 397.56 114.014 397.429 112.722C397.298 111.43 397.877 110.201 393.598 110.636Z" fill="#B0DC7B"/>
<path d="M367.299 126.683C371.38 128.043 379.341 129.587 379.752 128.355C380.163 127.123 372.866 123.582 368.786 122.222C364.706 120.862 365.072 121.977 364.662 123.208C364.251 124.44 363.219 125.323 367.299 126.683Z" fill="#B0DC7B"/>
<path d="M368.219 133.017C372.443 132.202 380.139 129.647 379.894 128.372C379.648 127.097 371.552 127.585 367.329 128.4C363.106 129.214 363.972 130.006 364.217 131.281C364.463 132.555 363.996 133.831 368.219 133.017Z" fill="#B0DC7B"/>
<path d="M367.299 126.683C371.38 128.043 379.341 129.587 379.752 128.355C380.163 127.123 372.866 123.582 368.786 122.222C364.706 120.862 365.072 121.977 364.662 123.208C364.251 124.44 363.219 125.323 367.299 126.683Z" fill="#B0DC7B"/>
<path d="M368.219 133.017C372.443 132.202 380.139 129.647 379.894 128.372C379.648 127.097 371.552 127.585 367.329 128.4C363.106 129.214 363.972 130.006 364.217 131.281C364.463 132.555 363.996 133.831 368.219 133.017Z" fill="#B0DC7B"/>
<path d="M365.019 154.967C369.099 156.327 377.061 157.871 377.471 156.639C377.882 155.407 370.585 151.866 366.505 150.506C362.425 149.146 362.791 150.26 362.381 151.492C361.97 152.724 360.938 153.607 365.019 154.967Z" fill="#B0DC7B"/>
<path d="M365.938 161.3C370.161 160.486 377.858 157.93 377.612 156.655C377.367 155.38 369.271 155.869 365.048 156.683C360.825 157.498 361.69 158.289 361.936 159.564C362.182 160.839 361.715 162.114 365.938 161.3Z" fill="#B0DC7B"/>
<path d="M391.21 159.452C387.268 157.733 379.475 155.485 378.956 156.676C378.438 157.866 385.389 162.044 389.332 163.762C393.274 165.481 393.009 164.338 393.528 163.148C394.046 161.958 395.153 161.17 391.21 159.452Z" fill="#B0DC7B"/>
<path d="M365.931 140.825C370.011 142.185 377.973 143.729 378.384 142.497C378.794 141.265 371.498 137.724 367.418 136.364C363.337 135.004 363.704 136.119 363.293 137.351C362.883 138.582 361.851 139.465 365.931 140.825Z" fill="#B0DC7B"/>
<path d="M366.851 147.159C371.074 146.345 378.771 143.789 378.525 142.514C378.279 141.239 370.184 141.728 365.961 142.542C361.737 143.356 362.603 144.148 362.849 145.423C363.095 146.698 362.628 147.973 366.851 147.159Z" fill="#B0DC7B"/>
<path d="M392.123 145.31C388.18 143.591 380.388 141.343 379.869 142.533C379.35 143.724 386.302 147.902 390.244 149.62C394.187 151.338 393.921 150.196 394.44 149.006C394.959 147.815 396.066 147.028 392.123 145.31Z" fill="#B0DC7B"/>
<path d="M391.772 138.919C387.493 139.354 379.599 141.213 379.73 142.504C379.861 143.796 387.968 144.031 392.247 143.597C396.526 143.163 395.735 142.297 395.604 141.006C395.472 139.714 396.051 138.485 391.772 138.919Z" fill="#B0DC7B"/>
<path d="M363.65 168.653C367.731 170.012 375.693 171.556 376.103 170.325C376.514 169.093 369.217 165.552 365.137 164.192C361.057 162.832 361.423 163.946 361.013 165.178C360.602 166.41 359.57 167.293 363.65 168.653Z" fill="#B0DC7B"/>
<path d="M364.569 174.986C368.793 174.172 376.49 171.616 376.244 170.341C375.998 169.066 367.903 169.555 363.679 170.369C359.456 171.184 360.322 171.975 360.567 173.25C360.813 174.525 360.346 175.801 364.569 174.986Z" fill="#B0DC7B"/>
<path d="M389.842 173.138C385.899 171.42 378.107 169.172 377.588 170.362C377.069 171.552 384.021 175.73 387.963 177.449C391.906 179.167 391.641 178.025 392.159 176.834C392.678 175.644 393.785 174.857 389.842 173.138Z" fill="#B0DC7B"/>
<path d="M389.492 166.748C385.213 167.182 377.318 169.041 377.449 170.332C377.58 171.624 385.687 171.86 389.966 171.425C394.245 170.991 393.454 170.125 393.323 168.834C393.192 167.542 393.771 166.313 389.492 166.748Z" fill="#B0DC7B"/>
<path d="M363.194 182.794C367.274 184.154 375.236 185.698 375.646 184.466C376.057 183.234 368.761 179.693 364.68 178.333C360.6 176.973 360.967 178.087 360.556 179.319C360.146 180.551 359.114 181.434 363.194 182.794Z" fill="#B0DC7B"/>
<path d="M364.113 189.127C368.337 188.313 376.033 185.757 375.788 184.482C375.542 183.208 367.446 183.696 363.223 184.511C359 185.325 359.866 186.116 360.111 187.391C360.357 188.666 359.89 189.942 364.113 189.127Z" fill="#B0DC7B"/>
<path d="M389.386 187.28C385.443 185.562 377.651 183.314 377.132 184.504C376.613 185.694 383.565 189.872 387.507 191.591C391.45 193.309 391.185 192.167 391.703 190.976C392.222 189.786 393.329 188.999 389.386 187.28Z" fill="#B0DC7B"/>
<path d="M389.036 180.89C384.757 181.324 376.862 183.183 376.993 184.474C377.124 185.766 385.231 186.002 389.51 185.567C393.789 185.133 392.998 184.267 392.867 182.976C392.736 181.684 393.315 180.455 389.036 180.89Z" fill="#B0DC7B"/>
<path d="M365.475 182.794C369.555 184.154 377.517 185.698 377.927 184.466C378.338 183.234 371.042 179.693 366.961 178.334C362.881 176.974 363.247 178.088 362.837 179.32C362.426 180.552 361.394 181.434 365.475 182.794Z" fill="#B0DC7B"/>
<path d="M366.394 189.128C370.617 188.314 378.314 185.758 378.068 184.483C377.823 183.208 369.727 183.697 365.504 184.511C361.281 185.325 362.146 186.117 362.392 187.392C362.638 188.667 362.171 189.942 366.394 189.128Z" fill="#B0DC7B"/>
<path d="M385.588 73.4136C384.07 77.4374 382.215 85.3327 383.429 85.7912C384.644 86.2497 388.469 79.0979 389.987 75.074C391.506 71.0501 390.378 71.3726 389.164 70.9141C387.949 70.4556 387.107 69.3897 385.588 73.4136Z" fill="#B0DC7B"/>
<path d="M379.223 74.0834C379.871 78.3352 382.123 86.1265 383.407 85.9309C384.69 85.7353 384.52 77.6269 383.872 73.375C383.224 69.1232 382.399 69.957 381.115 70.1526C379.831 70.3482 378.575 69.8315 379.223 74.0834Z" fill="#B0DC7B"/>
<path d="M389.386 187.28C385.443 185.562 377.651 183.314 377.132 184.504C376.613 185.694 383.565 189.872 387.507 191.591C391.45 193.309 391.185 192.167 391.703 190.976C392.222 189.786 393.329 188.999 389.386 187.28Z" fill="#B0DC7B"/>
<path d="M389.036 180.89C384.757 181.324 376.862 183.183 376.993 184.474C377.124 185.766 385.231 186.002 389.51 185.567C393.789 185.133 392.998 184.267 392.867 182.976C392.736 181.684 393.315 180.455 389.036 180.89Z" fill="#B0DC7B"/>
<path d="M393.838 216.691C389.643 215.742 381.568 214.993 381.281 216.26C380.994 217.526 388.605 220.328 392.8 221.277C396.995 222.227 396.52 221.154 396.806 219.888C397.093 218.621 398.033 217.641 393.838 216.691Z" fill="#B0DC7B"/>
<path d="M392.296 210.48C388.174 211.708 380.768 215.013 381.139 216.257C381.509 217.501 389.517 216.214 393.639 214.986C397.761 213.758 396.821 213.056 396.45 211.811C396.08 210.567 396.418 209.252 392.296 210.48Z" fill="#B0DC7B"/>
<path d="M367.341 203.128C371.603 203.7 379.714 203.725 379.886 202.438C380.059 201.151 372.228 199.039 367.965 198.468C363.703 197.896 364.271 198.922 364.099 200.209C363.926 201.496 363.078 202.557 367.341 203.128Z" fill="#B0DC7B"/>
<path d="M369.431 209.179C373.427 207.588 380.509 203.635 380.028 202.429C379.548 201.223 371.687 203.219 367.691 204.81C363.696 206.401 364.694 207.017 365.174 208.223C365.655 209.429 365.435 210.769 369.431 209.179Z" fill="#B0DC7B"/>
<path d="M383.75 76.3564L376.898 176.209L387.383 258.499" stroke="#B0DC7B" stroke-width="2.89698"/>
<path d="M467.507 45.4258L458.456 155.422L465.119 247.06" stroke="#B0DC7B" stroke-width="1.44849"/>
<path d="M482.256 54.1896C481.704 64.7694 474.247 73.0511 465.6 72.6874C456.953 72.3237 450.391 63.4522 450.943 52.8724" stroke="#B0DC7B" stroke-width="1.44849"/>
<path d="M480.627 81.0002C480.074 91.5799 472.617 99.8617 463.97 99.4979C455.323 99.1342 448.761 90.2627 449.313 79.683" stroke="#B0DC7B" stroke-width="1.44849"/>
<path d="M478.114 106.977C477.562 117.557 470.105 125.839 461.458 125.475C452.811 125.111 446.249 116.24 446.801 105.66" stroke="#B0DC7B" stroke-width="1.44849"/>
<path d="M475.72 135.656C475.168 146.236 467.711 154.517 459.064 154.154C450.417 153.79 443.855 144.919 444.407 134.339" stroke="#B0DC7B" stroke-width="1.44849"/>
<path d="M475.181 161.776C476.02 172.278 469.709 181.873 461.085 183.207C452.461 184.541 444.79 177.109 443.952 166.607" stroke="#B0DC7B" stroke-width="1.44849"/>
<path d="M476.878 190.367C477.717 200.869 471.406 210.463 462.782 211.797C454.158 213.131 446.487 205.7 445.648 195.198" stroke="#B0DC7B" stroke-width="1.44849"/>
<path d="M472.132 40.953C471.913 43.9736 469.779 46.0189 467.632 45.8633C465.485 45.7076 463.669 43.3757 463.888 40.3551C464.107 37.3345 466.241 35.2891 468.388 35.4448C470.534 35.6005 472.351 37.9324 472.132 40.953Z" fill="#B0DC7B" stroke="#B0DC7B" stroke-width="1.44849"/>
<path d="M454.901 48.9359C454.682 51.9565 452.548 54.0018 450.402 53.8462C448.255 53.6905 446.438 51.3586 446.657 48.338C446.876 45.3174 449.011 43.272 451.157 43.4277C453.304 43.5834 455.121 45.9153 454.901 48.9359Z" fill="#B0DC7B" stroke="#B0DC7B" stroke-width="1.44849"/>
<path d="M486.579 49.6942C486.36 52.7148 484.226 54.7602 482.079 54.6045C479.932 54.4488 478.116 52.1169 478.335 49.0963C478.554 46.0757 480.688 44.0303 482.834 44.186C484.981 44.3417 486.798 46.6736 486.579 49.6942Z" fill="#B0DC7B" stroke="#B0DC7B" stroke-width="1.44849"/>
<path d="M453.639 75.0037C453.42 78.0243 451.286 80.0697 449.139 79.914C446.993 79.7584 445.176 77.4265 445.395 74.4059C445.614 71.3853 447.748 69.3399 449.895 69.4956C452.042 69.6512 453.858 71.9831 453.639 75.0037Z" fill="#B0DC7B" stroke="#B0DC7B" stroke-width="1.44849"/>
<path d="M485.344 75.3797C485.125 78.4003 482.991 80.4457 480.845 80.29C478.698 80.1343 476.881 77.8024 477.1 74.7818C477.319 71.7612 479.453 69.7158 481.6 69.8715C483.747 70.0272 485.563 72.3591 485.344 75.3797Z" fill="#B0DC7B" stroke="#B0DC7B" stroke-width="1.44849"/>
<path d="M480.098 130.395C479.879 133.416 477.745 135.461 475.598 135.306C473.451 135.15 471.635 132.818 471.854 129.797C472.073 126.777 474.207 124.731 476.354 124.887C478.5 125.043 480.317 127.375 480.098 130.395Z" fill="#B0DC7B" stroke="#B0DC7B" stroke-width="1.44849"/>
<path d="M449.018 130.065C448.799 133.085 446.665 135.131 444.518 134.975C442.371 134.819 440.555 132.487 440.774 129.467C440.993 126.446 443.127 124.401 445.273 124.557C447.42 124.712 449.237 127.044 449.018 130.065Z" fill="#B0DC7B" stroke="#B0DC7B" stroke-width="1.44849"/>
<path d="M484.256 103.384C484.037 106.404 481.903 108.45 479.756 108.294C477.609 108.138 475.793 105.806 476.012 102.786C476.231 99.7651 478.365 97.7197 480.512 97.8754C482.658 98.0311 484.475 100.363 484.256 103.384Z" fill="#B0DC7B" stroke="#B0DC7B" stroke-width="1.44849"/>
<path d="M451.099 101.364C450.88 104.384 448.746 106.43 446.599 106.274C444.453 106.118 442.636 103.786 442.855 100.766C443.074 97.7451 445.208 95.6997 447.355 95.8554C449.502 96.0111 451.318 98.343 451.099 101.364Z" fill="#B0DC7B" stroke="#B0DC7B" stroke-width="1.44849"/>
<path d="M448.562 162.346C448.343 165.367 446.208 167.412 444.062 167.257C441.915 167.101 440.098 164.769 440.318 161.749C440.537 158.728 442.671 156.683 444.817 156.838C446.964 156.994 448.781 159.326 448.562 162.346Z" fill="#B0DC7B" stroke="#B0DC7B" stroke-width="1.44849"/>
<path d="M480.343 157.342C480.124 160.362 477.99 162.408 475.843 162.252C473.696 162.096 471.88 159.764 472.099 156.744C472.318 153.723 474.452 151.678 476.599 151.833C478.745 151.989 480.562 154.321 480.343 157.342Z" fill="#B0DC7B" stroke="#B0DC7B" stroke-width="1.44849"/>
<path d="M450.029 189.766C449.81 192.787 447.676 194.832 445.529 194.676C443.382 194.521 441.566 192.189 441.785 189.168C442.004 186.147 444.138 184.102 446.285 184.258C448.431 184.413 450.248 186.745 450.029 189.766Z" fill="#B0DC7B" stroke="#B0DC7B" stroke-width="1.44849"/>
<path d="M482.352 185.955C482.133 188.976 479.999 191.021 477.852 190.865C475.706 190.71 473.889 188.378 474.108 185.357C474.327 182.336 476.461 180.291 478.608 180.447C480.755 180.602 482.571 182.934 482.352 185.955Z" fill="#B0DC7B" stroke="#B0DC7B" stroke-width="1.44849"/>
<path d="M945.768 104.065C949.71 102.347 957.503 100.098 958.022 101.289C958.54 102.479 951.589 106.657 947.646 108.375C943.704 110.094 943.969 108.951 943.45 107.761C942.932 106.571 941.825 105.784 945.768 104.065Z" fill="#B0DC7B"/>
<path d="M946.119 97.6747C950.398 98.1088 958.292 99.9678 958.161 101.26C958.03 102.551 949.923 102.787 945.644 102.353C941.365 101.918 942.157 101.053 942.288 99.7609C942.419 98.4691 941.84 97.2406 946.119 97.6747Z" fill="#B0DC7B"/>
<path d="M971.047 85.4368C966.967 86.7967 959.005 88.3407 958.595 87.1089C958.184 85.8771 965.48 82.336 969.561 80.9761C973.641 79.6162 973.275 80.7306 973.685 81.9624C974.096 83.1941 975.128 84.077 971.047 85.4368Z" fill="#B0DC7B"/>
<path d="M970.128 91.7715C965.905 90.9573 958.208 88.4014 958.453 87.1265C958.699 85.8516 966.795 86.3404 971.018 87.1546C975.241 87.9688 974.376 88.7605 974.13 90.0354C973.884 91.3103 974.351 92.5857 970.128 91.7715Z" fill="#B0DC7B"/>
<path d="M973.328 113.265C969.248 114.625 961.286 116.169 960.875 114.937C960.465 113.705 967.761 110.164 971.842 108.805C975.922 107.445 975.555 108.559 975.966 109.791C976.376 111.023 977.409 111.906 973.328 113.265Z" fill="#B0DC7B"/>
<path d="M947.136 117.753C951.079 116.034 958.871 113.786 959.39 114.976C959.909 116.166 952.958 120.344 949.015 122.063C945.072 123.781 945.338 122.639 944.819 121.449C944.3 120.258 943.194 119.471 947.136 117.753Z" fill="#B0DC7B"/>
<path d="M947.487 111.362C951.766 111.796 959.66 113.655 959.529 114.946C959.398 116.238 951.291 116.474 947.012 116.04C942.733 115.605 943.525 114.74 943.656 113.448C943.787 112.156 943.208 110.928 947.487 111.362Z" fill="#B0DC7B"/>
<path d="M973.785 127.407C969.704 128.767 961.743 130.311 961.332 129.079C960.922 127.847 968.218 124.306 972.298 122.946C976.378 121.586 976.012 122.701 976.422 123.933C976.833 125.164 977.865 126.047 973.785 127.407Z" fill="#B0DC7B"/>
<path d="M972.865 133.741C968.642 132.927 960.945 130.371 961.191 129.096C961.437 127.821 969.532 128.31 973.755 129.124C977.978 129.938 977.113 130.73 976.867 132.005C976.621 133.28 977.088 134.555 972.865 133.741Z" fill="#B0DC7B"/>
<path d="M973.785 127.407C969.704 128.767 961.743 130.311 961.332 129.079C960.922 127.847 968.218 124.306 972.298 122.946C976.378 121.586 976.012 122.701 976.422 123.933C976.833 125.164 977.865 126.047 973.785 127.407Z" fill="#B0DC7B"/>
<path d="M972.865 133.741C968.642 132.927 960.945 130.371 961.191 129.096C961.437 127.821 969.532 128.31 973.755 129.124C977.978 129.938 977.113 130.73 976.867 132.005C976.621 133.28 977.088 134.555 972.865 133.741Z" fill="#B0DC7B"/>
<path d="M976.066 155.691C971.985 157.051 964.023 158.595 963.613 157.363C963.202 156.131 970.499 152.59 974.579 151.23C978.659 149.871 978.293 150.985 978.703 152.217C979.114 153.449 980.146 154.331 976.066 155.691Z" fill="#B0DC7B"/>
<path d="M975.146 162.025C970.923 161.211 963.226 158.655 963.472 157.38C963.717 156.105 971.813 156.594 976.036 157.408C980.259 158.222 979.394 159.014 979.148 160.289C978.902 161.564 979.369 162.839 975.146 162.025Z" fill="#B0DC7B"/>
<path d="M949.874 160.176C953.816 158.458 961.609 156.209 962.127 157.4C962.646 158.59 955.695 162.768 951.752 164.486C947.81 166.205 948.075 165.062 947.556 163.872C947.038 162.682 945.931 161.894 949.874 160.176Z" fill="#B0DC7B"/>
<path d="M975.153 141.549C971.073 142.909 963.111 144.453 962.7 143.221C962.29 141.989 969.586 138.448 973.666 137.088C977.747 135.729 977.38 136.843 977.791 138.075C978.201 139.306 979.233 140.189 975.153 141.549Z" fill="#B0DC7B"/>
<path d="M974.233 147.883C970.01 147.069 962.313 144.513 962.559 143.238C962.805 141.963 970.9 142.452 975.123 143.266C979.347 144.081 978.481 144.872 978.235 146.147C977.989 147.422 978.456 148.697 974.233 147.883Z" fill="#B0DC7B"/>
<path d="M948.961 146.035C952.904 144.316 960.696 142.068 961.215 143.259C961.734 144.449 954.782 148.627 950.84 150.345C946.897 152.064 947.163 150.921 946.644 149.731C946.125 148.541 945.018 147.753 948.961 146.035Z" fill="#B0DC7B"/>
<path d="M949.312 139.644C953.591 140.079 961.485 141.937 961.354 143.229C961.223 144.521 953.116 144.756 948.837 144.322C944.558 143.888 945.349 143.022 945.48 141.731C945.612 140.439 945.033 139.21 949.312 139.644Z" fill="#B0DC7B"/>
<path d="M977.434 169.377C973.353 170.737 965.392 172.281 964.981 171.049C964.571 169.818 971.867 166.276 975.947 164.917C980.027 163.557 979.661 164.671 980.071 165.903C980.482 167.135 981.514 168.017 977.434 169.377Z" fill="#B0DC7B"/>
<path d="M976.515 175.709C972.291 174.895 964.595 172.339 964.84 171.064C965.086 169.789 973.181 170.278 977.405 171.092C981.628 171.906 980.762 172.698 980.517 173.973C980.271 175.248 980.738 176.523 976.515 175.709Z" fill="#B0DC7B"/>
<path d="M951.242 173.863C955.185 172.144 962.978 169.896 963.496 171.086C964.015 172.277 957.064 176.455 953.121 178.173C949.178 179.892 949.444 178.749 948.925 177.559C948.406 176.369 947.3 175.581 951.242 173.863Z" fill="#B0DC7B"/>
<path d="M951.592 167.472C955.871 167.906 963.766 169.765 963.635 171.057C963.503 172.349 955.397 172.584 951.118 172.15C946.839 171.716 947.63 170.85 947.761 169.558C947.892 168.266 947.313 167.038 951.592 167.472Z" fill="#B0DC7B"/>
<path d="M977.89 183.518C973.81 184.878 965.848 186.422 965.437 185.19C965.027 183.958 972.323 180.417 976.404 179.057C980.484 177.697 980.117 178.812 980.528 180.043C980.938 181.275 981.971 182.158 977.89 183.518Z" fill="#B0DC7B"/>
<path d="M976.971 189.852C972.747 189.038 965.05 186.482 965.296 185.207C965.542 183.932 973.638 184.421 977.861 185.235C982.084 186.049 981.218 186.841 980.973 188.116C980.727 189.391 981.194 190.666 976.971 189.852Z" fill="#B0DC7B"/>
<path d="M951.698 188.004C955.641 186.286 963.433 184.038 963.952 185.228C964.47 186.418 957.519 190.596 953.577 192.315C949.634 194.033 949.899 192.891 949.381 191.7C948.862 190.51 947.755 189.723 951.698 188.004Z" fill="#B0DC7B"/>
<path d="M952.048 181.613C956.327 182.047 964.222 183.906 964.091 185.198C963.96 186.49 955.853 186.725 951.574 186.291C947.295 185.857 948.086 184.991 948.217 183.699C948.348 182.408 947.769 181.179 952.048 181.613Z" fill="#B0DC7B"/>
<path d="M975.609 183.518C971.529 184.878 963.567 186.422 963.157 185.19C962.746 183.959 970.042 180.417 974.123 179.058C978.203 177.698 977.837 178.812 978.247 180.044C978.658 181.276 979.69 182.159 975.609 183.518Z" fill="#B0DC7B"/>
<path d="M974.69 189.852C970.467 189.038 962.77 186.482 963.015 185.207C963.261 183.932 971.357 184.421 975.58 185.235C979.803 186.049 978.938 186.841 978.692 188.116C978.446 189.391 978.913 190.666 974.69 189.852Z" fill="#B0DC7B"/>
<path d="M955.496 74.1377C957.014 78.1615 958.87 86.0567 957.655 86.5152C956.44 86.9737 952.615 79.8219 951.097 75.7981C949.578 71.7743 950.706 72.0967 951.92 71.6382C953.135 71.1797 953.977 70.1139 955.496 74.1377Z" fill="#B0DC7B"/>
<path d="M961.861 74.808C961.213 79.0598 958.961 86.8511 957.677 86.6555C956.394 86.4599 956.564 78.3515 957.212 74.0996C957.86 69.8478 958.685 70.6816 959.969 70.8772C961.253 71.0728 962.509 70.5561 961.861 74.808Z" fill="#B0DC7B"/>
<path d="M951.698 188.004C955.641 186.286 963.433 184.038 963.952 185.228C964.47 186.418 957.519 190.596 953.577 192.315C949.634 194.033 949.899 192.891 949.381 191.7C948.862 190.51 947.755 189.723 951.698 188.004Z" fill="#B0DC7B"/>
<path d="M952.048 181.613C956.327 182.047 964.222 183.906 964.091 185.198C963.96 186.49 955.853 186.725 951.574 186.291C947.295 185.857 948.086 184.991 948.217 183.699C948.348 182.408 947.769 181.179 952.048 181.613Z" fill="#B0DC7B"/>
<path d="M947.246 217.415C951.441 216.466 959.516 215.717 959.803 216.984C960.09 218.25 952.479 221.052 948.284 222.001C944.089 222.951 944.564 221.878 944.278 220.612C943.991 219.346 943.051 218.365 947.246 217.415Z" fill="#B0DC7B"/>
<path d="M948.788 211.203C952.91 212.431 960.316 215.736 959.946 216.98C959.575 218.225 951.568 216.938 947.446 215.71C943.324 214.482 944.263 213.779 944.634 212.535C945.005 211.291 944.666 209.975 948.788 211.203Z" fill="#B0DC7B"/>
<path d="M973.742 203.853C969.48 204.424 961.369 204.45 961.197 203.163C961.024 201.876 968.855 199.764 973.118 199.193C977.38 198.621 976.812 199.647 976.984 200.934C977.157 202.221 978.005 203.281 973.742 203.853Z" fill="#B0DC7B"/>
<path d="M971.653 209.902C967.657 208.311 960.576 204.359 961.056 203.153C961.536 201.946 969.397 203.943 973.393 205.534C977.388 207.125 976.39 207.74 975.91 208.947C975.429 210.153 975.649 211.493 971.653 209.902Z" fill="#B0DC7B"/>
<path d="M957.334 77.0806L964.186 176.933L953.701 259.223" stroke="#B0DC7B" stroke-width="2.89698"/>
<path d="M823.316 103.34C819.374 101.622 811.581 99.3735 811.062 100.564C810.544 101.754 817.495 105.932 821.438 107.65C825.38 109.369 825.115 108.226 825.634 107.036C826.152 105.846 827.259 105.058 823.316 103.34Z" fill="#B0DC7B"/>
<path d="M822.965 96.9501C818.686 97.3842 810.792 99.2431 810.923 100.535C811.054 101.827 819.161 102.062 823.44 101.628C827.719 101.194 826.927 100.328 826.796 99.0363C826.665 97.7445 827.244 96.5159 822.965 96.9501Z" fill="#B0DC7B"/>
<path d="M798.037 84.7127C802.117 86.0726 810.079 87.6166 810.489 86.3848C810.9 85.153 803.604 81.6119 799.523 80.252C795.443 78.8921 795.809 80.0064 795.399 81.2382C794.988 82.47 793.956 83.3529 798.037 84.7127Z" fill="#B0DC7B"/>
<path d="M798.956 91.0464C803.179 90.2322 810.876 87.6763 810.631 86.4014C810.385 85.1265 802.289 85.6153 798.066 86.4295C793.843 87.2437 794.708 88.0354 794.954 89.3103C795.2 90.5853 794.733 91.8606 798.956 91.0464Z" fill="#B0DC7B"/>
<path d="M795.756 112.541C799.836 113.901 807.798 115.445 808.208 114.213C808.619 112.981 801.323 109.44 797.242 108.08C793.162 106.72 793.529 107.835 793.118 109.066C792.708 110.298 791.676 111.181 795.756 112.541Z" fill="#B0DC7B"/>
<path d="M821.948 117.027C818.005 115.308 810.212 113.06 809.694 114.25C809.175 115.441 816.126 119.619 820.069 121.337C824.012 123.056 823.746 121.913 824.265 120.723C824.784 119.533 825.89 118.745 821.948 117.027Z" fill="#B0DC7B"/>
<path d="M821.598 110.636C817.319 111.07 809.424 112.929 809.555 114.22C809.686 115.512 817.793 115.748 822.072 115.314C826.351 114.879 825.56 114.014 825.429 112.722C825.298 111.43 825.877 110.201 821.598 110.636Z" fill="#B0DC7B"/>
<path d="M795.299 126.683C799.38 128.043 807.341 129.587 807.752 128.355C808.163 127.123 800.866 123.582 796.786 122.222C792.706 120.862 793.072 121.977 792.662 123.208C792.251 124.44 791.219 125.323 795.299 126.683Z" fill="#B0DC7B"/>
<path d="M796.219 133.017C800.443 132.202 808.139 129.647 807.894 128.372C807.648 127.097 799.552 127.585 795.329 128.4C791.106 129.214 791.972 130.006 792.217 131.281C792.463 132.555 791.996 133.831 796.219 133.017Z" fill="#B0DC7B"/>
<path d="M795.299 126.683C799.38 128.043 807.341 129.587 807.752 128.355C808.163 127.123 800.866 123.582 796.786 122.222C792.706 120.862 793.072 121.977 792.662 123.208C792.251 124.44 791.219 125.323 795.299 126.683Z" fill="#B0DC7B"/>
<path d="M796.219 133.017C800.443 132.202 808.139 129.647 807.894 128.372C807.648 127.097 799.552 127.585 795.329 128.4C791.106 129.214 791.972 130.006 792.217 131.281C792.463 132.555 791.996 133.831 796.219 133.017Z" fill="#B0DC7B"/>
<path d="M793.019 154.967C797.099 156.327 805.061 157.871 805.471 156.639C805.882 155.407 798.585 151.866 794.505 150.506C790.425 149.146 790.791 150.26 790.381 151.492C789.97 152.724 788.938 153.607 793.019 154.967Z" fill="#B0DC7B"/>
<path d="M793.938 161.3C798.161 160.486 805.858 157.93 805.612 156.655C805.367 155.38 797.271 155.869 793.048 156.683C788.825 157.498 789.69 158.289 789.936 159.564C790.182 160.839 789.715 162.114 793.938 161.3Z" fill="#B0DC7B"/>
<path d="M819.21 159.452C815.268 157.733 807.475 155.485 806.956 156.676C806.438 157.866 813.389 162.044 817.332 163.762C821.274 165.481 821.009 164.338 821.528 163.148C822.046 161.958 823.153 161.17 819.21 159.452Z" fill="#B0DC7B"/>
<path d="M793.931 140.825C798.011 142.185 805.973 143.729 806.384 142.497C806.794 141.265 799.498 137.724 795.418 136.364C791.337 135.004 791.704 136.119 791.293 137.351C790.883 138.582 789.851 139.465 793.931 140.825Z" fill="#B0DC7B"/>
<path d="M794.851 147.159C799.074 146.345 806.771 143.789 806.525 142.514C806.279 141.239 798.184 141.728 793.961 142.542C789.737 143.356 790.603 144.148 790.849 145.423C791.095 146.698 790.628 147.973 794.851 147.159Z" fill="#B0DC7B"/>
<path d="M820.123 145.31C816.18 143.591 808.388 141.343 807.869 142.533C807.35 143.724 814.302 147.902 818.244 149.62C822.187 151.338 821.921 150.196 822.44 149.006C822.959 147.815 824.066 147.028 820.123 145.31Z" fill="#B0DC7B"/>
<path d="M819.772 138.919C815.493 139.354 807.599 141.212 807.73 142.504C807.861 143.796 815.968 144.031 820.247 143.597C824.526 143.163 823.735 142.297 823.604 141.006C823.472 139.714 824.051 138.485 819.772 138.919Z" fill="#B0DC7B"/>
<path d="M791.65 168.653C795.731 170.012 803.693 171.556 804.103 170.325C804.514 169.093 797.217 165.552 793.137 164.192C789.057 162.832 789.423 163.946 789.013 165.178C788.602 166.41 787.57 167.293 791.65 168.653Z" fill="#B0DC7B"/>
<path d="M792.569 174.986C796.793 174.172 804.49 171.616 804.244 170.341C803.998 169.066 795.903 169.555 791.679 170.369C787.456 171.184 788.322 171.975 788.567 173.25C788.813 174.525 788.346 175.801 792.569 174.986Z" fill="#B0DC7B"/>
<path d="M817.842 173.138C813.899 171.42 806.107 169.172 805.588 170.362C805.069 171.552 812.021 175.73 815.963 177.449C819.906 179.167 819.641 178.025 820.159 176.834C820.678 175.644 821.785 174.857 817.842 173.138Z" fill="#B0DC7B"/>
<path d="M817.492 166.748C813.213 167.182 805.318 169.041 805.449 170.332C805.58 171.624 813.687 171.86 817.966 171.425C822.245 170.991 821.454 170.125 821.323 168.834C821.192 167.542 821.771 166.313 817.492 166.748Z" fill="#B0DC7B"/>
<path d="M791.194 182.794C795.274 184.154 803.236 185.698 803.646 184.466C804.057 183.234 796.761 179.693 792.68 178.333C788.6 176.973 788.967 178.087 788.556 179.319C788.146 180.551 787.114 181.434 791.194 182.794Z" fill="#B0DC7B"/>
<path d="M792.113 189.127C796.337 188.313 804.033 185.757 803.788 184.482C803.542 183.208 795.446 183.696 791.223 184.511C787 185.325 787.866 186.116 788.111 187.391C788.357 188.666 787.89 189.942 792.113 189.127Z" fill="#B0DC7B"/>
<path d="M817.386 187.28C813.443 185.562 805.651 183.314 805.132 184.504C804.613 185.694 811.565 189.872 815.507 191.591C819.45 193.309 819.185 192.167 819.703 190.976C820.222 189.786 821.329 188.999 817.386 187.28Z" fill="#B0DC7B"/>
<path d="M817.036 180.89C812.757 181.324 804.862 183.183 804.993 184.474C805.124 185.766 813.231 186.002 817.51 185.567C821.789 185.133 820.998 184.267 820.867 182.976C820.736 181.684 821.315 180.455 817.036 180.89Z" fill="#B0DC7B"/>
<path d="M793.475 182.794C797.555 184.154 805.517 185.698 805.927 184.466C806.338 183.234 799.042 179.693 794.961 178.334C790.881 176.974 791.247 178.088 790.837 179.32C790.426 180.552 789.394 181.434 793.475 182.794Z" fill="#B0DC7B"/>
<path d="M794.394 189.128C798.617 188.314 806.314 185.758 806.068 184.483C805.823 183.208 797.727 183.697 793.504 184.511C789.281 185.325 790.146 186.117 790.392 187.392C790.638 188.667 790.171 189.942 794.394 189.128Z" fill="#B0DC7B"/>
<path d="M813.588 73.4136C812.07 77.4375 810.215 85.3327 811.429 85.7912C812.644 86.2497 816.469 79.0979 817.987 75.074C819.506 71.0501 818.378 71.3726 817.164 70.9141C815.949 70.4556 815.107 69.3897 813.588 73.4136Z" fill="#B0DC7B"/>
<path d="M807.223 74.0834C807.871 78.3352 810.123 86.1265 811.407 85.9309C812.69 85.7353 812.52 77.6269 811.872 73.375C811.224 69.1232 810.399 69.957 809.115 70.1526C807.831 70.3482 806.575 69.8315 807.223 74.0834Z" fill="#B0DC7B"/>
<path d="M817.386 187.28C813.443 185.562 805.651 183.314 805.132 184.504C804.613 185.694 811.565 189.872 815.507 191.591C819.45 193.309 819.185 192.167 819.703 190.976C820.222 189.786 821.329 188.999 817.386 187.28Z" fill="#B0DC7B"/>
<path d="M817.036 180.89C812.757 181.324 804.862 183.183 804.993 184.474C805.124 185.766 813.231 186.002 817.51 185.567C821.789 185.133 820.998 184.267 820.867 182.976C820.736 181.684 821.315 180.455 817.036 180.89Z" fill="#B0DC7B"/>
<path d="M821.838 216.691C817.643 215.742 809.568 214.993 809.281 216.26C808.994 217.526 816.605 220.328 820.8 221.277C824.995 222.227 824.52 221.154 824.806 219.888C825.093 218.621 826.033 217.641 821.838 216.691Z" fill="#B0DC7B"/>
<path d="M820.296 210.48C816.174 211.708 808.768 215.013 809.139 216.257C809.509 217.501 817.517 216.214 821.639 214.986C825.761 213.758 824.821 213.056 824.45 211.811C824.08 210.567 824.418 209.252 820.296 210.48Z" fill="#B0DC7B"/>
<path d="M795.341 203.128C799.604 203.7 807.714 203.725 807.887 202.438C808.059 201.151 800.229 199.039 795.966 198.468C791.703 197.896 792.272 198.922 792.099 200.209C791.927 201.496 791.078 202.557 795.341 203.128Z" fill="#B0DC7B"/>
<path d="M797.431 209.178C801.427 207.587 808.509 203.635 808.028 202.429C807.548 201.222 799.687 203.219 795.691 204.81C791.696 206.401 792.694 207.016 793.174 208.222C793.655 209.429 793.435 210.769 797.431 209.178Z" fill="#B0DC7B"/>
<path d="M811.75 76.3564L804.898 176.209L815.383 258.499" stroke="#B0DC7B" stroke-width="2.89698"/>
<path d="M895.506 45.4258L886.456 155.422L893.119 247.06" stroke="#B0DC7B" stroke-width="1.44849"/>
<path d="M910.256 54.1896C909.704 64.7694 902.246 73.0511 893.6 72.6874C884.953 72.3237 878.391 63.4522 878.943 52.8724" stroke="#B0DC7B" stroke-width="1.44849"/>
<path d="M908.626 81.0002C908.074 91.5799 900.617 99.8617 891.97 99.4979C883.323 99.1342 876.761 90.2627 877.313 79.683" stroke="#B0DC7B" stroke-width="1.44849"/>
<path d="M906.114 106.977C905.562 117.557 898.104 125.839 889.457 125.475C880.81 125.111 874.248 116.24 874.801 105.66" stroke="#B0DC7B" stroke-width="1.44849"/>
<path d="M903.72 135.656C903.168 146.236 895.71 154.517 887.063 154.154C878.416 153.79 871.854 144.919 872.407 134.339" stroke="#B0DC7B" stroke-width="1.44849"/>
<path d="M903.181 161.776C904.02 172.278 897.708 181.873 889.085 183.207C880.461 184.541 872.79 177.109 871.951 166.607" stroke="#B0DC7B" stroke-width="1.44849"/>
<path d="M904.878 190.367C905.716 200.869 899.405 210.463 890.781 211.797C882.158 213.131 874.487 205.7 873.648 195.198" stroke="#B0DC7B" stroke-width="1.44849"/>
<path d="M900.131 40.953C899.912 43.9736 897.778 46.0189 895.632 45.8633C893.485 45.7076 891.668 43.3757 891.887 40.3551C892.106 37.3345 894.241 35.2891 896.387 35.4448C898.534 35.6005 900.351 37.9324 900.131 40.953Z" fill="#B0DC7B" stroke="#B0DC7B" stroke-width="1.44849"/>
<path d="M882.901 48.9359C882.682 51.9565 880.548 54.0018 878.401 53.8462C876.254 53.6905 874.438 51.3586 874.657 48.338C874.876 45.3174 877.01 43.272 879.157 43.4277C881.303 43.5834 883.12 45.9153 882.901 48.9359Z" fill="#B0DC7B" stroke="#B0DC7B" stroke-width="1.44849"/>
<path d="M914.578 49.6942C914.359 52.7148 912.225 54.7602 910.078 54.6045C907.932 54.4488 906.115 52.1169 906.334 49.0963C906.553 46.0757 908.687 44.0303 910.834 44.186C912.981 44.3417 914.797 46.6736 914.578 49.6942Z" fill="#B0DC7B" stroke="#B0DC7B" stroke-width="1.44849"/>
<path d="M881.639 75.0037C881.42 78.0243 879.286 80.0697 877.139 79.914C874.992 79.7584 873.176 77.4265 873.395 74.4059C873.614 71.3853 875.748 69.3399 877.895 69.4956C880.041 69.6512 881.858 71.9831 881.639 75.0037Z" fill="#B0DC7B" stroke="#B0DC7B" stroke-width="1.44849"/>
<path d="M913.344 75.3797C913.125 78.4003 910.991 80.4457 908.844 80.29C906.697 80.1343 904.881 77.8024 905.1 74.7818C905.319 71.7612 907.453 69.7158 909.6 69.8715C911.746 70.0272 913.563 72.3591 913.344 75.3797Z" fill="#B0DC7B" stroke="#B0DC7B" stroke-width="1.44849"/>
<path d="M908.097 130.395C907.878 133.416 905.744 135.461 903.597 135.306C901.451 135.15 899.634 132.818 899.853 129.797C900.072 126.777 902.206 124.731 904.353 124.887C906.5 125.043 908.316 127.375 908.097 130.395Z" fill="#B0DC7B" stroke="#B0DC7B" stroke-width="1.44849"/>
<path d="M877.017 130.065C876.798 133.085 874.664 135.131 872.517 134.975C870.371 134.819 868.554 132.487 868.773 129.467C868.992 126.446 871.126 124.401 873.273 124.557C875.42 124.712 877.236 127.044 877.017 130.065Z" fill="#B0DC7B" stroke="#B0DC7B" stroke-width="1.44849"/>
<path d="M912.255 103.384C912.036 106.404 909.902 108.45 907.756 108.294C905.609 108.138 903.792 105.806 904.011 102.786C904.23 99.7651 906.365 97.7197 908.511 97.8754C910.658 98.0311 912.475 100.363 912.255 103.384Z" fill="#B0DC7B" stroke="#B0DC7B" stroke-width="1.44849"/>
<path d="M879.099 101.364C878.88 104.384 876.746 106.43 874.599 106.274C872.452 106.118 870.636 103.786 870.855 100.766C871.074 97.7451 873.208 95.6997 875.354 95.8554C877.501 96.0111 879.318 98.343 879.099 101.364Z" fill="#B0DC7B" stroke="#B0DC7B" stroke-width="1.44849"/>
<path d="M876.561 162.346C876.342 165.367 874.208 167.412 872.061 167.257C869.915 167.101 868.098 164.769 868.317 161.749C868.536 158.728 870.67 156.683 872.817 156.838C874.964 156.994 876.78 159.326 876.561 162.346Z" fill="#B0DC7B" stroke="#B0DC7B" stroke-width="1.44849"/>
<path d="M908.342 157.342C908.123 160.362 905.989 162.408 903.843 162.252C901.696 162.096 899.879 159.764 900.098 156.744C900.317 153.723 902.451 151.678 904.598 151.833C906.745 151.989 908.561 154.321 908.342 157.342Z" fill="#B0DC7B" stroke="#B0DC7B" stroke-width="1.44849"/>
<path d="M878.028 189.766C877.809 192.787 875.675 194.832 873.529 194.676C871.382 194.521 869.565 192.189 869.784 189.168C870.003 186.147 872.137 184.102 874.284 184.258C876.431 184.413 878.247 186.745 878.028 189.766Z" fill="#B0DC7B" stroke="#B0DC7B" stroke-width="1.44849"/>
<path d="M910.352 185.955C910.133 188.976 907.999 191.021 905.852 190.865C903.705 190.71 901.889 188.378 902.108 185.357C902.327 182.336 904.461 180.291 906.607 180.447C908.754 180.602 910.571 182.934 910.352 185.955Z" fill="#B0DC7B" stroke="#B0DC7B" stroke-width="1.44849"/>
<path d="M643.369 66.4038C586.12 213.393 631.35 247.641 661.121 246.391" stroke="#B0DC7B" stroke-width="2.89698"/>
<path d="M616.447 169.188C612.112 121.858 597.589 108.215 590.869 107.31" stroke="#B0DC7B" stroke-width="2.89698"/>
<path d="M664.519 150.042C622.206 171.689 614.952 190.248 616.614 196.822" stroke="#B0DC7B" stroke-width="2.89698"/>
<g style="mix-blend-mode:overlay">
<g style="mix-blend-mode:exclusion">
<circle r="13.841" transform="matrix(0.714505 -0.69963 0.699631 0.714504 634.105 55.7386)" fill="#FFEC43"/>
</g>
<g style="mix-blend-mode:exclusion">
<circle r="13.841" transform="matrix(0.714506 -0.69963 0.699632 0.714504 649.478 53.1942)" fill="#FFEC43"/>
</g>
<g style="mix-blend-mode:exclusion">
<circle r="13.841" transform="matrix(0.714506 -0.69963 0.699632 0.714504 658.437 68.7181)" fill="#FFEC43"/>
</g>
<g style="mix-blend-mode:exclusion">
<circle r="13.841" transform="matrix(0.714506 -0.69963 0.699632 0.714504 645.976 80.366)" fill="#FFEC43"/>
</g>
<g style="mix-blend-mode:exclusion">
<circle r="13.841" transform="matrix(0.714506 -0.699629 0.699632 0.714503 631.748 74.5394)" fill="#FFEC43"/>
</g>
</g>
<g style="mix-blend-mode:overlay">
<g style="mix-blend-mode:exclusion">
<circle r="9.27314" transform="matrix(0.71451 -0.699626 0.699636 0.7145 583.413 99.8601)" fill="#FFEC43"/>
</g>
<g style="mix-blend-mode:exclusion">
<circle r="9.27314" transform="matrix(0.714503 -0.699632 0.699629 0.714506 593.713 98.156)" fill="#FFEC43"/>
</g>
<g style="mix-blend-mode:exclusion">
<circle r="9.27314" transform="matrix(0.714504 -0.699632 0.69963 0.714505 599.715 108.556)" fill="#FFEC43"/>
</g>
<g style="mix-blend-mode:exclusion">
<circle r="9.27314" transform="matrix(0.714504 -0.699632 0.69963 0.714505 591.366 116.36)" fill="#FFEC43"/>
</g>
<g style="mix-blend-mode:exclusion">
<circle r="9.27314" transform="matrix(0.714503 -0.699632 0.699629 0.714506 581.834 112.457)" fill="#FFEC43"/>
</g>
</g>
<g style="mix-blend-mode:overlay">
<g style="mix-blend-mode:exclusion">
<circle cx="657.286" cy="144.039" r="9.27314" transform="rotate(-44.3974 657.286 144.039)" fill="#FFEC43"/>
</g>
<g style="mix-blend-mode:exclusion">
<circle cx="667.586" cy="142.335" r="9.27314" transform="rotate(-44.3974 667.586 142.335)" fill="#FFEC43"/>
</g>
<g style="mix-blend-mode:exclusion">
<circle r="9.27314" transform="matrix(0.714503 -0.699632 0.699629 0.714506 673.588 152.736)" fill="#FFEC43"/>
</g>
<g style="mix-blend-mode:exclusion">
<circle cx="665.239" cy="160.539" r="9.27314" transform="rotate(-44.3974 665.239 160.539)" fill="#FFEC43"/>
</g>
<g style="mix-blend-mode:exclusion">
<circle r="9.27314" transform="matrix(0.714503 -0.699632 0.699629 0.714506 655.707 156.635)" fill="#FFEC43"/>
</g>
</g>
<path d="M1249.99 102.907C1245.95 101.146 1237.96 98.8422 1237.43 100.062C1236.9 101.282 1244.02 105.564 1248.06 107.325C1252.1 109.086 1251.83 107.915 1252.36 106.695C1252.9 105.476 1254.03 104.669 1249.99 102.907Z" fill="#B0DC7B"/>
<path d="M1249.63 96.358C1245.24 96.803 1237.15 98.7082 1237.29 100.032C1237.42 101.356 1245.73 101.597 1250.12 101.152C1254.5 100.707 1253.69 99.82 1253.56 98.4961C1253.42 97.1722 1254.02 95.9131 1249.63 96.358Z" fill="#B0DC7B"/>
<path d="M1224.08 83.8166C1228.26 85.2103 1236.42 86.7927 1236.84 85.5302C1237.26 84.2678 1229.79 80.6386 1225.61 79.245C1221.42 77.8513 1221.8 78.9933 1221.38 80.2557C1220.96 81.5182 1219.9 82.4229 1224.08 83.8166Z" fill="#B0DC7B"/>
<path d="M1225.02 90.3081C1229.35 89.4737 1237.24 86.8543 1236.99 85.5476C1236.74 84.241 1228.44 84.7419 1224.11 85.5764C1219.78 86.4108 1220.67 87.2223 1220.92 88.5289C1221.17 89.8355 1220.7 91.1426 1225.02 90.3081Z" fill="#B0DC7B"/>
<path d="M1221.74 112.336C1225.93 113.73 1234.09 115.312 1234.51 114.05C1234.93 112.788 1227.45 109.158 1223.27 107.765C1219.09 106.371 1219.46 107.513 1219.04 108.775C1218.62 110.038 1217.56 110.943 1221.74 112.336Z" fill="#B0DC7B"/>
<path d="M1248.59 116.934C1244.55 115.173 1236.56 112.868 1236.03 114.088C1235.5 115.308 1242.62 119.59 1246.66 121.351C1250.7 123.113 1250.43 121.942 1250.96 120.722C1251.49 119.502 1252.63 118.695 1248.59 116.934Z" fill="#B0DC7B"/>
<path d="M1248.23 110.384C1243.84 110.829 1235.75 112.734 1235.89 114.058C1236.02 115.382 1244.33 115.623 1248.71 115.178C1253.1 114.733 1252.29 113.846 1252.15 112.522C1252.02 111.198 1252.61 109.939 1248.23 110.384Z" fill="#B0DC7B"/>
<path d="M1221.28 126.829C1225.46 128.223 1233.62 129.805 1234.04 128.543C1234.46 127.28 1226.98 123.651 1222.8 122.258C1218.62 120.864 1218.99 122.006 1218.57 123.268C1218.15 124.531 1217.09 125.436 1221.28 126.829Z" fill="#B0DC7B"/>
<path d="M1222.22 133.321C1226.55 132.486 1234.44 129.867 1234.18 128.56C1233.93 127.254 1225.63 127.755 1221.31 128.589C1216.98 129.424 1217.87 130.235 1218.12 131.542C1218.37 132.848 1217.89 134.155 1222.22 133.321Z" fill="#B0DC7B"/>
<path d="M1221.28 126.829C1225.46 128.223 1233.62 129.805 1234.04 128.543C1234.46 127.28 1226.98 123.651 1222.8 122.258C1218.62 120.864 1218.99 122.006 1218.57 123.268C1218.15 124.531 1217.09 125.436 1221.28 126.829Z" fill="#B0DC7B"/>
<path d="M1222.22 133.321C1226.55 132.486 1234.44 129.867 1234.18 128.56C1233.93 127.254 1225.63 127.755 1221.31 128.589C1216.98 129.424 1217.87 130.235 1218.12 131.542C1218.37 132.848 1217.89 134.155 1222.22 133.321Z" fill="#B0DC7B"/>
<path d="M1218.94 155.817C1223.12 157.21 1231.28 158.793 1231.7 157.53C1232.12 156.268 1224.64 152.639 1220.46 151.245C1216.28 149.851 1216.66 150.993 1216.23 152.256C1215.81 153.518 1214.76 154.423 1218.94 155.817Z" fill="#B0DC7B"/>
<path d="M1219.88 162.309C1224.21 161.474 1232.1 158.855 1231.85 157.548C1231.59 156.241 1223.3 156.742 1218.97 157.577C1214.64 158.411 1215.53 159.223 1215.78 160.529C1216.03 161.836 1215.55 163.143 1219.88 162.309Z" fill="#B0DC7B"/>
<path d="M1245.78 160.414C1241.74 158.653 1233.76 156.348 1233.22 157.568C1232.69 158.788 1239.82 163.07 1243.86 164.831C1247.9 166.593 1247.63 165.422 1248.16 164.202C1248.69 162.982 1249.82 162.175 1245.78 160.414Z" fill="#B0DC7B"/>
<path d="M1219.87 141.324C1224.06 142.718 1232.22 144.3 1232.64 143.038C1233.06 141.775 1225.58 138.146 1221.4 136.752C1217.22 135.359 1217.59 136.501 1217.17 137.763C1216.75 139.026 1215.69 139.93 1219.87 141.324Z" fill="#B0DC7B"/>
<path d="M1220.82 147.815C1225.14 146.981 1233.03 144.361 1232.78 143.055C1232.53 141.748 1224.23 142.249 1219.9 143.083C1215.58 143.918 1216.46 144.729 1216.71 146.036C1216.97 147.342 1216.49 148.649 1220.82 147.815Z" fill="#B0DC7B"/>
<path d="M1246.72 145.922C1242.68 144.16 1234.69 141.856 1234.16 143.076C1233.63 144.296 1240.75 148.578 1244.79 150.339C1248.83 152.1 1248.56 150.929 1249.09 149.71C1249.62 148.49 1250.76 147.683 1246.72 145.922Z" fill="#B0DC7B"/>
<path d="M1246.36 139.372C1241.97 139.817 1233.88 141.722 1234.02 143.046C1234.15 144.37 1242.46 144.611 1246.84 144.166C1251.23 143.721 1250.42 142.834 1250.28 141.51C1250.15 140.186 1250.74 138.927 1246.36 139.372Z" fill="#B0DC7B"/>
<path d="M1217.54 169.844C1221.72 171.237 1229.88 172.82 1230.3 171.557C1230.72 170.295 1223.24 166.666 1219.06 165.272C1214.88 163.878 1215.25 165.02 1214.83 166.283C1214.41 167.545 1213.35 168.45 1217.54 169.844Z" fill="#B0DC7B"/>
<path d="M1218.48 176.335C1222.81 175.5 1230.69 172.881 1230.44 171.574C1230.19 170.268 1221.89 170.769 1217.57 171.603C1213.24 172.438 1214.12 173.249 1214.38 174.556C1214.63 175.862 1214.15 177.169 1218.48 176.335Z" fill="#B0DC7B"/>
<path d="M1244.38 174.441C1240.34 172.68 1232.35 170.376 1231.82 171.596C1231.29 172.816 1238.41 177.097 1242.45 178.859C1246.49 180.62 1246.22 179.449 1246.75 178.229C1247.29 177.009 1248.42 176.202 1244.38 174.441Z" fill="#B0DC7B"/>
<path d="M1244.02 167.891C1239.63 168.336 1231.54 170.241 1231.68 171.565C1231.81 172.889 1240.12 173.13 1244.51 172.685C1248.89 172.241 1248.08 171.353 1247.95 170.029C1247.81 168.705 1248.41 167.446 1244.02 167.891Z" fill="#B0DC7B"/>
<path d="M1217.07 184.337C1221.25 185.73 1229.41 187.313 1229.83 186.05C1230.25 184.788 1222.77 181.159 1218.59 179.765C1214.41 178.371 1214.79 179.513 1214.37 180.776C1213.94 182.038 1212.89 182.943 1217.07 184.337Z" fill="#B0DC7B"/>
<path d="M1218.01 190.828C1222.34 189.994 1230.23 187.374 1229.98 186.068C1229.72 184.761 1221.43 185.262 1217.1 186.096C1212.77 186.931 1213.66 187.742 1213.91 189.049C1214.16 190.356 1213.68 191.663 1218.01 190.828Z" fill="#B0DC7B"/>
<path d="M1243.91 188.934C1239.87 187.173 1231.89 184.869 1231.35 186.089C1230.82 187.309 1237.95 191.591 1241.99 193.352C1246.03 195.113 1245.76 193.942 1246.29 192.722C1246.82 191.502 1247.95 190.696 1243.91 188.934Z" fill="#B0DC7B"/>
<path d="M1243.55 182.385C1239.17 182.83 1231.08 184.735 1231.21 186.059C1231.35 187.383 1239.65 187.624 1244.04 187.179C1248.43 186.734 1247.61 185.847 1247.48 184.523C1247.35 183.199 1247.94 181.94 1243.55 182.385Z" fill="#B0DC7B"/>
<path d="M1219.41 184.337C1223.59 185.73 1231.75 187.313 1232.17 186.05C1232.59 184.788 1225.11 181.159 1220.93 179.765C1216.75 178.371 1217.12 179.513 1216.7 180.776C1216.28 182.038 1215.22 182.943 1219.41 184.337Z" fill="#B0DC7B"/>
<path d="M1220.35 190.829C1224.68 189.994 1232.57 187.374 1232.31 186.068C1232.06 184.761 1223.76 185.262 1219.44 186.097C1215.11 186.931 1216 187.743 1216.25 189.049C1216.5 190.356 1216.02 191.663 1220.35 190.829Z" fill="#B0DC7B"/>
<path d="M1240.02 72.2354C1238.46 76.3593 1236.56 84.4508 1237.81 84.9207C1239.05 85.3906 1242.97 78.061 1244.53 73.9371C1246.08 69.8132 1244.93 70.1437 1243.68 69.6737C1242.44 69.2038 1241.58 68.1115 1240.02 72.2354Z" fill="#B0DC7B"/>
<path d="M1233.5 72.923C1234.16 77.2806 1236.47 85.2657 1237.78 85.0652C1239.1 84.8647 1238.92 76.5547 1238.26 72.197C1237.6 67.8394 1236.75 68.6939 1235.44 68.8944C1234.12 69.0949 1232.83 68.5654 1233.5 72.923Z" fill="#B0DC7B"/>
<path d="M1243.91 188.934C1239.87 187.173 1231.89 184.869 1231.35 186.089C1230.82 187.309 1237.95 191.591 1241.99 193.352C1246.03 195.113 1245.76 193.942 1246.29 192.722C1246.82 191.502 1247.95 190.696 1243.91 188.934Z" fill="#B0DC7B"/>
<path d="M1243.55 182.385C1239.17 182.83 1231.08 184.735 1231.21 186.059C1231.35 187.383 1239.65 187.624 1244.04 187.179C1248.43 186.734 1247.61 185.847 1247.48 184.523C1247.35 183.199 1247.94 181.94 1243.55 182.385Z" fill="#B0DC7B"/>
<path d="M1248.47 219.077C1244.18 218.104 1235.9 217.337 1235.61 218.635C1235.31 219.933 1243.11 222.804 1247.41 223.777C1251.71 224.75 1251.22 223.651 1251.52 222.353C1251.81 221.055 1252.77 220.05 1248.47 219.077Z" fill="#B0DC7B"/>
<path d="M1246.89 212.711C1242.67 213.97 1235.08 217.357 1235.46 218.632C1235.84 219.907 1244.05 218.588 1248.27 217.329C1252.5 216.071 1251.53 215.351 1251.15 214.076C1250.77 212.8 1251.12 211.452 1246.89 212.711Z" fill="#B0DC7B"/>
<path d="M1221.32 205.178C1225.69 205.763 1234 205.789 1234.18 204.47C1234.35 203.151 1226.33 200.987 1221.96 200.401C1217.59 199.816 1218.17 200.867 1218 202.186C1217.82 203.505 1216.95 204.592 1221.32 205.178Z" fill="#B0DC7B"/>
<path d="M1223.46 211.378C1227.56 209.747 1234.81 205.697 1234.32 204.46C1233.83 203.224 1225.77 205.27 1221.68 206.901C1217.58 208.531 1218.61 209.162 1219.1 210.398C1219.59 211.635 1219.37 213.008 1223.46 211.378Z" fill="#B0DC7B"/>
<path d="M1238.14 75.2515L1231.11 177.588L1241.86 261.924" stroke="#B0DC7B" stroke-width="2.96904"/>
<path d="M1375.49 102.165C1379.53 100.404 1387.51 98.1001 1388.05 99.3199C1388.58 100.54 1381.45 104.822 1377.41 106.583C1373.37 108.344 1373.64 107.173 1373.11 105.953C1372.58 104.733 1371.45 103.927 1375.49 102.165Z" fill="#B0DC7B"/>
<path d="M1375.85 95.6154C1380.23 96.0603 1388.32 97.9655 1388.19 99.2894C1388.05 100.613 1379.75 100.855 1375.36 100.41C1370.97 99.9647 1371.79 99.0773 1371.92 97.7534C1372.05 96.4295 1371.46 95.1704 1375.85 95.6154Z" fill="#B0DC7B"/>
<path d="M1401.4 83.0735C1397.21 84.4671 1389.05 86.0494 1388.63 84.787C1388.21 83.5246 1395.69 79.8954 1399.87 78.5018C1404.05 77.1082 1403.68 78.2502 1404.1 79.5126C1404.52 80.775 1405.58 81.6798 1401.4 83.0735Z" fill="#B0DC7B"/>
<path d="M1400.45 89.5654C1396.13 88.731 1388.24 86.1115 1388.49 84.8049C1388.74 83.4982 1397.04 83.9992 1401.37 84.8337C1405.69 85.6681 1404.81 86.4796 1404.55 87.7862C1404.3 89.0929 1404.78 90.3999 1400.45 89.5654Z" fill="#B0DC7B"/>
<path d="M1403.73 111.594C1399.55 112.988 1391.39 114.57 1390.97 113.308C1390.55 112.045 1398.03 108.416 1402.21 107.022C1406.39 105.629 1406.02 106.771 1406.44 108.033C1406.86 109.296 1407.92 110.2 1403.73 111.594Z" fill="#B0DC7B"/>
<path d="M1376.89 116.192C1380.93 114.43 1388.92 112.126 1389.45 113.346C1389.98 114.566 1382.85 118.848 1378.81 120.609C1374.77 122.37 1375.05 121.199 1374.51 119.98C1373.98 118.76 1372.85 117.953 1376.89 116.192Z" fill="#B0DC7B"/>
<path d="M1377.25 109.642C1381.63 110.087 1389.72 111.992 1389.59 113.316C1389.46 114.64 1381.15 114.881 1376.76 114.436C1372.38 113.992 1373.19 113.104 1373.32 111.78C1373.46 110.456 1372.86 109.197 1377.25 109.642Z" fill="#B0DC7B"/>
<path d="M1404.2 126.087C1400.02 127.481 1391.86 129.063 1391.44 127.801C1391.02 126.538 1398.5 122.909 1402.68 121.515C1406.86 120.122 1406.48 121.264 1406.9 122.526C1407.32 123.789 1408.38 124.694 1404.2 126.087Z" fill="#B0DC7B"/>
<path d="M1403.26 132.579C1398.93 131.745 1391.04 129.125 1391.29 127.819C1391.55 126.512 1399.84 127.013 1404.17 127.847C1408.5 128.682 1407.61 129.493 1407.36 130.8C1407.11 132.107 1407.59 133.414 1403.26 132.579Z" fill="#B0DC7B"/>
<path d="M1404.2 126.087C1400.02 127.481 1391.86 129.063 1391.44 127.801C1391.02 126.538 1398.5 122.909 1402.68 121.515C1406.86 120.122 1406.48 121.264 1406.9 122.526C1407.32 123.789 1408.38 124.694 1404.2 126.087Z" fill="#B0DC7B"/>
<path d="M1403.26 132.579C1398.93 131.745 1391.04 129.125 1391.29 127.819C1391.55 126.512 1399.84 127.013 1404.17 127.847C1408.5 128.682 1407.61 129.493 1407.36 130.8C1407.11 132.107 1407.59 133.414 1403.26 132.579Z" fill="#B0DC7B"/>
<path d="M1406.54 155.075C1402.36 156.469 1394.2 158.051 1393.78 156.789C1393.36 155.526 1400.83 151.897 1405.01 150.503C1409.2 149.11 1408.82 150.252 1409.24 151.514C1409.66 152.777 1410.72 153.681 1406.54 155.075Z" fill="#B0DC7B"/>
<path d="M1405.6 161.566C1401.27 160.732 1393.38 158.113 1393.63 156.806C1393.88 155.499 1402.18 156 1406.51 156.835C1410.84 157.669 1409.95 158.481 1409.7 159.787C1409.45 161.094 1409.92 162.401 1405.6 161.566Z" fill="#B0DC7B"/>
<path d="M1379.69 159.672C1383.74 157.91 1391.72 155.606 1392.25 156.826C1392.79 158.046 1385.66 162.328 1381.62 164.089C1377.58 165.85 1377.85 164.679 1377.32 163.46C1376.79 162.24 1375.65 161.433 1379.69 159.672Z" fill="#B0DC7B"/>
<path d="M1405.6 140.581C1401.42 141.975 1393.26 143.557 1392.84 142.295C1392.42 141.032 1399.9 137.403 1404.08 136.01C1408.26 134.616 1407.89 135.758 1408.31 137.02C1408.73 138.283 1409.79 139.188 1405.6 140.581Z" fill="#B0DC7B"/>
<path d="M1404.66 147.073C1400.33 146.238 1392.44 143.619 1392.7 142.312C1392.95 141.006 1401.24 141.507 1405.57 142.341C1409.9 143.175 1409.01 143.987 1408.76 145.294C1408.51 146.6 1408.99 147.907 1404.66 147.073Z" fill="#B0DC7B"/>
<path d="M1378.76 145.179C1382.8 143.418 1390.79 141.114 1391.32 142.334C1391.85 143.553 1384.73 147.835 1380.69 149.597C1376.64 151.358 1376.92 150.187 1376.38 148.967C1375.85 147.747 1374.72 146.94 1378.76 145.179Z" fill="#B0DC7B"/>
<path d="M1379.12 138.629C1383.5 139.074 1391.59 140.979 1391.46 142.303C1391.33 143.627 1383.02 143.869 1378.63 143.424C1374.25 142.979 1375.06 142.091 1375.19 140.768C1375.33 139.444 1374.73 138.185 1379.12 138.629Z" fill="#B0DC7B"/>
<path d="M1407.94 169.101C1403.76 170.495 1395.6 172.077 1395.18 170.815C1394.76 169.552 1402.23 165.923 1406.42 164.53C1410.6 163.136 1410.22 164.278 1410.64 165.54C1411.06 166.803 1412.12 167.708 1407.94 169.101Z" fill="#B0DC7B"/>
<path d="M1407 175.593C1402.67 174.758 1394.78 172.139 1395.03 170.832C1395.29 169.525 1403.58 170.026 1407.91 170.861C1412.24 171.695 1411.35 172.507 1411.1 173.814C1410.85 175.12 1411.33 176.427 1407 175.593Z" fill="#B0DC7B"/>
<path d="M1381.1 173.699C1385.14 171.938 1393.12 169.634 1393.66 170.854C1394.19 172.073 1387.06 176.355 1383.02 178.117C1378.98 179.878 1379.25 178.707 1378.72 177.487C1378.19 176.267 1377.06 175.46 1381.1 173.699Z" fill="#B0DC7B"/>
<path d="M1381.46 167.149C1385.84 167.593 1393.93 169.499 1393.8 170.822C1393.66 172.146 1385.36 172.388 1380.97 171.943C1376.58 171.498 1377.4 170.611 1377.53 169.287C1377.66 167.963 1377.07 166.704 1381.46 167.149Z" fill="#B0DC7B"/>
<path d="M1408.41 183.595C1404.23 184.989 1396.07 186.571 1395.65 185.308C1395.22 184.046 1402.7 180.417 1406.88 179.023C1411.07 177.63 1410.69 178.772 1411.11 180.034C1411.53 181.296 1412.59 182.201 1408.41 183.595Z" fill="#B0DC7B"/>
<path d="M1407.47 190.086C1403.14 189.252 1395.25 186.633 1395.5 185.326C1395.75 184.019 1404.05 184.52 1408.38 185.355C1412.71 186.189 1411.82 187.001 1411.57 188.307C1411.32 189.614 1411.79 190.921 1407.47 190.086Z" fill="#B0DC7B"/>
<path d="M1381.56 188.193C1385.61 186.432 1393.59 184.127 1394.12 185.347C1394.66 186.567 1387.53 190.849 1383.49 192.61C1379.45 194.371 1379.72 193.2 1379.19 191.981C1378.66 190.761 1377.52 189.954 1381.56 188.193Z" fill="#B0DC7B"/>
<path d="M1381.92 181.643C1386.31 182.088 1394.4 183.993 1394.27 185.317C1394.13 186.641 1385.82 186.882 1381.44 186.437C1377.05 185.992 1377.86 185.105 1378 183.781C1378.13 182.457 1377.54 181.198 1381.92 181.643Z" fill="#B0DC7B"/>
<path d="M1406.07 183.595C1401.89 184.988 1393.73 186.571 1393.31 185.308C1392.89 184.046 1400.37 180.417 1404.55 179.023C1408.73 177.629 1408.35 178.771 1408.77 180.034C1409.19 181.296 1410.25 182.201 1406.07 183.595Z" fill="#B0DC7B"/>
<path d="M1405.13 190.087C1400.8 189.252 1392.91 186.633 1393.16 185.326C1393.42 184.019 1401.71 184.521 1406.04 185.355C1410.37 186.19 1409.48 187.001 1409.23 188.308C1408.98 189.614 1409.46 190.921 1405.13 190.087Z" fill="#B0DC7B"/>
<path d="M1385.46 71.4937C1387.01 75.6176 1388.92 83.7092 1387.67 84.1791C1386.43 84.649 1382.51 77.3193 1380.95 73.1954C1379.39 69.0715 1380.55 69.4019 1381.79 68.932C1383.04 68.4621 1383.9 67.3697 1385.46 71.4937Z" fill="#B0DC7B"/>
<path d="M1391.98 72.1808C1391.32 76.5384 1389.01 84.5234 1387.69 84.323C1386.38 84.1225 1386.55 75.8125 1387.22 71.4548C1387.88 67.0972 1388.73 67.9518 1390.04 68.1522C1391.36 68.3527 1392.64 67.8232 1391.98 72.1808Z" fill="#B0DC7B"/>
<path d="M1381.56 188.193C1385.61 186.432 1393.59 184.127 1394.12 185.347C1394.66 186.567 1387.53 190.849 1383.49 192.61C1379.45 194.371 1379.72 193.2 1379.19 191.981C1378.66 190.761 1377.52 189.954 1381.56 188.193Z" fill="#B0DC7B"/>
<path d="M1381.92 181.643C1386.31 182.088 1394.4 183.993 1394.27 185.317C1394.13 186.641 1385.82 186.882 1381.44 186.437C1377.05 185.992 1377.86 185.105 1378 183.781C1378.13 182.457 1377.54 181.198 1381.92 181.643Z" fill="#B0DC7B"/>
<path d="M1377 218.336C1381.3 217.362 1389.58 216.595 1389.87 217.893C1390.16 219.191 1382.36 222.062 1378.07 223.036C1373.77 224.009 1374.25 222.909 1373.96 221.612C1373.67 220.314 1372.7 219.309 1377 218.336Z" fill="#B0DC7B"/>
<path d="M1378.58 211.969C1382.81 213.228 1390.4 216.615 1390.02 217.89C1389.64 219.165 1381.43 217.846 1377.21 216.588C1372.98 215.329 1373.94 214.609 1374.32 213.334C1374.7 212.059 1374.36 210.711 1378.58 211.969Z" fill="#B0DC7B"/>
<path d="M1404.16 204.435C1399.79 205.021 1391.48 205.046 1391.3 203.728C1391.12 202.409 1399.15 200.244 1403.52 199.659C1407.89 199.073 1407.3 200.124 1407.48 201.443C1407.66 202.762 1408.53 203.849 1404.16 204.435Z" fill="#B0DC7B"/>
<path d="M1402.02 210.635C1397.92 209.004 1390.66 204.954 1391.15 203.717C1391.65 202.481 1399.7 204.527 1403.8 206.158C1407.89 207.788 1406.87 208.419 1406.38 209.655C1405.89 210.892 1406.11 212.265 1402.02 210.635Z" fill="#B0DC7B"/>
<path d="M1387.34 74.5093L1394.36 176.846L1383.62 261.182" stroke="#B0DC7B" stroke-width="2.96904"/>
<path d="M1301.5 42.8096L1310.78 155.542L1303.95 249.459" stroke="#B0DC7B" stroke-width="1.48452"/>
<path d="M1286.38 51.7913C1286.95 62.6342 1294.59 71.122 1303.45 70.7492C1312.32 70.3764 1319.04 61.2843 1318.48 50.4413" stroke="#B0DC7B" stroke-width="1.48452"/>
<path d="M1288.05 79.2688C1288.62 90.1118 1296.26 98.5995 1305.13 98.2267C1313.99 97.854 1320.71 88.7618 1320.15 77.9189" stroke="#B0DC7B" stroke-width="1.48452"/>
<path d="M1290.63 105.892C1291.2 116.735 1298.84 125.223 1307.7 124.85C1316.56 124.477 1323.29 115.385 1322.72 104.542" stroke="#B0DC7B" stroke-width="1.48452"/>
<path d="M1293.08 135.284C1293.65 146.127 1301.29 154.615 1310.15 154.242C1319.02 153.869 1325.74 144.777 1325.18 133.934" stroke="#B0DC7B" stroke-width="1.48452"/>
<path d="M1293.64 162.054C1292.78 172.817 1299.24 182.65 1308.08 184.017C1316.92 185.384 1324.78 177.768 1325.64 167.005" stroke="#B0DC7B" stroke-width="1.48452"/>
<path d="M1291.9 191.356C1291.04 202.119 1297.51 211.952 1306.34 213.319C1315.18 214.687 1323.04 207.07 1323.9 196.307" stroke="#B0DC7B" stroke-width="1.48452"/>
<path d="M1296.76 38.2256C1296.98 41.3213 1299.17 43.4176 1301.37 43.258C1303.57 43.0984 1305.43 40.7085 1305.21 37.6128C1304.98 34.5171 1302.8 32.4208 1300.6 32.5804C1298.4 32.7399 1296.54 35.1298 1296.76 38.2256Z" fill="#B0DC7B" stroke="#B0DC7B" stroke-width="1.48452"/>
<path d="M1314.42 46.4067C1314.64 49.5024 1316.83 51.5987 1319.03 51.4392C1321.23 51.2796 1323.09 48.8897 1322.87 45.794C1322.64 42.6982 1320.46 40.602 1318.26 40.7615C1316.06 40.9211 1314.2 43.311 1314.42 46.4067Z" fill="#B0DC7B" stroke="#B0DC7B" stroke-width="1.48452"/>
<path d="M1281.95 47.1841C1282.18 50.2798 1284.37 52.3761 1286.57 52.2165C1288.77 52.0569 1290.63 49.667 1290.4 46.5713C1290.18 43.4756 1287.99 41.3793 1285.79 41.5389C1283.59 41.6984 1281.73 44.0883 1281.95 47.1841Z" fill="#B0DC7B" stroke="#B0DC7B" stroke-width="1.48452"/>
<path d="M1315.71 73.1235C1315.94 76.2192 1318.13 78.3155 1320.33 78.156C1322.53 77.9964 1324.39 75.6065 1324.16 72.5108C1323.94 69.415 1321.75 67.3188 1319.55 67.4783C1317.35 67.6379 1315.49 70.0278 1315.71 73.1235Z" fill="#B0DC7B" stroke="#B0DC7B" stroke-width="1.48452"/>
<path d="M1283.22 73.5083C1283.44 76.604 1285.63 78.7003 1287.83 78.5407C1290.03 78.3812 1291.89 75.9912 1291.67 72.8955C1291.44 69.7998 1289.26 67.7035 1287.06 67.8631C1284.86 68.0226 1283 70.4125 1283.22 73.5083Z" fill="#B0DC7B" stroke="#B0DC7B" stroke-width="1.48452"/>
<path d="M1288.6 129.893C1288.82 132.988 1291.01 135.085 1293.21 134.925C1295.41 134.765 1297.27 132.376 1297.05 129.28C1296.82 126.184 1294.63 124.088 1292.43 124.247C1290.23 124.407 1288.37 126.797 1288.6 129.893Z" fill="#B0DC7B" stroke="#B0DC7B" stroke-width="1.48452"/>
<path d="M1320.45 129.554C1320.67 132.649 1322.86 134.746 1325.06 134.586C1327.26 134.427 1329.12 132.037 1328.9 128.941C1328.67 125.845 1326.49 123.749 1324.29 123.908C1322.09 124.068 1320.23 126.458 1320.45 129.554Z" fill="#B0DC7B" stroke="#B0DC7B" stroke-width="1.48452"/>
<path d="M1284.33 102.209C1284.56 105.305 1286.75 107.401 1288.95 107.241C1291.15 107.082 1293.01 104.692 1292.78 101.596C1292.56 98.5005 1290.37 96.4042 1288.17 96.5638C1285.97 96.7233 1284.11 99.1132 1284.33 102.209Z" fill="#B0DC7B" stroke="#B0DC7B" stroke-width="1.48452"/>
<path d="M1318.32 100.139C1318.54 103.234 1320.73 105.331 1322.93 105.171C1325.13 105.012 1326.99 102.622 1326.77 99.5259C1326.54 96.4302 1324.35 94.3339 1322.15 94.4935C1319.95 94.653 1318.09 97.0429 1318.32 100.139Z" fill="#B0DC7B" stroke="#B0DC7B" stroke-width="1.48452"/>
<path d="M1320.92 162.638C1321.14 165.734 1323.33 167.83 1325.53 167.671C1327.73 167.511 1329.59 165.121 1329.37 162.025C1329.14 158.93 1326.95 156.833 1324.75 156.993C1322.55 157.153 1320.69 159.542 1320.92 162.638Z" fill="#B0DC7B" stroke="#B0DC7B" stroke-width="1.48452"/>
<path d="M1288.35 157.509C1288.57 160.605 1290.76 162.701 1292.96 162.542C1295.16 162.382 1297.02 159.992 1296.79 156.896C1296.57 153.801 1294.38 151.704 1292.18 151.864C1289.98 152.024 1288.12 154.414 1288.35 157.509Z" fill="#B0DC7B" stroke="#B0DC7B" stroke-width="1.48452"/>
<path d="M1319.41 190.74C1319.64 193.836 1321.83 195.932 1324.03 195.773C1326.23 195.613 1328.09 193.223 1327.86 190.127C1327.64 187.032 1325.45 184.935 1323.25 185.095C1321.05 185.255 1319.19 187.644 1319.41 190.74Z" fill="#B0DC7B" stroke="#B0DC7B" stroke-width="1.48452"/>
<path d="M1286.29 186.834C1286.51 189.93 1288.7 192.026 1290.9 191.867C1293.1 191.707 1294.96 189.317 1294.74 186.222C1294.51 183.126 1292.32 181.03 1290.12 181.189C1287.92 181.349 1286.06 183.739 1286.29 186.834Z" fill="#B0DC7B" stroke="#B0DC7B" stroke-width="1.48452"/>
<path d="M1112.63 64.3091C1171.3 214.954 1124.95 250.054 1094.44 248.774" stroke="#B0DC7B" stroke-width="2.96904"/>
<path d="M1140.22 169.649C1144.67 121.143 1159.55 107.16 1166.44 106.232" stroke="#B0DC7B" stroke-width="2.96904"/>
<path d="M1090.96 150.028C1134.32 172.212 1141.76 191.233 1140.05 197.97" stroke="#B0DC7B" stroke-width="2.96904"/>
<g style="mix-blend-mode:overlay">
<g style="mix-blend-mode:exclusion">
<circle r="14.1853" transform="matrix(-0.714501 -0.699634 -0.699627 0.714508 1122.33 52.6363)" fill="#FFEC43"/>
</g>
<g style="mix-blend-mode:exclusion">
<circle r="14.1853" transform="matrix(-0.714506 -0.69963 -0.699632 0.714504 1106.57 50.0294)" fill="#FFEC43"/>
</g>
<g style="mix-blend-mode:exclusion">
<circle r="14.1853" transform="matrix(-0.714503 -0.699633 -0.699629 0.714507 1097.39 65.939)" fill="#FFEC43"/>
</g>
<g style="mix-blend-mode:exclusion">
<circle r="14.1853" transform="matrix(-0.714507 -0.699629 -0.699633 0.714503 1110.16 77.8765)" fill="#FFEC43"/>
</g>
<g style="mix-blend-mode:exclusion">
<circle r="14.1853" transform="matrix(-0.714506 -0.69963 -0.699632 0.714504 1124.74 71.9053)" fill="#FFEC43"/>
</g>
</g>
<g style="mix-blend-mode:overlay">
<g style="mix-blend-mode:exclusion">
<circle r="9.5038" transform="matrix(-0.714511 -0.699624 -0.699637 0.714498 1174.28 97.8557)" fill="#FFEC43"/>
</g>
<g style="mix-blend-mode:exclusion">
<circle r="9.5038" transform="matrix(-0.714509 -0.699626 -0.699636 0.7145 1163.72 96.1091)" fill="#FFEC43"/>
</g>
<g style="mix-blend-mode:exclusion">
<circle r="9.5038" transform="matrix(-0.714505 -0.699631 -0.699631 0.714505 1157.57 106.768)" fill="#FFEC43"/>
</g>
<g style="mix-blend-mode:exclusion">
<circle r="9.5038" transform="matrix(-0.714505 -0.699631 -0.699631 0.714505 1166.13 114.765)" fill="#FFEC43"/>
</g>
<g style="mix-blend-mode:exclusion">
<circle r="9.5038" transform="matrix(-0.714505 -0.699631 -0.699631 0.714505 1175.9 110.765)" fill="#FFEC43"/>
</g>
</g>
<g style="mix-blend-mode:overlay">
<g style="mix-blend-mode:exclusion">
<circle r="9.5038" transform="matrix(-0.714505 -0.699631 -0.699631 0.714505 1098.57 143.134)" fill="#FFEC43"/>
</g>
<g style="mix-blend-mode:exclusion">
<circle r="9.5038" transform="matrix(-0.714505 -0.699631 -0.699631 0.714505 1088.01 141.387)" fill="#FFEC43"/>
</g>
<g style="mix-blend-mode:exclusion">
<circle r="9.5038" transform="matrix(-0.714505 -0.699631 -0.699631 0.714505 1081.86 152.046)" fill="#FFEC43"/>
</g>
<g style="mix-blend-mode:exclusion">
<circle r="9.5038" transform="matrix(-0.714505 -0.699631 -0.699631 0.714505 1090.42 160.044)" fill="#FFEC43"/>
</g>
<g style="mix-blend-mode:exclusion">
<circle r="9.5038" transform="matrix(-0.714505 -0.699631 -0.699631 0.714505 1100.19 156.043)" fill="#FFEC43"/>
</g>
</g>
</svg>
