<svg width="1440" height="295" viewBox="0 0 1440 295" fill="none" xmlns="http://www.w3.org/2000/svg">
<rect width="1440" height="295" fill="#8C8FFE"/>
<path d="M168.768 104.065C172.711 102.346 180.503 100.098 181.022 101.288C181.541 102.478 174.59 106.656 170.647 108.375C166.704 110.093 166.97 108.951 166.451 107.761C165.932 106.57 164.826 105.783 168.768 104.065Z" fill="#B0DC7B"/>
<path d="M169.119 97.6747C173.398 98.1088 181.292 99.9678 181.161 101.26C181.03 102.551 172.923 102.787 168.644 102.353C164.365 101.918 165.157 101.053 165.288 99.7609C165.419 98.4691 164.84 97.2406 169.119 97.6747Z" fill="#B0DC7B"/>
<path d="M194.047 85.4373C189.967 86.7971 182.005 88.3411 181.594 87.1093C181.184 85.8775 188.48 82.3364 192.56 80.9766C196.641 79.6167 196.274 80.731 196.685 81.9628C197.095 83.1946 198.127 84.0775 194.047 85.4373Z" fill="#B0DC7B"/>
<path d="M193.127 91.771C188.904 90.9569 181.207 88.4011 181.453 87.1261C181.699 85.8512 189.794 86.3399 194.017 87.1541C198.241 87.9683 197.375 88.76 197.129 90.035C196.883 91.3099 197.35 92.5852 193.127 91.771Z" fill="#B0DC7B"/>
<path d="M196.328 113.265C192.247 114.625 184.285 116.169 183.875 114.937C183.464 113.705 190.761 110.164 194.841 108.804C198.921 107.444 198.555 108.559 198.965 109.79C199.376 111.022 200.408 111.905 196.328 113.265Z" fill="#B0DC7B"/>
<path d="M170.135 117.751C174.078 116.033 181.87 113.784 182.389 114.975C182.908 116.165 175.957 120.343 172.014 122.061C168.071 123.78 168.337 122.637 167.818 121.447C167.299 120.257 166.193 119.47 170.135 117.751Z" fill="#B0DC7B"/>
<path d="M170.486 111.361C174.765 111.795 182.66 113.654 182.529 114.946C182.398 116.237 174.291 116.473 170.012 116.039C165.733 115.605 166.524 114.739 166.655 113.447C166.786 112.155 166.207 110.927 170.486 111.361Z" fill="#B0DC7B"/>
<path d="M196.784 127.407C192.704 128.767 184.742 130.311 184.332 129.079C183.921 127.847 191.217 124.306 195.298 122.946C199.378 121.586 199.011 122.701 199.422 123.933C199.833 125.164 200.865 126.047 196.784 127.407Z" fill="#B0DC7B"/>
<path d="M195.865 133.74C191.642 132.926 183.945 130.37 184.191 129.095C184.437 127.82 192.532 128.309 196.755 129.123C200.978 129.938 200.113 130.729 199.867 132.004C199.621 133.279 200.088 134.554 195.865 133.74Z" fill="#B0DC7B"/>
<path d="M196.784 127.407C192.704 128.767 184.742 130.311 184.332 129.079C183.921 127.847 191.217 124.306 195.298 122.946C199.378 121.586 199.011 122.701 199.422 123.933C199.833 125.164 200.865 126.047 196.784 127.407Z" fill="#B0DC7B"/>
<path d="M195.865 133.74C191.642 132.926 183.945 130.37 184.191 129.095C184.437 127.82 192.532 128.309 196.755 129.123C200.978 129.938 200.113 130.729 199.867 132.004C199.621 133.279 200.088 134.554 195.865 133.74Z" fill="#B0DC7B"/>
<path d="M199.066 155.691C194.986 157.051 187.024 158.595 186.613 157.363C186.203 156.132 193.499 152.59 197.579 151.231C201.66 149.871 201.293 150.985 201.704 152.217C202.114 153.449 203.146 154.331 199.066 155.691Z" fill="#B0DC7B"/>
<path d="M198.145 162.024C193.922 161.21 186.225 158.654 186.471 157.38C186.717 156.105 194.812 156.593 199.036 157.408C203.259 158.222 202.393 159.013 202.147 160.288C201.902 161.563 202.369 162.839 198.145 162.024Z" fill="#B0DC7B"/>
<path d="M172.874 160.175C176.816 158.457 184.609 156.208 185.127 157.399C185.646 158.589 178.695 162.767 174.752 164.485C170.81 166.204 171.075 165.061 170.556 163.871C170.038 162.681 168.931 161.893 172.874 160.175Z" fill="#B0DC7B"/>
<path d="M198.152 141.549C194.072 142.909 186.11 144.453 185.7 143.221C185.289 141.989 192.585 138.448 196.666 137.088C200.746 135.729 200.38 136.843 200.79 138.075C201.201 139.306 202.233 140.189 198.152 141.549Z" fill="#B0DC7B"/>
<path d="M197.233 147.883C193.01 147.069 185.313 144.513 185.558 143.238C185.804 141.963 193.9 142.452 198.123 143.266C202.346 144.081 201.481 144.872 201.235 146.147C200.989 147.422 201.456 148.697 197.233 147.883Z" fill="#B0DC7B"/>
<path d="M171.96 146.034C175.903 144.315 183.695 142.067 184.214 143.257C184.733 144.448 177.781 148.626 173.839 150.344C169.896 152.063 170.162 150.92 169.643 149.73C169.124 148.54 168.017 147.752 171.96 146.034Z" fill="#B0DC7B"/>
<path d="M172.311 139.644C176.59 140.078 184.484 141.937 184.353 143.229C184.222 144.521 176.115 144.756 171.836 144.322C167.558 143.888 168.349 143.022 168.48 141.73C168.611 140.438 168.032 139.21 172.311 139.644Z" fill="#B0DC7B"/>
<path d="M200.434 169.378C196.353 170.737 188.391 172.281 187.981 171.05C187.57 169.818 194.867 166.277 198.947 164.917C203.027 163.557 202.661 164.671 203.071 165.903C203.482 167.135 204.514 168.018 200.434 169.378Z" fill="#B0DC7B"/>
<path d="M199.515 175.71C195.291 174.896 187.594 172.34 187.84 171.065C188.086 169.79 196.181 170.279 200.405 171.093C204.628 171.907 203.762 172.699 203.517 173.974C203.271 175.249 203.738 176.524 199.515 175.71Z" fill="#B0DC7B"/>
<path d="M174.241 173.862C178.184 172.144 185.976 169.895 186.495 171.086C187.014 172.276 180.063 176.454 176.12 178.172C172.177 179.891 172.443 178.748 171.924 177.558C171.405 176.368 170.299 175.58 174.241 173.862Z" fill="#B0DC7B"/>
<path d="M174.592 167.472C178.871 167.906 186.765 169.765 186.634 171.057C186.503 172.349 178.396 172.584 174.117 172.15C169.838 171.716 170.63 170.85 170.761 169.558C170.892 168.266 170.313 167.038 174.592 167.472Z" fill="#B0DC7B"/>
<path d="M200.89 183.518C196.809 184.878 188.847 186.422 188.437 185.19C188.026 183.958 195.323 180.417 199.403 179.057C203.483 177.697 203.117 178.812 203.527 180.043C203.938 181.275 204.97 182.158 200.89 183.518Z" fill="#B0DC7B"/>
<path d="M199.97 189.852C195.747 189.038 188.05 186.482 188.296 185.207C188.542 183.932 196.637 184.421 200.86 185.235C205.083 186.049 204.218 186.841 203.972 188.116C203.726 189.391 204.193 190.666 199.97 189.852Z" fill="#B0DC7B"/>
<path d="M174.698 188.005C178.641 186.286 186.433 184.038 186.952 185.228C187.471 186.419 180.519 190.596 176.577 192.315C172.634 194.033 172.899 192.891 172.381 191.701C171.862 190.51 170.755 189.723 174.698 188.005Z" fill="#B0DC7B"/>
<path d="M175.048 181.614C179.327 182.048 187.222 183.907 187.091 185.198C186.96 186.49 178.853 186.726 174.574 186.292C170.295 185.857 171.086 184.992 171.217 183.7C171.348 182.408 170.769 181.18 175.048 181.614Z" fill="#B0DC7B"/>
<path d="M198.608 183.518C194.528 184.878 186.566 186.422 186.156 185.19C185.745 183.958 193.041 180.417 197.122 179.058C201.202 177.698 200.836 178.812 201.246 180.044C201.657 181.276 202.689 182.159 198.608 183.518Z" fill="#B0DC7B"/>
<path d="M197.689 189.852C193.466 189.038 185.769 186.482 186.015 185.207C186.261 183.932 194.356 184.421 198.579 185.235C202.803 186.049 201.937 186.841 201.691 188.116C201.446 189.391 201.913 190.666 197.689 189.852Z" fill="#B0DC7B"/>
<path d="M178.496 74.1377C180.014 78.1615 181.87 86.0566 180.655 86.5151C179.44 86.9736 175.615 79.8219 174.097 75.7981C172.578 71.7743 173.706 72.0967 174.92 71.6382C176.135 71.1797 176.977 70.1139 178.496 74.1377Z" fill="#B0DC7B"/>
<path d="M184.86 74.808C184.212 79.0598 181.96 86.851 180.677 86.6554C179.393 86.4599 179.564 78.3515 180.212 74.0996C180.86 69.8478 181.685 70.6816 182.969 70.8772C184.252 71.0728 185.508 70.5561 184.86 74.808Z" fill="#B0DC7B"/>
<path d="M174.698 188.005C178.641 186.286 186.433 184.038 186.952 185.228C187.471 186.419 180.519 190.596 176.577 192.315C172.634 194.033 172.899 192.891 172.381 191.701C171.862 190.51 170.755 189.723 174.698 188.005Z" fill="#B0DC7B"/>
<path d="M175.048 181.614C179.327 182.048 187.222 183.907 187.091 185.198C186.96 186.49 178.853 186.726 174.574 186.292C170.295 185.857 171.086 184.992 171.217 183.7C171.348 182.408 170.769 181.18 175.048 181.614Z" fill="#B0DC7B"/>
<path d="M170.245 217.415C174.44 216.466 182.516 215.717 182.802 216.983C183.089 218.25 175.478 221.052 171.283 222.001C167.088 222.951 167.563 221.878 167.277 220.612C166.99 219.346 166.05 218.365 170.245 217.415Z" fill="#B0DC7B"/>
<path d="M171.788 211.203C175.91 212.431 183.316 215.736 182.945 216.98C182.574 218.224 174.567 216.937 170.445 215.709C166.323 214.481 167.263 213.779 167.634 212.535C168.004 211.29 167.666 209.975 171.788 211.203Z" fill="#B0DC7B"/>
<path d="M196.742 203.853C192.479 204.425 184.369 204.45 184.196 203.163C184.024 201.876 191.854 199.765 196.117 199.193C200.38 198.622 199.811 199.648 199.984 200.934C200.156 202.221 201.005 203.282 196.742 203.853Z" fill="#B0DC7B"/>
<path d="M194.653 209.903C190.657 208.312 183.576 204.36 184.056 203.153C184.536 201.947 192.397 203.943 196.393 205.534C200.388 207.125 199.39 207.741 198.91 208.947C198.429 210.153 198.649 211.494 194.653 209.903Z" fill="#B0DC7B"/>
<path d="M180.334 77.0806L187.185 176.933L176.701 259.223" stroke="#B0DC7B" stroke-width="2.89698"/>
<path d="M46.3158 103.34C42.3731 101.622 34.5807 99.3735 34.0619 100.564C33.5431 101.754 40.4944 105.932 44.4371 107.65C48.3798 109.369 48.1143 108.226 48.6331 107.036C49.1519 105.846 50.2586 105.058 46.3158 103.34Z" fill="#B0DC7B"/>
<path d="M45.9653 96.9501C41.6863 97.3842 33.7921 99.2431 33.9231 100.535C34.0542 101.827 42.1609 102.062 46.4399 101.628C50.7189 101.194 49.9275 100.328 49.7964 99.0363C49.6653 97.7445 50.2442 96.5159 45.9653 96.9501Z" fill="#B0DC7B"/>
<path d="M21.0361 84.7127C25.1164 86.0726 33.0783 87.6166 33.4888 86.3848C33.8993 85.153 26.603 81.6119 22.5227 80.252C18.4424 78.8921 18.8088 80.0064 18.3983 81.2382C17.9878 82.47 16.9558 83.3529 21.0361 84.7127Z" fill="#B0DC7B"/>
<path d="M21.9562 91.0464C26.1794 90.2322 33.8763 87.6763 33.6305 86.4014C33.3847 85.1265 25.2893 85.6153 21.0661 86.4295C16.8429 87.2437 17.7084 88.0354 17.9542 89.3103C18.2 90.5853 17.733 91.8606 21.9562 91.0464Z" fill="#B0DC7B"/>
<path d="M18.7553 112.541C22.8356 113.901 30.7975 115.445 31.208 114.213C31.6185 112.982 24.3222 109.44 20.2419 108.081C16.1616 106.721 16.5281 107.835 16.1176 109.067C15.7071 110.299 14.675 111.181 18.7553 112.541Z" fill="#B0DC7B"/>
<path d="M44.948 117.027C41.0053 115.308 33.213 113.06 32.6942 114.25C32.1754 115.441 39.1267 119.619 43.0694 121.337C47.0122 123.056 46.7466 121.913 47.2653 120.723C47.7841 119.533 48.8908 118.746 44.948 117.027Z" fill="#B0DC7B"/>
<path d="M44.5976 110.636C40.3186 111.07 32.4243 112.929 32.5554 114.22C32.6864 115.512 40.7932 115.748 45.0722 115.314C49.3512 114.879 48.5598 114.014 48.4287 112.722C48.2977 111.43 48.8766 110.201 44.5976 110.636Z" fill="#B0DC7B"/>
<path d="M18.2993 126.683C22.3796 128.043 30.3415 129.587 30.752 128.355C31.1625 127.124 23.8662 123.583 19.7859 122.223C15.7056 120.863 16.072 121.977 15.6615 123.209C15.251 124.441 14.219 125.324 18.2993 126.683Z" fill="#B0DC7B"/>
<path d="M19.2194 133.017C23.4425 132.203 31.1395 129.647 30.8937 128.372C30.6479 127.097 22.5524 127.586 18.3293 128.4C14.1061 129.214 14.9716 130.006 15.2174 131.281C15.4632 132.556 14.9962 133.831 19.2194 133.017Z" fill="#B0DC7B"/>
<path d="M18.2993 126.683C22.3796 128.043 30.3415 129.587 30.752 128.355C31.1625 127.124 23.8662 123.583 19.7859 122.223C15.7056 120.863 16.072 121.977 15.6615 123.209C15.251 124.441 14.219 125.324 18.2993 126.683Z" fill="#B0DC7B"/>
<path d="M19.2194 133.017C23.4425 132.203 31.1395 129.647 30.8937 128.372C30.6479 127.097 22.5524 127.586 18.3293 128.4C14.1061 129.214 14.9716 130.006 15.2174 131.281C15.4632 132.556 14.9962 133.831 19.2194 133.017Z" fill="#B0DC7B"/>
<path d="M16.018 154.967C20.0983 156.327 28.0602 157.871 28.4707 156.639C28.8812 155.407 21.5849 151.866 17.5046 150.506C13.4243 149.146 13.7908 150.26 13.3803 151.492C12.9698 152.724 11.9377 153.607 16.018 154.967Z" fill="#B0DC7B"/>
<path d="M16.9381 161.3C21.1613 160.486 28.8582 157.93 28.6124 156.655C28.3666 155.38 20.2712 155.869 16.048 156.683C11.8248 157.498 12.6903 158.289 12.9361 159.564C13.1819 160.839 12.7149 162.114 16.9381 161.3Z" fill="#B0DC7B"/>
<path d="M42.2104 159.452C38.2676 157.733 30.4753 155.485 29.9565 156.676C29.4377 157.866 36.3889 162.044 40.3316 163.762C44.2744 165.481 44.0088 164.338 44.5276 163.148C45.0464 161.958 46.1531 161.17 42.2104 159.452Z" fill="#B0DC7B"/>
<path d="M16.9306 140.825C21.011 142.185 28.9728 143.729 29.3833 142.497C29.7938 141.265 22.4975 137.724 18.4172 136.364C14.3369 135.004 14.7034 136.119 14.2929 137.351C13.8824 138.582 12.8503 139.465 16.9306 140.825Z" fill="#B0DC7B"/>
<path d="M17.8502 147.159C22.0734 146.345 29.7702 143.789 29.5244 142.514C29.2786 141.239 21.1832 141.728 16.9601 142.542C12.737 143.356 13.6024 144.148 13.8482 145.423C14.0941 146.698 13.6271 147.973 17.8502 147.159Z" fill="#B0DC7B"/>
<path d="M43.1225 145.31C39.1798 143.591 31.3874 141.343 30.8686 142.533C30.3498 143.724 37.301 147.902 41.2437 149.62C45.1865 151.338 44.9209 150.196 45.4397 149.006C45.9585 147.815 47.0652 147.028 43.1225 145.31Z" fill="#B0DC7B"/>
<path d="M42.7719 138.919C38.4929 139.354 30.5985 141.213 30.7296 142.504C30.8606 143.796 38.9675 144.031 43.2465 143.597C47.5255 143.163 46.7341 142.297 46.603 141.006C46.472 139.714 47.0509 138.485 42.7719 138.919Z" fill="#B0DC7B"/>
<path d="M14.6503 168.653C18.7307 170.012 26.6926 171.556 27.1031 170.325C27.5136 169.093 20.2173 165.552 16.137 164.192C12.0566 162.832 12.4231 163.946 12.0126 165.178C11.602 166.41 10.57 167.293 14.6503 168.653Z" fill="#B0DC7B"/>
<path d="M15.5695 174.986C19.7926 174.172 27.4896 171.616 27.2438 170.341C26.998 169.066 18.9025 169.555 14.6794 170.369C10.4562 171.184 11.3217 171.975 11.5675 173.25C11.8133 174.525 11.3463 175.801 15.5695 174.986Z" fill="#B0DC7B"/>
<path d="M40.8422 173.138C36.8995 171.419 29.1071 169.171 28.5883 170.362C28.0695 171.552 35.0208 175.73 38.9635 177.448C42.9062 179.167 42.6406 178.024 43.1594 176.834C43.6782 175.644 44.7849 174.856 40.8422 173.138Z" fill="#B0DC7B"/>
<path d="M40.4911 166.748C36.2121 167.182 28.3177 169.041 28.4487 170.332C28.5798 171.624 36.6867 171.86 40.9657 171.425C45.2447 170.991 44.4533 170.125 44.3223 168.834C44.1912 167.542 44.7702 166.313 40.4911 166.748Z" fill="#B0DC7B"/>
<path d="M14.1933 182.794C18.2736 184.154 26.2355 185.698 26.646 184.466C27.0565 183.234 19.7602 179.693 15.6799 178.333C11.5996 176.973 11.9661 178.087 11.5556 179.319C11.1451 180.551 10.113 181.434 14.1933 182.794Z" fill="#B0DC7B"/>
<path d="M15.1134 189.127C19.3366 188.313 27.0335 185.757 26.7877 184.482C26.5419 183.208 18.4465 183.696 14.2233 184.511C10.0001 185.325 10.8656 186.116 11.1114 187.391C11.3572 188.666 10.8902 189.942 15.1134 189.127Z" fill="#B0DC7B"/>
<path d="M40.3862 187.28C36.4434 185.562 28.6511 183.314 28.1323 184.504C27.6135 185.694 34.5647 189.872 38.5074 191.591C42.4501 193.309 42.1846 192.167 42.7034 190.976C43.2222 189.786 44.3289 188.999 40.3862 187.28Z" fill="#B0DC7B"/>
<path d="M40.0356 180.89C35.7566 181.324 27.8623 183.183 27.9933 184.474C28.1244 185.766 36.2312 186.002 40.5102 185.567C44.7892 185.133 43.9978 184.267 43.8667 182.976C43.7356 181.684 44.3146 180.455 40.0356 180.89Z" fill="#B0DC7B"/>
<path d="M16.4741 182.794C20.5544 184.154 28.5163 185.698 28.9268 184.466C29.3373 183.234 22.041 179.693 17.9607 178.334C13.8804 176.974 14.2468 178.088 13.8363 179.32C13.4258 180.552 12.3938 181.434 16.4741 182.794Z" fill="#B0DC7B"/>
<path d="M17.3942 189.128C21.6173 188.314 29.3143 185.758 29.0685 184.483C28.8227 183.208 20.7273 183.697 16.5041 184.511C12.2809 185.325 13.1464 186.117 13.3922 187.392C13.638 188.667 13.171 189.942 17.3942 189.128Z" fill="#B0DC7B"/>
<path d="M36.5884 73.4141C35.0696 77.4379 33.2145 85.3332 34.4293 85.7917C35.644 86.2502 39.4685 79.0984 40.9874 75.0745C42.5062 71.0506 41.3784 71.3731 40.1636 70.9146C38.9489 70.4561 38.1072 69.3902 36.5884 73.4141Z" fill="#B0DC7B"/>
<path d="M30.2233 74.0834C30.8712 78.3352 33.1232 86.1265 34.4068 85.9309C35.6904 85.7353 35.5195 77.6269 34.8716 73.375C34.2237 69.1232 33.3986 69.957 32.115 70.1526C30.8314 70.3482 29.5754 69.8315 30.2233 74.0834Z" fill="#B0DC7B"/>
<path d="M40.3862 187.28C36.4434 185.562 28.6511 183.314 28.1323 184.504C27.6135 185.694 34.5647 189.872 38.5074 191.591C42.4501 193.309 42.1846 192.167 42.7034 190.976C43.2222 189.786 44.3289 188.999 40.3862 187.28Z" fill="#B0DC7B"/>
<path d="M40.0356 180.89C35.7566 181.324 27.8623 183.183 27.9933 184.474C28.1244 185.766 36.2312 186.002 40.5102 185.567C44.7892 185.133 43.9978 184.267 43.8667 182.976C43.7356 181.684 44.3146 180.455 40.0356 180.89Z" fill="#B0DC7B"/>
<path d="M44.8379 216.691C40.6431 215.741 32.5676 214.993 32.281 216.259C31.9943 217.525 39.605 220.327 43.7998 221.277C47.9946 222.226 47.5197 221.154 47.8063 219.887C48.093 218.621 49.0327 217.64 44.8379 216.691Z" fill="#B0DC7B"/>
<path d="M43.2964 210.479C39.1744 211.707 31.768 215.012 32.1387 216.256C32.5094 217.501 40.5168 216.213 44.6388 214.986C48.7608 213.758 47.8212 213.055 47.4505 211.811C47.0798 210.567 47.4183 209.251 43.2964 210.479Z" fill="#B0DC7B"/>
<path d="M18.3406 203.128C22.6035 203.7 30.7137 203.725 30.8862 202.438C31.0587 201.151 23.2282 199.039 18.9654 198.468C14.7026 197.896 15.2713 198.922 15.0987 200.209C14.9262 201.496 14.0778 202.557 18.3406 203.128Z" fill="#B0DC7B"/>
<path d="M20.4306 209.179C24.4265 207.588 31.5085 203.636 31.0283 202.43C30.548 201.223 22.6874 203.22 18.6915 204.811C14.6955 206.401 15.694 207.017 16.1743 208.223C16.6545 209.43 16.4347 210.77 20.4306 209.179Z" fill="#B0DC7B"/>
<path d="M34.7495 76.3564L27.8985 176.209L38.3827 258.499" stroke="#B0DC7B" stroke-width="2.89698"/>
<path d="M118.507 45.4258L109.456 155.422L116.119 247.06" stroke="#B0DC7B" stroke-width="1.44849"/>
<path d="M133.256 54.1896C132.704 64.7694 125.247 73.0511 116.6 72.6874C107.953 72.3237 101.391 63.4522 101.943 52.8724" stroke="#B0DC7B" stroke-width="1.44849"/>
<path d="M131.627 81.0002C131.074 91.5799 123.617 99.8617 114.97 99.4979C106.323 99.1342 99.7611 90.2627 100.313 79.683" stroke="#B0DC7B" stroke-width="1.44849"/>
<path d="M129.114 106.977C128.562 117.557 121.105 125.839 112.458 125.475C103.811 125.111 97.2489 116.24 97.8011 105.66" stroke="#B0DC7B" stroke-width="1.44849"/>
<path d="M126.72 135.656C126.168 146.236 118.711 154.517 110.064 154.154C101.417 153.79 94.8549 144.919 95.407 134.339" stroke="#B0DC7B" stroke-width="1.44849"/>
<path d="M126.181 161.776C127.02 172.278 120.709 181.873 112.085 183.207C103.461 184.541 95.7903 177.109 94.9516 166.607" stroke="#B0DC7B" stroke-width="1.44849"/>
<path d="M127.878 190.367C128.717 200.869 122.406 210.463 113.782 211.797C105.158 213.131 97.4871 205.7 96.6484 195.198" stroke="#B0DC7B" stroke-width="1.44849"/>
<path d="M123.132 40.953C122.913 43.9736 120.779 46.0189 118.632 45.8633C116.485 45.7076 114.669 43.3757 114.888 40.3551C115.107 37.3345 117.241 35.2891 119.388 35.4448C121.534 35.6005 123.351 37.9324 123.132 40.953Z" fill="#B0DC7B" stroke="#B0DC7B" stroke-width="1.44849"/>
<path d="M105.901 48.9359C105.682 51.9565 103.548 54.0018 101.402 53.8462C99.2549 53.6905 97.4383 51.3586 97.6574 48.338C97.8765 45.3174 100.011 43.272 102.157 43.4277C104.304 43.5834 106.121 45.9153 105.901 48.9359Z" fill="#B0DC7B" stroke="#B0DC7B" stroke-width="1.44849"/>
<path d="M137.579 49.6942C137.36 52.7148 135.226 54.7602 133.079 54.6045C130.932 54.4488 129.116 52.1169 129.335 49.0963C129.554 46.0757 131.688 44.0303 133.834 44.186C135.981 44.3417 137.798 46.6736 137.579 49.6942Z" fill="#B0DC7B" stroke="#B0DC7B" stroke-width="1.44849"/>
<path d="M104.639 75.0037C104.42 78.0243 102.286 80.0697 100.139 79.914C97.9928 79.7584 96.1761 77.4265 96.3952 74.4059C96.6143 71.3853 98.7483 69.3399 100.895 69.4956C103.042 69.6512 104.858 71.9831 104.639 75.0037Z" fill="#B0DC7B" stroke="#B0DC7B" stroke-width="1.44849"/>
<path d="M136.344 75.3797C136.125 78.4003 133.991 80.4457 131.845 80.29C129.698 80.1343 127.881 77.8024 128.1 74.7818C128.319 71.7612 130.453 69.7158 132.6 69.8715C134.747 70.0272 136.563 72.3591 136.344 75.3797Z" fill="#B0DC7B" stroke="#B0DC7B" stroke-width="1.44849"/>
<path d="M131.098 130.395C130.879 133.416 128.745 135.461 126.598 135.306C124.451 135.15 122.635 132.818 122.854 129.797C123.073 126.777 125.207 124.731 127.354 124.887C129.5 125.043 131.317 127.375 131.098 130.395Z" fill="#B0DC7B" stroke="#B0DC7B" stroke-width="1.44849"/>
<path d="M100.018 130.065C99.7986 133.085 97.6645 135.131 95.5179 134.975C93.3712 134.819 91.5546 132.487 91.7736 129.467C91.9927 126.446 94.1268 124.401 96.2734 124.557C98.4201 124.712 100.237 127.044 100.018 130.065Z" fill="#B0DC7B" stroke="#B0DC7B" stroke-width="1.44849"/>
<path d="M135.256 103.384C135.037 106.404 132.903 108.45 130.756 108.294C128.609 108.138 126.793 105.806 127.012 102.786C127.231 99.7651 129.365 97.7197 131.512 97.8754C133.658 98.0311 135.475 100.363 135.256 103.384Z" fill="#B0DC7B" stroke="#B0DC7B" stroke-width="1.44849"/>
<path d="M102.099 101.364C101.88 104.384 99.7461 106.43 97.5994 106.274C95.4527 106.118 93.6361 103.786 93.8551 100.766C94.0742 97.7451 96.2083 95.6997 98.355 95.8554C100.502 96.0111 102.318 98.343 102.099 101.364Z" fill="#B0DC7B" stroke="#B0DC7B" stroke-width="1.44849"/>
<path d="M99.5616 162.346C99.3425 165.367 97.2085 167.412 95.0618 167.257C92.9151 167.101 91.0985 164.769 91.3175 161.749C91.5366 158.728 93.6707 156.683 95.8174 156.838C97.9641 156.994 99.7807 159.326 99.5616 162.346Z" fill="#B0DC7B" stroke="#B0DC7B" stroke-width="1.44849"/>
<path d="M131.343 157.342C131.124 160.362 128.99 162.408 126.843 162.252C124.696 162.096 122.88 159.764 123.099 156.744C123.318 153.723 125.452 151.678 127.599 151.833C129.745 151.989 131.562 154.321 131.343 157.342Z" fill="#B0DC7B" stroke="#B0DC7B" stroke-width="1.44849"/>
<path d="M101.029 189.766C100.81 192.787 98.6758 194.832 96.5291 194.676C94.3824 194.521 92.5658 192.189 92.7848 189.168C93.0039 186.147 95.138 184.102 97.2847 184.258C99.4314 184.413 101.248 186.745 101.029 189.766Z" fill="#B0DC7B" stroke="#B0DC7B" stroke-width="1.44849"/>
<path d="M133.352 185.955C133.133 188.976 130.999 191.021 128.852 190.865C126.706 190.71 124.889 188.378 125.108 185.357C125.327 182.336 127.461 180.291 129.608 180.447C131.755 180.602 133.571 182.934 133.352 185.955Z" fill="#B0DC7B" stroke="#B0DC7B" stroke-width="1.44849"/>
<path d="M294.368 66.4038C237.12 213.392 282.349 247.641 312.12 246.391" stroke="#B0DC7B" stroke-width="2.89698"/>
<path d="M267.446 169.188C263.112 121.858 248.588 108.215 241.868 107.31" stroke="#B0DC7B" stroke-width="2.89698"/>
<path d="M315.518 150.042C273.206 171.689 265.951 190.248 267.613 196.822" stroke="#B0DC7B" stroke-width="2.89698"/>
<g style="mix-blend-mode:overlay">
<g style="mix-blend-mode:exclusion">
<circle r="13.841" transform="matrix(0.714505 -0.69963 0.699631 0.714504 285.105 55.7386)" fill="#FFEC43"/>
</g>
<g style="mix-blend-mode:exclusion">
<circle r="13.841" transform="matrix(0.714505 -0.69963 0.699632 0.714504 300.478 53.1942)" fill="#FFEC43"/>
</g>
<g style="mix-blend-mode:exclusion">
<circle r="13.841" transform="matrix(0.714506 -0.69963 0.699632 0.714504 309.437 68.7181)" fill="#FFEC43"/>
</g>
<g style="mix-blend-mode:exclusion">
<circle r="13.841" transform="matrix(0.714505 -0.69963 0.699632 0.714504 296.976 80.366)" fill="#FFEC43"/>
</g>
<g style="mix-blend-mode:exclusion">
<circle r="13.841" transform="matrix(0.714506 -0.699629 0.699632 0.714503 282.748 74.5394)" fill="#FFEC43"/>
</g>
</g>
<g style="mix-blend-mode:overlay">
<g style="mix-blend-mode:exclusion">
<circle r="9.27314" transform="matrix(0.71451 -0.699626 0.699636 0.7145 234.413 99.8601)" fill="#FFEC43"/>
</g>
<g style="mix-blend-mode:exclusion">
<circle r="9.27314" transform="matrix(0.714503 -0.699632 0.699629 0.714506 244.713 98.156)" fill="#FFEC43"/>
</g>
<g style="mix-blend-mode:exclusion">
<circle r="9.27314" transform="matrix(0.714504 -0.699631 0.69963 0.714505 250.715 108.556)" fill="#FFEC43"/>
</g>
<g style="mix-blend-mode:exclusion">
<circle r="9.27314" transform="matrix(0.714503 -0.699632 0.699629 0.714506 242.366 116.36)" fill="#FFEC43"/>
</g>
<g style="mix-blend-mode:exclusion">
<circle r="9.27314" transform="matrix(0.714503 -0.699632 0.699629 0.714506 232.834 112.457)" fill="#FFEC43"/>
</g>
</g>
<g style="mix-blend-mode:overlay">
<g style="mix-blend-mode:exclusion">
<circle cx="308.286" cy="144.039" r="9.27314" transform="rotate(-44.3974 308.286 144.039)" fill="#FFEC43"/>
</g>
<g style="mix-blend-mode:exclusion">
<circle cx="318.586" cy="142.335" r="9.27314" transform="rotate(-44.3974 318.586 142.335)" fill="#FFEC43"/>
</g>
<g style="mix-blend-mode:exclusion">
<circle r="9.27314" transform="matrix(0.714503 -0.699632 0.699629 0.714506 324.588 152.736)" fill="#FFEC43"/>
</g>
<g style="mix-blend-mode:exclusion">
<circle cx="316.239" cy="160.539" r="9.27314" transform="rotate(-44.3974 316.239 160.539)" fill="#FFEC43"/>
</g>
<g style="mix-blend-mode:exclusion">
<circle r="9.27314" transform="matrix(0.714503 -0.699632 0.699629 0.714506 306.707 156.635)" fill="#FFEC43"/>
</g>
</g>
<path d="M516.768 104.065C520.71 102.346 528.503 100.098 529.021 101.288C529.54 102.478 522.589 106.656 518.646 108.375C514.704 110.093 514.969 108.951 514.45 107.761C513.932 106.57 512.825 105.783 516.768 104.065Z" fill="#B0DC7B"/>
<path d="M517.118 97.6747C521.397 98.1088 529.291 99.9678 529.16 101.26C529.029 102.551 520.923 102.787 516.644 102.353C512.365 101.918 513.156 101.053 513.287 99.7609C513.418 98.4691 512.839 97.2406 517.118 97.6747Z" fill="#B0DC7B"/>
<path d="M542.047 85.4368C537.967 86.7966 530.005 88.3405 529.595 87.1087C529.184 85.8769 536.48 82.3359 540.561 80.9761C544.641 79.6163 544.275 80.7306 544.685 81.9624C545.096 83.1941 546.128 84.077 542.047 85.4368Z" fill="#B0DC7B"/>
<path d="M541.128 91.7706C536.905 90.9564 529.208 88.4006 529.454 87.1256C529.699 85.8507 537.795 86.3394 542.018 87.1536C546.241 87.9678 545.376 88.7595 545.13 90.0345C544.884 91.3094 545.351 92.5847 541.128 91.7706Z" fill="#B0DC7B"/>
<path d="M544.328 113.264C540.247 114.624 532.285 116.168 531.875 114.937C531.464 113.705 538.761 110.164 542.841 108.804C546.921 107.444 546.555 108.558 546.965 109.79C547.376 111.022 548.408 111.905 544.328 113.264Z" fill="#B0DC7B"/>
<path d="M518.135 117.751C522.078 116.032 529.87 113.784 530.389 114.974C530.908 116.165 523.957 120.343 520.014 122.061C516.071 123.779 516.337 122.637 515.818 121.447C515.299 120.256 514.193 119.469 518.135 117.751Z" fill="#B0DC7B"/>
<path d="M518.486 111.361C522.765 111.795 530.66 113.654 530.529 114.946C530.398 116.237 522.291 116.473 518.012 116.039C513.733 115.605 514.524 114.739 514.655 113.447C514.786 112.155 514.207 110.927 518.486 111.361Z" fill="#B0DC7B"/>
<path d="M544.784 127.407C540.704 128.767 532.742 130.311 532.332 129.079C531.921 127.847 539.217 124.306 543.298 122.946C547.378 121.586 547.011 122.701 547.422 123.933C547.833 125.164 548.865 126.047 544.784 127.407Z" fill="#B0DC7B"/>
<path d="M543.864 133.741C539.641 132.927 531.944 130.371 532.19 129.096C532.436 127.821 540.531 128.31 544.754 129.124C548.977 129.938 548.112 130.73 547.866 132.005C547.62 133.28 548.087 134.555 543.864 133.741Z" fill="#B0DC7B"/>
<path d="M544.784 127.407C540.704 128.767 532.742 130.311 532.332 129.079C531.921 127.847 539.217 124.306 543.298 122.946C547.378 121.586 547.011 122.701 547.422 123.933C547.833 125.164 548.865 126.047 544.784 127.407Z" fill="#B0DC7B"/>
<path d="M543.864 133.741C539.641 132.927 531.944 130.371 532.19 129.096C532.436 127.821 540.531 128.31 544.754 129.124C548.977 129.938 548.112 130.73 547.866 132.005C547.62 133.28 548.087 134.555 543.864 133.741Z" fill="#B0DC7B"/>
<path d="M547.066 155.691C542.986 157.051 535.024 158.595 534.613 157.363C534.203 156.132 541.499 152.59 545.579 151.231C549.66 149.871 549.293 150.985 549.704 152.217C550.114 153.449 551.146 154.331 547.066 155.691Z" fill="#B0DC7B"/>
<path d="M546.145 162.024C541.922 161.21 534.225 158.654 534.471 157.38C534.717 156.105 542.812 156.593 547.036 157.408C551.259 158.222 550.393 159.013 550.147 160.288C549.902 161.563 550.369 162.839 546.145 162.024Z" fill="#B0DC7B"/>
<path d="M520.874 160.175C524.816 158.457 532.609 156.209 533.127 157.399C533.646 158.59 526.695 162.767 522.752 164.486C518.81 166.204 519.075 165.062 518.556 163.871C518.038 162.681 516.931 161.894 520.874 160.175Z" fill="#B0DC7B"/>
<path d="M546.152 141.549C542.072 142.909 534.11 144.453 533.7 143.221C533.289 141.989 540.585 138.448 544.666 137.088C548.746 135.729 548.38 136.843 548.79 138.075C549.201 139.306 550.233 140.189 546.152 141.549Z" fill="#B0DC7B"/>
<path d="M545.233 147.883C541.01 147.069 533.313 144.513 533.558 143.238C533.804 141.963 541.9 142.452 546.123 143.266C550.346 144.081 549.481 144.872 549.235 146.147C548.989 147.422 549.456 148.697 545.233 147.883Z" fill="#B0DC7B"/>
<path d="M519.961 146.034C523.903 144.316 531.696 142.068 532.214 143.258C532.733 144.448 525.782 148.626 521.839 150.345C517.897 152.063 518.162 150.921 517.643 149.73C517.125 148.54 516.018 147.753 519.961 146.034Z" fill="#B0DC7B"/>
<path d="M520.311 139.644C524.59 140.079 532.484 141.937 532.353 143.229C532.222 144.521 524.115 144.756 519.836 144.322C515.558 143.888 516.349 143.022 516.48 141.731C516.611 140.439 516.032 139.21 520.311 139.644Z" fill="#B0DC7B"/>
<path d="M548.433 169.377C544.353 170.737 536.391 172.28 535.98 171.049C535.57 169.817 542.866 166.276 546.947 164.916C551.027 163.556 550.66 164.67 551.071 165.902C551.481 167.134 552.514 168.017 548.433 169.377Z" fill="#B0DC7B"/>
<path d="M547.514 175.709C543.291 174.895 535.594 172.339 535.84 171.065C536.086 169.79 544.181 170.278 548.404 171.093C552.627 171.907 551.762 172.699 551.516 173.973C551.27 175.248 551.737 176.524 547.514 175.709Z" fill="#B0DC7B"/>
<path d="M522.242 173.862C526.185 172.144 533.977 169.896 534.496 171.086C535.015 172.276 528.064 176.454 524.121 178.172C520.178 179.891 520.444 178.748 519.925 177.558C519.406 176.368 518.3 175.58 522.242 173.862Z" fill="#B0DC7B"/>
<path d="M522.593 167.472C526.872 167.906 534.766 169.765 534.635 171.056C534.504 172.348 526.397 172.584 522.118 172.149C517.839 171.715 518.631 170.85 518.762 169.558C518.893 168.266 518.314 167.037 522.593 167.472Z" fill="#B0DC7B"/>
<path d="M548.89 183.518C544.81 184.878 536.848 186.422 536.437 185.19C536.027 183.959 543.323 180.418 547.404 179.058C551.484 177.698 551.117 178.812 551.528 180.044C551.938 181.276 552.97 182.159 548.89 183.518Z" fill="#B0DC7B"/>
<path d="M547.97 189.852C543.747 189.038 536.05 186.482 536.296 185.207C536.542 183.932 544.637 184.421 548.86 185.235C553.083 186.049 552.218 186.841 551.972 188.116C551.726 189.391 552.193 190.666 547.97 189.852Z" fill="#B0DC7B"/>
<path d="M522.698 188.004C526.641 186.286 534.433 184.038 534.952 185.228C535.47 186.418 528.519 190.596 524.577 192.314C520.634 194.033 520.899 192.89 520.381 191.7C519.862 190.51 518.755 189.723 522.698 188.004Z" fill="#B0DC7B"/>
<path d="M523.049 181.613C527.328 182.047 535.222 183.906 535.091 185.198C534.96 186.489 526.853 186.725 522.574 186.291C518.295 185.856 519.087 184.991 519.218 183.699C519.349 182.407 518.77 181.179 523.049 181.613Z" fill="#B0DC7B"/>
<path d="M546.609 183.518C542.529 184.878 534.567 186.422 534.157 185.19C533.746 183.959 541.042 180.418 545.123 179.058C549.203 177.698 548.837 178.812 549.247 180.044C549.658 181.276 550.69 182.159 546.609 183.518Z" fill="#B0DC7B"/>
<path d="M545.689 189.852C541.466 189.038 533.769 186.482 534.015 185.207C534.261 183.932 542.356 184.421 546.579 185.235C550.803 186.049 549.937 186.841 549.691 188.116C549.446 189.391 549.913 190.666 545.689 189.852Z" fill="#B0DC7B"/>
<path d="M526.496 74.1377C528.014 78.1615 529.87 86.0566 528.655 86.5151C527.44 86.9736 523.615 79.8219 522.097 75.7981C520.578 71.7743 521.706 72.0967 522.92 71.6382C524.135 71.1797 524.977 70.1139 526.496 74.1377Z" fill="#B0DC7B"/>
<path d="M532.86 74.808C532.212 79.0598 529.96 86.851 528.677 86.6554C527.393 86.4599 527.564 78.3515 528.212 74.0996C528.86 69.8478 529.685 70.6816 530.969 70.8772C532.252 71.0728 533.508 70.5561 532.86 74.808Z" fill="#B0DC7B"/>
<path d="M522.698 188.004C526.641 186.286 534.433 184.038 534.952 185.228C535.47 186.418 528.519 190.596 524.577 192.314C520.634 194.033 520.899 192.89 520.381 191.7C519.862 190.51 518.755 189.723 522.698 188.004Z" fill="#B0DC7B"/>
<path d="M523.049 181.613C527.328 182.047 535.222 183.906 535.091 185.198C534.96 186.489 526.853 186.725 522.574 186.291C518.295 185.856 519.087 184.991 519.218 183.699C519.349 182.407 518.77 181.179 523.049 181.613Z" fill="#B0DC7B"/>
<path d="M518.245 217.416C522.44 216.466 530.516 215.718 530.802 216.984C531.089 218.25 523.478 221.052 519.283 222.002C515.088 222.951 515.563 221.879 515.277 220.612C514.99 219.346 514.05 218.365 518.245 217.416Z" fill="#B0DC7B"/>
<path d="M519.788 211.203C523.91 212.431 531.316 215.736 530.945 216.98C530.574 218.225 522.567 216.938 518.445 215.71C514.323 214.482 515.263 213.779 515.634 212.535C516.004 211.291 515.666 209.975 519.788 211.203Z" fill="#B0DC7B"/>
<path d="M544.742 203.853C540.479 204.424 532.369 204.45 532.197 203.163C532.024 201.876 539.854 199.764 544.117 199.193C548.38 198.621 547.811 199.647 547.984 200.934C548.156 202.221 549.005 203.281 544.742 203.853Z" fill="#B0DC7B"/>
<path d="M542.653 209.903C538.657 208.312 531.575 204.36 532.055 203.153C532.536 201.947 540.396 203.943 544.392 205.534C548.388 207.125 547.389 207.741 546.909 208.947C546.429 210.153 546.649 211.494 542.653 209.903Z" fill="#B0DC7B"/>
<path d="M528.334 77.0806L535.185 176.933L524.701 259.223" stroke="#B0DC7B" stroke-width="2.89698"/>
<path d="M394.316 103.34C390.373 101.622 382.581 99.3735 382.062 100.564C381.543 101.754 388.494 105.932 392.437 107.65C396.38 109.369 396.114 108.226 396.633 107.036C397.152 105.846 398.259 105.058 394.316 103.34Z" fill="#B0DC7B"/>
<path d="M393.965 96.9501C389.686 97.3842 381.792 99.2431 381.923 100.535C382.054 101.827 390.161 102.062 394.44 101.628C398.719 101.194 397.927 100.328 397.796 99.0363C397.665 97.7445 398.244 96.5159 393.965 96.9501Z" fill="#B0DC7B"/>
<path d="M369.036 84.7127C373.116 86.0726 381.078 87.6166 381.489 86.3848C381.899 85.153 374.603 81.6119 370.523 80.252C366.442 78.8921 366.809 80.0064 366.398 81.2382C365.988 82.47 364.956 83.3529 369.036 84.7127Z" fill="#B0DC7B"/>
<path d="M369.956 91.0464C374.179 90.2322 381.876 87.6763 381.631 86.4014C381.385 85.1265 373.289 85.6153 369.066 86.4295C364.843 87.2437 365.708 88.0354 365.954 89.3103C366.2 90.5853 365.733 91.8606 369.956 91.0464Z" fill="#B0DC7B"/>
<path d="M366.755 112.541C370.836 113.901 378.797 115.445 379.208 114.213C379.619 112.982 372.322 109.44 368.242 108.081C364.162 106.721 364.528 107.835 364.118 109.067C363.707 110.299 362.675 111.181 366.755 112.541Z" fill="#B0DC7B"/>
<path d="M392.948 117.027C389.005 115.308 381.213 113.06 380.694 114.25C380.175 115.441 387.127 119.619 391.069 121.337C395.012 123.056 394.747 121.913 395.265 120.723C395.784 119.533 396.891 118.746 392.948 117.027Z" fill="#B0DC7B"/>
<path d="M392.598 110.636C388.319 111.07 380.424 112.929 380.555 114.22C380.686 115.512 388.793 115.748 393.072 115.314C397.351 114.879 396.56 114.014 396.429 112.722C396.298 111.43 396.877 110.201 392.598 110.636Z" fill="#B0DC7B"/>
<path d="M366.299 126.683C370.38 128.043 378.341 129.587 378.752 128.355C379.163 127.124 371.866 123.583 367.786 122.223C363.706 120.863 364.072 121.977 363.662 123.209C363.251 124.441 362.219 125.324 366.299 126.683Z" fill="#B0DC7B"/>
<path d="M367.219 133.017C371.443 132.203 379.139 129.647 378.894 128.372C378.648 127.097 370.552 127.586 366.329 128.4C362.106 129.214 362.972 130.006 363.217 131.281C363.463 132.556 362.996 133.831 367.219 133.017Z" fill="#B0DC7B"/>
<path d="M366.299 126.683C370.38 128.043 378.341 129.587 378.752 128.355C379.163 127.124 371.866 123.583 367.786 122.223C363.706 120.863 364.072 121.977 363.662 123.209C363.251 124.441 362.219 125.324 366.299 126.683Z" fill="#B0DC7B"/>
<path d="M367.219 133.017C371.443 132.203 379.139 129.647 378.894 128.372C378.648 127.097 370.552 127.586 366.329 128.4C362.106 129.214 362.972 130.006 363.217 131.281C363.463 132.556 362.996 133.831 367.219 133.017Z" fill="#B0DC7B"/>
<path d="M364.018 154.967C368.098 156.327 376.06 157.871 376.471 156.639C376.881 155.407 369.585 151.866 365.505 150.506C361.424 149.146 361.791 150.26 361.38 151.492C360.97 152.724 359.938 153.607 364.018 154.967Z" fill="#B0DC7B"/>
<path d="M364.938 161.3C369.161 160.486 376.858 157.93 376.612 156.655C376.367 155.38 368.271 155.869 364.048 156.683C359.825 157.498 360.69 158.289 360.936 159.564C361.182 160.839 360.715 162.114 364.938 161.3Z" fill="#B0DC7B"/>
<path d="M390.21 159.452C386.268 157.733 378.475 155.485 377.956 156.676C377.438 157.866 384.389 162.044 388.332 163.762C392.274 165.481 392.009 164.338 392.528 163.148C393.046 161.958 394.153 161.17 390.21 159.452Z" fill="#B0DC7B"/>
<path d="M364.931 140.825C369.011 142.185 376.973 143.729 377.383 142.497C377.794 141.265 370.498 137.724 366.417 136.364C362.337 135.004 362.703 136.119 362.293 137.351C361.882 138.582 360.85 139.465 364.931 140.825Z" fill="#B0DC7B"/>
<path d="M365.85 147.159C370.073 146.345 377.77 143.789 377.524 142.514C377.279 141.239 369.183 141.728 364.96 142.542C360.737 143.356 361.602 144.148 361.848 145.423C362.094 146.698 361.627 147.973 365.85 147.159Z" fill="#B0DC7B"/>
<path d="M391.122 145.31C387.18 143.591 379.387 141.343 378.869 142.533C378.35 143.724 385.301 147.902 389.244 149.62C393.186 151.338 392.921 150.196 393.44 149.006C393.959 147.815 395.065 147.028 391.122 145.31Z" fill="#B0DC7B"/>
<path d="M390.772 138.919C386.493 139.354 378.598 141.213 378.73 142.504C378.861 143.796 386.967 144.031 391.246 143.597C395.526 143.163 394.734 142.297 394.603 141.006C394.472 139.714 395.051 138.485 390.772 138.919Z" fill="#B0DC7B"/>
<path d="M362.65 168.653C366.731 170.012 374.693 171.556 375.103 170.325C375.514 169.093 368.217 165.552 364.137 164.192C360.057 162.832 360.423 163.946 360.013 165.178C359.602 166.41 358.57 167.293 362.65 168.653Z" fill="#B0DC7B"/>
<path d="M363.569 174.986C367.793 174.172 375.49 171.616 375.244 170.341C374.998 169.066 366.903 169.555 362.679 170.369C358.456 171.184 359.322 171.975 359.567 173.25C359.813 174.525 359.346 175.801 363.569 174.986Z" fill="#B0DC7B"/>
<path d="M388.842 173.138C384.899 171.42 377.107 169.172 376.588 170.362C376.069 171.552 383.021 175.73 386.963 177.449C390.906 179.167 390.641 178.025 391.159 176.834C391.678 175.644 392.785 174.857 388.842 173.138Z" fill="#B0DC7B"/>
<path d="M388.492 166.748C384.213 167.182 376.318 169.041 376.449 170.332C376.58 171.624 384.687 171.86 388.966 171.425C393.245 170.991 392.454 170.125 392.323 168.834C392.192 167.542 392.771 166.313 388.492 166.748Z" fill="#B0DC7B"/>
<path d="M362.193 182.794C366.274 184.154 374.235 185.698 374.646 184.466C375.057 183.234 367.76 179.693 363.68 178.333C359.6 176.973 359.966 178.087 359.556 179.319C359.145 180.551 358.113 181.434 362.193 182.794Z" fill="#B0DC7B"/>
<path d="M363.113 189.127C367.337 188.313 375.033 185.757 374.788 184.482C374.542 183.208 366.446 183.696 362.223 184.511C358 185.325 358.866 186.116 359.111 187.391C359.357 188.666 358.89 189.942 363.113 189.127Z" fill="#B0DC7B"/>
<path d="M388.386 187.28C384.443 185.562 376.651 183.314 376.132 184.504C375.613 185.694 382.565 189.872 386.507 191.591C390.45 193.309 390.185 192.167 390.703 190.976C391.222 189.786 392.329 188.999 388.386 187.28Z" fill="#B0DC7B"/>
<path d="M388.036 180.89C383.757 181.324 375.862 183.183 375.993 184.474C376.124 185.766 384.231 186.002 388.51 185.567C392.789 185.133 391.998 184.267 391.867 182.976C391.736 181.684 392.315 180.455 388.036 180.89Z" fill="#B0DC7B"/>
<path d="M364.474 182.794C368.554 184.154 376.516 185.698 376.927 184.466C377.337 183.234 370.041 179.693 365.961 178.334C361.88 176.974 362.247 178.088 361.836 179.32C361.426 180.552 360.394 181.434 364.474 182.794Z" fill="#B0DC7B"/>
<path d="M365.394 189.128C369.617 188.314 377.314 185.758 377.068 184.483C376.823 183.208 368.727 183.697 364.504 184.511C360.281 185.325 361.146 186.117 361.392 187.392C361.638 188.667 361.171 189.942 365.394 189.128Z" fill="#B0DC7B"/>
<path d="M384.588 73.4141C383.07 77.4379 381.215 85.3332 382.429 85.7917C383.644 86.2502 387.469 79.0984 388.987 75.0745C390.506 71.0506 389.378 71.3731 388.164 70.9146C386.949 70.4561 386.107 69.3902 384.588 73.4141Z" fill="#B0DC7B"/>
<path d="M378.223 74.0834C378.871 78.3352 381.123 86.1265 382.407 85.9309C383.69 85.7353 383.52 77.6269 382.872 73.375C382.224 69.1232 381.399 69.957 380.115 70.1526C378.831 70.3482 377.575 69.8315 378.223 74.0834Z" fill="#B0DC7B"/>
<path d="M388.386 187.28C384.443 185.562 376.651 183.314 376.132 184.504C375.613 185.694 382.565 189.872 386.507 191.591C390.45 193.309 390.185 192.167 390.703 190.976C391.222 189.786 392.329 188.999 388.386 187.28Z" fill="#B0DC7B"/>
<path d="M388.036 180.89C383.757 181.324 375.862 183.183 375.993 184.474C376.124 185.766 384.231 186.002 388.51 185.567C392.789 185.133 391.998 184.267 391.867 182.976C391.736 181.684 392.315 180.455 388.036 180.89Z" fill="#B0DC7B"/>
<path d="M392.838 216.691C388.643 215.742 380.568 214.993 380.281 216.26C379.994 217.526 387.605 220.328 391.8 221.277C395.995 222.227 395.52 221.154 395.806 219.888C396.093 218.621 397.033 217.641 392.838 216.691Z" fill="#B0DC7B"/>
<path d="M391.296 210.48C387.174 211.708 379.768 215.013 380.139 216.257C380.509 217.501 388.517 216.214 392.639 214.986C396.761 213.758 395.821 213.056 395.45 211.811C395.08 210.567 395.418 209.252 391.296 210.48Z" fill="#B0DC7B"/>
<path d="M366.34 203.128C370.603 203.7 378.713 203.725 378.886 202.438C379.058 201.151 371.228 199.039 366.965 198.468C362.702 197.896 363.271 198.922 363.098 200.209C362.926 201.496 362.077 202.557 366.34 203.128Z" fill="#B0DC7B"/>
<path d="M368.431 209.179C372.427 207.588 379.509 203.635 379.028 202.429C378.548 201.223 370.687 203.219 366.691 204.81C362.696 206.401 363.694 207.017 364.174 208.223C364.655 209.429 364.435 210.769 368.431 209.179Z" fill="#B0DC7B"/>
<path d="M382.75 76.3564L375.898 176.209L386.383 258.499" stroke="#B0DC7B" stroke-width="2.89698"/>
<path d="M466.507 45.4258L457.456 155.422L464.119 247.06" stroke="#B0DC7B" stroke-width="1.44849"/>
<path d="M481.256 54.1896C480.704 64.7694 473.247 73.0511 464.6 72.6874C455.953 72.3237 449.391 63.4522 449.943 52.8724" stroke="#B0DC7B" stroke-width="1.44849"/>
<path d="M479.627 81.0002C479.074 91.5799 471.617 99.8617 462.97 99.4979C454.323 99.1342 447.761 90.2627 448.313 79.683" stroke="#B0DC7B" stroke-width="1.44849"/>
<path d="M477.114 106.977C476.562 117.557 469.105 125.839 460.458 125.475C451.811 125.111 445.249 116.24 445.801 105.66" stroke="#B0DC7B" stroke-width="1.44849"/>
<path d="M474.72 135.656C474.168 146.236 466.711 154.517 458.064 154.154C449.417 153.79 442.855 144.919 443.407 134.339" stroke="#B0DC7B" stroke-width="1.44849"/>
<path d="M474.181 161.776C475.02 172.278 468.709 181.873 460.085 183.207C451.461 184.541 443.79 177.109 442.952 166.607" stroke="#B0DC7B" stroke-width="1.44849"/>
<path d="M475.878 190.367C476.717 200.869 470.406 210.463 461.782 211.797C453.158 213.131 445.487 205.7 444.648 195.198" stroke="#B0DC7B" stroke-width="1.44849"/>
<path d="M471.132 40.953C470.913 43.9736 468.779 46.0189 466.632 45.8633C464.485 45.7076 462.669 43.3757 462.888 40.3551C463.107 37.3345 465.241 35.2891 467.388 35.4448C469.534 35.6005 471.351 37.9324 471.132 40.953Z" fill="#B0DC7B" stroke="#B0DC7B" stroke-width="1.44849"/>
<path d="M453.901 48.9359C453.682 51.9565 451.548 54.0018 449.402 53.8462C447.255 53.6905 445.438 51.3586 445.657 48.338C445.876 45.3174 448.011 43.272 450.157 43.4277C452.304 43.5834 454.121 45.9153 453.901 48.9359Z" fill="#B0DC7B" stroke="#B0DC7B" stroke-width="1.44849"/>
<path d="M485.579 49.6942C485.36 52.7148 483.226 54.7602 481.079 54.6045C478.932 54.4488 477.116 52.1169 477.335 49.0963C477.554 46.0757 479.688 44.0303 481.834 44.186C483.981 44.3417 485.798 46.6736 485.579 49.6942Z" fill="#B0DC7B" stroke="#B0DC7B" stroke-width="1.44849"/>
<path d="M452.639 75.0037C452.42 78.0243 450.286 80.0697 448.139 79.914C445.993 79.7584 444.176 77.4265 444.395 74.4059C444.614 71.3853 446.748 69.3399 448.895 69.4956C451.042 69.6512 452.858 71.9831 452.639 75.0037Z" fill="#B0DC7B" stroke="#B0DC7B" stroke-width="1.44849"/>
<path d="M484.344 75.3797C484.125 78.4003 481.991 80.4457 479.845 80.29C477.698 80.1343 475.881 77.8024 476.1 74.7818C476.319 71.7612 478.453 69.7158 480.6 69.8715C482.747 70.0272 484.563 72.3591 484.344 75.3797Z" fill="#B0DC7B" stroke="#B0DC7B" stroke-width="1.44849"/>
<path d="M479.098 130.395C478.879 133.416 476.745 135.461 474.598 135.306C472.451 135.15 470.635 132.818 470.854 129.797C471.073 126.777 473.207 124.731 475.354 124.887C477.5 125.043 479.317 127.375 479.098 130.395Z" fill="#B0DC7B" stroke="#B0DC7B" stroke-width="1.44849"/>
<path d="M448.018 130.065C447.799 133.085 445.665 135.131 443.518 134.975C441.371 134.819 439.555 132.487 439.774 129.467C439.993 126.446 442.127 124.401 444.273 124.557C446.42 124.712 448.237 127.044 448.018 130.065Z" fill="#B0DC7B" stroke="#B0DC7B" stroke-width="1.44849"/>
<path d="M483.256 103.384C483.037 106.404 480.903 108.45 478.756 108.294C476.609 108.138 474.793 105.806 475.012 102.786C475.231 99.7651 477.365 97.7197 479.512 97.8754C481.658 98.0311 483.475 100.363 483.256 103.384Z" fill="#B0DC7B" stroke="#B0DC7B" stroke-width="1.44849"/>
<path d="M450.099 101.364C449.88 104.384 447.746 106.43 445.599 106.274C443.453 106.118 441.636 103.786 441.855 100.766C442.074 97.7451 444.208 95.6997 446.355 95.8554C448.502 96.0111 450.318 98.343 450.099 101.364Z" fill="#B0DC7B" stroke="#B0DC7B" stroke-width="1.44849"/>
<path d="M447.562 162.346C447.343 165.367 445.208 167.412 443.062 167.257C440.915 167.101 439.098 164.769 439.318 161.749C439.537 158.728 441.671 156.683 443.817 156.838C445.964 156.994 447.781 159.326 447.562 162.346Z" fill="#B0DC7B" stroke="#B0DC7B" stroke-width="1.44849"/>
<path d="M479.343 157.342C479.124 160.362 476.99 162.408 474.843 162.252C472.696 162.096 470.88 159.764 471.099 156.744C471.318 153.723 473.452 151.678 475.599 151.833C477.745 151.989 479.562 154.321 479.343 157.342Z" fill="#B0DC7B" stroke="#B0DC7B" stroke-width="1.44849"/>
<path d="M449.029 189.766C448.81 192.787 446.676 194.832 444.529 194.676C442.382 194.521 440.566 192.189 440.785 189.168C441.004 186.147 443.138 184.102 445.285 184.258C447.431 184.413 449.248 186.745 449.029 189.766Z" fill="#B0DC7B" stroke="#B0DC7B" stroke-width="1.44849"/>
<path d="M481.352 185.955C481.133 188.976 478.999 191.021 476.852 190.865C474.706 190.71 472.889 188.378 473.108 185.357C473.327 182.336 475.461 180.291 477.608 180.447C479.755 180.602 481.571 182.934 481.352 185.955Z" fill="#B0DC7B" stroke="#B0DC7B" stroke-width="1.44849"/>
<path d="M944.768 104.065C948.71 102.346 956.503 100.098 957.022 101.288C957.54 102.478 950.589 106.656 946.646 108.375C942.704 110.093 942.969 108.951 942.45 107.761C941.932 106.57 940.825 105.783 944.768 104.065Z" fill="#B0DC7B"/>
<path d="M945.119 97.6742C949.398 98.1084 957.292 99.9673 957.161 101.259C957.03 102.551 948.923 102.786 944.644 102.352C940.365 101.918 941.157 101.052 941.288 99.7604C941.419 98.4686 940.84 97.2401 945.119 97.6742Z" fill="#B0DC7B"/>
<path d="M970.048 85.4368C965.968 86.7967 958.006 88.3407 957.595 87.1089C957.185 85.8771 964.481 82.336 968.561 80.9761C972.642 79.6162 972.275 80.7306 972.686 81.9624C973.096 83.1941 974.128 84.077 970.048 85.4368Z" fill="#B0DC7B"/>
<path d="M969.128 91.771C964.905 90.9568 957.208 88.401 957.453 87.126C957.699 85.8511 965.795 86.3399 970.018 87.1541C974.241 87.9683 973.376 88.76 973.13 90.0349C972.884 91.3099 973.351 92.5852 969.128 91.771Z" fill="#B0DC7B"/>
<path d="M972.328 113.265C968.248 114.625 960.286 116.169 959.875 114.937C959.465 113.705 966.761 110.164 970.842 108.804C974.922 107.444 974.555 108.559 974.966 109.79C975.376 111.022 976.409 111.905 972.328 113.265Z" fill="#B0DC7B"/>
<path d="M946.137 117.753C950.08 116.034 957.872 113.786 958.391 114.976C958.909 116.166 951.958 120.344 948.016 122.063C944.073 123.781 944.338 122.639 943.82 121.449C943.301 120.258 942.194 119.471 946.137 117.753Z" fill="#B0DC7B"/>
<path d="M946.487 111.362C950.766 111.796 958.66 113.655 958.529 114.946C958.398 116.238 950.291 116.474 946.012 116.04C941.733 115.605 942.525 114.74 942.656 113.448C942.787 112.156 942.208 110.928 946.487 111.362Z" fill="#B0DC7B"/>
<path d="M972.785 127.407C968.705 128.767 960.743 130.311 960.333 129.079C959.922 127.847 967.218 124.306 971.299 122.946C975.379 121.586 975.012 122.701 975.423 123.933C975.833 125.164 976.865 126.047 972.785 127.407Z" fill="#B0DC7B"/>
<path d="M971.865 133.741C967.642 132.927 959.945 130.371 960.191 129.096C960.437 127.821 968.532 128.31 972.755 129.124C976.978 129.938 976.113 130.73 975.867 132.005C975.621 133.28 976.088 134.555 971.865 133.741Z" fill="#B0DC7B"/>
<path d="M972.785 127.407C968.705 128.767 960.743 130.311 960.333 129.079C959.922 127.847 967.218 124.306 971.299 122.946C975.379 121.586 975.012 122.701 975.423 123.933C975.833 125.164 976.865 126.047 972.785 127.407Z" fill="#B0DC7B"/>
<path d="M971.865 133.741C967.642 132.927 959.945 130.371 960.191 129.096C960.437 127.821 968.532 128.31 972.755 129.124C976.978 129.938 976.113 130.73 975.867 132.005C975.621 133.28 976.088 134.555 971.865 133.741Z" fill="#B0DC7B"/>
<path d="M975.066 155.691C970.986 157.051 963.024 158.595 962.613 157.363C962.203 156.131 969.499 152.59 973.579 151.23C977.66 149.871 977.293 150.985 977.704 152.217C978.114 153.449 979.146 154.331 975.066 155.691Z" fill="#B0DC7B"/>
<path d="M974.146 162.025C969.923 161.211 962.226 158.655 962.472 157.38C962.718 156.105 970.813 156.594 975.036 157.408C979.26 158.222 978.394 159.014 978.148 160.289C977.903 161.564 978.37 162.839 974.146 162.025Z" fill="#B0DC7B"/>
<path d="M948.874 160.175C952.817 158.457 960.609 156.209 961.128 157.399C961.647 158.59 954.696 162.767 950.753 164.486C946.81 166.204 947.076 165.062 946.557 163.871C946.038 162.681 944.931 161.894 948.874 160.175Z" fill="#B0DC7B"/>
<path d="M974.153 141.549C970.073 142.909 962.111 144.453 961.7 143.221C961.29 141.989 968.586 138.448 972.666 137.088C976.747 135.729 976.38 136.843 976.791 138.075C977.201 139.306 978.233 140.189 974.153 141.549Z" fill="#B0DC7B"/>
<path d="M973.233 147.883C969.01 147.069 961.313 144.513 961.559 143.238C961.805 141.963 969.9 142.452 974.123 143.266C978.347 144.081 977.481 144.872 977.235 146.147C976.989 147.422 977.456 148.697 973.233 147.883Z" fill="#B0DC7B"/>
<path d="M947.961 146.034C951.904 144.316 959.696 142.068 960.215 143.258C960.734 144.448 953.782 148.626 949.84 150.345C945.897 152.063 946.163 150.921 945.644 149.73C945.125 148.54 944.018 147.753 947.961 146.034Z" fill="#B0DC7B"/>
<path d="M948.312 139.644C952.591 140.079 960.485 141.937 960.354 143.229C960.223 144.521 952.116 144.756 947.837 144.322C943.558 143.888 944.35 143.022 944.481 141.731C944.612 140.439 944.033 139.21 948.312 139.644Z" fill="#B0DC7B"/>
<path d="M976.434 169.377C972.354 170.737 964.392 172.281 963.982 171.049C963.571 169.818 970.867 166.276 974.948 164.917C979.028 163.557 978.661 164.671 979.072 165.903C979.482 167.135 980.514 168.017 976.434 169.377Z" fill="#B0DC7B"/>
<path d="M975.515 175.708C971.291 174.894 963.595 172.338 963.84 171.063C964.086 169.788 972.181 170.277 976.405 171.092C980.628 171.906 979.762 172.698 979.517 173.972C979.271 175.247 979.738 176.523 975.515 175.708Z" fill="#B0DC7B"/>
<path d="M950.242 173.863C954.185 172.144 961.978 169.896 962.496 171.086C963.015 172.277 956.064 176.455 952.121 178.173C948.178 179.892 948.444 178.749 947.925 177.559C947.406 176.369 946.3 175.581 950.242 173.863Z" fill="#B0DC7B"/>
<path d="M950.592 167.472C954.871 167.906 962.766 169.765 962.635 171.057C962.503 172.349 954.397 172.584 950.118 172.15C945.839 171.716 946.63 170.85 946.761 169.558C946.892 168.266 946.313 167.038 950.592 167.472Z" fill="#B0DC7B"/>
<path d="M976.89 183.518C972.81 184.878 964.848 186.422 964.437 185.19C964.027 183.958 971.323 180.417 975.404 179.057C979.484 177.697 979.117 178.812 979.528 180.043C979.938 181.275 980.971 182.158 976.89 183.518Z" fill="#B0DC7B"/>
<path d="M975.971 189.852C971.747 189.038 964.05 186.482 964.296 185.207C964.542 183.932 972.638 184.421 976.861 185.235C981.084 186.049 980.218 186.841 979.973 188.116C979.727 189.391 980.194 190.666 975.971 189.852Z" fill="#B0DC7B"/>
<path d="M950.698 188.004C954.641 186.286 962.433 184.037 962.952 185.228C963.47 186.418 956.519 190.596 952.577 192.314C948.634 194.033 948.899 192.89 948.381 191.7C947.862 190.51 946.755 189.723 950.698 188.004Z" fill="#B0DC7B"/>
<path d="M951.048 181.613C955.327 182.047 963.222 183.906 963.091 185.198C962.96 186.489 954.853 186.725 950.574 186.291C946.295 185.856 947.086 184.991 947.217 183.699C947.348 182.407 946.769 181.179 951.048 181.613Z" fill="#B0DC7B"/>
<path d="M974.61 183.518C970.53 184.878 962.568 186.422 962.157 185.19C961.747 183.959 969.043 180.417 973.123 179.058C977.204 177.698 976.837 178.812 977.248 180.044C977.658 181.276 978.69 182.159 974.61 183.518Z" fill="#B0DC7B"/>
<path d="M973.69 189.852C969.467 189.038 961.77 186.482 962.015 185.207C962.261 183.932 970.357 184.421 974.58 185.235C978.803 186.049 977.938 186.841 977.692 188.116C977.446 189.391 977.913 190.666 973.69 189.852Z" fill="#B0DC7B"/>
<path d="M954.496 74.1377C956.014 78.1615 957.87 86.0567 956.655 86.5152C955.44 86.9737 951.615 79.8219 950.097 75.7981C948.578 71.7743 949.706 72.0967 950.92 71.6382C952.135 71.1797 952.977 70.1139 954.496 74.1377Z" fill="#B0DC7B"/>
<path d="M960.861 74.808C960.213 79.0598 957.961 86.8511 956.677 86.6555C955.394 86.4599 955.564 78.3515 956.212 74.0996C956.86 69.8478 957.685 70.6816 958.969 70.8772C960.253 71.0728 961.509 70.5561 960.861 74.808Z" fill="#B0DC7B"/>
<path d="M950.698 188.004C954.641 186.286 962.433 184.037 962.952 185.228C963.47 186.418 956.519 190.596 952.577 192.314C948.634 194.033 948.899 192.89 948.381 191.7C947.862 190.51 946.755 189.723 950.698 188.004Z" fill="#B0DC7B"/>
<path d="M951.048 181.613C955.327 182.047 963.222 183.906 963.091 185.198C962.96 186.489 954.853 186.725 950.574 186.291C946.295 185.856 947.086 184.991 947.217 183.699C947.348 182.407 946.769 181.179 951.048 181.613Z" fill="#B0DC7B"/>
<path d="M946.246 217.415C950.441 216.466 958.516 215.717 958.803 216.984C959.09 218.25 951.479 221.052 947.284 222.001C943.089 222.951 943.564 221.878 943.278 220.612C942.991 219.346 942.051 218.365 946.246 217.415Z" fill="#B0DC7B"/>
<path d="M947.788 211.203C951.91 212.431 959.316 215.736 958.946 216.98C958.575 218.225 950.568 216.938 946.446 215.71C942.324 214.482 943.263 213.779 943.634 212.535C944.005 211.291 943.666 209.975 947.788 211.203Z" fill="#B0DC7B"/>
<path d="M972.743 203.853C968.48 204.424 960.37 204.45 960.197 203.163C960.025 201.876 967.855 199.764 972.118 199.193C976.381 198.621 975.812 199.647 975.985 200.934C976.157 202.221 977.006 203.281 972.743 203.853Z" fill="#B0DC7B"/>
<path d="M970.654 209.902C966.658 208.311 959.576 204.359 960.056 203.153C960.537 201.946 968.397 203.943 972.393 205.534C976.389 207.125 975.39 207.74 974.91 208.947C974.43 210.153 974.65 211.493 970.654 209.902Z" fill="#B0DC7B"/>
<path d="M956.334 77.0806L963.186 176.933L952.701 259.223" stroke="#B0DC7B" stroke-width="2.89698"/>
<path d="M822.316 103.34C818.374 101.622 810.581 99.3735 810.062 100.564C809.544 101.754 816.495 105.932 820.438 107.65C824.38 109.369 824.115 108.226 824.634 107.036C825.152 105.846 826.259 105.058 822.316 103.34Z" fill="#B0DC7B"/>
<path d="M821.965 96.9506C817.686 97.3847 809.792 99.2436 809.923 100.535C810.054 101.827 818.161 102.063 822.44 101.628C826.719 101.194 825.927 100.329 825.796 99.0368C825.665 97.745 826.244 96.5164 821.965 96.9506Z" fill="#B0DC7B"/>
<path d="M797.036 84.7127C801.116 86.0726 809.078 87.6166 809.489 86.3848C809.899 85.153 802.603 81.6119 798.523 80.252C794.442 78.8921 794.809 80.0064 794.398 81.2382C793.988 82.47 792.956 83.3529 797.036 84.7127Z" fill="#B0DC7B"/>
<path d="M797.956 91.0464C802.179 90.2322 809.876 87.6763 809.631 86.4014C809.385 85.1265 801.289 85.6153 797.066 86.4295C792.843 87.2437 793.708 88.0354 793.954 89.3103C794.2 90.5853 793.733 91.8606 797.956 91.0464Z" fill="#B0DC7B"/>
<path d="M794.755 112.541C798.836 113.901 806.797 115.445 807.208 114.213C807.619 112.982 800.322 109.44 796.242 108.081C792.162 106.721 792.528 107.835 792.118 109.067C791.707 110.299 790.675 111.181 794.755 112.541Z" fill="#B0DC7B"/>
<path d="M820.947 117.027C817.004 115.309 809.212 113.061 808.693 114.251C808.174 115.441 815.126 119.619 819.068 121.338C823.011 123.056 822.746 121.914 823.264 120.723C823.783 119.533 824.89 118.746 820.947 117.027Z" fill="#B0DC7B"/>
<path d="M820.597 110.636C816.318 111.07 808.424 112.929 808.555 114.22C808.686 115.512 816.793 115.748 821.072 115.314C825.351 114.879 824.559 114.014 824.428 112.722C824.297 111.43 824.876 110.201 820.597 110.636Z" fill="#B0DC7B"/>
<path d="M794.299 126.683C798.38 128.043 806.341 129.587 806.752 128.355C807.163 127.124 799.866 123.583 795.786 122.223C791.706 120.863 792.072 121.977 791.662 123.209C791.251 124.441 790.219 125.324 794.299 126.683Z" fill="#B0DC7B"/>
<path d="M795.219 133.017C799.443 132.203 807.139 129.647 806.894 128.372C806.648 127.097 798.552 127.586 794.329 128.4C790.106 129.214 790.972 130.006 791.217 131.281C791.463 132.556 790.996 133.831 795.219 133.017Z" fill="#B0DC7B"/>
<path d="M794.299 126.683C798.38 128.043 806.341 129.587 806.752 128.355C807.163 127.124 799.866 123.583 795.786 122.223C791.706 120.863 792.072 121.977 791.662 123.209C791.251 124.441 790.219 125.324 794.299 126.683Z" fill="#B0DC7B"/>
<path d="M795.219 133.017C799.443 132.203 807.139 129.647 806.894 128.372C806.648 127.097 798.552 127.586 794.329 128.4C790.106 129.214 790.972 130.006 791.217 131.281C791.463 132.556 790.996 133.831 795.219 133.017Z" fill="#B0DC7B"/>
<path d="M792.018 154.967C796.098 156.327 804.06 157.871 804.471 156.639C804.881 155.407 797.585 151.866 793.505 150.506C789.424 149.146 789.791 150.26 789.38 151.492C788.97 152.724 787.938 153.607 792.018 154.967Z" fill="#B0DC7B"/>
<path d="M792.938 161.3C797.161 160.486 804.858 157.93 804.612 156.655C804.367 155.38 796.271 155.869 792.048 156.683C787.825 157.498 788.69 158.289 788.936 159.564C789.182 160.839 788.715 162.114 792.938 161.3Z" fill="#B0DC7B"/>
<path d="M818.21 159.452C814.268 157.733 806.475 155.485 805.956 156.676C805.438 157.866 812.389 162.044 816.332 163.762C820.274 165.481 820.009 164.338 820.528 163.148C821.046 161.958 822.153 161.17 818.21 159.452Z" fill="#B0DC7B"/>
<path d="M792.931 140.826C797.011 142.185 804.973 143.729 805.383 142.498C805.794 141.266 798.498 137.725 794.417 136.365C790.337 135.005 790.703 136.119 790.293 137.351C789.882 138.583 788.85 139.466 792.931 140.826Z" fill="#B0DC7B"/>
<path d="M793.85 147.159C798.073 146.345 805.77 143.789 805.524 142.514C805.279 141.239 797.183 141.728 792.96 142.542C788.737 143.356 789.602 144.148 789.848 145.423C790.094 146.698 789.627 147.973 793.85 147.159Z" fill="#B0DC7B"/>
<path d="M819.123 145.31C815.18 143.591 807.388 141.343 806.869 142.533C806.35 143.724 813.302 147.902 817.244 149.62C821.187 151.338 820.921 150.196 821.44 149.006C821.959 147.815 823.066 147.028 819.123 145.31Z" fill="#B0DC7B"/>
<path d="M818.772 138.919C814.493 139.354 806.598 141.212 806.73 142.504C806.861 143.796 814.967 144.031 819.246 143.597C823.526 143.163 822.734 142.297 822.603 141.006C822.472 139.714 823.051 138.485 818.772 138.919Z" fill="#B0DC7B"/>
<path d="M790.65 168.653C794.731 170.012 802.693 171.556 803.103 170.325C803.514 169.093 796.217 165.552 792.137 164.192C788.057 162.832 788.423 163.946 788.013 165.178C787.602 166.41 786.57 167.293 790.65 168.653Z" fill="#B0DC7B"/>
<path d="M791.569 174.986C795.793 174.172 803.49 171.616 803.244 170.341C802.998 169.066 794.903 169.555 790.679 170.369C786.456 171.184 787.322 171.975 787.567 173.25C787.813 174.525 787.346 175.801 791.569 174.986Z" fill="#B0DC7B"/>
<path d="M816.842 173.138C812.899 171.419 805.107 169.171 804.588 170.362C804.069 171.552 811.021 175.73 814.963 177.448C818.906 179.167 818.641 178.024 819.159 176.834C819.678 175.644 820.785 174.856 816.842 173.138Z" fill="#B0DC7B"/>
<path d="M816.491 166.748C812.212 167.182 804.318 169.041 804.449 170.332C804.58 171.624 812.687 171.86 816.966 171.425C821.245 170.991 820.453 170.125 820.322 168.834C820.191 167.542 820.77 166.313 816.491 166.748Z" fill="#B0DC7B"/>
<path d="M790.193 182.794C794.274 184.154 802.235 185.698 802.646 184.466C803.057 183.234 795.76 179.693 791.68 178.333C787.6 176.973 787.966 178.087 787.556 179.319C787.145 180.551 786.113 181.434 790.193 182.794Z" fill="#B0DC7B"/>
<path d="M791.113 189.127C795.337 188.313 803.033 185.757 802.788 184.482C802.542 183.208 794.446 183.696 790.223 184.511C786 185.325 786.866 186.116 787.111 187.391C787.357 188.666 786.89 189.942 791.113 189.127Z" fill="#B0DC7B"/>
<path d="M816.386 187.28C812.443 185.562 804.651 183.314 804.132 184.504C803.613 185.694 810.565 189.872 814.507 191.591C818.45 193.309 818.185 192.167 818.703 190.976C819.222 189.786 820.329 188.999 816.386 187.28Z" fill="#B0DC7B"/>
<path d="M816.036 180.89C811.757 181.324 803.862 183.183 803.993 184.474C804.124 185.766 812.231 186.002 816.51 185.567C820.789 185.133 819.998 184.267 819.867 182.976C819.736 181.684 820.315 180.455 816.036 180.89Z" fill="#B0DC7B"/>
<path d="M792.474 182.794C796.554 184.154 804.516 185.698 804.927 184.466C805.337 183.234 798.041 179.693 793.961 178.334C789.88 176.974 790.247 178.088 789.836 179.32C789.426 180.552 788.394 181.434 792.474 182.794Z" fill="#B0DC7B"/>
<path d="M793.394 189.128C797.617 188.314 805.314 185.758 805.068 184.483C804.823 183.208 796.727 183.697 792.504 184.511C788.281 185.325 789.146 186.117 789.392 187.392C789.638 188.667 789.171 189.942 793.394 189.128Z" fill="#B0DC7B"/>
<path d="M812.588 73.4141C811.07 77.4379 809.215 85.3332 810.429 85.7917C811.644 86.2502 815.469 79.0984 816.987 75.0745C818.506 71.0506 817.378 71.3731 816.164 70.9146C814.949 70.4561 814.107 69.3902 812.588 73.4141Z" fill="#B0DC7B"/>
<path d="M806.223 74.0834C806.871 78.3352 809.123 86.1265 810.407 85.9309C811.69 85.7353 811.52 77.6269 810.872 73.375C810.224 69.1232 809.399 69.957 808.115 70.1526C806.831 70.3482 805.575 69.8315 806.223 74.0834Z" fill="#B0DC7B"/>
<path d="M816.386 187.28C812.443 185.562 804.651 183.314 804.132 184.504C803.613 185.694 810.565 189.872 814.507 191.591C818.45 193.309 818.185 192.167 818.703 190.976C819.222 189.786 820.329 188.999 816.386 187.28Z" fill="#B0DC7B"/>
<path d="M816.036 180.89C811.757 181.324 803.862 183.183 803.993 184.474C804.124 185.766 812.231 186.002 816.51 185.567C820.789 185.133 819.998 184.267 819.867 182.976C819.736 181.684 820.315 180.455 816.036 180.89Z" fill="#B0DC7B"/>
<path d="M820.838 216.691C816.643 215.742 808.568 214.993 808.281 216.26C807.994 217.526 815.605 220.328 819.8 221.277C823.995 222.227 823.52 221.154 823.806 219.888C824.093 218.621 825.033 217.641 820.838 216.691Z" fill="#B0DC7B"/>
<path d="M819.296 210.479C815.174 211.707 807.768 215.012 808.139 216.256C808.509 217.501 816.517 216.214 820.639 214.986C824.761 213.758 823.821 213.055 823.45 211.811C823.08 210.567 823.418 209.251 819.296 210.479Z" fill="#B0DC7B"/>
<path d="M794.341 203.128C798.604 203.7 806.714 203.725 806.887 202.438C807.059 201.151 799.229 199.039 794.966 198.468C790.703 197.896 791.272 198.922 791.099 200.209C790.927 201.496 790.078 202.557 794.341 203.128Z" fill="#B0DC7B"/>
<path d="M796.431 209.178C800.427 207.587 807.509 203.635 807.028 202.429C806.548 201.222 798.687 203.219 794.691 204.81C790.696 206.401 791.694 207.016 792.174 208.222C792.655 209.429 792.435 210.769 796.431 209.178Z" fill="#B0DC7B"/>
<path d="M810.75 76.3564L803.898 176.209L814.383 258.499" stroke="#B0DC7B" stroke-width="2.89698"/>
<path d="M894.506 45.4258L885.456 155.422L892.119 247.06" stroke="#B0DC7B" stroke-width="1.44849"/>
<path d="M909.256 54.1896C908.704 64.7694 901.246 73.0511 892.6 72.6874C883.953 72.3237 877.391 63.4522 877.943 52.8724" stroke="#B0DC7B" stroke-width="1.44849"/>
<path d="M907.626 81.0002C907.074 91.5799 899.617 99.8617 890.97 99.4979C882.323 99.1342 875.761 90.2627 876.313 79.683" stroke="#B0DC7B" stroke-width="1.44849"/>
<path d="M905.114 106.977C904.562 117.557 897.104 125.839 888.457 125.475C879.81 125.111 873.248 116.24 873.801 105.66" stroke="#B0DC7B" stroke-width="1.44849"/>
<path d="M902.72 135.656C902.168 146.236 894.71 154.517 886.063 154.154C877.416 153.79 870.854 144.919 871.407 134.339" stroke="#B0DC7B" stroke-width="1.44849"/>
<path d="M902.181 161.776C903.02 172.278 896.708 181.873 888.085 183.207C879.461 184.541 871.79 177.109 870.951 166.607" stroke="#B0DC7B" stroke-width="1.44849"/>
<path d="M903.878 190.367C904.716 200.869 898.405 210.463 889.781 211.797C881.158 213.131 873.487 205.7 872.648 195.198" stroke="#B0DC7B" stroke-width="1.44849"/>
<path d="M899.131 40.953C898.912 43.9736 896.778 46.0189 894.632 45.8633C892.485 45.7076 890.668 43.3757 890.887 40.3551C891.106 37.3345 893.241 35.2891 895.387 35.4448C897.534 35.6005 899.351 37.9324 899.131 40.953Z" fill="#B0DC7B" stroke="#B0DC7B" stroke-width="1.44849"/>
<path d="M881.901 48.9359C881.682 51.9565 879.548 54.0018 877.401 53.8462C875.254 53.6905 873.438 51.3586 873.657 48.338C873.876 45.3174 876.01 43.272 878.157 43.4277C880.303 43.5834 882.12 45.9153 881.901 48.9359Z" fill="#B0DC7B" stroke="#B0DC7B" stroke-width="1.44849"/>
<path d="M913.578 49.6942C913.359 52.7148 911.225 54.7602 909.078 54.6045C906.932 54.4488 905.115 52.1169 905.334 49.0963C905.553 46.0757 907.687 44.0303 909.834 44.186C911.981 44.3417 913.797 46.6736 913.578 49.6942Z" fill="#B0DC7B" stroke="#B0DC7B" stroke-width="1.44849"/>
<path d="M880.639 75.0037C880.42 78.0243 878.286 80.0697 876.139 79.914C873.992 79.7584 872.176 77.4265 872.395 74.4059C872.614 71.3853 874.748 69.3399 876.895 69.4956C879.041 69.6512 880.858 71.9831 880.639 75.0037Z" fill="#B0DC7B" stroke="#B0DC7B" stroke-width="1.44849"/>
<path d="M912.344 75.3797C912.125 78.4003 909.991 80.4457 907.844 80.29C905.697 80.1343 903.881 77.8024 904.1 74.7818C904.319 71.7612 906.453 69.7158 908.6 69.8715C910.746 70.0272 912.563 72.3591 912.344 75.3797Z" fill="#B0DC7B" stroke="#B0DC7B" stroke-width="1.44849"/>
<path d="M907.097 130.395C906.878 133.416 904.744 135.461 902.597 135.306C900.451 135.15 898.634 132.818 898.853 129.797C899.072 126.777 901.206 124.731 903.353 124.887C905.5 125.043 907.316 127.375 907.097 130.395Z" fill="#B0DC7B" stroke="#B0DC7B" stroke-width="1.44849"/>
<path d="M876.017 130.065C875.798 133.085 873.664 135.131 871.517 134.975C869.371 134.819 867.554 132.487 867.773 129.467C867.992 126.446 870.126 124.401 872.273 124.557C874.42 124.712 876.236 127.044 876.017 130.065Z" fill="#B0DC7B" stroke="#B0DC7B" stroke-width="1.44849"/>
<path d="M911.255 103.384C911.036 106.404 908.902 108.45 906.756 108.294C904.609 108.138 902.792 105.806 903.011 102.786C903.23 99.7651 905.365 97.7197 907.511 97.8754C909.658 98.0311 911.475 100.363 911.255 103.384Z" fill="#B0DC7B" stroke="#B0DC7B" stroke-width="1.44849"/>
<path d="M878.099 101.364C877.88 104.384 875.746 106.43 873.599 106.274C871.452 106.118 869.636 103.786 869.855 100.766C870.074 97.7451 872.208 95.6997 874.354 95.8554C876.501 96.0111 878.318 98.343 878.099 101.364Z" fill="#B0DC7B" stroke="#B0DC7B" stroke-width="1.44849"/>
<path d="M875.561 162.346C875.342 165.367 873.208 167.412 871.061 167.257C868.915 167.101 867.098 164.769 867.317 161.749C867.536 158.728 869.67 156.683 871.817 156.838C873.964 156.994 875.78 159.326 875.561 162.346Z" fill="#B0DC7B" stroke="#B0DC7B" stroke-width="1.44849"/>
<path d="M907.342 157.342C907.123 160.362 904.989 162.408 902.843 162.252C900.696 162.096 898.879 159.764 899.098 156.744C899.317 153.723 901.451 151.678 903.598 151.833C905.745 151.989 907.561 154.321 907.342 157.342Z" fill="#B0DC7B" stroke="#B0DC7B" stroke-width="1.44849"/>
<path d="M877.028 189.766C876.809 192.787 874.675 194.832 872.529 194.676C870.382 194.521 868.565 192.189 868.784 189.168C869.003 186.147 871.137 184.102 873.284 184.258C875.431 184.413 877.247 186.745 877.028 189.766Z" fill="#B0DC7B" stroke="#B0DC7B" stroke-width="1.44849"/>
<path d="M909.352 185.955C909.133 188.976 906.999 191.021 904.852 190.865C902.705 190.71 900.889 188.378 901.108 185.357C901.327 182.336 903.461 180.291 905.607 180.447C907.754 180.602 909.571 182.934 909.352 185.955Z" fill="#B0DC7B" stroke="#B0DC7B" stroke-width="1.44849"/>
<path d="M642.368 66.4038C585.12 213.393 630.349 247.641 660.12 246.391" stroke="#B0DC7B" stroke-width="2.89698"/>
<path d="M615.446 169.188C611.112 121.858 596.588 108.215 589.868 107.31" stroke="#B0DC7B" stroke-width="2.89698"/>
<path d="M663.518 150.042C621.206 171.689 613.951 190.248 615.613 196.822" stroke="#B0DC7B" stroke-width="2.89698"/>
<g style="mix-blend-mode:overlay">
<g style="mix-blend-mode:exclusion">
<circle r="13.841" transform="matrix(0.714505 -0.69963 0.699631 0.714504 633.105 55.7386)" fill="#FFEC43"/>
</g>
<g style="mix-blend-mode:exclusion">
<circle r="13.841" transform="matrix(0.714506 -0.69963 0.699632 0.714504 648.478 53.1942)" fill="#FFEC43"/>
</g>
<g style="mix-blend-mode:exclusion">
<circle r="13.841" transform="matrix(0.714506 -0.69963 0.699632 0.714504 657.437 68.7181)" fill="#FFEC43"/>
</g>
<g style="mix-blend-mode:exclusion">
<circle r="13.841" transform="matrix(0.714506 -0.69963 0.699632 0.714504 644.976 80.366)" fill="#FFEC43"/>
</g>
<g style="mix-blend-mode:exclusion">
<circle r="13.841" transform="matrix(0.714506 -0.699629 0.699632 0.714503 630.748 74.5394)" fill="#FFEC43"/>
</g>
</g>
<g style="mix-blend-mode:overlay">
<g style="mix-blend-mode:exclusion">
<circle r="9.27314" transform="matrix(0.71451 -0.699626 0.699636 0.7145 582.413 99.8601)" fill="#FFEC43"/>
</g>
<g style="mix-blend-mode:exclusion">
<circle r="9.27314" transform="matrix(0.714503 -0.699632 0.699629 0.714506 592.713 98.156)" fill="#FFEC43"/>
</g>
<g style="mix-blend-mode:exclusion">
<circle r="9.27314" transform="matrix(0.714504 -0.699632 0.69963 0.714505 598.715 108.556)" fill="#FFEC43"/>
</g>
<g style="mix-blend-mode:exclusion">
<circle r="9.27314" transform="matrix(0.714504 -0.699632 0.69963 0.714505 590.366 116.36)" fill="#FFEC43"/>
</g>
<g style="mix-blend-mode:exclusion">
<circle r="9.27314" transform="matrix(0.714503 -0.699632 0.699629 0.714506 580.834 112.457)" fill="#FFEC43"/>
</g>
</g>
<g style="mix-blend-mode:overlay">
<g style="mix-blend-mode:exclusion">
<circle cx="656.286" cy="144.039" r="9.27314" transform="rotate(-44.3974 656.286 144.039)" fill="#FFEC43"/>
</g>
<g style="mix-blend-mode:exclusion">
<circle cx="666.586" cy="142.335" r="9.27314" transform="rotate(-44.3974 666.586 142.335)" fill="#FFEC43"/>
</g>
<g style="mix-blend-mode:exclusion">
<circle r="9.27314" transform="matrix(0.714503 -0.699632 0.699629 0.714506 672.588 152.736)" fill="#FFEC43"/>
</g>
<g style="mix-blend-mode:exclusion">
<circle cx="664.239" cy="160.539" r="9.27314" transform="rotate(-44.3974 664.239 160.539)" fill="#FFEC43"/>
</g>
<g style="mix-blend-mode:exclusion">
<circle r="9.27314" transform="matrix(0.714503 -0.699632 0.699629 0.714506 654.707 156.635)" fill="#FFEC43"/>
</g>
</g>
<path d="M1248.99 102.907C1244.95 101.146 1236.96 98.8422 1236.43 100.062C1235.9 101.282 1243.02 105.564 1247.06 107.325C1251.1 109.086 1250.83 107.915 1251.36 106.695C1251.9 105.476 1253.03 104.669 1248.99 102.907Z" fill="#B0DC7B"/>
<path d="M1248.63 96.358C1244.24 96.803 1236.15 98.7082 1236.29 100.032C1236.42 101.356 1244.73 101.597 1249.12 101.152C1253.5 100.707 1252.69 99.82 1252.56 98.4961C1252.42 97.1722 1253.02 95.9131 1248.63 96.358Z" fill="#B0DC7B"/>
<path d="M1223.08 83.8166C1227.26 85.2103 1235.42 86.7927 1235.84 85.5302C1236.26 84.2678 1228.79 80.6386 1224.61 79.245C1220.42 77.8513 1220.8 78.9933 1220.38 80.2557C1219.96 81.5182 1218.9 82.4229 1223.08 83.8166Z" fill="#B0DC7B"/>
<path d="M1224.02 90.3081C1228.35 89.4737 1236.24 86.8543 1235.99 85.5476C1235.74 84.241 1227.44 84.7419 1223.11 85.5764C1218.78 86.4108 1219.67 87.2223 1219.92 88.5289C1220.17 89.8355 1219.7 91.1426 1224.02 90.3081Z" fill="#B0DC7B"/>
<path d="M1220.74 112.336C1224.93 113.73 1233.09 115.312 1233.51 114.05C1233.93 112.788 1226.45 109.158 1222.27 107.765C1218.09 106.371 1218.46 107.513 1218.04 108.775C1217.62 110.038 1216.56 110.943 1220.74 112.336Z" fill="#B0DC7B"/>
<path d="M1247.59 116.934C1243.55 115.173 1235.56 112.868 1235.03 114.088C1234.5 115.308 1241.62 119.59 1245.66 121.351C1249.7 123.113 1249.43 121.942 1249.96 120.722C1250.49 119.502 1251.63 118.695 1247.59 116.934Z" fill="#B0DC7B"/>
<path d="M1247.23 110.384C1242.84 110.829 1234.75 112.734 1234.89 114.058C1235.02 115.382 1243.33 115.623 1247.71 115.178C1252.1 114.733 1251.29 113.846 1251.15 112.522C1251.02 111.198 1251.61 109.939 1247.23 110.384Z" fill="#B0DC7B"/>
<path d="M1220.28 126.829C1224.46 128.222 1232.62 129.805 1233.04 128.542C1233.46 127.28 1225.98 123.651 1221.8 122.257C1217.62 120.864 1217.99 122.006 1217.57 123.268C1217.15 124.53 1216.09 125.435 1220.28 126.829Z" fill="#B0DC7B"/>
<path d="M1221.22 133.32C1225.55 132.486 1233.44 129.866 1233.18 128.56C1232.93 127.253 1224.63 127.754 1220.31 128.589C1215.98 129.423 1216.87 130.234 1217.12 131.541C1217.37 132.848 1216.89 134.155 1221.22 133.32Z" fill="#B0DC7B"/>
<path d="M1220.28 126.829C1224.46 128.222 1232.62 129.805 1233.04 128.542C1233.46 127.28 1225.98 123.651 1221.8 122.257C1217.62 120.864 1217.99 122.006 1217.57 123.268C1217.15 124.53 1216.09 125.435 1220.28 126.829Z" fill="#B0DC7B"/>
<path d="M1221.22 133.32C1225.55 132.486 1233.44 129.866 1233.18 128.56C1232.93 127.253 1224.63 127.754 1220.31 128.589C1215.98 129.423 1216.87 130.234 1217.12 131.541C1217.37 132.848 1216.89 134.155 1221.22 133.32Z" fill="#B0DC7B"/>
<path d="M1217.94 155.817C1222.12 157.21 1230.28 158.793 1230.7 157.53C1231.12 156.268 1223.64 152.639 1219.46 151.245C1215.28 149.851 1215.66 150.993 1215.23 152.256C1214.81 153.518 1213.76 154.423 1217.94 155.817Z" fill="#B0DC7B"/>
<path d="M1218.88 162.308C1223.21 161.474 1231.1 158.854 1230.85 157.548C1230.59 156.241 1222.3 156.742 1217.97 157.576C1213.64 158.411 1214.53 159.222 1214.78 160.529C1215.03 161.836 1214.55 163.143 1218.88 162.308Z" fill="#B0DC7B"/>
<path d="M1244.78 160.414C1240.74 158.653 1232.76 156.348 1232.22 157.568C1231.69 158.788 1238.82 163.07 1242.86 164.831C1246.9 166.593 1246.63 165.422 1247.16 164.202C1247.69 162.982 1248.82 162.175 1244.78 160.414Z" fill="#B0DC7B"/>
<path d="M1218.87 141.324C1223.06 142.718 1231.22 144.3 1231.64 143.038C1232.06 141.775 1224.58 138.146 1220.4 136.752C1216.22 135.359 1216.59 136.501 1216.17 137.763C1215.75 139.026 1214.69 139.93 1218.87 141.324Z" fill="#B0DC7B"/>
<path d="M1219.82 147.815C1224.14 146.981 1232.03 144.361 1231.78 143.055C1231.53 141.748 1223.23 142.249 1218.9 143.083C1214.58 143.918 1215.46 144.729 1215.71 146.036C1215.97 147.342 1215.49 148.649 1219.82 147.815Z" fill="#B0DC7B"/>
<path d="M1245.72 145.922C1241.68 144.16 1233.69 141.856 1233.16 143.076C1232.63 144.296 1239.75 148.578 1243.79 150.339C1247.83 152.1 1247.56 150.929 1248.09 149.71C1248.62 148.49 1249.76 147.683 1245.72 145.922Z" fill="#B0DC7B"/>
<path d="M1245.36 139.372C1240.97 139.817 1232.88 141.722 1233.02 143.046C1233.15 144.37 1241.46 144.611 1245.85 144.166C1250.23 143.721 1249.42 142.834 1249.29 141.51C1249.15 140.186 1249.74 138.927 1245.36 139.372Z" fill="#B0DC7B"/>
<path d="M1216.54 169.844C1220.72 171.237 1228.88 172.82 1229.3 171.557C1229.72 170.295 1222.24 166.666 1218.06 165.272C1213.88 163.878 1214.25 165.02 1213.83 166.283C1213.41 167.545 1212.35 168.45 1216.54 169.844Z" fill="#B0DC7B"/>
<path d="M1217.48 176.335C1221.81 175.5 1229.69 172.881 1229.44 171.574C1229.19 170.268 1220.89 170.769 1216.57 171.603C1212.24 172.438 1213.12 173.249 1213.38 174.556C1213.63 175.862 1213.15 177.169 1217.48 176.335Z" fill="#B0DC7B"/>
<path d="M1243.38 174.441C1239.34 172.68 1231.35 170.376 1230.82 171.596C1230.29 172.816 1237.41 177.097 1241.45 178.859C1245.49 180.62 1245.22 179.449 1245.75 178.229C1246.29 177.009 1247.42 176.202 1243.38 174.441Z" fill="#B0DC7B"/>
<path d="M1243.02 167.891C1238.63 168.336 1230.54 170.241 1230.68 171.565C1230.81 172.889 1239.12 173.13 1243.51 172.685C1247.89 172.241 1247.08 171.353 1246.95 170.029C1246.81 168.705 1247.41 167.446 1243.02 167.891Z" fill="#B0DC7B"/>
<path d="M1216.07 184.337C1220.25 185.73 1228.41 187.313 1228.83 186.05C1229.25 184.788 1221.77 181.159 1217.59 179.765C1213.41 178.371 1213.79 179.513 1213.37 180.776C1212.94 182.038 1211.89 182.943 1216.07 184.337Z" fill="#B0DC7B"/>
<path d="M1217.01 190.828C1221.34 189.994 1229.23 187.374 1228.98 186.068C1228.72 184.761 1220.43 185.262 1216.1 186.096C1211.77 186.931 1212.66 187.742 1212.91 189.049C1213.16 190.356 1212.68 191.663 1217.01 190.828Z" fill="#B0DC7B"/>
<path d="M1242.91 188.934C1238.87 187.173 1230.89 184.869 1230.35 186.089C1229.82 187.309 1236.95 191.591 1240.99 193.352C1245.03 195.113 1244.76 193.942 1245.29 192.722C1245.82 191.502 1246.95 190.696 1242.91 188.934Z" fill="#B0DC7B"/>
<path d="M1242.55 182.385C1238.17 182.83 1230.08 184.735 1230.21 186.059C1230.35 187.383 1238.65 187.624 1243.04 187.179C1247.43 186.734 1246.61 185.847 1246.48 184.523C1246.35 183.199 1246.94 181.94 1242.55 182.385Z" fill="#B0DC7B"/>
<path d="M1218.41 184.337C1222.59 185.73 1230.75 187.313 1231.17 186.05C1231.59 184.788 1224.11 181.159 1219.93 179.765C1215.75 178.371 1216.12 179.513 1215.7 180.776C1215.28 182.038 1214.22 182.943 1218.41 184.337Z" fill="#B0DC7B"/>
<path d="M1219.35 190.829C1223.68 189.994 1231.56 187.374 1231.31 186.068C1231.06 184.761 1222.76 185.262 1218.44 186.097C1214.11 186.931 1214.99 187.743 1215.25 189.049C1215.5 190.356 1215.02 191.663 1219.35 190.829Z" fill="#B0DC7B"/>
<path d="M1239.02 72.2354C1237.46 76.3593 1235.56 84.4508 1236.81 84.9207C1238.05 85.3906 1241.97 78.061 1243.53 73.9371C1245.08 69.8132 1243.93 70.1437 1242.68 69.6737C1241.44 69.2038 1240.58 68.1115 1239.02 72.2354Z" fill="#B0DC7B"/>
<path d="M1232.5 72.923C1233.16 77.2806 1235.47 85.2657 1236.78 85.0652C1238.1 84.8647 1237.92 76.5547 1237.26 72.197C1236.6 67.8394 1235.75 68.6939 1234.43 68.8944C1233.12 69.0949 1231.83 68.5654 1232.5 72.923Z" fill="#B0DC7B"/>
<path d="M1242.91 188.934C1238.87 187.173 1230.89 184.869 1230.35 186.089C1229.82 187.309 1236.95 191.591 1240.99 193.352C1245.03 195.113 1244.76 193.942 1245.29 192.722C1245.82 191.502 1246.95 190.696 1242.91 188.934Z" fill="#B0DC7B"/>
<path d="M1242.55 182.385C1238.17 182.83 1230.08 184.735 1230.21 186.059C1230.35 187.383 1238.65 187.624 1243.04 187.179C1247.43 186.734 1246.61 185.847 1246.48 184.523C1246.35 183.199 1246.94 181.94 1242.55 182.385Z" fill="#B0DC7B"/>
<path d="M1247.47 219.077C1243.18 218.104 1234.9 217.337 1234.61 218.635C1234.31 219.933 1242.11 222.804 1246.41 223.777C1250.71 224.75 1250.22 223.651 1250.52 222.353C1250.81 221.055 1251.77 220.05 1247.47 219.077Z" fill="#B0DC7B"/>
<path d="M1245.89 212.711C1241.67 213.97 1234.08 217.357 1234.46 218.632C1234.84 219.907 1243.05 218.588 1247.27 217.329C1251.5 216.071 1250.53 215.351 1250.15 214.076C1249.77 212.8 1250.12 211.452 1245.89 212.711Z" fill="#B0DC7B"/>
<path d="M1220.32 205.178C1224.69 205.763 1233 205.789 1233.18 204.47C1233.35 203.151 1225.33 200.987 1220.96 200.401C1216.59 199.816 1217.17 200.867 1217 202.186C1216.82 203.505 1215.95 204.592 1220.32 205.178Z" fill="#B0DC7B"/>
<path d="M1222.46 211.377C1226.56 209.747 1233.81 205.696 1233.32 204.46C1232.83 203.224 1224.77 205.27 1220.68 206.9C1216.58 208.531 1217.61 209.162 1218.1 210.398C1218.59 211.634 1218.37 213.008 1222.46 211.377Z" fill="#B0DC7B"/>
<path d="M1237.14 75.2515L1230.11 177.588L1240.86 261.924" stroke="#B0DC7B" stroke-width="2.96904"/>
<path d="M1374.49 102.165C1378.53 100.404 1386.51 98.0996 1387.05 99.3194C1387.58 100.539 1380.45 104.821 1376.41 106.582C1372.37 108.344 1372.64 107.173 1372.11 105.953C1371.58 104.733 1370.45 103.926 1374.49 102.165Z" fill="#B0DC7B"/>
<path d="M1374.85 95.6149C1379.23 96.0598 1387.32 97.965 1387.19 99.2889C1387.05 100.613 1378.75 100.854 1374.36 100.409C1369.97 99.9642 1370.79 99.0768 1370.92 97.7529C1371.05 96.4291 1370.46 95.1699 1374.85 95.6149Z" fill="#B0DC7B"/>
<path d="M1400.4 83.073C1396.21 84.4666 1388.05 86.0489 1387.63 84.7865C1387.21 83.5241 1394.69 79.8949 1398.87 78.5013C1403.05 77.1077 1402.68 78.2497 1403.1 79.5121C1403.52 80.7746 1404.58 81.6794 1400.4 83.073Z" fill="#B0DC7B"/>
<path d="M1399.45 89.5654C1395.13 88.731 1387.24 86.1115 1387.49 84.8049C1387.74 83.4982 1396.04 83.9992 1400.37 84.8337C1404.69 85.6681 1403.81 86.4796 1403.56 87.7862C1403.3 89.0929 1403.78 90.3999 1399.45 89.5654Z" fill="#B0DC7B"/>
<path d="M1402.73 111.594C1398.55 112.988 1390.39 114.57 1389.97 113.308C1389.55 112.045 1397.03 108.416 1401.21 107.022C1405.39 105.629 1405.02 106.771 1405.44 108.033C1405.86 109.296 1406.92 110.2 1402.73 111.594Z" fill="#B0DC7B"/>
<path d="M1375.89 116.191C1379.93 114.43 1387.92 112.126 1388.45 113.346C1388.98 114.565 1381.85 118.847 1377.81 120.609C1373.77 122.37 1374.05 121.199 1373.51 119.979C1372.98 118.759 1371.85 117.952 1375.89 116.191Z" fill="#B0DC7B"/>
<path d="M1376.25 109.642C1380.63 110.087 1388.72 111.992 1388.59 113.316C1388.46 114.64 1380.15 114.881 1375.76 114.436C1371.38 113.991 1372.19 113.104 1372.32 111.78C1372.46 110.456 1371.86 109.197 1376.25 109.642Z" fill="#B0DC7B"/>
<path d="M1403.2 126.087C1399.02 127.48 1390.86 129.063 1390.44 127.8C1390.02 126.538 1397.5 122.909 1401.68 121.515C1405.86 120.121 1405.48 121.263 1405.9 122.526C1406.33 123.788 1407.38 124.693 1403.2 126.087Z" fill="#B0DC7B"/>
<path d="M1402.26 132.579C1397.93 131.744 1390.04 129.125 1390.29 127.818C1390.55 126.511 1398.84 127.012 1403.17 127.847C1407.5 128.681 1406.61 129.493 1406.36 130.799C1406.11 132.106 1406.59 133.413 1402.26 132.579Z" fill="#B0DC7B"/>
<path d="M1403.2 126.087C1399.02 127.48 1390.86 129.063 1390.44 127.8C1390.02 126.538 1397.5 122.909 1401.68 121.515C1405.86 120.121 1405.48 121.263 1405.9 122.526C1406.33 123.788 1407.38 124.693 1403.2 126.087Z" fill="#B0DC7B"/>
<path d="M1402.26 132.579C1397.93 131.744 1390.04 129.125 1390.29 127.818C1390.55 126.511 1398.84 127.012 1403.17 127.847C1407.5 128.681 1406.61 129.493 1406.36 130.799C1406.11 132.106 1406.59 133.413 1402.26 132.579Z" fill="#B0DC7B"/>
<path d="M1405.54 155.075C1401.36 156.468 1393.2 158.051 1392.78 156.788C1392.36 155.526 1399.83 151.896 1404.02 150.503C1408.2 149.109 1407.82 150.251 1408.24 151.514C1408.66 152.776 1409.72 153.681 1405.54 155.075Z" fill="#B0DC7B"/>
<path d="M1404.6 161.566C1400.27 160.732 1392.38 158.112 1392.63 156.805C1392.88 155.499 1401.18 156 1405.51 156.834C1409.84 157.669 1408.95 158.48 1408.7 159.787C1408.45 161.093 1408.92 162.4 1404.6 161.566Z" fill="#B0DC7B"/>
<path d="M1378.69 159.671C1382.74 157.91 1390.72 155.606 1391.25 156.826C1391.79 158.045 1384.66 162.327 1380.62 164.089C1376.58 165.85 1376.85 164.679 1376.32 163.459C1375.79 162.239 1374.65 161.432 1378.69 159.671Z" fill="#B0DC7B"/>
<path d="M1404.6 140.581C1400.42 141.974 1392.26 143.557 1391.84 142.294C1391.42 141.032 1398.9 137.403 1403.08 136.009C1407.26 134.615 1406.89 135.757 1407.31 137.02C1407.73 138.282 1408.79 139.187 1404.6 140.581Z" fill="#B0DC7B"/>
<path d="M1403.66 147.072C1399.33 146.238 1391.44 143.618 1391.7 142.312C1391.95 141.005 1400.24 141.506 1404.57 142.341C1408.9 143.175 1408.01 143.986 1407.76 145.293C1407.51 146.6 1407.99 147.907 1403.66 147.072Z" fill="#B0DC7B"/>
<path d="M1377.76 145.179C1381.8 143.417 1389.79 141.113 1390.32 142.333C1390.85 143.553 1383.73 147.835 1379.69 149.596C1375.64 151.357 1375.92 150.186 1375.38 148.966C1374.85 147.747 1373.72 146.94 1377.76 145.179Z" fill="#B0DC7B"/>
<path d="M1378.12 138.629C1382.5 139.074 1390.59 140.979 1390.46 142.303C1390.33 143.627 1382.02 143.868 1377.63 143.423C1373.25 142.978 1374.06 142.091 1374.19 140.767C1374.33 139.443 1373.73 138.184 1378.12 138.629Z" fill="#B0DC7B"/>
<path d="M1406.94 169.101C1402.76 170.494 1394.6 172.077 1394.18 170.814C1393.76 169.552 1401.23 165.923 1405.42 164.529C1409.6 163.135 1409.22 164.278 1409.64 165.54C1410.06 166.802 1411.12 167.707 1406.94 169.101Z" fill="#B0DC7B"/>
<path d="M1406 175.593C1401.67 174.758 1393.78 172.139 1394.03 170.832C1394.29 169.525 1402.58 170.026 1406.91 170.861C1411.24 171.695 1410.35 172.507 1410.1 173.814C1409.85 175.12 1410.33 176.427 1406 175.593Z" fill="#B0DC7B"/>
<path d="M1380.1 173.699C1384.14 171.938 1392.12 169.634 1392.66 170.854C1393.19 172.073 1386.06 176.355 1382.02 178.117C1377.98 179.878 1378.25 178.707 1377.72 177.487C1377.19 176.267 1376.06 175.46 1380.1 173.699Z" fill="#B0DC7B"/>
<path d="M1380.46 167.149C1384.84 167.593 1392.93 169.499 1392.8 170.822C1392.66 172.146 1384.36 172.388 1379.97 171.943C1375.58 171.498 1376.4 170.611 1376.53 169.287C1376.66 167.963 1376.07 166.704 1380.46 167.149Z" fill="#B0DC7B"/>
<path d="M1407.41 183.594C1403.23 184.988 1395.07 186.57 1394.65 185.308C1394.22 184.046 1401.7 180.416 1405.88 179.023C1410.07 177.629 1409.69 178.771 1410.11 180.034C1410.53 181.296 1411.59 182.201 1407.41 183.594Z" fill="#B0DC7B"/>
<path d="M1406.47 190.086C1402.14 189.252 1394.25 186.632 1394.5 185.325C1394.75 184.019 1403.05 184.52 1407.38 185.354C1411.71 186.189 1410.82 187 1410.57 188.307C1410.32 189.613 1410.79 190.92 1406.47 190.086Z" fill="#B0DC7B"/>
<path d="M1380.56 188.193C1384.61 186.432 1392.59 184.127 1393.12 185.347C1393.66 186.567 1386.53 190.849 1382.49 192.61C1378.45 194.371 1378.72 193.2 1378.19 191.981C1377.66 190.761 1376.52 189.954 1380.56 188.193Z" fill="#B0DC7B"/>
<path d="M1380.92 181.643C1385.31 182.088 1393.4 183.993 1393.27 185.317C1393.13 186.641 1384.82 186.882 1380.44 186.437C1376.05 185.992 1376.86 185.105 1377 183.781C1377.13 182.457 1376.54 181.198 1380.92 181.643Z" fill="#B0DC7B"/>
<path d="M1405.07 183.594C1400.89 184.988 1392.73 186.57 1392.31 185.308C1391.89 184.045 1399.37 180.416 1403.55 179.022C1407.73 177.629 1407.35 178.771 1407.77 180.033C1408.19 181.296 1409.25 182.2 1405.07 183.594Z" fill="#B0DC7B"/>
<path d="M1404.13 190.087C1399.8 189.252 1391.91 186.633 1392.16 185.326C1392.42 184.019 1400.71 184.521 1405.04 185.355C1409.37 186.19 1408.48 187.001 1408.23 188.308C1407.98 189.614 1408.46 190.921 1404.13 190.087Z" fill="#B0DC7B"/>
<path d="M1384.46 71.4937C1386.01 75.6176 1387.92 83.7092 1386.67 84.1791C1385.43 84.649 1381.51 77.3193 1379.95 73.1954C1378.39 69.0715 1379.55 69.4019 1380.79 68.932C1382.04 68.4621 1382.9 67.3697 1384.46 71.4937Z" fill="#B0DC7B"/>
<path d="M1390.98 72.1808C1390.32 76.5384 1388.01 84.5234 1386.69 84.323C1385.38 84.1225 1385.55 75.8125 1386.22 71.4548C1386.88 67.0972 1387.73 67.9518 1389.04 68.1522C1390.36 68.3527 1391.64 67.8232 1390.98 72.1808Z" fill="#B0DC7B"/>
<path d="M1380.56 188.193C1384.61 186.432 1392.59 184.127 1393.12 185.347C1393.66 186.567 1386.53 190.849 1382.49 192.61C1378.45 194.371 1378.72 193.2 1378.19 191.981C1377.66 190.761 1376.52 189.954 1380.56 188.193Z" fill="#B0DC7B"/>
<path d="M1380.92 181.643C1385.31 182.088 1393.4 183.993 1393.27 185.317C1393.13 186.641 1384.82 186.882 1380.44 186.437C1376.05 185.992 1376.86 185.105 1377 183.781C1377.13 182.457 1376.54 181.198 1380.92 181.643Z" fill="#B0DC7B"/>
<path d="M1376 218.335C1380.3 217.362 1388.58 216.595 1388.87 217.892C1389.16 219.19 1381.36 222.062 1377.07 223.035C1372.77 224.008 1373.25 222.909 1372.96 221.611C1372.67 220.313 1371.7 219.308 1376 218.335Z" fill="#B0DC7B"/>
<path d="M1377.58 211.969C1381.81 213.227 1389.4 216.614 1389.02 217.889C1388.64 219.165 1380.43 217.846 1376.21 216.587C1371.98 215.329 1372.94 214.609 1373.32 213.334C1373.7 212.058 1373.36 210.71 1377.58 211.969Z" fill="#B0DC7B"/>
<path d="M1403.16 204.434C1398.79 205.02 1390.48 205.046 1390.3 203.727C1390.12 202.408 1398.15 200.244 1402.52 199.658C1406.89 199.073 1406.3 200.124 1406.48 201.443C1406.66 202.762 1407.53 203.849 1403.16 204.434Z" fill="#B0DC7B"/>
<path d="M1401.02 210.634C1396.92 209.004 1389.66 204.953 1390.16 203.717C1390.65 202.48 1398.7 204.527 1402.8 206.157C1406.89 207.787 1405.87 208.418 1405.38 209.655C1404.89 210.891 1405.11 212.265 1401.02 210.634Z" fill="#B0DC7B"/>
<path d="M1386.34 74.5088L1393.36 176.845L1382.62 261.181" stroke="#B0DC7B" stroke-width="2.96904"/>
<path d="M1300.5 42.8096L1309.78 155.542L1302.95 249.459" stroke="#B0DC7B" stroke-width="1.48452"/>
<path d="M1285.38 51.7913C1285.95 62.6342 1293.59 71.122 1302.45 70.7492C1311.32 70.3764 1318.04 61.2843 1317.48 50.4413" stroke="#B0DC7B" stroke-width="1.48452"/>
<path d="M1287.05 79.2683C1287.62 90.1113 1295.26 98.599 1304.13 98.2262C1312.99 97.8535 1319.71 88.7613 1319.15 77.9184" stroke="#B0DC7B" stroke-width="1.48452"/>
<path d="M1289.63 105.892C1290.2 116.735 1297.84 125.223 1306.7 124.85C1315.56 124.477 1322.29 115.385 1321.72 104.542" stroke="#B0DC7B" stroke-width="1.48452"/>
<path d="M1292.08 135.284C1292.65 146.127 1300.29 154.615 1309.15 154.242C1318.02 153.869 1324.74 144.777 1324.18 133.934" stroke="#B0DC7B" stroke-width="1.48452"/>
<path d="M1292.64 162.054C1291.78 172.817 1298.24 182.65 1307.08 184.017C1315.92 185.384 1323.78 177.768 1324.64 167.005" stroke="#B0DC7B" stroke-width="1.48452"/>
<path d="M1290.9 191.356C1290.04 202.119 1296.51 211.952 1305.34 213.319C1314.18 214.687 1322.04 207.07 1322.9 196.307" stroke="#B0DC7B" stroke-width="1.48452"/>
<path d="M1295.76 38.2256C1295.98 41.3213 1298.17 43.4176 1300.37 43.258C1302.57 43.0984 1304.43 40.7085 1304.21 37.6128C1303.98 34.5171 1301.8 32.4208 1299.6 32.5804C1297.4 32.7399 1295.54 35.1298 1295.76 38.2256Z" fill="#B0DC7B" stroke="#B0DC7B" stroke-width="1.48452"/>
<path d="M1313.42 46.4067C1313.64 49.5024 1315.83 51.5987 1318.03 51.4392C1320.23 51.2796 1322.09 48.8897 1321.87 45.794C1321.64 42.6982 1319.46 40.602 1317.26 40.7615C1315.06 40.9211 1313.2 43.311 1313.42 46.4067Z" fill="#B0DC7B" stroke="#B0DC7B" stroke-width="1.48452"/>
<path d="M1280.95 47.1841C1281.18 50.2798 1283.37 52.3761 1285.57 52.2165C1287.77 52.0569 1289.63 49.667 1289.4 46.5713C1289.18 43.4756 1286.99 41.3793 1284.79 41.5389C1282.59 41.6984 1280.73 44.0883 1280.95 47.1841Z" fill="#B0DC7B" stroke="#B0DC7B" stroke-width="1.48452"/>
<path d="M1314.71 73.1235C1314.94 76.2192 1317.13 78.3155 1319.33 78.156C1321.53 77.9964 1323.39 75.6065 1323.16 72.5108C1322.94 69.415 1320.75 67.3188 1318.55 67.4783C1316.35 67.6379 1314.49 70.0278 1314.71 73.1235Z" fill="#B0DC7B" stroke="#B0DC7B" stroke-width="1.48452"/>
<path d="M1282.22 73.5083C1282.44 76.604 1284.63 78.7003 1286.83 78.5407C1289.03 78.3812 1290.89 75.9912 1290.67 72.8955C1290.44 69.7998 1288.26 67.7035 1286.06 67.8631C1283.86 68.0226 1282 70.4125 1282.22 73.5083Z" fill="#B0DC7B" stroke="#B0DC7B" stroke-width="1.48452"/>
<path d="M1287.6 129.893C1287.82 132.988 1290.01 135.085 1292.21 134.925C1294.41 134.765 1296.27 132.376 1296.05 129.28C1295.82 126.184 1293.63 124.088 1291.43 124.247C1289.23 124.407 1287.37 126.797 1287.6 129.893Z" fill="#B0DC7B" stroke="#B0DC7B" stroke-width="1.48452"/>
<path d="M1319.45 129.554C1319.67 132.649 1321.86 134.746 1324.06 134.586C1326.26 134.427 1328.12 132.037 1327.9 128.941C1327.67 125.845 1325.49 123.749 1323.29 123.908C1321.09 124.068 1319.23 126.458 1319.45 129.554Z" fill="#B0DC7B" stroke="#B0DC7B" stroke-width="1.48452"/>
<path d="M1283.33 102.209C1283.56 105.305 1285.75 107.401 1287.95 107.241C1290.15 107.082 1292.01 104.692 1291.78 101.596C1291.56 98.5005 1289.37 96.4042 1287.17 96.5638C1284.97 96.7233 1283.11 99.1132 1283.33 102.209Z" fill="#B0DC7B" stroke="#B0DC7B" stroke-width="1.48452"/>
<path d="M1317.32 100.139C1317.54 103.234 1319.73 105.331 1321.93 105.171C1324.13 105.012 1325.99 102.622 1325.77 99.5259C1325.54 96.4302 1323.35 94.3339 1321.15 94.4935C1318.95 94.653 1317.09 97.0429 1317.32 100.139Z" fill="#B0DC7B" stroke="#B0DC7B" stroke-width="1.48452"/>
<path d="M1319.92 162.638C1320.14 165.734 1322.33 167.83 1324.53 167.671C1326.73 167.511 1328.59 165.121 1328.37 162.025C1328.14 158.93 1325.95 156.833 1323.75 156.993C1321.55 157.153 1319.69 159.542 1319.92 162.638Z" fill="#B0DC7B" stroke="#B0DC7B" stroke-width="1.48452"/>
<path d="M1287.35 157.509C1287.57 160.605 1289.76 162.701 1291.96 162.542C1294.16 162.382 1296.02 159.992 1295.79 156.896C1295.57 153.801 1293.38 151.704 1291.18 151.864C1288.98 152.024 1287.12 154.414 1287.35 157.509Z" fill="#B0DC7B" stroke="#B0DC7B" stroke-width="1.48452"/>
<path d="M1318.41 190.74C1318.64 193.836 1320.83 195.932 1323.03 195.773C1325.23 195.613 1327.09 193.223 1326.86 190.127C1326.64 187.032 1324.45 184.935 1322.25 185.095C1320.05 185.255 1318.19 187.644 1318.41 190.74Z" fill="#B0DC7B" stroke="#B0DC7B" stroke-width="1.48452"/>
<path d="M1285.29 186.834C1285.51 189.93 1287.7 192.026 1289.9 191.867C1292.1 191.707 1293.96 189.317 1293.74 186.222C1293.51 183.126 1291.32 181.03 1289.12 181.189C1286.92 181.349 1285.06 183.739 1285.29 186.834Z" fill="#B0DC7B" stroke="#B0DC7B" stroke-width="1.48452"/>
<path d="M1111.63 64.3091C1170.3 214.954 1123.95 250.054 1093.44 248.774" stroke="#B0DC7B" stroke-width="2.96904"/>
<path d="M1139.22 169.649C1143.67 121.143 1158.55 107.16 1165.44 106.232" stroke="#B0DC7B" stroke-width="2.96904"/>
<path d="M1089.96 150.028C1133.32 172.212 1140.76 191.233 1139.05 197.97" stroke="#B0DC7B" stroke-width="2.96904"/>
<g style="mix-blend-mode:overlay">
<g style="mix-blend-mode:exclusion">
<circle r="14.1853" transform="matrix(-0.714501 -0.699634 -0.699627 0.714508 1121.33 52.6363)" fill="#FFEC43"/>
</g>
<g style="mix-blend-mode:exclusion">
<circle r="14.1853" transform="matrix(-0.714506 -0.69963 -0.699632 0.714504 1105.57 50.0294)" fill="#FFEC43"/>
</g>
<g style="mix-blend-mode:exclusion">
<circle r="14.1853" transform="matrix(-0.714503 -0.699633 -0.699629 0.714507 1096.39 65.939)" fill="#FFEC43"/>
</g>
<g style="mix-blend-mode:exclusion">
<circle r="14.1853" transform="matrix(-0.714507 -0.699629 -0.699633 0.714503 1109.16 77.8765)" fill="#FFEC43"/>
</g>
<g style="mix-blend-mode:exclusion">
<circle r="14.1853" transform="matrix(-0.714506 -0.69963 -0.699632 0.714504 1123.74 71.9053)" fill="#FFEC43"/>
</g>
</g>
<g style="mix-blend-mode:overlay">
<g style="mix-blend-mode:exclusion">
<circle r="9.5038" transform="matrix(-0.714511 -0.699624 -0.699637 0.714498 1173.28 97.8557)" fill="#FFEC43"/>
</g>
<g style="mix-blend-mode:exclusion">
<circle r="9.5038" transform="matrix(-0.714509 -0.699626 -0.699636 0.7145 1162.72 96.1091)" fill="#FFEC43"/>
</g>
<g style="mix-blend-mode:exclusion">
<circle r="9.5038" transform="matrix(-0.714505 -0.699631 -0.699631 0.714505 1156.57 106.768)" fill="#FFEC43"/>
</g>
<g style="mix-blend-mode:exclusion">
<circle r="9.5038" transform="matrix(-0.714505 -0.699631 -0.699631 0.714505 1165.13 114.765)" fill="#FFEC43"/>
</g>
<g style="mix-blend-mode:exclusion">
<circle r="9.5038" transform="matrix(-0.714505 -0.699631 -0.699631 0.714505 1174.9 110.765)" fill="#FFEC43"/>
</g>
</g>
<g style="mix-blend-mode:overlay">
<g style="mix-blend-mode:exclusion">
<circle r="9.5038" transform="matrix(-0.714505 -0.699631 -0.699631 0.714505 1097.57 143.134)" fill="#FFEC43"/>
</g>
<g style="mix-blend-mode:exclusion">
<circle r="9.5038" transform="matrix(-0.714505 -0.699631 -0.699631 0.714505 1087.01 141.387)" fill="#FFEC43"/>
</g>
<g style="mix-blend-mode:exclusion">
<circle r="9.5038" transform="matrix(-0.714505 -0.699631 -0.699631 0.714505 1080.86 152.046)" fill="#FFEC43"/>
</g>
<g style="mix-blend-mode:exclusion">
<circle r="9.5038" transform="matrix(-0.714505 -0.699631 -0.699631 0.714505 1089.42 160.044)" fill="#FFEC43"/>
</g>
<g style="mix-blend-mode:exclusion">
<circle r="9.5038" transform="matrix(-0.714505 -0.699631 -0.699631 0.714505 1099.19 156.043)" fill="#FFEC43"/>
</g>
</g>
</svg>
