<svg width="375" height="120" viewBox="0 0 375 120" fill="none" xmlns="http://www.w3.org/2000/svg">
<rect x="-15" width="404" height="120" fill="#8E90FD"/>
<path d="M4.3002 43.8667C5.78363 43.2202 8.71546 42.3743 8.91065 42.8221C9.10584 43.27 6.49047 44.8419 5.00705 45.4884C3.52362 46.135 3.62354 45.7051 3.42835 45.2573C3.23316 44.8095 2.81678 44.5133 4.3002 43.8667Z" fill="#B0DC7B"/>
<path d="M4.43195 41.4623C6.04189 41.6257 9.01207 42.3251 8.96275 42.8111C8.91344 43.2971 5.86332 43.3857 4.25338 43.2223C2.64343 43.059 2.94119 42.7332 2.99051 42.2472C3.03982 41.7612 2.822 41.299 4.43195 41.4623Z" fill="#B0DC7B"/>
<path d="M13.8126 36.8583C12.2774 37.3699 9.28182 37.9508 9.12737 37.4874C8.97291 37.0239 11.7181 35.6916 13.2533 35.18C14.7885 34.6683 14.6506 35.0876 14.8051 35.551C14.9595 36.0145 15.3478 36.3467 13.8126 36.8583Z" fill="#B0DC7B"/>
<path d="M13.4666 39.2413C11.8777 38.9349 8.98176 37.9733 9.07424 37.4936C9.16671 37.014 12.2126 37.1979 13.8015 37.5042C15.3905 37.8105 15.0648 38.1084 14.9723 38.5881C14.8799 39.0678 15.0556 39.5476 13.4666 39.2413Z" fill="#B0DC7B"/>
<path d="M14.671 47.328C13.1358 47.8396 10.1402 48.4206 9.98577 47.9571C9.83131 47.4936 12.5765 46.1613 14.1117 45.6497C15.6469 45.1381 15.509 45.5573 15.6635 46.0208C15.8179 46.4842 16.2062 46.8164 14.671 47.328Z" fill="#B0DC7B"/>
<path d="M4.81583 49.0161C6.29926 48.3696 9.23108 47.5237 9.42627 47.9715C9.62145 48.4193 7.00609 49.9913 5.52267 50.6379C4.03925 51.2844 4.13917 50.8545 3.94398 50.4067C3.74879 49.9589 3.33241 49.6627 4.81583 49.0161Z" fill="#B0DC7B"/>
<path d="M4.94806 46.6117C6.558 46.7751 9.52818 47.4745 9.47887 47.9605C9.42956 48.4465 6.37943 48.5351 4.76949 48.3718C3.15955 48.2084 3.45731 47.8827 3.50662 47.3966C3.55593 46.9106 3.33812 46.4484 4.94806 46.6117Z" fill="#B0DC7B"/>
<path d="M14.8424 52.6493C13.3072 53.1609 10.3116 53.7418 10.1572 53.2784C10.0027 52.8149 12.7479 51.4826 14.2831 50.971C15.8183 50.4594 15.6804 50.8786 15.8349 51.3421C15.9893 51.8055 16.3776 52.1377 14.8424 52.6493Z" fill="#B0DC7B"/>
<path d="M14.4964 55.0323C12.9075 54.726 10.0115 53.7643 10.104 53.2846C10.1965 52.805 13.2424 52.9889 14.8313 53.2952C16.4203 53.6015 16.0946 53.8994 16.0021 54.3791C15.9097 54.8588 16.0854 55.3386 14.4964 55.0323Z" fill="#B0DC7B"/>
<path d="M14.8424 52.6493C13.3072 53.1609 10.3116 53.7418 10.1572 53.2784C10.0027 52.8149 12.7479 51.4826 14.2831 50.971C15.8183 50.4594 15.6804 50.8786 15.8349 51.3421C15.9893 51.8055 16.3776 52.1377 14.8424 52.6493Z" fill="#B0DC7B"/>
<path d="M14.4964 55.0323C12.9075 54.726 10.0115 53.7643 10.104 53.2846C10.1965 52.805 13.2424 52.9889 14.8313 53.2952C16.4203 53.6015 16.0946 53.8994 16.0021 54.3791C15.9097 54.8588 16.0854 55.3386 14.4964 55.0323Z" fill="#B0DC7B"/>
<path d="M15.7008 63.2904C14.1656 63.8021 11.17 64.383 11.0156 63.9195C10.8611 63.456 13.6063 62.1237 15.1415 61.6121C16.6767 61.1005 16.5388 61.5197 16.6933 61.9832C16.8477 62.4466 17.236 62.7788 15.7008 63.2904Z" fill="#B0DC7B"/>
<path d="M15.3533 65.6734C13.7644 65.3671 10.8685 64.4054 10.9609 63.9258C11.0534 63.4461 14.0993 63.63 15.6882 63.9363C17.2772 64.2426 16.9515 64.5405 16.8591 65.0202C16.7666 65.4999 16.9423 65.9797 15.3533 65.6734Z" fill="#B0DC7B"/>
<path d="M5.84464 64.9781C7.32806 64.3315 10.2599 63.4856 10.4551 63.9335C10.6503 64.3813 8.03491 65.9532 6.55148 66.5998C5.06806 67.2463 5.16798 66.8165 4.97279 66.3686C4.7776 65.9208 4.36121 65.6246 5.84464 64.9781Z" fill="#B0DC7B"/>
<path d="M15.3556 57.9699C13.8204 58.4815 10.8248 59.0624 10.6703 58.5989C10.5159 58.1355 13.2611 56.8032 14.7963 56.2915C16.3315 55.7799 16.1936 56.1992 16.348 56.6626C16.5025 57.1261 16.8908 57.4582 15.3556 57.9699Z" fill="#B0DC7B"/>
<path d="M15.0096 60.3528C13.4206 60.0465 10.5247 59.0849 10.6172 58.6052C10.7097 58.1255 13.7555 58.3094 15.3445 58.6158C16.9334 58.9221 16.6078 59.22 16.5153 59.6997C16.4228 60.1794 16.5985 60.6592 15.0096 60.3528Z" fill="#B0DC7B"/>
<path d="M5.50284 59.6577C6.98627 59.0112 9.9181 58.1653 10.1133 58.6131C10.3085 59.061 7.69311 60.6329 6.20968 61.2795C4.72626 61.926 4.82618 61.4962 4.63099 61.0483C4.4358 60.6005 4.01942 60.3043 5.50284 59.6577Z" fill="#B0DC7B"/>
<path d="M5.63507 57.2533C7.24501 57.4167 10.2152 58.1161 10.1659 58.6021C10.1166 59.0881 7.06644 59.1767 5.4565 59.0134C3.84656 58.85 4.14432 58.5243 4.19363 58.0382C4.24294 57.5522 4.02513 57.09 5.63507 57.2533Z" fill="#B0DC7B"/>
<path d="M16.2145 68.4401C14.6793 68.9517 11.6837 69.5326 11.5292 69.0692C11.3748 68.6057 14.12 67.2734 15.6552 66.7618C17.1904 66.2501 17.0525 66.6694 17.2069 67.1328C17.3614 67.5963 17.7497 67.9284 16.2145 68.4401Z" fill="#B0DC7B"/>
<path d="M15.868 70.8223C14.279 70.516 11.3831 69.5544 11.4756 69.0747C11.5681 68.595 14.6139 68.7789 16.2029 69.0852C17.7918 69.3916 17.4662 69.6895 17.3737 70.1692C17.2812 70.6488 17.4569 71.1287 15.868 70.8223Z" fill="#B0DC7B"/>
<path d="M6.36026 70.1277C7.84369 69.4811 10.7755 68.6353 10.9707 69.0831C11.1659 69.5309 8.55053 71.1029 7.06711 71.7494C5.58368 72.396 5.6836 71.9661 5.48841 71.5183C5.29322 71.0705 4.87684 70.7743 6.36026 70.1277Z" fill="#B0DC7B"/>
<path d="M6.492 67.7233C8.10195 67.8866 11.0721 68.586 11.0228 69.0721C10.9735 69.5581 7.92338 69.6467 6.31343 69.4833C4.70349 69.32 5.00125 68.9942 5.05056 68.5082C5.09988 68.0222 4.88206 67.56 6.492 67.7233Z" fill="#B0DC7B"/>
<path d="M16.3859 73.7604C14.8507 74.272 11.8551 74.8529 11.7006 74.3895C11.5462 73.926 14.2913 72.5937 15.8265 72.0821C17.3617 71.5704 17.2239 71.9897 17.3783 72.4531C17.5328 72.9166 17.9211 73.2488 16.3859 73.7604Z" fill="#B0DC7B"/>
<path d="M16.0399 76.1434C14.4509 75.837 11.555 74.8754 11.6475 74.3957C11.7399 73.9161 14.7858 74.1 16.3748 74.4063C17.9637 74.7126 17.6381 75.0105 17.5456 75.4902C17.4531 75.9699 17.6288 76.4497 16.0399 76.1434Z" fill="#B0DC7B"/>
<path d="M6.53263 75.4483C8.01605 74.8017 10.9479 73.9559 11.1431 74.4037C11.3383 74.8515 8.7229 76.4234 7.23947 77.07C5.75604 77.7166 5.85596 77.2867 5.66077 76.8389C5.46558 76.391 5.0492 76.0948 6.53263 75.4483Z" fill="#B0DC7B"/>
<path d="M6.66437 73.0439C8.27432 73.2072 11.2445 73.9066 11.1952 74.3926C11.1459 74.8786 8.09575 74.9672 6.4858 74.8039C4.87585 74.6405 5.17362 74.3148 5.22293 73.8288C5.27224 73.3428 5.05442 72.8805 6.66437 73.0439Z" fill="#B0DC7B"/>
<path d="M15.5289 73.7604C13.9937 74.272 10.9981 74.8529 10.8437 74.3895C10.6892 73.926 13.4344 72.5937 14.9696 72.0821C16.5048 71.5704 16.3669 71.9897 16.5214 72.4531C16.6758 72.9166 17.0641 73.2488 15.5289 73.7604Z" fill="#B0DC7B"/>
<path d="M15.1824 76.1434C13.5935 75.837 10.6976 74.8754 10.79 74.3957C10.8825 73.9161 13.9284 74.1 15.5173 74.4063C17.1063 74.7126 16.7806 75.0105 16.6882 75.4902C16.5957 75.9699 16.7714 76.4497 15.1824 76.1434Z" fill="#B0DC7B"/>
<path d="M7.96142 32.6067C8.53287 34.1206 9.23083 37.0911 8.77379 37.2636C8.31674 37.4361 6.87778 34.7453 6.30632 33.2314C5.73487 31.7174 6.15921 31.8388 6.61625 31.6663C7.07329 31.4937 7.38997 31.0927 7.96142 32.6067Z" fill="#B0DC7B"/>
<path d="M10.3559 32.8586C10.1121 34.4584 9.26479 37.3898 8.78185 37.3162C8.29891 37.2426 8.3632 34.1919 8.60698 32.5921C8.85076 30.9924 9.16119 31.3061 9.64414 31.3797C10.1271 31.4533 10.5996 31.2589 10.3559 32.8586Z" fill="#B0DC7B"/>
<path d="M6.53263 75.4483C8.01605 74.8017 10.9479 73.9559 11.1431 74.4037C11.3383 74.8515 8.7229 76.4234 7.23947 77.07C5.75604 77.7166 5.85596 77.2867 5.66077 76.8389C5.46558 76.391 5.0492 76.0948 6.53263 75.4483Z" fill="#B0DC7B"/>
<path d="M6.66437 73.0439C8.27432 73.2072 11.2445 73.9066 11.1952 74.3926C11.1459 74.8786 8.09575 74.9672 6.4858 74.8039C4.87585 74.6405 5.17362 74.3148 5.22293 73.8288C5.27224 73.3428 5.05442 72.8805 6.66437 73.0439Z" fill="#B0DC7B"/>
<path d="M4.8575 86.514C6.43578 86.1567 9.47417 85.875 9.58202 86.3514C9.68987 86.8279 6.82633 87.8821 5.24804 88.2394C3.66976 88.5966 3.84844 88.1931 3.74059 87.7166C3.63274 87.2402 3.27921 86.8712 4.8575 86.514Z" fill="#B0DC7B"/>
<path d="M5.43741 84.1766C6.98826 84.6387 9.77485 85.882 9.63537 86.3502C9.49589 86.8184 6.48317 86.3341 4.93232 85.8721C3.38147 85.4101 3.73499 85.1458 3.87446 84.6777C4.01394 84.2095 3.88657 83.7146 5.43741 84.1766Z" fill="#B0DC7B"/>
<path d="M14.8262 81.4114C13.2224 81.6264 10.171 81.6359 10.1061 81.1517C10.0412 80.6675 12.9873 79.873 14.5911 79.658C16.195 79.4429 15.981 79.829 16.0459 80.3131C16.1108 80.7973 16.43 81.1964 14.8262 81.4114Z" fill="#B0DC7B"/>
<path d="M14.0409 83.6871C12.5374 83.0886 9.87291 81.6015 10.0536 81.1477C10.2343 80.6938 13.1918 81.445 14.6952 82.0435C16.1987 82.6421 15.823 82.8737 15.6423 83.3276C15.4616 83.7814 15.5443 84.2857 14.0409 83.6871Z" fill="#B0DC7B"/>
<path d="M8.65381 33.7139L11.2315 71.2829L7.28686 102.244" stroke="#B0DC7B" stroke-width="1.08997"/>
<path d="M50.5562 29.697C29.0167 85.0007 46.0341 97.8864 57.2353 97.4162" stroke="#B0DC7B" stroke-width="1.08997"/>
<path d="M40.4272 68.3689C38.7963 50.5614 33.332 45.4282 30.8037 45.0875" stroke="#B0DC7B" stroke-width="1.08997"/>
<path d="M58.5137 61.1655C42.594 69.3098 39.8645 76.2925 40.4897 78.7659" stroke="#B0DC7B" stroke-width="1.08997"/>
<g style="mix-blend-mode:overlay">
<g style="mix-blend-mode:exclusion">
<circle r="5.2076" transform="matrix(0.714504 -0.699632 0.69963 0.714506 47.0713 25.6841)" fill="#FFEC43"/>
</g>
<g style="mix-blend-mode:exclusion">
<circle r="5.2076" transform="matrix(0.714504 -0.699632 0.69963 0.714505 52.8555 24.7269)" fill="#FFEC43"/>
</g>
<g style="mix-blend-mode:exclusion">
<circle r="5.2076" transform="matrix(0.714506 -0.69963 0.699632 0.714504 56.2261 30.5677)" fill="#FFEC43"/>
</g>
<g style="mix-blend-mode:exclusion">
<circle r="5.2076" transform="matrix(0.714504 -0.699632 0.69963 0.714505 51.5381 34.95)" fill="#FFEC43"/>
</g>
<g style="mix-blend-mode:exclusion">
<circle r="5.2076" transform="matrix(0.714506 -0.699629 0.699632 0.714503 46.1846 32.7579)" fill="#FFEC43"/>
</g>
</g>
<g style="mix-blend-mode:overlay">
<g style="mix-blend-mode:exclusion">
<circle cx="27.9993" cy="42.2846" r="3.48896" transform="rotate(-44.3974 27.9993 42.2846)" fill="#FFEC43"/>
</g>
<g style="mix-blend-mode:exclusion">
<circle r="3.48896" transform="matrix(0.714498 -0.699637 0.699624 0.714511 31.8743 41.6434)" fill="#FFEC43"/>
</g>
<g style="mix-blend-mode:exclusion">
<circle r="3.48896" transform="matrix(0.714498 -0.699637 0.699624 0.714511 34.1326 45.5565)" fill="#FFEC43"/>
</g>
<g style="mix-blend-mode:exclusion">
<circle cx="30.9915" cy="48.4926" r="3.48896" transform="rotate(-44.3974 30.9915 48.4926)" fill="#FFEC43"/>
</g>
<g style="mix-blend-mode:exclusion">
<circle cx="27.4051" cy="47.0238" r="3.48896" transform="rotate(-44.3974 27.4051 47.0238)" fill="#FFEC43"/>
</g>
</g>
<g style="mix-blend-mode:overlay">
<g style="mix-blend-mode:exclusion">
<circle cx="55.7932" cy="58.9069" r="3.48896" transform="rotate(-44.3974 55.7932 58.9069)" fill="#FFEC43"/>
</g>
<g style="mix-blend-mode:exclusion">
<circle cx="59.6682" cy="58.2658" r="3.48896" transform="rotate(-44.3974 59.6682 58.2658)" fill="#FFEC43"/>
</g>
<g style="mix-blend-mode:exclusion">
<circle cx="61.9265" cy="62.1788" r="3.48896" transform="rotate(-44.3974 61.9265 62.1788)" fill="#FFEC43"/>
</g>
<g style="mix-blend-mode:exclusion">
<circle cx="58.7854" cy="65.1149" r="3.48896" transform="rotate(-44.3974 58.7854 65.1149)" fill="#FFEC43"/>
</g>
<g style="mix-blend-mode:exclusion">
<circle cx="55.199" cy="63.6459" r="3.48896" transform="rotate(-44.3974 55.199 63.6459)" fill="#FFEC43"/>
</g>
</g>
<path d="M134.232 43.9954C135.716 43.3488 138.648 42.503 138.843 42.9508C139.038 43.3986 136.423 44.9705 134.939 45.6171C133.456 46.2637 133.556 45.8338 133.36 45.386C133.165 44.9381 132.749 44.642 134.232 43.9954Z" fill="#B0DC7B"/>
<path d="M134.365 41.591C135.975 41.7543 138.945 42.4537 138.896 42.9397C138.847 43.4258 135.796 43.5144 134.186 43.351C132.577 43.1877 132.874 42.8619 132.924 42.3759C132.973 41.8899 132.755 41.4276 134.365 41.591Z" fill="#B0DC7B"/>
<path d="M143.743 36.9872C142.208 37.4988 139.212 38.0797 139.058 37.6163C138.904 37.1528 141.649 35.8205 143.184 35.3089C144.719 34.7972 144.581 35.2165 144.736 35.6799C144.89 36.1434 145.278 36.4756 143.743 36.9872Z" fill="#B0DC7B"/>
<path d="M143.397 39.3702C141.808 39.0638 138.912 38.1022 139.005 37.6225C139.097 37.1429 142.143 37.3268 143.732 37.6331C145.321 37.9394 144.995 38.2373 144.903 38.717C144.811 39.1967 144.986 39.6765 143.397 39.3702Z" fill="#B0DC7B"/>
<path d="M144.602 47.4569C143.067 47.9686 140.071 48.5495 139.917 48.086C139.762 47.6225 142.508 46.2902 144.043 45.7786C145.578 45.267 145.44 45.6862 145.595 46.1497C145.749 46.6131 146.137 46.9453 144.602 47.4569Z" fill="#B0DC7B"/>
<path d="M134.747 49.145C136.231 48.4985 139.163 47.6526 139.358 48.1004C139.553 48.5482 136.938 50.1202 135.454 50.7668C133.971 51.4133 134.071 50.9835 133.876 50.5356C133.68 50.0878 133.264 49.7916 134.747 49.145Z" fill="#B0DC7B"/>
<path d="M134.88 46.7406C136.49 46.904 139.46 47.6034 139.411 48.0894C139.361 48.5754 136.311 48.664 134.701 48.5007C133.091 48.3373 133.389 48.0116 133.438 47.5255C133.488 47.0395 133.27 46.5773 134.88 46.7406Z" fill="#B0DC7B"/>
<path d="M144.773 52.778C143.238 53.2896 140.242 53.8705 140.088 53.407C139.933 52.9436 142.679 51.6113 144.214 51.0996C145.749 50.588 145.611 51.0073 145.766 51.4707C145.92 51.9342 146.308 52.2663 144.773 52.778Z" fill="#B0DC7B"/>
<path d="M144.427 55.1607C142.838 54.8544 139.942 53.8928 140.035 53.4131C140.127 52.9334 143.173 53.1173 144.762 53.4236C146.351 53.73 146.025 54.0278 145.933 54.5075C145.84 54.9872 146.016 55.467 144.427 55.1607Z" fill="#B0DC7B"/>
<path d="M144.773 52.778C143.238 53.2896 140.242 53.8705 140.088 53.407C139.933 52.9436 142.679 51.6113 144.214 51.0996C145.749 50.588 145.611 51.0073 145.766 51.4707C145.92 51.9342 146.308 52.2663 144.773 52.778Z" fill="#B0DC7B"/>
<path d="M144.427 55.1607C142.838 54.8544 139.942 53.8928 140.035 53.4131C140.127 52.9334 143.173 53.1173 144.762 53.4236C146.351 53.73 146.025 54.0278 145.933 54.5075C145.84 54.9872 146.016 55.467 144.427 55.1607Z" fill="#B0DC7B"/>
<path d="M145.632 63.4193C144.097 63.931 141.102 64.5119 140.947 64.0484C140.793 63.585 143.538 62.2526 145.073 61.741C146.608 61.2294 146.47 61.6486 146.625 62.1121C146.779 62.5755 147.168 62.9077 145.632 63.4193Z" fill="#B0DC7B"/>
<path d="M145.286 65.8023C143.697 65.4959 140.801 64.5343 140.894 64.0546C140.986 63.575 144.032 63.7589 145.621 64.0652C147.21 64.3716 146.884 64.6694 146.792 65.1491C146.699 65.6288 146.875 66.1086 145.286 65.8023Z" fill="#B0DC7B"/>
<path d="M135.777 65.1067C137.26 64.4602 140.192 63.6143 140.387 64.0621C140.582 64.5099 137.967 66.0819 136.484 66.7284C135 67.375 135.1 66.9451 134.905 66.4973C134.71 66.0495 134.293 65.7533 135.777 65.1067Z" fill="#B0DC7B"/>
<path d="M145.288 58.0985C143.753 58.6102 140.757 59.1911 140.602 58.7276C140.448 58.2642 143.193 56.9318 144.728 56.4202C146.264 55.9086 146.126 56.3278 146.28 56.7913C146.435 57.2547 146.823 57.5869 145.288 58.0985Z" fill="#B0DC7B"/>
<path d="M144.942 60.4815C143.353 60.1752 140.457 59.2136 140.549 58.7339C140.642 58.2542 143.688 58.4381 145.277 58.7444C146.866 59.0508 146.54 59.3486 146.447 59.8283C146.355 60.308 146.531 60.7878 144.942 60.4815Z" fill="#B0DC7B"/>
<path d="M135.434 59.7862C136.917 59.1396 139.849 58.2937 140.044 58.7416C140.24 59.1894 137.624 60.7613 136.141 61.4079C134.657 62.0544 134.757 61.6246 134.562 61.1767C134.367 60.7289 133.951 60.4327 135.434 59.7862Z" fill="#B0DC7B"/>
<path d="M135.566 57.3817C137.176 57.5451 140.146 58.2445 140.097 58.7305C140.047 59.2165 136.997 59.3051 135.387 59.1418C133.777 58.9784 134.075 58.6527 134.124 58.1667C134.174 57.6806 133.956 57.2184 135.566 57.3817Z" fill="#B0DC7B"/>
<path d="M146.147 68.5685C144.611 69.0801 141.616 69.661 141.461 69.1976C141.307 68.7341 144.052 67.4018 145.587 66.8902C147.122 66.3785 146.985 66.7978 147.139 67.2612C147.294 67.7247 147.682 68.0569 146.147 68.5685Z" fill="#B0DC7B"/>
<path d="M145.801 70.951C144.212 70.6447 141.316 69.683 141.409 69.2034C141.501 68.7237 144.547 68.9076 146.136 69.2139C147.725 69.5202 147.399 69.8181 147.307 70.2978C147.214 70.7775 147.39 71.2573 145.801 70.951Z" fill="#B0DC7B"/>
<path d="M136.291 70.2564C137.775 69.6098 140.707 68.7639 140.902 69.2118C141.097 69.6596 138.482 71.2315 136.998 71.8781C135.515 72.5247 135.615 72.0948 135.42 71.647C135.224 71.1991 134.808 70.9029 136.291 70.2564Z" fill="#B0DC7B"/>
<path d="M136.423 67.852C138.033 68.0153 141.003 68.7147 140.954 69.2007C140.905 69.6867 137.855 69.7753 136.245 69.612C134.635 69.4487 134.932 69.1229 134.982 68.6369C135.031 68.1509 134.813 67.6886 136.423 67.852Z" fill="#B0DC7B"/>
<path d="M146.318 73.8895C144.782 74.4012 141.787 74.9821 141.632 74.5187C141.478 74.0552 144.223 72.7229 145.758 72.2112C147.293 71.6996 147.156 72.1188 147.31 72.5823C147.464 73.0458 147.853 73.3779 146.318 73.8895Z" fill="#B0DC7B"/>
<path d="M145.972 76.2725C144.383 75.9662 141.487 75.0046 141.579 74.5249C141.672 74.0452 144.717 74.2291 146.306 74.5354C147.895 74.8418 147.57 75.1397 147.477 75.6193C147.385 76.099 147.56 76.5789 145.972 76.2725Z" fill="#B0DC7B"/>
<path d="M136.463 75.5769C137.947 74.9304 140.879 74.0845 141.074 74.5323C141.269 74.9802 138.654 76.5521 137.17 77.1987C135.687 77.8452 135.787 77.4153 135.591 76.9675C135.396 76.5197 134.98 76.2235 136.463 75.5769Z" fill="#B0DC7B"/>
<path d="M136.595 73.1725C138.205 73.3359 141.175 74.0353 141.126 74.5213C141.077 75.0073 138.026 75.0959 136.416 74.9326C134.807 74.7692 135.104 74.4435 135.154 73.9574C135.203 73.4714 134.985 73.0092 136.595 73.1725Z" fill="#B0DC7B"/>
<path d="M145.461 73.8891C143.926 74.4007 140.93 74.9816 140.776 74.5182C140.621 74.0547 143.367 72.7224 144.902 72.2107C146.437 71.6991 146.299 72.1183 146.454 72.5818C146.608 73.0453 146.996 73.3774 145.461 73.8891Z" fill="#B0DC7B"/>
<path d="M145.115 76.272C143.526 75.9657 140.63 75.0041 140.722 74.5244C140.815 74.0447 143.861 74.2286 145.449 74.5349C147.038 74.8413 146.713 75.1392 146.62 75.6189C146.528 76.0985 146.704 76.5784 145.115 76.272Z" fill="#B0DC7B"/>
<path d="M137.893 32.7353C138.464 34.2493 139.162 37.2198 138.705 37.3923C138.248 37.5648 136.809 34.874 136.237 33.36C135.666 31.8461 136.09 31.9674 136.547 31.7949C137.004 31.6224 137.321 31.2214 137.893 32.7353Z" fill="#B0DC7B"/>
<path d="M140.288 32.9873C140.044 34.587 139.197 37.5185 138.714 37.4449C138.231 37.3713 138.295 34.3205 138.539 32.7208C138.783 31.1211 139.093 31.4348 139.576 31.5084C140.059 31.582 140.532 31.3876 140.288 32.9873Z" fill="#B0DC7B"/>
<path d="M136.463 75.5769C137.947 74.9304 140.879 74.0845 141.074 74.5323C141.269 74.9802 138.654 76.5521 137.17 77.1987C135.687 77.8452 135.787 77.4153 135.591 76.9675C135.396 76.5197 134.98 76.2235 136.463 75.5769Z" fill="#B0DC7B"/>
<path d="M136.595 73.1725C138.205 73.3359 141.175 74.0353 141.126 74.5213C141.077 75.0073 138.026 75.0959 136.416 74.9326C134.807 74.7692 135.104 74.4435 135.154 73.9574C135.203 73.4714 134.985 73.0092 136.595 73.1725Z" fill="#B0DC7B"/>
<path d="M134.789 86.6431C136.367 86.2859 139.406 86.0041 139.514 86.4806C139.621 86.9571 136.758 88.0113 135.18 88.3685C133.601 88.7258 133.78 88.3222 133.672 87.8458C133.564 87.3693 133.211 87.0004 134.789 86.6431Z" fill="#B0DC7B"/>
<path d="M135.368 84.3051C136.919 84.7671 139.706 86.0104 139.566 86.4786C139.427 86.9468 136.414 86.4625 134.863 86.0005C133.312 85.5385 133.666 85.2743 133.805 84.8061C133.945 84.3379 133.817 83.843 135.368 84.3051Z" fill="#B0DC7B"/>
<path d="M144.758 81.5398C143.154 81.7548 140.103 81.7643 140.038 81.2801C139.973 80.7959 142.919 80.0014 144.523 79.7864C146.127 79.5714 145.913 79.9574 145.978 80.4416C146.043 80.9257 146.362 81.3248 144.758 81.5398Z" fill="#B0DC7B"/>
<path d="M143.973 83.8158C142.469 83.2173 139.805 81.7302 139.985 81.2763C140.166 80.8225 143.123 81.5736 144.627 82.1722C146.13 82.7707 145.755 83.0024 145.574 83.4562C145.393 83.9101 145.476 84.4143 143.973 83.8158Z" fill="#B0DC7B"/>
<path d="M138.585 33.8425L141.163 71.4115L137.218 102.372" stroke="#B0DC7B" stroke-width="1.08997"/>
<path d="M88.1617 43.7227C86.6783 43.0761 83.7464 42.2302 83.5513 42.6781C83.3561 43.1259 85.9714 44.6978 87.4549 45.3444C88.9383 45.991 88.8384 45.5611 89.0336 45.1133C89.2287 44.6654 89.6451 44.3693 88.1617 43.7227Z" fill="#B0DC7B"/>
<path d="M88.0295 41.3183C86.4195 41.4816 83.4494 42.181 83.4987 42.667C83.548 43.1531 86.5981 43.2416 88.2081 43.0783C89.818 42.915 89.5202 42.5892 89.4709 42.1032C89.4216 41.6172 89.6394 41.1549 88.0295 41.3183Z" fill="#B0DC7B"/>
<path d="M78.6517 36.7143C80.1869 37.2259 83.1825 37.8068 83.337 37.3434C83.4914 36.8799 80.7462 35.5476 79.2111 35.0359C77.6759 34.5243 77.8137 34.9435 77.6593 35.407C77.5048 35.8705 77.1165 36.2026 78.6517 36.7143Z" fill="#B0DC7B"/>
<path d="M78.9977 39.0972C80.5867 38.7909 83.4826 37.8293 83.3901 37.3496C83.2977 36.8699 80.2518 37.0538 78.6628 37.3601C77.0739 37.6665 77.3995 37.9644 77.492 38.4441C77.5845 38.9237 77.4088 39.4036 78.9977 39.0972Z" fill="#B0DC7B"/>
<path d="M77.7924 47.1842C79.3275 47.6959 82.3231 48.2768 82.4776 47.8133C82.6321 47.3499 79.8869 46.0175 78.3517 45.5059C76.8165 44.9943 76.9544 45.4135 76.7999 45.877C76.6455 46.3404 76.2572 46.6726 77.7924 47.1842Z" fill="#B0DC7B"/>
<path d="M87.6471 48.8719C86.1636 48.2253 83.2318 47.3794 83.0366 47.8273C82.8414 48.2751 85.4568 49.847 86.9402 50.4936C88.4236 51.1401 88.3237 50.7103 88.5189 50.2624C88.7141 49.8146 89.1305 49.5184 87.6471 48.8719Z" fill="#B0DC7B"/>
<path d="M87.5148 46.4677C85.9049 46.631 82.9347 47.3304 82.984 47.8164C83.0333 48.3025 86.0835 48.3911 87.6934 48.2277C89.3033 48.0644 89.0056 47.7386 88.9563 47.2526C88.907 46.7666 89.1248 46.3043 87.5148 46.4677Z" fill="#B0DC7B"/>
<path d="M77.62 52.5048C79.1552 53.0164 82.1508 53.5973 82.3052 53.1339C82.4597 52.6704 79.7145 51.3381 78.1793 50.8265C76.6441 50.3148 76.782 50.7341 76.6275 51.1975C76.4731 51.661 76.0848 51.9931 77.62 52.5048Z" fill="#B0DC7B"/>
<path d="M77.9665 54.888C79.5554 54.5817 82.4514 53.62 82.3589 53.1404C82.2664 52.6607 79.2205 52.8446 77.6316 53.1509C76.0426 53.4572 76.3683 53.7551 76.4608 54.2348C76.5532 54.7145 76.3775 55.1943 77.9665 54.888Z" fill="#B0DC7B"/>
<path d="M77.62 52.5048C79.1552 53.0164 82.1508 53.5973 82.3052 53.1339C82.4597 52.6704 79.7145 51.3381 78.1793 50.8265C76.6441 50.3148 76.782 50.7341 76.6275 51.1975C76.4731 51.661 76.0848 51.9931 77.62 52.5048Z" fill="#B0DC7B"/>
<path d="M77.9665 54.888C79.5554 54.5817 82.4514 53.62 82.3589 53.1404C82.2664 52.6607 79.2205 52.8446 77.6316 53.1509C76.0426 53.4572 76.3683 53.7551 76.4608 54.2348C76.5532 54.7145 76.3775 55.1943 77.9665 54.888Z" fill="#B0DC7B"/>
<path d="M76.7631 63.1466C78.2982 63.6583 81.2939 64.2392 81.4483 63.7757C81.6028 63.3123 78.8576 61.9799 77.3224 61.4683C75.7872 60.9567 75.9251 61.3759 75.7706 61.8394C75.6162 62.3028 75.2279 62.635 76.7631 63.1466Z" fill="#B0DC7B"/>
<path d="M77.1091 65.5296C78.698 65.2233 81.5939 64.2617 81.5014 63.782C81.409 63.3023 78.3631 63.4862 76.7742 63.7925C75.1852 64.0989 75.5109 64.3967 75.6033 64.8764C75.6958 65.3561 75.5201 65.8359 77.1091 65.5296Z" fill="#B0DC7B"/>
<path d="M86.6183 64.8343C85.1348 64.1877 82.203 63.3418 82.0078 63.7897C81.8126 64.2375 84.428 65.8094 85.9114 66.456C87.3948 67.1025 87.2949 66.6727 87.4901 66.2248C87.6853 65.777 88.1017 65.4808 86.6183 64.8343Z" fill="#B0DC7B"/>
<path d="M77.1068 57.8261C78.642 58.3377 81.6376 58.9186 81.7921 58.4552C81.9465 57.9917 79.2013 56.6594 77.6661 56.1477C76.1309 55.6361 76.2688 56.0554 76.1144 56.5188C75.9599 56.9823 75.5716 57.3144 77.1068 57.8261Z" fill="#B0DC7B"/>
<path d="M77.4528 60.2091C79.0417 59.9027 81.9377 58.9411 81.8452 58.4614C81.7527 57.9817 78.7069 58.1656 77.1179 58.472C75.529 58.7783 75.8546 59.0762 75.9471 59.5559C76.0396 60.0356 75.8639 60.5154 77.4528 60.2091Z" fill="#B0DC7B"/>
<path d="M86.9605 59.5137C85.4771 58.8671 82.5453 58.0213 82.3501 58.4691C82.1549 58.9169 84.7703 60.4889 86.2537 61.1354C87.7371 61.782 87.6372 61.3521 87.8324 60.9043C88.0276 60.4565 88.444 60.1603 86.9605 59.5137Z" fill="#B0DC7B"/>
<path d="M86.8288 57.1093C85.2188 57.2726 82.2487 57.972 82.298 58.4581C82.3473 58.9441 85.3974 59.0327 87.0074 58.8693C88.6173 58.706 88.3195 58.3802 88.2702 57.8942C88.2209 57.4082 88.4387 56.9459 86.8288 57.1093Z" fill="#B0DC7B"/>
<path d="M76.2479 68.2961C77.7831 68.8077 80.7786 69.3886 80.9331 68.9252C81.0875 68.4617 78.3424 67.1294 76.8072 66.6177C75.2721 66.1061 75.4099 66.5253 75.2555 66.9888C75.101 67.4523 74.7127 67.7844 76.2479 68.2961Z" fill="#B0DC7B"/>
<path d="M76.5939 70.679C78.1829 70.3727 81.0788 69.411 80.9864 68.9313C80.8939 68.4517 77.848 68.6356 76.259 68.9419C74.6701 69.2483 74.9957 69.5462 75.0882 70.0258C75.1807 70.5055 75.005 70.9853 76.5939 70.679Z" fill="#B0DC7B"/>
<path d="M86.1026 69.9837C84.6192 69.3371 81.6874 68.4913 81.4922 68.9391C81.297 69.387 83.9124 70.9589 85.3958 71.6054C86.8792 72.252 86.7793 71.8221 86.9745 71.3743C87.1697 70.9264 87.5861 70.6302 86.1026 69.9837Z" fill="#B0DC7B"/>
<path d="M85.9704 67.579C84.3605 67.7424 81.3903 68.4418 81.4396 68.9278C81.4889 69.4138 84.539 69.5024 86.149 69.3391C87.7589 69.1757 87.4612 68.8499 87.4118 68.3639C87.3625 67.8779 87.5804 67.4157 85.9704 67.579Z" fill="#B0DC7B"/>
<path d="M76.0775 73.6171C77.6127 74.1287 80.6083 74.7096 80.7628 74.2462C80.9172 73.7827 78.172 72.4504 76.6368 71.9388C75.1016 71.4271 75.2395 71.8464 75.0851 72.3098C74.9306 72.7733 74.5423 73.1054 76.0775 73.6171Z" fill="#B0DC7B"/>
<path d="M76.4235 75.9998C78.0125 75.6935 80.9084 74.7319 80.8159 74.2522C80.7234 73.7725 77.6776 73.9564 76.0886 74.2627C74.4997 74.5691 74.8253 74.867 74.9178 75.3466C75.0103 75.8263 74.8346 76.3062 76.4235 75.9998Z" fill="#B0DC7B"/>
<path d="M85.9312 75.3045C84.4478 74.6579 81.516 73.812 81.3208 74.2599C81.1256 74.7077 83.741 76.2796 85.2244 76.9262C86.7078 77.5728 86.6079 77.1429 86.8031 76.6951C86.9983 76.2472 87.4147 75.951 85.9312 75.3045Z" fill="#B0DC7B"/>
<path d="M85.799 72.8998C84.1891 73.0632 81.2189 73.7626 81.2682 74.2486C81.3175 74.7346 84.3676 74.8232 85.9776 74.6598C87.5875 74.4965 87.2898 74.1707 87.2405 73.6847C87.1911 73.1987 87.409 72.7365 85.799 72.8998Z" fill="#B0DC7B"/>
<path d="M76.934 73.6166C78.4692 74.1282 81.4648 74.7091 81.6192 74.2457C81.7737 73.7822 79.0285 72.4499 77.4933 71.9383C75.9581 71.4266 76.096 71.8459 75.9415 72.3093C75.7871 72.7728 75.3988 73.105 76.934 73.6166Z" fill="#B0DC7B"/>
<path d="M77.28 75.9993C78.8689 75.693 81.7648 74.7314 81.6724 74.2517C81.5799 73.772 78.534 73.9559 76.9451 74.2622C75.3561 74.5686 75.6818 74.8665 75.7742 75.3462C75.8667 75.8258 75.691 76.3057 77.28 75.9993Z" fill="#B0DC7B"/>
<path d="M84.502 32.4626C83.9305 33.9766 83.2326 36.9471 83.6896 37.1196C84.1466 37.2921 85.5856 34.6013 86.1571 33.0873C86.7285 31.5734 86.3042 31.6947 85.8471 31.5222C85.3901 31.3497 85.0734 30.9487 84.502 32.4626Z" fill="#B0DC7B"/>
<path d="M82.1061 32.7146C82.3498 34.3143 83.1971 37.2458 83.6801 37.1722C84.163 37.0986 84.0987 34.0478 83.8549 32.4481C83.6112 30.8484 83.3007 31.1621 82.8178 31.2357C82.3348 31.3093 81.8623 31.1149 82.1061 32.7146Z" fill="#B0DC7B"/>
<path d="M85.9312 75.3045C84.4478 74.6579 81.516 73.812 81.3208 74.2599C81.1256 74.7077 83.741 76.2796 85.2244 76.9262C86.7078 77.5728 86.6079 77.1429 86.8031 76.6951C86.9983 76.2472 87.4147 75.951 85.9312 75.3045Z" fill="#B0DC7B"/>
<path d="M85.799 72.8998C84.1891 73.0632 81.2189 73.7626 81.2682 74.2486C81.3175 74.7346 84.3676 74.8232 85.9776 74.6598C87.5875 74.4965 87.2898 74.1707 87.2405 73.6847C87.1911 73.1987 87.409 72.7365 85.799 72.8998Z" fill="#B0DC7B"/>
<path d="M87.6064 86.3702C86.0282 86.0129 82.9898 85.7312 82.882 86.2077C82.7741 86.6842 85.6376 87.7384 87.2158 88.0956C88.7941 88.4528 88.6154 88.0493 88.7233 87.5728C88.8311 87.0963 89.1847 86.7274 87.6064 86.3702Z" fill="#B0DC7B"/>
<path d="M87.0264 84.0333C85.4756 84.4954 82.689 85.7388 82.8285 86.2069C82.9679 86.6751 85.9807 86.1908 87.5315 85.7288C89.0824 85.2667 88.7289 85.0025 88.5894 84.5343C88.4499 84.0662 88.5773 83.5713 87.0264 84.0333Z" fill="#B0DC7B"/>
<path d="M77.6357 81.2671C79.2396 81.4821 82.291 81.4916 82.3559 81.0074C82.4208 80.5232 79.4746 79.7287 77.8708 79.5137C76.2669 79.2987 76.4809 79.6847 76.416 80.1688C76.3511 80.653 76.0319 81.052 77.6357 81.2671Z" fill="#B0DC7B"/>
<path d="M78.422 83.5433C79.9254 82.9448 82.59 81.4577 82.4093 81.0039C82.2286 80.55 79.2711 81.3012 77.7677 81.8997C76.2642 82.4983 76.6399 82.7299 76.8206 83.1838C77.0013 83.6376 76.9186 84.1419 78.422 83.5433Z" fill="#B0DC7B"/>
<path d="M83.8096 33.5701L81.2319 71.1391L85.1765 102.1" stroke="#B0DC7B" stroke-width="1.08997"/>
<path d="M115.322 21.9326L111.917 63.3182L114.424 97.7963" stroke="#B0DC7B" stroke-width="0.544986"/>
<path d="M120.871 25.23C120.664 29.2106 117.858 32.3265 114.605 32.1897C111.351 32.0528 108.882 28.715 109.09 24.7344" stroke="#B0DC7B" stroke-width="0.544986"/>
<path d="M120.259 35.3172C120.051 39.2977 117.245 42.4137 113.992 42.2768C110.738 42.14 108.269 38.8022 108.477 34.8216" stroke="#B0DC7B" stroke-width="0.544986"/>
<path d="M119.313 45.0911C119.105 49.0717 116.299 52.1876 113.046 52.0508C109.793 51.9139 107.324 48.5761 107.531 44.5955" stroke="#B0DC7B" stroke-width="0.544986"/>
<path d="M118.412 55.8811C118.205 59.8617 115.399 62.9777 112.146 62.8408C108.892 62.704 106.423 59.3661 106.631 55.3855" stroke="#B0DC7B" stroke-width="0.544986"/>
<path d="M118.209 65.7088C118.525 69.66 116.15 73.2699 112.906 73.7719C109.661 74.2738 106.775 71.4776 106.459 67.5264" stroke="#B0DC7B" stroke-width="0.544986"/>
<path d="M118.848 76.4659C119.164 80.4171 116.789 84.027 113.544 84.5289C110.3 85.0309 107.414 82.2347 107.098 78.2835" stroke="#B0DC7B" stroke-width="0.544986"/>
<path d="M117.062 20.2496C116.98 21.3861 116.177 22.1556 115.369 22.0971C114.562 22.0385 113.878 21.1611 113.961 20.0246C114.043 18.8881 114.846 18.1186 115.654 18.1772C116.461 18.2357 117.145 19.1131 117.062 20.2496Z" fill="#B0DC7B" stroke="#B0DC7B" stroke-width="0.544986"/>
<path d="M110.579 23.2532C110.497 24.3897 109.694 25.1593 108.886 25.1007C108.079 25.0421 107.395 24.1648 107.478 23.0283C107.56 21.8918 108.363 21.1222 109.171 21.1808C109.978 21.2394 110.662 22.1168 110.579 23.2532Z" fill="#B0DC7B" stroke="#B0DC7B" stroke-width="0.544986"/>
<path d="M122.498 23.5384C122.415 24.6749 121.612 25.4444 120.805 25.3859C119.997 25.3273 119.314 24.4499 119.396 23.3134C119.478 22.177 120.281 21.4074 121.089 21.466C121.897 21.5246 122.58 22.4019 122.498 23.5384Z" fill="#B0DC7B" stroke="#B0DC7B" stroke-width="0.544986"/>
<path d="M110.104 33.0611C110.022 34.1976 109.219 34.9672 108.411 34.9086C107.604 34.85 106.92 33.9726 107.003 32.8362C107.085 31.6997 107.888 30.9301 108.696 30.9887C109.503 31.0473 110.187 31.9246 110.104 33.0611Z" fill="#B0DC7B" stroke="#B0DC7B" stroke-width="0.544986"/>
<path d="M122.033 33.2025C121.951 34.3389 121.148 35.1085 120.34 35.0499C119.533 34.9914 118.849 34.114 118.932 32.9775C119.014 31.841 119.817 31.0715 120.625 31.13C121.432 31.1886 122.116 32.066 122.033 33.2025Z" fill="#B0DC7B" stroke="#B0DC7B" stroke-width="0.544986"/>
<path d="M120.059 53.9019C119.977 55.0384 119.174 55.808 118.366 55.7494C117.559 55.6908 116.875 54.8135 116.958 53.677C117.04 52.5405 117.843 51.7709 118.651 51.8295C119.458 51.8881 120.142 52.7654 120.059 53.9019Z" fill="#B0DC7B" stroke="#B0DC7B" stroke-width="0.544986"/>
<path d="M108.366 53.7774C108.284 54.9139 107.481 55.6835 106.673 55.6249C105.865 55.5663 105.182 54.6889 105.264 53.5525C105.347 52.416 106.15 51.6464 106.957 51.705C107.765 51.7636 108.448 52.6409 108.366 53.7774Z" fill="#B0DC7B" stroke="#B0DC7B" stroke-width="0.544986"/>
<path d="M121.624 43.7388C121.541 44.8753 120.738 45.6449 119.931 45.5863C119.123 45.5277 118.44 44.6504 118.522 43.5139C118.604 42.3774 119.407 41.6078 120.215 41.6664C121.023 41.725 121.706 42.6024 121.624 43.7388Z" fill="#B0DC7B" stroke="#B0DC7B" stroke-width="0.544986"/>
<path d="M109.149 42.9786C109.066 44.1151 108.263 44.8846 107.456 44.8261C106.648 44.7675 105.965 43.8901 106.047 42.7536C106.129 41.6172 106.932 40.8476 107.74 40.9062C108.548 40.9647 109.231 41.8421 109.149 42.9786Z" fill="#B0DC7B" stroke="#B0DC7B" stroke-width="0.544986"/>
<path d="M108.194 65.9232C108.112 67.0596 107.309 67.8292 106.501 67.7706C105.693 67.7121 105.01 66.8347 105.092 65.6982C105.175 64.5617 105.978 63.7922 106.785 63.8507C107.593 63.9093 108.277 64.7867 108.194 65.9232Z" fill="#B0DC7B" stroke="#B0DC7B" stroke-width="0.544986"/>
<path d="M120.152 64.0401C120.069 65.1766 119.266 65.9462 118.459 65.8876C117.651 65.829 116.967 64.9516 117.05 63.8152C117.132 62.6787 117.935 61.9091 118.743 61.9677C119.551 62.0263 120.234 62.9036 120.152 64.0401Z" fill="#B0DC7B" stroke="#B0DC7B" stroke-width="0.544986"/>
<path d="M108.746 76.2396C108.663 77.3761 107.861 78.1456 107.053 78.087C106.245 78.0285 105.562 77.1511 105.644 76.0146C105.727 74.8781 106.529 74.1086 107.337 74.1671C108.145 74.2257 108.828 75.1031 108.746 76.2396Z" fill="#B0DC7B" stroke="#B0DC7B" stroke-width="0.544986"/>
<path d="M120.908 74.806C120.825 75.9425 120.022 76.712 119.214 76.6535C118.407 76.5949 117.723 75.7175 117.806 74.581C117.888 73.4445 118.691 72.675 119.499 72.7336C120.306 72.7921 120.99 73.6695 120.908 74.806Z" fill="#B0DC7B" stroke="#B0DC7B" stroke-width="0.544986"/>
<path d="M295.266 43.9954C296.749 43.3488 299.681 42.503 299.876 42.9508C300.072 43.3986 297.456 44.9705 295.973 45.6171C294.489 46.2637 294.589 45.8338 294.394 45.386C294.199 44.9381 293.783 44.642 295.266 43.9954Z" fill="#B0DC7B"/>
<path d="M295.398 41.591C297.008 41.7543 299.978 42.4537 299.929 42.9397C299.879 43.4258 296.829 43.5144 295.219 43.351C293.609 43.1877 293.907 42.8619 293.956 42.3759C294.006 41.8899 293.788 41.4276 295.398 41.591Z" fill="#B0DC7B"/>
<path d="M304.776 36.9872C303.241 37.4988 300.245 38.0797 300.091 37.6163C299.936 37.1528 302.681 35.8205 304.217 35.3089C305.752 34.7972 305.614 35.2165 305.768 35.6799C305.923 36.1434 306.311 36.4756 304.776 36.9872Z" fill="#B0DC7B"/>
<path d="M304.43 39.3702C302.841 39.0638 299.945 38.1022 300.038 37.6225C300.13 37.1429 303.176 37.3268 304.765 37.6331C306.354 37.9394 306.028 38.2373 305.936 38.717C305.843 39.1967 306.019 39.6765 304.43 39.3702Z" fill="#B0DC7B"/>
<path d="M305.636 47.4567C304.101 47.9683 301.105 48.5492 300.951 48.0858C300.796 47.6223 303.541 46.29 305.077 45.7784C306.612 45.2667 306.474 45.686 306.628 46.1494C306.783 46.6129 307.171 46.945 305.636 47.4567Z" fill="#B0DC7B"/>
<path d="M295.781 49.1445C297.265 48.498 300.196 47.6521 300.392 48.0999C300.587 48.5478 297.971 50.1197 296.488 50.7663C295.005 51.4128 295.105 50.983 294.909 50.5351C294.714 50.0873 294.298 49.7911 295.781 49.1445Z" fill="#B0DC7B"/>
<path d="M295.913 46.7399C297.523 46.9032 300.493 47.6026 300.444 48.0887C300.394 48.5747 297.344 48.6633 295.734 48.4999C294.124 48.3366 294.422 48.0108 294.471 47.5248C294.521 47.0388 294.303 46.5766 295.913 46.7399Z" fill="#B0DC7B"/>
<path d="M305.806 52.778C304.271 53.2896 301.275 53.8705 301.121 53.4071C300.966 52.9436 303.711 51.6113 305.246 51.0997C306.782 50.588 306.644 51.0073 306.798 51.4707C306.953 51.9342 307.341 52.2663 305.806 52.778Z" fill="#B0DC7B"/>
<path d="M305.46 55.1609C303.871 54.8546 300.975 53.893 301.067 53.4133C301.16 52.9336 304.206 53.1175 305.795 53.4239C307.384 53.7302 307.058 54.0281 306.966 54.5078C306.873 54.9875 307.049 55.4673 305.46 55.1609Z" fill="#B0DC7B"/>
<path d="M305.806 52.778C304.271 53.2896 301.275 53.8705 301.121 53.4071C300.966 52.9436 303.711 51.6113 305.246 51.0997C306.782 50.588 306.644 51.0073 306.798 51.4707C306.953 51.9342 307.341 52.2663 305.806 52.778Z" fill="#B0DC7B"/>
<path d="M305.46 55.1609C303.871 54.8546 300.975 53.893 301.067 53.4133C301.16 52.9336 304.206 53.1175 305.795 53.4239C307.384 53.7302 307.058 54.0281 306.966 54.5078C306.873 54.9875 307.049 55.4673 305.46 55.1609Z" fill="#B0DC7B"/>
<path d="M306.665 63.4193C305.13 63.931 302.134 64.5119 301.98 64.0484C301.825 63.585 304.571 62.2526 306.106 61.741C307.641 61.2294 307.503 61.6486 307.658 62.1121C307.812 62.5755 308.2 62.9077 306.665 63.4193Z" fill="#B0DC7B"/>
<path d="M306.319 65.8021C304.73 65.4957 301.834 64.5341 301.927 64.0544C302.019 63.5747 305.065 63.7586 306.654 64.065C308.243 64.3713 307.917 64.6692 307.825 65.1489C307.732 65.6286 307.908 66.1084 306.319 65.8021Z" fill="#B0DC7B"/>
<path d="M296.809 65.107C298.293 64.4604 301.225 63.6145 301.42 64.0624C301.615 64.5102 299 66.0821 297.516 66.7287C296.033 67.3752 296.133 66.9454 295.938 66.4975C295.742 66.0497 295.326 65.7535 296.809 65.107Z" fill="#B0DC7B"/>
<path d="M306.322 58.0983C304.787 58.6099 301.791 59.1908 301.637 58.7274C301.482 58.2639 304.227 56.9316 305.763 56.42C307.298 55.9083 307.16 56.3276 307.314 56.791C307.469 57.2545 307.857 57.5866 306.322 58.0983Z" fill="#B0DC7B"/>
<path d="M305.975 60.4813C304.386 60.1749 301.491 59.2133 301.583 58.7336C301.675 58.2539 304.721 58.4378 306.31 58.7442C307.899 59.0505 307.574 59.3484 307.481 59.8281C307.389 60.3078 307.564 60.7876 305.975 60.4813Z" fill="#B0DC7B"/>
<path d="M296.467 59.7864C297.951 59.1398 300.882 58.294 301.078 58.7418C301.273 59.1896 298.657 60.7616 297.174 61.4081C295.691 62.0547 295.791 61.6248 295.595 61.177C295.4 60.7292 294.984 60.433 296.467 59.7864Z" fill="#B0DC7B"/>
<path d="M296.599 57.3817C298.209 57.5451 301.179 58.2445 301.13 58.7305C301.08 59.2165 298.03 59.3051 296.42 59.1418C294.81 58.9784 295.108 58.6527 295.157 58.1667C295.207 57.6806 294.989 57.2184 296.599 57.3817Z" fill="#B0DC7B"/>
<path d="M307.18 68.5685C305.645 69.0801 302.649 69.661 302.495 69.1976C302.34 68.7341 305.085 67.4018 306.62 66.8902C308.156 66.3785 308.018 66.7978 308.172 67.2612C308.327 67.7247 308.715 68.0569 307.18 68.5685Z" fill="#B0DC7B"/>
<path d="M306.834 70.951C305.245 70.6447 302.349 69.683 302.442 69.2034C302.534 68.7237 305.58 68.9076 307.169 69.2139C308.758 69.5202 308.433 69.8181 308.34 70.2978C308.248 70.7775 308.423 71.2573 306.834 70.951Z" fill="#B0DC7B"/>
<path d="M297.326 70.2564C298.809 69.6098 301.741 68.7639 301.936 69.2118C302.131 69.6596 299.516 71.2315 298.032 71.8781C296.549 72.5247 296.649 72.0948 296.454 71.647C296.259 71.1991 295.842 70.9029 297.326 70.2564Z" fill="#B0DC7B"/>
<path d="M297.457 67.8517C299.067 68.0151 302.037 68.7145 301.988 69.2005C301.939 69.6865 298.889 69.7751 297.279 69.6118C295.669 69.4484 295.967 69.1226 296.016 68.6366C296.065 68.1506 295.847 67.6884 297.457 67.8517Z" fill="#B0DC7B"/>
<path d="M307.351 73.8893C305.816 74.4009 302.82 74.9818 302.666 74.5184C302.511 74.0549 305.257 72.7226 306.792 72.211C308.327 71.6993 308.189 72.1186 308.344 72.582C308.498 73.0455 308.886 73.3777 307.351 73.8893Z" fill="#B0DC7B"/>
<path d="M307.005 76.2723C305.416 75.966 302.52 75.0043 302.613 74.5247C302.705 74.045 305.751 74.2289 307.34 74.5352C308.929 74.8415 308.603 75.1394 308.511 75.6191C308.418 76.0988 308.594 76.5786 307.005 76.2723Z" fill="#B0DC7B"/>
<path d="M297.497 75.5772C298.98 74.9306 301.912 74.0847 302.107 74.5326C302.303 74.9804 299.687 76.5523 298.204 77.1989C296.72 77.8455 296.82 77.4156 296.625 76.9678C296.43 76.5199 296.014 76.2237 297.497 75.5772Z" fill="#B0DC7B"/>
<path d="M297.629 73.1725C299.239 73.3359 302.209 74.0353 302.16 74.5213C302.11 75.0073 299.06 75.0959 297.45 74.9326C295.84 74.7692 296.138 74.4434 296.187 73.9574C296.237 73.4714 296.019 73.0092 297.629 73.1725Z" fill="#B0DC7B"/>
<path d="M306.494 73.8891C304.959 74.4007 301.963 74.9816 301.809 74.5181C301.654 74.0547 304.399 72.7224 305.934 72.2107C307.47 71.6991 307.332 72.1183 307.486 72.5818C307.641 73.0453 308.029 73.3774 306.494 73.8891Z" fill="#B0DC7B"/>
<path d="M306.148 76.272C304.559 75.9657 301.663 75.0041 301.755 74.5244C301.848 74.0447 304.894 74.2286 306.483 74.5349C308.072 74.8413 307.746 75.1392 307.654 75.6189C307.561 76.0985 307.737 76.5784 306.148 76.272Z" fill="#B0DC7B"/>
<path d="M298.925 32.7351C299.497 34.249 300.195 37.2195 299.738 37.3921C299.281 37.5646 297.842 34.8737 297.27 33.3598C296.699 31.8459 297.123 31.9672 297.58 31.7947C298.037 31.6222 298.354 31.2211 298.925 32.7351Z" fill="#B0DC7B"/>
<path d="M301.321 32.9871C301.077 34.5868 300.23 37.5182 299.747 37.4446C299.264 37.371 299.329 34.3203 299.572 32.7206C299.816 31.1208 300.127 31.4345 300.609 31.5081C301.092 31.5817 301.565 31.3873 301.321 32.9871Z" fill="#B0DC7B"/>
<path d="M297.497 75.5772C298.98 74.9306 301.912 74.0847 302.107 74.5326C302.303 74.9804 299.687 76.5523 298.204 77.1989C296.72 77.8455 296.82 77.4156 296.625 76.9678C296.43 76.5199 296.014 76.2237 297.497 75.5772Z" fill="#B0DC7B"/>
<path d="M297.629 73.1725C299.239 73.3359 302.209 74.0353 302.16 74.5213C302.11 75.0073 299.06 75.0959 297.45 74.9326C295.84 74.7692 296.138 74.4434 296.187 73.9574C296.237 73.4714 296.019 73.0092 297.629 73.1725Z" fill="#B0DC7B"/>
<path d="M295.822 86.6426C297.4 86.2854 300.438 86.0037 300.546 86.4802C300.654 86.9566 297.791 88.0108 296.212 88.3681C294.634 88.7253 294.813 88.3217 294.705 87.8453C294.597 87.3688 294.244 86.9998 295.822 86.6426Z" fill="#B0DC7B"/>
<path d="M296.402 84.3055C297.953 84.7676 300.739 86.0109 300.6 86.4791C300.46 86.9473 297.448 86.463 295.897 86.001C294.346 85.539 294.699 85.2747 294.839 84.8066C294.978 84.3384 294.851 83.8435 296.402 84.3055Z" fill="#B0DC7B"/>
<path d="M305.791 81.54C304.187 81.755 301.136 81.7645 301.071 81.2803C301.006 80.7961 303.952 80.0016 305.556 79.7866C307.16 79.5716 306.946 79.9576 307.011 80.4418C307.076 80.926 307.395 81.325 305.791 81.54Z" fill="#B0DC7B"/>
<path d="M305.005 83.816C303.502 83.2175 300.837 81.7304 301.018 81.2766C301.199 80.8227 304.156 81.5739 305.66 82.1724C307.163 82.771 306.787 83.0026 306.607 83.4565C306.426 83.9103 306.509 84.4146 305.005 83.816Z" fill="#B0DC7B"/>
<path d="M299.618 33.8425L302.196 71.4115L298.251 102.372" stroke="#B0DC7B" stroke-width="1.08997"/>
<path d="M249.195 43.7232C247.711 43.0766 244.78 42.2307 244.584 42.6786C244.389 43.1264 247.005 44.6983 248.488 45.3449C249.971 45.9915 249.872 45.5616 250.067 45.1138C250.262 44.6659 250.678 44.3697 249.195 43.7232Z" fill="#B0DC7B"/>
<path d="M249.063 41.3185C247.453 41.4818 244.483 42.1813 244.532 42.6673C244.582 43.1533 247.632 43.2419 249.242 43.0785C250.852 42.9152 250.554 42.5894 250.505 42.1034C250.455 41.6174 250.673 41.1552 249.063 41.3185Z" fill="#B0DC7B"/>
<path d="M239.683 36.7143C241.219 37.2259 244.214 37.8068 244.369 37.3434C244.523 36.8799 241.778 35.5476 240.243 35.0359C238.708 34.5243 238.845 34.9435 238.691 35.407C238.537 35.8705 238.148 36.2026 239.683 36.7143Z" fill="#B0DC7B"/>
<path d="M240.029 39.0972C241.618 38.7909 244.514 37.8293 244.422 37.3496C244.329 36.8699 241.284 37.0538 239.695 37.3601C238.106 37.6665 238.431 37.9644 238.524 38.4441C238.616 38.9237 238.441 39.4036 240.029 39.0972Z" fill="#B0DC7B"/>
<path d="M238.824 47.1845C240.359 47.6961 243.355 48.277 243.509 47.8136C243.664 47.3501 240.919 46.0178 239.383 45.5061C237.848 44.9945 237.986 45.4138 237.832 45.8772C237.677 46.3407 237.289 46.6728 238.824 47.1845Z" fill="#B0DC7B"/>
<path d="M248.679 48.8723C247.196 48.2258 244.264 47.3799 244.069 47.8277C243.874 48.2756 246.489 49.8475 247.972 50.4941C249.456 51.1406 249.356 50.7107 249.551 50.2629C249.746 49.8151 250.163 49.5189 248.679 48.8723Z" fill="#B0DC7B"/>
<path d="M248.547 46.4679C246.937 46.6313 243.967 47.3307 244.016 47.8167C244.066 48.3027 247.116 48.3913 248.726 48.228C250.336 48.0646 250.038 47.7389 249.988 47.2528C249.939 46.7668 250.157 46.3046 248.547 46.4679Z" fill="#B0DC7B"/>
<path d="M238.654 52.5053C240.189 53.0169 243.185 53.5978 243.339 53.1343C243.494 52.6709 240.749 51.3386 239.213 50.8269C237.678 50.3153 237.816 50.7346 237.662 51.198C237.507 51.6615 237.119 51.9936 238.654 52.5053Z" fill="#B0DC7B"/>
<path d="M239 54.8882C240.589 54.5819 243.485 53.6203 243.393 53.1406C243.3 52.6609 240.254 52.8448 238.665 53.1512C237.076 53.4575 237.402 53.7554 237.494 54.2351C237.587 54.7148 237.411 55.1946 239 54.8882Z" fill="#B0DC7B"/>
<path d="M238.654 52.5053C240.189 53.0169 243.185 53.5978 243.339 53.1343C243.494 52.6709 240.749 51.3386 239.213 50.8269C237.678 50.3153 237.816 50.7346 237.662 51.198C237.507 51.6615 237.119 51.9936 238.654 52.5053Z" fill="#B0DC7B"/>
<path d="M239 54.8882C240.589 54.5819 243.485 53.6203 243.393 53.1406C243.3 52.6609 240.254 52.8448 238.665 53.1512C237.076 53.4575 237.402 53.7554 237.494 54.2351C237.587 54.7148 237.411 55.1946 239 54.8882Z" fill="#B0DC7B"/>
<path d="M237.794 63.1469C239.329 63.6585 242.325 64.2394 242.48 63.776C242.634 63.3125 239.889 61.9802 238.354 61.4685C236.818 60.9569 236.956 61.3762 236.802 61.8396C236.647 62.3031 236.259 62.6352 237.794 63.1469Z" fill="#B0DC7B"/>
<path d="M238.14 65.5298C239.729 65.2235 242.625 64.2619 242.533 63.7822C242.44 63.3025 239.394 63.4864 237.805 63.7928C236.216 64.0991 236.542 64.397 236.635 64.8767C236.727 65.3564 236.551 65.8362 238.14 65.5298Z" fill="#B0DC7B"/>
<path d="M247.65 64.8343C246.167 64.1877 243.235 63.3418 243.04 63.7897C242.844 64.2375 245.46 65.8094 246.943 66.456C248.427 67.1025 248.327 66.6727 248.522 66.2248C248.717 65.777 249.133 65.4808 247.65 64.8343Z" fill="#B0DC7B"/>
<path d="M238.14 57.8261C239.675 58.3377 242.67 58.9186 242.825 58.4552C242.979 57.9917 240.234 56.6594 238.699 56.1477C237.164 55.6361 237.302 56.0554 237.147 56.5188C236.993 56.9823 236.604 57.3144 238.14 57.8261Z" fill="#B0DC7B"/>
<path d="M238.486 60.2091C240.074 59.9027 242.97 58.9411 242.878 58.4614C242.785 57.9817 239.74 58.1656 238.151 58.472C236.562 58.7783 236.887 59.0762 236.98 59.5559C237.072 60.0356 236.897 60.5154 238.486 60.2091Z" fill="#B0DC7B"/>
<path d="M247.993 59.5137C246.509 58.8671 243.577 58.0213 243.382 58.4691C243.187 58.9169 245.802 60.4889 247.286 61.1354C248.769 61.782 248.669 61.3521 248.865 60.9043C249.06 60.4565 249.476 60.1603 247.993 59.5137Z" fill="#B0DC7B"/>
<path d="M247.861 57.109C246.251 57.2724 243.281 57.9718 243.33 58.4578C243.38 58.9438 246.43 59.0324 248.04 58.8691C249.65 58.7057 249.352 58.38 249.302 57.894C249.253 57.4079 249.471 56.9457 247.861 57.109Z" fill="#B0DC7B"/>
<path d="M237.281 68.2963C238.816 68.8079 241.811 69.3888 241.966 68.9254C242.12 68.4619 239.375 67.1296 237.84 66.618C236.305 66.1063 236.443 66.5256 236.288 66.989C236.134 67.4525 235.745 67.7846 237.281 68.2963Z" fill="#B0DC7B"/>
<path d="M237.627 70.679C239.216 70.3727 242.112 69.4111 242.019 68.9314C241.927 68.4517 238.881 68.6356 237.292 68.9419C235.703 69.2483 236.028 69.5462 236.121 70.0258C236.213 70.5055 236.038 70.9853 237.627 70.679Z" fill="#B0DC7B"/>
<path d="M247.134 69.9839C245.65 69.3374 242.719 68.4915 242.523 68.9394C242.328 69.3872 244.944 70.9591 246.427 71.6057C247.91 72.2522 247.811 71.8223 248.006 71.3745C248.201 70.9267 248.617 70.6305 247.134 69.9839Z" fill="#B0DC7B"/>
<path d="M247.002 67.5793C245.392 67.7426 242.422 68.442 242.471 68.9281C242.521 69.4141 245.571 69.5027 247.181 69.3393C248.791 69.1759 248.493 68.8502 248.444 68.3642C248.394 67.8782 248.612 67.4159 247.002 67.5793Z" fill="#B0DC7B"/>
<path d="M237.109 73.6171C238.644 74.1287 241.64 74.7096 241.794 74.2462C241.948 73.7827 239.203 72.4504 237.668 71.9388C236.133 71.4271 236.271 71.8464 236.116 72.3098C235.962 72.7733 235.574 73.1054 237.109 73.6171Z" fill="#B0DC7B"/>
<path d="M237.455 76.0001C239.044 75.6937 241.94 74.7321 241.847 74.2524C241.755 73.7727 238.709 73.9566 237.12 74.263C235.531 74.5693 235.857 74.8672 235.949 75.3469C236.042 75.8266 235.866 76.3064 237.455 76.0001Z" fill="#B0DC7B"/>
<path d="M246.963 75.3042C245.48 74.6577 242.548 73.8118 242.353 74.2596C242.157 74.7075 244.773 76.2794 246.256 76.9259C247.74 77.5725 247.64 77.1426 247.835 76.6948C248.03 76.247 248.446 75.9508 246.963 75.3042Z" fill="#B0DC7B"/>
<path d="M246.832 72.9001C245.222 73.0634 242.252 73.7628 242.301 74.2488C242.35 74.7349 245.4 74.8234 247.01 74.6601C248.62 74.4967 248.322 74.171 248.273 73.685C248.224 73.199 248.442 72.7367 246.832 72.9001Z" fill="#B0DC7B"/>
<path d="M237.967 73.6166C239.502 74.1282 242.497 74.7091 242.652 74.2457C242.806 73.7822 240.061 72.4499 238.526 71.9383C236.991 71.4266 237.129 71.8459 236.974 72.3093C236.82 72.7728 236.431 73.105 237.967 73.6166Z" fill="#B0DC7B"/>
<path d="M238.313 75.9996C239.902 75.6932 242.798 74.7316 242.705 74.2519C242.613 73.7723 239.567 73.9562 237.978 74.2625C236.389 74.5688 236.714 74.8667 236.807 75.3464C236.899 75.8261 236.724 76.3059 238.313 75.9996Z" fill="#B0DC7B"/>
<path d="M245.535 32.4629C244.963 33.9768 244.265 36.9473 244.722 37.1198C245.179 37.2924 246.618 34.6015 247.19 33.0876C247.761 31.5736 247.337 31.695 246.88 31.5225C246.423 31.3499 246.106 30.9489 245.535 32.4629Z" fill="#B0DC7B"/>
<path d="M243.139 32.7148C243.383 34.3146 244.23 37.246 244.713 37.1724C245.196 37.0988 245.131 34.0481 244.888 32.4483C244.644 30.8486 244.333 31.1623 243.85 31.2359C243.368 31.3095 242.895 31.1151 243.139 32.7148Z" fill="#B0DC7B"/>
<path d="M246.963 75.3042C245.48 74.6577 242.548 73.8118 242.353 74.2596C242.157 74.7075 244.773 76.2794 246.256 76.9259C247.74 77.5725 247.64 77.1426 247.835 76.6948C248.03 76.247 248.446 75.9508 246.963 75.3042Z" fill="#B0DC7B"/>
<path d="M246.832 72.9001C245.222 73.0634 242.252 73.7628 242.301 74.2488C242.35 74.7349 245.4 74.8234 247.01 74.6601C248.62 74.4967 248.322 74.171 248.273 73.685C248.224 73.199 248.442 72.7367 246.832 72.9001Z" fill="#B0DC7B"/>
<path d="M248.637 86.3704C247.058 86.0132 244.02 85.7315 243.912 86.208C243.804 86.6845 246.668 87.7386 248.246 88.0958C249.824 88.4531 249.646 88.0495 249.754 87.573C249.861 87.0966 250.215 86.7276 248.637 86.3704Z" fill="#B0DC7B"/>
<path d="M248.058 84.0336C246.507 84.4956 243.72 85.739 243.86 86.2072C243.999 86.6754 247.012 86.191 248.563 85.729C250.114 85.267 249.76 85.0028 249.621 84.5346C249.481 84.0664 249.609 83.5716 248.058 84.0336Z" fill="#B0DC7B"/>
<path d="M238.668 81.2673C240.272 81.4823 243.324 81.4918 243.389 81.0076C243.454 80.5235 240.507 79.7289 238.903 79.5139C237.3 79.2989 237.514 79.6849 237.449 80.1691C237.384 80.6533 237.065 81.0523 238.668 81.2673Z" fill="#B0DC7B"/>
<path d="M239.454 83.5436C240.958 82.945 243.622 81.458 243.442 81.0041C243.261 80.5502 240.303 81.3014 238.8 81.9C237.296 82.4985 237.672 82.7301 237.853 83.184C238.033 83.6379 237.951 84.1421 239.454 83.5436Z" fill="#B0DC7B"/>
<path d="M244.842 33.5701L242.265 71.1391L246.209 102.1" stroke="#B0DC7B" stroke-width="1.08997"/>
<path d="M276.354 21.9326L272.949 63.3182L275.456 97.7963" stroke="#B0DC7B" stroke-width="0.544986"/>
<path d="M281.904 25.23C281.696 29.2106 278.891 32.3265 275.637 32.1897C272.384 32.0528 269.915 28.715 270.123 24.7344" stroke="#B0DC7B" stroke-width="0.544986"/>
<path d="M281.291 35.3172C281.084 39.2977 278.278 42.4137 275.025 42.2768C271.771 42.14 269.302 38.8022 269.51 34.8216" stroke="#B0DC7B" stroke-width="0.544986"/>
<path d="M280.346 45.0911C280.138 49.0717 277.332 52.1876 274.079 52.0508C270.825 51.9139 268.356 48.5761 268.564 44.5955" stroke="#B0DC7B" stroke-width="0.544986"/>
<path d="M279.445 55.8811C279.237 59.8617 276.432 62.9777 273.178 62.8408C269.925 62.704 267.456 59.3661 267.664 55.3855" stroke="#B0DC7B" stroke-width="0.544986"/>
<path d="M279.242 65.7088C279.558 69.66 277.183 73.2699 273.938 73.7719C270.694 74.2738 267.808 71.4776 267.492 67.5264" stroke="#B0DC7B" stroke-width="0.544986"/>
<path d="M279.881 76.4659C280.196 80.4171 277.822 84.027 274.577 84.5289C271.332 85.0309 268.446 82.2347 268.131 78.2835" stroke="#B0DC7B" stroke-width="0.544986"/>
<path d="M278.095 20.2496C278.013 21.3861 277.21 22.1556 276.402 22.0971C275.594 22.0385 274.911 21.1611 274.993 20.0246C275.076 18.8881 275.879 18.1186 276.686 18.1772C277.494 18.2357 278.177 19.1131 278.095 20.2496Z" fill="#B0DC7B" stroke="#B0DC7B" stroke-width="0.544986"/>
<path d="M271.612 23.2532C271.53 24.3897 270.727 25.1593 269.919 25.1007C269.111 25.0421 268.428 24.1648 268.51 23.0283C268.593 21.8918 269.396 21.1222 270.203 21.1808C271.011 21.2394 271.695 22.1168 271.612 23.2532Z" fill="#B0DC7B" stroke="#B0DC7B" stroke-width="0.544986"/>
<path d="M283.531 23.5384C283.448 24.6749 282.645 25.4444 281.838 25.3859C281.03 25.3273 280.346 24.4499 280.429 23.3134C280.511 22.177 281.314 21.4074 282.122 21.466C282.929 21.5246 283.613 22.4019 283.531 23.5384Z" fill="#B0DC7B" stroke="#B0DC7B" stroke-width="0.544986"/>
<path d="M271.137 33.0611C271.055 34.1976 270.252 34.9672 269.444 34.9086C268.636 34.85 267.953 33.9726 268.035 32.8362C268.118 31.6997 268.921 30.9301 269.728 30.9887C270.536 31.0473 271.219 31.9246 271.137 33.0611Z" fill="#B0DC7B" stroke="#B0DC7B" stroke-width="0.544986"/>
<path d="M283.066 33.2025C282.984 34.3389 282.181 35.1085 281.373 35.0499C280.565 34.9914 279.882 34.114 279.964 32.9775C280.047 31.841 280.85 31.0715 281.657 31.13C282.465 31.1886 283.149 32.066 283.066 33.2025Z" fill="#B0DC7B" stroke="#B0DC7B" stroke-width="0.544986"/>
<path d="M281.092 53.9019C281.01 55.0384 280.207 55.808 279.399 55.7494C278.591 55.6908 277.908 54.8135 277.99 53.677C278.073 52.5405 278.876 51.7709 279.683 51.8295C280.491 51.8881 281.175 52.7654 281.092 53.9019Z" fill="#B0DC7B" stroke="#B0DC7B" stroke-width="0.544986"/>
<path d="M269.399 53.7774C269.316 54.9139 268.513 55.6835 267.706 55.6249C266.898 55.5663 266.215 54.6889 266.297 53.5525C266.379 52.416 267.182 51.6464 267.99 51.705C268.798 51.7636 269.481 52.6409 269.399 53.7774Z" fill="#B0DC7B" stroke="#B0DC7B" stroke-width="0.544986"/>
<path d="M282.657 43.7388C282.574 44.8753 281.771 45.6449 280.963 45.5863C280.156 45.5277 279.472 44.6504 279.555 43.5139C279.637 42.3774 280.44 41.6078 281.248 41.6664C282.055 41.725 282.739 42.6024 282.657 43.7388Z" fill="#B0DC7B" stroke="#B0DC7B" stroke-width="0.544986"/>
<path d="M270.181 42.9786C270.099 44.1151 269.296 44.8846 268.488 44.8261C267.681 44.7675 266.997 43.8901 267.08 42.7536C267.162 41.6172 267.965 40.8476 268.773 40.9062C269.58 40.9647 270.264 41.8421 270.181 42.9786Z" fill="#B0DC7B" stroke="#B0DC7B" stroke-width="0.544986"/>
<path d="M269.227 65.9232C269.144 67.0596 268.341 67.8292 267.534 67.7706C266.726 67.7121 266.043 66.8347 266.125 65.6982C266.207 64.5617 267.01 63.7922 267.818 63.8507C268.626 63.9093 269.309 64.7867 269.227 65.9232Z" fill="#B0DC7B" stroke="#B0DC7B" stroke-width="0.544986"/>
<path d="M281.184 64.0401C281.102 65.1766 280.299 65.9462 279.491 65.8876C278.684 65.829 278 64.9516 278.083 63.8152C278.165 62.6787 278.968 61.9091 279.776 61.9677C280.583 62.0263 281.267 62.9036 281.184 64.0401Z" fill="#B0DC7B" stroke="#B0DC7B" stroke-width="0.544986"/>
<path d="M269.779 76.2396C269.696 77.3761 268.893 78.1456 268.086 78.087C267.278 78.0285 266.594 77.1511 266.677 76.0146C266.759 74.8781 267.562 74.1086 268.37 74.1671C269.178 74.2257 269.861 75.1031 269.779 76.2396Z" fill="#B0DC7B" stroke="#B0DC7B" stroke-width="0.544986"/>
<path d="M281.94 74.806C281.858 75.9425 281.055 76.712 280.247 76.6535C279.44 76.5949 278.756 75.7175 278.838 74.581C278.921 73.4445 279.724 72.675 280.531 72.7336C281.339 72.7921 282.023 73.6695 281.94 74.806Z" fill="#B0DC7B" stroke="#B0DC7B" stroke-width="0.544986"/>
<path d="M191.489 29.8257C169.95 85.1293 186.967 98.015 198.168 97.5449" stroke="#B0DC7B" stroke-width="1.08997"/>
<path d="M181.36 68.4976C179.729 50.6901 174.265 45.5569 171.737 45.2162" stroke="#B0DC7B" stroke-width="1.08997"/>
<path d="M199.447 61.2942C183.527 69.4384 180.798 76.4212 181.423 78.8945" stroke="#B0DC7B" stroke-width="1.08997"/>
<g style="mix-blend-mode:overlay">
<g style="mix-blend-mode:exclusion">
<circle r="5.2076" transform="matrix(0.714504 -0.699632 0.69963 0.714506 188.004 25.8128)" fill="#FFEC43"/>
</g>
<g style="mix-blend-mode:exclusion">
<circle r="5.2076" transform="matrix(0.714504 -0.699632 0.69963 0.714505 193.788 24.8555)" fill="#FFEC43"/>
</g>
<g style="mix-blend-mode:exclusion">
<circle r="5.2076" transform="matrix(0.714506 -0.69963 0.699632 0.714504 197.159 30.6964)" fill="#FFEC43"/>
</g>
<g style="mix-blend-mode:exclusion">
<circle r="5.2076" transform="matrix(0.714504 -0.699632 0.69963 0.714505 192.471 35.0787)" fill="#FFEC43"/>
</g>
<g style="mix-blend-mode:exclusion">
<circle r="5.2076" transform="matrix(0.714506 -0.699629 0.699632 0.714503 187.117 32.8865)" fill="#FFEC43"/>
</g>
</g>
<g style="mix-blend-mode:overlay">
<g style="mix-blend-mode:exclusion">
<circle cx="168.931" cy="42.4132" r="3.48896" transform="rotate(-44.3974 168.931 42.4132)" fill="#FFEC43"/>
</g>
<g style="mix-blend-mode:exclusion">
<circle cx="172.806" cy="41.7721" r="3.48896" transform="rotate(-44.3974 172.806 41.7721)" fill="#FFEC43"/>
</g>
<g style="mix-blend-mode:exclusion">
<circle cx="175.065" cy="45.6852" r="3.48896" transform="rotate(-44.3974 175.065 45.6852)" fill="#FFEC43"/>
</g>
<g style="mix-blend-mode:exclusion">
<circle cx="171.924" cy="48.6212" r="3.48896" transform="rotate(-44.3974 171.924 48.6212)" fill="#FFEC43"/>
</g>
<g style="mix-blend-mode:exclusion">
<circle cx="168.337" cy="47.1522" r="3.48896" transform="rotate(-44.3974 168.337 47.1522)" fill="#FFEC43"/>
</g>
</g>
<g style="mix-blend-mode:overlay">
<g style="mix-blend-mode:exclusion">
<circle cx="196.726" cy="59.0353" r="3.48896" transform="rotate(-44.3974 196.726 59.0353)" fill="#FFEC43"/>
</g>
<g style="mix-blend-mode:exclusion">
<circle cx="200.601" cy="58.3942" r="3.48896" transform="rotate(-44.3974 200.601 58.3942)" fill="#FFEC43"/>
</g>
<g style="mix-blend-mode:exclusion">
<circle cx="202.859" cy="62.3073" r="3.48896" transform="rotate(-44.3974 202.859 62.3073)" fill="#FFEC43"/>
</g>
<g style="mix-blend-mode:exclusion">
<circle cx="199.718" cy="65.2433" r="3.48896" transform="rotate(-44.3974 199.718 65.2433)" fill="#FFEC43"/>
</g>
<g style="mix-blend-mode:exclusion">
<circle cx="196.132" cy="63.7743" r="3.48896" transform="rotate(-44.3974 196.132 63.7743)" fill="#FFEC43"/>
</g>
</g>
<path d="M395.268 33.1548L392.626 71.6583L396.669 103.389" stroke="#B0DC7B" stroke-width="1.11708"/>
<path d="M348.047 29.0374C370.123 85.7167 352.682 98.9229 341.202 98.441" stroke="#B0DC7B" stroke-width="1.11708"/>
<path d="M358.429 68.6714C360.1 50.421 365.7 45.1601 368.292 44.8109" stroke="#B0DC7B" stroke-width="1.11708"/>
<path d="M339.892 61.2888C356.208 69.6357 359.005 76.7921 358.364 79.327" stroke="#B0DC7B" stroke-width="1.11708"/>
<g style="mix-blend-mode:overlay">
<g style="mix-blend-mode:exclusion">
<circle r="5.33713" transform="matrix(-0.714505 -0.699631 -0.699631 0.714505 351.695 24.6455)" fill="#FFEC43"/>
</g>
<g style="mix-blend-mode:exclusion">
<circle r="5.33713" transform="matrix(-0.714505 -0.699631 -0.699631 0.714505 345.767 23.6646)" fill="#FFEC43"/>
</g>
<g style="mix-blend-mode:exclusion">
<circle r="5.33713" transform="matrix(-0.714505 -0.699631 -0.699631 0.714505 342.312 29.6507)" fill="#FFEC43"/>
</g>
<g style="mix-blend-mode:exclusion">
<circle r="5.33713" transform="matrix(-0.714505 -0.699631 -0.699631 0.714505 347.117 34.1421)" fill="#FFEC43"/>
</g>
<g style="mix-blend-mode:exclusion">
<circle r="5.33713" transform="matrix(-0.714505 -0.699631 -0.699631 0.714505 352.603 31.8953)" fill="#FFEC43"/>
</g>
</g>
<g style="mix-blend-mode:overlay">
<g style="mix-blend-mode:exclusion">
<circle r="3.57575" transform="matrix(-0.714505 -0.699631 -0.699631 0.714505 371.242 41.6591)" fill="#FFEC43"/>
</g>
<g style="mix-blend-mode:exclusion">
<circle r="3.57575" transform="matrix(-0.714505 -0.699631 -0.699631 0.714505 367.27 41.0019)" fill="#FFEC43"/>
</g>
<g style="mix-blend-mode:exclusion">
<circle r="3.57575" transform="matrix(-0.714505 -0.699631 -0.699631 0.714505 364.956 45.0124)" fill="#FFEC43"/>
</g>
<g style="mix-blend-mode:exclusion">
<circle r="3.57575" transform="matrix(-0.714505 -0.699631 -0.699631 0.714505 368.175 48.0214)" fill="#FFEC43"/>
</g>
<g style="mix-blend-mode:exclusion">
<circle r="3.57575" transform="matrix(-0.714505 -0.699631 -0.699631 0.714505 371.851 46.5163)" fill="#FFEC43"/>
</g>
</g>
<g style="mix-blend-mode:overlay">
<g style="mix-blend-mode:exclusion">
<circle r="3.57575" transform="matrix(-0.714505 -0.699631 -0.699631 0.714505 342.756 58.6948)" fill="#FFEC43"/>
</g>
<g style="mix-blend-mode:exclusion">
<circle r="3.57575" transform="matrix(-0.714505 -0.699631 -0.699631 0.714505 338.785 58.0376)" fill="#FFEC43"/>
</g>
<g style="mix-blend-mode:exclusion">
<circle r="3.57575" transform="matrix(-0.714505 -0.699631 -0.699631 0.714505 336.47 62.0481)" fill="#FFEC43"/>
</g>
<g style="mix-blend-mode:exclusion">
<circle r="3.57575" transform="matrix(-0.714505 -0.699631 -0.699631 0.714505 339.69 65.0571)" fill="#FFEC43"/>
</g>
<g style="mix-blend-mode:exclusion">
<circle r="3.57575" transform="matrix(-0.714505 -0.699631 -0.699631 0.714505 343.365 63.5517)" fill="#FFEC43"/>
</g>
</g>
</svg>
