<svg width="375" height="162" viewBox="0 0 375 162" fill="none" xmlns="http://www.w3.org/2000/svg">
<path d="M202.913 93.8518C202.913 79.3464 214.672 67.5874 229.177 67.5874C243.683 67.5874 255.441 79.3464 255.441 93.8518" stroke="#615EDE"/>
<path d="M208.166 93.8518C208.166 82.2475 217.573 72.8403 229.177 72.8403C240.781 72.8403 250.188 82.2475 250.188 93.8518" stroke="#615EDE"/>
<path d="M213.419 93.8518C213.419 85.1485 220.474 78.0931 229.178 78.0931C237.881 78.0931 244.936 85.1485 244.936 93.8518" stroke="#615EDE"/>
<path d="M218.672 93.8517C218.672 88.0495 223.375 83.3459 229.177 83.3459C234.98 83.3459 239.683 88.0495 239.683 93.8517" stroke="#615EDE"/>
<path d="M179.275 116.439C179.275 101.934 191.034 90.1748 205.54 90.1748C220.045 90.1748 231.804 101.934 231.804 116.439" stroke="#615EDE"/>
<path d="M184.528 116.439C184.528 104.835 193.935 95.4276 205.539 95.4276C217.144 95.4276 226.551 104.835 226.551 116.439" stroke="#615EDE"/>
<path d="M189.781 116.439C189.781 107.736 196.836 100.68 205.539 100.68C214.243 100.68 221.298 107.736 221.298 116.439" stroke="#615EDE"/>
<path d="M195.034 116.439C195.034 110.637 199.738 105.933 205.54 105.933C211.342 105.933 216.045 110.637 216.045 116.439" stroke="#615EDE"/>
<path d="M132 116.439C132 101.934 143.759 90.1748 158.264 90.1748C172.769 90.1748 184.528 101.934 184.528 116.439" stroke="#615EDE"/>
<path d="M137.252 116.439C137.252 104.835 146.659 95.4276 158.264 95.4276C169.868 95.4276 179.275 104.835 179.275 116.439" stroke="#615EDE"/>
<path d="M142.505 116.439C142.505 107.736 149.561 100.68 158.264 100.68C166.967 100.68 174.022 107.736 174.022 116.439" stroke="#615EDE"/>
<path d="M147.758 116.439C147.758 110.637 152.462 105.933 158.264 105.933C164.066 105.933 168.77 110.637 168.77 116.439" stroke="#615EDE"/>
<path d="M226.551 116.439C226.551 101.934 238.31 90.1748 252.815 90.1748C267.32 90.1748 279.079 101.934 279.079 116.439" stroke="#615EDE"/>
<path d="M231.803 116.439C231.803 104.835 241.211 95.4276 252.815 95.4276C264.419 95.4276 273.826 104.835 273.826 116.439" stroke="#615EDE"/>
<path d="M237.056 116.439C237.056 107.736 244.112 100.68 252.815 100.68C261.518 100.68 268.573 107.736 268.573 116.439" stroke="#615EDE"/>
<path d="M242.309 116.439C242.309 110.637 247.012 105.933 252.815 105.933C258.617 105.933 263.32 110.637 263.32 116.439" stroke="#615EDE"/>
<path d="M155.638 93.8518C155.638 79.3464 167.396 67.5874 181.902 67.5874C196.407 67.5874 208.166 79.3464 208.166 93.8518" stroke="#615EDE"/>
<path d="M160.89 93.8518C160.89 82.2475 170.297 72.8403 181.902 72.8403C193.506 72.8403 202.913 82.2475 202.913 93.8518" stroke="#615EDE"/>
<path d="M166.144 93.8518C166.144 85.1485 173.199 78.0931 181.902 78.0931C190.605 78.0931 197.661 85.1485 197.661 93.8518" stroke="#615EDE"/>
<path d="M171.396 93.8517C171.396 88.0495 176.099 83.3459 181.902 83.3459C187.704 83.3459 192.407 88.0495 192.407 93.8517" stroke="#615EDE"/>
<path d="M321.102 116.439C321.102 101.934 332.861 90.1748 347.366 90.1748C361.871 90.1748 373.63 101.934 373.63 116.439" stroke="#615EDE"/>
<path d="M326.355 116.439C326.355 104.835 335.762 95.4276 347.367 95.4276C358.971 95.4276 368.378 104.835 368.378 116.439" stroke="#615EDE"/>
<path d="M331.608 116.439C331.608 107.736 338.663 100.68 347.366 100.68C356.07 100.68 363.125 107.736 363.125 116.439" stroke="#615EDE"/>
<path d="M336.86 116.439C336.86 110.637 341.564 105.933 347.366 105.933C353.168 105.933 357.872 110.637 357.872 116.439" stroke="#615EDE"/>
<path d="M297.464 139.027C297.464 124.521 309.223 112.762 323.728 112.762C338.233 112.762 349.992 124.521 349.992 139.027" stroke="#615EDE"/>
<path d="M302.717 139.027C302.717 127.422 312.124 118.015 323.728 118.015C335.333 118.015 344.74 127.422 344.74 139.027" stroke="#615EDE"/>
<path d="M307.97 139.026C307.97 130.323 315.025 123.268 323.728 123.268C332.431 123.268 339.487 130.323 339.487 139.026" stroke="#615EDE"/>
<path d="M313.223 139.027C313.223 133.224 317.927 128.521 323.729 128.521C329.531 128.521 334.234 133.224 334.234 139.027" stroke="#615EDE"/>
<path d="M250.189 139.027C250.189 124.521 261.948 112.762 276.453 112.762C290.958 112.762 302.717 124.521 302.717 139.027" stroke="#615EDE"/>
<path d="M255.442 139.027C255.442 127.422 264.849 118.015 276.453 118.015C288.057 118.015 297.464 127.422 297.464 139.027" stroke="#615EDE"/>
<path d="M260.694 139.026C260.694 130.323 267.75 123.268 276.453 123.268C285.156 123.268 292.211 130.323 292.211 139.026" stroke="#615EDE"/>
<path d="M265.947 139.027C265.947 133.224 270.651 128.521 276.453 128.521C282.255 128.521 286.958 133.224 286.958 139.027" stroke="#615EDE"/>
<path d="M344.74 139.027C344.74 124.521 356.499 112.762 371.004 112.762C385.509 112.762 397.268 124.521 397.268 139.027" stroke="#615EDE"/>
<path d="M349.992 139.027C349.992 127.422 359.4 118.015 371.004 118.015C382.608 118.015 392.015 127.422 392.015 139.027" stroke="#615EDE"/>
<path d="M355.246 139.026C355.246 130.323 362.301 123.268 371.004 123.268C379.707 123.268 386.763 130.323 386.763 139.026" stroke="#615EDE"/>
<path d="M360.498 139.027C360.498 133.224 365.202 128.521 371.004 128.521C376.806 128.521 381.51 133.224 381.51 139.027" stroke="#615EDE"/>
<path d="M273.827 116.439C273.827 101.934 285.585 90.1748 300.091 90.1748C314.596 90.1748 326.355 101.934 326.355 116.439" stroke="#615EDE"/>
<path d="M279.079 116.439C279.079 104.835 288.486 95.4276 300.091 95.4276C311.695 95.4276 321.102 104.835 321.102 116.439" stroke="#615EDE"/>
<path d="M284.332 116.439C284.332 107.736 291.387 100.68 300.091 100.68C308.794 100.68 315.849 107.736 315.849 116.439" stroke="#615EDE"/>
<path d="M289.585 116.439C289.585 110.637 294.288 105.933 300.091 105.933C305.893 105.933 310.596 110.637 310.596 116.439" stroke="#615EDE"/>
<path d="M321.102 71.2644C321.102 56.759 332.861 45 347.366 45C361.871 45 373.63 56.759 373.63 71.2644" stroke="#615EDE"/>
<path d="M326.355 71.2643C326.355 59.66 335.762 50.2528 347.367 50.2528C358.971 50.2528 368.378 59.66 368.378 71.2643" stroke="#615EDE"/>
<path d="M331.608 71.2644C331.608 62.5611 338.663 55.5057 347.366 55.5057C356.07 55.5057 363.125 62.5611 363.125 71.2644" stroke="#615EDE"/>
<path d="M336.86 71.2643C336.86 65.4621 341.564 60.7585 347.366 60.7585C353.168 60.7585 357.872 65.4621 357.872 71.2643" stroke="#615EDE"/>
<path d="M297.464 93.8518C297.464 79.3464 309.223 67.5874 323.728 67.5874C338.233 67.5874 349.992 79.3464 349.992 93.8518" stroke="#615EDE"/>
<path d="M302.717 93.8518C302.717 82.2475 312.124 72.8403 323.728 72.8403C335.333 72.8403 344.74 82.2475 344.74 93.8518" stroke="#615EDE"/>
<path d="M307.97 93.8518C307.97 85.1485 315.025 78.0931 323.728 78.0931C332.431 78.0931 339.487 85.1485 339.487 93.8518" stroke="#615EDE"/>
<path d="M313.223 93.8517C313.223 88.0495 317.927 83.3459 323.729 83.3459C329.531 83.3459 334.234 88.0495 334.234 93.8517" stroke="#615EDE"/>
<path d="M250.189 93.8518C250.189 79.3464 261.948 67.5874 276.453 67.5874C290.958 67.5874 302.717 79.3464 302.717 93.8518" stroke="#615EDE"/>
<path d="M255.442 93.8518C255.442 82.2475 264.849 72.8403 276.453 72.8403C288.057 72.8403 297.464 82.2475 297.464 93.8518" stroke="#615EDE"/>
<path d="M260.694 93.8518C260.694 85.1485 267.75 78.0931 276.453 78.0931C285.156 78.0931 292.211 85.1485 292.211 93.8518" stroke="#615EDE"/>
<path d="M265.947 93.8517C265.947 88.0495 270.651 83.3459 276.453 83.3459C282.255 83.3459 286.958 88.0495 286.958 93.8517" stroke="#615EDE"/>
<path d="M344.74 93.8518C344.74 79.3464 356.499 67.5874 371.004 67.5874C385.509 67.5874 397.268 79.3464 397.268 93.8518" stroke="#615EDE"/>
<path d="M349.992 93.8518C349.992 82.2475 359.4 72.8403 371.004 72.8403C382.608 72.8403 392.015 82.2475 392.015 93.8518" stroke="#615EDE"/>
<path d="M355.246 93.8518C355.246 85.1485 362.301 78.0931 371.004 78.0931C379.707 78.0931 386.763 85.1485 386.763 93.8518" stroke="#615EDE"/>
<path d="M360.498 93.8517C360.498 88.0495 365.202 83.3459 371.004 83.3459C376.806 83.3459 381.51 88.0495 381.51 93.8517" stroke="#615EDE"/>
<path d="M273.827 71.2644C273.827 56.759 285.585 45 300.091 45C314.596 45 326.355 56.759 326.355 71.2644" stroke="#615EDE"/>
<path d="M279.079 71.2643C279.079 59.66 288.486 50.2528 300.091 50.2528C311.695 50.2528 321.102 59.66 321.102 71.2643" stroke="#615EDE"/>
<path d="M284.332 71.2644C284.332 62.5611 291.387 55.5057 300.091 55.5057C308.794 55.5057 315.849 62.5611 315.849 71.2644" stroke="#615EDE"/>
<path d="M289.585 71.2643C289.585 65.4621 294.288 60.7585 300.091 60.7585C305.893 60.7585 310.596 65.4621 310.596 71.2643" stroke="#615EDE"/>
<path fill-rule="evenodd" clip-rule="evenodd" d="M147.78 112.531H36.2017V112.53C36.2015 79.9995 36.2014 64.9998 56 66.4998C57.0717 30.0634 109.5 34 109.5 58.9999C115.751 39.5838 162.542 35.0033 172.613 65.4346C178.013 62.2498 183.017 61.3921 187.58 62.2103C200.029 35.9553 246.216 31.8506 256.432 62.5565C261.28 49.6714 303.5 33.4999 316 69.813C331 62.5565 339 75.5054 339 112.636H147.777C147.778 112.601 147.779 112.566 147.78 112.531Z" fill="#FACEBC"/>
<path d="M147.78 112.531L150.778 112.635L150.886 109.531H147.78V112.531ZM36.2017 112.531H33.2017V115.531H36.2017V112.531ZM36.2017 112.53H39.2017V112.53L36.2017 112.53ZM56 66.4998L55.7734 69.4912L58.9063 69.7286L58.9987 66.588L56 66.4998ZM109.5 58.9999H106.5L112.356 59.9193L109.5 58.9999ZM172.613 65.4346L169.765 66.3771L170.933 69.908L174.137 68.0187L172.613 65.4346ZM187.58 62.2103L187.051 65.1632L189.308 65.568L190.291 63.4956L187.58 62.2103ZM256.432 62.5565L253.586 63.5036L256.258 71.5374L259.24 63.6129L256.432 62.5565ZM316 69.813L313.164 70.7895L314.264 73.9856L317.307 72.5136L316 69.813ZM339 112.636V115.636H342V112.636H339ZM147.777 112.636L144.778 112.537L144.676 115.636H147.777V112.636ZM147.78 109.531H36.2017V115.531H147.78V109.531ZM39.2017 112.531V112.53H33.2017V112.531H39.2017ZM39.2017 112.53C39.2016 104.372 39.2025 97.4215 39.5069 91.5585C39.8126 85.6713 40.4166 81.1109 41.5299 77.6792C42.6254 74.3023 44.1333 72.2591 46.1197 71.0436C48.1594 69.7956 51.1559 69.1414 55.7734 69.4912L56.2266 63.5084C50.9448 63.1082 46.5169 63.7665 42.9882 65.9256C39.4063 68.1173 37.202 71.5759 35.8227 75.8277C34.4612 80.0247 33.8279 85.2199 33.5149 91.2474C33.2007 97.2991 33.2016 104.422 33.2017 112.53L39.2017 112.53ZM58.9987 66.588C59.2435 58.266 62.3824 52.4931 66.7696 48.7136C71.2211 44.8786 77.1775 42.9139 83.2528 42.7095C89.3411 42.5047 95.2851 44.0783 99.6178 46.9908C103.894 49.8656 106.5 53.9414 106.5 58.9999H112.5C112.5 51.5585 108.552 45.7673 102.965 42.0113C97.434 38.2931 90.2039 36.4723 83.0511 36.7129C75.8854 36.954 68.5336 39.2744 62.8534 44.1678C57.1089 49.1167 53.2924 56.5154 53.0013 66.4116L58.9987 66.588ZM112.356 59.9193C113.588 56.0919 116.935 52.6876 121.913 50.2234C126.86 47.7747 133.128 46.4153 139.574 46.5241C152.521 46.7425 165.264 52.7754 169.765 66.3771L175.461 64.4921C169.892 47.6625 154.203 40.77 139.675 40.5249C132.382 40.4019 125.151 41.9262 119.252 44.8461C113.384 47.7505 108.538 52.1998 106.645 58.0806L112.356 59.9193ZM174.137 68.0187C179.01 65.1451 183.292 64.4892 187.051 65.1632L188.109 59.2574C182.743 58.2951 177.017 59.3546 171.089 62.8505L174.137 68.0187ZM259.279 61.6094C253.64 44.6605 238.062 37.5242 222.746 38.0246C207.524 38.5219 191.685 46.5506 184.869 60.9249L190.291 63.4956C195.924 51.6149 209.403 44.4638 222.941 44.0214C236.385 43.5822 249.008 49.7466 253.586 63.5036L259.279 61.6094ZM318.837 68.8365C315.508 59.1675 310.103 52.754 303.616 48.9583C297.17 45.1865 289.915 44.1486 283.085 44.7468C276.264 45.3442 269.726 47.5813 264.54 50.5426C259.476 53.4334 255.202 57.3076 253.624 61.5001L259.24 63.6129C260.086 61.3629 262.907 58.3837 267.514 55.7531C271.998 53.1931 277.706 51.2409 283.608 50.724C289.502 50.2078 295.448 51.1304 300.586 54.1369C305.683 57.1195 310.242 62.3019 313.164 70.7895L318.837 68.8365ZM342 112.636C342 94.0484 340.031 80.8284 335.747 73.1219C333.547 69.1624 330.573 66.3717 326.706 65.3254C322.896 64.2947 318.812 65.1201 314.694 67.1124L317.307 72.5136C320.688 70.8776 323.229 70.6005 325.138 71.1171C326.99 71.6182 328.829 73.0248 330.503 76.0369C333.969 82.2734 336 94.0934 336 112.636H342ZM147.777 115.636H339V109.636H147.777V115.636ZM144.782 112.426C144.781 112.464 144.779 112.501 144.778 112.537L150.775 112.735C150.776 112.702 150.777 112.668 150.778 112.635L144.782 112.426Z" fill="#FEDAD0"/>
<path d="M60.2404 99V97.41H61.5004C61.7804 97.41 62.0304 97.37 62.2504 97.29C62.4904 97.21 62.6804 97.04 62.8204 96.78C62.9604 96.52 63.0304 96.13 63.0304 95.61V81C63.0304 80.46 62.9604 80.06 62.8204 79.8C62.6804 79.54 62.4904 79.37 62.2504 79.29C62.0304 79.21 61.7804 79.17 61.5004 79.17H60.2404V77.58H69.9004C71.8004 77.58 73.3504 77.79 74.5504 78.21C75.7704 78.63 76.6704 79.26 77.2504 80.1C77.8304 80.92 78.1204 81.93 78.1204 83.13C78.1204 84.19 77.9204 85.09 77.5204 85.83C77.1204 86.57 76.6104 87.18 75.9904 87.66C75.3704 88.14 74.7204 88.52 74.0404 88.8L77.6104 94.95C77.8704 95.39 78.1204 95.77 78.3604 96.09C78.6004 96.39 78.8304 96.64 79.0504 96.84C79.2904 97.04 79.5404 97.19 79.8004 97.29C80.0604 97.37 80.3304 97.41 80.6104 97.41H80.7304V99H79.7404C78.8404 99 78.0504 98.97 77.3704 98.91C76.7104 98.83 76.1304 98.7 75.6304 98.52C75.1504 98.32 74.7204 98.04 74.3404 97.68C73.9604 97.32 73.6204 96.86 73.3204 96.3L69.7504 89.7H67.7704V95.61C67.7704 96.13 67.8404 96.52 67.9804 96.78C68.1204 97.04 68.3104 97.21 68.5504 97.29C68.7904 97.37 69.0404 97.41 69.3004 97.41H70.5904V99H60.2404ZM69.4504 87.96C70.3704 87.96 71.0904 87.8 71.6104 87.48C72.1504 87.14 72.5304 86.65 72.7504 86.01C72.9704 85.35 73.0804 84.53 73.0804 83.55C73.0804 82.53 72.9604 81.72 72.7204 81.12C72.4804 80.5 72.0904 80.05 71.5504 79.77C71.0104 79.49 70.2904 79.35 69.3904 79.35H67.7704V87.96H69.4504ZM89.7913 99.3C87.2513 99.3 85.3213 98.58 84.0013 97.14C82.6813 95.68 82.0213 93.65 82.0213 91.05C82.0213 88.23 82.6713 86.11 83.9713 84.69C85.2713 83.25 87.1013 82.53 89.4613 82.53C91.6413 82.53 93.3513 83.14 94.5913 84.36C95.8513 85.58 96.4813 87.38 96.4813 89.76V91.29H86.6413C86.6813 92.63 86.8613 93.73 87.1813 94.59C87.5013 95.43 87.9513 96.05 88.5313 96.45C89.1313 96.85 89.8413 97.05 90.6613 97.05C91.3613 97.05 91.9813 96.95 92.5213 96.75C93.0813 96.53 93.5613 96.24 93.9613 95.88C94.3613 95.5 94.6713 95.08 94.8913 94.62C95.1713 94.76 95.3713 94.96 95.4913 95.22C95.6313 95.46 95.7013 95.75 95.7013 96.09C95.7013 96.65 95.4913 97.18 95.0713 97.68C94.6513 98.16 94.0013 98.55 93.1213 98.85C92.2613 99.15 91.1513 99.3 89.7913 99.3ZM91.8913 89.37C91.8913 88.35 91.8113 87.48 91.6513 86.76C91.4913 86.02 91.2413 85.46 90.9013 85.08C90.5613 84.68 90.1013 84.48 89.5213 84.48C88.9613 84.48 88.4713 84.67 88.0513 85.05C87.6513 85.41 87.3313 85.96 87.0913 86.7C86.8713 87.42 86.7413 88.31 86.7013 89.37H91.8913ZM98.26 99V97.41H98.62C98.92 97.41 99.23 97.37 99.55 97.29C99.89 97.19 100.17 97 100.39 96.72C100.63 96.44 100.75 96.02 100.75 95.46V79.62C100.75 79.08 100.63 78.68 100.39 78.42C100.15 78.16 99.86 77.99 99.52 77.91C99.2 77.83 98.9 77.79 98.62 77.79H98.26V76.2H105.31V95.46C105.31 96.02 105.42 96.44 105.64 96.72C105.88 97 106.17 97.19 106.51 97.29C106.85 97.37 107.16 97.41 107.44 97.41H107.8V99H98.26ZM114.357 99.3C113.477 99.3 112.677 99.13 111.957 98.79C111.257 98.43 110.697 97.89 110.277 97.17C109.857 96.43 109.647 95.51 109.647 94.41C109.647 92.79 110.207 91.59 111.327 90.81C112.447 90.03 114.127 89.6 116.367 89.52L118.827 89.43V87.78C118.827 87.1 118.787 86.51 118.707 86.01C118.627 85.49 118.457 85.09 118.197 84.81C117.937 84.51 117.527 84.36 116.967 84.36C116.467 84.36 116.067 84.5 115.767 84.78C115.467 85.06 115.257 85.45 115.137 85.95C115.017 86.43 114.957 86.98 114.957 87.6C113.617 87.6 112.607 87.45 111.927 87.15C111.247 86.85 110.907 86.33 110.907 85.59C110.907 84.85 111.187 84.26 111.747 83.82C112.307 83.38 113.057 83.06 113.997 82.86C114.937 82.64 115.967 82.53 117.087 82.53C119.187 82.53 120.757 82.91 121.797 83.67C122.857 84.43 123.387 85.75 123.387 87.63V95.28C123.387 95.82 123.437 96.25 123.537 96.57C123.657 96.87 123.847 97.09 124.107 97.23C124.387 97.35 124.747 97.41 125.187 97.41H125.307V99H119.727L119.097 96.93H118.827C118.387 97.47 117.967 97.92 117.567 98.28C117.187 98.62 116.747 98.87 116.247 99.03C115.747 99.21 115.117 99.3 114.357 99.3ZM116.007 97.11C116.587 97.11 117.087 96.96 117.507 96.66C117.927 96.34 118.247 95.89 118.467 95.31C118.707 94.73 118.827 94.05 118.827 93.27V91.02L117.477 91.11C116.677 91.15 116.047 91.31 115.587 91.59C115.127 91.85 114.797 92.23 114.597 92.73C114.397 93.21 114.297 93.81 114.297 94.53C114.297 95.09 114.357 95.57 114.477 95.97C114.597 96.35 114.787 96.64 115.047 96.84C115.307 97.02 115.627 97.11 116.007 97.11ZM133.546 99.3C132.206 99.3 131.136 98.95 130.336 98.25C129.536 97.55 129.136 96.32 129.136 94.56V84.96H126.886V83.43C127.526 83.43 128.096 83.3 128.596 83.04C129.116 82.78 129.526 82.49 129.826 82.17C130.126 81.85 130.396 81.45 130.636 80.97C130.876 80.47 131.066 79.88 131.206 79.2H133.696V82.92H137.536V84.96H133.696V94.26C133.696 95.16 133.846 95.82 134.146 96.24C134.466 96.66 134.976 96.87 135.676 96.87C136.076 96.87 136.446 96.85 136.786 96.81C137.146 96.75 137.486 96.68 137.806 96.6V98.55C137.486 98.69 136.956 98.85 136.216 99.03C135.496 99.21 134.606 99.3 133.546 99.3ZM147.594 99.3C145.054 99.3 143.124 98.58 141.804 97.14C140.484 95.68 139.824 93.65 139.824 91.05C139.824 88.23 140.474 86.11 141.774 84.69C143.074 83.25 144.904 82.53 147.264 82.53C149.444 82.53 151.154 83.14 152.394 84.36C153.654 85.58 154.284 87.38 154.284 89.76V91.29H144.444C144.484 92.63 144.664 93.73 144.984 94.59C145.304 95.43 145.754 96.05 146.334 96.45C146.934 96.85 147.644 97.05 148.464 97.05C149.164 97.05 149.784 96.95 150.324 96.75C150.884 96.53 151.364 96.24 151.764 95.88C152.164 95.5 152.474 95.08 152.694 94.62C152.974 94.76 153.174 94.96 153.294 95.22C153.434 95.46 153.504 95.75 153.504 96.09C153.504 96.65 153.294 97.18 152.874 97.68C152.454 98.16 151.804 98.55 150.924 98.85C150.064 99.15 148.954 99.3 147.594 99.3ZM149.694 89.37C149.694 88.35 149.614 87.48 149.454 86.76C149.294 86.02 149.044 85.46 148.704 85.08C148.364 84.68 147.904 84.48 147.324 84.48C146.764 84.48 146.274 84.67 145.854 85.05C145.454 85.41 145.134 85.96 144.894 86.7C144.674 87.42 144.544 88.31 144.504 89.37H149.694ZM163.053 99.3C161.753 99.3 160.643 99.01 159.723 98.43C158.803 97.85 158.103 96.95 157.623 95.73C157.163 94.49 156.933 92.91 156.933 90.99C156.933 89.05 157.163 87.46 157.623 86.22C158.103 84.98 158.793 84.06 159.693 83.46C160.613 82.86 161.713 82.56 162.993 82.56C164.113 82.56 165.033 82.79 165.753 83.25C166.473 83.69 167.043 84.26 167.463 84.96H167.673C167.633 84.58 167.593 84.17 167.553 83.73C167.513 83.29 167.483 82.86 167.463 82.44C167.443 82 167.433 81.62 167.433 81.3V79.65C167.433 79.09 167.323 78.68 167.103 78.42C166.883 78.16 166.583 77.99 166.203 77.91C165.843 77.83 165.443 77.79 165.003 77.79H164.763V76.2H171.993V95.31C171.993 95.91 172.103 96.36 172.323 96.66C172.563 96.96 172.873 97.16 173.253 97.26C173.633 97.36 174.043 97.41 174.483 97.41H174.603V99H168.783L167.943 96.66H167.673C167.233 97.46 166.643 98.1 165.903 98.58C165.183 99.06 164.233 99.3 163.053 99.3ZM164.343 97.05C165.523 97.05 166.333 96.55 166.773 95.55C167.213 94.53 167.433 92.99 167.433 90.93C167.433 89.61 167.333 88.49 167.133 87.57C166.953 86.65 166.643 85.96 166.203 85.5C165.763 85.02 165.143 84.78 164.343 84.78C163.683 84.78 163.143 85.02 162.723 85.5C162.323 85.98 162.023 86.68 161.823 87.6C161.643 88.5 161.553 89.62 161.553 90.96C161.553 92.32 161.643 93.45 161.823 94.35C162.023 95.25 162.323 95.93 162.723 96.39C163.143 96.83 163.683 97.05 164.343 97.05ZM194.858 99.3C192.538 99.3 190.608 98.84 189.068 97.92C187.528 97 186.378 95.72 185.618 94.08C184.858 92.42 184.478 90.48 184.478 88.26C184.478 86.1 184.868 84.2 185.648 82.56C186.428 80.9 187.588 79.61 189.128 78.69C190.668 77.75 192.568 77.28 194.828 77.28C196.368 77.28 197.638 77.44 198.638 77.76C199.658 78.06 200.418 78.47 200.918 78.99C201.418 79.51 201.668 80.1 201.668 80.76C201.668 81.5 201.348 82.12 200.708 82.62C200.068 83.12 199.138 83.37 197.918 83.37C197.918 82.71 197.818 82.06 197.618 81.42C197.418 80.78 197.078 80.25 196.598 79.83C196.118 79.41 195.458 79.2 194.618 79.2C193.358 79.2 192.348 79.56 191.588 80.28C190.848 80.98 190.318 82 189.998 83.34C189.678 84.68 189.518 86.32 189.518 88.26C189.518 90.18 189.708 91.78 190.088 93.06C190.488 94.34 191.128 95.3 192.008 95.94C192.908 96.58 194.098 96.9 195.578 96.9C196.558 96.9 197.398 96.76 198.098 96.48C198.798 96.18 199.388 95.81 199.868 95.37C200.368 94.93 200.788 94.49 201.128 94.05C201.288 94.17 201.408 94.35 201.488 94.59C201.588 94.83 201.638 95.08 201.638 95.34C201.638 95.76 201.518 96.2 201.278 96.66C201.058 97.12 200.688 97.55 200.168 97.95C199.648 98.35 198.948 98.68 198.068 98.94C197.208 99.18 196.138 99.3 194.858 99.3ZM212.017 99.3C209.617 99.3 207.727 98.61 206.347 97.23C204.967 95.83 204.277 93.72 204.277 90.9C204.277 88.08 204.937 85.98 206.257 84.6C207.577 83.22 209.527 82.53 212.107 82.53C214.507 82.53 216.397 83.22 217.777 84.6C219.157 85.98 219.847 88.08 219.847 90.9C219.847 93.72 219.177 95.83 217.837 97.23C216.517 98.61 214.577 99.3 212.017 99.3ZM212.077 97.41C212.857 97.41 213.467 97.17 213.907 96.69C214.367 96.19 214.697 95.46 214.897 94.5C215.097 93.52 215.197 92.32 215.197 90.9C215.197 89.46 215.097 88.27 214.897 87.33C214.697 86.37 214.367 85.65 213.907 85.17C213.447 84.69 212.837 84.45 212.077 84.45C211.297 84.45 210.677 84.69 210.217 85.17C209.757 85.65 209.427 86.37 209.227 87.33C209.027 88.27 208.927 89.46 208.927 90.9C208.927 92.32 209.027 93.52 209.227 94.5C209.427 95.46 209.757 96.19 210.217 96.69C210.697 97.17 211.317 97.41 212.077 97.41ZM223.666 85.95C223.526 85.57 223.356 85.28 223.156 85.08C222.956 84.86 222.696 84.71 222.376 84.63C222.076 84.55 221.706 84.51 221.266 84.51V82.92H230.566V84.51H229.306C229.006 84.51 228.766 84.59 228.586 84.75C228.406 84.91 228.316 85.15 228.316 85.47C228.316 85.71 228.346 85.95 228.406 86.19C228.466 86.43 228.526 86.63 228.586 86.79L230.596 92.46C230.756 92.88 230.906 93.32 231.046 93.78C231.186 94.22 231.306 94.65 231.406 95.07C231.526 95.49 231.616 95.87 231.676 96.21C231.736 95.89 231.816 95.54 231.916 95.16C232.016 94.76 232.116 94.38 232.216 94.02C232.336 93.64 232.436 93.32 232.516 93.06L234.556 87.03C234.656 86.75 234.736 86.47 234.796 86.19C234.856 85.91 234.886 85.64 234.886 85.38C234.886 85.04 234.776 84.81 234.556 84.69C234.336 84.57 234.056 84.51 233.716 84.51H232.846V82.92H239.446V84.51H238.846C238.586 84.51 238.346 84.56 238.126 84.66C237.926 84.76 237.726 84.97 237.526 85.29C237.346 85.59 237.136 86.06 236.896 86.7L232.546 99H228.586L223.666 85.95ZM248.639 99.3C246.099 99.3 244.169 98.58 242.849 97.14C241.529 95.68 240.869 93.65 240.869 91.05C240.869 88.23 241.519 86.11 242.819 84.69C244.119 83.25 245.949 82.53 248.309 82.53C250.489 82.53 252.199 83.14 253.439 84.36C254.699 85.58 255.329 87.38 255.329 89.76V91.29H245.489C245.529 92.63 245.709 93.73 246.029 94.59C246.349 95.43 246.799 96.05 247.379 96.45C247.979 96.85 248.689 97.05 249.509 97.05C250.209 97.05 250.829 96.95 251.369 96.75C251.929 96.53 252.409 96.24 252.809 95.88C253.209 95.5 253.519 95.08 253.739 94.62C254.019 94.76 254.219 94.96 254.339 95.22C254.479 95.46 254.549 95.75 254.549 96.09C254.549 96.65 254.339 97.18 253.919 97.68C253.499 98.16 252.849 98.55 251.969 98.85C251.109 99.15 249.999 99.3 248.639 99.3ZM250.739 89.37C250.739 88.35 250.659 87.48 250.499 86.76C250.339 86.02 250.089 85.46 249.749 85.08C249.409 84.68 248.949 84.48 248.369 84.48C247.809 84.48 247.319 84.67 246.899 85.05C246.499 85.41 246.179 85.96 245.939 86.7C245.719 87.42 245.589 88.31 245.549 89.37H250.739ZM257.198 99V97.41H257.288C257.748 97.41 258.148 97.36 258.488 97.26C258.828 97.16 259.098 96.96 259.298 96.66C259.498 96.34 259.598 95.87 259.598 95.25V86.55C259.598 85.95 259.508 85.51 259.328 85.23C259.148 84.93 258.898 84.74 258.578 84.66C258.258 84.56 257.878 84.51 257.438 84.51H257.348V82.92H263.408L264.008 85.26H264.158C264.418 84.66 264.718 84.16 265.058 83.76C265.398 83.36 265.828 83.06 266.348 82.86C266.888 82.66 267.568 82.56 268.388 82.56C269.568 82.56 270.438 82.77 270.998 83.19C271.558 83.61 271.838 84.21 271.838 84.99C271.838 85.91 271.498 86.63 270.818 87.15C270.158 87.65 269.228 87.9 268.028 87.9C268.028 87.34 267.978 86.88 267.878 86.52C267.798 86.16 267.648 85.89 267.428 85.71C267.228 85.51 266.938 85.41 266.558 85.41C266.038 85.41 265.618 85.59 265.298 85.95C264.978 86.31 264.738 86.76 264.578 87.3C264.418 87.82 264.308 88.35 264.248 88.89C264.188 89.43 264.158 89.87 264.158 90.21V95.4C264.158 95.98 264.248 96.42 264.428 96.72C264.608 97 264.858 97.19 265.178 97.29C265.498 97.37 265.858 97.41 266.258 97.41H267.218V99H257.198ZM277.775 99.3C276.895 99.3 276.095 99.13 275.375 98.79C274.675 98.43 274.115 97.89 273.695 97.17C273.275 96.43 273.065 95.51 273.065 94.41C273.065 92.79 273.625 91.59 274.745 90.81C275.865 90.03 277.545 89.6 279.785 89.52L282.245 89.43V87.78C282.245 87.1 282.205 86.51 282.125 86.01C282.045 85.49 281.875 85.09 281.615 84.81C281.355 84.51 280.945 84.36 280.385 84.36C279.885 84.36 279.485 84.5 279.185 84.78C278.885 85.06 278.675 85.45 278.555 85.95C278.435 86.43 278.375 86.98 278.375 87.6C277.035 87.6 276.025 87.45 275.345 87.15C274.665 86.85 274.325 86.33 274.325 85.59C274.325 84.85 274.605 84.26 275.165 83.82C275.725 83.38 276.475 83.06 277.415 82.86C278.355 82.64 279.385 82.53 280.505 82.53C282.605 82.53 284.175 82.91 285.215 83.67C286.275 84.43 286.805 85.75 286.805 87.63V95.28C286.805 95.82 286.855 96.25 286.955 96.57C287.075 96.87 287.265 97.09 287.525 97.23C287.805 97.35 288.165 97.41 288.605 97.41H288.725V99H283.145L282.515 96.93H282.245C281.805 97.47 281.385 97.92 280.985 98.28C280.605 98.62 280.165 98.87 279.665 99.03C279.165 99.21 278.535 99.3 277.775 99.3ZM279.425 97.11C280.005 97.11 280.505 96.96 280.925 96.66C281.345 96.34 281.665 95.89 281.885 95.31C282.125 94.73 282.245 94.05 282.245 93.27V91.02L280.895 91.11C280.095 91.15 279.465 91.31 279.005 91.59C278.545 91.85 278.215 92.23 278.015 92.73C277.815 93.21 277.715 93.81 277.715 94.53C277.715 95.09 277.775 95.57 277.895 95.97C278.015 96.35 278.205 96.64 278.465 96.84C278.725 97.02 279.045 97.11 279.425 97.11ZM296.754 106.2C294.394 106.2 292.634 105.84 291.474 105.12C290.314 104.42 289.734 103.39 289.734 102.03C289.734 101.31 289.884 100.7 290.184 100.2C290.504 99.72 290.964 99.34 291.564 99.06C292.184 98.78 292.924 98.61 293.784 98.55C293.244 98.33 292.744 98.01 292.284 97.59C291.824 97.15 291.594 96.58 291.594 95.88C291.594 95.22 291.844 94.64 292.344 94.14C292.844 93.64 293.484 93.17 294.264 92.73C293.384 92.41 292.654 91.86 292.074 91.08C291.494 90.3 291.204 89.3 291.204 88.08C291.204 86.32 291.714 84.96 292.734 84C293.754 83.02 295.334 82.53 297.474 82.53C298.174 82.53 298.834 82.62 299.454 82.8C300.074 82.98 300.604 83.2 301.044 83.46C301.404 83.08 301.744 82.77 302.064 82.53C302.384 82.27 302.714 82.08 303.054 81.96C303.394 81.84 303.764 81.78 304.164 81.78C304.884 81.78 305.424 81.95 305.784 82.29C306.144 82.63 306.324 83.03 306.324 83.49C306.324 83.93 306.174 84.33 305.874 84.69C305.574 85.03 305.014 85.2 304.194 85.2C304.194 84.8 304.074 84.49 303.834 84.27C303.594 84.05 303.334 83.94 303.054 83.94C302.894 83.94 302.714 83.97 302.514 84.03C302.314 84.09 302.164 84.17 302.064 84.27C302.464 84.71 302.804 85.27 303.084 85.95C303.384 86.63 303.534 87.34 303.534 88.08C303.534 89.6 303.044 90.86 302.064 91.86C301.084 92.84 299.554 93.33 297.474 93.33C297.254 93.33 296.954 93.32 296.574 93.3C296.194 93.28 295.914 93.26 295.734 93.24C295.454 93.36 295.204 93.56 294.984 93.84C294.764 94.1 294.654 94.41 294.654 94.77C294.654 95.09 294.784 95.33 295.044 95.49C295.304 95.65 295.644 95.73 296.064 95.73H299.694C301.034 95.73 302.124 95.91 302.964 96.27C303.804 96.63 304.424 97.16 304.824 97.86C305.244 98.54 305.454 99.36 305.454 100.32C305.454 102.16 304.744 103.6 303.324 104.64C301.904 105.68 299.714 106.2 296.754 106.2ZM296.814 104.4C297.994 104.4 298.954 104.28 299.694 104.04C300.434 103.82 300.974 103.49 301.314 103.05C301.674 102.61 301.854 102.06 301.854 101.4C301.854 100.76 301.654 100.31 301.254 100.05C300.854 99.81 300.244 99.69 299.424 99.69H295.944C295.544 99.69 295.134 99.74 294.714 99.84C294.314 99.96 293.974 100.18 293.694 100.5C293.414 100.82 293.274 101.31 293.274 101.97C293.274 102.51 293.404 102.96 293.664 103.32C293.944 103.68 294.344 103.95 294.864 104.13C295.404 104.31 296.054 104.4 296.814 104.4ZM297.384 91.56C297.924 91.56 298.334 91.42 298.614 91.14C298.914 90.86 299.124 90.46 299.244 89.94C299.364 89.4 299.424 88.77 299.424 88.05C299.424 87.31 299.364 86.66 299.244 86.1C299.124 85.54 298.914 85.11 298.614 84.81C298.314 84.49 297.894 84.33 297.354 84.33C296.834 84.33 296.424 84.49 296.124 84.81C295.824 85.13 295.604 85.57 295.464 86.13C295.344 86.69 295.284 87.34 295.284 88.08C295.284 88.78 295.344 89.39 295.464 89.91C295.604 90.43 295.824 90.84 296.124 91.14C296.444 91.42 296.864 91.56 297.384 91.56ZM315.641 99.3C313.101 99.3 311.171 98.58 309.851 97.14C308.531 95.68 307.871 93.65 307.871 91.05C307.871 88.23 308.521 86.11 309.821 84.69C311.121 83.25 312.951 82.53 315.311 82.53C317.491 82.53 319.201 83.14 320.441 84.36C321.701 85.58 322.331 87.38 322.331 89.76V91.29H312.491C312.531 92.63 312.711 93.73 313.031 94.59C313.351 95.43 313.801 96.05 314.381 96.45C314.981 96.85 315.691 97.05 316.511 97.05C317.211 97.05 317.831 96.95 318.371 96.75C318.931 96.53 319.411 96.24 319.811 95.88C320.211 95.5 320.521 95.08 320.741 94.62C321.021 94.76 321.221 94.96 321.341 95.22C321.481 95.46 321.551 95.75 321.551 96.09C321.551 96.65 321.341 97.18 320.921 97.68C320.501 98.16 319.851 98.55 318.971 98.85C318.111 99.15 317.001 99.3 315.641 99.3ZM317.741 89.37C317.741 88.35 317.661 87.48 317.501 86.76C317.341 86.02 317.091 85.46 316.751 85.08C316.411 84.68 315.951 84.48 315.371 84.48C314.811 84.48 314.321 84.67 313.901 85.05C313.501 85.41 313.181 85.96 312.941 86.7C312.721 87.42 312.591 88.31 312.551 89.37H317.741Z" fill="#181994"/>
</svg>
