<svg width="375" height="463" viewBox="0 0 375 463" fill="none" xmlns="http://www.w3.org/2000/svg">
<path d="M160.513 380.812C160.513 366.593 148.987 355.067 134.768 355.067C120.549 355.067 109.023 366.593 109.023 380.812" stroke="#595AE0"/>
<path d="M155.364 380.812C155.364 369.437 146.143 360.216 134.768 360.216C123.393 360.216 114.172 369.437 114.172 380.812" stroke="#595AE0"/>
<path d="M150.214 380.812C150.214 372.281 143.298 365.365 134.767 365.365C126.236 365.365 119.32 372.281 119.32 380.812" stroke="#595AE0"/>
<path d="M145.066 380.812C145.066 375.125 140.455 370.514 134.768 370.514C129.08 370.514 124.47 375.125 124.47 380.812" stroke="#595AE0"/>
<path d="M183.683 402.953C183.683 388.734 172.157 377.208 157.938 377.208C143.72 377.208 132.193 388.734 132.193 402.953" stroke="#595AE0"/>
<path d="M178.534 402.953C178.534 391.578 169.313 382.357 157.938 382.357C146.563 382.357 137.342 391.578 137.342 402.953" stroke="#595AE0"/>
<path d="M173.385 402.953C173.385 394.422 166.469 387.506 157.938 387.506C149.407 387.506 142.491 394.422 142.491 402.953" stroke="#595AE0"/>
<path d="M168.236 402.953C168.236 397.265 163.626 392.655 157.938 392.655C152.251 392.655 147.64 397.265 147.64 402.953" stroke="#595AE0"/>
<path d="M230.024 402.953C230.024 388.734 218.498 377.208 204.279 377.208C190.061 377.208 178.534 388.734 178.534 402.953" stroke="#595AE0"/>
<path d="M224.876 402.953C224.876 391.578 215.654 382.357 204.28 382.357C192.905 382.357 183.684 391.578 183.684 402.953" stroke="#595AE0"/>
<path d="M219.727 402.953C219.727 394.422 212.811 387.506 204.28 387.506C195.748 387.506 188.833 394.422 188.833 402.953" stroke="#595AE0"/>
<path d="M214.577 402.953C214.577 397.265 209.967 392.655 204.279 392.655C198.592 392.655 193.981 397.265 193.981 402.953" stroke="#595AE0"/>
<path d="M137.343 402.953C137.343 388.734 125.816 377.208 111.598 377.208C97.379 377.208 85.8525 388.734 85.8525 402.953" stroke="#595AE0"/>
<path d="M132.193 402.953C132.193 391.578 122.972 382.357 111.597 382.357C100.223 382.357 91.0015 391.578 91.0015 402.953" stroke="#595AE0"/>
<path d="M127.045 402.953C127.045 394.422 120.129 387.506 111.598 387.506C103.067 387.506 96.1509 394.422 96.1509 402.953" stroke="#595AE0"/>
<path d="M121.895 402.953C121.895 397.265 117.285 392.655 111.597 392.655C105.91 392.655 101.299 397.265 101.299 402.953" stroke="#595AE0"/>
<path d="M206.854 380.812C206.854 366.593 195.327 355.067 181.109 355.067C166.89 355.067 155.364 366.593 155.364 380.812" stroke="#595AE0"/>
<path d="M201.705 380.812C201.705 369.437 192.484 360.216 181.109 360.216C169.734 360.216 160.513 369.437 160.513 380.812" stroke="#595AE0"/>
<path d="M196.556 380.812C196.556 372.281 189.64 365.365 181.109 365.365C172.577 365.365 165.662 372.281 165.662 380.812" stroke="#595AE0"/>
<path d="M191.407 380.812C191.407 375.125 186.796 370.514 181.109 370.514C175.422 370.514 170.811 375.125 170.811 380.812" stroke="#595AE0"/>
<path d="M44.6604 402.953C44.6604 388.734 33.134 377.208 18.9154 377.208C4.69684 377.208 -6.82959 388.734 -6.82959 402.953" stroke="#595AE0"/>
<path d="M39.5113 402.953C39.5113 391.578 30.2902 382.357 18.9153 382.357C7.54048 382.357 -1.68066 391.578 -1.68066 402.953" stroke="#595AE0"/>
<path d="M34.3623 402.953C34.3623 394.422 27.4464 387.506 18.9153 387.506C10.3841 387.506 3.46826 394.422 3.46826 402.953" stroke="#595AE0"/>
<path d="M29.2137 402.953C29.2137 397.265 24.6031 392.655 18.9157 392.655C13.2282 392.655 8.61768 397.265 8.61768 402.953" stroke="#595AE0"/>
<path d="M67.8313 425.094C67.8313 410.875 56.3049 399.349 42.0863 399.349C27.8677 399.349 16.3413 410.875 16.3413 425.094" stroke="#595AE0"/>
<path d="M62.6822 425.094C62.6822 413.719 53.4611 404.498 42.0862 404.498C30.7114 404.498 21.4902 413.719 21.4902 425.094" stroke="#595AE0"/>
<path d="M57.5327 425.094C57.5327 416.562 50.6168 409.646 42.0857 409.646C33.5545 409.646 26.6387 416.562 26.6387 425.094" stroke="#595AE0"/>
<path d="M52.3836 425.094C52.3836 419.406 47.773 414.796 42.0856 414.796C36.3982 414.796 31.7876 419.406 31.7876 425.094" stroke="#595AE0"/>
<path d="M114.172 425.094C114.172 410.875 102.645 399.349 88.4266 399.349C74.2081 399.349 62.6816 410.875 62.6816 425.094" stroke="#595AE0"/>
<path d="M109.023 425.094C109.023 413.719 99.8019 404.498 88.4271 404.498C77.0522 404.498 67.8311 413.719 67.8311 425.094" stroke="#595AE0"/>
<path d="M103.873 425.094C103.873 416.562 96.9576 409.646 88.4265 409.646C79.8953 409.646 72.9795 416.562 72.9795 425.094" stroke="#595AE0"/>
<path d="M98.7249 425.094C98.7249 419.406 94.1143 414.796 88.4269 414.796C82.7395 414.796 78.1289 419.406 78.1289 425.094" stroke="#595AE0"/>
<path d="M21.49 425.094C21.49 410.875 9.96356 399.349 -4.255 399.349C-18.4736 399.349 -30 410.875 -30 425.094" stroke="#595AE0"/>
<path d="M16.3409 425.094C16.3409 413.719 7.11978 404.498 -4.25508 404.498C-15.6299 404.498 -24.8511 413.719 -24.8511 425.094" stroke="#595AE0"/>
<path d="M11.1918 425.094C11.1918 416.562 4.27599 409.646 -4.25515 409.646C-12.7863 409.646 -19.7021 416.562 -19.7021 425.094" stroke="#595AE0"/>
<path d="M6.04278 425.094C6.04278 419.406 1.4322 414.796 -4.25522 414.796C-9.94265 414.796 -14.5532 419.406 -14.5532 425.094" stroke="#595AE0"/>
<path d="M91.0012 402.953C91.0012 388.734 79.4748 377.208 65.2562 377.208C51.0377 377.208 39.5112 388.734 39.5112 402.953" stroke="#595AE0"/>
<path d="M85.8522 402.953C85.8522 391.578 76.631 382.357 65.2562 382.357C53.8813 382.357 44.6602 391.578 44.6602 402.953" stroke="#595AE0"/>
<path d="M80.7036 402.953C80.7036 394.422 73.7877 387.506 65.2566 387.506C56.7254 387.506 49.8096 394.422 49.8096 402.953" stroke="#595AE0"/>
<path d="M75.5545 402.953C75.5545 397.265 70.9439 392.655 65.2565 392.655C59.5691 392.655 54.9585 397.265 54.9585 402.953" stroke="#595AE0"/>
<path d="M44.6604 358.671C44.6604 344.453 33.134 332.926 18.9154 332.926C4.69684 332.926 -6.82959 344.453 -6.82959 358.671" stroke="#595AE0"/>
<path d="M39.5113 358.671C39.5113 347.296 30.2902 338.075 18.9153 338.075C7.54048 338.075 -1.68066 347.296 -1.68066 358.671" stroke="#595AE0"/>
<path d="M34.3623 358.671C34.3623 350.14 27.4464 343.224 18.9153 343.224C10.3841 343.224 3.46826 350.14 3.46826 358.671" stroke="#595AE0"/>
<path d="M29.2137 358.671C29.2137 352.984 24.6031 348.373 18.9157 348.373C13.2282 348.373 8.61768 352.984 8.61768 358.671" stroke="#595AE0"/>
<path d="M67.8313 380.812C67.8313 366.593 56.3049 355.067 42.0863 355.067C27.8677 355.067 16.3413 366.593 16.3413 380.812" stroke="#595AE0"/>
<path d="M62.6822 380.812C62.6822 369.437 53.4611 360.216 42.0862 360.216C30.7114 360.216 21.4902 369.437 21.4902 380.812" stroke="#595AE0"/>
<path d="M57.5327 380.812C57.5327 372.281 50.6168 365.365 42.0857 365.365C33.5545 365.365 26.6387 372.281 26.6387 380.812" stroke="#595AE0"/>
<path d="M52.3836 380.812C52.3836 375.125 47.773 370.514 42.0856 370.514C36.3982 370.514 31.7876 375.125 31.7876 380.812" stroke="#595AE0"/>
<path d="M114.172 380.812C114.172 366.593 102.645 355.067 88.4266 355.067C74.2081 355.067 62.6816 366.593 62.6816 380.812" stroke="#595AE0"/>
<path d="M109.023 380.812C109.023 369.437 99.8019 360.216 88.4271 360.216C77.0522 360.216 67.8311 369.437 67.8311 380.812" stroke="#595AE0"/>
<path d="M103.873 380.812C103.873 372.281 96.9576 365.365 88.4265 365.365C79.8953 365.365 72.9795 372.281 72.9795 380.812" stroke="#595AE0"/>
<path d="M98.7249 380.812C98.7249 375.125 94.1143 370.514 88.4269 370.514C82.7395 370.514 78.1289 375.125 78.1289 380.812" stroke="#595AE0"/>
<path d="M21.49 380.812C21.49 366.593 9.96356 355.067 -4.255 355.067C-18.4736 355.067 -30 366.593 -30 380.812" stroke="#595AE0"/>
<path d="M16.3409 380.812C16.3409 369.437 7.11978 360.216 -4.25508 360.216C-15.6299 360.216 -24.8511 369.437 -24.8511 380.812" stroke="#595AE0"/>
<path d="M11.1918 380.812C11.1918 372.281 4.27599 365.365 -4.25515 365.365C-12.7863 365.365 -19.7021 372.281 -19.7021 380.812" stroke="#595AE0"/>
<path d="M6.04278 380.812C6.04278 375.125 1.4322 370.514 -4.25522 370.514C-9.94265 370.514 -14.5532 375.125 -14.5532 380.812" stroke="#595AE0"/>
<path d="M91.0012 358.671C91.0012 344.453 79.4748 332.926 65.2562 332.926C51.0377 332.926 39.5112 344.453 39.5112 358.671" stroke="#595AE0"/>
<path d="M85.8522 358.671C85.8522 347.296 76.631 338.075 65.2562 338.075C53.8813 338.075 44.6602 347.296 44.6602 358.671" stroke="#595AE0"/>
<path d="M80.7036 358.671C80.7036 350.14 73.7877 343.224 65.2566 343.224C56.7254 343.224 49.8096 350.14 49.8096 358.671" stroke="#595AE0"/>
<path d="M75.5545 358.671C75.5545 352.984 70.9439 348.373 65.2565 348.373C59.5691 348.373 54.9585 352.984 54.9585 358.671" stroke="#595AE0"/>
<path d="M410.642 227.335C410.642 210.211 396.76 196.329 379.636 196.329C362.512 196.329 348.631 210.211 348.631 227.335" stroke="white"/>
<path d="M404.44 227.335C404.44 213.636 393.335 202.531 379.636 202.531C365.937 202.531 354.832 213.636 354.832 227.335" stroke="white"/>
<path d="M398.24 227.335C398.24 217.061 389.911 208.732 379.636 208.732C369.362 208.732 361.033 217.061 361.033 227.335" stroke="white"/>
<path d="M392.038 227.335C392.038 220.485 386.485 214.933 379.636 214.933C372.786 214.933 367.233 220.485 367.233 227.335" stroke="white"/>
<path d="M299.022 227.335C299.022 210.211 285.14 196.329 268.017 196.329C250.893 196.329 237.011 210.211 237.011 227.335" stroke="white"/>
<path d="M292.821 227.335C292.821 213.636 281.716 202.531 268.017 202.531C254.318 202.531 243.212 213.636 243.212 227.335" stroke="white"/>
<path d="M286.619 227.335C286.619 217.061 278.291 208.732 268.016 208.732C257.742 208.732 249.413 217.061 249.413 227.335" stroke="white"/>
<path d="M280.419 227.335C280.419 220.485 274.866 214.933 268.017 214.933C261.167 214.933 255.615 220.485 255.615 227.335" stroke="white"/>
<path d="M326.927 254C326.927 236.876 313.045 222.995 295.921 222.995C278.798 222.995 264.916 236.876 264.916 254" stroke="white"/>
<path d="M320.726 254C320.726 240.301 309.621 229.196 295.922 229.196C282.223 229.196 271.118 240.301 271.118 254" stroke="white"/>
<path d="M314.525 254C314.525 243.725 306.196 235.396 295.922 235.396C285.647 235.396 277.318 243.725 277.318 254" stroke="white"/>
<path d="M308.323 254C308.323 247.15 302.771 241.598 295.921 241.598C289.072 241.598 283.519 247.15 283.519 254" stroke="white"/>
<path d="M382.737 254C382.737 236.876 368.855 222.995 351.731 222.995C334.608 222.995 320.726 236.876 320.726 254" stroke="white"/>
<path d="M376.535 254C376.535 240.301 365.43 229.196 351.731 229.196C338.032 229.196 326.927 240.301 326.927 254" stroke="white"/>
<path d="M370.334 254C370.334 243.725 362.005 235.396 351.731 235.396C341.457 235.396 333.128 243.725 333.128 254" stroke="white"/>
<path d="M364.133 254C364.133 247.15 358.58 241.598 351.731 241.598C344.881 241.598 339.329 247.15 339.329 254" stroke="white"/>
<path d="M271.117 254C271.117 236.876 257.236 222.995 240.112 222.995C222.988 222.995 209.106 236.876 209.106 254" stroke="white"/>
<path d="M264.916 254C264.916 240.301 253.81 229.196 240.111 229.196C226.412 229.196 215.307 240.301 215.307 254" stroke="white"/>
<path d="M258.715 254C258.715 243.725 250.386 235.396 240.112 235.396C229.837 235.396 221.508 243.725 221.508 254" stroke="white"/>
<path d="M252.513 254C252.513 247.15 246.961 241.598 240.111 241.598C233.262 241.598 227.709 247.15 227.709 254" stroke="white"/>
<path d="M354.831 227.335C354.831 210.211 340.949 196.329 323.826 196.329C306.702 196.329 292.82 210.211 292.82 227.335" stroke="white"/>
<path d="M348.631 227.335C348.631 213.636 337.525 202.531 323.826 202.531C310.127 202.531 299.022 213.636 299.022 227.335" stroke="white"/>
<path d="M342.429 227.335C342.429 217.061 334.1 208.732 323.826 208.732C313.552 208.732 305.223 217.061 305.223 227.335" stroke="white"/>
<path d="M336.229 227.335C336.229 220.485 330.676 214.933 323.826 214.933C316.977 214.933 311.424 220.485 311.424 227.335" stroke="white"/>
<path d="M299.022 174.006C299.022 156.882 285.14 143 268.017 143C250.893 143 237.011 156.882 237.011 174.006" stroke="white"/>
<path d="M292.821 174.005C292.821 160.306 281.716 149.201 268.017 149.201C254.318 149.201 243.212 160.306 243.212 174.005" stroke="white"/>
<path d="M286.619 174.005C286.619 163.731 278.291 155.402 268.016 155.402C257.742 155.402 249.413 163.731 249.413 174.005" stroke="white"/>
<path d="M280.419 174.005C280.419 167.156 274.866 161.603 268.017 161.603C261.167 161.603 255.615 167.156 255.615 174.005" stroke="white"/>
<path d="M326.927 200.67C326.927 183.547 313.045 169.665 295.921 169.665C278.798 169.665 264.916 183.547 264.916 200.67" stroke="white"/>
<path d="M320.726 200.67C320.726 186.971 309.621 175.866 295.922 175.866C282.223 175.866 271.118 186.971 271.118 200.67" stroke="white"/>
<path d="M314.525 200.67C314.525 190.396 306.196 182.067 295.922 182.067C285.647 182.067 277.318 190.396 277.318 200.67" stroke="white"/>
<path d="M308.323 200.67C308.323 193.82 302.771 188.268 295.921 188.268C289.072 188.268 283.519 193.82 283.519 200.67" stroke="white"/>
<path d="M382.737 200.67C382.737 183.547 368.855 169.665 351.731 169.665C334.608 169.665 320.726 183.547 320.726 200.67" stroke="white"/>
<path d="M376.535 200.67C376.535 186.971 365.43 175.866 351.731 175.866C338.032 175.866 326.927 186.971 326.927 200.67" stroke="white"/>
<path d="M370.334 200.67C370.334 190.396 362.005 182.067 351.731 182.067C341.457 182.067 333.128 190.396 333.128 200.67" stroke="white"/>
<path d="M364.133 200.67C364.133 193.82 358.58 188.268 351.731 188.268C344.881 188.268 339.329 193.82 339.329 200.67" stroke="white"/>
<path d="M271.117 200.67C271.117 183.547 257.236 169.665 240.112 169.665C222.988 169.665 209.106 183.547 209.106 200.67" stroke="white"/>
<path d="M264.916 200.67C264.916 186.971 253.81 175.866 240.111 175.866C226.412 175.866 215.307 186.971 215.307 200.67" stroke="white"/>
<path d="M258.715 200.67C258.715 190.396 250.386 182.067 240.112 182.067C229.837 182.067 221.508 190.396 221.508 200.67" stroke="white"/>
<path d="M252.513 200.67C252.513 193.82 246.961 188.268 240.111 188.268C233.262 188.268 227.709 193.82 227.709 200.67" stroke="white"/>
<path d="M354.831 174.006C354.831 156.882 340.949 143 323.826 143C306.702 143 292.82 156.882 292.82 174.006" stroke="white"/>
<path d="M348.631 174.005C348.631 160.306 337.525 149.201 323.826 149.201C310.127 149.201 299.022 160.306 299.022 174.005" stroke="white"/>
<path d="M342.429 174.005C342.429 163.731 334.1 155.402 323.826 155.402C313.552 155.402 305.223 163.731 305.223 174.005" stroke="white"/>
<path d="M336.229 174.005C336.229 167.156 330.676 161.603 323.826 161.603C316.977 161.603 311.424 167.156 311.424 174.005" stroke="white"/>
</svg>
