<svg width="1440" height="264" viewBox="0 0 1440 264" fill="none" xmlns="http://www.w3.org/2000/svg">
<path d="M1367.42 179.252C1367.42 146.796 1341.11 120.486 1308.65 120.486C1276.2 120.486 1249.89 146.796 1249.89 179.252" stroke="white" stroke-width="3"/>
<path d="M1355.67 179.251C1355.67 153.287 1334.62 132.239 1308.65 132.239C1282.69 132.239 1261.64 153.287 1261.64 179.251" stroke="white" stroke-width="3"/>
<path d="M1343.91 179.252C1343.91 159.778 1328.13 143.992 1308.65 143.992C1289.18 143.992 1273.39 159.778 1273.39 179.252" stroke="white" stroke-width="3"/>
<path d="M1332.16 184.22C1332.16 171.238 1321.64 160.714 1308.65 160.714C1295.67 160.714 1285.15 171.238 1285.15 184.22" stroke="white" stroke-width="3"/>
<path d="M1420.31 236.746C1420.31 204.291 1394 177.981 1361.54 177.981C1329.09 177.981 1302.78 204.291 1302.78 236.746" stroke="white" stroke-width="3"/>
<path d="M1408.55 236.746C1408.55 210.782 1387.51 189.734 1361.54 189.734C1335.58 189.734 1314.53 210.782 1314.53 236.746" stroke="white" stroke-width="3"/>
<path d="M1396.8 236.746C1396.8 217.273 1381.02 201.487 1361.54 201.487C1342.07 201.487 1326.28 217.273 1326.28 236.746" stroke="white" stroke-width="3"/>
<path d="M1385.05 236.746C1385.05 223.764 1374.52 213.24 1361.54 213.24C1348.56 213.24 1338.04 223.764 1338.04 236.746" stroke="white" stroke-width="3"/>
<path d="M1526.08 236.746C1526.08 204.291 1499.77 177.981 1467.32 177.981C1434.86 177.981 1408.55 204.291 1408.55 236.746" stroke="white" stroke-width="3"/>
<path d="M1514.33 236.746C1514.33 210.782 1493.28 189.734 1467.32 189.734C1441.36 189.734 1420.31 210.782 1420.31 236.746" stroke="white" stroke-width="3"/>
<path d="M1502.58 236.746C1502.58 217.273 1486.79 201.487 1467.32 201.487C1447.85 201.487 1432.06 217.273 1432.06 236.746" stroke="white" stroke-width="3"/>
<path d="M1314.53 236.746C1314.53 204.291 1288.22 177.981 1255.77 177.981C1223.31 177.981 1197 204.291 1197 236.746" stroke="white" stroke-width="3"/>
<path d="M1302.78 236.746C1302.78 210.782 1281.73 189.734 1255.77 189.734C1229.8 189.734 1208.75 210.782 1208.75 236.746" stroke="white" stroke-width="3"/>
<path d="M1291.02 236.746C1291.02 217.273 1275.24 201.487 1255.77 201.487C1236.29 201.487 1220.51 217.273 1220.51 236.746" stroke="white" stroke-width="3"/>
<path d="M1279.27 236.746C1279.27 223.764 1268.75 213.24 1255.77 213.24C1242.78 213.24 1232.26 223.764 1232.26 236.746" stroke="white" stroke-width="3"/>
<path d="M1473.2 179.252C1473.2 146.796 1446.89 120.486 1414.43 120.486C1381.98 120.486 1355.67 146.796 1355.67 179.252" stroke="white" stroke-width="3"/>
<path d="M1461.44 179.251C1461.44 153.287 1440.4 132.239 1414.43 132.239C1388.47 132.239 1367.42 153.287 1367.42 179.251" stroke="white" stroke-width="3"/>
<path d="M1449.69 179.252C1449.69 159.778 1433.9 143.992 1414.43 143.992C1394.96 143.992 1379.17 159.778 1379.17 179.252" stroke="white" stroke-width="3"/>
<path d="M1437.94 184.22C1437.94 171.238 1427.41 160.714 1414.43 160.714C1401.45 160.714 1390.92 171.238 1390.92 184.22" stroke="white" stroke-width="3"/>
<path d="M1367.42 63.7655C1367.42 31.3102 1341.11 5 1308.65 5C1276.2 5 1249.89 31.3102 1249.89 63.7655" stroke="white" stroke-width="3"/>
<path d="M1355.67 63.7656C1355.67 37.8014 1334.62 16.7532 1308.65 16.7532C1282.69 16.7532 1261.64 37.8014 1261.64 63.7656" stroke="white" stroke-width="3"/>
<path d="M1343.91 63.7657C1343.91 44.2925 1328.13 28.5063 1308.65 28.5063C1289.18 28.5063 1273.39 44.2925 1273.39 63.7657" stroke="white" stroke-width="3"/>
<path d="M1332.16 70.7218C1332.16 57.7397 1321.64 47.2156 1308.65 47.2156C1295.67 47.2156 1285.15 57.7397 1285.15 70.7218" stroke="white" stroke-width="3"/>
<path d="M1420.31 121.26C1420.31 88.8049 1394 62.4946 1361.54 62.4946C1329.09 62.4946 1302.78 88.8049 1302.78 121.26" stroke="white" stroke-width="3"/>
<path d="M1408.55 121.26C1408.55 95.296 1387.51 74.2478 1361.54 74.2478C1335.58 74.2478 1314.53 95.296 1314.53 121.26" stroke="white" stroke-width="3"/>
<path d="M1396.8 122.751C1396.8 103.278 1381.02 87.4915 1361.54 87.4915C1342.07 87.4915 1326.28 103.278 1326.28 122.751" stroke="white" stroke-width="3"/>
<path d="M1385.05 127.719C1385.05 114.737 1374.52 104.213 1361.54 104.213C1348.56 104.213 1338.04 114.737 1338.04 127.719" stroke="white" stroke-width="3"/>
<path d="M1526.08 121.26C1526.08 88.8049 1499.77 62.4946 1467.32 62.4946C1434.86 62.4946 1408.55 88.8049 1408.55 121.26" stroke="white" stroke-width="3"/>
<path d="M1514.33 121.26C1514.33 95.296 1493.28 74.2478 1467.32 74.2478C1441.36 74.2478 1420.31 95.296 1420.31 121.26" stroke="white" stroke-width="3"/>
<path d="M1502.58 123.248C1502.58 103.774 1486.79 87.9883 1467.32 87.9883C1447.85 87.9883 1432.06 103.774 1432.06 123.248" stroke="white" stroke-width="3"/>
<path d="M1314.53 121.26C1314.53 88.8049 1288.22 62.4946 1255.77 62.4946C1223.31 62.4946 1197 88.8049 1197 121.26" stroke="white" stroke-width="3"/>
<path d="M1302.78 121.26C1302.78 95.296 1281.73 74.2478 1255.77 74.2478C1229.8 74.2478 1208.75 95.296 1208.75 121.26" stroke="white" stroke-width="3"/>
<path d="M1291.02 122.751C1291.02 103.278 1275.24 87.4915 1255.77 87.4915C1236.29 87.4915 1220.51 103.278 1220.51 122.751" stroke="white" stroke-width="3"/>
<path d="M1279.27 126.726C1279.27 113.744 1268.75 103.219 1255.77 103.219C1242.78 103.219 1232.26 113.744 1232.26 126.726" stroke="white" stroke-width="3"/>
<path d="M1473.2 63.7655C1473.2 31.3102 1446.89 5 1414.43 5C1381.98 5 1355.67 31.3102 1355.67 63.7655" stroke="white" stroke-width="3"/>
<path d="M1461.44 63.7656C1461.44 37.8014 1440.4 16.7532 1414.43 16.7532C1388.47 16.7532 1367.42 37.8014 1367.42 63.7656" stroke="white" stroke-width="3"/>
<path d="M1449.69 63.7657C1449.69 44.2925 1433.9 28.5063 1414.43 28.5063C1394.96 28.5063 1379.17 44.2925 1379.17 63.7657" stroke="white" stroke-width="3"/>
<path d="M1437.94 69.7279C1437.94 56.7458 1427.41 46.2217 1414.43 46.2217C1401.45 46.2217 1390.92 56.7458 1390.92 69.7279" stroke="white" stroke-width="3"/>
<path fill-rule="evenodd" clip-rule="evenodd" d="M1068.57 246.605H631.846C631.849 246.525 631.851 246.444 631.854 246.364H377.028C356.632 165.596 389.207 160.102 421.5 172C423.947 88.7851 513.226 103.643 544.5 122C558.776 77.6564 669 61.5 692 131C704.591 123.575 716.103 121.994 726.483 124.554C759.412 70.8607 857.589 64.8829 879.997 132.232C891.069 102.804 978 68 1004 148.804C1036.34 136.89 1068.57 161.805 1068.57 246.605Z" fill="#FACEBC"/>
<path d="M631.846 246.605L627.348 246.457L627.195 251.105H631.846V246.605ZM1068.57 246.605V251.105H1073.07V246.605H1068.57ZM631.854 246.364L636.352 246.52L636.513 241.864H631.854V246.364ZM377.028 246.364L372.665 247.465L373.523 250.864H377.028V246.364ZM421.5 172L419.944 176.222L425.814 178.385L425.998 172.132L421.5 172ZM544.5 122L542.222 125.881L547.063 128.722L548.783 123.379L544.5 122ZM692 131L687.728 132.414L689.481 137.71L694.286 134.876L692 131ZM726.483 124.554L725.405 128.923L728.599 129.71L730.319 126.906L726.483 124.554ZM879.997 132.232L875.727 133.652L879.737 145.703L884.209 133.816L879.997 132.232ZM1004 148.804L999.716 150.182L1001.15 154.649L1005.56 153.027L1004 148.804ZM631.846 251.105H1068.57V242.105H631.846V251.105ZM627.357 246.207C627.354 246.291 627.351 246.375 627.348 246.457L636.344 246.754C636.346 246.676 636.349 246.598 636.352 246.52L627.357 246.207ZM631.854 241.864H377.028V250.864H631.854V241.864ZM381.391 245.262C376.352 225.307 374.67 210.316 375.323 199.263C375.976 188.209 378.931 181.509 382.744 177.557C386.502 173.662 391.677 171.834 398.124 171.742C404.638 171.648 412.147 173.35 419.944 176.222L423.056 167.777C414.706 164.701 406.034 162.628 397.995 162.742C389.888 162.858 382.14 165.22 376.267 171.308C370.449 177.338 367.067 186.412 366.339 198.732C365.611 211.054 367.506 227.036 372.665 247.465L381.391 245.262ZM425.998 172.132C426.585 152.16 432.35 138.602 440.668 129.543C449.017 120.451 460.361 115.43 472.925 113.35C498.284 109.152 527.366 117.16 542.222 125.881L546.778 118.119C530.361 108.483 499.166 99.8837 471.455 104.471C457.484 106.784 444.096 112.504 434.039 123.456C423.952 134.442 417.638 150.232 417.002 171.868L425.998 172.132ZM548.783 123.379C551.861 113.82 560.32 105.262 572.426 98.9099C584.463 92.5937 599.615 88.7369 615.103 88.3069C646.214 87.4431 677.091 100.271 687.728 132.414L696.272 129.586C683.909 92.2289 648.174 78.3852 614.854 79.3104C598.126 79.7748 581.608 83.9278 568.244 90.9405C554.949 97.9171 544.277 108.008 540.216 120.621L548.783 123.379ZM694.286 134.876C706.02 127.956 716.334 126.685 725.405 128.923L727.56 120.185C715.873 117.302 703.161 119.194 689.714 127.124L694.286 134.876ZM884.267 130.811C872.304 94.8551 840.079 78.7241 807.216 78.5021C774.503 78.2811 740.092 93.7564 722.647 122.201L730.319 126.906C745.804 101.658 776.946 87.2979 807.155 87.5019C837.215 87.7049 865.282 102.259 875.727 133.652L884.267 130.811ZM1008.28 147.426C1001.52 126.408 990.643 112.492 977.633 104.193C964.656 95.9165 949.97 93.4913 936.013 94.6977C922.082 95.9017 908.705 100.73 898.052 107.196C887.532 113.582 879.058 121.948 875.785 130.647L884.209 133.816C886.472 127.802 893.016 120.782 902.722 114.89C912.295 109.079 924.352 104.739 936.788 103.664C949.197 102.592 961.811 104.777 972.793 111.781C983.74 118.763 993.479 130.798 999.716 150.182L1008.28 147.426ZM1073.07 246.605C1073.07 203.826 1064.97 175.167 1051.94 158.65C1045.37 150.312 1037.5 145.046 1028.87 142.782C1020.26 140.524 1011.24 141.342 1002.44 144.582L1005.56 153.027C1012.93 150.309 1020.06 149.774 1026.59 151.487C1033.1 153.194 1039.35 157.222 1044.88 164.224C1056.05 178.385 1064.07 204.584 1064.07 246.605H1073.07Z" fill="#FEDAD0"/>
<path d="M439.792 206.305V202.913H442.48C443.077 202.913 443.611 202.828 444.08 202.657C444.592 202.486 444.997 202.124 445.296 201.569C445.595 201.014 445.744 200.182 445.744 199.073V167.905C445.744 166.753 445.595 165.9 445.296 165.345C444.997 164.79 444.592 164.428 444.08 164.257C443.611 164.086 443.077 164.001 442.48 164.001H439.792V160.609H460.4C464.453 160.609 467.76 161.057 470.32 161.953C472.923 162.849 474.843 164.193 476.08 165.985C477.317 167.734 477.936 169.889 477.936 172.449C477.936 174.71 477.509 176.63 476.656 178.209C475.803 179.788 474.715 181.089 473.392 182.113C472.069 183.137 470.683 183.948 469.232 184.545L476.848 197.665C477.403 198.604 477.936 199.414 478.448 200.097C478.96 200.737 479.451 201.27 479.92 201.697C480.432 202.124 480.965 202.444 481.52 202.657C482.075 202.828 482.651 202.913 483.248 202.913H483.504V206.305H481.392C479.472 206.305 477.787 206.241 476.336 206.113C474.928 205.942 473.691 205.665 472.624 205.281C471.6 204.854 470.683 204.257 469.872 203.489C469.061 202.721 468.336 201.74 467.696 200.545L460.08 186.465H455.856V199.073C455.856 200.182 456.005 201.014 456.304 201.569C456.603 202.124 457.008 202.486 457.52 202.657C458.032 202.828 458.565 202.913 459.12 202.913H461.872V206.305H439.792ZM459.44 182.753C461.403 182.753 462.939 182.412 464.048 181.729C465.2 181.004 466.011 179.958 466.48 178.593C466.949 177.185 467.184 175.436 467.184 173.345C467.184 171.169 466.928 169.441 466.416 168.161C465.904 166.838 465.072 165.878 463.92 165.281C462.768 164.684 461.232 164.385 459.312 164.385H455.856V182.753H459.44ZM502.834 206.945C497.415 206.945 493.298 205.409 490.482 202.337C487.666 199.222 486.258 194.892 486.258 189.345C486.258 183.329 487.645 178.806 490.418 175.777C493.191 172.705 497.095 171.169 502.13 171.169C506.781 171.169 510.429 172.47 513.074 175.073C515.762 177.676 517.106 181.516 517.106 186.593V189.857H496.114C496.199 192.716 496.583 195.062 497.266 196.897C497.949 198.689 498.909 200.012 500.146 200.865C501.426 201.718 502.941 202.145 504.69 202.145C506.183 202.145 507.506 201.932 508.658 201.505C509.853 201.036 510.877 200.417 511.73 199.649C512.583 198.838 513.245 197.942 513.714 196.961C514.311 197.26 514.738 197.686 514.994 198.241C515.293 198.753 515.442 199.372 515.442 200.097C515.442 201.292 514.994 202.422 514.098 203.489C513.202 204.513 511.815 205.345 509.938 205.985C508.103 206.625 505.735 206.945 502.834 206.945ZM507.314 185.761C507.314 183.585 507.143 181.729 506.802 180.193C506.461 178.614 505.927 177.42 505.202 176.609C504.477 175.756 503.495 175.329 502.258 175.329C501.063 175.329 500.018 175.734 499.122 176.545C498.269 177.313 497.586 178.486 497.074 180.065C496.605 181.601 496.327 183.5 496.242 185.761H507.314ZM520.901 206.305V202.913H521.669C522.309 202.913 522.97 202.828 523.653 202.657C524.378 202.444 524.975 202.038 525.445 201.441C525.957 200.844 526.213 199.948 526.213 198.753V164.961C526.213 163.809 525.957 162.956 525.445 162.401C524.933 161.846 524.314 161.484 523.589 161.313C522.906 161.142 522.266 161.057 521.669 161.057H520.901V157.665H535.941V198.753C535.941 199.948 536.175 200.844 536.645 201.441C537.157 202.038 537.775 202.444 538.501 202.657C539.226 202.828 539.887 202.913 540.485 202.913H541.253V206.305H520.901ZM555.241 206.945C553.363 206.945 551.657 206.582 550.121 205.857C548.627 205.089 547.433 203.937 546.536 202.401C545.641 200.822 545.193 198.86 545.193 196.513C545.193 193.057 546.387 190.497 548.777 188.833C551.166 187.169 554.75 186.252 559.529 186.081L564.777 185.889V182.369C564.777 180.918 564.691 179.66 564.521 178.593C564.35 177.484 563.987 176.63 563.433 176.033C562.878 175.393 562.003 175.073 560.809 175.073C559.742 175.073 558.889 175.372 558.249 175.969C557.609 176.566 557.161 177.398 556.905 178.465C556.649 179.489 556.521 180.662 556.521 181.985C553.662 181.985 551.507 181.665 550.057 181.025C548.606 180.385 547.881 179.276 547.881 177.697C547.881 176.118 548.478 174.86 549.673 173.921C550.867 172.982 552.467 172.3 554.473 171.873C556.478 171.404 558.675 171.169 561.065 171.169C565.545 171.169 568.894 171.98 571.113 173.601C573.374 175.222 574.505 178.038 574.505 182.049V198.369C574.505 199.521 574.611 200.438 574.825 201.121C575.081 201.761 575.486 202.23 576.041 202.529C576.638 202.785 577.406 202.913 578.345 202.913H578.601V206.305H566.697L565.353 201.889H564.777C563.838 203.041 562.942 204.001 562.089 204.769C561.278 205.494 560.339 206.028 559.273 206.369C558.206 206.753 556.862 206.945 555.241 206.945ZM558.76 202.273C559.998 202.273 561.065 201.953 561.961 201.313C562.857 200.63 563.539 199.67 564.009 198.433C564.521 197.196 564.777 195.745 564.777 194.081V189.281L561.897 189.473C560.19 189.558 558.846 189.9 557.865 190.497C556.883 191.052 556.179 191.862 555.753 192.929C555.326 193.953 555.113 195.233 555.113 196.769C555.113 197.964 555.241 198.988 555.497 199.841C555.753 200.652 556.158 201.27 556.713 201.697C557.267 202.081 557.95 202.273 558.76 202.273ZM596.177 206.945C593.318 206.945 591.036 206.198 589.329 204.705C587.622 203.212 586.769 200.588 586.769 196.833V176.353H581.969V173.089C583.334 173.089 584.55 172.812 585.617 172.257C586.726 171.702 587.601 171.084 588.241 170.401C588.881 169.718 589.457 168.865 589.969 167.841C590.481 166.774 590.886 165.516 591.185 164.065H596.497V172.001H604.689V176.353H596.497V196.193C596.497 198.113 596.817 199.521 597.457 200.417C598.14 201.313 599.228 201.761 600.721 201.761C601.574 201.761 602.364 201.718 603.089 201.633C603.857 201.505 604.582 201.356 605.265 201.185V205.345C604.582 205.644 603.452 205.985 601.873 206.369C600.337 206.753 598.438 206.945 596.177 206.945ZM626.147 206.945C620.728 206.945 616.611 205.409 613.795 202.337C610.979 199.222 609.571 194.892 609.571 189.345C609.571 183.329 610.957 178.806 613.731 175.777C616.504 172.705 620.408 171.169 625.443 171.169C630.093 171.169 633.741 172.47 636.387 175.073C639.075 177.676 640.419 181.516 640.419 186.593V189.857H619.427C619.512 192.716 619.896 195.062 620.579 196.897C621.261 198.689 622.221 200.012 623.458 200.865C624.738 201.718 626.253 202.145 628.003 202.145C629.496 202.145 630.819 201.932 631.971 201.505C633.165 201.036 634.189 200.417 635.043 199.649C635.896 198.838 636.557 197.942 637.027 196.961C637.624 197.26 638.051 197.686 638.307 198.241C638.605 198.753 638.755 199.372 638.755 200.097C638.755 201.292 638.307 202.422 637.411 203.489C636.515 204.513 635.128 205.345 633.251 205.985C631.416 206.625 629.048 206.945 626.147 206.945ZM630.627 185.761C630.627 183.585 630.456 181.729 630.115 180.193C629.773 178.614 629.24 177.42 628.515 176.609C627.789 175.756 626.808 175.329 625.571 175.329C624.376 175.329 623.331 175.734 622.435 176.545C621.581 177.313 620.899 178.486 620.387 180.065C619.917 181.601 619.64 183.5 619.555 185.761H630.627ZM659.125 206.945C656.352 206.945 653.984 206.326 652.021 205.089C650.058 203.852 648.565 201.932 647.541 199.329C646.56 196.684 646.069 193.313 646.069 189.217C646.069 185.078 646.56 181.686 647.541 179.041C648.565 176.396 650.037 174.433 651.957 173.153C653.92 171.873 656.266 171.233 658.997 171.233C661.386 171.233 663.349 171.724 664.885 172.705C666.421 173.644 667.637 174.86 668.533 176.353H668.981C668.896 175.542 668.81 174.668 668.725 173.729C668.64 172.79 668.576 171.873 668.533 170.977C668.49 170.038 668.469 169.228 668.469 168.545V165.025C668.469 163.83 668.234 162.956 667.765 162.401C667.296 161.846 666.656 161.484 665.845 161.313C665.077 161.142 664.224 161.057 663.285 161.057H662.773V157.665H678.197V198.433C678.197 199.713 678.432 200.673 678.901 201.313C679.413 201.953 680.074 202.38 680.885 202.593C681.696 202.806 682.57 202.913 683.509 202.913H683.765V206.305H671.349L669.557 201.313H668.981C668.042 203.02 666.784 204.385 665.205 205.409C663.669 206.433 661.642 206.945 659.125 206.945ZM661.877 202.145C664.394 202.145 666.122 201.078 667.061 198.945C668 196.769 668.469 193.484 668.469 189.089C668.469 186.273 668.256 183.884 667.829 181.921C667.445 179.958 666.784 178.486 665.845 177.505C664.906 176.481 663.584 175.969 661.877 175.969C660.469 175.969 659.317 176.481 658.421 177.505C657.568 178.529 656.928 180.022 656.501 181.985C656.117 183.905 655.925 186.294 655.925 189.153C655.925 192.054 656.117 194.465 656.501 196.385C656.928 198.305 657.568 199.756 658.421 200.737C659.317 201.676 660.469 202.145 661.877 202.145ZM726.977 206.945C722.027 206.945 717.91 205.964 714.625 204.001C711.339 202.038 708.886 199.308 707.265 195.809C705.643 192.268 704.833 188.129 704.833 183.393C704.833 178.785 705.665 174.732 707.329 171.233C708.993 167.692 711.467 164.94 714.753 162.977C718.038 160.972 722.091 159.969 726.913 159.969C730.198 159.969 732.907 160.31 735.041 160.993C737.217 161.633 738.838 162.508 739.905 163.617C740.971 164.726 741.505 165.985 741.505 167.393C741.505 168.972 740.822 170.294 739.457 171.361C738.091 172.428 736.107 172.961 733.505 172.961C733.505 171.553 733.291 170.166 732.865 168.801C732.438 167.436 731.713 166.305 730.689 165.409C729.665 164.513 728.257 164.065 726.465 164.065C723.777 164.065 721.622 164.833 720.001 166.369C718.422 167.862 717.291 170.038 716.609 172.897C715.926 175.756 715.585 179.254 715.585 183.393C715.585 187.489 715.99 190.902 716.801 193.633C717.654 196.364 719.019 198.412 720.897 199.777C722.817 201.142 725.355 201.825 728.513 201.825C730.603 201.825 732.395 201.526 733.889 200.929C735.382 200.289 736.641 199.5 737.665 198.561C738.731 197.622 739.627 196.684 740.353 195.745C740.694 196.001 740.95 196.385 741.121 196.897C741.334 197.409 741.441 197.942 741.441 198.497C741.441 199.393 741.185 200.332 740.673 201.313C740.203 202.294 739.414 203.212 738.305 204.065C737.195 204.918 735.702 205.622 733.825 206.177C731.99 206.689 729.707 206.945 726.977 206.945ZM763.583 206.945C758.463 206.945 754.431 205.473 751.487 202.529C748.543 199.542 747.071 195.041 747.071 189.025C747.071 183.009 748.479 178.529 751.295 175.585C754.111 172.641 758.271 171.169 763.775 171.169C768.895 171.169 772.927 172.641 775.871 175.585C778.815 178.529 780.287 183.009 780.287 189.025C780.287 195.041 778.857 199.542 775.999 202.529C773.183 205.473 769.044 206.945 763.583 206.945ZM763.711 202.913C765.375 202.913 766.676 202.401 767.615 201.377C768.596 200.31 769.3 198.753 769.727 196.705C770.153 194.614 770.367 192.054 770.367 189.025C770.367 185.953 770.153 183.414 769.727 181.409C769.3 179.361 768.596 177.825 767.615 176.801C766.633 175.777 765.332 175.265 763.711 175.265C762.047 175.265 760.724 175.777 759.743 176.801C758.761 177.825 758.057 179.361 757.631 181.409C757.204 183.414 756.991 185.953 756.991 189.025C756.991 192.054 757.204 194.614 757.631 196.705C758.057 198.753 758.761 200.31 759.743 201.377C760.767 202.401 762.089 202.913 763.711 202.913ZM788.433 178.465C788.134 177.654 787.771 177.036 787.345 176.609C786.918 176.14 786.363 175.82 785.681 175.649C785.041 175.478 784.251 175.393 783.312 175.393V172.001H803.153V175.393H800.465C799.825 175.393 799.313 175.564 798.929 175.905C798.545 176.246 798.353 176.758 798.353 177.441C798.353 177.953 798.417 178.465 798.545 178.977C798.673 179.489 798.801 179.916 798.929 180.257L803.217 192.353C803.558 193.249 803.878 194.188 804.177 195.169C804.475 196.108 804.731 197.025 804.945 197.921C805.201 198.817 805.393 199.628 805.521 200.353C805.649 199.67 805.819 198.924 806.033 198.113C806.246 197.26 806.459 196.449 806.673 195.681C806.929 194.87 807.142 194.188 807.313 193.633L811.665 180.769C811.878 180.172 812.049 179.574 812.177 178.977C812.305 178.38 812.369 177.804 812.369 177.249C812.369 176.524 812.134 176.033 811.665 175.777C811.195 175.521 810.598 175.393 809.873 175.393H808.017V172.001H822.097V175.393H820.817C820.262 175.393 819.75 175.5 819.281 175.713C818.854 175.926 818.427 176.374 818.001 177.057C817.617 177.697 817.169 178.7 816.657 180.065L807.377 206.305H798.929L788.433 178.465ZM841.709 206.945C836.29 206.945 832.173 205.409 829.357 202.337C826.541 199.222 825.133 194.892 825.133 189.345C825.133 183.329 826.52 178.806 829.293 175.777C832.066 172.705 835.97 171.169 841.005 171.169C845.656 171.169 849.304 172.47 851.949 175.073C854.637 177.676 855.981 181.516 855.981 186.593V189.857H834.989C835.074 192.716 835.458 195.062 836.141 196.897C836.824 198.689 837.784 200.012 839.021 200.865C840.301 201.718 841.816 202.145 843.565 202.145C845.058 202.145 846.381 201.932 847.533 201.505C848.728 201.036 849.752 200.417 850.605 199.649C851.458 198.838 852.12 197.942 852.589 196.961C853.186 197.26 853.613 197.686 853.869 198.241C854.168 198.753 854.317 199.372 854.317 200.097C854.317 201.292 853.869 202.422 852.973 203.489C852.077 204.513 850.69 205.345 848.813 205.985C846.978 206.625 844.61 206.945 841.709 206.945ZM846.189 185.761C846.189 183.585 846.018 181.729 845.677 180.193C845.336 178.614 844.802 177.42 844.077 176.609C843.352 175.756 842.37 175.329 841.133 175.329C839.938 175.329 838.893 175.734 837.997 176.545C837.144 177.313 836.461 178.486 835.949 180.065C835.48 181.601 835.202 183.5 835.117 185.761H846.189ZM859.968 206.305V202.913H860.16C861.141 202.913 861.994 202.806 862.72 202.593C863.445 202.38 864.021 201.953 864.448 201.313C864.874 200.63 865.088 199.628 865.088 198.305V179.745C865.088 178.465 864.896 177.526 864.512 176.929C864.128 176.289 863.594 175.884 862.911 175.713C862.229 175.5 861.418 175.393 860.48 175.393H860.288V172.001H873.216L874.496 176.993H874.816C875.37 175.713 876.01 174.646 876.736 173.793C877.461 172.94 878.378 172.3 879.488 171.873C880.64 171.446 882.09 171.233 883.84 171.233C886.357 171.233 888.213 171.681 889.408 172.577C890.602 173.473 891.2 174.753 891.2 176.417C891.2 178.38 890.474 179.916 889.024 181.025C887.616 182.092 885.632 182.625 883.072 182.625C883.072 181.43 882.965 180.449 882.752 179.681C882.581 178.913 882.261 178.337 881.792 177.953C881.365 177.526 880.746 177.313 879.936 177.313C878.826 177.313 877.93 177.697 877.248 178.465C876.565 179.233 876.053 180.193 875.712 181.345C875.37 182.454 875.136 183.585 875.008 184.737C874.88 185.889 874.816 186.828 874.816 187.553V198.625C874.816 199.862 875.008 200.801 875.392 201.441C875.776 202.038 876.309 202.444 876.992 202.657C877.674 202.828 878.442 202.913 879.296 202.913H881.344V206.305H859.968ZM903.866 206.945C901.988 206.945 900.282 206.582 898.746 205.857C897.252 205.089 896.058 203.937 895.161 202.401C894.266 200.822 893.818 198.86 893.818 196.513C893.818 193.057 895.012 190.497 897.402 188.833C899.791 187.169 903.375 186.252 908.154 186.081L913.402 185.889V182.369C913.402 180.918 913.316 179.66 913.146 178.593C912.975 177.484 912.612 176.63 912.058 176.033C911.503 175.393 910.628 175.073 909.434 175.073C908.367 175.073 907.514 175.372 906.874 175.969C906.234 176.566 905.786 177.398 905.53 178.465C905.274 179.489 905.146 180.662 905.146 181.985C902.287 181.985 900.132 181.665 898.682 181.025C897.231 180.385 896.506 179.276 896.506 177.697C896.506 176.118 897.103 174.86 898.298 173.921C899.492 172.982 901.092 172.3 903.098 171.873C905.103 171.404 907.3 171.169 909.69 171.169C914.17 171.169 917.519 171.98 919.738 173.601C921.999 175.222 923.13 178.038 923.13 182.049V198.369C923.13 199.521 923.236 200.438 923.45 201.121C923.706 201.761 924.111 202.23 924.666 202.529C925.263 202.785 926.031 202.913 926.97 202.913H927.226V206.305H915.322L913.978 201.889H913.402C912.463 203.041 911.567 204.001 910.714 204.769C909.903 205.494 908.964 206.028 907.898 206.369C906.831 206.753 905.487 206.945 903.866 206.945ZM907.385 202.273C908.623 202.273 909.69 201.953 910.586 201.313C911.482 200.63 912.164 199.67 912.634 198.433C913.146 197.196 913.402 195.745 913.402 194.081V189.281L910.522 189.473C908.815 189.558 907.471 189.9 906.49 190.497C905.508 191.052 904.804 191.862 904.378 192.929C903.951 193.953 903.738 195.233 903.738 196.769C903.738 197.964 903.866 198.988 904.122 199.841C904.378 200.652 904.783 201.27 905.338 201.697C905.892 202.081 906.575 202.273 907.385 202.273ZM944.354 221.665C939.319 221.665 935.565 220.897 933.09 219.361C930.615 217.868 929.378 215.67 929.378 212.769C929.378 211.233 929.698 209.932 930.338 208.865C931.021 207.841 932.002 207.03 933.282 206.433C934.605 205.836 936.183 205.473 938.018 205.345C936.866 204.876 935.799 204.193 934.818 203.297C933.837 202.358 933.346 201.142 933.346 199.649C933.346 198.241 933.879 197.004 934.946 195.937C936.013 194.87 937.378 193.868 939.042 192.929C937.165 192.246 935.607 191.073 934.37 189.409C933.133 187.745 932.514 185.612 932.514 183.009C932.514 179.254 933.602 176.353 935.778 174.305C937.954 172.214 941.325 171.169 945.89 171.169C947.383 171.169 948.791 171.361 950.114 171.745C951.437 172.129 952.567 172.598 953.506 173.153C954.274 172.342 954.999 171.681 955.682 171.169C956.365 170.614 957.069 170.209 957.794 169.953C958.519 169.697 959.309 169.569 960.162 169.569C961.698 169.569 962.85 169.932 963.618 170.657C964.386 171.382 964.77 172.236 964.77 173.217C964.77 174.156 964.45 175.009 963.81 175.777C963.17 176.502 961.975 176.865 960.226 176.865C960.226 176.012 959.97 175.35 959.458 174.881C958.946 174.412 958.391 174.177 957.794 174.177C957.453 174.177 957.069 174.241 956.642 174.369C956.215 174.497 955.895 174.668 955.682 174.881C956.535 175.82 957.261 177.014 957.858 178.465C958.498 179.916 958.818 181.43 958.818 183.009C958.818 186.252 957.773 188.94 955.682 191.073C953.591 193.164 950.327 194.209 945.89 194.209C945.421 194.209 944.781 194.188 943.97 194.145C943.159 194.102 942.562 194.06 942.178 194.017C941.581 194.273 941.047 194.7 940.578 195.297C940.109 195.852 939.874 196.513 939.874 197.281C939.874 197.964 940.151 198.476 940.706 198.817C941.261 199.158 941.986 199.329 942.882 199.329H950.626C953.485 199.329 955.81 199.713 957.602 200.481C959.394 201.249 960.717 202.38 961.57 203.873C962.466 205.324 962.914 207.073 962.914 209.121C962.914 213.046 961.399 216.118 958.37 218.337C955.341 220.556 950.669 221.665 944.354 221.665ZM944.482 217.825C946.999 217.825 949.047 217.569 950.626 217.057C952.205 216.588 953.357 215.884 954.082 214.945C954.85 214.006 955.234 212.833 955.234 211.425C955.234 210.06 954.807 209.1 953.954 208.545C953.101 208.033 951.799 207.777 950.05 207.777H942.626C941.773 207.777 940.898 207.884 940.002 208.097C939.149 208.353 938.423 208.822 937.826 209.505C937.229 210.188 936.93 211.233 936.93 212.641C936.93 213.793 937.207 214.753 937.762 215.521C938.359 216.289 939.213 216.865 940.322 217.249C941.474 217.633 942.861 217.825 944.482 217.825ZM945.698 190.433C946.85 190.433 947.725 190.134 948.322 189.537C948.962 188.94 949.41 188.086 949.666 186.977C949.922 185.825 950.05 184.481 950.05 182.945C950.05 181.366 949.922 179.98 949.666 178.785C949.41 177.59 948.962 176.673 948.322 176.033C947.682 175.35 946.786 175.009 945.634 175.009C944.525 175.009 943.65 175.35 943.01 176.033C942.37 176.716 941.901 177.654 941.602 178.849C941.346 180.044 941.218 181.43 941.218 183.009C941.218 184.502 941.346 185.804 941.602 186.913C941.901 188.022 942.37 188.897 943.01 189.537C943.693 190.134 944.589 190.433 945.698 190.433ZM984.647 206.945C979.228 206.945 975.111 205.409 972.295 202.337C969.479 199.222 968.071 194.892 968.071 189.345C968.071 183.329 969.457 178.806 972.231 175.777C975.004 172.705 978.908 171.169 983.943 171.169C988.593 171.169 992.241 172.47 994.887 175.073C997.575 177.676 998.919 181.516 998.919 186.593V189.857H977.927C978.012 192.716 978.396 195.062 979.079 196.897C979.761 198.689 980.721 200.012 981.958 200.865C983.238 201.718 984.753 202.145 986.503 202.145C987.996 202.145 989.319 201.932 990.471 201.505C991.665 201.036 992.689 200.417 993.543 199.649C994.396 198.838 995.057 197.942 995.527 196.961C996.124 197.26 996.551 197.686 996.807 198.241C997.105 198.753 997.255 199.372 997.255 200.097C997.255 201.292 996.807 202.422 995.911 203.489C995.015 204.513 993.628 205.345 991.751 205.985C989.916 206.625 987.548 206.945 984.647 206.945ZM989.127 185.761C989.127 183.585 988.956 181.729 988.615 180.193C988.273 178.614 987.74 177.42 987.015 176.609C986.289 175.756 985.308 175.329 984.071 175.329C982.876 175.329 981.831 175.734 980.935 176.545C980.081 177.313 979.399 178.486 978.887 180.065C978.417 181.601 978.14 183.5 978.055 185.761H989.127Z" fill="#181994"/>
<path d="M315.492 132.191C275.386 222.722 307.072 243.815 327.928 243.046" stroke="#B0DC7B" stroke-width="1.72063"/>
<path d="M296.631 195.496C293.595 166.345 283.42 157.942 278.713 157.385" stroke="#B0DC7B" stroke-width="1.72063"/>
<path d="M330.308 183.704C300.666 197.036 295.584 208.467 296.748 212.516" stroke="#B0DC7B" stroke-width="1.72063"/>
<g style="mix-blend-mode:overlay">
<g style="mix-blend-mode:exclusion">
<ellipse rx="9.14165" ry="9.11705" transform="matrix(0.75786 -0.652417 0.744086 0.668084 309.002 125.622)" fill="#FFB59F"/>
</g>
<g style="mix-blend-mode:exclusion">
<ellipse rx="9.14165" ry="9.11705" transform="matrix(0.75786 -0.652417 0.744086 0.668084 319.772 124.055)" fill="#FFB59F"/>
</g>
<g style="mix-blend-mode:exclusion">
<ellipse rx="9.14165" ry="9.11705" transform="matrix(0.75786 -0.652417 0.744086 0.668084 326.048 133.616)" fill="#FFB59F"/>
</g>
<g style="mix-blend-mode:exclusion">
<ellipse rx="9.14165" ry="9.11705" transform="matrix(0.75786 -0.652417 0.744086 0.668084 317.318 140.79)" fill="#FFB59F"/>
</g>
<g style="mix-blend-mode:exclusion">
<ellipse rx="9.14165" ry="9.11705" transform="matrix(0.75786 -0.652417 0.744086 0.668084 307.351 137.202)" fill="#FFB59F"/>
</g>
</g>
<g style="mix-blend-mode:overlay">
<g style="mix-blend-mode:exclusion">
<ellipse rx="6.12468" ry="6.1082" transform="matrix(0.75786 -0.652417 0.744086 0.668084 273.489 152.797)" fill="#B0DC7B"/>
</g>
<g style="mix-blend-mode:exclusion">
<ellipse rx="6.12468" ry="6.1082" transform="matrix(0.75786 -0.652417 0.744086 0.668084 280.705 151.747)" fill="#B0DC7B"/>
</g>
<g style="mix-blend-mode:exclusion">
<ellipse rx="6.12468" ry="6.1082" transform="matrix(0.75786 -0.652417 0.744086 0.668084 284.909 158.153)" fill="#B0DC7B"/>
</g>
<g style="mix-blend-mode:exclusion">
<ellipse rx="6.12468" ry="6.1082" transform="matrix(0.75786 -0.652417 0.744086 0.668084 279.061 162.959)" fill="#B0DC7B"/>
</g>
<g style="mix-blend-mode:exclusion">
<ellipse rx="6.12468" ry="6.1082" transform="matrix(0.75786 -0.652417 0.744086 0.668084 272.383 160.555)" fill="#B0DC7B"/>
</g>
</g>
<g style="mix-blend-mode:overlay">
<g style="mix-blend-mode:exclusion">
<ellipse rx="6.12468" ry="6.1082" transform="matrix(0.75786 -0.652417 0.744086 0.668084 325.241 180.007)" fill="#FFEC43"/>
</g>
<g style="mix-blend-mode:exclusion">
<ellipse rx="6.12468" ry="6.1082" transform="matrix(0.75786 -0.652417 0.744086 0.668084 332.457 178.957)" fill="#FFEC43"/>
</g>
<g style="mix-blend-mode:exclusion">
<ellipse rx="6.12468" ry="6.1082" transform="matrix(0.75786 -0.652417 0.744086 0.668084 336.662 185.363)" fill="#FFEC43"/>
</g>
<g style="mix-blend-mode:exclusion">
<ellipse rx="6.12468" ry="6.1082" transform="matrix(0.75786 -0.652417 0.744086 0.668084 330.813 190.169)" fill="#FFEC43"/>
</g>
<g style="mix-blend-mode:exclusion">
<ellipse rx="6.12468" ry="6.1082" transform="matrix(0.75786 -0.652417 0.744086 0.668084 324.135 187.765)" fill="#FFEC43"/>
</g>
</g>
<path d="M1122.51 131.261C1162.61 217.623 1130.93 237.745 1110.07 237.011" stroke="#B0DC7B" stroke-width="1.72063"/>
<path d="M1141.37 191.651C1144.41 163.843 1154.58 155.827 1159.29 155.295" stroke="#B0DC7B" stroke-width="1.72063"/>
<path d="M1107.69 180.402C1137.33 193.12 1142.42 204.024 1141.25 207.887" stroke="#B0DC7B" stroke-width="1.72063"/>
<g style="mix-blend-mode:overlay">
<g style="mix-blend-mode:exclusion">
<ellipse rx="8.96487" ry="8.93209" transform="matrix(-0.772805 -0.634644 -0.759494 0.650514 1129 124.994)" fill="#FFB59F"/>
</g>
<g style="mix-blend-mode:exclusion">
<ellipse rx="8.96487" ry="8.93209" transform="matrix(-0.772805 -0.634644 -0.759494 0.650514 1118.23 123.5)" fill="#FFB59F"/>
</g>
<g style="mix-blend-mode:exclusion">
<ellipse rx="8.96487" ry="8.93209" transform="matrix(-0.772805 -0.634644 -0.759494 0.650514 1111.95 132.621)" fill="#FFB59F"/>
</g>
<g style="mix-blend-mode:exclusion">
<ellipse rx="8.96487" ry="8.93209" transform="matrix(-0.772805 -0.634644 -0.759494 0.650514 1120.68 139.464)" fill="#FFB59F"/>
</g>
<g style="mix-blend-mode:exclusion">
<ellipse rx="8.96487" ry="8.93209" transform="matrix(-0.772805 -0.634644 -0.759494 0.650514 1130.65 136.041)" fill="#FFB59F"/>
</g>
</g>
<g style="mix-blend-mode:overlay">
<g style="mix-blend-mode:exclusion">
<ellipse rx="6.00624" ry="5.98428" transform="matrix(-0.772805 -0.634644 -0.759494 0.650514 1164.51 150.918)" fill="#B0DC7B"/>
</g>
<g style="mix-blend-mode:exclusion">
<ellipse rx="6.00624" ry="5.98428" transform="matrix(-0.772805 -0.634644 -0.759494 0.650514 1157.3 149.917)" fill="#B0DC7B"/>
</g>
<g style="mix-blend-mode:exclusion">
<ellipse rx="6.00624" ry="5.98428" transform="matrix(-0.772805 -0.634644 -0.759494 0.650514 1153.09 156.028)" fill="#B0DC7B"/>
</g>
<g style="mix-blend-mode:exclusion">
<ellipse rx="6.00624" ry="5.98428" transform="matrix(-0.772805 -0.634644 -0.759494 0.650514 1158.94 160.613)" fill="#B0DC7B"/>
</g>
<g style="mix-blend-mode:exclusion">
<ellipse rx="6.00624" ry="5.98428" transform="matrix(-0.772805 -0.634644 -0.759494 0.650514 1165.62 158.319)" fill="#B0DC7B"/>
</g>
</g>
<g style="mix-blend-mode:overlay">
<g style="mix-blend-mode:exclusion">
<ellipse rx="6.00624" ry="5.98428" transform="matrix(-0.772805 -0.634644 -0.759494 0.650514 1112.76 176.875)" fill="#FFEC43"/>
</g>
<g style="mix-blend-mode:exclusion">
<ellipse rx="6.00624" ry="5.98428" transform="matrix(-0.772805 -0.634644 -0.759494 0.650514 1105.54 175.874)" fill="#FFEC43"/>
</g>
<g style="mix-blend-mode:exclusion">
<ellipse rx="6.00624" ry="5.98428" transform="matrix(-0.772805 -0.634644 -0.759494 0.650514 1101.34 181.984)" fill="#FFEC43"/>
</g>
<g style="mix-blend-mode:exclusion">
<ellipse rx="6.00624" ry="5.98428" transform="matrix(-0.772805 -0.634644 -0.759494 0.650514 1107.19 186.569)" fill="#FFEC43"/>
</g>
<g style="mix-blend-mode:exclusion">
<ellipse rx="6.00624" ry="5.98428" transform="matrix(-0.772805 -0.634644 -0.759494 0.650514 1113.87 184.276)" fill="#FFEC43"/>
</g>
</g>
</svg>
