<svg width="1440" height="839" viewBox="0 0 1440 839" fill="none" xmlns="http://www.w3.org/2000/svg">
<path d="M1177.8 722.569C1177.8 690.011 1151.29 663.617 1118.58 663.617C1085.88 663.617 1059.37 690.011 1059.37 722.569" stroke="white" stroke-width="3"/>
<path d="M1165.96 722.569C1165.96 696.522 1144.75 675.407 1118.58 675.407C1092.42 675.407 1071.21 696.522 1071.21 722.569" stroke="white" stroke-width="3"/>
<path d="M1154.12 724.563C1154.12 705.028 1138.21 689.191 1118.58 689.191C1098.96 689.191 1083.05 705.028 1083.05 724.563" stroke="white" stroke-width="3"/>
<path d="M1142.27 728.052C1142.27 715.028 1131.67 704.471 1118.58 704.471C1105.5 704.471 1094.9 715.028 1094.9 728.052" stroke="white" stroke-width="3"/>
<path d="M1231.1 780.745C1231.1 748.186 1204.59 721.792 1171.88 721.792C1139.18 721.792 1112.66 748.186 1112.66 780.745" stroke="white" stroke-width="3"/>
<path d="M1219.26 780.744C1219.26 754.698 1198.05 733.583 1171.88 733.583C1145.72 733.583 1124.51 754.698 1124.51 780.744" stroke="white" stroke-width="3"/>
<path d="M1207.41 780.744C1207.41 761.209 1191.5 745.373 1171.88 745.373C1152.26 745.373 1136.35 761.209 1136.35 780.744" stroke="white" stroke-width="3"/>
<path d="M1195.57 785.729C1195.57 772.705 1184.96 762.148 1171.88 762.148C1158.8 762.148 1148.19 772.705 1148.19 785.729" stroke="white" stroke-width="3"/>
<path d="M1337.69 780.745C1337.69 748.186 1311.18 721.792 1278.47 721.792C1245.77 721.792 1219.26 748.186 1219.26 780.745" stroke="white" stroke-width="3"/>
<path d="M1325.85 780.744C1325.85 754.698 1304.64 733.583 1278.47 733.583C1252.31 733.583 1231.1 754.698 1231.1 780.744" stroke="white" stroke-width="3"/>
<path d="M1314 780.744C1314 761.209 1298.1 745.373 1278.47 745.373C1258.85 745.373 1242.94 761.209 1242.94 780.744" stroke="white" stroke-width="3"/>
<path d="M1302.16 785.729C1302.16 772.705 1291.56 762.148 1278.47 762.148C1265.39 762.148 1254.79 772.705 1254.79 785.729" stroke="white" stroke-width="3"/>
<path d="M1124.51 780.745C1124.51 748.186 1097.99 721.792 1065.29 721.792C1032.58 721.792 1006.07 748.186 1006.07 780.745" stroke="white" stroke-width="3"/>
<path d="M1112.66 780.744C1112.66 754.698 1091.45 733.583 1065.29 733.583C1039.12 733.583 1017.91 754.698 1017.91 780.744" stroke="white" stroke-width="3"/>
<path d="M1100.82 780.744C1100.82 761.209 1084.91 745.373 1065.29 745.373C1045.66 745.373 1029.76 761.209 1029.76 780.744" stroke="white" stroke-width="3"/>
<path d="M1088.98 785.729C1088.98 772.705 1078.37 762.148 1065.29 762.148C1052.21 762.148 1041.6 772.705 1041.6 785.729" stroke="white" stroke-width="3"/>
<path d="M1284.4 722.569C1284.4 690.011 1257.88 663.617 1225.18 663.617C1192.47 663.617 1165.96 690.011 1165.96 722.569" stroke="white" stroke-width="3"/>
<path d="M1272.55 722.569C1272.55 696.522 1251.34 675.407 1225.18 675.407C1199.01 675.407 1177.8 696.522 1177.8 722.569" stroke="white" stroke-width="3"/>
<path d="M1260.71 724.563C1260.71 705.028 1244.8 689.191 1225.18 689.191C1205.55 689.191 1189.65 705.028 1189.65 724.563" stroke="white" stroke-width="3"/>
<path d="M1248.87 728.052C1248.87 715.028 1238.26 704.471 1225.18 704.471C1212.1 704.471 1201.49 715.028 1201.49 728.052" stroke="white" stroke-width="3"/>
<path d="M911.32 780.745C911.32 748.186 884.807 721.792 852.102 721.792C819.396 721.792 792.883 748.186 792.883 780.745" stroke="white" stroke-width="3"/>
<path d="M899.477 780.744C899.477 754.698 878.267 733.583 852.102 733.583C825.938 733.583 804.728 754.698 804.728 780.744" stroke="white" stroke-width="3"/>
<path d="M887.632 780.744C887.632 761.209 871.725 745.373 852.101 745.373C832.478 745.373 816.57 761.209 816.57 780.744" stroke="white" stroke-width="3"/>
<path d="M875.789 785.729C875.789 772.705 865.184 762.148 852.102 762.148C839.02 762.148 828.415 772.705 828.415 785.729" stroke="white" stroke-width="3"/>
<path d="M964.617 838.422C964.617 805.863 938.104 779.469 905.399 779.469C872.693 779.469 846.18 805.863 846.18 838.422" stroke="white" stroke-width="3"/>
<path d="M952.773 838.422C952.773 812.375 931.562 791.26 905.398 791.26C879.234 791.26 858.023 812.375 858.023 838.422" stroke="white" stroke-width="3"/>
<path d="M940.929 838.422C940.929 818.887 925.021 803.05 905.398 803.05C885.775 803.05 869.867 818.887 869.867 838.422" stroke="white" stroke-width="3"/>
<path d="M929.085 838.421C929.085 825.398 918.48 814.841 905.398 814.841C892.316 814.841 881.71 825.398 881.71 838.421" stroke="white" stroke-width="3"/>
<path d="M1071.21 838.422C1071.21 805.863 1044.7 779.469 1011.99 779.469C979.286 779.469 952.773 805.863 952.773 838.422" stroke="white" stroke-width="3"/>
<path d="M1059.37 838.422C1059.37 812.375 1038.16 791.26 1011.99 791.26C985.827 791.26 964.617 812.375 964.617 838.422" stroke="white" stroke-width="3"/>
<path d="M1047.52 838.422C1047.52 818.887 1031.61 803.05 1011.99 803.05C992.368 803.05 976.46 818.887 976.46 838.422" stroke="white" stroke-width="3"/>
<path d="M1035.68 838.421C1035.68 825.398 1025.07 814.841 1011.99 814.841C998.91 814.841 988.305 825.398 988.305 838.421" stroke="white" stroke-width="3"/>
<path d="M858.024 838.422C858.024 805.863 831.511 779.469 798.805 779.469C766.1 779.469 739.587 805.863 739.587 838.422" stroke="white" stroke-width="3"/>
<path d="M846.18 838.422C846.18 812.375 824.969 791.26 798.805 791.26C772.641 791.26 751.43 812.375 751.43 838.422" stroke="white" stroke-width="3"/>
<path d="M834.336 838.422C834.336 818.887 818.429 803.05 798.805 803.05C779.182 803.05 763.274 818.887 763.274 838.422" stroke="white" stroke-width="3"/>
<path d="M822.492 838.421C822.492 825.398 811.887 814.841 798.805 814.841C785.723 814.841 775.118 825.398 775.118 838.421" stroke="white" stroke-width="3"/>
<path d="M1017.91 780.745C1017.91 748.186 991.4 721.792 958.695 721.792C925.99 721.792 899.477 748.186 899.477 780.745" stroke="white" stroke-width="3"/>
<path d="M1006.07 780.744C1006.07 754.698 984.859 733.583 958.695 733.583C932.53 733.583 911.32 754.698 911.32 780.744" stroke="white" stroke-width="3"/>
<path d="M994.226 780.744C994.226 761.209 978.318 745.373 958.695 745.373C939.071 745.373 923.164 761.209 923.164 780.744" stroke="white" stroke-width="3"/>
<path d="M982.383 785.729C982.383 772.705 971.777 762.148 958.695 762.148C945.613 762.148 935.008 772.705 935.008 785.729" stroke="white" stroke-width="3"/>
<path d="M911.32 664.892C911.32 632.333 884.807 605.94 852.102 605.94C819.396 605.94 792.883 632.333 792.883 664.892" stroke="white" stroke-width="3"/>
<path d="M899.477 664.892C899.477 638.845 878.267 617.73 852.102 617.73C825.938 617.73 804.728 638.845 804.728 664.892" stroke="white" stroke-width="3"/>
<path d="M887.632 664.892C887.632 645.357 871.725 629.521 852.101 629.521C832.478 629.521 816.57 645.357 816.57 664.892" stroke="white" stroke-width="3"/>
<path d="M875.789 671.87C875.789 658.847 865.184 648.289 852.102 648.289C839.02 648.289 828.415 658.847 828.415 671.87" stroke="white" stroke-width="3"/>
<path d="M964.617 722.569C964.617 690.011 938.104 663.617 905.399 663.617C872.693 663.617 846.18 690.011 846.18 722.569" stroke="white" stroke-width="3"/>
<path d="M952.773 722.569C952.773 696.522 931.562 675.407 905.398 675.407C879.234 675.407 858.023 696.522 858.023 722.569" stroke="white" stroke-width="3"/>
<path d="M940.929 724.064C940.929 704.529 925.021 688.693 905.398 688.693C885.775 688.693 869.867 704.529 869.867 724.064" stroke="white" stroke-width="3"/>
<path d="M929.085 729.049C929.085 716.025 918.48 705.468 905.398 705.468C892.316 705.468 881.71 716.025 881.71 729.049" stroke="white" stroke-width="3"/>
<path d="M1071.21 722.569C1071.21 690.011 1044.7 663.617 1011.99 663.617C979.286 663.617 952.773 690.011 952.773 722.569" stroke="white" stroke-width="3"/>
<path d="M1059.37 722.569C1059.37 696.522 1038.16 675.407 1011.99 675.407C985.827 675.407 964.617 696.522 964.617 722.569" stroke="white" stroke-width="3"/>
<path d="M1047.52 724.563C1047.52 705.028 1031.61 689.191 1011.99 689.191C992.368 689.191 976.46 705.028 976.46 724.563" stroke="white" stroke-width="3"/>
<path d="M1035.68 728.052C1035.68 715.028 1025.07 704.471 1011.99 704.471C998.91 704.471 988.305 715.028 988.305 728.052" stroke="white" stroke-width="3"/>
<path d="M858.024 722.569C858.024 690.011 831.511 663.617 798.805 663.617C766.1 663.617 739.587 690.011 739.587 722.569" stroke="white" stroke-width="3"/>
<path d="M846.18 722.569C846.18 696.522 824.969 675.407 798.805 675.407C772.641 675.407 751.43 696.522 751.43 722.569" stroke="white" stroke-width="3"/>
<path d="M834.336 724.064C834.336 704.529 818.429 688.693 798.805 688.693C779.182 688.693 763.274 704.529 763.274 724.064" stroke="white" stroke-width="3"/>
<path d="M822.492 728.052C822.492 715.028 811.887 704.471 798.805 704.471C785.723 704.471 775.118 715.028 775.118 728.052" stroke="white" stroke-width="3"/>
<path d="M1017.91 664.892C1017.91 632.333 991.4 605.94 958.695 605.94C925.99 605.94 899.477 632.333 899.477 664.892" stroke="white" stroke-width="3"/>
<path d="M1006.07 664.892C1006.07 638.845 984.859 617.73 958.695 617.73C932.53 617.73 911.32 638.845 911.32 664.892" stroke="white" stroke-width="3"/>
<path d="M994.226 664.892C994.226 645.357 978.318 629.521 958.695 629.521C939.071 629.521 923.164 645.357 923.164 664.892" stroke="white" stroke-width="3"/>
<path d="M982.383 670.873C982.383 657.85 971.777 647.292 958.695 647.292C945.613 647.292 935.008 657.85 935.008 670.873" stroke="white" stroke-width="3"/>
<path d="M1412.79 301.763C1412.79 268.217 1385.47 241.023 1351.78 241.023C1318.08 241.023 1290.76 268.217 1290.76 301.763" stroke="#595AE0" stroke-width="3"/>
<path d="M1400.59 301.763C1400.59 274.927 1378.73 253.171 1351.78 253.171C1324.82 253.171 1302.96 274.927 1302.96 301.763" stroke="#595AE0" stroke-width="3"/>
<path d="M1388.38 303.817C1388.38 283.69 1371.99 267.373 1351.78 267.373C1331.56 267.373 1315.17 283.69 1315.17 303.817" stroke="#595AE0" stroke-width="3"/>
<path d="M1376.18 307.412C1376.18 293.994 1365.25 283.116 1351.77 283.116C1338.3 283.116 1327.37 293.994 1327.37 307.412" stroke="#595AE0" stroke-width="3"/>
<path d="M1467.7 361.703C1467.7 328.157 1440.39 300.963 1406.69 300.963C1372.99 300.963 1345.67 328.157 1345.67 361.703" stroke="#595AE0" stroke-width="3"/>
<path d="M1455.5 361.703C1455.5 334.866 1433.65 313.111 1406.69 313.111C1379.73 313.111 1357.88 334.866 1357.88 361.703" stroke="#595AE0" stroke-width="3"/>
<path d="M1443.3 361.703C1443.3 341.576 1426.91 325.259 1406.69 325.259C1386.47 325.259 1370.08 341.576 1370.08 361.703" stroke="#595AE0" stroke-width="3"/>
<path d="M1431.09 366.838C1431.09 353.42 1420.17 342.542 1406.69 342.542C1393.21 342.542 1382.28 353.42 1382.28 366.838" stroke="#595AE0" stroke-width="3"/>
<path d="M1357.88 361.703C1357.88 328.157 1330.56 300.963 1296.86 300.963C1263.16 300.963 1235.85 328.157 1235.85 361.703" stroke="#595AE0" stroke-width="3"/>
<path d="M1345.67 361.703C1345.67 334.866 1323.82 313.111 1296.86 313.111C1269.9 313.111 1248.05 334.866 1248.05 361.703" stroke="#595AE0" stroke-width="3"/>
<path d="M1333.47 361.703C1333.47 341.576 1317.08 325.259 1296.86 325.259C1276.64 325.259 1260.25 341.576 1260.25 361.703" stroke="#595AE0" stroke-width="3"/>
<path d="M1321.27 366.838C1321.27 353.42 1310.34 342.542 1296.86 342.542C1283.38 342.542 1272.46 353.42 1272.46 366.838" stroke="#595AE0" stroke-width="3"/>
<path d="M1522.62 301.763C1522.62 268.217 1495.3 241.023 1461.6 241.023C1427.9 241.023 1400.59 268.217 1400.59 301.763" stroke="#595AE0" stroke-width="3"/>
<path d="M1510.41 301.763C1510.41 274.927 1488.56 253.171 1461.6 253.171C1434.64 253.171 1412.79 274.927 1412.79 301.763" stroke="#595AE0" stroke-width="3"/>
<path d="M1498.21 303.817C1498.21 283.69 1481.82 267.373 1461.6 267.373C1441.38 267.373 1424.99 283.69 1424.99 303.817" stroke="#595AE0" stroke-width="3"/>
<path d="M1486.01 307.412C1486.01 293.994 1475.08 283.116 1461.6 283.116C1448.12 283.116 1437.2 293.994 1437.2 307.412" stroke="#595AE0" stroke-width="3"/>
<path d="M1138.23 361.703C1138.23 328.157 1110.91 300.963 1077.21 300.963C1043.51 300.963 1016.2 328.157 1016.2 361.703" stroke="#595AE0" stroke-width="3"/>
<path d="M1126.02 361.703C1126.02 334.866 1104.17 313.111 1077.21 313.111C1050.25 313.111 1028.4 334.866 1028.4 361.703" stroke="#595AE0" stroke-width="3"/>
<path d="M1113.82 361.703C1113.82 341.576 1097.43 325.259 1077.21 325.259C1056.99 325.259 1040.6 341.576 1040.6 361.703" stroke="#595AE0" stroke-width="3"/>
<path d="M1101.62 366.838C1101.62 353.42 1090.69 342.542 1077.21 342.542C1063.73 342.542 1052.8 353.42 1052.8 366.838" stroke="#595AE0" stroke-width="3"/>
<path d="M1193.14 421.129C1193.14 387.583 1165.82 360.389 1132.12 360.389C1098.43 360.389 1071.11 387.583 1071.11 421.129" stroke="#595AE0" stroke-width="3"/>
<path d="M1180.93 421.129C1180.93 394.293 1159.08 372.537 1132.12 372.537C1105.17 372.537 1083.31 394.293 1083.31 421.129" stroke="#595AE0" stroke-width="3"/>
<path d="M1168.73 421.129C1168.73 401.002 1152.34 384.685 1132.12 384.685C1111.91 384.685 1095.52 401.002 1095.52 421.129" stroke="#595AE0" stroke-width="3"/>
<path d="M1156.53 421.129C1156.53 407.711 1145.6 396.833 1132.12 396.833C1118.64 396.833 1107.72 407.711 1107.72 421.129" stroke="#595AE0" stroke-width="3"/>
<path d="M1302.96 421.129C1302.96 387.583 1275.65 360.389 1241.95 360.389C1208.25 360.389 1180.94 387.583 1180.94 421.129" stroke="#595AE0" stroke-width="3"/>
<path d="M1290.76 421.129C1290.76 394.293 1268.91 372.537 1241.95 372.537C1214.99 372.537 1193.14 394.293 1193.14 421.129" stroke="#595AE0" stroke-width="3"/>
<path d="M1278.56 421.129C1278.56 401.002 1262.17 384.685 1241.95 384.685C1221.73 384.685 1205.34 401.002 1205.34 421.129" stroke="#595AE0" stroke-width="3"/>
<path d="M1266.36 421.129C1266.36 407.711 1255.43 396.833 1241.95 396.833C1228.47 396.833 1217.54 407.711 1217.54 421.129" stroke="#595AE0" stroke-width="3"/>
<path d="M1083.31 421.129C1083.31 387.583 1056 360.389 1022.3 360.389C988.601 360.389 961.284 387.583 961.284 421.129" stroke="#595AE0" stroke-width="3"/>
<path d="M1071.11 421.129C1071.11 394.293 1049.26 372.537 1022.3 372.537C995.34 372.537 973.486 394.293 973.486 421.129" stroke="#595AE0" stroke-width="3"/>
<path d="M1058.91 421.129C1058.91 401.002 1042.52 384.685 1022.3 384.685C1002.08 384.685 985.69 401.002 985.69 421.129" stroke="#595AE0" stroke-width="3"/>
<path d="M1046.7 421.129C1046.7 407.711 1035.78 396.833 1022.3 396.833C1008.82 396.833 997.892 407.711 997.892 421.129" stroke="#595AE0" stroke-width="3"/>
<path d="M1248.05 361.703C1248.05 328.157 1220.73 300.963 1187.04 300.963C1153.34 300.963 1126.02 328.157 1126.02 361.703" stroke="#595AE0" stroke-width="3"/>
<path d="M1235.85 361.703C1235.85 334.866 1213.99 313.111 1187.04 313.111C1160.08 313.111 1138.22 334.866 1138.22 361.703" stroke="#595AE0" stroke-width="3"/>
<path d="M1223.65 361.703C1223.65 341.576 1207.26 325.259 1187.04 325.259C1166.82 325.259 1150.43 341.576 1150.43 361.703" stroke="#595AE0" stroke-width="3"/>
<path d="M1211.44 366.838C1211.44 353.42 1200.52 342.542 1187.04 342.542C1173.56 342.542 1162.63 353.42 1162.63 366.838" stroke="#595AE0" stroke-width="3"/>
<path d="M1138.23 242.337C1138.23 208.791 1110.91 181.597 1077.21 181.597C1043.51 181.597 1016.2 208.791 1016.2 242.337" stroke="#595AE0" stroke-width="3"/>
<path d="M1126.02 242.337C1126.02 215.5 1104.17 193.745 1077.21 193.745C1050.25 193.745 1028.4 215.5 1028.4 242.337" stroke="#595AE0" stroke-width="3"/>
<path d="M1113.82 242.337C1113.82 222.209 1097.43 205.893 1077.21 205.893C1056.99 205.893 1040.6 222.209 1040.6 242.337" stroke="#595AE0" stroke-width="3"/>
<path d="M1101.62 249.527C1101.62 236.108 1090.69 225.231 1077.21 225.231C1063.73 225.231 1052.8 236.108 1052.8 249.527" stroke="#595AE0" stroke-width="3"/>
<path d="M1193.14 301.763C1193.14 268.217 1165.82 241.023 1132.12 241.023C1098.43 241.023 1071.11 268.217 1071.11 301.763" stroke="#595AE0" stroke-width="3"/>
<path d="M1180.93 301.763C1180.93 274.927 1159.08 253.171 1132.12 253.171C1105.17 253.171 1083.31 274.927 1083.31 301.763" stroke="#595AE0" stroke-width="3"/>
<path d="M1168.73 303.304C1168.73 283.176 1152.34 266.86 1132.12 266.86C1111.91 266.86 1095.52 283.176 1095.52 303.304" stroke="#595AE0" stroke-width="3"/>
<path d="M1156.53 308.439C1156.53 295.021 1145.6 284.143 1132.12 284.143C1118.64 284.143 1107.72 295.021 1107.72 308.439" stroke="#595AE0" stroke-width="3"/>
<path d="M1302.96 301.763C1302.96 268.217 1275.65 241.023 1241.95 241.023C1208.25 241.023 1180.94 268.217 1180.94 301.763" stroke="#595AE0" stroke-width="3"/>
<path d="M1290.76 301.763C1290.76 274.927 1268.91 253.171 1241.95 253.171C1214.99 253.171 1193.14 274.927 1193.14 301.763" stroke="#595AE0" stroke-width="3"/>
<path d="M1278.56 303.817C1278.56 283.69 1262.17 267.373 1241.95 267.373C1221.73 267.373 1205.34 283.69 1205.34 303.817" stroke="#595AE0" stroke-width="3"/>
<path d="M1266.36 307.412C1266.36 293.994 1255.43 283.116 1241.95 283.116C1228.47 283.116 1217.54 293.994 1217.54 307.412" stroke="#595AE0" stroke-width="3"/>
<path d="M1083.31 301.763C1083.31 268.217 1056 241.023 1022.3 241.023C988.601 241.023 961.284 268.217 961.284 301.763" stroke="#595AE0" stroke-width="3"/>
<path d="M1071.11 301.763C1071.11 274.927 1049.26 253.171 1022.3 253.171C995.34 253.171 973.486 274.927 973.486 301.763" stroke="#595AE0" stroke-width="3"/>
<path d="M1058.91 303.304C1058.91 283.176 1042.52 266.86 1022.3 266.86C1002.08 266.86 985.69 283.176 985.69 303.304" stroke="#595AE0" stroke-width="3"/>
<path d="M1046.7 307.412C1046.7 293.994 1035.78 283.116 1022.3 283.116C1008.82 283.116 997.892 293.994 997.892 307.412" stroke="#595AE0" stroke-width="3"/>
<path d="M1248.05 242.337C1248.05 208.791 1220.73 181.597 1187.04 181.597C1153.34 181.597 1126.02 208.791 1126.02 242.337" stroke="#595AE0" stroke-width="3"/>
<path d="M1235.85 242.337C1235.85 215.5 1213.99 193.745 1187.04 193.745C1160.08 193.745 1138.22 215.5 1138.22 242.337" stroke="#595AE0" stroke-width="3"/>
<path d="M1223.65 242.337C1223.65 222.209 1207.26 205.893 1187.04 205.893C1166.82 205.893 1150.43 222.209 1150.43 242.337" stroke="#595AE0" stroke-width="3"/>
<path d="M1211.44 248.5C1211.44 235.081 1200.52 224.204 1187.04 224.204C1173.56 224.204 1162.63 235.081 1162.63 248.5" stroke="#595AE0" stroke-width="3"/>
<path d="M86.7385 122.166C86.7385 88.6205 114.056 61.4263 147.753 61.4263C181.45 61.4263 208.767 88.6205 208.767 122.166" stroke="white" stroke-width="3"/>
<path d="M98.9411 122.166C98.9411 95.3298 120.795 73.5745 147.753 73.5745C174.71 73.5745 196.564 95.3298 196.564 122.166" stroke="white" stroke-width="3"/>
<path d="M111.144 124.22C111.144 104.093 127.534 87.7764 147.753 87.7764C167.971 87.7764 184.361 104.093 184.361 124.22" stroke="white" stroke-width="3"/>
<path d="M123.347 127.816C123.347 114.397 134.274 103.52 147.752 103.52C161.231 103.52 172.158 114.397 172.158 127.816" stroke="white" stroke-width="3"/>
<path d="M31.8254 182.106C31.8254 148.56 59.1424 121.366 92.8397 121.366C126.537 121.366 153.854 148.56 153.854 182.106" stroke="white" stroke-width="3"/>
<path d="M44.028 182.106C44.028 155.27 65.8816 133.514 92.8394 133.514C119.797 133.514 141.651 155.27 141.651 182.106" stroke="white" stroke-width="3"/>
<path d="M56.2311 182.106C56.2311 161.979 72.6213 145.662 92.8397 145.662C113.058 145.662 129.448 161.979 129.448 182.106" stroke="white" stroke-width="3"/>
<path d="M68.4342 187.242C68.4342 173.823 79.361 162.946 92.8399 162.946C106.319 162.946 117.246 173.823 117.246 187.242" stroke="white" stroke-width="3"/>
<path d="M-78.0003 182.106C-78.0003 148.56 -50.6832 121.366 -16.986 121.366C16.7113 121.366 44.0283 148.56 44.0283 182.106" stroke="white" stroke-width="3"/>
<path d="M-65.7977 182.106C-65.7977 155.27 -43.9441 133.514 -16.9862 133.514C9.97157 133.514 31.8252 155.27 31.8252 182.106" stroke="white" stroke-width="3"/>
<path d="M-53.5946 182.106C-53.5946 161.979 -37.2044 145.662 -16.986 145.662C3.23234 145.662 19.6226 161.979 19.6226 182.106" stroke="white" stroke-width="3"/>
<path d="M-41.3915 187.242C-41.3915 173.823 -30.4647 162.946 -16.9858 162.946C-3.50689 162.946 7.41992 173.823 7.41992 187.242" stroke="white" stroke-width="3"/>
<path d="M141.651 182.106C141.651 148.56 168.968 121.366 202.665 121.366C236.363 121.366 263.68 148.56 263.68 182.106" stroke="white" stroke-width="3"/>
<path d="M153.854 182.106C153.854 155.27 175.708 133.514 202.666 133.514C229.623 133.514 251.477 155.27 251.477 182.106" stroke="white" stroke-width="3"/>
<path d="M166.057 182.106C166.057 161.979 182.447 145.662 202.666 145.662C222.884 145.662 239.274 161.979 239.274 182.106" stroke="white" stroke-width="3"/>
<path d="M178.259 187.242C178.259 173.823 189.186 162.946 202.665 162.946C216.144 162.946 227.071 173.823 227.071 187.242" stroke="white" stroke-width="3"/>
<path d="M-23.0877 122.166C-23.0877 88.6205 4.22936 61.4263 37.9266 61.4263C71.6239 61.4263 98.9409 88.6205 98.9409 122.166" stroke="white" stroke-width="3"/>
<path d="M-10.8851 122.166C-10.8851 95.3298 10.9685 73.5745 37.9263 73.5745C64.8842 73.5745 86.7378 95.3298 86.7378 122.166" stroke="white" stroke-width="3"/>
<path d="M1.31849 124.22C1.31849 104.093 17.7087 87.7764 37.9271 87.7764C58.1454 87.7764 74.5356 104.093 74.5356 124.22" stroke="white" stroke-width="3"/>
<path d="M13.5211 127.816C13.5211 114.397 24.4479 103.52 37.9268 103.52C51.4057 103.52 62.3325 114.397 62.3325 127.816" stroke="white" stroke-width="3"/>
<path d="M361.302 182.106C361.302 148.56 388.619 121.366 422.317 121.366C456.014 121.366 483.331 148.56 483.331 182.106" stroke="white" stroke-width="3"/>
<path d="M373.505 182.106C373.505 155.27 395.359 133.514 422.316 133.514C449.274 133.514 471.128 155.27 471.128 182.106" stroke="white" stroke-width="3"/>
<path d="M385.708 182.106C385.708 161.979 402.098 145.662 422.317 145.662C442.535 145.662 458.925 161.979 458.925 182.106" stroke="white" stroke-width="3"/>
<path d="M397.912 187.242C397.912 173.823 408.839 162.946 422.317 162.946C435.796 162.946 446.723 173.823 446.723 187.242" stroke="white" stroke-width="3"/>
<path d="M306.389 241.532C306.389 207.987 333.706 180.792 367.404 180.792C401.101 180.792 428.418 207.987 428.418 241.532" stroke="white" stroke-width="3"/>
<path d="M318.592 241.532C318.592 214.696 340.446 192.94 367.404 192.94C394.362 192.94 416.215 214.696 416.215 241.532" stroke="white" stroke-width="3"/>
<path d="M330.796 241.532C330.796 221.405 347.186 205.088 367.404 205.088C387.622 205.088 404.013 221.405 404.013 241.532" stroke="white" stroke-width="3"/>
<path d="M342.999 241.532C342.999 228.114 353.925 217.236 367.404 217.236C380.883 217.236 391.81 228.114 391.81 241.532" stroke="white" stroke-width="3"/>
<path d="M196.564 241.532C196.564 207.987 223.881 180.792 257.578 180.792C291.276 180.792 318.593 207.987 318.593 241.532" stroke="white" stroke-width="3"/>
<path d="M208.767 241.532C208.767 214.696 230.62 192.94 257.578 192.94C284.536 192.94 306.39 214.696 306.39 241.532" stroke="white" stroke-width="3"/>
<path d="M220.97 241.532C220.97 221.405 237.36 205.088 257.578 205.088C277.797 205.088 294.187 221.405 294.187 241.532" stroke="white" stroke-width="3"/>
<path d="M233.172 241.532C233.172 228.114 244.099 217.236 257.578 217.236C271.057 217.236 281.984 228.114 281.984 241.532" stroke="white" stroke-width="3"/>
<path d="M416.216 241.532C416.216 207.987 443.533 180.792 477.23 180.792C510.927 180.792 538.244 207.987 538.244 241.532" stroke="white" stroke-width="3"/>
<path d="M428.419 241.532C428.419 214.696 450.272 192.94 477.23 192.94C504.188 192.94 526.042 214.696 526.042 241.532" stroke="white" stroke-width="3"/>
<path d="M440.621 241.532C440.621 221.405 457.011 205.088 477.229 205.088C497.448 205.088 513.838 221.405 513.838 241.532" stroke="white" stroke-width="3"/>
<path d="M452.824 241.532C452.824 228.114 463.751 217.236 477.23 217.236C490.708 217.236 501.635 228.114 501.635 241.532" stroke="white" stroke-width="3"/>
<path d="M251.477 182.106C251.477 148.56 278.794 121.366 312.492 121.366C346.189 121.366 373.506 148.56 373.506 182.106" stroke="white" stroke-width="3"/>
<path d="M263.68 182.106C263.68 155.27 285.534 133.514 312.492 133.514C339.45 133.514 361.303 155.27 361.303 182.106" stroke="white" stroke-width="3"/>
<path d="M275.882 182.106C275.882 161.979 292.273 145.662 312.491 145.662C332.709 145.662 349.1 161.979 349.1 182.106" stroke="white" stroke-width="3"/>
<path d="M288.086 187.242C288.086 173.823 299.012 162.946 312.491 162.946C325.97 162.946 336.897 173.823 336.897 187.242" stroke="white" stroke-width="3"/>
<path d="M361.302 62.7399C361.302 29.1942 388.619 2 422.317 2C456.014 2 483.331 29.1942 483.331 62.7399" stroke="white" stroke-width="3"/>
<path d="M373.505 62.7399C373.505 35.9033 395.359 14.1479 422.316 14.1479C449.274 14.1479 471.128 35.9033 471.128 62.7399" stroke="white" stroke-width="3"/>
<path d="M385.708 62.7399C385.708 42.6124 402.098 26.2959 422.317 26.2959C442.535 26.2959 458.925 42.6124 458.925 62.7399" stroke="white" stroke-width="3"/>
<path d="M397.912 69.93C397.912 56.5117 408.839 45.634 422.317 45.634C435.796 45.634 446.723 56.5117 446.723 69.93" stroke="white" stroke-width="3"/>
<path d="M306.389 122.166C306.389 88.6205 333.706 61.4263 367.404 61.4263C401.101 61.4263 428.418 88.6205 428.418 122.166" stroke="white" stroke-width="3"/>
<path d="M318.592 122.166C318.592 95.3298 340.446 73.5745 367.404 73.5745C394.362 73.5745 416.215 95.3298 416.215 122.166" stroke="white" stroke-width="3"/>
<path d="M330.796 123.707C330.796 103.579 347.186 87.2629 367.404 87.2629C387.622 87.2629 404.013 103.579 404.013 123.707" stroke="white" stroke-width="3"/>
<path d="M342.999 128.842C342.999 115.424 353.925 104.546 367.404 104.546C380.883 104.546 391.81 115.424 391.81 128.842" stroke="white" stroke-width="3"/>
<path d="M196.564 122.166C196.564 88.6205 223.881 61.4263 257.578 61.4263C291.276 61.4263 318.593 88.6205 318.593 122.166" stroke="white" stroke-width="3"/>
<path d="M208.767 122.166C208.767 95.3298 230.62 73.5745 257.578 73.5745C284.536 73.5745 306.39 95.3298 306.39 122.166" stroke="white" stroke-width="3"/>
<path d="M220.97 124.22C220.97 104.093 237.36 87.7764 257.578 87.7764C277.797 87.7764 294.187 104.093 294.187 124.22" stroke="white" stroke-width="3"/>
<path d="M233.172 127.816C233.172 114.397 244.099 103.52 257.578 103.52C271.057 103.52 281.984 114.397 281.984 127.816" stroke="white" stroke-width="3"/>
<path d="M416.216 122.166C416.216 88.6205 443.533 61.4263 477.23 61.4263C510.927 61.4263 538.244 88.6205 538.244 122.166" stroke="white" stroke-width="3"/>
<path d="M428.419 122.166C428.419 95.3298 450.272 73.5745 477.23 73.5745C504.188 73.5745 526.042 95.3298 526.042 122.166" stroke="white" stroke-width="3"/>
<path d="M440.621 123.707C440.621 103.579 457.011 87.2629 477.229 87.2629C497.448 87.2629 513.838 103.579 513.838 123.707" stroke="white" stroke-width="3"/>
<path d="M452.824 127.816C452.824 114.397 463.751 103.52 477.23 103.52C490.708 103.52 501.635 114.397 501.635 127.816" stroke="white" stroke-width="3"/>
<path d="M251.477 62.7399C251.477 29.1942 278.794 2 312.492 2C346.189 2 373.506 29.1942 373.506 62.7399" stroke="white" stroke-width="3"/>
<path d="M263.68 62.7399C263.68 35.9033 285.534 14.1479 312.492 14.1479C339.45 14.1479 361.303 35.9033 361.303 62.7399" stroke="white" stroke-width="3"/>
<path d="M275.882 62.7399C275.882 42.6124 292.273 26.2959 312.491 26.2959C332.709 26.2959 349.1 42.6124 349.1 62.7399" stroke="white" stroke-width="3"/>
<path d="M288.086 68.9027C288.086 55.4844 299.012 44.6067 312.491 44.6067C325.97 44.6067 336.897 55.4844 336.897 68.9027" stroke="white" stroke-width="3"/>
<path d="M330.506 625.788C330.506 592.243 303.189 565.048 269.491 565.048C235.794 565.048 208.477 592.243 208.477 625.788" stroke="#595AE0" stroke-width="3"/>
<path d="M318.303 625.788C318.303 598.952 296.449 577.197 269.492 577.197C242.534 577.197 220.68 598.952 220.68 625.788" stroke="#595AE0" stroke-width="3"/>
<path d="M306.1 627.842C306.1 607.715 289.71 591.398 269.491 591.398C249.273 591.398 232.883 607.715 232.883 627.842" stroke="#595AE0" stroke-width="3"/>
<path d="M293.897 631.438C293.897 618.019 282.971 607.142 269.492 607.142C256.013 607.142 245.086 618.019 245.086 631.438" stroke="#595AE0" stroke-width="3"/>
<path d="M385.419 685.728C385.419 652.182 358.102 624.988 324.404 624.988C290.707 624.988 263.39 652.182 263.39 685.728" stroke="#595AE0" stroke-width="3"/>
<path d="M373.216 685.728C373.216 658.892 351.363 637.136 324.405 637.136C297.447 637.136 275.593 658.892 275.593 685.728" stroke="#595AE0" stroke-width="3"/>
<path d="M361.013 685.728C361.013 665.601 344.623 649.284 324.404 649.284C304.186 649.284 287.796 665.601 287.796 685.728" stroke="#595AE0" stroke-width="3"/>
<path d="M348.81 690.864C348.81 677.445 337.884 666.568 324.405 666.568C310.926 666.568 299.999 677.445 299.999 690.864" stroke="#595AE0" stroke-width="3"/>
<path d="M495.244 685.728C495.244 652.182 467.927 624.988 434.23 624.988C400.533 624.988 373.216 652.182 373.216 685.728" stroke="#595AE0" stroke-width="3"/>
<path d="M483.042 685.728C483.042 658.892 461.188 637.136 434.23 637.136C407.273 637.136 385.419 658.892 385.419 685.728" stroke="#595AE0" stroke-width="3"/>
<path d="M470.839 685.728C470.839 665.601 454.449 649.284 434.23 649.284C414.012 649.284 397.622 665.601 397.622 685.728" stroke="#595AE0" stroke-width="3"/>
<path d="M458.636 690.864C458.636 677.445 447.709 666.568 434.23 666.568C420.751 666.568 409.824 677.445 409.824 690.864" stroke="#595AE0" stroke-width="3"/>
<path d="M275.593 685.728C275.593 652.182 248.276 624.988 214.579 624.988C180.881 624.988 153.564 652.182 153.564 685.728" stroke="#595AE0" stroke-width="3"/>
<path d="M263.39 685.728C263.39 658.892 241.536 637.136 214.579 637.136C187.621 637.136 165.767 658.892 165.767 685.728" stroke="#595AE0" stroke-width="3"/>
<path d="M251.187 685.728C251.187 665.601 234.797 649.284 214.578 649.284C194.36 649.284 177.97 665.601 177.97 685.728" stroke="#595AE0" stroke-width="3"/>
<path d="M238.985 690.864C238.985 677.445 228.058 666.568 214.579 666.568C201.1 666.568 190.173 677.445 190.173 690.864" stroke="#595AE0" stroke-width="3"/>
<path d="M440.332 625.788C440.332 592.243 413.015 565.048 379.318 565.048C345.62 565.048 318.303 592.243 318.303 625.788" stroke="#595AE0" stroke-width="3"/>
<path d="M428.129 625.788C428.129 598.952 406.275 577.197 379.317 577.197C352.359 577.197 330.506 598.952 330.506 625.788" stroke="#595AE0" stroke-width="3"/>
<path d="M415.926 627.842C415.926 607.715 399.535 591.398 379.317 591.398C359.099 591.398 342.708 607.715 342.708 627.842" stroke="#595AE0" stroke-width="3"/>
<path d="M403.723 631.438C403.723 618.019 392.796 607.142 379.317 607.142C365.838 607.142 354.912 618.019 354.912 631.438" stroke="#595AE0" stroke-width="3"/>
<path d="M55.9417 685.728C55.9417 652.182 28.6246 624.988 -5.07262 624.988C-38.7699 624.988 -66.0869 652.182 -66.0869 685.728" stroke="#595AE0" stroke-width="3"/>
<path d="M43.7391 685.728C43.7391 658.892 21.8855 637.136 -5.07234 637.136C-32.0302 637.136 -53.8838 658.892 -53.8838 685.728" stroke="#595AE0" stroke-width="3"/>
<path d="M31.536 685.728C31.536 665.601 15.1458 649.284 -5.07258 649.284C-25.2909 649.284 -41.6812 665.601 -41.6812 685.728" stroke="#595AE0" stroke-width="3"/>
<path d="M19.3324 690.864C19.3324 677.445 8.40563 666.568 -5.07328 666.568C-18.5522 666.568 -29.479 677.445 -29.479 690.864" stroke="#595AE0" stroke-width="3"/>
<path d="M110.855 745.154C110.855 711.609 83.5377 684.415 49.8405 684.415C16.1432 684.415 -11.1738 711.609 -11.1738 745.154" stroke="#595AE0" stroke-width="3"/>
<path d="M98.6517 745.154C98.6517 718.318 76.7981 696.562 49.8403 696.562C22.8824 696.562 1.02881 718.318 1.02881 745.154" stroke="#595AE0" stroke-width="3"/>
<path d="M86.4486 745.154C86.4486 725.027 70.0584 708.71 49.84 708.71C29.6217 708.71 13.2314 725.027 13.2314 745.154" stroke="#595AE0" stroke-width="3"/>
<path d="M74.2455 745.154C74.2455 731.736 63.3187 720.858 49.8398 720.858C36.3609 720.858 25.4341 731.736 25.4341 745.154" stroke="#595AE0" stroke-width="3"/>
<path d="M220.68 745.154C220.68 711.609 193.363 684.415 159.666 684.415C125.968 684.415 98.6514 711.609 98.6514 745.154" stroke="#595AE0" stroke-width="3"/>
<path d="M208.477 745.154C208.477 718.318 186.624 696.562 159.666 696.562C132.708 696.562 110.854 718.318 110.854 745.154" stroke="#595AE0" stroke-width="3"/>
<path d="M196.274 745.154C196.274 725.027 179.884 708.71 159.666 708.71C139.447 708.71 123.057 725.027 123.057 745.154" stroke="#595AE0" stroke-width="3"/>
<path d="M184.072 745.154C184.072 731.736 173.145 720.858 159.666 720.858C146.187 720.858 135.26 731.736 135.26 745.154" stroke="#595AE0" stroke-width="3"/>
<path d="M1.02859 745.154C1.02859 711.609 -26.2884 684.415 -59.9857 684.415C-93.683 684.415 -121 711.609 -121 745.154" stroke="#595AE0" stroke-width="3"/>
<path d="M165.767 685.728C165.767 652.182 138.45 624.988 104.753 624.988C71.0558 624.988 43.7388 652.182 43.7388 685.728" stroke="#595AE0" stroke-width="3"/>
<path d="M153.564 685.728C153.564 658.892 131.71 637.136 104.752 637.136C77.7945 637.136 55.9409 658.892 55.9409 685.728" stroke="#595AE0" stroke-width="3"/>
<path d="M141.362 685.728C141.362 665.601 124.971 649.284 104.753 649.284C84.5347 649.284 68.1445 665.601 68.1445 685.728" stroke="#595AE0" stroke-width="3"/>
<path d="M129.159 690.864C129.159 677.445 118.232 666.568 104.753 666.568C91.274 666.568 80.3472 677.445 80.3472 690.864" stroke="#595AE0" stroke-width="3"/>
<path d="M55.9417 566.362C55.9417 532.816 28.6246 505.622 -5.07262 505.622C-38.7699 505.622 -66.0869 532.816 -66.0869 566.362" stroke="#595AE0" stroke-width="3"/>
<path d="M43.7391 566.362C43.7391 539.525 21.8855 517.77 -5.07234 517.77C-32.0302 517.77 -53.8838 539.525 -53.8838 566.362" stroke="#595AE0" stroke-width="3"/>
<path d="M31.536 566.362C31.536 546.234 15.1458 529.918 -5.07258 529.918C-25.2909 529.918 -41.6812 546.234 -41.6812 566.362" stroke="#595AE0" stroke-width="3"/>
<path d="M19.3324 573.552C19.3324 560.134 8.40563 549.256 -5.07328 549.256C-18.5522 549.256 -29.479 560.134 -29.479 573.552" stroke="#595AE0" stroke-width="3"/>
<path d="M110.855 625.788C110.855 592.243 83.5377 565.048 49.8405 565.048C16.1432 565.048 -11.1738 592.243 -11.1738 625.788" stroke="#595AE0" stroke-width="3"/>
<path d="M98.6517 625.788C98.6517 598.952 76.7981 577.197 49.8403 577.197C22.8824 577.197 1.02881 598.952 1.02881 625.788" stroke="#595AE0" stroke-width="3"/>
<path d="M86.4486 627.329C86.4486 607.202 70.0584 590.885 49.84 590.885C29.6217 590.885 13.2314 607.202 13.2314 627.329" stroke="#595AE0" stroke-width="3"/>
<path d="M74.2455 632.464C74.2455 619.046 63.3187 608.168 49.8398 608.168C36.3609 608.168 25.4341 619.046 25.4341 632.464" stroke="#595AE0" stroke-width="3"/>
<path d="M220.68 625.788C220.68 592.243 193.363 565.048 159.666 565.048C125.968 565.048 98.6514 592.243 98.6514 625.788" stroke="#595AE0" stroke-width="3"/>
<path d="M208.477 625.788C208.477 598.952 186.624 577.197 159.666 577.197C132.708 577.197 110.854 598.952 110.854 625.788" stroke="#595AE0" stroke-width="3"/>
<path d="M196.274 627.842C196.274 607.715 179.884 591.398 159.666 591.398C139.447 591.398 123.057 607.715 123.057 627.842" stroke="#595AE0" stroke-width="3"/>
<path d="M184.072 631.438C184.072 618.019 173.145 607.142 159.666 607.142C146.187 607.142 135.26 618.019 135.26 631.438" stroke="#595AE0" stroke-width="3"/>
<path d="M1.02859 625.788C1.02859 592.243 -26.2884 565.048 -59.9857 565.048C-93.683 565.048 -121 592.243 -121 625.788" stroke="#595AE0" stroke-width="3"/>
<path d="M165.767 566.362C165.767 532.816 138.45 505.622 104.753 505.622C71.0558 505.622 43.7388 532.816 43.7388 566.362" stroke="#595AE0" stroke-width="3"/>
<path d="M153.564 566.362C153.564 539.525 131.71 517.77 104.752 517.77C77.7945 517.77 55.9409 539.525 55.9409 566.362" stroke="#595AE0" stroke-width="3"/>
<path d="M141.362 566.362C141.362 546.234 124.971 529.918 104.753 529.918C84.5347 529.918 68.1445 546.234 68.1445 566.362" stroke="#595AE0" stroke-width="3"/>
<path d="M129.159 572.525C129.159 559.106 118.232 548.229 104.753 548.229C91.274 548.229 80.3472 559.106 80.3472 572.525" stroke="#595AE0" stroke-width="3"/>
<path d="M1235.89 535.683C1276.31 638.984 1244.38 663.052 1223.36 662.174" stroke="#B0DC7B" stroke-width="1.72063"/>
<path d="M1254.9 607.917C1257.96 574.655 1268.21 565.067 1272.96 564.431" stroke="#B0DC7B" stroke-width="1.72063"/>
<path d="M1220.96 594.463C1250.83 609.675 1255.96 622.718 1254.78 627.338" stroke="#B0DC7B" stroke-width="1.72063"/>
<g style="mix-blend-mode:overlay">
<g style="mix-blend-mode:exclusion">
<ellipse rx="9.74963" ry="9.7487" transform="matrix(-0.716081 -0.698017 -0.701241 0.712924 1242.43 528.188)" fill="#FFB59F"/>
</g>
<g style="mix-blend-mode:exclusion">
<ellipse rx="9.74963" ry="9.7487" transform="matrix(-0.716081 -0.698017 -0.701241 0.712924 1231.58 526.4)" fill="#FFB59F"/>
</g>
<g style="mix-blend-mode:exclusion">
<ellipse rx="9.74963" ry="9.7487" transform="matrix(-0.716081 -0.698017 -0.701241 0.712924 1225.26 537.31)" fill="#FFB59F"/>
</g>
<g style="mix-blend-mode:exclusion">
<ellipse rx="9.74963" ry="9.7487" transform="matrix(-0.716081 -0.698017 -0.701241 0.712924 1234.05 545.496)" fill="#FFB59F"/>
</g>
<g style="mix-blend-mode:exclusion">
<ellipse rx="9.74963" ry="9.7487" transform="matrix(-0.716081 -0.698017 -0.701241 0.712924 1244.1 541.401)" fill="#FFB59F"/>
</g>
</g>
<g style="mix-blend-mode:overlay">
<g style="mix-blend-mode:exclusion">
<ellipse rx="6.53201" ry="6.53139" transform="matrix(-0.716081 -0.698017 -0.701241 0.712924 1278.22 559.197)" fill="#B0DC7B"/>
</g>
<g style="mix-blend-mode:exclusion">
<ellipse rx="6.53201" ry="6.53139" transform="matrix(-0.716081 -0.698017 -0.701241 0.712924 1270.95 557.999)" fill="#B0DC7B"/>
</g>
<g style="mix-blend-mode:exclusion">
<ellipse rx="6.53201" ry="6.53139" transform="matrix(-0.716081 -0.698017 -0.701241 0.712924 1266.71 565.308)" fill="#B0DC7B"/>
</g>
<g style="mix-blend-mode:exclusion">
<ellipse rx="6.53201" ry="6.53139" transform="matrix(-0.716081 -0.698017 -0.701241 0.712924 1272.61 570.792)" fill="#B0DC7B"/>
</g>
<g style="mix-blend-mode:exclusion">
<ellipse rx="6.53201" ry="6.53139" transform="matrix(-0.716081 -0.698017 -0.701241 0.712924 1279.34 568.049)" fill="#B0DC7B"/>
</g>
</g>
<g style="mix-blend-mode:overlay">
<g style="mix-blend-mode:exclusion">
<ellipse rx="6.53201" ry="6.53139" transform="matrix(-0.716081 -0.698017 -0.701241 0.712924 1226.07 590.244)" fill="#FFEC43"/>
</g>
<g style="mix-blend-mode:exclusion">
<ellipse rx="6.53201" ry="6.53139" transform="matrix(-0.716081 -0.698017 -0.701241 0.712924 1218.8 589.046)" fill="#FFEC43"/>
</g>
<g style="mix-blend-mode:exclusion">
<ellipse rx="6.53201" ry="6.53139" transform="matrix(-0.716081 -0.698017 -0.701241 0.712924 1214.56 596.356)" fill="#FFEC43"/>
</g>
<g style="mix-blend-mode:exclusion">
<ellipse rx="6.53201" ry="6.53139" transform="matrix(-0.716081 -0.698017 -0.701241 0.712924 1220.45 601.84)" fill="#FFEC43"/>
</g>
<g style="mix-blend-mode:exclusion">
<ellipse rx="6.53201" ry="6.53139" transform="matrix(-0.716081 -0.698017 -0.701241 0.712924 1227.18 599.097)" fill="#FFEC43"/>
</g>
</g>
<path d="M215.064 451.417C174.649 554.717 206.579 578.786 227.596 577.908" stroke="#B0DC7B" stroke-width="1.72063"/>
<path d="M196.058 523.651C192.997 490.389 182.745 480.801 178.001 480.164" stroke="#B0DC7B" stroke-width="1.72063"/>
<path d="M229.995 510.196C200.124 525.408 195.003 538.451 196.176 543.071" stroke="#B0DC7B" stroke-width="1.72063"/>
<g style="mix-blend-mode:overlay">
<g style="mix-blend-mode:exclusion">
<ellipse rx="9.74963" ry="9.7487" transform="matrix(0.716081 -0.698017 0.701241 0.712924 208.523 443.921)" fill="#FFB59F"/>
</g>
<g style="mix-blend-mode:exclusion">
<ellipse rx="9.74963" ry="9.7487" transform="matrix(0.716081 -0.698017 0.701241 0.712924 219.376 442.133)" fill="#FFB59F"/>
</g>
<g style="mix-blend-mode:exclusion">
<ellipse rx="9.74963" ry="9.7487" transform="matrix(0.716081 -0.698017 0.701241 0.712924 225.701 453.043)" fill="#FFB59F"/>
</g>
<g style="mix-blend-mode:exclusion">
<ellipse rx="9.74963" ry="9.7487" transform="matrix(0.716081 -0.698017 0.701241 0.712924 216.904 461.229)" fill="#FFB59F"/>
</g>
<g style="mix-blend-mode:exclusion">
<ellipse rx="9.74963" ry="9.7487" transform="matrix(0.716081 -0.698017 0.701241 0.712924 206.86 457.134)" fill="#FFB59F"/>
</g>
</g>
<g style="mix-blend-mode:overlay">
<g style="mix-blend-mode:exclusion">
<ellipse rx="6.53201" ry="6.53139" transform="matrix(0.716081 -0.698017 0.701241 0.712924 172.737 474.929)" fill="#B0DC7B"/>
</g>
<g style="mix-blend-mode:exclusion">
<ellipse rx="6.53201" ry="6.53139" transform="matrix(0.716081 -0.698017 0.701241 0.712924 180.008 473.731)" fill="#B0DC7B"/>
</g>
<g style="mix-blend-mode:exclusion">
<ellipse rx="6.53201" ry="6.53139" transform="matrix(0.716081 -0.698017 0.701241 0.712924 184.245 481.041)" fill="#B0DC7B"/>
</g>
<g style="mix-blend-mode:exclusion">
<ellipse rx="6.53201" ry="6.53139" transform="matrix(0.716081 -0.698017 0.701241 0.712924 178.352 486.525)" fill="#B0DC7B"/>
</g>
<g style="mix-blend-mode:exclusion">
<ellipse rx="6.53201" ry="6.53139" transform="matrix(0.716081 -0.698017 0.701241 0.712924 171.622 483.782)" fill="#B0DC7B"/>
</g>
</g>
<g style="mix-blend-mode:overlay">
<g style="mix-blend-mode:exclusion">
<ellipse rx="6.53201" ry="6.53139" transform="matrix(0.716081 -0.698017 0.701241 0.712924 224.889 505.977)" fill="#FFEC43"/>
</g>
<g style="mix-blend-mode:exclusion">
<ellipse rx="6.53201" ry="6.53139" transform="matrix(0.716081 -0.698017 0.701241 0.712924 232.16 504.779)" fill="#FFEC43"/>
</g>
<g style="mix-blend-mode:exclusion">
<ellipse rx="6.53201" ry="6.53139" transform="matrix(0.716081 -0.698017 0.701241 0.712924 236.397 512.088)" fill="#FFEC43"/>
</g>
<g style="mix-blend-mode:exclusion">
<ellipse rx="6.53201" ry="6.53139" transform="matrix(0.716081 -0.698017 0.701241 0.712924 230.504 517.573)" fill="#FFEC43"/>
</g>
<g style="mix-blend-mode:exclusion">
<ellipse rx="6.53201" ry="6.53139" transform="matrix(0.716081 -0.698017 0.701241 0.712924 223.774 514.83)" fill="#FFEC43"/>
</g>
</g>
</svg>
