<svg width="375" height="150" viewBox="0 0 375 150" fill="none" xmlns="http://www.w3.org/2000/svg">
<path d="M302 119.375H74.809C63.6722 75.2729 88.0672 72.1778 105.7 78.6743C107.037 33.2362 152.542 39.3041 166.688 57.0086C196.798 12.2911 260.307 31.4582 260.307 67.7541C295.054 47.2624 301.257 96.9154 302 119.375Z" fill="#FACEBC" stroke="#FEDAD0" stroke-width="6"/>
<path fill-rule="evenodd" clip-rule="evenodd" d="M96.2119 88.1002C101.993 87.8352 108.3 91.3046 110.829 98.0146C112.973 103.706 110.747 108.934 107.708 112.8C104.667 116.669 100.488 119.639 97.5493 121.224C96.2976 121.899 94.7356 121.431 94.0606 120.179C93.3856 118.928 93.8531 117.366 95.1049 116.691C97.6072 115.341 101.168 112.786 103.659 109.618C106.152 106.446 107.251 103.125 106.01 99.8306C104.306 95.3091 100.111 93.077 96.4477 93.2448C94.6416 93.3276 93.0631 93.9868 91.9445 95.1334C90.8456 96.2598 89.9894 98.0627 89.9894 100.825C89.9894 101.731 90.3291 102.239 90.8981 102.632C91.5831 103.105 92.6994 103.443 94.1124 103.491C95.4994 103.539 96.9269 103.296 98.052 102.865C99.276 102.396 99.6839 101.893 99.7432 101.768C100.351 100.482 101.886 99.9329 103.172 100.541C104.458 101.149 105.007 102.684 104.399 103.97C103.501 105.868 101.598 107.022 99.8941 107.674C98.0917 108.365 95.9747 108.708 93.9369 108.638C91.925 108.57 89.7362 108.088 87.9723 106.87C86.0923 105.573 84.8393 103.52 84.8394 100.825C84.8394 96.9351 86.0799 93.7698 88.2581 91.537C90.4166 89.3246 93.2957 88.2338 96.2119 88.1002Z" fill="#FEDAD0"/>
<path d="M147.334 98.5126C145.994 98.5126 144.874 98.3926 143.974 98.1526C143.074 97.8926 142.354 97.5626 141.814 97.1626C141.274 96.7426 140.884 96.2826 140.644 95.7826C140.424 95.2826 140.314 94.7926 140.314 94.3126C140.314 93.6326 140.474 93.0926 140.794 92.6926C141.114 92.2726 141.534 91.9726 142.054 91.7926C142.574 91.6126 143.124 91.5226 143.704 91.5226C143.704 92.6626 143.874 93.6226 144.214 94.4026C144.574 95.1626 145.064 95.7426 145.684 96.1426C146.304 96.5226 147.014 96.7126 147.814 96.7126C148.994 96.7126 149.904 96.4026 150.544 95.7826C151.204 95.1626 151.534 94.3926 151.534 93.4726C151.534 92.7926 151.344 92.2126 150.964 91.7326C150.604 91.2326 150.054 90.7826 149.314 90.3826C148.574 89.9626 147.644 89.5226 146.524 89.0626C145.484 88.6426 144.604 88.2026 143.884 87.7426C143.164 87.2826 142.584 86.7926 142.144 86.2726C141.704 85.7326 141.384 85.1626 141.184 84.5626C141.004 83.9426 140.914 83.2626 140.914 82.5226C140.914 81.3026 141.234 80.2426 141.874 79.3426C142.514 78.4426 143.384 77.7426 144.484 77.2426C145.604 76.7426 146.864 76.4926 148.264 76.4926C149.744 76.4926 150.954 76.6526 151.894 76.9726C152.834 77.2726 153.524 77.6826 153.964 78.2026C154.424 78.7226 154.654 79.3126 154.654 79.9726C154.654 80.6726 154.344 81.2626 153.724 81.7426C153.124 82.2226 152.204 82.4626 150.964 82.4626C150.964 81.9026 150.854 81.3026 150.634 80.6626C150.434 80.0226 150.104 79.4726 149.644 79.0126C149.184 78.5526 148.564 78.3226 147.784 78.3226C147.244 78.3226 146.744 78.4326 146.284 78.6526C145.844 78.8526 145.484 79.1626 145.204 79.5826C144.944 79.9826 144.814 80.4826 144.814 81.0826C144.814 81.6426 144.944 82.1626 145.204 82.6426C145.464 83.1226 145.954 83.6026 146.674 84.0826C147.394 84.5426 148.424 85.0426 149.764 85.5826C151.144 86.1426 152.254 86.7226 153.094 87.3226C153.934 87.9226 154.544 88.6026 154.924 89.3626C155.304 90.1026 155.494 90.9626 155.494 91.9426C155.494 93.2226 155.154 94.3626 154.474 95.3626C153.814 96.3426 152.874 97.1126 151.654 97.6726C150.434 98.2326 148.994 98.5126 147.334 98.5126ZM164.282 98.5126C162.942 98.5126 161.872 98.1626 161.072 97.4626C160.272 96.7626 159.872 95.5326 159.872 93.7726V84.1726H157.622V82.6426C158.262 82.6426 158.832 82.5126 159.332 82.2526C159.852 81.9926 160.262 81.7026 160.562 81.3826C160.862 81.0626 161.132 80.6626 161.372 80.1826C161.612 79.6826 161.802 79.0926 161.942 78.4126H164.432V82.1326H168.272V84.1726H164.432V93.4726C164.432 94.3726 164.582 95.0326 164.882 95.4526C165.202 95.8726 165.712 96.0826 166.412 96.0826C166.812 96.0826 167.182 96.0626 167.522 96.0226C167.882 95.9626 168.222 95.8926 168.542 95.8126V97.7626C168.222 97.9026 167.692 98.0626 166.952 98.2426C166.232 98.4226 165.342 98.5126 164.282 98.5126ZM178.3 98.5126C175.9 98.5126 174.01 97.8226 172.63 96.4426C171.25 95.0426 170.56 92.9326 170.56 90.1126C170.56 87.2926 171.22 85.1926 172.54 83.8126C173.86 82.4326 175.81 81.7426 178.39 81.7426C180.79 81.7426 182.68 82.4326 184.06 83.8126C185.44 85.1926 186.13 87.2926 186.13 90.1126C186.13 92.9326 185.46 95.0426 184.12 96.4426C182.8 97.8226 180.86 98.5126 178.3 98.5126ZM178.36 96.6226C179.14 96.6226 179.75 96.3826 180.19 95.9026C180.65 95.4026 180.98 94.6726 181.18 93.7126C181.38 92.7326 181.48 91.5326 181.48 90.1126C181.48 88.6726 181.38 87.4826 181.18 86.5426C180.98 85.5826 180.65 84.8626 180.19 84.3826C179.73 83.9026 179.12 83.6626 178.36 83.6626C177.58 83.6626 176.96 83.9026 176.5 84.3826C176.04 84.8626 175.71 85.5826 175.51 86.5426C175.31 87.4826 175.21 88.6726 175.21 90.1126C175.21 91.5326 175.31 92.7326 175.51 93.7126C175.71 94.6726 176.04 95.4026 176.5 95.9026C176.98 96.3826 177.6 96.6226 178.36 96.6226ZM188.149 98.2126V96.6226H188.239C188.699 96.6226 189.099 96.5726 189.439 96.4726C189.779 96.3726 190.049 96.1726 190.249 95.8726C190.449 95.5526 190.549 95.0826 190.549 94.4626V85.7626C190.549 85.1626 190.459 84.7226 190.279 84.4426C190.099 84.1426 189.849 83.9526 189.529 83.8726C189.209 83.7726 188.829 83.7226 188.389 83.7226H188.299V82.1326H194.359L194.959 84.4726H195.109C195.369 83.8726 195.669 83.3726 196.009 82.9726C196.349 82.5726 196.779 82.2726 197.299 82.0726C197.839 81.8726 198.519 81.7726 199.339 81.7726C200.519 81.7726 201.389 81.9826 201.949 82.4026C202.509 82.8226 202.789 83.4226 202.789 84.2026C202.789 85.1226 202.449 85.8426 201.769 86.3626C201.109 86.8626 200.179 87.1126 198.979 87.1126C198.979 86.5526 198.929 86.0926 198.829 85.7326C198.749 85.3726 198.599 85.1026 198.379 84.9226C198.179 84.7226 197.889 84.6226 197.509 84.6226C196.989 84.6226 196.569 84.8026 196.249 85.1626C195.929 85.5226 195.689 85.9726 195.529 86.5126C195.369 87.0326 195.259 87.5626 195.199 88.1026C195.139 88.6426 195.109 89.0826 195.109 89.4226V94.6126C195.109 95.1926 195.199 95.6326 195.379 95.9326C195.559 96.2126 195.809 96.4026 196.129 96.5026C196.449 96.5826 196.809 96.6226 197.209 96.6226H198.169V98.2126H188.149ZM203.762 98.2126V96.6226H204.122C204.422 96.6226 204.732 96.5826 205.052 96.5026C205.392 96.4026 205.672 96.2126 205.892 95.9326C206.132 95.6526 206.252 95.2326 206.252 94.6726V85.5526C206.252 85.0126 206.132 84.6126 205.892 84.3526C205.652 84.0926 205.362 83.9226 205.022 83.8426C204.702 83.7626 204.402 83.7226 204.122 83.7226H203.762V82.1326H210.812V94.6726C210.812 95.2326 210.922 95.6526 211.142 95.9326C211.382 96.2126 211.672 96.4026 212.012 96.5026C212.352 96.5826 212.662 96.6226 212.942 96.6226H213.302V98.2126H203.762ZM208.382 79.4326C207.662 79.4326 207.052 79.2626 206.552 78.9226C206.072 78.5626 205.832 78.0126 205.832 77.2726C205.832 76.5126 206.082 75.9626 206.582 75.6226C207.082 75.2826 207.692 75.1126 208.412 75.1126C209.092 75.1126 209.682 75.2826 210.182 75.6226C210.702 75.9626 210.962 76.5126 210.962 77.2726C210.962 78.0126 210.702 78.5626 210.182 78.9226C209.682 79.2626 209.082 79.4326 208.382 79.4326ZM222.979 98.5126C220.439 98.5126 218.509 97.7926 217.189 96.3526C215.869 94.8926 215.209 92.8626 215.209 90.2626C215.209 87.4426 215.859 85.3226 217.159 83.9026C218.459 82.4626 220.289 81.7426 222.649 81.7426C224.829 81.7426 226.539 82.3526 227.779 83.5726C229.039 84.7926 229.669 86.5926 229.669 88.9726V90.5026H219.829C219.869 91.8426 220.049 92.9426 220.369 93.8026C220.689 94.6426 221.139 95.2626 221.719 95.6626C222.319 96.0626 223.029 96.2626 223.849 96.2626C224.549 96.2626 225.169 96.1626 225.709 95.9626C226.269 95.7426 226.749 95.4526 227.149 95.0926C227.549 94.7126 227.859 94.2926 228.079 93.8326C228.359 93.9726 228.559 94.1726 228.679 94.4326C228.819 94.6726 228.889 94.9626 228.889 95.3026C228.889 95.8626 228.679 96.3926 228.259 96.8926C227.839 97.3726 227.189 97.7626 226.309 98.0626C225.449 98.3626 224.339 98.5126 222.979 98.5126ZM225.079 88.5826C225.079 87.5626 224.999 86.6926 224.839 85.9726C224.679 85.2326 224.429 84.6726 224.089 84.2926C223.749 83.8926 223.289 83.6926 222.709 83.6926C222.149 83.6926 221.659 83.8826 221.239 84.2626C220.839 84.6226 220.519 85.1726 220.279 85.9126C220.059 86.6326 219.929 87.5226 219.889 88.5826H225.079ZM237.868 98.5126C236.428 98.5126 235.258 98.3626 234.358 98.0626C233.478 97.7426 232.838 97.3226 232.438 96.8026C232.038 96.2626 231.838 95.6626 231.838 95.0026C231.838 94.3426 231.998 93.8526 232.318 93.5326C232.638 93.2126 233.018 93.0026 233.458 92.9026C233.898 92.7826 234.288 92.7226 234.628 92.7226C234.628 93.5426 234.758 94.2626 235.018 94.8826C235.298 95.4826 235.678 95.9426 236.158 96.2626C236.658 96.5826 237.228 96.7426 237.868 96.7426C238.908 96.7426 239.658 96.5426 240.118 96.1426C240.598 95.7426 240.838 95.2626 240.838 94.7026C240.838 94.2626 240.728 93.8826 240.508 93.5626C240.288 93.2226 239.908 92.9126 239.368 92.6326C238.828 92.3326 238.088 92.0226 237.148 91.7026C236.068 91.3226 235.158 90.9126 234.418 90.4726C233.678 90.0126 233.108 89.4726 232.708 88.8526C232.328 88.2126 232.138 87.4426 232.138 86.5426C232.138 84.9426 232.728 83.7526 233.908 82.9726C235.088 82.1726 236.648 81.7726 238.588 81.7726C239.848 81.7726 240.858 81.9126 241.618 82.1926C242.398 82.4526 242.958 82.8026 243.298 83.2426C243.658 83.6626 243.838 84.1026 243.838 84.5626C243.838 85.2426 243.598 85.7626 243.118 86.1226C242.658 86.4626 241.878 86.6326 240.778 86.6326C240.778 85.6326 240.558 84.8626 240.118 84.3226C239.678 83.7626 239.018 83.4826 238.138 83.4826C237.718 83.4826 237.318 83.5526 236.938 83.6926C236.578 83.8326 236.278 84.0426 236.038 84.3226C235.818 84.5826 235.708 84.9226 235.708 85.3426C235.708 85.7626 235.818 86.1326 236.038 86.4526C236.278 86.7726 236.698 87.0826 237.298 87.3826C237.898 87.6826 238.738 88.0226 239.818 88.4026C240.718 88.7026 241.508 89.0726 242.188 89.5126C242.868 89.9326 243.398 90.4526 243.778 91.0726C244.178 91.6726 244.378 92.3926 244.378 93.2326C244.378 94.8926 243.808 96.1926 242.668 97.1326C241.548 98.0526 239.948 98.5126 237.868 98.5126Z" fill="#181994"/>
</svg>
