<svg width="1440" height="325" viewBox="0 0 1440 325" fill="none" xmlns="http://www.w3.org/2000/svg">
<path d="M460.492 118.966C420.386 221.939 452.072 245.932 472.928 245.057" stroke="#B0DC7B" stroke-width="1.72063"/>
<path d="M441.631 190.971C438.595 157.815 428.42 148.257 423.713 147.622" stroke="#B0DC7B" stroke-width="1.72063"/>
<path d="M475.308 177.559C445.666 192.723 440.584 205.725 441.748 210.33" stroke="#B0DC7B" stroke-width="1.72063"/>
<g style="mix-blend-mode:overlay">
<g style="mix-blend-mode:exclusion">
<circle cx="454.002" cy="111.494" r="9.69636" transform="rotate(-44.3974 454.002 111.494)" fill="#FFB59F"/>
</g>
<g style="mix-blend-mode:exclusion">
<circle cx="464.772" cy="109.712" r="9.69636" transform="rotate(-44.3974 464.772 109.712)" fill="#FFB59F"/>
</g>
<g style="mix-blend-mode:exclusion">
<circle cx="471.048" cy="120.587" r="9.69636" transform="rotate(-44.3974 471.048 120.587)" fill="#FFB59F"/>
</g>
<g style="mix-blend-mode:exclusion">
<circle cx="462.318" cy="128.747" r="9.69636" transform="rotate(-44.3974 462.318 128.747)" fill="#FFB59F"/>
</g>
<g style="mix-blend-mode:exclusion">
<circle cx="452.351" cy="124.665" r="9.69636" transform="rotate(-44.3974 452.351 124.665)" fill="#FFB59F"/>
</g>
</g>
<g style="mix-blend-mode:overlay">
<g style="mix-blend-mode:exclusion">
<circle cx="418.489" cy="142.404" r="6.49632" transform="rotate(-44.3974 418.489 142.404)" fill="#B0DC7B"/>
</g>
<g style="mix-blend-mode:exclusion">
<circle cx="425.705" cy="141.21" r="6.49632" transform="rotate(-44.3974 425.705 141.21)" fill="#B0DC7B"/>
</g>
<g style="mix-blend-mode:exclusion">
<circle cx="429.909" cy="148.496" r="6.49632" transform="rotate(-44.3974 429.909 148.496)" fill="#B0DC7B"/>
</g>
<g style="mix-blend-mode:exclusion">
<circle cx="424.061" cy="153.963" r="6.49632" transform="rotate(-44.3974 424.061 153.963)" fill="#B0DC7B"/>
</g>
<g style="mix-blend-mode:exclusion">
<circle cx="417.383" cy="151.229" r="6.49632" transform="rotate(-44.3974 417.383 151.229)" fill="#B0DC7B"/>
</g>
</g>
<g style="mix-blend-mode:overlay">
<g style="mix-blend-mode:exclusion">
<circle cx="470.241" cy="173.354" r="6.49632" transform="rotate(-44.3974 470.241 173.354)" fill="#FFEC43"/>
</g>
<g style="mix-blend-mode:exclusion">
<circle cx="477.457" cy="172.16" r="6.49632" transform="rotate(-44.3974 477.457 172.16)" fill="#FFEC43"/>
</g>
<g style="mix-blend-mode:exclusion">
<circle cx="481.662" cy="179.446" r="6.49632" transform="rotate(-44.3974 481.662 179.446)" fill="#FFEC43"/>
</g>
<g style="mix-blend-mode:exclusion">
<circle cx="475.813" cy="184.913" r="6.49632" transform="rotate(-44.3974 475.813 184.913)" fill="#FFEC43"/>
</g>
<g style="mix-blend-mode:exclusion">
<circle cx="469.135" cy="182.178" r="6.49632" transform="rotate(-44.3974 469.135 182.178)" fill="#FFEC43"/>
</g>
</g>
<path d="M959.508 118.966C999.614 221.939 967.928 245.932 947.072 245.057" stroke="#B0DC7B" stroke-width="1.72063"/>
<path d="M978.369 190.971C981.405 157.815 991.58 148.257 996.287 147.622" stroke="#B0DC7B" stroke-width="1.72063"/>
<path d="M944.692 177.559C974.334 192.723 979.416 205.725 978.252 210.33" stroke="#B0DC7B" stroke-width="1.72063"/>
<g style="mix-blend-mode:overlay">
<g style="mix-blend-mode:exclusion">
<circle r="9.69636" transform="matrix(-0.714505 -0.699631 -0.699631 0.714505 965.998 111.494)" fill="#FFB59F"/>
</g>
<g style="mix-blend-mode:exclusion">
<circle r="9.69636" transform="matrix(-0.714505 -0.699631 -0.699631 0.714505 955.228 109.712)" fill="#FFB59F"/>
</g>
<g style="mix-blend-mode:exclusion">
<circle r="9.69636" transform="matrix(-0.714505 -0.699631 -0.699631 0.714505 948.952 120.587)" fill="#FFB59F"/>
</g>
<g style="mix-blend-mode:exclusion">
<circle r="9.69636" transform="matrix(-0.714505 -0.699631 -0.699631 0.714505 957.682 128.747)" fill="#FFB59F"/>
</g>
<g style="mix-blend-mode:exclusion">
<circle r="9.69636" transform="matrix(-0.714505 -0.699631 -0.699631 0.714505 967.649 124.665)" fill="#FFB59F"/>
</g>
</g>
<g style="mix-blend-mode:overlay">
<g style="mix-blend-mode:exclusion">
<circle r="6.49632" transform="matrix(-0.714505 -0.699631 -0.699631 0.714505 1001.51 142.404)" fill="#B0DC7B"/>
</g>
<g style="mix-blend-mode:exclusion">
<circle r="6.49632" transform="matrix(-0.714505 -0.699631 -0.699631 0.714505 994.295 141.21)" fill="#B0DC7B"/>
</g>
<g style="mix-blend-mode:exclusion">
<circle r="6.49632" transform="matrix(-0.714505 -0.699631 -0.699631 0.714505 990.091 148.496)" fill="#B0DC7B"/>
</g>
<g style="mix-blend-mode:exclusion">
<circle r="6.49632" transform="matrix(-0.714505 -0.699631 -0.699631 0.714505 995.939 153.963)" fill="#B0DC7B"/>
</g>
<g style="mix-blend-mode:exclusion">
<circle r="6.49632" transform="matrix(-0.714505 -0.699631 -0.699631 0.714505 1002.62 151.229)" fill="#B0DC7B"/>
</g>
</g>
<g style="mix-blend-mode:overlay">
<g style="mix-blend-mode:exclusion">
<circle r="6.49632" transform="matrix(-0.714505 -0.699631 -0.699631 0.714505 949.759 173.354)" fill="#FFEC43"/>
</g>
<g style="mix-blend-mode:exclusion">
<circle r="6.49632" transform="matrix(-0.714505 -0.699631 -0.699631 0.714505 942.543 172.16)" fill="#FFEC43"/>
</g>
<g style="mix-blend-mode:exclusion">
<circle r="6.49632" transform="matrix(-0.714505 -0.699631 -0.699631 0.714505 938.338 179.446)" fill="#FFEC43"/>
</g>
<g style="mix-blend-mode:exclusion">
<circle r="6.49632" transform="matrix(-0.714505 -0.699631 -0.699631 0.714505 944.187 184.913)" fill="#FFEC43"/>
</g>
<g style="mix-blend-mode:exclusion">
<circle r="6.49632" transform="matrix(-0.714505 -0.699631 -0.699631 0.714505 950.865 182.178)" fill="#FFEC43"/>
</g>
</g>
<path d="M912.04 232.314H516.752C497.375 155.582 539.82 150.197 570.5 161.5C572.825 82.4423 652 92.9999 676.611 123.804C729 45.9999 821 69.5 838.5 132.5C898.956 96.8465 910.749 193.238 912.04 232.314Z" fill="#FACEBC" stroke="#FEDAD0" stroke-width="9"/>
<path fill-rule="evenodd" clip-rule="evenodd" d="M553.99 177.9C564.048 177.439 575.022 183.475 579.422 195.15C583.153 205.052 579.279 214.15 573.991 220.876C568.7 227.607 561.43 232.774 556.317 235.531C554.139 236.706 551.421 235.892 550.247 233.715C549.072 231.537 549.886 228.819 552.064 227.645C556.417 225.297 562.613 220.852 566.947 215.338C571.285 209.82 573.196 204.041 571.037 198.31C568.072 190.443 560.774 186.559 554.4 186.851C551.258 186.995 548.511 188.142 546.565 190.137C544.653 192.097 543.163 195.234 543.163 200.041C543.163 201.616 543.754 202.501 544.744 203.184C545.936 204.007 547.878 204.595 550.337 204.679C552.75 204.761 555.234 204.339 557.191 203.589C559.321 202.773 560.031 201.898 560.134 201.68C561.192 199.443 563.863 198.488 566.1 199.546C568.336 200.604 569.292 203.275 568.234 205.512C566.671 208.815 563.361 210.821 560.396 211.957C557.26 213.158 553.577 213.755 550.031 213.635C546.531 213.515 542.723 212.677 539.654 210.558C536.383 208.3 534.203 204.729 534.203 200.04C534.203 193.272 536.361 187.765 540.151 183.88C543.906 180.03 548.916 178.133 553.99 177.9Z" fill="#FEDAD0"/>
<path d="M624.146 196.64C621.287 196.64 618.898 196.384 616.978 195.872C615.058 195.317 613.522 194.613 612.37 193.76C611.218 192.864 610.386 191.883 609.874 190.816C609.405 189.749 609.17 188.704 609.17 187.68C609.17 186.229 609.511 185.077 610.194 184.224C610.877 183.328 611.773 182.688 612.882 182.304C613.991 181.92 615.165 181.728 616.402 181.728C616.402 184.16 616.765 186.208 617.49 187.872C618.258 189.493 619.303 190.731 620.626 191.584C621.949 192.395 623.463 192.8 625.17 192.8C627.687 192.8 629.629 192.139 630.994 190.816C632.402 189.493 633.106 187.851 633.106 185.888C633.106 184.437 632.701 183.2 631.89 182.176C631.122 181.109 629.949 180.149 628.37 179.296C626.791 178.4 624.807 177.461 622.418 176.48C620.199 175.584 618.322 174.645 616.786 173.664C615.25 172.683 614.013 171.637 613.074 170.528C612.135 169.376 611.453 168.16 611.026 166.88C610.642 165.557 610.45 164.107 610.45 162.528C610.45 159.925 611.133 157.664 612.498 155.744C613.863 153.824 615.719 152.331 618.066 151.264C620.455 150.197 623.143 149.664 626.13 149.664C629.287 149.664 631.869 150.005 633.874 150.688C635.879 151.328 637.351 152.203 638.29 153.312C639.271 154.421 639.762 155.68 639.762 157.088C639.762 158.581 639.101 159.84 637.778 160.864C636.498 161.888 634.535 162.4 631.89 162.4C631.89 161.205 631.655 159.925 631.186 158.56C630.759 157.195 630.055 156.021 629.074 155.04C628.093 154.059 626.77 153.568 625.106 153.568C623.954 153.568 622.887 153.803 621.906 154.272C620.967 154.699 620.199 155.36 619.602 156.256C619.047 157.109 618.77 158.176 618.77 159.456C618.77 160.651 619.047 161.76 619.602 162.784C620.157 163.808 621.202 164.832 622.738 165.856C624.274 166.837 626.471 167.904 629.33 169.056C632.274 170.251 634.642 171.488 636.434 172.768C638.226 174.048 639.527 175.499 640.338 177.12C641.149 178.699 641.554 180.533 641.554 182.624C641.554 185.355 640.829 187.787 639.378 189.92C637.97 192.011 635.965 193.653 633.362 194.848C630.759 196.043 627.687 196.64 624.146 196.64ZM660.302 196.64C657.443 196.64 655.161 195.893 653.454 194.4C651.747 192.907 650.894 190.283 650.894 186.528V166.048H646.094V162.784C647.459 162.784 648.675 162.507 649.742 161.952C650.851 161.397 651.726 160.779 652.366 160.096C653.006 159.413 653.582 158.56 654.094 157.536C654.606 156.469 655.011 155.211 655.31 153.76H660.622V161.696H668.814V166.048H660.622V185.888C660.622 187.808 660.942 189.216 661.582 190.112C662.265 191.008 663.353 191.456 664.846 191.456C665.699 191.456 666.489 191.413 667.214 191.328C667.982 191.2 668.707 191.051 669.39 190.88V195.04C668.707 195.339 667.577 195.68 665.998 196.064C664.462 196.448 662.563 196.64 660.302 196.64ZM690.208 196.64C685.088 196.64 681.056 195.168 678.112 192.224C675.168 189.237 673.696 184.736 673.696 178.72C673.696 172.704 675.104 168.224 677.92 165.28C680.736 162.336 684.896 160.864 690.4 160.864C695.52 160.864 699.552 162.336 702.496 165.28C705.44 168.224 706.912 172.704 706.912 178.72C706.912 184.736 705.482 189.237 702.624 192.224C699.808 195.168 695.669 196.64 690.208 196.64ZM690.336 192.608C692 192.608 693.301 192.096 694.24 191.072C695.221 190.005 695.925 188.448 696.352 186.4C696.778 184.309 696.992 181.749 696.992 178.72C696.992 175.648 696.778 173.109 696.352 171.104C695.925 169.056 695.221 167.52 694.24 166.496C693.258 165.472 691.957 164.96 690.336 164.96C688.672 164.96 687.349 165.472 686.368 166.496C685.386 167.52 684.682 169.056 684.256 171.104C683.829 173.109 683.616 175.648 683.616 178.72C683.616 181.749 683.829 184.309 684.256 186.4C684.682 188.448 685.386 190.005 686.368 191.072C687.392 192.096 688.714 192.608 690.336 192.608ZM711.218 196V192.608H711.41C712.391 192.608 713.244 192.501 713.97 192.288C714.695 192.075 715.271 191.648 715.698 191.008C716.124 190.325 716.338 189.323 716.338 188V169.44C716.338 168.16 716.146 167.221 715.762 166.624C715.378 165.984 714.844 165.579 714.161 165.408C713.479 165.195 712.668 165.088 711.73 165.088H711.538V161.696H724.466L725.746 166.688H726.066C726.62 165.408 727.26 164.341 727.986 163.488C728.711 162.635 729.628 161.995 730.738 161.568C731.89 161.141 733.34 160.928 735.09 160.928C737.607 160.928 739.463 161.376 740.658 162.272C741.852 163.168 742.45 164.448 742.45 166.112C742.45 168.075 741.724 169.611 740.274 170.72C738.866 171.787 736.882 172.32 734.322 172.32C734.322 171.125 734.215 170.144 734.002 169.376C733.831 168.608 733.511 168.032 733.042 167.648C732.615 167.221 731.996 167.008 731.186 167.008C730.076 167.008 729.18 167.392 728.498 168.16C727.815 168.928 727.303 169.888 726.962 171.04C726.62 172.149 726.386 173.28 726.258 174.432C726.13 175.584 726.066 176.523 726.066 177.248V188.32C726.066 189.557 726.258 190.496 726.642 191.136C727.026 191.733 727.559 192.139 728.242 192.352C728.924 192.523 729.692 192.608 730.546 192.608H732.594V196H711.218ZM744.526 196V192.608H745.294C745.934 192.608 746.595 192.523 747.278 192.352C748.003 192.139 748.6 191.733 749.07 191.136C749.582 190.539 749.838 189.643 749.838 188.448V168.992C749.838 167.84 749.582 166.987 749.07 166.432C748.558 165.877 747.939 165.515 747.214 165.344C746.531 165.173 745.891 165.088 745.294 165.088H744.526V161.696H759.566V188.448C759.566 189.643 759.8 190.539 760.27 191.136C760.782 191.733 761.4 192.139 762.126 192.352C762.851 192.523 763.512 192.608 764.11 192.608H764.878V196H744.526ZM754.382 155.936C752.846 155.936 751.544 155.573 750.478 154.848C749.454 154.08 748.942 152.907 748.942 151.328C748.942 149.707 749.475 148.533 750.542 147.808C751.608 147.083 752.91 146.72 754.446 146.72C755.896 146.72 757.155 147.083 758.222 147.808C759.331 148.533 759.885 149.707 759.885 151.328C759.885 152.907 759.331 154.08 758.222 154.848C757.155 155.573 755.875 155.936 754.382 155.936ZM785.522 196.64C780.103 196.64 775.986 195.104 773.17 192.032C770.354 188.917 768.946 184.587 768.946 179.04C768.946 173.024 770.332 168.501 773.106 165.472C775.879 162.4 779.783 160.864 784.818 160.864C789.468 160.864 793.116 162.165 795.762 164.768C798.45 167.371 799.794 171.211 799.794 176.288V179.552H778.802C778.887 182.411 779.271 184.757 779.954 186.592C780.636 188.384 781.596 189.707 782.833 190.56C784.113 191.413 785.628 191.84 787.378 191.84C788.871 191.84 790.194 191.627 791.346 191.2C792.54 190.731 793.564 190.112 794.418 189.344C795.271 188.533 795.932 187.637 796.402 186.656C796.999 186.955 797.426 187.381 797.682 187.936C797.98 188.448 798.13 189.067 798.13 189.792C798.13 190.987 797.682 192.117 796.786 193.184C795.89 194.208 794.503 195.04 792.626 195.68C790.791 196.32 788.423 196.64 785.522 196.64ZM790.002 175.456C790.002 173.28 789.831 171.424 789.49 169.888C789.148 168.309 788.615 167.115 787.89 166.304C787.164 165.451 786.183 165.024 784.946 165.024C783.751 165.024 782.706 165.429 781.81 166.24C780.956 167.008 780.274 168.181 779.762 169.76C779.292 171.296 779.015 173.195 778.93 175.456H790.002ZM817.284 196.64C814.212 196.64 811.716 196.32 809.796 195.68C807.919 194.997 806.553 194.101 805.7 192.992C804.847 191.84 804.42 190.56 804.42 189.152C804.42 187.744 804.761 186.699 805.444 186.016C806.127 185.333 806.937 184.885 807.876 184.672C808.815 184.416 809.647 184.288 810.372 184.288C810.372 186.037 810.649 187.573 811.204 188.896C811.801 190.176 812.612 191.157 813.636 191.84C814.703 192.523 815.919 192.864 817.284 192.864C819.503 192.864 821.103 192.437 822.084 191.584C823.108 190.731 823.62 189.707 823.62 188.512C823.62 187.573 823.385 186.763 822.916 186.08C822.447 185.355 821.636 184.693 820.484 184.096C819.332 183.456 817.753 182.795 815.748 182.112C813.444 181.301 811.503 180.427 809.924 179.488C808.345 178.507 807.129 177.355 806.276 176.032C805.465 174.667 805.06 173.024 805.06 171.104C805.06 167.691 806.319 165.152 808.836 163.488C811.353 161.781 814.681 160.928 818.82 160.928C821.508 160.928 823.663 161.227 825.284 161.824C826.948 162.379 828.143 163.125 828.868 164.064C829.636 164.96 830.02 165.899 830.02 166.88C830.02 168.331 829.508 169.44 828.484 170.208C827.503 170.933 825.839 171.296 823.492 171.296C823.492 169.163 823.023 167.52 822.084 166.368C821.145 165.173 819.737 164.576 817.86 164.576C816.964 164.576 816.111 164.725 815.3 165.024C814.532 165.323 813.892 165.771 813.38 166.368C812.911 166.923 812.676 167.648 812.676 168.544C812.676 169.44 812.911 170.229 813.38 170.912C813.892 171.595 814.788 172.256 816.068 172.896C817.348 173.536 819.14 174.261 821.444 175.072C823.364 175.712 825.049 176.501 826.5 177.44C827.951 178.336 829.081 179.445 829.892 180.768C830.745 182.048 831.172 183.584 831.172 185.376C831.172 188.917 829.956 191.691 827.524 193.696C825.135 195.659 821.721 196.64 817.284 196.64Z" fill="#181994"/>
<path d="M1526.89 235.406C1526.89 202.363 1500.1 175.577 1467.06 175.577C1434.02 175.577 1407.23 202.363 1407.23 235.406" stroke="#595AE0" stroke-width="3"/>
<path d="M1514.92 235.406C1514.92 208.972 1493.49 187.542 1467.06 187.542C1440.62 187.542 1419.2 208.972 1419.2 235.406" stroke="#595AE0" stroke-width="3"/>
<path d="M1502.96 235.406C1502.96 215.58 1486.88 199.508 1467.06 199.508C1447.23 199.508 1431.16 215.58 1431.16 235.406" stroke="#595AE0" stroke-width="3"/>
<path d="M1311.5 235.406C1311.5 202.363 1284.72 175.577 1251.68 175.577C1218.63 175.577 1191.85 202.363 1191.85 235.406" stroke="#595AE0" stroke-width="3"/>
<path d="M1299.54 235.406C1299.54 208.972 1278.11 187.542 1251.68 187.542C1225.24 187.542 1203.81 208.972 1203.81 235.406" stroke="#595AE0" stroke-width="3"/>
<path d="M1287.57 235.406C1287.57 215.58 1271.5 199.508 1251.67 199.508C1231.85 199.508 1215.78 215.58 1215.78 235.406" stroke="#595AE0" stroke-width="3"/>
<path d="M1275.61 240.465C1275.61 227.247 1264.89 216.533 1251.68 216.533C1238.46 216.533 1227.74 227.247 1227.74 240.465" stroke="#595AE0" stroke-width="3"/>
<path d="M1365.35 293.942C1365.35 260.899 1338.56 234.112 1305.52 234.112C1272.48 234.112 1245.69 260.899 1245.69 293.942" stroke="#595AE0" stroke-width="3"/>
<path d="M1353.38 293.941C1353.38 267.507 1331.96 246.078 1305.52 246.078C1279.09 246.078 1257.66 267.507 1257.66 293.941" stroke="#595AE0" stroke-width="3"/>
<path d="M1341.42 293.941C1341.42 274.115 1325.35 258.043 1305.52 258.043C1285.7 258.043 1269.62 274.115 1269.62 293.941" stroke="#595AE0" stroke-width="3"/>
<path d="M1329.45 293.941C1329.45 280.724 1318.74 270.01 1305.52 270.01C1292.3 270.01 1281.59 280.724 1281.59 293.941" stroke="#595AE0" stroke-width="3"/>
<path d="M1473.04 293.942C1473.04 260.899 1446.26 234.112 1413.21 234.112C1380.17 234.112 1353.38 260.899 1353.38 293.942" stroke="#595AE0" stroke-width="3"/>
<path d="M1461.08 293.941C1461.08 267.507 1439.65 246.078 1413.21 246.078C1386.78 246.078 1365.35 267.507 1365.35 293.941" stroke="#595AE0" stroke-width="3"/>
<path d="M1449.11 293.941C1449.11 274.115 1433.04 258.043 1413.21 258.043C1393.39 258.043 1377.32 274.115 1377.32 293.941" stroke="#595AE0" stroke-width="3"/>
<path d="M1437.14 293.941C1437.14 280.724 1426.43 270.01 1413.21 270.01C1400 270.01 1389.28 280.724 1389.28 293.941" stroke="#595AE0" stroke-width="3"/>
<path d="M1257.66 293.942C1257.66 260.899 1230.87 234.112 1197.83 234.112C1164.79 234.112 1138 260.899 1138 293.942" stroke="#595AE0" stroke-width="3"/>
<path d="M1245.69 293.941C1245.69 267.507 1224.26 246.078 1197.83 246.078C1171.39 246.078 1149.97 267.507 1149.97 293.941" stroke="#595AE0" stroke-width="3"/>
<path d="M1233.73 293.941C1233.73 274.115 1217.65 258.043 1197.83 258.043C1178 258.043 1161.93 274.115 1161.93 293.941" stroke="#595AE0" stroke-width="3"/>
<path d="M1221.76 293.941C1221.76 280.724 1211.05 270.01 1197.83 270.01C1184.61 270.01 1173.9 280.724 1173.9 293.941" stroke="#595AE0" stroke-width="3"/>
<path d="M1419.2 235.406C1419.2 202.363 1392.41 175.577 1359.37 175.577C1326.32 175.577 1299.54 202.363 1299.54 235.406" stroke="#595AE0" stroke-width="3"/>
<path d="M1407.23 235.406C1407.23 208.972 1385.8 187.542 1359.37 187.542C1332.93 187.542 1311.5 208.972 1311.5 235.406" stroke="#595AE0" stroke-width="3"/>
<path d="M1395.26 235.406C1395.26 215.58 1379.19 199.508 1359.37 199.508C1339.54 199.508 1323.47 215.58 1323.47 235.406" stroke="#595AE0" stroke-width="3"/>
<path d="M1383.3 240.465C1383.3 227.247 1372.58 216.533 1359.37 216.533C1346.15 216.533 1335.44 227.247 1335.44 240.465" stroke="#595AE0" stroke-width="3"/>
<path d="M1311.5 117.829C1311.5 84.7865 1284.72 58 1251.68 58C1218.63 58 1191.85 84.7865 1191.85 117.829" stroke="#595AE0" stroke-width="3"/>
<path d="M1299.54 117.829C1299.54 91.395 1278.11 69.9658 1251.68 69.9658C1225.24 69.9658 1203.81 91.395 1203.81 117.829" stroke="#595AE0" stroke-width="3"/>
<path d="M1287.57 117.829C1287.57 98.0037 1271.5 81.9318 1251.67 81.9318C1231.85 81.9318 1215.78 98.0037 1215.78 117.829" stroke="#595AE0" stroke-width="3"/>
<path d="M1275.61 124.911C1275.61 111.694 1264.89 100.98 1251.68 100.98C1238.46 100.98 1227.74 111.694 1227.74 124.911" stroke="#595AE0" stroke-width="3"/>
<path d="M1365.35 176.365C1365.35 143.322 1338.56 116.535 1305.52 116.535C1272.48 116.535 1245.69 143.322 1245.69 176.365" stroke="#595AE0" stroke-width="3"/>
<path d="M1353.38 176.365C1353.38 149.931 1331.96 128.501 1305.52 128.501C1279.09 128.501 1257.66 149.931 1257.66 176.365" stroke="#595AE0" stroke-width="3"/>
<path d="M1341.42 177.882C1341.42 158.057 1325.35 141.985 1305.52 141.985C1285.7 141.985 1269.62 158.057 1269.62 177.882" stroke="#595AE0" stroke-width="3"/>
<path d="M1329.45 182.941C1329.45 169.724 1318.74 159.009 1305.52 159.009C1292.3 159.009 1281.59 169.724 1281.59 182.941" stroke="#595AE0" stroke-width="3"/>
<path d="M1473.04 176.365C1473.04 143.322 1446.26 116.535 1413.21 116.535C1380.17 116.535 1353.38 143.322 1353.38 176.365" stroke="#595AE0" stroke-width="3"/>
<path d="M1461.08 176.365C1461.08 149.931 1439.65 128.501 1413.21 128.501C1386.78 128.501 1365.35 149.931 1365.35 176.365" stroke="#595AE0" stroke-width="3"/>
<path d="M1449.11 178.388C1449.11 158.562 1433.04 142.49 1413.21 142.49C1393.39 142.49 1377.32 158.562 1377.32 178.388" stroke="#595AE0" stroke-width="3"/>
<path d="M1437.14 181.929C1437.14 168.712 1426.43 157.997 1413.21 157.997C1400 157.997 1389.28 168.712 1389.28 181.929" stroke="#595AE0" stroke-width="3"/>
<path d="M1257.66 176.365C1257.66 143.322 1230.87 116.535 1197.83 116.535C1164.79 116.535 1138 143.322 1138 176.365" stroke="#595AE0" stroke-width="3"/>
<path d="M1245.69 176.365C1245.69 149.931 1224.26 128.501 1197.83 128.501C1171.39 128.501 1149.97 149.931 1149.97 176.365" stroke="#595AE0" stroke-width="3"/>
<path d="M1233.73 177.882C1233.73 158.057 1217.65 141.985 1197.83 141.985C1178 141.985 1161.93 158.057 1161.93 177.882" stroke="#595AE0" stroke-width="3"/>
<path d="M1221.76 181.929C1221.76 168.712 1211.05 157.997 1197.83 157.997C1184.61 157.997 1173.9 168.712 1173.9 181.929" stroke="#595AE0" stroke-width="3"/>
<path d="M1419.2 117.829C1419.2 84.7865 1392.41 58 1359.37 58C1326.32 58 1299.54 84.7865 1299.54 117.829" stroke="#595AE0" stroke-width="3"/>
<path d="M1407.23 117.829C1407.23 91.395 1385.8 69.9658 1359.37 69.9658C1332.93 69.9658 1311.5 91.395 1311.5 117.829" stroke="#595AE0" stroke-width="3"/>
<path d="M1395.26 117.829C1395.26 98.0037 1379.19 81.9318 1359.37 81.9318C1339.54 81.9318 1323.47 98.0037 1323.47 117.829" stroke="#595AE0" stroke-width="3"/>
<path d="M1383.3 123.9C1383.3 110.683 1372.58 99.9679 1359.37 99.9679C1346.15 99.9679 1335.44 110.683 1335.44 123.9" stroke="#595AE0" stroke-width="3"/>
</svg>
