<svg width="1440" height="811" viewBox="0 0 1440 811" fill="none" xmlns="http://www.w3.org/2000/svg">
<path d="M1457.73 693.365C1457.73 660.322 1430.95 633.535 1397.91 633.535C1364.86 633.535 1338.08 660.322 1338.08 693.365" stroke="#595AE0" stroke-width="3"/>
<path d="M1445.77 693.365C1445.77 666.931 1424.34 645.501 1397.91 645.501C1371.47 645.501 1350.04 666.931 1350.04 693.365" stroke="#595AE0" stroke-width="3"/>
<path d="M1433.8 695.388C1433.8 675.562 1417.73 659.49 1397.91 659.49C1378.08 659.49 1362.01 675.562 1362.01 695.388" stroke="#595AE0" stroke-width="3"/>
<path d="M1421.84 698.929C1421.84 685.712 1411.12 674.997 1397.91 674.997C1384.69 674.997 1373.97 685.712 1373.97 698.929" stroke="#595AE0" stroke-width="3"/>
<path d="M1511.58 752.406C1511.58 719.363 1484.79 692.577 1451.75 692.577C1418.71 692.577 1391.92 719.363 1391.92 752.406" stroke="#595AE0" stroke-width="3"/>
<path d="M1499.61 752.406C1499.61 725.972 1478.19 704.542 1451.75 704.542C1425.32 704.542 1403.89 725.972 1403.89 752.406" stroke="#595AE0" stroke-width="3"/>
<path d="M1487.65 752.406C1487.65 732.58 1471.58 716.508 1451.75 716.508C1431.93 716.508 1415.85 732.58 1415.85 752.406" stroke="#595AE0" stroke-width="3"/>
<path d="M1475.68 757.464C1475.68 744.247 1464.97 733.533 1451.75 733.533C1438.53 733.533 1427.82 744.247 1427.82 757.464" stroke="#595AE0" stroke-width="3"/>
<path d="M1403.89 752.406C1403.89 719.363 1377.1 692.577 1344.06 692.577C1311.02 692.577 1284.23 719.363 1284.23 752.406" stroke="#595AE0" stroke-width="3"/>
<path d="M1391.92 752.406C1391.92 725.972 1370.49 704.542 1344.06 704.542C1317.62 704.542 1296.2 725.972 1296.2 752.406" stroke="#595AE0" stroke-width="3"/>
<path d="M1379.96 752.406C1379.96 732.58 1363.88 716.508 1344.06 716.508C1324.23 716.508 1308.16 732.58 1308.16 752.406" stroke="#595AE0" stroke-width="3"/>
<path d="M1367.99 757.464C1367.99 744.247 1357.28 733.533 1344.06 733.533C1330.84 733.533 1320.13 744.247 1320.13 757.464" stroke="#595AE0" stroke-width="3"/>
<path d="M1188.5 752.406C1188.5 719.363 1161.72 692.577 1128.68 692.577C1095.63 692.577 1068.85 719.363 1068.85 752.406" stroke="#595AE0" stroke-width="3"/>
<path d="M1176.54 752.406C1176.54 725.972 1155.11 704.542 1128.68 704.542C1102.24 704.542 1080.81 725.972 1080.81 752.406" stroke="#595AE0" stroke-width="3"/>
<path d="M1164.57 752.406C1164.57 732.58 1148.5 716.508 1128.67 716.508C1108.85 716.508 1092.78 732.58 1092.78 752.406" stroke="#595AE0" stroke-width="3"/>
<path d="M1152.61 757.464C1152.61 744.247 1141.89 733.533 1128.68 733.533C1115.46 733.533 1104.74 744.247 1104.74 757.464" stroke="#595AE0" stroke-width="3"/>
<path d="M1242.35 810.941C1242.35 777.899 1215.56 751.112 1182.52 751.112C1149.48 751.112 1122.69 777.899 1122.69 810.941" stroke="#595AE0" stroke-width="3"/>
<path d="M1230.38 810.941C1230.38 784.507 1208.96 763.078 1182.52 763.078C1156.09 763.078 1134.66 784.507 1134.66 810.941" stroke="#595AE0" stroke-width="3"/>
<path d="M1218.42 810.941C1218.42 791.115 1202.35 775.043 1182.52 775.043C1162.7 775.043 1146.62 791.115 1146.62 810.941" stroke="#595AE0" stroke-width="3"/>
<path d="M1206.45 810.941C1206.45 797.724 1195.74 787.01 1182.52 787.01C1169.3 787.01 1158.59 797.724 1158.59 810.941" stroke="#595AE0" stroke-width="3"/>
<path d="M1350.04 810.941C1350.04 777.899 1323.26 751.112 1290.21 751.112C1257.17 751.112 1230.38 777.899 1230.38 810.941" stroke="#595AE0" stroke-width="3"/>
<path d="M1338.08 810.941C1338.08 784.507 1316.65 763.078 1290.21 763.078C1263.78 763.078 1242.35 784.507 1242.35 810.941" stroke="#595AE0" stroke-width="3"/>
<path d="M1326.11 810.941C1326.11 791.115 1310.04 775.043 1290.21 775.043C1270.39 775.043 1254.32 791.115 1254.32 810.941" stroke="#595AE0" stroke-width="3"/>
<path d="M1314.14 810.941C1314.14 797.724 1303.43 787.01 1290.21 787.01C1277 787.01 1266.28 797.724 1266.28 810.941" stroke="#595AE0" stroke-width="3"/>
<path d="M1134.66 810.941C1134.66 777.899 1107.87 751.112 1074.83 751.112C1041.79 751.112 1015 777.899 1015 810.941" stroke="#595AE0" stroke-width="3"/>
<path d="M1122.69 810.941C1122.69 784.507 1101.26 763.078 1074.83 763.078C1048.39 763.078 1026.97 784.507 1026.97 810.941" stroke="#595AE0" stroke-width="3"/>
<path d="M1110.73 810.941C1110.73 791.115 1094.65 775.043 1074.83 775.043C1055 775.043 1038.93 791.115 1038.93 810.941" stroke="#595AE0" stroke-width="3"/>
<path d="M1098.76 810.941C1098.76 797.724 1088.05 787.01 1074.83 787.01C1061.61 787.01 1050.9 797.724 1050.9 810.941" stroke="#595AE0" stroke-width="3"/>
<path d="M1296.2 752.406C1296.2 719.363 1269.41 692.577 1236.37 692.577C1203.32 692.577 1176.54 719.363 1176.54 752.406" stroke="#595AE0" stroke-width="3"/>
<path d="M1284.23 752.406C1284.23 725.972 1262.8 704.542 1236.37 704.542C1209.93 704.542 1188.5 725.972 1188.5 752.406" stroke="#595AE0" stroke-width="3"/>
<path d="M1272.26 752.406C1272.26 732.58 1256.19 716.508 1236.37 716.508C1216.54 716.508 1200.47 732.58 1200.47 752.406" stroke="#595AE0" stroke-width="3"/>
<path d="M1260.3 757.464C1260.3 744.247 1249.58 733.533 1236.37 733.533C1223.15 733.533 1212.44 744.247 1212.44 757.464" stroke="#595AE0" stroke-width="3"/>
<path d="M1188.5 634.829C1188.5 601.787 1161.72 575 1128.68 575C1095.63 575 1068.85 601.787 1068.85 634.829" stroke="#595AE0" stroke-width="3"/>
<path d="M1176.54 634.829C1176.54 608.395 1155.11 586.966 1128.68 586.966C1102.24 586.966 1080.81 608.395 1080.81 634.829" stroke="#595AE0" stroke-width="3"/>
<path d="M1164.57 634.829C1164.57 615.004 1148.5 598.932 1128.67 598.932C1108.85 598.932 1092.78 615.004 1092.78 634.829" stroke="#595AE0" stroke-width="3"/>
<path d="M1152.61 641.911C1152.61 628.694 1141.89 617.98 1128.68 617.98C1115.46 617.98 1104.74 628.694 1104.74 641.911" stroke="#595AE0" stroke-width="3"/>
<path d="M1242.35 693.365C1242.35 660.322 1215.56 633.535 1182.52 633.535C1149.48 633.535 1122.69 660.322 1122.69 693.365" stroke="#595AE0" stroke-width="3"/>
<path d="M1230.38 693.365C1230.38 666.931 1208.96 645.501 1182.52 645.501C1156.09 645.501 1134.66 666.931 1134.66 693.365" stroke="#595AE0" stroke-width="3"/>
<path d="M1218.42 694.882C1218.42 675.057 1202.35 658.985 1182.52 658.985C1162.7 658.985 1146.62 675.057 1146.62 694.882" stroke="#595AE0" stroke-width="3"/>
<path d="M1206.45 699.941C1206.45 686.724 1195.74 676.009 1182.52 676.009C1169.3 676.009 1158.59 686.724 1158.59 699.941" stroke="#595AE0" stroke-width="3"/>
<path d="M1350.04 693.365C1350.04 660.322 1323.26 633.535 1290.21 633.535C1257.17 633.535 1230.38 660.322 1230.38 693.365" stroke="#595AE0" stroke-width="3"/>
<path d="M1338.08 693.365C1338.08 666.931 1316.65 645.501 1290.21 645.501C1263.78 645.501 1242.35 666.931 1242.35 693.365" stroke="#595AE0" stroke-width="3"/>
<path d="M1326.11 695.388C1326.11 675.562 1310.04 659.49 1290.21 659.49C1270.39 659.49 1254.32 675.562 1254.32 695.388" stroke="#595AE0" stroke-width="3"/>
<path d="M1314.14 698.929C1314.14 685.712 1303.43 674.997 1290.21 674.997C1277 674.997 1266.28 685.712 1266.28 698.929" stroke="#595AE0" stroke-width="3"/>
<path d="M1134.66 693.365C1134.66 660.322 1107.87 633.535 1074.83 633.535C1041.79 633.535 1015 660.322 1015 693.365" stroke="#595AE0" stroke-width="3"/>
<path d="M1122.69 693.365C1122.69 666.931 1101.26 645.501 1074.83 645.501C1048.39 645.501 1026.97 666.931 1026.97 693.365" stroke="#595AE0" stroke-width="3"/>
<path d="M1110.73 694.882C1110.73 675.057 1094.65 658.985 1074.83 658.985C1055 658.985 1038.93 675.057 1038.93 694.882" stroke="#595AE0" stroke-width="3"/>
<path d="M1098.76 698.929C1098.76 685.712 1088.05 674.997 1074.83 674.997C1061.61 674.997 1050.9 685.712 1050.9 698.929" stroke="#595AE0" stroke-width="3"/>
<path d="M1296.2 634.829C1296.2 601.787 1269.41 575 1236.37 575C1203.32 575 1176.54 601.787 1176.54 634.829" stroke="#595AE0" stroke-width="3"/>
<path d="M1284.23 634.829C1284.23 608.395 1262.8 586.966 1236.37 586.966C1209.93 586.966 1188.5 608.395 1188.5 634.829" stroke="#595AE0" stroke-width="3"/>
<path d="M1272.26 634.829C1272.26 615.004 1256.19 598.932 1236.37 598.932C1216.54 598.932 1200.47 615.004 1200.47 634.829" stroke="#595AE0" stroke-width="3"/>
<path d="M1260.3 640.9C1260.3 627.682 1249.58 616.968 1236.37 616.968C1223.15 616.968 1212.44 627.682 1212.44 640.9" stroke="#595AE0" stroke-width="3"/>
<path d="M442.734 691.365C442.734 658.322 415.948 631.535 382.905 631.535C349.863 631.535 323.076 658.322 323.076 691.365" stroke="#595AE0" stroke-width="3"/>
<path d="M430.768 691.365C430.768 664.931 409.339 643.501 382.905 643.501C356.471 643.501 335.042 664.931 335.042 691.365" stroke="#595AE0" stroke-width="3"/>
<path d="M418.803 693.388C418.803 673.562 402.731 657.49 382.905 657.49C363.08 657.49 347.008 673.562 347.008 693.388" stroke="#595AE0" stroke-width="3"/>
<path d="M406.837 696.929C406.837 683.712 396.122 672.997 382.905 672.997C369.688 672.997 358.974 683.712 358.974 696.929" stroke="#595AE0" stroke-width="3"/>
<path d="M496.58 750.406C496.58 717.363 469.794 690.577 436.751 690.577C403.709 690.577 376.922 717.363 376.922 750.406" stroke="#595AE0" stroke-width="3"/>
<path d="M484.615 750.406C484.615 723.972 463.185 702.542 436.751 702.542C410.317 702.542 388.888 723.972 388.888 750.406" stroke="#595AE0" stroke-width="3"/>
<path d="M472.649 750.406C472.649 730.58 456.577 714.508 436.751 714.508C416.926 714.508 400.854 730.58 400.854 750.406" stroke="#595AE0" stroke-width="3"/>
<path d="M460.683 755.464C460.683 742.247 449.968 731.533 436.751 731.533C423.534 731.533 412.82 742.247 412.82 755.464" stroke="#595AE0" stroke-width="3"/>
<path d="M604.272 750.406C604.272 717.363 577.486 690.577 544.443 690.577C511.401 690.577 484.614 717.363 484.614 750.406" stroke="#595AE0" stroke-width="3"/>
<path d="M592.306 750.406C592.306 723.972 570.877 702.542 544.443 702.542C518.009 702.542 496.58 723.972 496.58 750.406" stroke="#595AE0" stroke-width="3"/>
<path d="M580.341 750.406C580.341 730.58 564.269 714.508 544.443 714.508C524.618 714.508 508.546 730.58 508.546 750.406" stroke="#595AE0" stroke-width="3"/>
<path d="M568.375 755.464C568.375 742.247 557.66 731.533 544.443 731.533C531.226 731.533 520.512 742.247 520.512 755.464" stroke="#595AE0" stroke-width="3"/>
<path d="M388.888 750.406C388.888 717.363 362.102 690.577 329.059 690.577C296.016 690.577 269.23 717.363 269.23 750.406" stroke="#595AE0" stroke-width="3"/>
<path d="M376.923 750.406C376.923 723.972 355.494 702.542 329.059 702.542C302.625 702.542 281.196 723.972 281.196 750.406" stroke="#595AE0" stroke-width="3"/>
<path d="M364.956 750.406C364.956 730.58 348.885 714.508 329.059 714.508C309.233 714.508 293.162 730.58 293.162 750.406" stroke="#595AE0" stroke-width="3"/>
<path d="M352.991 755.464C352.991 742.247 342.277 731.533 329.06 731.533C315.842 731.533 305.128 742.247 305.128 755.464" stroke="#595AE0" stroke-width="3"/>
<path d="M550.426 691.365C550.426 658.322 523.64 631.535 490.597 631.535C457.555 631.535 430.769 658.322 430.769 691.365" stroke="#595AE0" stroke-width="3"/>
<path d="M538.461 691.365C538.461 664.931 517.032 643.501 490.598 643.501C464.163 643.501 442.734 664.931 442.734 691.365" stroke="#595AE0" stroke-width="3"/>
<path d="M526.495 693.388C526.495 673.562 510.423 657.49 490.598 657.49C470.772 657.49 454.7 673.562 454.7 693.388" stroke="#595AE0" stroke-width="3"/>
<path d="M514.529 696.929C514.529 683.712 503.815 672.997 490.598 672.997C477.381 672.997 466.666 683.712 466.666 696.929" stroke="#595AE0" stroke-width="3"/>
<path d="M173.505 750.406C173.505 717.363 146.718 690.577 113.676 690.577C80.633 690.577 53.8467 717.363 53.8467 750.406" stroke="#595AE0" stroke-width="3"/>
<path d="M161.538 750.406C161.538 723.972 140.109 702.542 113.675 702.542C87.2411 702.542 65.812 723.972 65.812 750.406" stroke="#595AE0" stroke-width="3"/>
<path d="M149.572 750.406C149.572 730.58 133.5 714.508 113.675 714.508C93.8491 714.508 77.7773 730.58 77.7773 750.406" stroke="#595AE0" stroke-width="3"/>
<path d="M137.606 755.464C137.606 742.247 126.892 731.533 113.675 731.533C100.458 731.533 89.7432 742.247 89.7432 755.464" stroke="#595AE0" stroke-width="3"/>
<path d="M227.35 808.941C227.35 775.899 200.564 749.112 167.521 749.112C134.479 749.112 107.692 775.899 107.692 808.941" stroke="#595AE0" stroke-width="3"/>
<path d="M215.385 808.941C215.385 782.507 193.955 761.078 167.521 761.078C141.087 761.078 119.658 782.507 119.658 808.941" stroke="#595AE0" stroke-width="3"/>
<path d="M203.419 808.941C203.419 789.115 187.347 773.043 167.521 773.043C147.696 773.043 131.624 789.115 131.624 808.941" stroke="#595AE0" stroke-width="3"/>
<path d="M191.453 808.941C191.453 795.724 180.738 785.01 167.521 785.01C154.304 785.01 143.589 795.724 143.589 808.941" stroke="#595AE0" stroke-width="3"/>
<path d="M335.042 808.941C335.042 775.899 308.256 749.112 275.213 749.112C242.171 749.112 215.384 775.899 215.384 808.941" stroke="#595AE0" stroke-width="3"/>
<path d="M323.076 808.941C323.076 782.507 301.647 761.078 275.213 761.078C248.779 761.078 227.35 782.507 227.35 808.941" stroke="#595AE0" stroke-width="3"/>
<path d="M311.111 808.941C311.111 789.115 295.039 773.043 275.213 773.043C255.388 773.043 239.316 789.115 239.316 808.941" stroke="#595AE0" stroke-width="3"/>
<path d="M299.145 808.941C299.145 795.724 288.43 785.01 275.213 785.01C261.996 785.01 251.282 795.724 251.282 808.941" stroke="#595AE0" stroke-width="3"/>
<path d="M119.658 808.941C119.658 775.899 92.8716 749.112 59.8289 749.112C26.7863 749.112 0 775.899 0 808.941" stroke="#595AE0" stroke-width="3"/>
<path d="M107.692 808.941C107.692 782.507 86.2631 761.078 59.829 761.078C33.3949 761.078 11.9658 782.507 11.9658 808.941" stroke="#595AE0" stroke-width="3"/>
<path d="M95.7264 808.941C95.7264 789.115 79.6546 773.043 59.829 773.043C40.0034 773.043 23.9316 789.115 23.9316 808.941" stroke="#595AE0" stroke-width="3"/>
<path d="M83.7606 808.941C83.7606 795.724 73.0461 785.01 59.829 785.01C46.612 785.01 35.8975 795.724 35.8975 808.941" stroke="#595AE0" stroke-width="3"/>
<path d="M281.196 750.406C281.196 717.363 254.41 690.577 221.367 690.577C188.324 690.577 161.538 717.363 161.538 750.406" stroke="#595AE0" stroke-width="3"/>
<path d="M269.23 750.406C269.23 723.972 247.801 702.542 221.367 702.542C194.933 702.542 173.504 723.972 173.504 750.406" stroke="#595AE0" stroke-width="3"/>
<path d="M257.264 750.406C257.264 730.58 241.193 714.508 221.367 714.508C201.542 714.508 185.47 730.58 185.47 750.406" stroke="#595AE0" stroke-width="3"/>
<path d="M245.299 755.464C245.299 742.247 234.584 731.533 221.367 731.533C208.15 731.533 197.436 742.247 197.436 755.464" stroke="#595AE0" stroke-width="3"/>
<path d="M173.505 632.829C173.505 599.787 146.718 573 113.676 573C80.633 573 53.8467 599.787 53.8467 632.829" stroke="#595AE0" stroke-width="3"/>
<path d="M161.538 632.829C161.538 606.395 140.109 584.966 113.675 584.966C87.2411 584.966 65.812 606.395 65.812 632.829" stroke="#595AE0" stroke-width="3"/>
<path d="M149.572 632.829C149.572 613.004 133.5 596.932 113.675 596.932C93.8491 596.932 77.7773 613.004 77.7773 632.829" stroke="#595AE0" stroke-width="3"/>
<path d="M137.606 639.911C137.606 626.694 126.892 615.98 113.675 615.98C100.458 615.98 89.7432 626.694 89.7432 639.911" stroke="#595AE0" stroke-width="3"/>
<path d="M227.35 691.365C227.35 658.322 200.564 631.535 167.521 631.535C134.479 631.535 107.692 658.322 107.692 691.365" stroke="#595AE0" stroke-width="3"/>
<path d="M215.385 691.365C215.385 664.931 193.955 643.501 167.521 643.501C141.087 643.501 119.658 664.931 119.658 691.365" stroke="#595AE0" stroke-width="3"/>
<path d="M203.419 692.882C203.419 673.057 187.347 656.985 167.521 656.985C147.696 656.985 131.624 673.057 131.624 692.882" stroke="#595AE0" stroke-width="3"/>
<path d="M191.453 697.941C191.453 684.724 180.738 674.009 167.521 674.009C154.304 674.009 143.589 684.724 143.589 697.941" stroke="#595AE0" stroke-width="3"/>
<path d="M335.042 691.365C335.042 658.322 308.256 631.535 275.213 631.535C242.171 631.535 215.384 658.322 215.384 691.365" stroke="#595AE0" stroke-width="3"/>
<path d="M323.076 691.365C323.076 664.931 301.647 643.501 275.213 643.501C248.779 643.501 227.35 664.931 227.35 691.365" stroke="#595AE0" stroke-width="3"/>
<path d="M311.111 693.388C311.111 673.562 295.039 657.49 275.213 657.49C255.388 657.49 239.316 673.562 239.316 693.388" stroke="#595AE0" stroke-width="3"/>
<path d="M299.145 696.929C299.145 683.712 288.43 672.997 275.213 672.997C261.996 672.997 251.282 683.712 251.282 696.929" stroke="#595AE0" stroke-width="3"/>
<path d="M119.658 691.365C119.658 658.322 92.8716 631.535 59.8289 631.535C26.7863 631.535 0 658.322 0 691.365" stroke="#595AE0" stroke-width="3"/>
<path d="M107.692 691.365C107.692 664.931 86.2631 643.501 59.829 643.501C33.3949 643.501 11.9658 664.931 11.9658 691.365" stroke="#595AE0" stroke-width="3"/>
<path d="M95.7264 692.882C95.7264 673.057 79.6546 656.985 59.829 656.985C40.0034 656.985 23.9316 673.057 23.9316 692.882" stroke="#595AE0" stroke-width="3"/>
<path d="M83.7606 696.929C83.7606 683.712 73.0461 672.997 59.829 672.997C46.612 672.997 35.8975 683.712 35.8975 696.929" stroke="#595AE0" stroke-width="3"/>
<path d="M281.196 632.829C281.196 599.787 254.41 573 221.367 573C188.324 573 161.538 599.787 161.538 632.829" stroke="#595AE0" stroke-width="3"/>
<path d="M269.23 632.829C269.23 606.395 247.801 584.966 221.367 584.966C194.933 584.966 173.504 606.395 173.504 632.829" stroke="#595AE0" stroke-width="3"/>
<path d="M257.264 632.829C257.264 613.004 241.193 596.932 221.367 596.932C201.542 596.932 185.47 613.004 185.47 632.829" stroke="#595AE0" stroke-width="3"/>
<path d="M245.299 638.9C245.299 625.682 234.584 614.968 221.367 614.968C208.15 614.968 197.436 625.682 197.436 638.9" stroke="#595AE0" stroke-width="3"/>
<path d="M1039.54 267.365C1039.54 234.322 1066.32 207.535 1099.37 207.535C1132.41 207.535 1159.2 234.322 1159.2 267.365" stroke="white" stroke-width="3"/>
<path d="M1051.5 267.365C1051.5 240.931 1072.93 219.501 1099.37 219.501C1125.8 219.501 1147.23 240.931 1147.23 267.365" stroke="white" stroke-width="3"/>
<path d="M1063.47 269.388C1063.47 249.562 1079.54 233.49 1099.37 233.49C1119.19 233.49 1135.26 249.562 1135.26 269.388" stroke="white" stroke-width="3"/>
<path d="M1075.44 272.929C1075.44 259.712 1086.15 248.997 1099.37 248.997C1112.58 248.997 1123.3 259.712 1123.3 272.929" stroke="white" stroke-width="3"/>
<path d="M985.692 326.406C985.692 293.363 1012.48 266.577 1045.52 266.577C1078.56 266.577 1105.35 293.363 1105.35 326.406" stroke="white" stroke-width="3"/>
<path d="M997.658 326.406C997.658 299.972 1019.09 278.542 1045.52 278.542C1071.96 278.542 1093.38 299.972 1093.38 326.406" stroke="white" stroke-width="3"/>
<path d="M1009.62 326.406C1009.62 306.58 1025.7 290.508 1045.52 290.508C1065.35 290.508 1081.42 306.58 1081.42 326.406" stroke="white" stroke-width="3"/>
<path d="M1021.59 331.464C1021.59 318.247 1032.3 307.533 1045.52 307.533C1058.74 307.533 1069.45 318.247 1069.45 331.464" stroke="white" stroke-width="3"/>
<path d="M878 326.406C878 293.363 904.787 266.577 937.829 266.577C970.872 266.577 997.658 293.363 997.658 326.406" stroke="white" stroke-width="3"/>
<path d="M889.966 326.406C889.966 299.972 911.395 278.542 937.829 278.542C964.263 278.542 985.692 299.972 985.692 326.406" stroke="white" stroke-width="3"/>
<path d="M901.932 326.406C901.932 306.58 918.004 290.508 937.829 290.508C957.655 290.508 973.727 306.58 973.727 326.406" stroke="white" stroke-width="3"/>
<path d="M913.898 331.464C913.898 318.247 924.612 307.533 937.829 307.533C951.046 307.533 961.761 318.247 961.761 331.464" stroke="white" stroke-width="3"/>
<path d="M1093.38 326.406C1093.38 293.363 1120.17 266.577 1153.21 266.577C1186.26 266.577 1213.04 293.363 1213.04 326.406" stroke="white" stroke-width="3"/>
<path d="M1105.35 326.406C1105.35 299.972 1126.78 278.542 1153.21 278.542C1179.65 278.542 1201.08 299.972 1201.08 326.406" stroke="white" stroke-width="3"/>
<path d="M1117.32 326.406C1117.32 306.58 1133.39 290.508 1153.21 290.508C1173.04 290.508 1189.11 306.58 1189.11 326.406" stroke="white" stroke-width="3"/>
<path d="M1129.28 331.464C1129.28 318.247 1140 307.533 1153.21 307.533C1166.43 307.533 1177.14 318.247 1177.14 331.464" stroke="white" stroke-width="3"/>
<path d="M931.846 267.365C931.846 234.322 958.632 207.535 991.675 207.535C1024.72 207.535 1051.5 234.322 1051.5 267.365" stroke="white" stroke-width="3"/>
<path d="M943.812 267.365C943.812 240.931 965.241 219.501 991.675 219.501C1018.11 219.501 1039.54 240.931 1039.54 267.365" stroke="white" stroke-width="3"/>
<path d="M955.778 269.388C955.778 249.562 971.849 233.49 991.675 233.49C1011.5 233.49 1027.57 249.562 1027.57 269.388" stroke="white" stroke-width="3"/>
<path d="M967.743 272.929C967.743 259.712 978.458 248.997 991.675 248.997C1004.89 248.997 1015.61 259.712 1015.61 272.929" stroke="white" stroke-width="3"/>
<path d="M1308.77 326.406C1308.77 293.363 1335.55 266.577 1368.6 266.577C1401.64 266.577 1428.43 293.363 1428.43 326.406" stroke="white" stroke-width="3"/>
<path d="M1320.73 326.406C1320.73 299.972 1342.16 278.542 1368.6 278.542C1395.03 278.542 1416.46 299.972 1416.46 326.406" stroke="white" stroke-width="3"/>
<path d="M1332.7 326.406C1332.7 306.58 1348.77 290.508 1368.6 290.508C1388.42 290.508 1404.5 306.58 1404.5 326.406" stroke="white" stroke-width="3"/>
<path d="M1344.67 331.464C1344.67 318.247 1355.38 307.533 1368.6 307.533C1381.81 307.533 1392.53 318.247 1392.53 331.464" stroke="white" stroke-width="3"/>
<path d="M1254.92 384.941C1254.92 351.899 1281.71 325.112 1314.75 325.112C1347.79 325.112 1374.58 351.899 1374.58 384.941" stroke="white" stroke-width="3"/>
<path d="M1266.89 384.941C1266.89 358.507 1288.32 337.078 1314.75 337.078C1341.19 337.078 1362.61 358.507 1362.61 384.941" stroke="white" stroke-width="3"/>
<path d="M1278.85 384.941C1278.85 365.115 1294.93 349.043 1314.75 349.043C1334.58 349.043 1350.65 365.115 1350.65 384.941" stroke="white" stroke-width="3"/>
<path d="M1290.82 384.941C1290.82 371.724 1301.53 361.01 1314.75 361.01C1327.97 361.01 1338.68 371.724 1338.68 384.941" stroke="white" stroke-width="3"/>
<path d="M1147.23 384.941C1147.23 351.899 1174.02 325.112 1207.06 325.112C1240.1 325.112 1266.89 351.899 1266.89 384.941" stroke="white" stroke-width="3"/>
<path d="M1159.2 384.941C1159.2 358.507 1180.63 337.078 1207.06 337.078C1233.49 337.078 1254.92 358.507 1254.92 384.941" stroke="white" stroke-width="3"/>
<path d="M1171.16 384.941C1171.16 365.115 1187.23 349.043 1207.06 349.043C1226.88 349.043 1242.96 365.115 1242.96 384.941" stroke="white" stroke-width="3"/>
<path d="M1183.13 384.941C1183.13 371.724 1193.84 361.01 1207.06 361.01C1220.28 361.01 1230.99 371.724 1230.99 384.941" stroke="white" stroke-width="3"/>
<path d="M1362.61 384.941C1362.61 351.899 1389.4 325.112 1422.44 325.112C1455.49 325.112 1482.27 351.899 1482.27 384.941" stroke="white" stroke-width="3"/>
<path d="M1374.58 384.941C1374.58 358.507 1396.01 337.078 1422.44 337.078C1448.88 337.078 1470.31 358.507 1470.31 384.941" stroke="white" stroke-width="3"/>
<path d="M1386.55 384.941C1386.55 365.115 1402.62 349.043 1422.44 349.043C1442.27 349.043 1458.34 365.115 1458.34 384.941" stroke="white" stroke-width="3"/>
<path d="M1398.51 384.941C1398.51 371.724 1409.23 361.01 1422.44 361.01C1435.66 361.01 1446.38 371.724 1446.38 384.941" stroke="white" stroke-width="3"/>
<path d="M1201.08 326.406C1201.08 293.363 1227.86 266.577 1260.91 266.577C1293.95 266.577 1320.73 293.363 1320.73 326.406" stroke="white" stroke-width="3"/>
<path d="M1213.04 326.406C1213.04 299.972 1234.47 278.542 1260.91 278.542C1287.34 278.542 1308.77 299.972 1308.77 326.406" stroke="white" stroke-width="3"/>
<path d="M1225.01 326.406C1225.01 306.58 1241.08 290.508 1260.91 290.508C1280.73 290.508 1296.8 306.58 1296.8 326.406" stroke="white" stroke-width="3"/>
<path d="M1236.97 331.464C1236.97 318.247 1247.69 307.533 1260.91 307.533C1274.12 307.533 1284.84 318.247 1284.84 331.464" stroke="white" stroke-width="3"/>
<path d="M1308.77 208.829C1308.77 175.787 1335.55 149 1368.6 149C1401.64 149 1428.43 175.787 1428.43 208.829" stroke="white" stroke-width="3"/>
<path d="M1320.73 208.829C1320.73 182.395 1342.16 160.966 1368.6 160.966C1395.03 160.966 1416.46 182.395 1416.46 208.829" stroke="white" stroke-width="3"/>
<path d="M1332.7 208.829C1332.7 189.004 1348.77 172.932 1368.6 172.932C1388.42 172.932 1404.5 189.004 1404.5 208.829" stroke="white" stroke-width="3"/>
<path d="M1344.67 215.911C1344.67 202.694 1355.38 191.98 1368.6 191.98C1381.81 191.98 1392.53 202.694 1392.53 215.911" stroke="white" stroke-width="3"/>
<path d="M1254.92 267.365C1254.92 234.322 1281.71 207.535 1314.75 207.535C1347.79 207.535 1374.58 234.322 1374.58 267.365" stroke="white" stroke-width="3"/>
<path d="M1266.89 267.365C1266.89 240.931 1288.32 219.501 1314.75 219.501C1341.19 219.501 1362.61 240.931 1362.61 267.365" stroke="white" stroke-width="3"/>
<path d="M1278.85 268.882C1278.85 249.057 1294.93 232.985 1314.75 232.985C1334.58 232.985 1350.65 249.057 1350.65 268.882" stroke="white" stroke-width="3"/>
<path d="M1290.82 273.941C1290.82 260.724 1301.53 250.009 1314.75 250.009C1327.97 250.009 1338.68 260.724 1338.68 273.941" stroke="white" stroke-width="3"/>
<path d="M1147.23 267.365C1147.23 234.322 1174.02 207.535 1207.06 207.535C1240.1 207.535 1266.89 234.322 1266.89 267.365" stroke="white" stroke-width="3"/>
<path d="M1159.2 267.365C1159.2 240.931 1180.63 219.501 1207.06 219.501C1233.49 219.501 1254.92 240.931 1254.92 267.365" stroke="white" stroke-width="3"/>
<path d="M1171.16 269.388C1171.16 249.562 1187.23 233.49 1207.06 233.49C1226.88 233.49 1242.96 249.562 1242.96 269.388" stroke="white" stroke-width="3"/>
<path d="M1183.13 272.929C1183.13 259.712 1193.84 248.997 1207.06 248.997C1220.28 248.997 1230.99 259.712 1230.99 272.929" stroke="white" stroke-width="3"/>
<path d="M1362.61 267.365C1362.61 234.322 1389.4 207.535 1422.44 207.535C1455.49 207.535 1482.27 234.322 1482.27 267.365" stroke="white" stroke-width="3"/>
<path d="M1374.58 267.365C1374.58 240.931 1396.01 219.501 1422.44 219.501C1448.88 219.501 1470.31 240.931 1470.31 267.365" stroke="white" stroke-width="3"/>
<path d="M1386.55 268.882C1386.55 249.057 1402.62 232.985 1422.44 232.985C1442.27 232.985 1458.34 249.057 1458.34 268.882" stroke="white" stroke-width="3"/>
<path d="M1398.51 272.929C1398.51 259.712 1409.23 248.997 1422.44 248.997C1435.66 248.997 1446.38 259.712 1446.38 272.929" stroke="white" stroke-width="3"/>
<path d="M1201.08 208.829C1201.08 175.787 1227.86 149 1260.91 149C1293.95 149 1320.73 175.787 1320.73 208.829" stroke="white" stroke-width="3"/>
<path d="M1213.04 208.829C1213.04 182.395 1234.47 160.966 1260.91 160.966C1287.34 160.966 1308.77 182.395 1308.77 208.829" stroke="white" stroke-width="3"/>
<path d="M1225.01 208.829C1225.01 189.004 1241.08 172.932 1260.91 172.932C1280.73 172.932 1296.8 189.004 1296.8 208.829" stroke="white" stroke-width="3"/>
<path d="M1236.97 214.9C1236.97 201.682 1247.69 190.968 1260.91 190.968C1274.12 190.968 1284.84 201.682 1284.84 214.9" stroke="white" stroke-width="3"/>
<path d="M367.734 61.8293C367.734 28.7865 340.948 2 307.905 2C274.863 2 248.076 28.7865 248.076 61.8293" stroke="white" stroke-width="3"/>
<path d="M355.768 61.8294C355.768 35.3952 334.339 13.9659 307.905 13.9659C281.471 13.9659 260.042 35.3952 260.042 61.8294" stroke="white" stroke-width="3"/>
<path d="M343.803 63.8527C343.803 44.027 327.731 27.9551 307.905 27.9551C288.08 27.9551 272.008 44.027 272.008 63.8527" stroke="white" stroke-width="3"/>
<path d="M331.837 67.3937C331.837 54.1765 321.122 43.4619 307.905 43.4619C294.688 43.4619 283.974 54.1765 283.974 67.3937" stroke="white" stroke-width="3"/>
<path d="M421.58 120.871C421.58 87.8278 394.794 61.0413 361.751 61.0413C328.709 61.0413 301.922 87.8278 301.922 120.871" stroke="white" stroke-width="3"/>
<path d="M409.615 120.871C409.615 94.4363 388.185 73.0071 361.751 73.0071C335.317 73.0071 313.888 94.4363 313.888 120.871" stroke="white" stroke-width="3"/>
<path d="M397.649 120.871C397.649 101.045 381.577 84.9729 361.751 84.9729C341.926 84.9729 325.854 101.045 325.854 120.871" stroke="white" stroke-width="3"/>
<path d="M385.683 125.929C385.683 112.712 374.968 101.997 361.751 101.997C348.534 101.997 337.82 112.712 337.82 125.929" stroke="white" stroke-width="3"/>
<path d="M529.272 120.871C529.272 87.8278 502.486 61.0413 469.443 61.0413C436.401 61.0413 409.614 87.8278 409.614 120.871" stroke="white" stroke-width="3"/>
<path d="M517.306 120.871C517.306 94.4363 495.877 73.0071 469.443 73.0071C443.009 73.0071 421.58 94.4363 421.58 120.871" stroke="white" stroke-width="3"/>
<path d="M505.341 120.871C505.341 101.045 489.269 84.9729 469.443 84.9729C449.618 84.9729 433.546 101.045 433.546 120.871" stroke="white" stroke-width="3"/>
<path d="M493.375 125.929C493.375 112.712 482.66 101.997 469.443 101.997C456.226 101.997 445.512 112.712 445.512 125.929" stroke="white" stroke-width="3"/>
<path d="M313.888 120.871C313.888 87.8278 287.102 61.0413 254.059 61.0413C221.016 61.0413 194.23 87.8278 194.23 120.871" stroke="white" stroke-width="3"/>
<path d="M301.922 120.871C301.922 94.4363 280.493 73.0071 254.059 73.0071C227.625 73.0071 206.196 94.4363 206.196 120.871" stroke="white" stroke-width="3"/>
<path d="M289.956 120.871C289.956 101.045 273.885 84.9729 254.059 84.9729C234.233 84.9729 218.162 101.045 218.162 120.871" stroke="white" stroke-width="3"/>
<path d="M277.991 125.929C277.991 112.712 267.276 101.997 254.059 101.997C240.842 101.997 230.127 112.712 230.127 125.929" stroke="white" stroke-width="3"/>
<path d="M475.426 61.8293C475.426 28.7865 448.64 2 415.597 2C382.555 2 355.769 28.7865 355.769 61.8293" stroke="white" stroke-width="3"/>
<path d="M463.461 61.8294C463.461 35.3952 442.032 13.9659 415.598 13.9659C389.163 13.9659 367.734 35.3952 367.734 61.8294" stroke="white" stroke-width="3"/>
<path d="M451.495 63.8527C451.495 44.027 435.423 27.9551 415.598 27.9551C395.772 27.9551 379.7 44.027 379.7 63.8527" stroke="white" stroke-width="3"/>
<path d="M439.529 67.3937C439.529 54.1765 428.815 43.4619 415.598 43.4619C402.381 43.4619 391.666 54.1765 391.666 67.3937" stroke="white" stroke-width="3"/>
<path d="M98.5041 120.871C98.5041 87.8278 71.7177 61.0413 38.6751 61.0413C5.63252 61.0413 -21.1538 87.8278 -21.1538 120.871" stroke="white" stroke-width="3"/>
<path d="M86.5383 120.871C86.5383 94.4363 65.1093 73.0071 38.6752 73.0071C12.2411 73.0071 -9.18799 94.4363 -9.18799 120.871" stroke="white" stroke-width="3"/>
<path d="M74.5721 120.871C74.5721 101.045 58.5003 84.9729 38.6747 84.9729C18.8491 84.9729 2.77734 101.045 2.77734 120.871" stroke="white" stroke-width="3"/>
<path d="M62.6068 125.929C62.6068 112.712 51.8923 101.997 38.6752 101.997C25.4582 101.997 14.7437 112.712 14.7437 125.929" stroke="white" stroke-width="3"/>
<path d="M152.35 179.406C152.35 146.363 125.564 119.577 92.5213 119.577C59.4787 119.577 32.6924 146.363 32.6924 179.406" stroke="white" stroke-width="3"/>
<path d="M140.385 179.406C140.385 152.972 118.955 131.542 92.5214 131.542C66.0873 131.542 44.6582 152.972 44.6582 179.406" stroke="white" stroke-width="3"/>
<path d="M128.418 179.406C128.418 159.58 112.346 143.508 92.5209 143.508C72.6953 143.508 56.6235 159.58 56.6235 179.406" stroke="white" stroke-width="3"/>
<path d="M116.453 179.406C116.453 166.189 105.738 155.474 92.5209 155.474C79.3039 155.474 68.5894 166.189 68.5894 179.406" stroke="white" stroke-width="3"/>
<path d="M260.042 179.406C260.042 146.363 233.256 119.577 200.213 119.577C167.171 119.577 140.384 146.363 140.384 179.406" stroke="white" stroke-width="3"/>
<path d="M248.076 179.406C248.076 152.972 226.647 131.542 200.213 131.542C173.779 131.542 152.35 152.972 152.35 179.406" stroke="white" stroke-width="3"/>
<path d="M236.111 179.406C236.111 159.58 220.039 143.508 200.213 143.508C180.388 143.508 164.316 159.58 164.316 179.406" stroke="white" stroke-width="3"/>
<path d="M224.145 179.406C224.145 166.189 213.43 155.474 200.213 155.474C186.996 155.474 176.282 166.189 176.282 179.406" stroke="white" stroke-width="3"/>
<path d="M44.6579 179.406C44.6579 146.363 17.8716 119.577 -15.1711 119.577C-48.2137 119.577 -75 146.363 -75 179.406" stroke="white" stroke-width="3"/>
<path d="M32.6921 179.406C32.6921 152.972 11.2631 131.542 -15.171 131.542C-41.6051 131.542 -63.0342 152.972 -63.0342 179.406" stroke="white" stroke-width="3"/>
<path d="M20.7264 179.406C20.7264 159.58 4.65457 143.508 -15.171 143.508C-34.9966 143.508 -51.0684 159.58 -51.0684 179.406" stroke="white" stroke-width="3"/>
<path d="M8.76062 179.406C8.76062 166.189 -1.95391 155.474 -15.171 155.474C-28.388 155.474 -39.1025 166.189 -39.1025 179.406" stroke="white" stroke-width="3"/>
<path d="M206.196 120.871C206.196 87.8278 179.41 61.0413 146.367 61.0413C113.324 61.0413 86.5381 87.8278 86.5381 120.871" stroke="white" stroke-width="3"/>
<path d="M194.23 120.871C194.23 94.4363 172.801 73.0071 146.367 73.0071C119.933 73.0071 98.5039 94.4363 98.5039 120.871" stroke="white" stroke-width="3"/>
<path d="M182.264 120.871C182.264 101.045 166.193 84.9729 146.367 84.9729C126.542 84.9729 110.47 101.045 110.47 120.871" stroke="white" stroke-width="3"/>
<path d="M170.299 125.929C170.299 112.712 159.584 101.997 146.367 101.997C133.15 101.997 122.436 112.712 122.436 125.929" stroke="white" stroke-width="3"/>
<path d="M152.35 61.8293C152.35 28.7865 125.564 2 92.5213 2C59.4787 2 32.6924 28.7865 32.6924 61.8293" stroke="white" stroke-width="3"/>
<path d="M140.385 61.8294C140.385 35.3952 118.955 13.9659 92.5214 13.9659C66.0873 13.9659 44.6582 35.3952 44.6582 61.8294" stroke="white" stroke-width="3"/>
<path d="M128.418 63.3468C128.418 43.5211 112.346 27.4492 92.5209 27.4492C72.6953 27.4492 56.6235 43.5211 56.6235 63.3468" stroke="white" stroke-width="3"/>
<path d="M116.453 68.4055C116.453 55.1884 105.738 44.4738 92.5209 44.4738C79.3039 44.4738 68.5894 55.1884 68.5894 68.4055" stroke="white" stroke-width="3"/>
<path d="M260.042 61.8293C260.042 28.7865 233.256 2 200.213 2C167.171 2 140.384 28.7865 140.384 61.8293" stroke="white" stroke-width="3"/>
<path d="M248.076 61.8294C248.076 35.3952 226.647 13.9659 200.213 13.9659C173.779 13.9659 152.35 35.3952 152.35 61.8294" stroke="white" stroke-width="3"/>
<path d="M236.111 63.8527C236.111 44.027 220.039 27.9551 200.213 27.9551C180.388 27.9551 164.316 44.027 164.316 63.8527" stroke="white" stroke-width="3"/>
<path d="M224.145 67.3937C224.145 54.1765 213.43 43.4619 200.213 43.4619C186.996 43.4619 176.282 54.1765 176.282 67.3937" stroke="white" stroke-width="3"/>
<path d="M44.6579 61.8293C44.6579 28.7865 17.8716 2 -15.1711 2C-48.2137 2 -75 28.7865 -75 61.8293" stroke="white" stroke-width="3"/>
<path d="M32.6921 61.8294C32.6921 35.3952 11.2631 13.9659 -15.171 13.9659C-41.6051 13.9659 -63.0342 35.3952 -63.0342 61.8294" stroke="white" stroke-width="3"/>
<path d="M20.7264 63.3468C20.7264 43.5211 4.65457 27.4492 -15.171 27.4492C-34.9966 27.4492 -51.0684 43.5211 -51.0684 63.3468" stroke="white" stroke-width="3"/>
<path d="M8.76062 67.3937C8.76062 54.1765 -1.95391 43.4619 -15.171 43.4619C-28.388 43.4619 -39.1025 54.1765 -39.1025 67.3937" stroke="white" stroke-width="3"/>
<path d="M190.492 337.966C150.386 440.939 182.072 464.932 202.928 464.056" stroke="#B0DC7B" stroke-width="1.72063"/>
<path d="M171.631 409.971C168.595 376.815 158.42 367.257 153.713 366.622" stroke="#B0DC7B" stroke-width="1.72063"/>
<path d="M205.308 396.559C175.666 411.723 170.584 424.725 171.748 429.33" stroke="#B0DC7B" stroke-width="1.72063"/>
<g style="mix-blend-mode:overlay">
<g style="mix-blend-mode:exclusion">
<circle cx="184.002" cy="330.494" r="9.69636" transform="rotate(-44.3974 184.002 330.494)" fill="#FFB59F"/>
</g>
<g style="mix-blend-mode:exclusion">
<circle cx="194.772" cy="328.712" r="9.69636" transform="rotate(-44.3974 194.772 328.712)" fill="#FFB59F"/>
</g>
<g style="mix-blend-mode:exclusion">
<circle cx="201.048" cy="339.587" r="9.69636" transform="rotate(-44.3974 201.048 339.587)" fill="#FFB59F"/>
</g>
<g style="mix-blend-mode:exclusion">
<circle cx="192.318" cy="347.747" r="9.69636" transform="rotate(-44.3974 192.318 347.747)" fill="#FFB59F"/>
</g>
<g style="mix-blend-mode:exclusion">
<circle cx="182.351" cy="343.665" r="9.69636" transform="rotate(-44.3974 182.351 343.665)" fill="#FFB59F"/>
</g>
</g>
<g style="mix-blend-mode:overlay">
<g style="mix-blend-mode:exclusion">
<circle cx="148.489" cy="361.404" r="6.49632" transform="rotate(-44.3974 148.489 361.404)" fill="#B0DC7B"/>
</g>
<g style="mix-blend-mode:exclusion">
<circle cx="155.705" cy="360.21" r="6.49632" transform="rotate(-44.3974 155.705 360.21)" fill="#B0DC7B"/>
</g>
<g style="mix-blend-mode:exclusion">
<circle cx="159.909" cy="367.496" r="6.49632" transform="rotate(-44.3974 159.909 367.496)" fill="#B0DC7B"/>
</g>
<g style="mix-blend-mode:exclusion">
<circle cx="154.061" cy="372.963" r="6.49632" transform="rotate(-44.3974 154.061 372.963)" fill="#B0DC7B"/>
</g>
<g style="mix-blend-mode:exclusion">
<circle cx="147.383" cy="370.228" r="6.49632" transform="rotate(-44.3974 147.383 370.228)" fill="#B0DC7B"/>
</g>
</g>
<g style="mix-blend-mode:overlay">
<g style="mix-blend-mode:exclusion">
<circle cx="200.241" cy="392.354" r="6.49632" transform="rotate(-44.3974 200.241 392.354)" fill="#FFEC43"/>
</g>
<g style="mix-blend-mode:exclusion">
<circle cx="207.457" cy="391.16" r="6.49632" transform="rotate(-44.3974 207.457 391.16)" fill="#FFEC43"/>
</g>
<g style="mix-blend-mode:exclusion">
<circle cx="211.662" cy="398.446" r="6.49632" transform="rotate(-44.3974 211.662 398.446)" fill="#FFEC43"/>
</g>
<g style="mix-blend-mode:exclusion">
<circle cx="205.813" cy="403.913" r="6.49632" transform="rotate(-44.3974 205.813 403.913)" fill="#FFEC43"/>
</g>
<g style="mix-blend-mode:exclusion">
<circle cx="199.135" cy="401.178" r="6.49632" transform="rotate(-44.3974 199.135 401.178)" fill="#FFEC43"/>
</g>
</g>
<path d="M1310.51 506.966C1350.61 609.939 1318.93 633.932 1298.07 633.056" stroke="#B0DC7B" stroke-width="1.72063"/>
<path d="M1329.37 578.971C1332.41 545.815 1342.58 536.257 1347.29 535.622" stroke="#B0DC7B" stroke-width="1.72063"/>
<path d="M1295.69 565.559C1325.33 580.723 1330.42 593.725 1329.25 598.33" stroke="#B0DC7B" stroke-width="1.72063"/>
<g style="mix-blend-mode:overlay">
<g style="mix-blend-mode:exclusion">
<circle r="9.69636" transform="matrix(-0.714505 -0.699631 -0.699631 0.714505 1317 499.494)" fill="#FFB59F"/>
</g>
<g style="mix-blend-mode:exclusion">
<circle r="9.69636" transform="matrix(-0.714505 -0.699631 -0.699631 0.714505 1306.23 497.712)" fill="#FFB59F"/>
</g>
<g style="mix-blend-mode:exclusion">
<circle r="9.69636" transform="matrix(-0.714505 -0.699631 -0.699631 0.714505 1299.95 508.587)" fill="#FFB59F"/>
</g>
<g style="mix-blend-mode:exclusion">
<circle r="9.69636" transform="matrix(-0.714505 -0.699631 -0.699631 0.714505 1308.68 516.747)" fill="#FFB59F"/>
</g>
<g style="mix-blend-mode:exclusion">
<circle r="9.69636" transform="matrix(-0.714505 -0.699631 -0.699631 0.714505 1318.65 512.665)" fill="#FFB59F"/>
</g>
</g>
<g style="mix-blend-mode:overlay">
<g style="mix-blend-mode:exclusion">
<circle r="6.49632" transform="matrix(-0.714505 -0.699631 -0.699631 0.714505 1352.51 530.404)" fill="#B0DC7B"/>
</g>
<g style="mix-blend-mode:exclusion">
<circle r="6.49632" transform="matrix(-0.714505 -0.699631 -0.699631 0.714505 1345.3 529.21)" fill="#B0DC7B"/>
</g>
<g style="mix-blend-mode:exclusion">
<circle r="6.49632" transform="matrix(-0.714505 -0.699631 -0.699631 0.714505 1341.09 536.496)" fill="#B0DC7B"/>
</g>
<g style="mix-blend-mode:exclusion">
<circle r="6.49632" transform="matrix(-0.714505 -0.699631 -0.699631 0.714505 1346.94 541.963)" fill="#B0DC7B"/>
</g>
<g style="mix-blend-mode:exclusion">
<circle r="6.49632" transform="matrix(-0.714505 -0.699631 -0.699631 0.714505 1353.62 539.228)" fill="#B0DC7B"/>
</g>
</g>
<g style="mix-blend-mode:overlay">
<g style="mix-blend-mode:exclusion">
<circle r="6.49632" transform="matrix(-0.714505 -0.699631 -0.699631 0.714505 1300.76 561.354)" fill="#FFEC43"/>
</g>
<g style="mix-blend-mode:exclusion">
<circle r="6.49632" transform="matrix(-0.714505 -0.699631 -0.699631 0.714505 1293.54 560.16)" fill="#FFEC43"/>
</g>
<g style="mix-blend-mode:exclusion">
<circle r="6.49632" transform="matrix(-0.714505 -0.699631 -0.699631 0.714505 1289.34 567.446)" fill="#FFEC43"/>
</g>
<g style="mix-blend-mode:exclusion">
<circle r="6.49632" transform="matrix(-0.714505 -0.699631 -0.699631 0.714505 1295.19 572.913)" fill="#FFEC43"/>
</g>
<g style="mix-blend-mode:exclusion">
<circle r="6.49632" transform="matrix(-0.714505 -0.699631 -0.699631 0.714505 1301.87 570.178)" fill="#FFEC43"/>
</g>
</g>
</svg>
