<svg width="375" height="472" viewBox="0 0 375 472" fill="none" xmlns="http://www.w3.org/2000/svg">
<path d="M179.355 419.852C179.355 405.346 167.596 393.587 153.09 393.587C138.585 393.587 126.826 405.346 126.826 419.852" stroke="#595AE0"/>
<path d="M174.102 419.852C174.102 408.248 164.695 398.84 153.091 398.84C141.487 398.84 132.08 408.248 132.08 419.852" stroke="#595AE0"/>
<path d="M168.849 419.852C168.849 411.149 161.794 404.093 153.091 404.093C144.387 404.093 137.332 411.149 137.332 419.852" stroke="#595AE0"/>
<path d="M163.596 419.852C163.596 414.05 158.893 409.346 153.091 409.346C147.289 409.346 142.585 414.05 142.585 419.852" stroke="#595AE0"/>
<path d="M202.993 442.439C202.993 427.934 191.234 416.175 176.729 416.175C162.223 416.175 150.464 427.934 150.464 442.439" stroke="#595AE0"/>
<path d="M197.74 442.439C197.74 430.835 188.333 421.428 176.729 421.428C165.124 421.428 155.717 430.835 155.717 442.439" stroke="#595AE0"/>
<path d="M192.487 442.439C192.487 433.736 185.431 426.68 176.728 426.68C168.025 426.68 160.97 433.736 160.97 442.439" stroke="#595AE0"/>
<path d="M187.234 442.439C187.234 436.637 182.53 431.933 176.728 431.933C170.926 431.933 166.223 436.637 166.223 442.439" stroke="#595AE0"/>
<path d="M250.268 442.439C250.268 427.934 238.509 416.175 224.004 416.175C209.499 416.175 197.74 427.934 197.74 442.439" stroke="#595AE0"/>
<path d="M245.016 442.439C245.016 430.835 235.609 421.428 224.005 421.428C212.4 421.428 202.993 430.835 202.993 442.439" stroke="#595AE0"/>
<path d="M239.763 442.439C239.763 433.736 232.707 426.68 224.004 426.68C215.301 426.68 208.246 433.736 208.246 442.439" stroke="#595AE0"/>
<path d="M234.51 442.439C234.51 436.637 229.806 431.933 224.004 431.933C218.202 431.933 213.499 436.637 213.499 442.439" stroke="#595AE0"/>
<path d="M155.717 442.439C155.717 427.934 143.958 416.175 129.453 416.175C114.948 416.175 103.189 427.934 103.189 442.439" stroke="#595AE0"/>
<path d="M150.465 442.439C150.465 430.835 141.058 421.428 129.453 421.428C117.849 421.428 108.442 430.835 108.442 442.439" stroke="#595AE0"/>
<path d="M145.212 442.439C145.212 433.736 138.157 426.68 129.453 426.68C120.75 426.68 113.695 433.736 113.695 442.439" stroke="#595AE0"/>
<path d="M139.959 442.439C139.959 436.637 135.255 431.933 129.453 431.933C123.651 431.933 118.947 436.637 118.947 442.439" stroke="#595AE0"/>
<path d="M226.63 419.852C226.63 405.346 214.872 393.587 200.366 393.587C185.861 393.587 174.102 405.346 174.102 419.852" stroke="#595AE0"/>
<path d="M221.378 419.852C221.378 408.248 211.971 398.84 200.366 398.84C188.762 398.84 179.355 408.248 179.355 419.852" stroke="#595AE0"/>
<path d="M216.124 419.852C216.124 411.149 209.069 404.093 200.366 404.093C191.663 404.093 184.607 411.149 184.607 419.852" stroke="#595AE0"/>
<path d="M210.872 419.852C210.872 414.05 206.169 409.346 200.367 409.346C194.564 409.346 189.861 414.05 189.861 419.852" stroke="#595AE0"/>
<path d="M61.1661 442.439C61.1661 427.934 49.4072 416.175 34.9019 416.175C20.3966 416.175 8.6377 427.934 8.6377 442.439" stroke="#595AE0"/>
<path d="M55.9129 442.439C55.9129 430.835 46.5058 421.428 34.9015 421.428C23.2972 421.428 13.8901 430.835 13.8901 442.439" stroke="#595AE0"/>
<path d="M50.6601 442.439C50.6601 433.736 43.6048 426.68 34.9016 426.68C26.1984 426.68 19.1431 433.736 19.1431 442.439" stroke="#595AE0"/>
<path d="M45.4079 442.439C45.4079 436.637 40.7043 431.933 34.9022 431.933C29.1 431.933 24.3965 436.637 24.3965 442.439" stroke="#595AE0"/>
<path d="M108.442 442.439C108.442 427.934 96.6826 416.175 82.1773 416.175C67.672 416.175 55.9131 427.934 55.9131 442.439" stroke="#595AE0"/>
<path d="M103.189 442.439C103.189 430.835 93.7816 421.428 82.1774 421.428C70.5731 421.428 61.166 430.835 61.166 442.439" stroke="#595AE0"/>
<path d="M97.936 442.439C97.936 433.736 90.8807 426.68 82.1775 426.68C73.4743 426.68 66.4189 433.736 66.4189 442.439" stroke="#595AE0"/>
<path d="M92.6832 442.439C92.6832 436.637 87.9797 431.933 82.1776 431.933C76.3754 431.933 71.6719 436.637 71.6719 442.439" stroke="#595AE0"/>
<path d="M61.1661 397.264C61.1661 382.759 49.4072 371 34.9019 371C20.3966 371 8.6377 382.759 8.6377 397.264" stroke="#595AE0"/>
<path d="M55.9129 397.264C55.9129 385.66 46.5058 376.253 34.9015 376.253C23.2972 376.253 13.8901 385.66 13.8901 397.264" stroke="#595AE0"/>
<path d="M50.6601 397.264C50.6601 388.561 43.6048 381.506 34.9016 381.506C26.1984 381.506 19.1431 388.561 19.1431 397.264" stroke="#595AE0"/>
<path d="M45.4079 397.264C45.4079 391.462 40.7043 386.759 34.9022 386.759C29.1 386.759 24.3965 391.462 24.3965 397.264" stroke="#595AE0"/>
<path d="M84.8043 419.852C84.8043 405.346 73.0454 393.587 58.5401 393.587C44.0348 393.587 32.2759 405.346 32.2759 419.852" stroke="#595AE0"/>
<path d="M79.5511 419.852C79.5511 408.248 70.1439 398.84 58.5397 398.84C46.9354 398.84 37.5283 408.248 37.5283 419.852" stroke="#595AE0"/>
<path d="M74.2983 419.852C74.2983 411.149 67.243 404.093 58.5398 404.093C49.8366 404.093 42.7812 411.149 42.7812 419.852" stroke="#595AE0"/>
<path d="M69.0451 419.852C69.0451 414.05 64.3415 409.346 58.5394 409.346C52.7372 409.346 48.0337 414.05 48.0337 419.852" stroke="#595AE0"/>
<path d="M132.079 419.852C132.079 405.346 120.32 393.587 105.815 393.587C91.3097 393.587 79.5508 405.346 79.5508 419.852" stroke="#595AE0"/>
<path d="M126.826 419.852C126.826 408.248 117.419 398.84 105.815 398.84C94.2108 398.84 84.8037 408.248 84.8037 419.852" stroke="#595AE0"/>
<path d="M121.574 419.852C121.574 411.149 114.518 404.093 105.815 404.093C97.112 404.093 90.0566 411.149 90.0566 419.852" stroke="#595AE0"/>
<path d="M116.32 419.852C116.32 414.05 111.617 409.346 105.815 409.346C100.013 409.346 95.3091 414.05 95.3091 419.852" stroke="#595AE0"/>
<path d="M37.5284 419.852C37.5284 405.346 25.7695 393.587 11.2642 393.587C-3.24111 393.587 -15 405.346 -15 419.852" stroke="#595AE0"/>
<path d="M32.2752 419.852C32.2752 408.248 22.8681 398.84 11.2638 398.84C-0.340448 398.84 -9.74756 408.248 -9.74756 419.852" stroke="#595AE0"/>
<path d="M27.0224 419.852C27.0224 411.149 19.9671 404.093 11.2639 404.093C2.5607 404.093 -4.49463 411.149 -4.49463 419.852" stroke="#595AE0"/>
<path d="M21.7697 419.852C21.7697 414.05 17.0661 409.346 11.264 409.346C5.46186 409.346 0.758301 414.05 0.758301 419.852" stroke="#595AE0"/>
<path d="M108.442 397.264C108.442 382.759 96.6826 371 82.1773 371C67.672 371 55.9131 382.759 55.9131 397.264" stroke="#595AE0"/>
<path d="M103.189 397.264C103.189 385.66 93.7816 376.253 82.1774 376.253C70.5731 376.253 61.166 385.66 61.166 397.264" stroke="#595AE0"/>
<path d="M97.936 397.264C97.936 388.561 90.8807 381.506 82.1775 381.506C73.4743 381.506 66.4189 388.561 66.4189 397.264" stroke="#595AE0"/>
<path d="M92.6832 397.264C92.6832 391.462 87.9797 386.759 82.1776 386.759C76.3754 386.759 71.6719 391.462 71.6719 397.264" stroke="#595AE0"/>
<path d="M154.355 235.852C154.355 221.346 142.596 209.587 128.091 209.587C113.586 209.587 101.827 221.346 101.827 235.852" stroke="#595AE0"/>
<path d="M149.102 235.852C149.102 224.247 139.695 214.84 128.091 214.84C116.487 214.84 107.08 224.247 107.08 235.852" stroke="#595AE0"/>
<path d="M143.849 235.852C143.849 227.148 136.794 220.093 128.091 220.093C119.387 220.093 112.332 227.148 112.332 235.852" stroke="#595AE0"/>
<path d="M138.596 235.852C138.596 230.05 133.893 225.346 128.091 225.346C122.289 225.346 117.585 230.05 117.585 235.852" stroke="#595AE0"/>
<path d="M177.993 258.439C177.993 243.934 166.234 232.175 151.729 232.175C137.224 232.175 125.465 243.934 125.465 258.439" stroke="#595AE0"/>
<path d="M172.74 258.439C172.74 246.835 163.333 237.428 151.729 237.428C140.124 237.428 130.717 246.835 130.717 258.439" stroke="#595AE0"/>
<path d="M167.487 258.439C167.487 249.736 160.432 242.68 151.729 242.68C143.026 242.68 135.97 249.736 135.97 258.439" stroke="#595AE0"/>
<path d="M162.234 258.439C162.234 252.637 157.53 247.933 151.728 247.933C145.926 247.933 141.223 252.637 141.223 258.439" stroke="#595AE0"/>
<path d="M225.268 258.439C225.268 243.934 213.509 232.175 199.004 232.175C184.499 232.175 172.74 243.934 172.74 258.439" stroke="#595AE0"/>
<path d="M220.016 258.439C220.016 246.835 210.609 237.428 199.005 237.428C187.4 237.428 177.993 246.835 177.993 258.439" stroke="#595AE0"/>
<path d="M214.763 258.439C214.763 249.736 207.707 242.68 199.004 242.68C190.301 242.68 183.246 249.736 183.246 258.439" stroke="#595AE0"/>
<path d="M209.51 258.439C209.51 252.637 204.806 247.933 199.004 247.933C193.202 247.933 188.499 252.637 188.499 258.439" stroke="#595AE0"/>
<path d="M130.717 258.439C130.717 243.934 118.958 232.175 104.453 232.175C89.9479 232.175 78.189 243.934 78.189 258.439" stroke="#595AE0"/>
<path d="M125.465 258.439C125.465 246.835 116.058 237.428 104.453 237.428C92.849 237.428 83.4419 246.835 83.4419 258.439" stroke="#595AE0"/>
<path d="M120.212 258.439C120.212 249.736 113.157 242.68 104.453 242.68C95.7502 242.68 88.6948 249.736 88.6948 258.439" stroke="#595AE0"/>
<path d="M114.959 258.439C114.959 252.637 110.256 247.933 104.453 247.933C98.6513 247.933 93.9478 252.637 93.9478 258.439" stroke="#595AE0"/>
<path d="M201.63 235.852C201.63 221.346 189.872 209.587 175.366 209.587C160.861 209.587 149.102 221.346 149.102 235.852" stroke="#595AE0"/>
<path d="M196.378 235.852C196.378 224.247 186.971 214.84 175.366 214.84C163.762 214.84 154.355 224.247 154.355 235.852" stroke="#595AE0"/>
<path d="M191.124 235.852C191.124 227.148 184.069 220.093 175.366 220.093C166.663 220.093 159.607 227.148 159.607 235.852" stroke="#595AE0"/>
<path d="M185.872 235.852C185.872 230.05 181.169 225.346 175.367 225.346C169.564 225.346 164.861 230.05 164.861 235.852" stroke="#595AE0"/>
<path d="M36.1661 258.439C36.1661 243.934 24.4072 232.175 9.9019 232.175C-4.60342 232.175 -16.3623 243.934 -16.3623 258.439" stroke="#595AE0"/>
<path d="M30.9129 258.439C30.9129 246.835 21.5058 237.428 9.90151 237.428C-1.70275 237.428 -11.1099 246.835 -11.1099 258.439" stroke="#595AE0"/>
<path d="M25.6601 258.439C25.6601 249.736 18.6048 242.68 9.90159 242.68C1.1984 242.68 -5.85693 249.736 -5.85693 258.439" stroke="#595AE0"/>
<path d="M20.4079 258.439C20.4079 252.637 15.7043 247.933 9.90217 247.933C4.10004 247.933 -0.603516 252.637 -0.603516 258.439" stroke="#595AE0"/>
<path d="M59.8043 281.027C59.8043 266.521 48.0454 254.762 33.5401 254.762C19.0348 254.762 7.27588 266.521 7.27588 281.027" stroke="#595AE0"/>
<path d="M54.5511 281.027C54.5511 269.422 45.1439 260.015 33.5397 260.015C21.9354 260.015 12.5283 269.422 12.5283 281.027" stroke="#595AE0"/>
<path d="M49.2983 281.026C49.2983 272.323 42.243 265.268 33.5398 265.268C24.8366 265.268 17.7812 272.323 17.7812 281.026" stroke="#595AE0"/>
<path d="M44.0451 281.026C44.0451 275.224 39.3415 270.521 33.5394 270.521C27.7372 270.521 23.0337 275.224 23.0337 281.026" stroke="#595AE0"/>
<path d="M107.08 281.027C107.08 266.521 95.3208 254.762 80.8155 254.762C66.3102 254.762 54.5513 266.521 54.5513 281.027" stroke="#595AE0"/>
<path d="M101.826 281.027C101.826 269.422 92.4193 260.015 80.8151 260.015C69.2108 260.015 59.8037 269.422 59.8037 281.027" stroke="#595AE0"/>
<path d="M96.5737 281.026C96.5737 272.323 89.5184 265.268 80.8152 265.268C72.112 265.268 65.0566 272.323 65.0566 281.026" stroke="#595AE0"/>
<path d="M91.3209 281.026C91.3209 275.224 86.6174 270.521 80.8153 270.521C75.0131 270.521 70.3096 275.224 70.3096 281.026" stroke="#595AE0"/>
<path d="M12.5284 281.027C12.5284 266.521 0.76953 254.762 -13.7358 254.762C-28.2411 254.762 -40 266.521 -40 281.027" stroke="#595AE0"/>
<path d="M7.27567 281.027C7.27567 269.422 -2.13144 260.015 -13.7357 260.015C-25.34 260.015 -34.7471 269.422 -34.7471 281.027" stroke="#595AE0"/>
<path d="M2.02242 281.026C2.02242 272.323 -5.03291 265.268 -13.7361 265.268C-22.4393 265.268 -29.4946 272.323 -29.4946 281.026" stroke="#595AE0"/>
<path d="M83.4415 258.439C83.4415 243.934 71.6826 232.175 57.1773 232.175C42.672 232.175 30.9131 243.934 30.9131 258.439" stroke="#595AE0"/>
<path d="M78.1888 258.439C78.1888 246.835 68.7816 237.428 57.1774 237.428C45.5731 237.428 36.166 246.835 36.166 258.439" stroke="#595AE0"/>
<path d="M72.936 258.439C72.936 249.736 65.8807 242.68 57.1775 242.68C48.4743 242.68 41.4189 249.736 41.4189 258.439" stroke="#595AE0"/>
<path d="M67.6832 258.439C67.6832 252.637 62.9797 247.933 57.1776 247.933C51.3754 247.933 46.6719 252.637 46.6719 258.439" stroke="#595AE0"/>
<path d="M36.1661 213.264C36.1661 198.759 24.4072 187 9.9019 187C-4.60342 187 -16.3623 198.759 -16.3623 213.264" stroke="#595AE0"/>
<path d="M30.9129 213.264C30.9129 201.66 21.5058 192.253 9.90151 192.253C-1.70275 192.253 -11.1099 201.66 -11.1099 213.264" stroke="#595AE0"/>
<path d="M25.6601 213.264C25.6601 204.561 18.6048 197.506 9.90159 197.506C1.1984 197.506 -5.85693 204.561 -5.85693 213.264" stroke="#595AE0"/>
<path d="M20.4079 213.264C20.4079 207.462 15.7043 202.759 9.90217 202.759C4.10004 202.759 -0.603516 207.462 -0.603516 213.264" stroke="#595AE0"/>
<path d="M59.8043 235.852C59.8043 221.346 48.0454 209.587 33.5401 209.587C19.0348 209.587 7.27588 221.346 7.27588 235.852" stroke="#595AE0"/>
<path d="M54.5511 235.852C54.5511 224.247 45.1439 214.84 33.5397 214.84C21.9354 214.84 12.5283 224.247 12.5283 235.852" stroke="#595AE0"/>
<path d="M49.2983 235.852C49.2983 227.148 42.243 220.093 33.5398 220.093C24.8366 220.093 17.7812 227.148 17.7812 235.852" stroke="#595AE0"/>
<path d="M44.0451 235.852C44.0451 230.05 39.3415 225.346 33.5394 225.346C27.7372 225.346 23.0337 230.05 23.0337 235.852" stroke="#595AE0"/>
<path d="M107.08 235.852C107.08 221.346 95.3208 209.587 80.8155 209.587C66.3102 209.587 54.5513 221.346 54.5513 235.852" stroke="#595AE0"/>
<path d="M101.826 235.852C101.826 224.247 92.4193 214.84 80.8151 214.84C69.2108 214.84 59.8037 224.247 59.8037 235.852" stroke="#595AE0"/>
<path d="M96.5737 235.852C96.5737 227.148 89.5184 220.093 80.8152 220.093C72.112 220.093 65.0566 227.148 65.0566 235.852" stroke="#595AE0"/>
<path d="M91.3209 235.852C91.3209 230.05 86.6174 225.346 80.8153 225.346C75.0131 225.346 70.3096 230.05 70.3096 235.852" stroke="#595AE0"/>
<path d="M12.5284 235.852C12.5284 221.346 0.76953 209.587 -13.7358 209.587C-28.2411 209.587 -40 221.346 -40 235.852" stroke="#595AE0"/>
<path d="M7.27567 235.852C7.27567 224.247 -2.13144 214.84 -13.7357 214.84C-25.34 214.84 -34.7471 224.247 -34.7471 235.852" stroke="#595AE0"/>
<path d="M2.02242 235.852C2.02242 227.148 -5.03291 220.093 -13.7361 220.093C-22.4393 220.093 -29.4946 227.148 -29.4946 235.852" stroke="#595AE0"/>
<path d="M83.4415 213.264C83.4415 198.759 71.6826 187 57.1773 187C42.672 187 30.9131 198.759 30.9131 213.264" stroke="#595AE0"/>
<path d="M78.1888 213.264C78.1888 201.66 68.7816 192.253 57.1774 192.253C45.5731 192.253 36.166 201.66 36.166 213.264" stroke="#595AE0"/>
<path d="M72.936 213.264C72.936 204.561 65.8807 197.506 57.1775 197.506C48.4743 197.506 41.4189 204.561 41.4189 213.264" stroke="#595AE0"/>
<path d="M67.6832 213.264C67.6832 207.462 62.9797 202.759 57.1776 202.759C51.3754 202.759 46.6719 207.462 46.6719 213.264" stroke="#595AE0"/>
<path d="M315.265 340C315.265 321.32 300.121 306.177 281.441 306.177C262.761 306.177 247.618 321.32 247.618 340" stroke="white"/>
<path d="M308.5 340C308.5 325.056 296.385 312.941 281.441 312.941C266.497 312.941 254.383 325.056 254.383 340" stroke="white"/>
<path d="M301.735 340C301.735 328.792 292.649 319.706 281.441 319.706C270.233 319.706 261.147 328.792 261.147 340" stroke="white"/>
<path d="M294.97 340C294.97 332.528 288.913 326.47 281.441 326.47C273.969 326.47 267.912 332.528 267.912 340" stroke="white"/>
<path d="M376.146 340C376.146 321.32 361.003 306.177 342.323 306.177C323.643 306.177 308.5 321.32 308.5 340" stroke="white"/>
<path d="M369.382 340C369.382 325.056 357.267 312.941 342.323 312.941C327.379 312.941 315.265 325.056 315.265 340" stroke="white"/>
<path d="M362.617 340C362.617 328.792 353.531 319.706 342.323 319.706C331.115 319.706 322.029 328.792 322.029 340" stroke="white"/>
<path d="M355.852 340C355.852 332.528 349.795 326.47 342.323 326.47C334.851 326.47 328.793 332.528 328.793 340" stroke="white"/>
<path d="M315.265 281.823C315.265 263.143 300.121 248 281.441 248C262.761 248 247.618 263.143 247.618 281.823" stroke="white"/>
<path d="M308.5 281.824C308.5 266.879 296.385 254.765 281.441 254.765C266.497 254.765 254.383 266.879 254.383 281.824" stroke="white"/>
<path d="M301.735 281.824C301.735 270.616 292.649 261.53 281.441 261.53C270.233 261.53 261.147 270.616 261.147 281.824" stroke="white"/>
<path d="M294.97 281.823C294.97 274.351 288.913 268.294 281.441 268.294C273.969 268.294 267.912 274.351 267.912 281.823" stroke="white"/>
<path d="M345.706 310.912C345.706 292.232 330.562 277.088 311.882 277.088C293.202 277.088 278.059 292.232 278.059 310.912" stroke="white"/>
<path d="M338.941 310.912C338.941 295.968 326.827 283.853 311.883 283.853C296.939 283.853 284.824 295.968 284.824 310.912" stroke="white"/>
<path d="M332.176 310.912C332.176 299.704 323.09 290.618 311.882 290.618C300.674 290.618 291.588 299.704 291.588 310.912" stroke="white"/>
<path d="M325.411 310.912C325.411 303.44 319.354 297.382 311.882 297.382C304.41 297.382 298.353 303.44 298.353 310.912" stroke="white"/>
<path d="M406.587 310.912C406.587 292.232 391.444 277.088 372.764 277.088C354.084 277.088 338.94 292.232 338.94 310.912" stroke="white"/>
<path d="M399.822 310.912C399.822 295.968 387.708 283.853 372.764 283.853C357.82 283.853 345.705 295.968 345.705 310.912" stroke="white"/>
<path d="M393.058 310.912C393.058 299.704 383.972 290.618 372.764 290.618C361.556 290.618 352.47 299.704 352.47 310.912" stroke="white"/>
<path d="M386.293 310.912C386.293 303.44 380.236 297.382 372.764 297.382C365.292 297.382 359.234 303.44 359.234 310.912" stroke="white"/>
<path d="M284.824 310.912C284.824 292.232 269.681 277.088 251 277.088C232.32 277.088 217.177 292.232 217.177 310.912" stroke="white"/>
<path d="M278.059 310.912C278.059 295.968 265.945 283.853 251 283.853C236.056 283.853 223.942 295.968 223.942 310.912" stroke="white"/>
<path d="M271.294 310.912C271.294 299.704 262.208 290.618 251 290.618C239.792 290.618 230.706 299.704 230.706 310.912" stroke="white"/>
<path d="M264.53 310.912C264.53 303.44 258.472 297.382 251 297.382C243.528 297.382 237.471 303.44 237.471 310.912" stroke="white"/>
<path d="M376.146 281.823C376.146 263.143 361.003 248 342.323 248C323.643 248 308.5 263.143 308.5 281.823" stroke="white"/>
<path d="M369.382 281.824C369.382 266.879 357.267 254.765 342.323 254.765C327.379 254.765 315.265 266.879 315.265 281.824" stroke="white"/>
<path d="M362.617 281.824C362.617 270.616 353.531 261.53 342.323 261.53C331.115 261.53 322.029 270.616 322.029 281.824" stroke="white"/>
<path d="M355.852 281.823C355.852 274.351 349.795 268.294 342.323 268.294C334.851 268.294 328.793 274.351 328.793 281.823" stroke="white"/>
<path d="M419.334 86.3928C419.334 70.4755 406.431 57.5719 390.514 57.5719C374.596 57.5719 361.693 70.4755 361.693 86.3928" stroke="white"/>
<path d="M413.571 86.3929C413.571 73.659 403.248 63.3362 390.514 63.3362C377.78 63.3362 367.458 73.659 367.458 86.3929" stroke="white"/>
<path d="M407.807 86.3928C407.807 76.8424 400.064 69.1002 390.514 69.1002C380.964 69.1002 373.222 76.8424 373.222 86.3928" stroke="white"/>
<path d="M315.58 86.3928C315.58 70.4755 302.676 57.5719 286.759 57.5719C270.842 57.5719 257.938 70.4755 257.938 86.3928" stroke="white"/>
<path d="M309.816 86.3929C309.816 73.659 299.493 63.3362 286.759 63.3362C274.025 63.3362 263.703 73.659 263.703 86.3929" stroke="white"/>
<path d="M304.052 86.3928C304.052 76.8424 296.31 69.1002 286.759 69.1002C277.209 69.1002 269.467 76.8424 269.467 86.3928" stroke="white"/>
<path d="M298.288 86.3927C298.288 80.0258 293.126 74.8644 286.759 74.8644C280.392 74.8644 275.231 80.0258 275.231 86.3927" stroke="white"/>
<path d="M341.519 111.179C341.519 95.2616 328.615 82.358 312.698 82.358C296.781 82.358 283.877 95.2616 283.877 111.179" stroke="white"/>
<path d="M335.755 111.179C335.755 98.445 325.432 88.1222 312.698 88.1222C299.964 88.1222 289.642 98.445 289.642 111.179" stroke="white"/>
<path d="M329.991 111.179C329.991 101.628 322.249 93.8862 312.698 93.8862C303.148 93.8862 295.406 101.628 295.406 111.179" stroke="white"/>
<path d="M324.226 111.179C324.226 104.812 319.064 99.6504 312.697 99.6504C306.33 99.6504 301.169 104.812 301.169 111.179" stroke="white"/>
<path d="M393.396 111.179C393.396 95.2616 380.492 82.358 364.575 82.358C348.658 82.358 335.754 95.2616 335.754 111.179" stroke="white"/>
<path d="M387.632 111.179C387.632 98.445 377.309 88.1222 364.575 88.1222C351.841 88.1222 341.519 98.445 341.519 111.179" stroke="white"/>
<path d="M381.868 111.179C381.868 101.628 374.125 93.8862 364.575 93.8862C355.025 93.8862 347.283 101.628 347.283 111.179" stroke="white"/>
<path d="M376.103 111.179C376.103 104.812 370.942 99.6504 364.575 99.6504C358.208 99.6504 353.047 104.812 353.047 111.179" stroke="white"/>
<path d="M289.641 111.179C289.641 95.2616 276.738 82.358 260.821 82.358C244.903 82.358 232 95.2616 232 111.179" stroke="white"/>
<path d="M283.877 111.179C283.877 98.445 273.555 88.1222 260.821 88.1222C248.087 88.1222 237.764 98.445 237.764 111.179" stroke="white"/>
<path d="M278.113 111.179C278.113 101.628 270.371 93.8862 260.82 93.8862C251.27 93.8862 243.528 101.628 243.528 111.179" stroke="white"/>
<path d="M272.349 111.179C272.349 104.812 267.188 99.6504 260.821 99.6504C254.454 99.6504 249.292 104.812 249.292 111.179" stroke="white"/>
<path d="M367.457 86.3928C367.457 70.4755 354.553 57.5719 338.636 57.5719C322.719 57.5719 309.815 70.4755 309.815 86.3928" stroke="white"/>
<path d="M361.693 86.3929C361.693 73.659 351.37 63.3362 338.637 63.3362C325.903 63.3362 315.58 73.659 315.58 86.3929" stroke="white"/>
<path d="M355.929 86.3928C355.929 76.8424 348.187 69.1002 338.637 69.1002C329.086 69.1002 321.344 76.8424 321.344 86.3928" stroke="white"/>
<path d="M350.165 86.3927C350.165 80.0258 345.004 74.8644 338.637 74.8644C332.27 74.8644 327.108 80.0258 327.108 86.3927" stroke="white"/>
<path d="M315.58 36.8209C315.58 20.9036 302.676 8 286.759 8C270.842 8 257.938 20.9036 257.938 36.8209" stroke="white"/>
<path d="M309.816 36.8209C309.816 24.087 299.493 13.7642 286.759 13.7642C274.025 13.7642 263.703 24.087 263.703 36.8209" stroke="white"/>
<path d="M304.052 36.8209C304.052 27.2705 296.31 19.5283 286.759 19.5283C277.209 19.5283 269.467 27.2705 269.467 36.8209" stroke="white"/>
<path d="M298.288 36.8208C298.288 30.4539 293.126 25.2925 286.759 25.2925C280.392 25.2925 275.231 30.4539 275.231 36.8208" stroke="white"/>
<path d="M341.519 61.6069C341.519 45.6896 328.615 32.786 312.698 32.786C296.781 32.786 283.877 45.6896 283.877 61.6069" stroke="white"/>
<path d="M335.755 61.6069C335.755 48.873 325.432 38.5502 312.698 38.5502C299.964 38.5502 289.642 48.873 289.642 61.6069" stroke="white"/>
<path d="M329.991 61.6069C329.991 52.0565 322.249 44.3143 312.698 44.3143C303.148 44.3143 295.406 52.0565 295.406 61.6069" stroke="white"/>
<path d="M324.226 61.6067C324.226 55.2398 319.064 50.0784 312.697 50.0784C306.33 50.0784 301.169 55.2398 301.169 61.6067" stroke="white"/>
<path d="M393.396 61.6069C393.396 45.6896 380.492 32.786 364.575 32.786C348.658 32.786 335.754 45.6896 335.754 61.6069" stroke="white"/>
<path d="M387.632 61.6069C387.632 48.873 377.309 38.5502 364.575 38.5502C351.841 38.5502 341.519 48.873 341.519 61.6069" stroke="white"/>
<path d="M381.868 61.6069C381.868 52.0565 374.125 44.3143 364.575 44.3143C355.025 44.3143 347.283 52.0565 347.283 61.6069" stroke="white"/>
<path d="M376.103 61.6067C376.103 55.2398 370.942 50.0784 364.575 50.0784C358.208 50.0784 353.047 55.2398 353.047 61.6067" stroke="white"/>
<path d="M289.641 61.6069C289.641 45.6896 276.738 32.786 260.821 32.786C244.903 32.786 232 45.6896 232 61.6069" stroke="white"/>
<path d="M283.877 61.6069C283.877 48.873 273.555 38.5502 260.821 38.5502C248.087 38.5502 237.764 48.873 237.764 61.6069" stroke="white"/>
<path d="M278.113 61.6069C278.113 52.0565 270.371 44.3143 260.82 44.3143C251.27 44.3143 243.528 52.0565 243.528 61.6069" stroke="white"/>
<path d="M272.349 61.6067C272.349 55.2398 267.188 50.0784 260.821 50.0784C254.454 50.0784 249.292 55.2398 249.292 61.6067" stroke="white"/>
<path d="M367.457 36.8209C367.457 20.9036 354.553 8 338.636 8C322.719 8 309.815 20.9036 309.815 36.8209" stroke="white"/>
<path d="M361.693 36.8209C361.693 24.087 351.37 13.7642 338.637 13.7642C325.903 13.7642 315.58 24.087 315.58 36.8209" stroke="white"/>
<path d="M355.929 36.8209C355.929 27.2705 348.187 19.5283 338.637 19.5283C329.086 19.5283 321.344 27.2705 321.344 36.8209" stroke="white"/>
<path d="M350.165 36.8208C350.165 30.4539 345.004 25.2925 338.637 25.2925C332.27 25.2925 327.108 30.4539 327.108 36.8208" stroke="white"/>
</svg>
