<svg width="586" height="70" viewBox="0 0 586 70" fill="none" xmlns="http://www.w3.org/2000/svg">
<path d="M0.940002 0.418999H32.692C36.35 0.418999 40.057 1.105 43.815 2.477C47.571 3.849 51.001 5.924 54.105 8.701C57.208 11.478 59.74 14.972 61.7 19.186C63.66 23.4 64.64 28.383 64.64 34.131C64.64 39.881 63.675 44.861 61.749 49.076C59.821 53.29 57.339 56.785 54.301 59.561C51.263 62.339 47.898 64.413 44.207 65.785C40.515 67.157 36.938 67.843 33.476 67.843H0.940002V64.511C4.729 64.511 7.212 64.021 8.388 63.041C9.564 62.061 10.152 60.395 10.152 58.043V10.219C10.152 7.867 9.564 6.201 8.388 5.221C7.212 4.242 4.728 3.751 0.940002 3.751V0.418999V0.418999ZM20.148 57.455C20.148 58.893 20.261 60.068 20.491 60.982C20.719 61.898 21.209 62.616 21.961 63.138C22.711 63.661 23.757 64.02 25.097 64.216C26.435 64.412 28.184 64.51 30.34 64.51C35.174 64.51 39.094 63.792 42.1 62.354C45.104 60.918 47.441 58.875 49.107 56.229C50.773 53.583 51.883 50.398 52.439 46.674C52.993 42.95 53.272 38.802 53.272 34.228C53.272 28.348 52.797 23.449 51.851 19.528C50.903 15.608 49.465 12.472 47.539 10.121C45.611 7.768 43.227 6.119 40.385 5.172C37.543 4.226 34.195 3.751 30.34 3.751C28.184 3.751 26.436 3.849 25.097 4.045C23.757 4.241 22.711 4.601 21.961 5.123C21.209 5.646 20.719 6.364 20.491 7.278C20.261 8.194 20.148 9.37 20.148 10.806V57.455V57.455Z" fill="#0080C6"/>
<path d="M54.937 67.843V64.511C56.897 64.511 58.546 64.25 59.886 63.727C61.224 63.206 62.336 62.487 63.218 61.571C64.1 60.657 64.835 59.562 65.423 58.289C66.011 57.015 66.565 55.627 67.089 54.124L86.885 0.0270004H90.413L111.875 55.202C112.593 57.098 113.296 58.648 113.982 59.856C114.668 61.066 115.435 62.012 116.285 62.699C117.134 63.385 118.064 63.859 119.078 64.12C120.09 64.382 121.315 64.512 122.753 64.512V67.844H95.509V64.512C97.337 64.512 98.775 64.463 99.821 64.366C100.865 64.267 101.634 64.071 102.124 63.777C102.614 63.483 102.923 63.108 103.055 62.65C103.185 62.194 103.251 61.606 103.251 60.886C103.251 60.364 103.087 59.531 102.761 58.387C102.433 57.244 102.009 55.937 101.487 54.467C100.963 52.997 100.375 51.463 99.723 49.861C99.069 48.261 98.415 46.742 97.763 45.304H74.634C74.242 46.676 73.784 48.048 73.262 49.42C72.739 50.792 72.248 52.115 71.792 53.389C71.334 54.663 70.942 55.807 70.616 56.819C70.288 57.833 70.126 58.698 70.126 59.417C70.126 60.332 70.273 61.116 70.567 61.769C70.861 62.423 71.4 62.945 72.184 63.337C72.968 63.729 74.029 64.023 75.369 64.219C76.707 64.415 78.423 64.513 80.514 64.513V67.845H54.937V67.843ZM96.194 41.187L85.806 15.413L76.006 41.186H96.194V41.187Z" fill="#0080C6"/>
<path d="M155.288 0.418999V3.751C153.328 3.751 151.744 3.865 150.535 4.094C149.326 4.323 148.379 4.698 147.693 5.221C147.007 5.744 146.532 6.414 146.272 7.23C146.01 8.048 145.88 9.043 145.88 10.219V58.043C145.88 59.219 146.01 60.216 146.272 61.032C146.532 61.849 147.007 62.518 147.693 63.041C148.379 63.564 149.325 63.939 150.535 64.168C151.743 64.397 153.328 64.511 155.288 64.511V67.843H126.476V64.511C128.436 64.511 130.019 64.398 131.229 64.168C132.437 63.939 133.385 63.564 134.071 63.041C134.757 62.519 135.23 61.85 135.492 61.032C135.752 60.216 135.884 59.219 135.884 58.043V10.219C135.884 9.043 135.752 8.048 135.492 7.23C135.23 6.415 134.757 5.745 134.071 5.221C133.385 4.699 132.437 4.324 131.229 4.094C130.019 3.865 128.436 3.751 126.476 3.751V0.418999H155.288Z" fill="#0080C6"/>
<path d="M210.265 67.843H158.913V64.511C162.505 64.511 164.874 64.021 166.018 63.041C167.16 62.061 167.733 60.395 167.733 58.043V10.219C167.733 7.867 167.16 6.201 166.018 5.221C164.874 4.242 162.571 3.751 159.109 3.751V0.418999H187.137V3.751C185.177 3.751 183.592 3.865 182.384 4.094C181.174 4.323 180.228 4.698 179.542 5.221C178.856 5.744 178.381 6.414 178.121 7.23C177.859 8.048 177.729 9.043 177.729 10.219V58.043C177.729 60.395 178.3 62.061 179.444 63.041C180.587 64.02 182.4 64.511 184.883 64.511C186.973 64.511 189.146 64.266 191.4 63.776C193.654 63.287 195.81 62.257 197.868 60.689C199.926 59.122 201.837 56.901 203.601 54.025C205.365 51.151 206.769 47.361 207.815 42.658H210.853L210.265 67.843Z" fill="#0080C6"/>
<path d="M204.973 0.418999H232.805V3.751C229.865 3.751 227.758 4.013 226.484 4.535C225.21 5.058 224.573 5.907 224.573 7.083C224.573 7.606 224.85 8.553 225.406 9.925C225.96 11.297 226.68 12.865 227.562 14.629C228.444 16.393 229.424 18.272 230.502 20.264C231.58 22.258 232.609 24.184 233.589 26.046C234.569 27.908 235.434 29.574 236.186 31.044C236.936 32.514 237.443 33.608 237.705 34.327C238.161 33.282 239.126 31.502 240.596 28.985C242.066 26.471 243.585 23.792 245.153 20.95C246.721 18.107 248.125 15.381 249.367 12.766C250.607 10.154 251.229 8.226 251.229 6.984C251.229 5.94 250.624 5.139 249.416 4.584C248.207 4.029 246.035 3.751 242.899 3.751V0.418999H265.341V3.751C263.577 3.751 262.139 3.915 261.029 4.241C259.918 4.568 258.938 5.091 258.089 5.808C257.239 6.528 256.472 7.491 255.786 8.7C255.1 9.909 254.299 11.362 253.385 13.06L239.567 39.226V58.042C239.567 59.218 239.697 60.215 239.959 61.031C240.219 61.848 240.743 62.517 241.527 63.04C242.311 63.563 243.389 63.938 244.761 64.167C246.133 64.396 247.929 64.51 250.151 64.51V67.842H219.379V64.51C221.535 64.51 223.265 64.397 224.573 64.167C225.879 63.938 226.908 63.563 227.66 63.04C228.41 62.518 228.917 61.849 229.179 61.031C229.439 60.215 229.571 59.218 229.571 58.042V39.227L214.577 9.729C213.923 8.423 213.286 7.377 212.666 6.593C212.044 5.809 211.375 5.205 210.657 4.78C209.937 4.356 209.138 4.079 208.256 3.947C207.374 3.817 206.279 3.752 204.973 3.752V0.418999Z" fill="#0080C6"/>
<path d="M300.424 10.219C300.424 7.867 299.836 6.201 298.66 5.221C297.484 4.242 295.066 3.751 291.409 3.751V0.418999H323.063C327.702 0.418999 331.604 0.908998 334.774 1.889C337.942 2.869 340.491 4.143 342.419 5.711C344.345 7.278 345.716 9.06 346.534 11.052C347.35 13.046 347.759 15.055 347.759 17.079C347.759 19.234 347.253 21.212 346.241 23.008C345.227 24.806 343.839 26.373 342.075 27.712C340.311 29.052 338.268 30.081 335.95 30.799C333.63 31.519 331.163 31.877 328.552 31.877V32.073C335.868 32.335 341.454 33.983 345.31 37.021C349.164 40.059 351.091 44.192 351.091 49.418C351.091 50.985 350.7 52.832 349.915 54.955C349.132 57.079 347.858 59.088 346.093 60.981C344.329 62.877 342.027 64.494 339.185 65.833C336.343 67.173 332.865 67.842 328.747 67.842H291.41V64.51C295.068 64.51 297.486 64.02 298.661 63.04C299.837 62.06 300.425 60.394 300.425 58.042V10.219H300.424ZM320.123 30.799C323.389 30.799 326.084 30.489 328.207 29.868C330.33 29.248 331.996 28.365 333.205 27.222C334.414 26.079 335.246 24.707 335.705 23.106C336.16 21.506 336.391 19.759 336.391 17.863C336.391 12.767 335.051 9.141 332.373 6.985C329.693 4.83 325.35 3.752 319.338 3.752C317.313 3.752 315.713 3.884 314.537 4.144C313.361 4.406 312.461 4.749 311.842 5.173C311.221 5.599 310.828 6.104 310.666 6.692C310.502 7.28 310.42 7.934 310.42 8.652V30.8H320.123V30.799ZM310.42 34.131V57.749C310.42 58.99 310.568 60.052 310.861 60.934C311.156 61.816 311.66 62.519 312.381 63.041C313.1 63.564 314.127 63.939 315.467 64.168C316.807 64.397 318.488 64.511 320.514 64.511C324.239 64.511 327.34 64.185 329.825 63.532C332.307 62.88 334.284 61.915 335.755 60.64C337.224 59.367 338.253 57.783 338.841 55.887C339.429 53.992 339.724 51.837 339.724 49.419C339.724 44.78 338.646 41.073 336.49 38.296C334.334 35.52 330.838 34.131 326.004 34.131H310.42Z" fill="#0080C6"/>
<path d="M415.182 53.73C415.182 55.756 415.002 57.65 414.643 59.415C414.284 61.179 413.647 62.731 412.733 64.069C411.817 65.409 410.626 66.47 409.155 67.255C407.686 68.039 405.807 68.431 403.52 68.431C399.797 68.431 397.018 66.978 395.19 64.07C393.36 61.164 392.446 57.456 392.446 52.947C392.446 49.027 392.153 45.891 391.565 43.54C390.977 41.187 390.061 39.392 388.821 38.149C387.579 36.909 386.01 36.091 384.116 35.7C382.221 35.307 379.968 35.111 377.354 35.111H373.532V58.044C373.532 59.22 373.663 60.217 373.925 61.033C374.185 61.85 374.675 62.519 375.396 63.042C376.113 63.565 377.093 63.94 378.335 64.169C379.575 64.398 381.21 64.512 383.235 64.512V67.844H354.422V64.512C358.147 64.512 360.596 64.022 361.772 63.042C362.948 62.062 363.536 60.396 363.536 58.044V10.219C363.536 7.867 362.948 6.201 361.772 5.221C360.596 4.242 358.147 3.751 354.422 3.751V0.418999H389.801C393.85 0.418999 397.231 0.990999 399.944 2.134C402.653 3.278 404.827 4.682 406.46 6.348C408.093 8.014 409.255 9.827 409.94 11.787C410.625 13.747 410.969 15.576 410.969 17.274C410.969 20.346 410.281 22.975 408.91 25.164C407.537 27.353 405.758 29.133 403.568 30.505C401.378 31.877 398.88 32.874 396.072 33.494C393.261 34.115 390.42 34.425 387.547 34.425V34.621C390.682 35.144 393.195 36.174 395.092 37.708C396.987 39.243 398.488 41.008 399.6 43C400.711 44.993 401.561 47.084 402.149 49.271C402.737 51.461 403.292 53.47 403.815 55.298C404.336 57.128 404.958 58.63 405.676 59.806C406.394 60.982 407.44 61.57 408.813 61.57C409.465 61.57 410.02 61.31 410.479 60.787C410.934 60.265 411.311 59.61 411.606 58.827C411.899 58.043 412.11 57.194 412.243 56.278C412.374 55.364 412.438 54.514 412.438 53.73H415.182V53.73ZM373.531 31.583C374.969 31.648 376.635 31.697 378.529 31.729C380.424 31.763 382.513 31.778 384.802 31.778C387.021 31.778 389.079 31.583 390.976 31.19C392.869 30.798 394.519 30.097 395.925 29.084C397.327 28.071 398.423 26.717 399.206 25.017C399.991 23.319 400.384 21.195 400.384 18.647C400.384 14.206 399.206 10.611 396.855 7.868C394.503 5.124 390.419 3.752 384.605 3.752C380.357 3.752 377.451 4.192 375.884 5.075C374.316 5.957 373.53 7.411 373.53 9.435V31.583H373.531Z" fill="#0080C6"/>
<path d="M444.09 3.751C442.131 3.751 440.545 3.865 439.338 4.094C438.127 4.323 437.182 4.698 436.496 5.221C435.808 5.744 435.334 6.414 435.074 7.23C434.812 8.048 434.681 9.043 434.681 10.219V49.517C434.681 54.809 435.988 58.828 438.601 61.571C441.214 64.315 445.232 65.687 450.656 65.687C454.248 65.687 457.287 65.197 459.769 64.217C462.251 63.237 464.279 61.865 465.845 60.101C467.413 58.337 468.556 56.279 469.277 53.927C469.994 51.575 470.353 49.027 470.353 46.283V13.159C470.353 11.852 470.255 10.628 470.06 9.483C469.865 8.341 469.406 7.344 468.687 6.495C467.968 5.646 466.908 4.975 465.503 4.485C464.097 3.996 462.22 3.751 459.868 3.751V0.418999H483.485V3.751C481.329 3.751 479.614 3.996 478.34 4.485C477.067 4.975 476.102 5.646 475.449 6.495C474.795 7.345 474.371 8.342 474.174 9.483C473.979 10.628 473.881 11.852 473.881 13.159V47.066C473.881 50.594 473.276 53.715 472.068 56.425C470.857 59.137 469.16 61.423 466.97 63.285C464.781 65.146 462.2 66.567 459.228 67.548C456.255 68.527 453.005 69.018 449.478 69.018C445.689 69.018 442.275 68.626 439.238 67.842C436.199 67.058 433.601 65.866 431.447 64.265C429.291 62.665 427.625 60.607 426.449 58.091C425.271 55.576 424.683 52.62 424.683 49.222V10.219C424.683 9.043 424.552 8.048 424.292 7.23C424.03 6.415 423.556 5.745 422.87 5.221C422.184 4.699 421.237 4.324 420.028 4.094C418.819 3.865 417.235 3.751 415.276 3.751V0.418999H444.087V3.751H444.09Z" fill="#0080C6"/>
<path d="M515.434 0.418999V3.751C513.473 3.751 511.889 3.865 510.68 4.094C509.471 4.323 508.524 4.698 507.838 5.221C507.152 5.744 506.678 6.414 506.418 7.23C506.156 8.048 506.025 9.043 506.025 10.219V58.043C506.025 59.219 506.156 60.216 506.418 61.032C506.678 61.849 507.152 62.518 507.838 63.041C508.524 63.564 509.471 63.939 510.68 64.168C511.889 64.397 513.473 64.511 515.434 64.511V67.843H486.621V64.511C488.582 64.511 490.164 64.398 491.375 64.168C492.582 63.939 493.531 63.564 494.217 63.041C494.903 62.519 495.375 61.85 495.637 61.032C495.899 60.216 496.03 59.219 496.03 58.043V10.219C496.03 9.043 495.899 8.048 495.637 7.23C495.375 6.415 494.903 5.745 494.217 5.221C493.531 4.699 492.582 4.324 491.375 4.094C490.164 3.865 488.582 3.751 486.621 3.751V0.418999H515.434Z" fill="#0080C6"/>
<path d="M537.189 0.418999L572.468 50.889H572.665V10.219C572.665 9.043 572.532 8.048 572.272 7.23C572.01 6.415 571.52 5.745 570.801 5.221C570.082 4.699 569.102 4.324 567.862 4.094C566.62 3.865 564.987 3.751 562.962 3.751V0.418999H585.306V3.751C581.843 3.751 579.556 4.241 578.447 5.221C577.336 6.201 576.781 7.867 576.781 10.219V68.431H572.959L534.445 13.943H534.25V58.044C534.25 59.22 534.379 60.217 534.641 61.033C534.903 61.85 535.409 62.519 536.161 63.042C536.911 63.565 537.958 63.94 539.298 64.169C540.636 64.398 542.384 64.512 544.54 64.512V67.844H520.433V64.512C522.456 64.512 524.091 64.399 525.333 64.169C526.573 63.94 527.552 63.565 528.272 63.042C528.989 62.52 529.479 61.851 529.741 61.033C530.003 60.217 530.134 59.22 530.134 58.044V7.769C529.351 6.855 528.63 6.137 527.978 5.613C527.324 5.092 526.623 4.682 525.871 4.388C525.121 4.094 524.305 3.915 523.422 3.849C522.539 3.785 521.477 3.751 520.236 3.751V0.418999H537.189V0.418999Z" fill="#0080C6"/>
</svg>
