<svg width="496" height="60" viewBox="0 0 496 60" fill="none" xmlns="http://www.w3.org/2000/svg">
<path d="M4.91406 56.3516C3.53125 56.3281 2.37109 55.8594 1.43359 54.9453C0.496094 54.0078 0.0273438 52.8828 0.0273438 51.5703C0.0273438 49.2266 0.132812 45.7109 0.34375 41.0234C0.578125 36.3359 0.695312 32.8203 0.695312 30.4766C0.695312 27.875 0.636719 23.9727 0.519531 18.7695C0.425781 13.5664 0.378906 9.66406 0.378906 7.0625C0.378906 5.77344 1 4.49609 2.24219 3.23047C3.48438 1.94141 4.80859 1.29688 6.21484 1.29688C6.98828 1.29688 8.93359 2.02344 12.0508 3.47656C15.6836 5.21094 17.8398 6.18359 18.5195 6.39453C25.3867 8.62109 31.2461 12.0664 36.0977 16.7305C41.8867 22.2852 44.7812 28.4258 44.7812 35.1523C44.7812 39.207 43.7852 43.0625 41.793 46.7188C39.8008 50.4453 37.0703 53.4336 33.6016 55.6836C29.7109 58.2148 24.2383 59.4805 17.1836 59.4805C15.4727 59.4805 13.5039 59.2344 11.2773 58.7422C8.58203 58.1328 6.46094 57.3359 4.91406 56.3516ZM24.6719 20.2109C22.3984 18.7812 17.5234 16.5312 10.0469 13.4609V48.2656C10.9609 48.8516 12.0039 49.2969 13.1758 49.6016C14.3711 49.8828 15.6953 50.0234 17.1484 50.0234C22.2109 50.0234 25.8438 49.3203 28.0469 47.9141C30.1328 46.5781 31.7852 44.7617 33.0039 42.4648C34.2461 40.168 34.8672 37.7773 34.8672 35.293C34.8672 29.4805 31.4688 24.4531 24.6719 20.2109Z" fill="#0080C6"/>
<path d="M90.9062 57.0547C89.0547 56.9844 87.1914 54.8047 85.3164 50.5156C84.0742 47.75 83.0078 44.5625 82.1172 40.9531C80.3828 41.2109 77.5469 41.4688 73.6094 41.7266C69.9062 41.9844 67.0703 42.2891 65.1016 42.6406C64.0234 45.2188 62.1484 49.0977 59.4766 54.2773C58.4453 55.9648 57.0156 56.8086 55.1875 56.8086C53.8984 56.8086 52.7383 56.375 51.707 55.5078C50.6758 54.6172 50.1602 53.4922 50.1602 52.1328C50.1602 50.9375 51.8711 46.8828 55.293 39.9688C54.9648 39.2422 54.8242 38.5625 54.8711 37.9297C54.9648 36.8047 56.1016 35.9258 58.2812 35.293C61.6094 29.5273 65.3125 23.5508 69.3906 17.3633C75.25 8.48047 78.8594 4.03906 80.2188 4.03906C82.7969 4.03906 84.5195 5.59766 85.3867 8.71484C85.8555 11.2227 86.5938 14.9844 87.6016 20C89.0312 26.75 90.7773 34.4727 92.8398 43.168C93.0039 43.8242 93.6016 45.3711 94.6328 47.8086C95.4766 49.8242 95.8984 51.3359 95.8984 52.3438C95.8984 53.7031 95.3828 54.8398 94.3516 55.7539C93.3438 56.668 92.1953 57.1016 90.9062 57.0547ZM77.793 20.9844C75.9648 24.125 73.4453 28.4023 70.2344 33.8164C71.2891 33.582 72.9297 33.3945 75.1562 33.2539C77.7812 33.0898 79.4336 32.9609 80.1133 32.8672C79.5508 29.8203 78.7773 25.8594 77.793 20.9844Z" fill="#0080C6"/>
<path d="M133.27 14.4453C132.051 14.4453 128.711 14.1172 123.25 13.4609C122.922 17.7734 122.758 23.5039 122.758 30.6523L122.723 46.4375C125.84 46.3672 129.016 46.332 132.25 46.332C133.656 46.332 134.816 46.8008 135.73 47.7383C136.668 48.6758 137.137 49.8008 137.137 51.1133C137.137 52.4258 136.668 53.5508 135.73 54.4883C134.816 55.4023 133.656 55.8594 132.25 55.8594C130.938 55.8594 128.969 55.8945 126.344 55.9648C123.719 56.0117 121.75 56.0352 120.438 56.0352C118.891 56.0352 116.57 56.2344 113.477 56.6328C110.383 57.0547 108.062 57.2656 106.516 57.2656C105.109 57.2656 103.938 56.8086 103 55.8945C102.086 54.957 101.629 53.832 101.629 52.5195C101.629 51.207 102.086 50.082 103 49.1445C103.938 48.207 105.109 47.7383 106.516 47.7383C108.109 47.7383 110.207 47.5625 112.809 47.2109C112.762 44.4453 112.738 39.1484 112.738 31.3203C112.738 24.9453 112.973 18.8633 113.441 13.0742L105.812 13.2852C104.406 13.2852 103.223 12.8281 102.262 11.9141C101.324 11 100.855 9.86328 100.855 8.50391C100.855 7.12109 101.324 5.99609 102.262 5.12891C103.129 4.33203 104.195 3.875 105.461 3.75781C107.523 3.57031 111.109 3.47656 116.219 3.47656C120.812 3.47656 126.73 3.96875 133.973 4.95312C136.855 5.35156 138.297 6.96875 138.297 9.80469C138.297 11.3047 137.711 12.4883 136.539 13.3555C135.578 14.082 134.488 14.4453 133.27 14.4453Z" fill="#0080C6"/>
<path d="M175.633 54.6641C172.867 55.8828 168.59 56.9727 162.801 57.9336C157.504 58.8242 153.156 59.2695 149.758 59.2695C144.016 59.2695 141.145 56.75 141.145 51.7109C141.145 52.1094 141.379 48.3945 141.848 40.5664C142.457 30.3945 142.762 19.0742 142.762 6.60547C142.762 5.26953 143.219 4.13281 144.133 3.19531C145.07 2.25781 146.242 1.78906 147.648 1.78906C149.055 1.78906 150.227 2.25781 151.164 3.19531C152.102 4.13281 152.57 5.26953 152.57 6.60547C152.57 19.0977 152.254 30.6055 151.621 41.1289C151.41 43.0039 151.188 45.875 150.953 49.7422C156.508 49.6484 163.633 48.2891 172.328 45.6641C172.867 45.5 173.383 45.418 173.875 45.418C175.352 45.418 176.547 45.957 177.461 47.0352C178.281 47.9961 178.691 49.0742 178.691 50.2695C178.691 52.2852 177.672 53.75 175.633 54.6641Z" fill="#0080C6"/>
<path d="M221.09 12.6172C219.895 15.0781 217.492 20.3984 213.883 28.5781C210.883 35.4219 208.328 40.7891 206.219 44.6797C202.562 51.4297 200.605 55.0039 200.348 55.4023C198.965 57.4414 197.371 58.4609 195.566 58.4609C194.277 58.4609 193.141 58.0391 192.156 57.1953C191.078 56.2578 190.539 55.0977 190.539 53.7148C190.539 52.5664 192.988 47.7383 197.887 39.2305C196.082 36.6289 193.492 32.6797 190.117 27.3828C187.586 23.4922 183.871 17.6211 178.973 9.76953C178.504 8.97266 178.27 8.14062 178.27 7.27344C178.27 5.91406 178.797 4.76562 179.852 3.82812C180.836 2.96094 181.984 2.52734 183.297 2.52734C184.844 2.52734 186.25 3.3125 187.516 4.88281L190.152 9.10156C190.316 9.38281 192.332 12.8047 196.199 19.3672C198.637 23.5625 200.793 26.8789 202.668 29.3164C204.449 25.7305 207.016 20.3047 210.367 13.0391C211.07 11.4219 212.125 8.97266 213.531 5.69141C214.422 3.58203 215.945 2.52734 218.102 2.52734C219.391 2.52734 220.527 2.94922 221.512 3.79297C222.59 4.70703 223.129 5.85547 223.129 7.23828C223.129 8.03516 222.449 9.82812 221.09 12.6172Z" fill="#0080C6"/>
<path d="M286.727 54.6289C281.266 56.668 274.363 57.6875 266.02 57.6875C264.613 57.6875 263.348 57.1016 262.223 55.9297C261.121 54.7578 260.57 53.5039 260.57 52.168V14.9023C260.5 13.3086 260.441 11.7148 260.395 10.1211C260.324 8.31641 260.383 6.79297 260.57 5.55078C260.898 3.34766 262.949 2.01172 266.723 1.54297C268.504 1.02734 271.457 0.769531 275.582 0.769531C280.012 0.769531 284.254 2.19922 288.309 5.05859C293.066 8.38672 295.445 12.5469 295.445 17.5391C295.445 20.2344 294.953 22.5078 293.969 24.3594C293.195 25.8594 291.848 27.4648 289.926 29.1758C292.199 30.2773 294.215 31.9414 295.973 34.168C297.965 36.6523 298.961 39.125 298.961 41.5859C298.961 44.7031 297.262 47.6562 293.863 50.4453C291.59 52.2969 289.211 53.6914 286.727 54.6289ZM275.582 10.2969C272.559 10.2969 270.742 10.3203 270.133 10.3672L270.168 17.8203L270.133 25.2031C272.266 25.4609 273.871 25.543 274.949 25.4492C282.121 24.8867 285.707 22.25 285.707 17.5391C285.707 15.875 284.652 14.2695 282.543 12.7227C280.363 11.1055 278.043 10.2969 275.582 10.2969ZM279.695 35.1523C277.562 35.1523 274.375 35.0703 270.133 34.9062V48.0547C274.164 47.8438 278.535 47.0703 283.246 45.7344C287.371 44.5625 289.41 43.2969 289.363 41.9375C289.293 40.1328 287.969 38.5273 285.391 37.1211C283.375 35.9961 281.477 35.3398 279.695 35.1523Z" fill="#0080C6"/>
<path d="M340.656 56.4219C339.391 56.4219 338.23 55.9297 337.176 54.9453C330.074 48.2891 322.27 43.6719 313.762 41.0938C314.02 47.9141 314.148 51.6992 314.148 52.4492C314.148 53.7852 313.68 54.9219 312.742 55.8594C311.805 56.7734 310.633 57.2305 309.227 57.2305C307.82 57.2305 306.648 56.7734 305.711 55.8594C304.773 54.9219 304.305 53.7852 304.305 52.4492C304.305 50.6914 304.328 48.0664 304.375 44.5742C304.422 41.0586 304.445 38.4219 304.445 36.6641L304.516 8.29297C304.516 6.76953 304.973 5.38672 305.887 4.14453C307.082 2.55078 308.734 1.83594 310.844 2C316.539 2.42188 319.457 2.64453 319.598 2.66797C322.879 3.06641 325.668 3.85156 327.965 5.02344C337.973 10.0625 342.977 16.3086 342.977 23.7617C342.977 26.832 341.922 29.5508 339.812 31.918C337.727 34.2617 334.586 36.2422 330.391 37.8594C336.602 41.3281 341.277 44.8672 344.418 48.4766C345.238 49.4141 345.648 50.457 345.648 51.6055C345.648 52.918 345.156 54.0547 344.172 55.0156C343.188 55.9531 342.016 56.4219 340.656 56.4219ZM318.121 12.1953C317.934 12.1719 316.562 12.0781 314.008 11.9141V30.582C314.594 30.6055 315.109 30.6172 315.555 30.6172C321.297 30.6172 325.551 29.9023 328.316 28.4727C329.512 27.8633 330.602 27.0547 331.586 26.0469C332.594 25.0391 333.098 24.2773 333.098 23.7617C333.098 21.1367 331.434 18.6055 328.105 16.168C324.941 13.8711 321.613 12.5469 318.121 12.1953Z" fill="#0080C6"/>
<path d="M387.766 49.918C386.055 52.2383 383.992 54.1719 381.578 55.7188C378.625 57.5938 375.59 58.5312 372.473 58.5312C366.496 58.5312 362.055 57.3828 359.148 55.0859C353.008 50.2344 349.938 41.8086 349.938 29.8086C349.938 28.6602 349.996 26.9492 350.113 24.6758C350.23 22.4023 350.289 20.6914 350.289 19.543C350.289 18.6289 350.312 17.2695 350.359 15.4648C350.406 13.6367 350.43 12.2656 350.43 11.3516C350.43 9.47656 350.77 7.70703 351.449 6.04297C352.363 3.83984 353.641 2.73828 355.281 2.73828C356.57 2.73828 357.707 3.16016 358.691 4.00391C359.77 4.89453 360.309 6.04297 360.309 7.44922C360.309 8.78516 360.285 10.8125 360.238 13.5312C360.215 16.2266 360.203 18.2539 360.203 19.6133C360.203 20.7383 360.145 22.4375 360.027 24.7109C359.91 26.9844 359.852 28.6836 359.852 29.8086C359.852 33.4414 360.273 36.8164 361.117 39.9336C362.102 43.6602 363.543 46.2617 365.441 47.7383C366.426 48.5117 368.77 48.9219 372.473 48.9688C378.66 49.0625 382.832 43.7891 384.988 33.1484C386.113 27.6406 386.676 19.9062 386.676 9.94531C386.676 8.63281 387.062 7.36719 387.836 6.14844C388.891 4.53125 390.391 3.72266 392.336 3.72266C393.93 3.72266 395.125 4.30859 395.922 5.48047C396.531 6.34766 396.836 7.30859 396.836 8.36328C396.836 17.6211 396.402 24.8398 395.535 30.0195C394.223 38.0117 391.633 44.6445 387.766 49.918Z" fill="#0080C6"/>
<path d="M433.926 14.4453C432.707 14.4453 429.367 14.1172 423.906 13.4609C423.578 17.7734 423.414 23.5039 423.414 30.6523L423.379 46.4375C426.496 46.3672 429.672 46.332 432.906 46.332C434.312 46.332 435.473 46.8008 436.387 47.7383C437.324 48.6758 437.793 49.8008 437.793 51.1133C437.793 52.4258 437.324 53.5508 436.387 54.4883C435.473 55.4023 434.312 55.8594 432.906 55.8594C431.594 55.8594 429.625 55.8945 427 55.9648C424.375 56.0117 422.406 56.0352 421.094 56.0352C419.547 56.0352 417.227 56.2344 414.133 56.6328C411.039 57.0547 408.719 57.2656 407.172 57.2656C405.766 57.2656 404.594 56.8086 403.656 55.8945C402.742 54.957 402.285 53.832 402.285 52.5195C402.285 51.207 402.742 50.082 403.656 49.1445C404.594 48.207 405.766 47.7383 407.172 47.7383C408.766 47.7383 410.863 47.5625 413.465 47.2109C413.418 44.4453 413.395 39.1484 413.395 31.3203C413.395 24.9453 413.629 18.8633 414.098 13.0742L406.469 13.2852C405.062 13.2852 403.879 12.8281 402.918 11.9141C401.98 11 401.512 9.86328 401.512 8.50391C401.512 7.12109 401.98 5.99609 402.918 5.12891C403.785 4.33203 404.852 3.875 406.117 3.75781C408.18 3.57031 411.766 3.47656 416.875 3.47656C421.469 3.47656 427.387 3.96875 434.629 4.95312C437.512 5.35156 438.953 6.96875 438.953 9.80469C438.953 11.3047 438.367 12.4883 437.195 13.3555C436.234 14.082 435.145 14.4453 433.926 14.4453Z" fill="#0080C6"/>
<path d="M495.238 47.3516C495.238 48.5234 495.039 50.375 494.641 52.9062C494.172 55.9297 492.461 57.4414 489.508 57.4414C487.867 57.4414 486.016 56.5156 483.953 54.6641C474.93 46.5312 464.746 35.1289 453.402 20.457C453.262 26.5508 453.191 30.2891 453.191 31.6719C453.191 33.5234 453.227 36.3125 453.297 40.0391C453.391 43.7656 453.438 46.5547 453.438 48.4062C453.438 55.3203 451.75 58.7773 448.375 58.7773C446.664 58.7773 445.293 58.25 444.262 57.1953C443.348 56.2578 442.891 55.1211 442.891 53.7852C442.891 52.8477 442.961 51.4297 443.102 49.5312C443.266 47.6328 443.348 46.2148 443.348 45.2773C443.348 43.8945 443.395 41.8203 443.488 39.0547C443.582 36.2891 443.629 34.2148 443.629 32.832C443.629 31.3555 443.594 29.1289 443.523 26.1523C443.453 23.1758 443.418 20.9492 443.418 19.4727C443.418 18.0664 443.277 15.9688 442.996 13.1797C442.715 10.3906 442.574 8.29297 442.574 6.88672C442.574 5.48047 443.172 4.22656 444.367 3.125C445.586 2.02344 446.969 1.47266 448.516 1.47266C450.25 1.47266 452.172 2.97266 454.281 5.97266C464.922 21.1602 475.422 33.5469 485.781 43.1328C485.805 42.3828 485.816 40.6016 485.816 37.7891C485.816 26.2344 485.699 18.4414 485.465 14.4102C485.418 13.7305 485.266 12.4648 485.008 10.6133C484.773 8.97266 484.656 7.68359 484.656 6.74609C484.656 3.51172 486.367 1.89453 489.789 1.89453C493.609 1.89453 495.52 7.78906 495.52 19.5781C495.52 19.8359 495.496 21.6875 495.449 25.1328C495.309 37.0391 495.238 44.4453 495.238 47.3516Z" fill="#0080C6"/>
</svg>
