<svg width="484.182" height="77.601" viewBox="0 0 484.182 77.601" xmlns="http://www.w3.org/2000/svg">
    <g id="svgGroup" stroke-linecap="round" fill-rule="evenodd" font-size="9pt" stroke="#000" stroke-width="0.25mm"
        fill="#000" style="stroke:#000;stroke-width:0.25mm;fill:#000">
        <path
            d="M 184.2 1.1 L 184.2 47.9 L 186.8 47.9 L 202.8 30.1 L 195.5 28.6 Q 195.4 28.2 195.4 27.5 Q 195.4 26.3 196 25.1 Q 198.7 25.2 201.05 25.4 Q 203.4 25.6 206.2 25.6 Q 209.1 25.6 210.95 25.4 Q 212.8 25.2 215.6 25.1 Q 215.7 25.5 215.7 25.85 L 215.7 26.6 Q 215.7 27.5 215.4 28.6 Q 213.8 28.7 211.6 29.35 Q 209.4 30 207.9 31.1 L 194.3 45.7 L 212.8 70.6 Q 213.7 71.4 215.65 71.9 Q 217.6 72.4 219.5 72.6 Q 219.5 72.9 219.55 73.15 Q 219.6 73.4 219.6 73.7 Q 219.6 74.9 219 76.1 Q 216.1 75.9 213.15 75.8 Q 210.2 75.7 207.1 75.7 Q 204.9 75.7 202.65 75.8 Q 200.4 75.9 198 76.1 Q 197.9 75.7 197.9 75.35 L 197.9 74.7 Q 197.9 73.6 198.2 72.6 L 203.1 72.3 L 188.8 51.9 L 184.2 51.9 L 184.2 70.6 L 190.9 72.6 Q 190.9 72.9 190.95 73.15 Q 191 73.4 191 73.7 Q 191 74.9 190.4 76.1 Q 187.7 75.9 184.85 75.75 Q 182 75.6 179.2 75.6 Q 176.4 75.6 173.1 75.75 Q 169.8 75.9 167 76.1 Q 166.9 75.7 166.9 75.35 L 166.9 74.7 Q 166.9 73.6 167.2 72.6 Q 169.1 72.1 170.95 71.7 Q 172.8 71.3 174.2 70.6 L 174.2 7 L 165.9 6.2 Q 165.8 5.9 165.8 5.6 L 165.8 5.1 Q 165.8 3.9 166.4 2.7 Q 170 2.2 173.65 1.5 Q 177.3 0.8 180.4 0 Q 181.4 0.1 182.3 0.35 Q 183.2 0.6 184.2 1.1 Z M 50 24 L 48.9 11.1 Q 45.6 9.7 42.6 9.3 Q 39.6 8.9 36 8.9 Q 29 8.9 23.45 13.1 Q 17.9 17.3 14.75 24.5 Q 11.6 31.7 11.6 40.6 Q 11.6 50 14.3 57.15 Q 17 64.3 22.3 68.3 Q 27.6 72.3 35.4 72.3 Q 41.6 72.3 46.3 70.1 Q 51 67.9 54.8 64.7 Q 56.1 65.1 56.55 66 Q 57 66.9 57.1 68 Q 52.5 72.6 46.7 75.1 Q 40.9 77.6 34.3 77.6 Q 27.6 77.6 21.45 75.4 Q 15.3 73.2 10.45 68.65 Q 5.6 64.1 2.8 57.15 Q 0 50.2 0 40.6 Q 0 31.1 3.15 24.15 Q 6.3 17.2 11.45 12.65 Q 16.6 8.1 22.85 5.85 Q 29.1 3.6 35.3 3.6 Q 42.6 3.6 48.05 4.75 Q 53.5 5.9 57.5 8.1 Q 57.7 12.7 56.75 16.7 Q 55.8 20.7 54.4 24.5 Q 53.4 24.6 52.2 24.5 Q 51 24.4 50 24 Z M 467.1 26.2 L 467.4 26.2 L 467.4 7 L 459.1 6.2 Q 458.8 4.2 459.6 2.7 Q 466.8 1.6 473.1 0 Q 475 0.1 477.1 1.1 L 477.1 70.8 Q 478 71.6 480.1 72.1 Q 482.2 72.6 484.1 72.8 Q 484.4 74.7 483.6 76.3 Q 482 76.6 479.75 76.8 Q 477.5 77 475.2 77 Q 471.9 77 469.5 76.4 Q 468.7 75.1 468.25 73.8 Q 467.8 72.5 467.6 71.1 L 467.1 71.1 Q 462.9 74.7 459.35 76.15 Q 455.8 77.6 451.6 77.6 Q 446 77.6 441.35 74.25 Q 436.7 70.9 433.95 65 Q 431.2 59.1 431.2 51.5 Q 431.2 42.8 434.3 36.6 Q 437.4 30.4 443.05 27.05 Q 448.7 23.7 456.4 23.7 Q 459.2 23.7 462.05 24.4 Q 464.9 25.1 467.1 26.2 Z M 366.2 48.6 L 366.3 39.8 Q 366.4 34.2 364.2 31.15 Q 362 28.1 357.5 28.1 Q 355 28.1 352.7 28.45 Q 350.4 28.8 348.1 29.6 L 346.8 40.2 Q 346 40.6 344.6 40.65 Q 343.2 40.7 342.4 40.6 Q 341.5 37.3 340.9 34 Q 340.3 30.7 340.4 27.6 Q 345.1 25.4 349.85 24.5 Q 354.6 23.6 360.2 23.6 Q 365.8 23.6 369.25 25.4 Q 372.7 27.2 374.35 31.6 Q 376 36 376 43.9 L 376 70.7 Q 377.7 71.5 379.5 71.85 Q 381.3 72.2 383 72.7 Q 383.3 74.6 382.5 76.2 Q 380.9 76.5 378.65 76.7 Q 376.4 76.9 374.1 76.9 Q 370.8 76.9 368.4 76.3 L 367 71.1 L 366.6 71.1 Q 364.1 73.7 360.4 75.5 Q 356.7 77.3 351.7 77.3 Q 345.7 77.3 341.6 74.15 Q 337.5 71 337.5 64.6 Q 337.5 59.6 339.95 56.4 Q 342.4 53.2 346.55 51.45 Q 350.7 49.7 355.8 49.1 Q 360.9 48.5 366.2 48.6 Z M 236.4 1.1 L 236.4 30.1 L 236.9 30.6 Q 240.9 27.1 244.7 25.85 Q 248.5 24.6 251.9 24.6 Q 258.4 24.6 263.1 27.8 Q 267.8 31 270.35 36.85 Q 272.9 42.7 272.9 50.7 Q 272.9 59.4 269.45 65.4 Q 266 71.4 259.95 74.5 Q 253.9 77.6 245.9 77.6 Q 241.8 77.6 236.45 76.6 Q 231.1 75.6 226.9 73.8 L 226.9 7 L 218.6 6.2 Q 218.3 4.2 219.1 2.7 Q 222.7 2.2 226 1.5 Q 229.3 0.8 232.4 0 Q 234.3 0.1 236.4 1.1 Z M 156.1 40.2 L 154.8 29.6 Q 153.3 28.9 151.15 28.55 Q 149 28.2 147.3 28.2 Q 142 28.2 138.5 31.05 Q 135 33.9 133.25 38.95 Q 131.5 44 131.5 50.6 Q 131.5 58.1 133.55 62.8 Q 135.6 67.5 139.05 69.7 Q 142.5 71.9 146.7 71.9 Q 150 71.9 153.55 70.65 Q 157.1 69.4 160.5 67.2 Q 161.3 67.7 161.7 68.35 Q 162.1 69 162.3 69.8 Q 158.6 73.7 154.15 75.5 Q 149.7 77.3 145.2 77.3 Q 139 77.3 133.4 74.2 Q 127.8 71.1 124.3 65.1 Q 120.8 59.1 120.8 50.6 Q 120.8 41.8 124.35 35.85 Q 127.9 29.9 133.9 26.85 Q 139.9 23.8 147 23.8 Q 150.8 23.8 154.7 24.55 Q 158.6 25.3 162.5 27 Q 162.5 34.4 160.5 40.6 Q 160.1 40.7 159.7 40.7 L 158.9 40.7 Q 158.2 40.7 157.5 40.6 Q 156.8 40.5 156.1 40.2 Z M 404.1 41.9 L 404.1 70.6 L 413.8 72.6 Q 414.1 74.5 413.3 76.1 Q 411.5 76 408.85 75.9 Q 406.2 75.8 403.6 75.7 Q 401 75.6 399.1 75.6 Q 396.3 75.6 393 75.75 Q 389.7 75.9 386.9 76.1 Q 386.6 74.2 387.1 72.6 Q 389 72.1 390.85 71.7 Q 392.7 71.3 394.1 70.6 L 394.1 31.6 L 385.8 30.8 Q 385.5 28.8 386.3 27.3 Q 389.9 26.8 393.55 26.1 Q 397.2 25.4 400.3 24.6 Q 401.3 24.7 401.95 24.95 Q 402.6 25.2 403.6 25.7 L 403.6 34.8 L 403.7 34.9 Q 406.8 30.3 410.65 27.1 Q 414.5 23.9 418.9 23.9 Q 420.6 23.9 422.25 24.15 Q 423.9 24.4 425.5 25.4 Q 425.7 29.5 425.15 33.2 Q 424.6 36.9 423.5 40.4 Q 422.8 40.5 421.3 40.45 Q 419.8 40.4 419 40 L 417.6 30 Q 414.1 30 410.55 32.55 Q 407 35.1 404.1 41.9 Z M 79.1 1.1 L 79.1 70.6 L 86.8 72.6 Q 87.1 74.5 86.3 76.1 Q 83.601 75.9 80.251 75.75 Q 76.9 75.6 74.1 75.6 Q 71.3 75.6 68 75.75 Q 64.7 75.9 61.9 76.1 Q 61.6 74.2 62.1 72.6 Q 64 72.1 65.85 71.7 Q 67.7 71.3 69.1 70.6 L 69.1 7 L 60.8 6.2 Q 60.5 4.2 61.3 2.7 Q 64.9 2.2 68.55 1.5 Q 72.2 0.8 75.3 0 Q 76.3 0.1 77.2 0.35 Q 78.1 0.6 79.1 1.1 Z M 280.5 50.6 Q 280.5 42.8 283.55 36.7 Q 286.6 30.6 292.3 27.1 Q 298 23.6 305.7 23.6 Q 313.5 23.6 319.15 27.1 Q 324.8 30.6 327.85 36.7 Q 330.9 42.8 330.9 50.6 Q 330.9 58.6 327.85 64.7 Q 324.8 70.8 319.15 74.2 Q 313.5 77.6 305.7 77.6 Q 298 77.6 292.3 74.2 Q 286.6 70.8 283.55 64.7 Q 280.5 58.6 280.5 50.6 Z M 108.5 25.7 L 108.5 70.6 L 115.2 72.6 Q 115.5 74.5 114.7 76.1 Q 112 75.9 109.15 75.75 Q 106.3 75.6 103.5 75.6 Q 100.7 75.6 97.4 75.75 Q 94.1 75.9 91.3 76.1 Q 91 74.2 91.5 72.6 Q 93.4 72.1 95.25 71.7 Q 97.1 71.3 98.5 70.6 L 98.5 31.6 L 90.2 30.8 Q 89.9 28.8 90.7 27.3 Q 94.3 26.8 97.95 26.1 Q 101.6 25.4 104.7 24.6 Q 105.7 24.7 106.6 24.95 Q 107.5 25.2 108.5 25.7 Z M 320.1 52 Q 320.1 45.3 318.6 39.85 Q 317.1 34.4 313.9 31.15 Q 310.7 27.9 305.5 27.9 Q 300.2 27.9 297.05 31.1 Q 293.9 34.3 292.6 39.6 Q 291.3 44.9 291.3 51.3 Q 291.3 57.1 292.8 62.15 Q 294.3 67.2 297.55 70.25 Q 300.8 73.3 305.9 73.3 Q 311.3 73.3 314.4 70.3 Q 317.5 67.3 318.8 62.4 Q 320.1 57.5 320.1 52 Z M 467.1 66.5 L 467.1 31.7 Q 465.2 30 462.65 29.25 Q 460.1 28.5 457.2 28.5 Q 449.4 28.5 445.6 34.5 Q 441.8 40.5 441.8 50.6 Q 441.8 60.9 445.35 66.35 Q 448.9 71.8 455.7 71.8 Q 459.6 71.8 462.4 70.15 Q 465.2 68.5 467.1 66.5 Z M 236.9 36.4 L 236.9 71.3 Q 239.1 72.3 241.3 72.95 Q 243.5 73.6 246.9 73.6 Q 254 73.6 258.1 67.6 Q 262.2 61.6 262.2 50.7 Q 262.2 40.2 258.25 35.35 Q 254.3 30.5 248.9 30.5 Q 246.4 30.5 244 31.45 Q 241.6 32.4 239.7 33.75 Q 237.8 35.1 236.9 36.4 Z M 366.2 66.1 L 366.2 52.6 Q 355.9 52.6 351.7 55.05 Q 347.5 57.5 347.5 63.6 Q 347.5 67.7 349.7 69.75 Q 351.9 71.8 355.5 71.8 Q 358.3 71.8 361.5 70.05 Q 364.7 68.3 366.2 66.1 Z M 101.8 15.5 Q 100.1 15.5 98.7 14.4 Q 97.3 13.3 96.5 11.7 Q 95.7 10.1 95.7 8.7 Q 95.7 7.4 96.8 6.05 Q 97.9 4.7 99.55 3.75 Q 101.2 2.8 102.8 2.8 Q 104.6 2.8 106 3.95 Q 107.4 5.1 108.15 6.65 Q 108.9 8.2 108.9 9.6 Q 108.9 10.9 107.85 12.3 Q 106.8 13.7 105.15 14.6 Q 103.5 15.5 101.8 15.5 Z"
            vector-effect="non-scaling-stroke" />
    </g>
</svg>