<svg width="178" height="22" viewBox="0 0 178 22" fill="none" xmlns="http://www.w3.org/2000/svg">
<path d="M6.01933 4.12201C6.01933 2.44001 6.45433 2.03401 9.03533 2.03401C13.5593 2.03401 15.8213 4.06401 15.8213 11.053C15.8213 16.476 14.7773 20.014 9.03533 20.014C6.45433 20.014 6.01933 19.608 6.01933 17.926V4.12201ZM0.335327 2.03401C2.56833 2.03401 3.06133 2.55601 3.06133 3.94801V18.1C3.06133 19.492 2.56833 20.014 0.335327 20.014V21H9.96333C14.0813 21 19.1853 17.81 19.1853 11.024C19.1853 4.23801 14.0233 1.04801 9.73133 1.04801H0.335327V2.03401Z" fill="white"/>
<path d="M27.615 21V20.014C25.121 20.014 24.541 19.608 24.541 18.506C24.541 17.694 25.382 15.954 25.875 14.33H32.719C33.502 16.012 34.343 18.332 34.343 18.941C34.343 19.782 34.227 20.014 32.052 20.014V21H40.114V20.014C38.432 20.014 37.765 19.492 36.895 17.259L30.544 0.932007H29.5L23.642 16.94C23.004 18.709 22.395 20.014 20.046 20.014V21H27.615ZM26.281 13.112L29.181 5.48501L32.255 13.112H26.281Z" fill="white"/>
<path d="M40.2878 1.04801V2.03401C42.5788 2.03401 43.0718 2.55601 43.0718 3.94801V18.1C43.0718 19.492 42.5788 20.014 40.2878 20.014V21H48.8138V20.014C46.5228 20.014 46.0298 19.492 46.0298 18.1V3.94801C46.0298 2.55601 46.5228 2.03401 48.8138 2.03401V1.04801H40.2878Z" fill="white"/>
<path d="M65.257 13.547H64.358C63.082 19.144 60.066 20.014 57.572 20.014C56.093 20.014 55.455 19.492 55.455 18.1V3.94801C55.455 2.55601 55.948 2.03401 58.239 2.03401V1.04801H49.945V2.03401C52.004 2.03401 52.497 2.55601 52.497 3.94801V18.1C52.497 19.492 52.004 20.014 49.887 20.014V21H65.083L65.257 13.547Z" fill="white"/>
<path d="M63.472 2.03401C64.98 2.03401 65.5309 2.26601 66.3139 3.80301L70.751 12.532V18.1C70.751 19.492 70.258 20.014 67.735 20.014V21H76.841V20.014C74.2019 20.014 73.709 19.492 73.709 18.1V12.532L77.798 4.78901C78.871 2.75901 79.248 2.03401 81.336 2.03401V1.04801H74.695V2.03401C76.522 2.03401 77.16 2.38201 77.16 2.99101C77.16 4.47001 73.709 9.86401 73.158 11.082C72.665 9.77701 69.2719 4.00601 69.2719 3.02001C69.2719 2.32401 69.968 2.03401 71.708 2.03401V1.04801H63.472V2.03401Z" fill="white"/>
<path d="M91.7275 18.1C91.7275 19.492 91.2345 20.014 89.0595 20.014V21H100.108C105.009 21 106.72 17.404 106.72 15.548C106.72 12.474 104.342 10.56 100.05 10.415V10.357C103.124 10.357 105.734 8.53001 105.734 5.97801C105.734 3.60001 103.936 1.04801 98.4265 1.04801H89.0595V2.03401C91.2345 2.03401 91.7275 2.55601 91.7275 3.94801V18.1ZM99.2965 11.024C102.138 11.024 103.356 12.822 103.356 15.548C103.356 18.419 102.08 20.014 97.6725 20.014C95.2365 20.014 94.6855 19.521 94.6855 18.013V11.024H99.2965ZM94.6855 10.038V3.48401C94.6855 2.67201 94.9465 2.03401 97.3245 2.03401C100.862 2.03401 102.37 3.19401 102.37 6.21001C102.37 8.47201 101.442 10.038 97.5565 10.038H94.6855Z" fill="white"/>
<path d="M125.715 16.824C125.715 17.781 125.425 19.144 124.642 19.144C122.177 19.144 123.946 12.068 118.349 11.169V11.111C121.742 11.111 125.28 9.69001 125.28 6.03601C125.28 4.06401 123.801 1.04801 119.016 1.04801H108.547V2.03401C110.751 2.03401 111.244 2.55601 111.244 3.94801V18.1C111.244 19.492 110.751 20.014 108.547 20.014V21H117.073V20.014C114.695 20.014 114.202 19.492 114.202 18.1V11.314H115.333C118.407 11.314 119.799 11.952 119.799 16.592C119.799 19.26 120.901 21.174 123.076 21.174C125.744 21.174 126.527 19.202 126.527 16.824H125.715ZM114.202 3.71601C114.202 2.52701 114.985 2.03401 117.479 2.03401C120.901 2.03401 122.148 3.80301 122.148 6.44201C122.148 9.48701 120.147 10.328 117.537 10.328C116.203 10.328 115.043 10.299 114.202 10.27V3.71601Z" fill="white"/>
<path d="M135.923 1.04801H127.397V2.03401C129.688 2.03401 130.181 2.55601 130.181 3.94801V15.49C130.181 19.55 133.052 21.348 137.518 21.348C141.694 21.348 144.739 19.028 144.739 14.852V4.81801C144.739 3.25201 145.029 2.03401 147.581 2.03401V1.04801H140.592V2.03401C143.405 2.03401 143.695 3.25201 143.695 4.81801V14.62C143.695 17.868 142.1 20.362 137.866 20.362C134.676 20.362 133.139 18.68 133.139 15.577V3.94801C133.139 2.55601 133.632 2.03401 135.923 2.03401V1.04801Z" fill="white"/>
<path d="M148.5 1.04801V2.03401C150.791 2.03401 151.284 2.55601 151.284 3.94801V18.1C151.284 19.492 150.791 20.014 148.5 20.014V21H157.026V20.014C154.735 20.014 154.242 19.492 154.242 18.1V3.94801C154.242 2.55601 154.735 2.03401 157.026 2.03401V1.04801H148.5Z" fill="white"/>
<path d="M158.447 1.04801V2.03401C159.926 2.03401 160.448 2.15001 161.376 3.22301V18.1C161.376 19.492 160.883 20.014 158.505 20.014V21H165.639V20.014C163.087 20.014 162.594 19.492 162.594 18.1V5.05001H162.652L174.049 21.174H175.18V3.94801C175.18 2.55601 175.673 2.03401 177.703 2.03401V1.04801H171.091V2.03401C173.469 2.03401 173.962 2.55601 173.962 3.94801V15.983H173.904L163.464 1.04801H158.447Z" fill="white"/>
</svg>
