<?xml version="1.0" encoding="UTF-8"?><svg xmlns="http://www.w3.org/2000/svg" xmlns:xlink="http://www.w3.org/1999/xlink" viewBox="0 0 1440 1040"><defs><style>.g,.h,.i{fill:none;}.j{fill:#f2e9c2;}.k{fill:#f9f1d2;}.l{fill:#035b82;}.m{fill:#0093d5;}.n{fill:#ffe500;}.o{fill:#e5dcb7;}.p{fill:#9edbe8;}.q{fill:#b7b091;}.r{fill:#c1b999;}.s,.t{fill:#baaf80;}.u{fill:#ccc6aa;}.v{fill:#ddd4af;}.w{fill:#ddd2a2;}.x{fill:#d1c695;}.y{fill:#d8d0ad;}.a`{fill:#e2d7ac;}.aa{fill:#066d91;}.h{stroke:#fff;stroke-dasharray:0 0 26.88 26.88;stroke-width:4.48px;}.h,.i{stroke-miterlimit:10;}.t{font-family:MyriadPro-Regular, Myriad Pro;font-size:9.54px;}.i{stroke:#baaf80;}.ab{opacity:.5;}.ac{clip-path:url(#f);}</style><clipPath id="f"><rect class="g" width="1440" height="1040"/></clipPath></defs><g id="a"/><g id="b"/><g id="c"/><g id="d"/><g id="e"><rect class="p" x="-410.73" y="-202.92" width="2256.49" height="1431.92"/><g class="ac"><g><rect class="p" x="-383.27" y="-131.76" width="2256.49" height="1431.92"/><g><g><path class="m" d="M1465.82,775.14c-14.8-25.56-9.2-28.54-21.05-43.41-14.04-17.63-26.64-19.41-31.57-35.52-2.83-9.25-1.51-17.91,0-23.69-14.84-13.79-29.68-27.57-44.52-41.35v-.03s-.01,0-.02,0c-24.91-23.14-49.82-46.27-74.74-69.42,.06-.07,.12-.14,.18-.21l-152.63-141.49s.02,.09,.04,.13C970.27,261.11,799.03,102.05,627.79-57c1.31-189.66,2.63-379.31,3.94-568.96H264.67l-.07-.14s-.06,.09-.09,.14H30.51v35.52c5.44,5.1,13.28,13.75,18.42,26.31,4.62,11.31,4.24,18.91,2.63,60.52-1.22,31.49-1.48,39.65-2.63,55.25-1.46,19.93-2.22,30.03-3.94,36.84-4.81,19.02-10.53,21.8-22.37,48.68-10.42,23.64-15.62,35.47-14.47,47.36,1.41,14.61,9.71,25.53,26.31,47.36,17.23,22.67,24.25,24.4,27.63,38.15,4.22,17.15-4.93,21.69,0,36.83,5.86,17.99,20.56,17.09,30.26,35.52,6.91,13.13,3.74,21.72,3.95,47.36,.16,20.55,.37,44.78,7.89,67.09,10.27,30.44,32.27,51.58,55.25,73.67,22.49,21.61,30.31,22.7,36.84,38.15,9.3,22.02-.64,33.89,10.52,55.25,1.58,3.03,15.64,29.08,36.83,28.95,16.21-.11,32.17-15.51,38.15-30.26,3.71-9.15,2.65-15.74,7.89-18.42,6.11-3.13,12.79,3.13,26.32,9.2,24.27,10.93,41.76,8.32,42.1,13.16,.34,4.82-17.16,5.09-31.57,21.05-4.71,5.21-10.41,11.52-10.52,19.73-.21,14.23,16.54,19.38,27.63,36.84,5.76,9.08,11.19,23.38,9.2,46.05-7.46-2.97-18.57-8.17-30.26-17.1-22.35-17.1-29.89-35.01-35.52-32.89-4.75,1.79-1.13,15.17-1.31,43.41-.24,37.23-6.71,43.06,0,55.26,10.75,19.56,38.54,24.88,46.05,26.31,22.41,4.29,29.44-3.73,44.73,3.95,1.79,.9,23.3,12.13,23.69,32.89,.21,11.37-5.95,23.84-15.79,28.94-8.35,4.33-12.73-.1-18.42,3.95-11.13,7.91-11.16,36.82,2.63,52.62,9.5,10.88,17.58,6.42,27.63,18.42,10.73,12.83,4.52,21.54,14.47,31.58,11.61,11.71,23.55,3.42,35.52,14.47,11.08,10.23,4.31,20.55,14.47,39.46,3.99,7.42,6.6,8.75,34.21,32.89,30.42,26.6,40.67,36.73,38.15,42.1-2.37,5.08-14.24,1.89-15.79,6.58-1.68,5.08,11.33,11.5,28.94,28.94,10.3,10.2,15.51,15.47,18.42,23.69,2.75,7.77,1.22,11.2,0,31.57-1.45,24.24-2.08,36.59,2.63,47.36,2.55,5.81,7.72,17.66,18.42,21.05,15.68,4.97,23.88-14.33,44.73-13.15,17.86,1,18.17,15.51,39.46,17.1,12.63,.94,18.09-3.75,31.58,0,9.34,2.6,9.48,5.61,18.42,9.21,22.5,9.05,35.26-4.57,47.36,3.94,11.62,8.18,3.03,22.97,15.79,34.21,7.02,6.18,11.81,3.64,38.15,9.2,21.16,4.47,31.74,6.71,36.83,11.84,16.23,16.34,4.92,48.96,13.15,51.31,5.69,1.62,10.22-14.2,23.69-15.79,10.67-1.25,20.09,7.27,23.68,10.52,8.82,7.99,8.67,14.02,14.47,22.37,10.47,15.05,23.85,13.94,43.41,25,18.67,10.54,29,24.25,39.47,38.15,17.26,22.9,23.92,44.07,31.57,68.4,4.63,14.71,9.99,35.24,13.15,60.52,20.08-1.79,40.16-3.58,60.24-5.37l.12,.24c.04-.09,.08-.17,.11-.26,23.55-2.1,47.09-4.2,70.63-6.29,69.44-6.19,138.88-12.38,208.32-18.57,1.76-.02,19.94-.56,30.26-15.79,7.64-11.27,7.54-25.51,2.63-35.52-7.6-15.5-22.25-11.7-31.57-26.31-12.19-19.1-.6-46.73,1.32-51.31,10.9-26.01,27.76-24.47,32.88-44.73,6.37-25.18-17.28-36.92-10.52-56.57,9.38-27.22,61.19-23.26,64.47-44.73,1.4-9.18-7.92-10.93-23.69-38.15Z"/><g class="ab"><g><path class="l" d="M1465.82,775.14c15.76,27.23,25.08,28.97,23.68,38.15-3.28,21.46-55.09,17.51-64.46,44.73-6.77,19.65,16.9,31.39,10.52,56.57-5.13,20.27-21.99,18.72-32.89,44.73-1.92,4.58-13.5,32.2-1.31,51.31,9.32,14.61,23.97,10.81,31.57,26.31,4.91,10.01,5.01,24.25-2.63,35.52-10.32,15.23-28.5,15.76-30.26,15.79-69.44,6.19-138.88,12.38-208.33,18.57h0c1.39-8.78,4.55-14.52,7.4-18.26,3.59-4.72,7.04-6.71,6.9-10.36-.16-4.39-5.34-7-9.37-9.86-11.86-8.44-8.9-15.76-20.22-29.59-13.24-16.19-30.2-21.92-28.6-25.64,.82-1.91,5.33-.4,6.42-2.47,2.8-5.36-26.29-18.4-25.64-35.51,.24-6.57,4.88-13.55,9.37-13.81,7.79-.44,8.63,19.76,25.15,35.01,16.28,15.04,39.73,17.81,41.92,13.81,1.91-3.5-14.08-9.28-20.71-27.12-6.67-17.91,2.37-31.09-4.93-36.49-6.92-5.12-15.73,6.19-30.58,1.97-5.22-1.48-4.9-3.1-22.68-16.27-9.98-7.39-14.97-11.08-19.73-13.81-17.59-10.06-25.33-7.95-28.6-15.29-3.28-7.33,.83-17.51,5.42-23.18,4.61-5.69,8.61-5.46,9.86-8.88,1.69-4.59-2.42-13.49-29.59-32.55,14.71,2.52,30.58,5.88,47.34,10.36,20.57,5.5,39.19,11.8,55.72,18.24,5.08-14.37,9.7-18.1,13.32-18.24,7.01-.28,11.28,12.92,18.24,11.84,4.68-.73,4.53-6.98,9.86-9.86,8.32-4.49,21.24,3.94,31.56,10.85,20.86,13.96,24.95,24.69,36.49,24.17,5.7-.26,12.37-3.22,13.81-7.89,2.71-8.81-14.19-20.67-17.75-23.18-17.89-12.55-28.55-9.56-48.82-16.76-16.08-5.71-31.26-17.78-61.64-41.92-19.06-15.15-24.9-21.78-37.97-23.67-15.12-2.19-18.8,5.02-34.52,.98-14.18-3.63-18.47-11.36-32.55-10.85-8.12,.3-15.13,3.18-15.78,3.46-10.2,4.28-10.09,8.85-16.27,9.86-6.82,1.11-9.26-4.09-27.13-12.82-8.78-4.29-13.26-6.44-17.75-6.41-10.92,.06-12.57,8.12-23.18,9.37-9.76,1.14-11.18-5.34-28.6-9.86-5.75-1.49-15.92-4.03-27.61-1.97-13.54,2.38-13.16,8.12-24.16,10.35-22.37,4.55-44.68-14.99-51.78-21.21-5.17-4.52-8.92-8.82-11.34-11.84,40.31-29.33,49.51-52.63,49.8-69.04,.14-7.51-1.46-20.86,6.42-34.52,2.47-4.29,9.77-16.95,22.68-18.24,11.33-1.14,23.16,6.84,29.59,19.72,8.63-7.7,20.37-15.56,31.56-12.82,18.04,4.42,21.99,33.31,33.04,32.55,10.94-.76,10.9-29.36,26.63-33.04,8.83-2.06,11.89,6.24,33.03,9.37,9.23,1.37,17.93,2.54,24.17-2.47,6.37-5.11,3.15-11.03,9.37-17.75,7.34-7.94,21.28-9.89,32.05-5.92,10.76,3.97,15.86,12.94,18.07,16.81,11.44,20.09,2.96,42.62,1.3,46.81,17.03-12.53,20.47-22.36,20.16-29.26-.37-8-5.8-12.21-3.91-20.16,2.35-9.84,12.22-9.84,13-16.9,1.16-10.34-19.58-13.45-27.31-33.82-3.31-8.72-.22-10.01-3.9-16.9-6.93-12.94-18.46-9.58-31.87-22.11-3.48-3.25-2.09-2.9-19.51-33.16-11.15-19.38-11.83-19.7-13.65-24.71-6.57-18.06-1.21-23.33-7.81-32.51-1.99-2.77-5.84-6.98-31.21-15.61-26.35-8.96-27.44-6.21-34.47-10.4-24.98-14.92-34.53-63.68-16.25-81.93,4.57-4.56,13.62-9.95,20.8-7.15,14.35,5.6,4.04,37.16,22.11,50.71,12.99,9.74,24.75-1.74,39.01,8.45,10.8,7.73,8.01,17.13,20.16,46.17,9.48,22.67,19.96,37.89,22.11,40.96,9.64,13.81,19.56,23.05,39.01,40.97,29.7,27.36,47.36,38.83,44.22,47.46-1.73,4.75-8.92,6.33-9.76,6.5-11.87,2.46-23.46-9.86-24.06-9.1-.72,.89,20.4,12.05,23.41,29.91,1.9,11.25-5.02,15.43-1.3,22.76,1.7,3.35,5.23,6.6,34.46,14.3,17.46,4.6,21.54,4.85,24.06,9.1,4.51,7.6,.33,21.61-8.45,27.96-10.02,7.25-18.72-.75-29.26,6.5-10.4,7.16-7.21,18.61-16.25,22.11-10,3.88-20.45-7.59-25.36-3.25-3.36,2.95,1.23,8.52-1.3,16.9-3.68,12.2-17.43,13.89-16.9,19.51,.57,6.01,17.21,13.33,33.16,10.4,19.1-3.5,22.76-19.04,40.96-19.51,10.27-.26,11.12,4.63,20.16,3.25,14.46-2.22,15.34-15.23,30.56-22.11,9.91-4.49,11.71,.06,39.66-1.3,20.95-1.02,35.09-1.87,39.67-10.4,3.51-6.54-1.87-11.53,0-20.16,2.64-12.15,17.18-20.05,33.79-25.35,14.85,13.79,29.69,27.58,44.54,41.37-1.51,5.78-2.83,14.44,0,23.69,4.92,16.11,17.53,17.89,31.57,35.52,11.85,14.88,6.25,17.85,21.05,43.41Z"/><path class="aa" d="M1293.93,561.73c24.91,23.14,49.82,46.27,74.74,69.42-16.61,5.3-31.15,13.2-33.79,25.35-1.87,8.63,3.51,13.62,0,20.16-4.57,8.53-18.71,9.38-39.67,10.4-27.94,1.36-29.74-3.18-39.66,1.3-15.22,6.88-16.1,19.89-30.56,22.11-9.04,1.38-9.89-3.51-20.16-3.25-18.2,.47-21.86,16.01-40.96,19.51-15.95,2.92-32.6-4.39-33.16-10.4-.53-5.61,13.22-7.31,16.9-19.51,2.53-8.39-2.05-13.95,1.3-16.9,4.91-4.34,15.36,7.13,25.36,3.25,9.04-3.5,5.85-14.95,16.25-22.11,10.54-7.25,19.24,.75,29.26-6.5,8.78-6.35,12.96-20.36,8.45-27.96-2.52-4.26-6.6-4.5-24.06-9.1-29.23-7.7-32.76-10.95-34.46-14.3-3.72-7.33,3.2-11.51,1.3-22.76-3.01-17.86-24.12-29.02-23.41-29.91,.6-.75,12.19,11.56,24.06,9.1,.84-.17,8.02-1.75,9.76-6.5,3.15-8.64-14.52-20.11-44.22-47.46-19.45-17.91-29.37-27.16-39.01-40.97-2.15-3.08-12.62-18.29-22.11-40.96-12.15-29.03-9.36-38.44-20.16-46.17-14.27-10.19-26.02,1.29-39.01-8.45-18.07-13.55-7.76-45.11-22.11-50.71-7.18-2.8-16.23,2.59-20.8,7.15-18.28,18.25-8.73,67.01,16.25,81.93,7.03,4.19,8.12,1.44,34.47,10.4,25.36,8.62,29.21,12.83,31.21,15.61,6.6,9.18,1.24,14.45,7.81,32.51,1.82,5.01,2.49,5.33,13.65,24.71,17.42,30.25,16.02,29.9,19.51,33.16,13.41,12.53,24.94,9.17,31.87,22.11,3.68,6.9,.59,8.19,3.9,16.9,7.73,20.37,28.47,23.48,27.31,33.82-.79,7.07-10.65,7.07-13,16.9-1.89,7.95,3.54,12.16,3.91,20.16,.31,6.9-3.13,16.72-20.16,29.26,1.66-4.19,10.14-26.72-1.3-46.81-2.21-3.87-7.31-12.84-18.07-16.81-10.77-3.97-24.71-2.01-32.05,5.92-6.22,6.72-3,12.64-9.37,17.75-6.24,5-14.93,3.84-24.17,2.47-21.14-3.13-24.2-11.43-33.03-9.37-15.73,3.68-15.69,32.28-26.63,33.04-11.05,.77-15-28.12-33.04-32.55-11.19-2.75-22.93,5.12-31.56,12.82-6.43-12.88-18.26-20.86-29.59-19.72-12.91,1.3-20.21,13.95-22.68,18.24-7.88,13.66-6.28,27-6.42,34.52-.29,16.41-9.49,39.71-49.8,69.04,2.42,3.02,6.17,7.32,11.34,11.84,7.1,6.22,29.41,25.75,51.78,21.21,11-2.23,10.62-7.97,24.16-10.35,11.69-2.06,21.86,.48,27.61,1.97,17.42,4.52,18.85,11,28.6,9.86,10.61-1.25,12.26-9.31,23.18-9.37,4.49-.03,8.97,2.11,17.75,6.41,17.86,8.73,20.3,13.93,27.13,12.82,6.18-1,6.07-5.58,16.27-9.86,.65-.28,7.66-3.15,15.78-3.46,14.08-.52,18.37,7.21,32.55,10.85,15.71,4.04,19.4-3.17,34.52-.98,13.07,1.89,18.9,8.52,37.97,23.67,30.38,24.14,45.57,36.2,61.64,41.92,20.27,7.2,30.93,4.21,48.82,16.76,3.56,2.5,20.46,14.37,17.75,23.18-1.43,4.67-8.11,7.63-13.81,7.89-11.53,.52-15.63-10.2-36.49-24.17-10.32-6.9-23.24-15.34-31.56-10.85-5.33,2.88-5.18,9.13-9.86,9.86-6.96,1.08-11.23-12.12-18.24-11.84-3.62,.14-8.24,3.87-13.32,18.24-16.53-6.44-35.15-12.75-55.72-18.24-16.76-4.48-32.63-7.84-47.34-10.36,27.16,19.05,31.28,27.96,29.59,32.55-1.25,3.41-5.25,3.18-9.86,8.88-4.59,5.67-8.7,15.85-5.42,23.18,3.27,7.34,11.01,5.23,28.6,15.29,4.76,2.72,9.75,6.42,19.73,13.81,17.78,13.17,17.46,14.79,22.68,16.27,14.85,4.22,23.66-7.09,30.58-1.97,7.31,5.4-1.73,18.58,4.93,36.49,6.63,17.84,22.62,23.62,20.71,27.12-2.19,4-25.64,1.23-41.92-13.81-16.52-15.25-17.36-35.46-25.15-35.01-4.49,.26-9.13,7.23-9.37,13.81-.65,17.1,28.45,30.14,25.64,35.51-1.08,2.06-5.59,.55-6.42,2.47-1.59,3.72,15.36,9.46,28.6,25.64,11.31,13.82,8.36,21.14,20.22,29.59,4.03,2.87,9.21,5.48,9.37,9.86,.14,3.65-3.31,5.64-6.9,10.36-2.85,3.74-6.01,9.48-7.4,18.24h0c-23.54,2.11-47.08,4.21-70.63,6.31,3.92-8.83,7.69-21.21,1.99-29.86-8.6-13.03-31.87-5.65-38.92-18.58-5.77-10.59,7.13-20.52,.88-35.39-4.83-11.5-15.47-12.49-15.04-19.46,.62-9.88,22.11-10.06,26.54-23,3.76-10.98-6.6-25.69-15.92-33.61-22.25-18.93-50.22-9.06-56.61-23.89-3.58-8.31,4.57-12.86,.88-24.77-4.37-14.1-17.63-13.58-21.23-25.65-4.5-15.1,13.31-25.7,8.85-36.27-4.19-9.91-23.2-8.42-46.88-11.25-25.55-3.05-20.46-6.82-76.99-22.4-43.75-12.06-65.63-18.09-88.19-19.6-36.56-2.44-45.41,4.62-67.19-4.19-28.32-11.47-49.95-38.25-44.79-49,5.55-11.58,37.46,5.43,62.99-13.99,12.48-9.51,21.51-26.25,23.79-42,2.54-17.46-4.32-26.16,2.37-45.34,1.18-3.38,.93-1.8,8.6-19.34,6.99-16.01,10.49-24.09,10.75-27.94,1.03-15.41-9.49-17.71-7.88-31.53,1.61-13.83,12.7-16.21,11.46-27.94-1-9.52-8.58-10.6-8.6-20.06-.02-10.27,8.9-14.57,6.44-20.78-1.87-4.74-7.48-3.24-14.33-9.31-5-4.44-10.53-12.77-9.31-20.06,2.16-12.98,25.08-18.93,24.36-20.78-.76-1.96-24.04,10.52-34.39,2.15-5.88-4.75-1.69-11.46-6.45-30.09-4.77-18.7-12.29-24.85-8.6-30.8,4.01-6.47,14.31-1.52,22.21-9.32,7.98-7.87,7.74-23.04,3.58-25.08-5.31-2.6-16.14,16.66-24.36,13.61-4.85-1.79-2.65-9.08-8.6-15.76-8.24-9.25-19.01-2.67-30.8-10.03-12.04-7.51-17.21-24.6-16.48-37.26,1-17.44,13-23.41,9.31-31.53-4.22-9.31-20.5-2.6-40.84-13.61-14.19-7.68-11.09-13.56-30.8-30.09-7.37-6.17-18.29-12.71-40.12-25.79-29.85-17.87-32.52-17.98-35.11-23.64-8.77-19.14,11.08-41.1,.72-51.59-5.42-5.48-13.3-1.96-17.2-8.6-3.79-6.44,2.78-11.26,0-22.22-2.32-9.18-8.34-11.32-7.16-17.91,.7-3.94,2.95-3.76,6.44-10.04,4.41-7.9,2.24-10.71,5.74-17.91,4.84-9.97,12.47-11.75,11.46-15.05-1.29-4.22-13.31,.19-24.36-6.45-8.55-5.14-5.91-10.52-15.76-21.49-12.19-13.58-22.25-12.02-25.79-22.21-2.14-6.17,1.08-8.06,3.58-22.22,2.18-12.34,5.9-33.37-4.3-46.57-6.16-7.97-11.46-5.41-16.48-14.33-5.38-9.58-1.94-17.26-7.88-21.5-5.32-3.79-10.12,.9-15.51-2.62-7.63-4.99-1.31-16.58-7.96-24.91-9.3-11.64-31.11-.88-38.86-11.95-2.66-3.81-.9-6.26,0-21.92,1.01-17.47,.3-40.1-3.98-40.85-2.62-.46-5.15,7.51-6.98,6.98-2.8-.82,5.44-19.02,1-38.86-4.11-18.32-15.17-20.76-13.95-34.87,.99-11.39,8.59-14.37,6.98-23.91-1.37-8.06-7.99-13-15.94-18.93-18.6-13.87-32.57-12.43-35.87-22.91-1.96-6.25,2.47-8.44,0-14.64-4.34-10.92-19.86-8.49-22.77-17.35-2.24-6.85,6.5-9.84,8.67-26.02,.69-5.13,1.72-12.8-2.71-18.43-3.81-4.85-8.65-4.37-9.21-7.59-.97-5.46,12.74-7.81,15.18-17.35,2.32-9.09-8.32-14.07-5.96-23.31,2.05-8.04,10.9-7.4,14.09-16.81,2.19-6.44,.99-15.44-4.34-18.97-6.45-4.28-16.37,1.21-20.06,3.25-8.35,4.62-7.53,8.42-14.09,11.38-8.96,4.05-13.26-1.78-25.48,0-2.09,.31-18.05,2.85-24.4,14.09-5.78,10.25,2.13,17.64-4.34,28.19-4.93,8.06-11.28,6.57-13.55,13.55-2.95,9.04,6.92,13.98,4.88,24.4-1.17,5.97-6.02,10.12-15.72,18.43-10.11,8.65-13.91,8.75-18.43,15.72-.54,.83-8.02,12.59-3.8,17.89,3.46,4.35,13.09,2.22,15.72,1.63,9.34-2.07,12.73-7.14,15.72-5.42,3.26,1.87-.22,8.22,3.79,16.26,2.39,4.8,6.1,7.49,9.22,9.76,9.46,6.88,15.05,4.42,17.89,9.21,3,5.05-2.66,8.72-3.25,21.14-.57,11.96,4.42,14.04,2.01,22.22-2.09,7.12-6.4,7.36-11.1,16.15-4.01,7.51-4.03,13.26-5.05,19.19-4.44,25.79-23.39,28.99-22.22,44.43,1.24,16.27,22.61,16.83,26.25,37.36,2.44,13.74-6.29,18.24-2.02,30.3,4.86,13.69,17.59,11.99,22.22,25.24,4.61,13.22-6.39,19.67-2.02,33.32,4.28,13.34,15.89,10.63,23.23,24.23,9.76,18.12-5.23,33.32,4.04,50.49,3.1,5.74,9.79,13.31,26.25,18.17-19.54,7.92-33.49,6.87-43.41,3.03-6.65-2.57-9.25-5.52-31.3-26.26-28.2-26.52-31.01-28.37-35.34-30.29-18.32-8.14-27.69-1.71-36.35-11.1-8.48-9.2-1.1-17.13-8.07-32.31-10.46-22.77-35.16-22.62-36.35-38.37-.39-5.15,2.27-5.03,12.12-25.24,7.7-15.8,11.55-23.7,11.11-29.28-1.14-14.3-14.42-15.29-21.21-35.34-1.71-5.05-2.15-12.45-3.03-27.26-1.81-30.52,1.34-33.33-3.03-40.39-7-11.31-16.87-6.98-29.28-22.22-4.01-4.92-10.9-13.38-9.09-22.21,2.09-10.15,13.38-9.5,17.17-19.19,5.95-15.21-17.19-28.75-12.12-43.41,4.72-13.66,28.43-12.32,30.29-25.24,1.16-8.07-7.57-12.22-5.05-19.18,2.88-7.96,15.52-5.86,20.19-15.15,2.64-5.23,1.86-12.34-1.01-17.16-6.82-11.45-22.45-4.94-36.35-16.16-10.91-8.81-17.08-25.6-12.12-32.31,6.87-9.28,33.33,3.02,40.39-8.08,2.01-3.16,.41-5.01,3.03-10.09,3.88-7.53,11.24-10.94,16.15-13.13,18.91-8.43,42.02-4.75,46.07-4.1,2.44,.39,7.54,1.32,12.59-1.15,5.29-2.58,8.12-7.71,8.58-8.58,3.2-5.98,1.09-9.06,4.01-11.44,2.86-2.33,5.86-.16,13.16-1.15,0,0,5.49-.74,10.87-3.43,7.35-3.68,9.46-9.19,21.16-27.13,2.8-4.31,5.13-7.75,6.52-9.78h367.22c-1.31,189.65-2.63,379.3-3.94,568.96,171.23,159.05,342.47,318.1,513.71,477.15,3.61,13.31,8.6,25.84,12.11,32.75,5.28,10.42,9,14.77,9.41,23.17,.51,10.5-4.88,12.31-5.07,21.73-.26,13.23,10.01,28.62,23.17,33.31,13.71,4.88,20.47-5.43,34.76,0,9.49,3.61,17.94,12.5,20.28,22.45,4.28,18.14-12.44,36.65-10.86,37.67,1.53,.98,10.54-20.75,26.79-23.18,10.59-1.58,16.75,6.14,28.25,2.9,6.48-1.83,10.94-6.1,13.58-9.2Zm-326.11-102.02c2.82-9.08,4.6-14.26,1.87-18.7-3.11-5.07-8.5-3.36-15.59-8.11-9.28-6.22-12.17-17.28-14.34-25.56-4.6-17.61,1.92-20.67-2.49-29.31-7.25-14.2-25.29-6.67-46.14-23.07-16.47-12.95-12.79-23.6-26.19-28.07-15.18-5.06-26.52,6.41-39.29-1.25-4.36-2.61-6.65-6.73-11.23-14.96-13.21-23.77-6.85-35.12-19.33-48.02-4.86-5.03-8.9-6.48-9.36-11.23-.76-7.85,9.64-10.53,11.23-19.33,2.09-11.65-14.55-15.79-16.84-30.55-2.63-16.95,17.45-23.66,15.59-41.16-1.33-12.48-11.81-11.56-23.08-30.55-12.98-21.89-5.62-34.18-19.33-47.39-8.04-7.75-20.94-13.51-26.82-9.36-5.03,3.56-2.59,12.75-.62,33.67,1.88,19.96,4.6,48.86-.62,50.51-4.81,1.53-19.3-19.23-26.19-44.27-10.64-38.66,6.86-51.02-5.61-81.69-11.14-27.39-36.24-44.92-38.04-46.15-12.87-8.78-18.85-8.14-32.43-19.96-8.37-7.28-13.61-14.07-22.45-14.34-7.06-.22-9.05,3.94-16.22,6.24-21.07,6.76-42.4-16.89-47.39-11.85-2.51,2.54,2.8,8.65,9.36,27.44,6.67,19.11,4.33,21.81,9.98,29.94,8.94,12.85,16.75,8.85,21.21,19.33,5.07,11.95-3,22.11,4.98,33.67,2.44,3.54,4.37,4.3,4.37,6.86-.03,9.22-25.05,14.94-24.32,18.09,.71,3.06,23.76-5.04,34.92,5.61,5.79,5.51,7.75,15.46,5.61,23.07-3.48,12.37-17.23,16.57-15.59,21.83,1.38,4.43,11.31,1.97,14.97,8.11,4.04,6.77-4.75,15.28-1.25,19.95,4.01,5.36,16.83-4.11,29.93,1.25,7.44,3.04,12.89,10.01,15.36,15.7,1.58,3.63,1.95,6.75,.85,8-2.77,3.16-15.48-5.05-16.22-3.74-.98,1.74,20.92,18.08,24.95,14.34,2.43-2.26-3.3-10.3-7.2-19.23-2.91-6.66-4.8-13.81-1.53-19.43,3.21-5.51,9.56-6.37,11.23-13.72,1.4-6.19-2.19-9.74,0-12.47,3.03-3.78,14.76-3.13,19.95,3.12,6.77,8.14-4.04,18.04,.62,36.79,2.85,11.44,7.86,11.75,8.73,22.45,1.05,13-5.94,17.81-2.49,23.7,5.08,8.67,22.29,1.74,28.68,11.23,4.34,6.42-2.09,11.79,1.87,21.2,4.72,11.23,16.35,9.55,20.58,18.71,6.01,13.01-13.6,24.79-9.98,38.04,5.16,18.85,48.71,9.04,62.36,32.42,12.05,20.65-12.7,44.08,1.87,64.23,9.96,13.78,29.76,14.19,29.93,24.94,.11,6.89-7.97,9.18-8.73,20.58-.41,6.19,1.76,8.67,0,14.34-1.85,5.95-5.68,7.84-8.11,11.23-6.34,8.87,1.33,21.83,6.86,39.91,2.67,8.74,8.87,31.82,6.24,56.12-2.34,21.66-10.59,34-8.73,34.92,2.54,1.26,22.06-19.92,28.07-49.26,4.73-23.13-3.51-28.98-.62-59.86,1.52-16.34,4.34-46.63,19.33-51.14,10.79-3.25,27.1,7.09,34.93,18.7,5.96,8.85,5.36,16.01,13.09,20.58,5.88,3.48,9.25,1.13,19.33,2.49,19.99,2.7,24.41,14.33,32.42,11.23,4.37-1.7,3.32-5.25,13.1-36.8ZM622.2-275.14c1.14-22.12,5.75-31.94,0-36.46-5.06-3.98-10.32,2.31-21.06,0-15.99-3.43-16.39-19.93-29.98-22.68-13.74-2.79-19.62,12.8-34.83,10.53-11.02-1.64-21.86-11.89-23.49-22.68-2.57-17,18.12-32.46,33.21-43.75,22.22-16.62,41.55-21.91,40.51-25.92-1.15-4.43-24.09,4.11-47.8-6.49-16.46-7.35-33.03-23.8-29.97-34.83,4.33-15.68,46.35-13.55,47.79-26.73,.8-7.31-11.71-11.29-10.53-17.83,2.16-11.96,46.04-9.31,47.8-19.44,1.19-6.85-18.65-9.06-33.22-27.54-17.07-21.66-9.22-43.26-21.06-47.8-11.8-4.53-29.39,13.14-42.13,25.92-24.24,24.35-21.88,36.05-39.69,45.37-19.65,10.27-27.93-1.13-43.75,9.72-20.04,13.76-13.48,36.7-33.21,46.18-14.1,6.77-29.03,.64-31.6,7.29-2.06,5.34,7.28,10.06,7.29,21.06,.01,8.44-5.48,11.86-8.1,18.63-6.12,15.83,8.37,37.12,17.82,46.99,27.16,28.37,55.93,7.64,78.59,31.6,21.84,23.1,7.16,55.11,32.4,70.48,11.13,6.77,16.92,2.33,28.35,11.34,17.94,14.13,14.1,33.23,25.93,36.45,13.74,3.75,25.66-20.2,41.31-15.39,7.05,2.17,6.33,7.56,15.4,11.34,9.7,4.06,24.36,3.67,31.59-4.05,6.75-7.21,1.05-14.42,2.43-41.31Zm-217.12-288.42c3.86-5.41-4.24-18.56-12.15-25.92-10.24-9.53-27.03-15.71-42.13-11.34-16.44,4.75-15.58,17.59-31.59,20.25-13.33,2.22-22.17-5.28-29.17,.81-5,4.37-3.16,10.54-8.91,13.77-5.2,2.94-9.03-.83-15.39,0-12.12,1.58-12.21,17.04-25.92,26.74-16.69,11.79-40.18,5.62-42.94,4.86-17.46-4.84-26.38-17.08-30.78-13.77-3.2,2.39-1.05,10.78,.81,15.39,5.91,14.7,23.23,26.84,41.31,27.54,15.21,.6,16.37-7.46,52.66-22.68,19.43-8.14,29.13-12.22,42.94-14.58,15.74-2.7,23.75-1.23,38.07-7.29,12.8-5.41,11.76-8.85,21.87-12.16,21.31-6.97,36.82,4.7,41.32-1.62Z"/><path class="m" d="M1141.5,420.15c50.81,47.2,101.61,94.39,152.42,141.58-2.65,3.1-7.1,7.38-13.58,9.2-11.49,3.25-17.66-4.47-28.25-2.9-16.25,2.42-25.26,24.16-26.79,23.18-1.58-1.02,15.14-19.52,10.86-37.67-2.34-9.95-10.79-18.84-20.28-22.45-14.29-5.43-21.05,4.88-34.76,0-13.16-4.7-23.43-20.09-23.17-33.31,.19-9.42,5.58-11.23,5.07-21.73-.41-8.4-4.14-12.75-9.41-23.17-3.51-6.9-8.5-19.43-12.11-32.75Z"/><path class="m" d="M1123.07,1083.26c5.71,8.65,1.94,21.03-1.99,29.86-20.15,1.8-40.31,3.59-60.47,5.39-3.16-25.28-8.52-45.81-13.15-60.52-7.66-24.33-14.32-45.51-31.57-68.4-10.47-13.9-20.8-27.61-39.47-38.15-19.56-11.05-32.94-9.94-43.41-25-5.8-8.34-5.65-14.37-14.47-22.37-3.6-3.25-13-11.78-23.69-10.52-13.46,1.58-17.99,17.41-23.68,15.79-8.24-2.34,3.08-34.96-13.15-51.31-5.1-5.13-15.68-7.37-36.83-11.84-26.34-5.56-31.14-3.03-38.15-9.2-12.76-11.24-4.17-26.03-15.79-34.21-12.1-8.52-24.86,5.1-47.36-3.94-8.94-3.6-9.08-6.61-18.42-9.21-13.48-3.75-18.95,.94-31.58,0-21.3-1.58-21.6-16.09-39.46-17.1-20.85-1.18-29.06,18.12-44.73,13.15-10.7-3.4-15.88-15.24-18.42-21.05-4.71-10.77-4.08-23.11-2.63-47.36,1.22-20.37,2.75-23.8,0-31.57-2.91-8.22-8.12-13.48-18.42-23.69-17.61-17.44-30.63-23.86-28.95-28.94,1.56-4.7,13.42-1.51,15.79-6.58,2.52-5.37-7.74-15.5-38.15-42.1-27.61-24.14-30.22-25.47-34.21-32.89-10.17-18.91-3.38-29.23-14.47-39.46-11.97-11.05-23.92-2.77-35.52-14.47-9.96-10.04-3.74-18.75-14.47-31.58-10.04-12-18.13-7.54-27.63-18.42-13.79-15.8-13.76-44.7-2.63-52.62,5.68-4.05,10.07,.37,18.42-3.95,9.84-5.1,16-17.57,15.79-28.94-.39-20.76-21.9-31.99-23.69-32.89-15.28-7.68-22.32,.34-44.73-3.95-7.51-1.43-35.29-6.75-46.05-26.31-6.71-12.19-.24-18.02,0-55.26,.18-28.25-3.43-41.63,1.31-43.41,5.63-2.11,13.18,15.79,35.52,32.89,11.68,8.94,22.8,14.14,30.26,17.1,1.99-22.67-3.44-36.96-9.21-46.05-11.08-17.46-27.83-22.61-27.62-36.84,.11-8.21,5.81-14.52,10.52-19.73,14.41-15.96,31.91-16.23,31.57-21.05-.34-4.83-17.82-2.23-42.1-13.15-13.53-6.08-20.2-12.34-26.32-9.2-5.25,2.68-4.18,9.27-7.89,18.42-5.98,14.75-21.94,30.15-38.15,30.26-21.2,.14-35.26-25.92-36.83-28.95-11.17-21.36-1.23-33.23-10.52-55.25-6.53-15.46-14.35-16.54-36.84-38.15-22.98-22.09-44.98-43.24-55.25-73.67-7.53-22.31-7.73-46.55-7.89-67.09-.22-25.64,2.96-34.24-3.95-47.36-9.7-18.43-24.4-17.53-30.26-35.52-4.93-15.14,4.22-19.69,0-36.83-3.38-13.75-10.39-15.48-27.63-38.15-16.6-21.84-24.9-32.75-26.31-47.36-1.15-11.89,4.06-23.71,14.47-47.36,11.84-26.88,17.56-29.66,22.36-48.68,1.72-6.81,2.49-16.91,3.95-36.84,1.15-15.6,1.41-23.76,2.63-55.25,1.61-41.61,1.99-49.21-2.63-60.52-5.13-12.56-12.98-21.21-18.42-26.31v-35.52h234c-1.39,2.03-3.71,5.47-6.52,9.78-11.69,17.94-13.81,23.45-21.16,27.13-5.38,2.7-10.87,3.43-10.87,3.43-7.31,.98-10.3-1.18-13.16,1.15-2.92,2.38-.8,5.46-4.01,11.44-.47,.87-3.29,6-8.58,8.58-5.05,2.47-10.15,1.53-12.59,1.15-4.05-.65-27.16-4.33-46.07,4.1-4.91,2.19-12.27,5.6-16.15,13.13-2.62,5.08-1.02,6.93-3.03,10.09-7.06,11.1-33.51-1.2-40.39,8.08-4.97,6.71,1.2,23.5,12.12,32.31,13.9,11.22,29.53,4.71,36.35,16.16,2.87,4.82,3.65,11.93,1.01,17.16-4.67,9.28-17.31,7.18-20.19,15.15-2.52,6.96,6.21,11.11,5.05,19.18-1.86,12.93-25.56,11.58-30.29,25.24-5.08,14.66,18.07,28.21,12.12,43.41-3.79,9.69-15.08,9.04-17.17,19.19-1.81,8.82,5.08,17.28,9.09,22.21,12.42,15.24,22.29,10.9,29.28,22.22,4.37,7.06,1.21,9.87,3.03,40.39,.88,14.81,1.32,22.22,3.03,27.26,6.78,20.04,20.07,21.03,21.21,35.34,.44,5.58-3.41,13.48-11.11,29.28-9.84,20.21-12.5,20.09-12.12,25.24,1.19,15.76,25.89,15.61,36.35,38.37,6.98,15.18-.41,23.11,8.07,32.31,8.66,9.39,18.03,2.96,36.35,11.1,4.33,1.92,7.14,3.76,35.34,30.29C261.55-5.33,264.16-2.38,270.81,.19c9.93,3.84,23.88,4.89,43.41-3.03-16.46-4.87-23.15-12.43-26.25-18.17-9.27-17.17,5.73-32.37-4.04-50.49-7.33-13.6-18.95-10.89-23.23-24.23-4.37-13.65,6.63-20.1,2.02-33.32-4.62-13.26-17.36-11.55-22.22-25.24-4.27-12.05,4.46-16.55,2.02-30.3-3.64-20.53-25.01-21.08-26.25-37.36-1.18-15.43,17.77-18.64,22.22-44.43,1.02-5.94,1.04-11.68,5.05-19.19,4.7-8.8,9.02-9.03,11.1-16.15,2.4-8.17-2.58-10.26-2.01-22.22,.59-12.42,6.25-16.09,3.25-21.14-2.84-4.79-8.42-2.33-17.89-9.21-3.12-2.27-6.82-4.97-9.22-9.76-4.01-8.04-.53-14.39-3.79-16.26-2.99-1.72-6.38,3.35-15.72,5.42-2.63,.59-12.26,2.72-15.72-1.63-4.22-5.3,3.25-17.05,3.8-17.89,4.52-6.97,8.32-7.08,18.43-15.72,9.7-8.31,14.55-12.46,15.72-18.43,2.04-10.42-7.83-15.36-4.88-24.4,2.27-6.98,8.62-5.48,13.55-13.55,6.47-10.56-1.44-17.94,4.34-28.19,6.34-11.25,22.3-13.79,24.4-14.09,12.22-1.78,16.52,4.05,25.48,0,6.57-2.96,5.74-6.76,14.09-11.38,3.69-2.04,13.61-7.53,20.06-3.25,5.33,3.53,6.52,12.53,4.34,18.97-3.19,9.41-12.04,8.77-14.09,16.81-2.35,9.23,8.29,14.22,5.96,23.31-2.44,9.54-16.15,11.89-15.18,17.35,.57,3.22,5.41,2.75,9.21,7.59,4.43,5.63,3.4,13.31,2.71,18.43-2.17,16.17-10.92,19.17-8.67,26.02,2.91,8.86,18.42,6.43,22.77,17.35,2.47,6.19-1.96,8.39,0,14.64,3.3,10.48,17.27,9.04,35.87,22.91,7.96,5.94,14.57,10.88,15.94,18.93,1.61,9.54-5.99,12.52-6.98,23.91-1.22,14.11,9.84,16.55,13.95,34.87,4.44,19.84-3.8,38.03-1,38.86,1.82,.54,4.35-7.43,6.98-6.98,4.28,.75,4.99,23.38,3.98,40.85-.9,15.66-2.66,18.11,0,21.92,7.75,11.07,29.56,.32,38.86,11.95,6.65,8.33,.34,19.92,7.96,24.91,5.39,3.52,10.19-1.18,15.51,2.62,5.94,4.24,2.49,11.92,7.88,21.5,5.03,8.93,10.32,6.36,16.48,14.33,10.2,13.2,6.48,34.23,4.3,46.57-2.5,14.16-5.73,16.05-3.58,22.22,3.54,10.19,13.6,8.63,25.79,22.21,9.86,10.98,7.21,16.35,15.76,21.49,11.05,6.64,23.07,2.24,24.36,6.45,1.01,3.3-6.62,5.08-11.46,15.05-3.49,7.2-1.33,10.01-5.74,17.91-3.49,6.27-5.74,6.09-6.44,10.04-1.18,6.59,4.84,8.72,7.16,17.91,2.78,10.95-3.79,15.77,0,22.22,3.9,6.63,11.78,3.11,17.2,8.6,10.37,10.49-9.49,32.45-.72,51.59,2.6,5.66,5.26,5.77,35.11,23.64,21.84,13.08,32.75,19.62,40.12,25.79,19.71,16.53,16.62,22.41,30.8,30.09,20.34,11.02,36.62,4.31,40.84,13.61,3.69,8.12-8.32,14.09-9.31,31.53-.72,12.66,4.44,29.74,16.48,37.26,11.79,7.36,22.57,.78,30.8,10.03,5.96,6.69,3.76,13.97,8.6,15.76,8.22,3.05,19.05-16.22,24.36-13.61,4.15,2.04,4.39,17.21-3.58,25.08-7.9,7.8-18.2,2.85-22.21,9.32-3.69,5.95,3.82,12.11,8.6,30.8,4.76,18.63,.57,25.34,6.45,30.09,10.34,8.37,33.63-4.11,34.39-2.15,.72,1.86-22.19,7.8-24.36,20.78-1.22,7.28,4.31,15.62,9.31,20.06,6.85,6.07,12.46,4.57,14.33,9.31,2.45,6.21-6.47,10.52-6.44,20.78,.01,9.46,7.6,10.54,8.6,20.06,1.23,11.74-9.85,14.12-11.46,27.94-1.61,13.82,8.91,16.12,7.88,31.53-.26,3.86-3.76,11.94-10.75,27.94-7.66,17.54-7.41,15.96-8.6,19.34-6.7,19.18,.16,27.89-2.37,45.34-2.28,15.76-11.31,32.5-23.79,42-25.54,19.43-57.44,2.41-62.99,13.99-5.15,10.75,16.47,37.53,44.79,49,21.78,8.82,30.63,1.75,67.19,4.19,22.56,1.51,44.44,7.54,88.19,19.6,56.53,15.58,51.44,19.35,76.99,22.4,23.68,2.82,42.68,1.33,46.88,11.25,4.47,10.57-13.35,21.18-8.85,36.27,3.6,12.07,16.86,11.55,21.23,25.65,3.68,11.91-4.47,16.46-.88,24.77,6.39,14.83,34.36,4.96,56.61,23.89,9.32,7.93,19.69,22.64,15.92,33.61-4.43,12.95-25.92,13.13-26.54,23-.43,6.97,10.21,7.96,15.04,19.46,6.24,14.87-6.65,24.8-.88,35.39,7.05,12.93,30.32,5.55,38.92,18.58Z"/><path class="l" d="M969.69,441.01c2.72,4.44,.95,9.62-1.87,18.7-9.78,31.55-8.73,35.1-13.1,36.8-8.01,3.1-12.44-8.52-32.42-11.23-10.08-1.36-13.46,.98-19.33-2.49-7.73-4.57-7.13-11.73-13.09-20.58-7.83-11.61-24.14-21.95-34.93-18.7-14.98,4.51-17.81,34.79-19.33,51.14-2.88,30.88,5.36,36.73,.62,59.86-6.01,29.35-25.52,50.53-28.07,49.26-1.86-.92,6.39-13.26,8.73-34.92,2.63-24.3-3.56-47.39-6.24-56.12-5.53-18.08-13.2-31.04-6.86-39.91,2.43-3.39,6.26-5.28,8.11-11.23,1.76-5.67-.41-8.14,0-14.34,.76-11.41,8.84-13.69,8.73-20.58-.17-10.75-19.97-11.16-29.93-24.94-14.57-20.15,10.18-43.58-1.87-64.23-13.65-23.38-57.2-13.58-62.36-32.42-3.62-13.25,15.99-25.03,9.98-38.04-4.23-9.16-15.86-7.48-20.58-18.71-3.96-9.41,2.47-14.78-1.87-21.2-6.39-9.48-23.61-2.55-28.68-11.23-3.44-5.89,3.55-10.7,2.49-23.7-.87-10.7-5.89-11-8.73-22.45-4.66-18.75,6.14-28.65-.62-36.79-5.19-6.25-16.93-6.9-19.95-3.12-2.19,2.73,1.4,6.27,0,12.47-1.66,7.35-8.01,8.21-11.23,13.72-3.28,5.61-1.38,12.77,1.53,19.43l-2.38,.64c-2.47-5.69-7.92-12.66-15.36-15.7-13.1-5.36-25.92,4.11-29.93-1.25-3.51-4.67,5.29-13.18,1.25-19.95-3.66-6.14-13.58-3.68-14.97-8.11-1.63-5.26,12.12-9.46,15.59-21.83,2.14-7.61,.17-17.56-5.61-23.07-11.16-10.65-34.21-2.55-34.92-5.61-.73-3.15,24.29-8.87,24.32-18.09,0-2.56-1.92-3.32-4.37-6.86-7.98-11.56,.09-21.72-4.98-33.67-4.45-10.47-12.27-6.48-21.21-19.33-5.65-8.12-3.3-10.82-9.98-29.94-6.55-18.78-11.86-24.9-9.36-27.44,4.99-5.04,26.32,18.61,47.39,11.85,7.16-2.3,9.15-6.46,16.22-6.24,8.84,.27,14.07,7.05,22.45,14.34,13.58,11.82,19.56,11.18,32.43,19.96,1.8,1.23,26.9,18.75,38.04,46.15,12.47,30.67-5.03,43.03,5.61,81.69,6.89,25.05,21.38,45.8,26.19,44.27,5.22-1.66,2.5-30.55,.62-50.51-1.96-20.92-4.41-30.11,.62-33.67,5.88-4.16,18.78,1.61,26.82,9.36,13.71,13.21,6.34,25.5,19.33,47.39,11.26,19,21.75,18.07,23.08,30.55,1.86,17.5-18.22,24.2-15.59,41.16,2.29,14.76,18.93,18.9,16.84,30.55-1.58,8.8-11.99,11.48-11.23,19.33,.46,4.75,4.49,6.2,9.36,11.23,12.48,12.9,6.12,24.24,19.33,48.02,4.58,8.23,6.87,12.35,11.23,14.96,12.76,7.66,24.1-3.81,39.29,1.25,13.41,4.47,9.72,15.11,26.19,28.07,20.85,16.4,38.88,8.87,46.14,23.07,4.42,8.64-2.1,11.71,2.49,29.31,2.17,8.29,5.06,19.35,14.34,25.56,7.09,4.75,12.48,3.04,15.59,8.11Z"/><path class="l" d="M648.82,175.46c3.91,8.93,9.63,16.98,7.2,19.23-4.03,3.74-25.93-12.6-24.95-14.34,.74-1.3,13.44,6.9,16.22,3.74,1.1-1.25,.72-4.37-.85-8l2.38-.64Z"/></g></g></g><g><path class="h" d="M332.39,41.16c54.87-19.57,74.29-14.72,81.49-5.88,7.52,9.24,5.82,22.57,2.77,41.61-9.13,57.13-37.7,77.98-27.65,98.15,8.66,17.37,32.8,7.87,44.29,26.68,15.44,25.28-19.4,55.46-5.55,83.22,5.34,10.7,23.51,17.2,58.26,30.52,21.79,8.35,38.16,14.62,58.26,19.42,62.13,14.82,78.85-3.83,124.84,5.55,37.48,7.64,95.91,34.22,108.19,83.22,11.26,44.92-18.01,101.63-44.39,102.64-22.09,.85-49.87-37.09-41.61-58.26,14.26-36.53,144.47-45.15,172,8.32,13.06,25.38-.96,57.06-2.77,61.03-12.53,27.34-34.93,36.15-80.45,63.81-63.91,38.84-75.63,39.98-86,58.26-14.85,26.16-16.63,65.13,2.77,88.77,15.26,18.59,38.43,21.39,72.13,24.97,55.35,5.87,68.16-9.23,124.84-5.55,32.6,2.12,60.43,3.92,86,22.19,16.44,11.75,25.28,27.41,49.93,97.09,30.9,87.33,35.09,115.89,47.16,116.51,22.16,1.14,18.97-94.51,83.22-130.38,33.95-18.96,86.44-21.07,108.19,5.55,16.97,20.76,9.31,51.72,8.32,55.48-9.02,34.44-39.2,46.93-80.45,80.45-20.5,16.66-48.59,42.46-77.68,80.45"/><g><ellipse class="n" cx="333.1" cy="41.77" rx="16.16" ry="13.03" transform="translate(231.3 361.68) rotate(-79.5)"/><ellipse class="n" cx="384.8" cy="173.64" rx="16.16" ry="13.03" transform="translate(143.93 520.35) rotate(-79.5)"/><ellipse class="n" cx="430.69" cy="289.9" rx="16.16" ry="13.03" transform="translate(67.15 660.53) rotate(-79.5)"/><ellipse class="n" cx="616.55" cy="334.66" rx="16.16" ry="13.03" transform="translate(175.11 879.88) rotate(-79.5)"/><ellipse class="n" cx="1247.14" cy="973.07" rx="16.16" ry="13.03" transform="translate(63.05 2021.94) rotate(-79.5)"/><ellipse class="n" cx="1051.47" cy="953.64" rx="16.16" ry="13.03" transform="translate(-77.86 1813.67) rotate(-79.5)"/><path class="n" d="M696.87,698.31c-1.63,8.77-8.68,14.82-15.76,13.51-7.08-1.31-11.49-9.49-9.87-18.26,1.63-8.77,8.68-14.82,15.76-13.51,7.08,1.31,11.49,9.49,9.87,18.26Z"/><ellipse class="n" cx="1013.02" cy="833.94" rx="16.16" ry="13.03" transform="translate(8.39 1677.98) rotate(-79.5)"/></g></g></g><g><g><polygon class="j" points="267.22 404.56 140.47 404.56 130.55 404.56 128.64 404.56 123.43 397.38 132.17 397.38 141.13 397.38 266.2 397.38 274.85 397.38 271.26 404.56 267.22 404.56"/><polygon class="x" points="193.24 541.41 212.15 541.59 221.8 541.69 240.84 541.87 270.93 542.16 270.93 548.19 135.17 547.4 135.43 540.85 137.6 540.87 160.8 541.1 184.13 541.32 193.24 541.41"/><polygon class="s" points="270.93 548.19 267.95 551.2 138.18 550.39 135.68 550.37 135.17 547.4 270.93 548.19"/><polygon class="s" points="266.98 539.3 267.11 539.3 270.93 542.16 240.84 541.87 240.84 536.54 240.84 535.6 241.41 535.6 266.02 535.6 266.98 535.6 266.98 539.3"/><polygon class="w" points="246.83 426.66 160.74 426.19 142.13 426.09 139.45 419.9 140.47 419.91 267.22 420.9 268.5 420.91 265.82 426.76 246.83 426.66"/><polygon class="x" points="267.95 551.2 268.2 561.61 138.16 560.97 138.18 550.58 138.18 550.39 267.95 551.2"/><polygon class="s" points="159.94 565 138.84 564.87 138.16 560.97 268.2 561.61 265.96 565.68 245.21 565.55 240.37 565.52 164.28 565.03 159.94 565"/><polygon class="o" points="164.56 366.34 158.08 366.34 142.14 366.34 139.17 363.29 142.34 363.29 159.22 363.29 246.3 363.29 249.03 363.29 265.36 363.29 267.68 363.29 264.71 366.34 248.14 366.34 243.1 366.34 221.44 366.34 214.79 366.34 193.13 366.34 186.22 366.34 164.56 366.34"/><polygon class="j" points="265.96 565.68 267.59 1039.15 241.25 1039.31 241.25 1039.21 245.21 565.69 245.21 565.55 265.96 565.68"/><path class="s" d="M243.34,519.54h24.23l-1.55,2.83h-24.62l-1.8-2.63-.14-.2h3.88Z"/><polygon class="x" points="267.22 404.56 267.22 420.9 140.47 419.91 140.47 404.69 140.47 404.56 267.22 404.56"/><polygon class="x" points="158.08 386.63 248.14 386.63 264.71 386.63 266.2 386.63 266.2 397.38 141.13 397.38 141.13 397.16 141.13 386.63 142.14 386.63 158.08 386.63"/><polygon class="x" points="266.02 535.52 266.02 535.6 241.41 535.6 241.41 535.44 241.41 522.37 266.02 522.37 266.02 535.52"/><polygon class="j" points="265.82 519.37 265.82 519.54 246.83 519.54 246.83 519.52 246.83 459.77 246.83 450.78 246.83 447.47 246.83 441.87 246.83 426.66 265.82 426.76 265.82 519.37"/><polygon class="s" points="249.71 358.41 264.34 358.41 265.36 358.41 265.36 363.2 265.36 363.29 249.03 363.29 249.03 363.2 249.03 358.41 249.71 358.41"/><polygon class="a`" points="264.71 366.34 264.71 386.63 248.14 386.63 248.14 366.49 248.14 366.34 264.71 366.34"/><polygon class="r" points="264.34 358.24 264.34 358.41 249.71 358.41 249.71 353.26 250.41 353.26 263.57 353.26 264.34 353.26 264.34 358.24"/><polygon class="o" points="263.57 353.02 263.57 353.26 250.41 353.26 250.41 353.2 253.13 318.8 253.27 317.09 261.49 317.09 263.57 353.02"/><polygon class="y" points="253.13 318.8 250.41 353.2 250.41 353.26 249.71 353.26 249.71 358.41 249.03 358.41 249.03 363.2 249.03 363.29 246.3 363.29 246.3 363.28 246.3 333.98 248.89 329.25 247.39 329.25 247.39 323.36 244.43 323.36 244.43 318.79 244.61 318.79 253.05 318.79 253.13 318.8"/><polygon class="s" points="247.39 329.25 248.89 329.25 246.3 333.98 155.84 333.98 155.55 329.25 247.39 329.25"/><polygon class="s" points="248.14 366.49 248.14 386.63 158.08 386.63 158.08 366.39 158.08 366.34 164.56 366.34 164.56 380.55 186.22 380.55 186.22 366.39 186.22 366.34 193.13 366.34 193.13 380.55 214.79 380.55 214.79 366.39 214.79 366.34 221.44 366.34 221.44 380.55 243.1 380.55 243.1 366.39 243.1 366.34 248.14 366.34 248.14 366.49"/><polygon class="r" points="244.43 323.36 247.39 323.36 247.39 329.25 155.55 329.25 155.19 323.37 155.39 323.36 244.43 323.36"/><polygon class="x" points="246.83 519.52 246.83 519.54 243.34 519.54 243.34 459.77 246.53 459.77 246.83 459.77 246.83 519.52"/><polygon class="r" points="246.83 450.78 246.83 459.77 246.53 459.77 243.34 459.77 242.63 456.34 242.63 450.78 246.53 450.78 246.83 450.78"/><polygon class="s" points="246.83 447.47 246.83 450.78 246.53 450.78 242.63 450.78 241.57 447.47 243.41 447.47 246.42 447.47 246.83 447.47"/><path class="x" d="M246.83,441.87v5.6h-3.42c.17-7.21-5.95-12.79-12.36-12.26-5.77,.47-10.63,5.8-10.42,12.26h-6.47v-.1c.55-6.83-5.01-12.52-11.3-12.36-6.02,.16-11.15,5.64-10.72,12.17v.15h-6.76v-.25c.49-6.54-4.63-12.03-10.62-12.16-6.23-.14-11.72,5.55-11.1,12.36v.07h-2.92v-7.06c2.43-5.74,8.15-9.47,14.41-9.33,6.45,.14,12.17,4.37,14.19,10.52,1.73-6.25,7.36-10.62,13.71-10.72,6.69-.1,12.69,4.56,14.29,11.2,2.3-6.35,8.39-10.56,15.07-10.42,6.41,.13,12.14,4.24,14.38,10.33h.04Z"/><path class="r" d="M246.83,426.66v15.21h-.04c-2.24-6.09-7.97-10.2-14.38-10.33-6.68-.14-12.77,4.07-15.07,10.42-1.6-6.64-7.6-11.3-14.29-11.2-6.35,.1-11.98,4.47-13.71,10.72-2.02-6.15-7.74-10.38-14.19-10.52-6.26-.14-11.98,3.59-14.41,9.33v-14.1l86.09,.47Z"/><polygon class="j" points="246.3 363.28 246.3 363.29 159.22 363.29 159.22 363.23 159.22 358.05 157.54 358.05 157.54 352.14 156.94 352.14 156.94 351.86 155.84 333.98 246.3 333.98 246.3 363.28"/><polygon class="v" points="245.21 565.55 245.21 565.69 241.25 1039.21 241.25 1039.31 237.15 1039.33 240.37 565.68 240.37 565.52 245.21 565.55"/><polygon class="s" points="241.8 317.44 244.43 317.44 244.43 318.79 244.43 323.36 155.39 323.36 155.19 323.37 154.83 317.45 154.92 317.44 157.55 317.44 241.8 317.44"/><path class="k" d="M231.05,435.21c6.41-.53,12.53,5.05,12.36,12.26h-1.84l1.06,3.31v5.56l.71,3.43v59.77h-3.88l.14,.2-.14,.09h-17.72v-.68h-1.28v-3.54l.08-57.32,1.49-4.15h-1.4v-2.72l2.09-3.94h-2.09c-.21-6.47,4.65-11.8,10.42-12.27Z"/><polygon class="k" points="243.1 366.39 243.1 380.55 221.44 380.55 221.44 366.34 243.1 366.34 243.1 366.39"/><polygon class="q" points="241.8 312.07 241.8 317.44 157.55 317.44 157.55 317.2 157.55 312.07 160.03 312.07 171.15 312.07 239.42 312.07 241.8 312.07"/><path class="x" d="M241.41,535.44v.16h-.57v.94h-2.22v-14.26c1.57,.03,2.64,.05,2.78,.08h.01v13.08Z"/><path class="w" d="M238.62,522.28c-.7,0-1.5,0-2.37-.02-.59,0-1.21,0-1.85-.01-.77,0-1.57-.01-2.38-.01-.48,0-.96,0-1.43-.01h-4.23c-.89-.01-1.7-.01-2.38-.01h-2.24v-2.39h17.72l.14-.09,1.8,2.62c-.14-.03-1.21-.05-2.78-.08Z"/><polygon class="w" points="234.4 536.54 238.62 536.54 240.84 536.54 240.84 541.87 221.8 541.69 221.8 541.63 221.8 536.54 223.98 536.54 226.36 536.54 232.02 536.54 234.4 536.54"/><polygon class="j" points="240.37 565.52 240.37 565.68 237.15 1039.33 161.22 1039.78 161.22 1039.63 164.28 565.08 164.28 565.03 240.37 565.52"/><path class="j" d="M239.42,311.81v.26h-68.27v-.07l22.69-136.55h14.23l31.35,136.36Zm-11.88-5.28l-23.62-127.33h-4.21l-21.68,127.33h49.51Z"/><path class="k" d="M236.25,522.26c.87,.01,1.67,.02,2.37,.02v14.26h-4.22v-14.29c.64,.01,1.26,.01,1.85,.01Z"/><path class="x" d="M234.4,522.25v14.29h-2.38v-14.3c.81,0,1.61,.01,2.38,.01Z"/><path class="k" d="M230.59,522.23c.47,.01,.95,.01,1.43,.01v14.3h-5.66v-14.31h4.23Z"/><polygon class="k" points="203.92 179.2 227.54 306.53 178.03 306.53 199.71 179.2 203.92 179.2"/><path class="x" d="M226.36,522.23v14.31h-2.38v-14.32c.68,0,1.49,0,2.38,.01Z"/><path class="k" d="M223.98,536.44v.1h-2.18v-.94h-.93v-12.83h.87v-.55h2.24v14.22Z"/><polygon class="s" points="222.72 447.48 220.63 451.42 212.94 451.42 210.98 447.48 214.16 447.48 220.63 447.48 222.72 447.48"/><polygon class="s" points="222.03 454.14 220.54 458.29 213.16 458.29 211.67 454.14 212.94 454.14 220.63 454.14 222.03 454.14"/><polygon class="s" points="221.8 541.63 221.8 541.69 212.15 541.59 212.15 541.37 212.15 536.54 212.15 535.6 212.9 535.6 220.87 535.6 221.8 535.6 221.8 536.54 221.8 541.63"/><polygon class="s" points="212.9 522.76 212.19 522.76 212.19 522.22 212.19 519.83 212.19 519.15 213.23 519.15 220.46 519.15 221.74 519.15 221.74 519.83 221.74 522.22 221.74 522.76 220.87 522.76 212.9 522.76"/><polygon class="x" points="220.87 522.77 220.87 535.6 212.9 535.6 212.9 522.76 220.87 522.76 220.87 522.77"/><polygon class="r" points="220.63 454.02 220.63 454.14 212.94 454.14 212.94 451.42 220.63 451.42 220.63 454.02"/><polygon class="x" points="220.54 458.29 220.46 515.61 213.23 515.61 213.16 515.61 213.16 458.29 220.54 458.29"/><polygon class="r" points="220.46 519.01 220.46 519.15 213.23 519.15 213.23 518.91 213.23 515.61 220.46 515.61 220.46 519.01"/><polygon class="k" points="214.79 366.39 214.79 380.55 193.13 380.55 193.13 366.34 214.79 366.34 214.79 366.39"/><path class="k" d="M202.86,435.01c6.29-.16,11.85,5.53,11.3,12.36v.11h-3.18l1.96,3.94v2.72h-1.27l1.49,4.15v57.32h.07v3.54h-1.04v.68h-18.95v-.68h-.76v-3.56h.02v-57.57l1.59-4.03h-1.43v-2.71l2.23-3.95h-2.75v-.15c-.43-6.53,4.7-12.01,10.72-12.17Z"/><polygon class="k" points="212.9 522.76 212.9 535.6 212.15 535.6 212.15 536.54 212.01 536.54 210.23 536.54 210.23 522.22 212.19 522.22 212.19 522.76 212.9 522.76"/><polygon class="w" points="199.81 522.22 197.96 522.22 195.58 522.22 193.35 522.22 193.24 522.22 193.24 519.83 193.29 519.83 212.16 519.83 212.19 519.83 212.19 522.22 210.23 522.22 207.85 522.22 206 522.22 203.62 522.22 202.19 522.22 199.81 522.22"/><polygon class="w" points="197.96 536.54 199.81 536.54 202.19 536.54 203.62 536.54 206 536.54 207.85 536.54 210.23 536.54 212.01 536.54 212.15 536.54 212.15 541.37 212.15 541.59 193.24 541.41 193.24 536.54 195.58 536.54 197.96 536.54"/><rect class="x" x="207.85" y="522.22" width="2.38" height="14.32"/><polygon class="u" points="202.1 115.41 202.82 115.41 202.82 121.88 204.73 125.61 206.3 120.06 209.53 114.67 208.04 120.64 208.04 127.58 193.7 127.58 193.7 127.1 193.7 118.98 192.21 114.59 195.44 118.73 196.52 125.61 198.76 121.96 198.67 115.41 199.78 115.41 202.1 115.41"/><polygon class="q" points="208.42 127.58 206.47 130.37 194.44 130.37 192.48 127.58 193.7 127.58 208.04 127.58 208.42 127.58"/><polygon class="q" points="196.58 166.42 208.07 166.47 208.07 175.45 193.84 175.45 190.99 175.56 190.99 166.39 193.02 166.4 196.58 166.42"/><polygon class="j" points="208.07 160.29 208.07 166.47 196.58 166.42 196.58 160.29 208.07 160.29"/><polygon class="u" points="206.64 155.38 208.07 160.29 196.58 160.29 193.02 160.29 194.49 155.38 206.48 155.38 206.64 155.38"/><polygon class="k" points="207.85 522.22 207.85 536.54 206 536.54 206 522.44 206 522.22 207.85 522.22"/><polygon class="q" points="206.48 150.45 206.48 155.38 194.49 155.38 194.49 150.45 206.47 150.45 206.48 150.45"/><polygon class="j" points="206.47 130.37 206.47 150.45 194.49 150.45 194.44 150.45 194.44 130.37 206.47 130.37"/><polygon class="x" points="206 522.44 206 536.54 203.62 536.54 203.62 522.34 203.62 522.22 206 522.22 206 522.44"/><polygon class="k" points="203.62 522.34 203.62 536.54 202.19 536.54 202.19 522.22 203.62 522.22 203.62 522.34"/><polygon class="x" points="202.19 522.22 202.19 536.54 199.81 536.54 199.81 536.43 199.81 522.22 202.19 522.22"/><polygon class="q" points="202.1 115.41 199.78 115.41 200.94 89.75 202.1 115.41"/><polygon class="k" points="199.81 536.43 199.81 536.54 197.96 536.54 197.96 522.32 197.96 522.22 199.81 522.22 199.81 536.43"/><polygon class="x" points="197.96 522.32 197.96 536.54 195.58 536.54 195.58 522.23 195.58 522.22 197.96 522.22 197.96 522.32"/><polygon class="y" points="196.58 160.29 196.58 166.42 193.02 166.4 193.02 166.29 193.02 160.29 196.58 160.29"/><polygon class="k" points="195.58 522.23 195.58 536.54 193.24 536.54 193.24 535.47 192.49 535.47 192.49 535.44 192.49 522.85 192.49 522.76 193.24 522.76 193.24 522.22 193.35 522.22 195.58 522.22 195.58 522.23"/><polygon class="s" points="194.89 447.33 192.66 451.28 184.47 451.28 182.39 447.33 185.38 447.33 192.14 447.33 194.89 447.33"/><polygon class="s" points="184.47 453.99 192.66 453.99 194.09 453.99 192.5 458.02 184.99 458.02 184.77 458.02 183.19 453.99 184.47 453.99"/><polygon class="y" points="193.84 175.45 171.15 312 171.15 312.07 160.03 312.07 160.03 311.7 190.99 175.56 193.84 175.45"/><polygon class="s" points="184.83 535.47 192.49 535.47 193.24 535.47 193.24 536.54 193.24 541.41 184.13 541.32 184.13 541.1 184.13 536.81 184.13 535.47 184.83 535.47"/><polygon class="s" points="184.83 522.76 184.13 522.76 184.13 522.22 184.13 519.83 184.13 519.15 184.95 519.15 192.48 519.15 193.24 519.15 193.24 519.83 193.24 522.22 193.24 522.76 192.49 522.76 184.83 522.76"/><rect class="r" x="184.47" y="451.28" width="8.19" height="2.71"/><polygon class="x" points="192.5 458.02 192.5 515.59 192.48 515.59 184.99 515.59 184.99 458.17 184.99 458.02 192.5 458.02"/><polygon class="x" points="192.49 535.44 192.49 535.47 184.83 535.47 184.83 522.76 192.49 522.76 192.49 522.85 192.49 535.44"/><polygon class="r" points="184.99 515.59 192.48 515.59 192.48 519.06 192.48 519.15 184.95 519.15 184.95 519.06 184.95 515.59 184.99 515.59"/><polygon class="k" points="186.22 366.39 186.22 380.55 164.56 380.55 164.56 366.34 186.22 366.34 186.22 366.39"/><path class="k" d="M174.76,434.92c5.99,.13,11.11,5.62,10.62,12.16v.25h-2.99l2.08,3.95v2.71h-1.28l1.58,4.03h.22v57.57h-.04v3.56h-.82v.68h-20.24v-60.18l.71-3.43v-5.56l1.06-3.31h-2v-.07c-.62-6.81,4.87-12.5,11.1-12.36Z"/><polygon class="x" points="184.83 522.76 184.83 535.47 184.13 535.47 184.13 536.81 183.86 536.81 181.91 536.81 181.91 536.71 181.91 522.24 181.91 522.22 183.97 522.22 184.13 522.22 184.13 522.76 184.83 522.76"/><polygon class="w" points="176.1 536.81 180.32 536.81 181.91 536.81 183.86 536.81 184.13 536.81 184.13 541.1 184.13 541.32 160.8 541.1 160.8 536.81 161.2 536.81 163.4 536.81 165.68 536.81 168.06 536.81 173.72 536.81 176.1 536.81"/><polygon class="w" points="180.32 522.22 177.94 522.22 176.1 522.22 173.72 522.22 172.29 522.22 169.91 522.22 168.06 522.22 165.68 522.22 163.4 522.22 159.85 522.22 161.65 519.8 161.69 519.83 163.89 519.83 183.95 519.83 184.13 519.83 184.13 522.22 183.97 522.22 181.91 522.22 180.32 522.22"/><polygon class="k" points="181.91 536.71 181.91 536.81 180.32 536.81 180.32 536.72 180.32 522.22 181.91 522.22 181.91 522.24 181.91 536.71"/><polygon class="x" points="177.94 522.22 180.32 522.22 180.32 536.72 180.32 536.81 176.1 536.81 176.1 522.42 176.1 522.22 177.94 522.22"/><polygon class="k" points="176.1 522.42 176.1 536.81 173.72 536.81 173.72 536.79 173.72 522.32 173.72 522.22 176.1 522.22 176.1 522.42"/><polygon class="x" points="172.29 522.22 173.72 522.22 173.72 522.32 173.72 536.79 173.72 536.81 168.06 536.81 168.06 522.3 168.06 522.22 169.91 522.22 172.29 522.22"/><polygon class="k" points="168.06 522.3 168.06 536.81 165.68 536.81 165.68 536.67 165.68 522.22 168.06 522.22 168.06 522.3"/><polygon class="x" points="165.68 536.67 165.68 536.81 163.4 536.81 163.4 536.67 163.4 522.3 163.4 522.22 165.68 522.22 165.68 536.67"/><polygon class="s" points="165.66 447.35 164.6 450.66 160.74 450.66 160.74 447.35 160.81 447.35 163.66 447.35 165.66 447.35"/><polygon class="r" points="164.6 450.66 164.6 456.22 163.89 459.65 160.74 459.65 160.74 450.66 164.6 450.66"/><polygon class="v" points="164.28 565.03 164.28 565.08 161.22 1039.63 161.22 1039.78 155.97 1039.81 155.97 1039.6 159.94 565 164.28 565.03"/><polygon class="x" points="163.89 519.6 163.89 519.83 161.69 519.83 161.65 519.8 162.12 519.18 160.74 519.18 160.74 519.11 160.74 459.65 163.89 459.65 163.89 519.6"/><polygon class="k" points="163.4 536.67 163.4 536.81 161.2 536.81 160.8 536.81 160.8 535.2 159.85 535.2 159.85 535.1 159.85 522.22 163.4 522.22 163.4 522.3 163.4 536.67"/><polygon class="s" points="162.12 519.18 161.65 519.8 159.85 522.22 137.53 522.22 135.25 519.18 142.13 519.18 160.74 519.18 162.12 519.18"/><polygon class="s" points="160.8 536.81 160.8 541.1 137.6 540.87 137.6 540.56 137.6 535.2 159.85 535.2 160.8 535.2 160.8 536.81"/><polygon class="j" points="160.74 459.65 160.74 519.11 160.74 519.18 142.13 519.18 142.13 518.96 142.13 426.09 160.74 426.19 160.74 426.3 160.74 440.29 160.74 447.35 160.74 450.66 160.74 459.65"/><polygon class="j" points="159.94 565 155.97 1039.6 155.97 1039.81 130.69 1039.96 138.84 564.87 159.94 565"/><polygon class="x" points="159.85 535.1 159.85 535.2 137.6 535.2 137.53 522.22 159.85 522.22 159.85 535.1"/><polygon class="s" points="157.54 358.05 159.22 358.05 159.22 363.23 159.22 363.29 142.34 363.29 142.34 363.13 142.34 358.75 142.34 358.05 143.09 358.05 157.54 358.05"/><polygon class="a`" points="158.08 366.39 158.08 386.63 142.14 386.63 142.14 366.34 158.08 366.34 158.08 366.39"/><polygon class="r" points="157.54 352.14 157.54 358.05 143.09 358.05 143.09 357.83 143.09 352.65 143.09 352.14 143.83 352.14 156.94 352.14 157.54 352.14"/><polygon class="o" points="155.84 333.98 156.94 351.86 156.94 352.14 143.83 352.14 143.83 351.86 146.36 316.73 146.45 315.52 154.71 315.52 154.83 317.45 155.19 323.37 155.55 329.25 155.84 333.98"/><polygon class="y" points="146.36 316.73 143.83 351.86 143.83 352.14 143.09 352.14 143.09 352.65 143.08 352.65 135.94 352.65 135.94 352.5 139.09 316.73 146.36 316.73"/><polygon class="q" points="143.09 357.83 143.09 358.05 142.34 358.05 142.34 358.75 142.27 358.75 134.85 358.75 134.85 358.45 134.85 352.65 135.94 352.65 143.08 352.65 143.09 352.65 143.09 357.83"/><polygon class="y" points="142.34 363.13 142.34 363.29 139.17 363.29 133.89 363.29 133.89 363.23 133.89 358.75 134.85 358.75 142.27 358.75 142.34 358.75 142.34 363.13"/><polygon class="y" points="142.14 366.34 142.14 386.63 141.13 386.63 133.66 386.41 133.66 386.28 133.66 366.34 142.14 366.34"/><polygon class="q" points="139.17 363.29 142.14 366.34 133.66 366.34 131.61 363.29 133.89 363.29 139.17 363.29"/><polygon class="y" points="142.13 518.96 142.13 519.18 135.25 519.18 131.77 519.15 131.77 519.14 131.77 425.98 142.13 426.09 142.13 518.96"/><polygon class="q" points="130.55 419.92 139.45 419.9 142.13 426.09 131.77 425.98 130.26 419.92 130.55 419.92"/><polygon class="q" points="141.13 397.16 141.13 397.38 132.17 397.38 132.17 386.37 133.66 386.41 141.13 386.63 141.13 397.16"/><polygon class="y" points="140.47 404.69 140.47 419.91 139.45 419.9 130.55 419.92 130.55 405 130.55 404.56 140.47 404.56 140.47 404.69"/><polygon class="q" points="129.21 558.26 138.16 560.97 138.84 564.87 129.87 563.24 127.64 557.78 129.21 558.26"/><polygon class="y" points="138.84 564.87 130.69 1039.96 119.28 1034.26 129.87 563.24 138.84 564.87"/><polygon class="y" points="138.18 550.39 138.18 550.58 138.16 560.97 129.21 558.26 129.21 548.7 135.68 550.37 138.18 550.39"/><polygon class="q" points="130.5 537.71 130.5 532.92 131.24 533.16 137.6 535.2 137.6 540.56 137.6 540.87 135.43 540.85 126.26 538.49 126.23 538.28 130.41 537.71 130.5 537.71"/><polygon class="y" points="137.53 522.22 137.6 535.2 131.24 533.16 131.25 533.14 131.25 522.01 137.53 522.22"/><polygon class="q" points="135.25 519.18 137.53 522.22 131.25 522.01 131.17 519.14 131.77 519.15 135.25 519.18"/><polygon class="q" points="135.17 547.4 135.68 550.37 129.21 548.7 126.26 544.52 135.17 547.4"/><polygon class="y" points="135.43 540.85 135.17 547.4 126.26 544.52 126.26 538.49 135.43 540.85"/></g><text class="t" transform="translate(198.3 582.99) rotate(-5.25)"><tspan x="0" y="0">X</tspan></text><text class="t" transform="translate(203.5 582.6) rotate(2.84)"><tspan x="0" y="0">I</tspan></text><text class="t" transform="translate(205.65 582.71) rotate(7.64)"><tspan x="0" y="0">I</tspan></text><text class="t" transform="translate(207.77 582.99) rotate(12.13)"><tspan x="0" y="0"> </tspan></text><text class="t" transform="translate(209.65 583.39) rotate(16.41)"><tspan x="0" y="0"> </tspan></text><text class="t" transform="translate(211.47 583.92) rotate(20.61)"><tspan x="0" y="0"> </tspan></text><text class="t" transform="translate(213.26 584.58) rotate(25.12)"><tspan x="0" y="0">I</tspan></text><text class="t" transform="translate(215.2 585.49) rotate(29.57)"><tspan x="0" y="0"> </tspan></text><text class="t" transform="translate(216.86 586.43) rotate(33.76)"><tspan x="0" y="0"> </tspan></text><text class="t" transform="translate(218.44 587.48) rotate(37.94)"><tspan x="0" y="0"> </tspan></text><text class="t" transform="translate(219.94 588.63) rotate(42.4)"><tspan x="0" y="0">I</tspan></text><text class="t" transform="translate(221.55 590.1) rotate(47.22)"><tspan x="0" y="0">I</tspan></text><text class="t" transform="translate(223 591.67) rotate(51.68)"><tspan x="0" y="0"> </tspan></text><text class="t" transform="translate(224.19 593.16) rotate(55.92)"><tspan x="0" y="0"> </tspan></text><text class="t" transform="translate(225.25 594.73) rotate(60.16)"><tspan x="0" y="0"> </tspan></text><text class="t" transform="translate(226.21 596.37) rotate(64.7)"><tspan x="0" y="0">I</tspan></text><text class="t" transform="translate(227.13 598.32) rotate(69.5)"><tspan x="0" y="0">I</tspan></text><text class="t" transform="translate(227.89 600.33) rotate(74.24)"><tspan x="0" y="0">I</tspan></text><text class="t" transform="translate(228.48 602.36) rotate(79.44)"><tspan x="0" y="0"> </tspan></text><text class="t" transform="translate(228.85 604.28) rotate(82.86)"><tspan x="0" y="0"> </tspan></text><text class="t" transform="translate(229.1 606.16) rotate(87.06)"><tspan x="0" y="0"> </tspan></text><text class="t" transform="translate(229.2 608.07) rotate(91.6)"><tspan x="0" y="0">I</tspan></text><text class="t" transform="translate(229.15 610.2) rotate(96.36)"><tspan x="0" y="0">I</tspan></text><text class="t" transform="translate(228.92 612.34) rotate(101.17)"><tspan x="0" y="0">I</tspan></text><text class="t" transform="translate(228.51 614.44) rotate(105.93)"><tspan x="0" y="0">I</tspan></text><text class="t" transform="translate(227.91 616.52) rotate(110.43)"><tspan x="0" y="0"> </tspan></text><text class="t" transform="translate(227.25 618.3) rotate(114.65)"><tspan x="0" y="0"> </tspan></text><text class="t" transform="translate(226.46 620.03) rotate(118.85)"><tspan x="0" y="0"> </tspan></text><text class="t" transform="translate(225.55 621.71) rotate(123.33)"><tspan x="0" y="0">I</tspan></text><text class="t" transform="translate(224.52 623.49) rotate(131.2)"><tspan x="0" y="0">V</tspan></text><text class="t" transform="translate(221.08 627.27) rotate(138.86)"><tspan x="0" y="0"> </tspan></text><text class="t" transform="translate(219.64 628.54) rotate(143.13)"><tspan x="0" y="0"> </tspan></text><text class="t" transform="translate(218.14 629.67) rotate(147.34)"><tspan x="0" y="0"> </tspan></text><text class="t" transform="translate(216.95 630.6) rotate(154.34)"><tspan x="0" y="0">V</tspan></text><text class="t" transform="translate(212.29 632.72) rotate(162.07)"><tspan x="0" y="0"> </tspan></text><text class="t" transform="translate(210.49 633.31) rotate(166.23)"><tspan x="0" y="0"> </tspan></text><text class="t" transform="translate(208.63 633.77) rotate(170.41)"><tspan x="0" y="0"> </tspan></text><text class="t" transform="translate(207.17 634.15) rotate(177.33)"><tspan x="0" y="0">V</tspan></text><text class="t" transform="translate(202.07 634.3) rotate(-174.66)"><tspan x="0" y="0">I</tspan></text><text class="t" transform="translate(199.93 634.1) rotate(-170.16)"><tspan x="0" y="0"> </tspan></text><text class="t" transform="translate(198.07 633.78) rotate(-165.95)"><tspan x="0" y="0"> </tspan></text><text class="t" transform="translate(196.21 633.32) rotate(-161.69)"><tspan x="0" y="0"> </tspan></text><text class="t" transform="translate(194.75 632.97) rotate(-154.75)"><tspan x="0" y="0">V</tspan></text><text class="t" transform="translate(190.17 630.71) rotate(-146.84)"><tspan x="0" y="0">I</tspan></text><text class="t" transform="translate(188.38 629.55) rotate(-142.14)"><tspan x="0" y="0">I</tspan></text><text class="t" transform="translate(186.66 628.21) rotate(-137.6)"><tspan x="0" y="0"> </tspan></text><text class="t" transform="translate(185.25 626.93) rotate(-133.39)"><tspan x="0" y="0"> </tspan></text><text class="t" transform="translate(183.94 625.56) rotate(-129.18)"><tspan x="0" y="0"> </tspan></text><text class="t" transform="translate(182.9 624.49) rotate(-122.23)"><tspan x="0" y="0">V</tspan></text><text class="t" transform="translate(180.26 620.13) rotate(-114.23)"><tspan x="0" y="0">I</tspan></text><text class="t" transform="translate(179.38 618.18) rotate(-109.46)"><tspan x="0" y="0">I</tspan></text><text class="t" transform="translate(178.65 616.13) rotate(-104.94)"><tspan x="0" y="0"> </tspan></text><text class="t" transform="translate(178.16 614.32) rotate(-100.57)"><tspan x="0" y="0"> </tspan></text><text class="t" transform="translate(177.79 612.41) rotate(-96.6)"><tspan x="0" y="0"> </tspan></text><text class="t" transform="translate(177.57 610.54) rotate(-92.14)"><tspan x="0" y="0">I</tspan></text><text class="t" transform="translate(177.36 608.48) rotate(-84.04)"><tspan x="0" y="0">X</tspan></text><text class="t" transform="translate(178.01 603.28) rotate(-76.16)"><tspan x="0" y="0"> </tspan></text><text class="t" transform="translate(178.46 601.44) rotate(-71.94)"><tspan x="0" y="0"> </tspan></text><text class="t" transform="translate(179.05 599.63) rotate(-67.71)"><tspan x="0" y="0"> </tspan></text><text class="t" transform="translate(179.62 597.88) rotate(-59.92)"><tspan x="0" y="0">X</tspan></text><text class="t" transform="translate(182.32 593.42) rotate(-52.18)"><tspan x="0" y="0"> </tspan></text><text class="t" transform="translate(183.49 591.91) rotate(-47.99)"><tspan x="0" y="0"> </tspan></text><text class="t" transform="translate(184.76 590.49) rotate(-43.78)"><tspan x="0" y="0"> </tspan></text><text class="t" transform="translate(185.98 589.14) rotate(-35.96)"><tspan x="0" y="0">X</tspan></text><text class="t" transform="translate(190.27 586.14) rotate(-27.8)"><tspan x="0" y="0">I</tspan></text><g><polyline class="i" points="203.36 589.34 203.36 608.49 218.13 619.89"/><path class="s" d="M203.36,590.24l1.8,1.1,.04-.06-1.17-2.94c-.23-1.02-.45-2.05-.68-3.07-.23,1.02-.45,2.05-.68,3.07l-1.17,2.94,.03,.06,1.81-1.1Z"/><path class="s" d="M217.42,619.34l.23-2.1h.07l1.61,2.72c.67,.8,1.35,1.61,2.02,2.41-.95-.45-1.9-.89-2.84-1.34l-3.04-.87-.03-.06,1.97-.76Z"/></g></g></g></g></g></svg>