<?xml version="1.0" encoding="UTF-8"?><svg xmlns="http://www.w3.org/2000/svg" viewBox="0 0 375 373"><defs><style>.f{stroke:#fff;stroke-dasharray:0 0 5 5;stroke-width:.83px;}.f,.g{fill:none;stroke-miterlimit:10;}.h{fill:#f2e9c2;}.i{fill:#f9f1d2;}.j{fill:#035b82;}.k{fill:#0093d5;}.l{fill:#ffe500;}.m{fill:#e5dcb7;}.n{fill:#9edbe8;}.o{fill:#b7b091;}.p{fill:#c1b999;}.q,.r{fill:#baaf80;}.s{fill:#ccc6aa;}.t{fill:#ddd4af;}.u{fill:#ddd2a2;}.v{fill:#d1c695;}.w{fill:#d8d0ad;}.x{fill:#e2d7ac;}.y{fill:#066d91;}.g{stroke:#baaf80;stroke-width:.32px;}.a`{opacity:.5;}.r{font-family:MyriadPro-Regular, Myriad Pro;font-size:3.01px;}</style></defs><g id="a"/><g id="b"/><g id="c"/><g id="d"/><g id="e"><rect class="n" x="-126.5" y="-110.27" width="621.27" height="605.83"/><g><g><path class="k" d="M341.08,300.02c-3.17-5.48-1.97-6.11-4.51-9.3-3.01-3.78-5.71-4.16-6.76-7.61-.61-1.98-.32-3.84,0-5.07-3.18-2.95-6.36-5.9-9.54-8.86h0c-5.34-4.96-10.67-9.92-16.01-14.87,.01-.02,.03-.03,.04-.04l-32.69-30.31v.03c-36.67-34.07-73.35-68.14-110.03-102.21,.28-40.63,.56-81.25,.84-121.87H83.8v-.03l-.03,.03H33.64V7.51c1.17,1.09,2.85,2.95,3.94,5.64,.99,2.42,.91,4.05,.56,12.96-.26,6.74-.32,8.49-.56,11.83-.31,4.27-.48,6.43-.84,7.89-1.03,4.07-2.26,4.67-4.79,10.43-2.23,5.06-3.35,7.6-3.1,10.14,.3,3.13,2.08,5.47,5.64,10.15,3.69,4.86,5.19,5.23,5.92,8.17,.9,3.67-1.06,4.65,0,7.89,1.26,3.85,4.4,3.66,6.48,7.61,1.48,2.81,.8,4.65,.85,10.15,.04,4.4,.08,9.59,1.69,14.37,2.2,6.52,6.91,11.05,11.83,15.78,4.82,4.63,6.49,4.86,7.89,8.17,1.99,4.72-.14,7.26,2.25,11.83,.34,.65,3.35,6.23,7.89,6.2,3.47-.02,6.89-3.32,8.17-6.48,.8-1.96,.57-3.37,1.69-3.94,1.31-.67,2.74,.67,5.64,1.97,5.2,2.34,8.94,1.78,9.02,2.82,.07,1.03-3.68,1.09-6.76,4.51-1.01,1.12-2.23,2.47-2.25,4.23-.04,3.05,3.54,4.15,5.92,7.89,1.23,1.95,2.4,5.01,1.97,9.86-1.6-.64-3.98-1.75-6.48-3.66-4.79-3.66-6.4-7.5-7.61-7.05-1.02,.38-.24,3.25-.28,9.3-.05,7.98-1.44,9.22,0,11.84,2.3,4.19,8.26,5.33,9.86,5.64,4.8,.92,6.31-.8,9.58,.85,.38,.19,4.99,2.6,5.07,7.05,.04,2.44-1.27,5.11-3.38,6.2-1.79,.93-2.73-.02-3.95,.85-2.38,1.7-2.39,7.89,.56,11.27,2.03,2.33,3.77,1.37,5.92,3.94,2.3,2.75,.97,4.61,3.1,6.76,2.49,2.51,5.04,.73,7.61,3.1,2.37,2.19,.92,4.4,3.1,8.45,.86,1.59,1.41,1.87,7.33,7.05,6.52,5.7,8.71,7.87,8.17,9.02-.51,1.09-3.05,.4-3.38,1.41-.36,1.09,2.43,2.46,6.2,6.2,2.21,2.19,3.32,3.31,3.94,5.07,.59,1.66,.26,2.4,0,6.76-.31,5.19-.45,7.84,.56,10.14,.55,1.25,1.65,3.78,3.94,4.51,3.36,1.06,5.11-3.07,9.58-2.82,3.83,.21,3.89,3.32,8.45,3.66,2.71,.2,3.88-.8,6.76,0,2,.56,2.03,1.2,3.94,1.97,4.82,1.94,7.55-.98,10.15,.84,2.49,1.75,.65,4.92,3.38,7.33,1.5,1.32,2.53,.78,8.17,1.97,4.53,.96,6.8,1.44,7.89,2.54,3.48,3.5,1.05,10.49,2.82,10.99,1.22,.35,2.19-3.04,5.07-3.38,2.29-.27,4.3,1.56,5.07,2.25,1.89,1.71,1.86,3,3.1,4.79,2.24,3.22,5.11,2.99,9.3,5.35,4,2.26,6.21,5.19,8.45,8.17,3.7,4.9,5.12,9.44,6.76,14.65,.99,3.15,2.14,7.55,2.82,12.96,4.3-.38,8.6-.77,12.9-1.15l.03,.05s.02-.04,.02-.06c5.04-.45,10.09-.9,15.13-1.35,14.88-1.33,29.75-2.65,44.62-3.98,.38,0,4.27-.12,6.48-3.38,1.64-2.41,1.62-5.47,.56-7.61-1.63-3.32-4.77-2.51-6.76-5.64-2.61-4.09-.13-10.01,.28-10.99,2.33-5.57,5.95-5.24,7.04-9.58,1.37-5.39-3.7-7.91-2.25-12.12,2.01-5.83,13.11-4.98,13.81-9.58,.3-1.97-1.7-2.34-5.07-8.17Z"/><g class="a`"><g><path class="j" d="M341.08,300.02c3.38,5.83,5.37,6.21,5.07,8.17-.7,4.6-11.8,3.75-13.81,9.58-1.45,4.21,3.62,6.72,2.25,12.12-1.1,4.34-4.71,4.01-7.05,9.58-.41,.98-2.89,6.9-.28,10.99,2,3.13,5.13,2.32,6.76,5.64,1.05,2.14,1.07,5.19-.56,7.61-2.21,3.26-6.11,3.38-6.48,3.38-14.87,1.33-29.75,2.65-44.62,3.98h0c.3-1.88,.97-3.11,1.58-3.91,.77-1.01,1.51-1.44,1.48-2.22-.03-.94-1.14-1.5-2.01-2.11-2.54-1.81-1.91-3.38-4.33-6.34-2.84-3.47-6.47-4.7-6.13-5.49,.18-.41,1.14-.09,1.37-.53,.6-1.15-5.63-3.94-5.49-7.61,.05-1.41,1.05-2.9,2.01-2.96,1.67-.1,1.85,4.23,5.39,7.5,3.49,3.22,8.51,3.81,8.98,2.96,.41-.75-3.02-1.99-4.44-5.81-1.43-3.84,.51-6.66-1.05-7.82-1.48-1.1-3.37,1.33-6.55,.42-1.12-.32-1.05-.66-4.86-3.49-2.14-1.58-3.21-2.37-4.23-2.96-3.77-2.15-5.43-1.7-6.13-3.27-.7-1.57,.18-3.75,1.16-4.96,.99-1.22,1.84-1.17,2.11-1.9,.36-.98-.52-2.89-6.34-6.97,3.15,.54,6.55,1.26,10.14,2.22,4.41,1.18,8.39,2.53,11.94,3.91,1.09-3.08,2.08-3.88,2.85-3.91,1.5-.06,2.42,2.77,3.91,2.54,1-.16,.97-1.49,2.11-2.11,1.78-.96,4.55,.84,6.76,2.32,4.47,2.99,5.35,5.29,7.82,5.17,1.22-.05,2.65-.69,2.96-1.69,.58-1.89-3.04-4.43-3.8-4.96-3.83-2.69-6.11-2.05-10.46-3.59-3.44-1.22-6.7-3.81-13.2-8.98-4.08-3.24-5.33-4.67-8.13-5.07-3.24-.47-4.03,1.07-7.39,.21-3.04-.78-3.96-2.43-6.97-2.32-1.74,.06-3.24,.68-3.38,.74-2.18,.92-2.16,1.9-3.49,2.11-1.46,.24-1.98-.88-5.81-2.75-1.88-.92-2.84-1.38-3.8-1.37-2.34,.02-2.69,1.74-4.96,2.01-2.09,.24-2.4-1.14-6.13-2.11-1.23-.32-3.41-.86-5.92-.42-2.9,.51-2.82,1.74-5.18,2.22-4.79,.97-9.57-3.21-11.09-4.54-1.11-.97-1.91-1.89-2.43-2.54,8.63-6.28,10.6-11.27,10.67-14.79,.03-1.61-.31-4.47,1.37-7.39,.53-.92,2.09-3.63,4.86-3.91,2.43-.25,4.96,1.46,6.34,4.22,1.85-1.65,4.36-3.34,6.76-2.75,3.87,.95,4.71,7.14,7.08,6.97,2.34-.16,2.34-6.29,5.7-7.08,1.89-.44,2.55,1.33,7.08,2.01,1.98,.29,3.84,.54,5.18-.53,1.36-1.09,.68-2.36,2.01-3.8,1.57-1.7,4.56-2.12,6.87-1.27,2.3,.85,3.4,2.77,3.87,3.6,2.45,4.31,.64,9.13,.28,10.03,3.65-2.69,4.38-4.79,4.32-6.27-.08-1.71-1.24-2.62-.84-4.32,.5-2.11,2.62-2.11,2.79-3.62,.25-2.21-4.19-2.88-5.85-7.24-.71-1.87-.05-2.14-.84-3.62-1.48-2.77-3.95-2.05-6.83-4.74-.75-.7-.45-.62-4.18-7.1-2.39-4.15-2.54-4.22-2.93-5.29-1.41-3.87-.26-5-1.67-6.96-.43-.59-1.25-1.49-6.69-3.34-5.64-1.92-5.88-1.33-7.38-2.23-5.35-3.2-7.4-13.64-3.48-17.55,.98-.98,2.92-2.13,4.46-1.53,3.07,1.2,.86,7.96,4.74,10.86,2.78,2.09,5.3-.37,8.36,1.81,2.31,1.65,1.72,3.67,4.32,9.89,2.03,4.86,4.28,8.12,4.74,8.77,2.07,2.96,4.19,4.94,8.36,8.77,6.36,5.86,10.15,8.32,9.47,10.17-.37,1.02-1.91,1.36-2.09,1.39-2.54,.53-5.02-2.11-5.15-1.95-.15,.19,4.37,2.58,5.01,6.41,.41,2.41-1.07,3.3-.28,4.87,.36,.72,1.12,1.41,7.38,3.07,3.74,.99,4.61,1.04,5.15,1.95,.97,1.63,.07,4.63-1.81,5.99-2.15,1.55-4.01-.16-6.27,1.39-2.23,1.53-1.54,3.98-3.48,4.74-2.14,.83-4.38-1.63-5.43-.7-.72,.63,.26,1.82-.28,3.62-.79,2.62-3.74,2.98-3.62,4.18,.12,1.29,3.69,2.85,7.1,2.23,4.09-.75,4.88-4.08,8.77-4.18,2.2-.06,2.38,.99,4.32,.7,3.1-.47,3.29-3.26,6.55-4.74,2.13-.96,2.51,.01,8.5-.28,4.49-.22,7.52-.4,8.5-2.23,.75-1.4-.4-2.47,0-4.32,.57-2.6,3.68-4.29,7.24-5.43,3.18,2.95,6.36,5.91,9.54,8.86-.32,1.24-.61,3.09,0,5.07,1.06,3.45,3.76,3.83,6.76,7.61,2.54,3.19,1.34,3.82,4.51,9.3Z"/><path class="y" d="M304.26,254.31c5.34,4.96,10.67,9.91,16.01,14.87-3.56,1.14-6.67,2.83-7.24,5.43-.4,1.85,.75,2.92,0,4.32-.98,1.83-4.01,2.01-8.5,2.23-5.99,.29-6.37-.68-8.5,.28-3.26,1.47-3.45,4.26-6.55,4.74-1.93,.3-2.12-.75-4.32-.7-3.9,.1-4.68,3.43-8.77,4.18-3.42,.62-6.98-.94-7.1-2.23-.12-1.2,2.83-1.56,3.62-4.18,.54-1.8-.44-2.99,.28-3.62,1.05-.93,3.29,1.53,5.43,.7,1.94-.75,1.25-3.2,3.48-4.74,2.26-1.55,4.12,.16,6.27-1.39,1.88-1.36,2.78-4.36,1.81-5.99-.54-.91-1.41-.96-5.15-1.95-6.26-1.65-7.02-2.35-7.38-3.07-.8-1.57,.68-2.47,.28-4.87-.64-3.83-5.17-6.22-5.01-6.41,.13-.16,2.61,2.48,5.15,1.95,.18-.04,1.72-.37,2.09-1.39,.68-1.85-3.11-4.31-9.47-10.17-4.17-3.84-6.29-5.82-8.36-8.77-.46-.66-2.7-3.92-4.74-8.77-2.6-6.22-2-8.24-4.32-9.89-3.06-2.18-5.57,.27-8.36-1.81-3.87-2.9-1.66-9.66-4.74-10.86-1.54-.6-3.48,.55-4.46,1.53-3.92,3.91-1.87,14.35,3.48,17.55,1.5,.9,1.74,.31,7.38,2.23,5.43,1.85,6.26,2.75,6.69,3.34,1.41,1.97,.27,3.1,1.67,6.96,.39,1.07,.54,1.14,2.93,5.29,3.73,6.48,3.43,6.4,4.18,7.1,2.87,2.68,5.34,1.96,6.83,4.74,.79,1.48,.13,1.75,.84,3.62,1.66,4.36,6.1,5.03,5.85,7.24-.17,1.52-2.28,1.52-2.79,3.62-.41,1.7,.76,2.6,.84,4.32,.07,1.48-.67,3.58-4.32,6.27,.36-.9,2.17-5.72-.28-10.03-.47-.83-1.56-2.75-3.87-3.6-2.31-.85-5.29-.43-6.87,1.27-1.33,1.44-.64,2.71-2.01,3.8-1.34,1.07-3.2,.82-5.18,.53-4.53-.67-5.18-2.45-7.08-2.01-3.37,.79-3.36,6.91-5.7,7.08-2.37,.16-3.21-6.02-7.08-6.97-2.4-.59-4.91,1.1-6.76,2.75-1.38-2.76-3.91-4.47-6.34-4.22-2.77,.28-4.33,2.99-4.86,3.91-1.69,2.93-1.34,5.78-1.37,7.39-.06,3.51-2.03,8.5-10.67,14.79,.52,.64,1.32,1.57,2.43,2.54,1.52,1.33,6.3,5.51,11.09,4.54,2.36-.48,2.28-1.71,5.18-2.22,2.5-.44,4.68,.1,5.92,.42,3.73,.97,4.04,2.36,6.13,2.11,2.27-.27,2.63-1.99,4.96-2.01,.96,0,1.92,.45,3.8,1.37,3.83,1.87,4.35,2.98,5.81,2.75,1.33-.21,1.3-1.19,3.49-2.11,.14-.06,1.64-.68,3.38-.74,3.02-.11,3.93,1.54,6.97,2.32,3.37,.86,4.16-.68,7.39-.21,2.8,.41,4.05,1.83,8.13,5.07,6.51,5.17,9.76,7.76,13.2,8.98,4.34,1.54,6.63,.9,10.46,3.59,.76,.54,4.38,3.08,3.8,4.96-.31,1-1.74,1.64-2.96,1.69-2.47,.11-3.35-2.18-7.82-5.17-2.21-1.48-4.98-3.29-6.76-2.32-1.14,.62-1.11,1.95-2.11,2.11-1.49,.23-2.41-2.59-3.91-2.54-.77,.03-1.76,.83-2.85,3.91-3.54-1.38-7.53-2.73-11.94-3.91-3.59-.96-6.99-1.68-10.14-2.22,5.82,4.08,6.7,5.99,6.34,6.97-.27,.73-1.13,.68-2.11,1.9-.98,1.21-1.86,3.4-1.16,4.96,.7,1.57,2.36,1.12,6.13,3.27,1.02,.58,2.09,1.38,4.23,2.96,3.81,2.82,3.74,3.17,4.86,3.49,3.18,.9,5.07-1.52,6.55-.42,1.56,1.16-.37,3.98,1.05,7.82,1.42,3.82,4.85,5.06,4.44,5.81-.47,.86-5.49,.26-8.98-2.96-3.54-3.27-3.72-7.59-5.39-7.5-.96,.06-1.95,1.55-2.01,2.96-.14,3.66,6.09,6.46,5.49,7.61-.23,.44-1.2,.12-1.37,.53-.34,.8,3.29,2.03,6.13,5.49,2.42,2.96,1.79,4.53,4.33,6.34,.86,.61,1.97,1.17,2.01,2.11,.03,.78-.71,1.21-1.48,2.22-.61,.8-1.29,2.03-1.58,3.91h0c-5.04,.45-10.09,.9-15.13,1.35,.84-1.89,1.65-4.54,.43-6.4-1.84-2.79-6.83-1.21-8.34-3.98-1.24-2.27,1.53-4.4,.19-7.58-1.03-2.46-3.31-2.67-3.22-4.17,.13-2.12,4.73-2.15,5.68-4.93,.81-2.35-1.41-5.5-3.41-7.2-4.77-4.05-10.76-1.94-12.13-5.12-.77-1.78,.98-2.76,.19-5.31-.94-3.02-3.78-2.91-4.55-5.5-.96-3.23,2.85-5.5,1.89-7.77-.9-2.13-4.97-1.8-10.04-2.41-5.47-.65-4.38-1.46-16.49-4.8-9.37-2.58-14.06-3.87-18.89-4.2-7.83-.53-9.73,.99-14.39-.9-6.07-2.46-10.7-8.19-9.59-10.49,1.19-2.48,8.02,1.16,13.49-3,2.67-2.03,4.61-5.62,5.1-9,.54-3.74-.93-5.6,.51-9.71,.25-.73,.2-.39,1.84-4.14,1.5-3.43,2.25-5.16,2.3-5.99,.22-3.3-2.03-3.79-1.69-6.75,.35-2.96,2.72-3.47,2.46-5.99-.21-2.04-1.84-2.27-1.84-4.3,0-2.2,1.91-3.12,1.38-4.45-.4-1.02-1.6-.7-3.07-1.99-1.07-.95-2.26-2.74-1.99-4.3,.46-2.78,5.37-4.05,5.22-4.45-.16-.42-5.15,2.25-7.37,.46-1.26-1.02-.36-2.46-1.38-6.45-1.02-4.01-2.63-5.33-1.84-6.6,.86-1.38,3.07-.32,4.76-1.99,1.71-1.69,1.66-4.94,.77-5.37-1.14-.56-3.46,3.57-5.22,2.92-1.04-.39-.57-1.95-1.84-3.38-1.76-1.98-4.07-.57-6.6-2.15-2.58-1.61-3.68-5.27-3.53-7.98,.21-3.73,2.78-5.01,1.99-6.75-.91-1.99-4.39-.56-8.75-2.92-3.04-1.65-2.38-2.91-6.6-6.45-1.58-1.32-3.92-2.72-8.59-5.52-6.39-3.83-6.96-3.85-7.52-5.06-1.88-4.1,2.37-8.8,.15-11.05-1.16-1.17-2.85-.42-3.68-1.84-.81-1.38,.6-2.41,0-4.76-.5-1.97-1.79-2.42-1.53-3.84,.15-.84,.63-.81,1.38-2.15,.94-1.69,.48-2.3,1.23-3.84,1.04-2.14,2.67-2.52,2.46-3.22-.28-.9-2.85,.04-5.22-1.38-1.83-1.1-1.27-2.25-3.38-4.6-2.61-2.91-4.77-2.58-5.52-4.76-.46-1.32,.23-1.73,.77-4.76,.47-2.64,1.26-7.15-.92-9.98-1.32-1.71-2.45-1.16-3.53-3.07-1.15-2.05-.42-3.7-1.69-4.6-1.14-.81-2.17,.19-3.32-.56-1.63-1.07-.28-3.55-1.71-5.33-1.99-2.49-6.66-.19-8.32-2.56-.57-.82-.19-1.34,0-4.69,.22-3.74,.06-8.59-.85-8.75-.56-.1-1.1,1.61-1.49,1.49-.6-.18,1.17-4.07,.21-8.32-.88-3.92-3.25-4.45-2.99-7.47,.21-2.44,1.84-3.08,1.49-5.12-.29-1.73-1.71-2.78-3.42-4.05-3.98-2.97-6.98-2.66-7.68-4.91-.42-1.34,.53-1.81,0-3.13-.93-2.34-4.25-1.82-4.88-3.72-.48-1.47,1.39-2.11,1.86-5.57,.15-1.1,.37-2.74-.58-3.95-.82-1.04-1.85-.94-1.97-1.63-.21-1.17,2.73-1.67,3.25-3.71,.5-1.95-1.78-3.01-1.28-4.99,.44-1.72,2.34-1.58,3.02-3.6,.47-1.38,.21-3.31-.93-4.06-1.38-.92-3.51,.26-4.3,.7-1.79,.99-1.61,1.8-3.02,2.44-1.92,.87-2.84-.38-5.46,0-.45,.07-3.87,.61-5.23,3.02-1.24,2.2,.46,3.78-.93,6.04-1.06,1.73-2.42,1.41-2.9,2.9-.63,1.94,1.48,2.99,1.04,5.22-.25,1.28-1.29,2.17-3.37,3.95-2.16,1.85-2.98,1.88-3.95,3.37-.12,.18-1.72,2.7-.81,3.83,.74,.93,2.8,.47,3.37,.35,2-.45,2.73-1.53,3.37-1.16,.7,.4-.05,1.76,.81,3.48,.51,1.03,1.31,1.6,1.97,2.09,2.03,1.48,3.22,.95,3.83,1.97,.64,1.08-.57,1.87-.7,4.53-.12,2.56,.95,3.01,.43,4.76-.45,1.53-1.37,1.58-2.38,3.46-.86,1.61-.86,2.84-1.08,4.11-.95,5.52-5.01,6.21-4.76,9.52,.27,3.49,4.84,3.6,5.62,8,.52,2.94-1.35,3.91-.43,6.49,1.04,2.93,3.77,2.57,4.76,5.41,.99,2.83-1.37,4.21-.43,7.14,.92,2.86,3.4,2.28,4.98,5.19,2.09,3.88-1.12,7.14,.86,10.81,.66,1.23,2.1,2.85,5.62,3.89-4.18,1.7-7.17,1.47-9.3,.65-1.42-.55-1.98-1.18-6.71-5.62-6.04-5.68-6.64-6.08-7.57-6.49-3.92-1.74-5.93-.37-7.79-2.38-1.82-1.97-.23-3.67-1.73-6.92-2.24-4.88-7.53-4.84-7.79-8.22-.08-1.11,.49-1.08,2.6-5.41,1.65-3.39,2.47-5.08,2.38-6.27-.24-3.06-3.09-3.28-4.54-7.57-.37-1.08-.46-2.67-.65-5.84-.39-6.54,.29-7.14-.65-8.65-1.5-2.42-3.61-1.49-6.27-4.76-.86-1.06-2.34-2.87-1.95-4.76,.45-2.17,2.87-2.03,3.68-4.11,1.27-3.26-3.68-6.16-2.6-9.3,1.01-2.93,6.09-2.64,6.49-5.41,.25-1.73-1.62-2.62-1.08-4.11,.62-1.71,3.32-1.25,4.33-3.24,.56-1.12,.4-2.64-.22-3.68-1.46-2.45-4.81-1.06-7.79-3.46-2.34-1.89-3.66-5.48-2.6-6.92,1.47-1.99,7.14,.65,8.65-1.73,.43-.68,.09-1.07,.65-2.16,.83-1.61,2.41-2.34,3.46-2.81,4.05-1.81,9-1.02,9.87-.88,.52,.08,1.62,.28,2.7-.24,1.13-.55,1.74-1.65,1.84-1.84,.69-1.28,.23-1.94,.86-2.45,.61-.5,1.25-.04,2.82-.24,0,0,1.18-.16,2.33-.74,1.57-.79,2.03-1.97,4.53-5.81,.6-.92,1.1-1.66,1.4-2.09h78.66c-.28,40.63-.56,81.25-.84,121.87,36.68,34.07,73.36,68.14,110.04,102.21,.77,2.85,1.84,5.53,2.59,7.01,1.13,2.23,1.93,3.16,2.02,4.96,.11,2.25-1.05,2.64-1.09,4.65-.06,2.83,2.14,6.13,4.96,7.14,2.94,1.05,4.39-1.16,7.45,0,2.03,.77,3.84,2.68,4.34,4.81,.92,3.89-2.66,7.85-2.33,8.07,.33,.21,2.26-4.45,5.74-4.96,2.27-.34,3.59,1.32,6.05,.62,1.39-.39,2.34-1.3,2.91-1.97Zm-69.85-21.85c.6-1.95,.98-3.05,.4-4.01-.67-1.09-1.82-.72-3.34-1.74-1.99-1.33-2.61-3.7-3.07-5.48-.98-3.77,.41-4.43-.53-6.28-1.55-3.04-5.42-1.43-9.88-4.94-3.53-2.77-2.74-5.05-5.61-6.01-3.25-1.08-5.68,1.37-8.41-.27-.93-.56-1.43-1.44-2.4-3.21-2.83-5.09-1.47-7.52-4.14-10.29-1.04-1.07-1.91-1.39-2-2.4-.16-1.68,2.07-2.26,2.4-4.14,.45-2.5-3.12-3.38-3.61-6.54-.56-3.63,3.74-5.07,3.34-8.82-.28-2.67-2.53-2.48-4.94-6.55-2.78-4.69-1.2-7.32-4.14-10.15-1.72-1.66-4.48-2.89-5.74-2-1.08,.76-.55,2.73-.13,7.21,.4,4.28,.98,10.46-.13,10.82-1.03,.33-4.13-4.12-5.61-9.48-2.28-8.28,1.47-10.93-1.2-17.5-2.39-5.87-7.76-9.62-8.15-9.88-2.76-1.88-4.04-1.74-6.95-4.28-1.79-1.56-2.91-3.01-4.81-3.07-1.51-.05-1.94,.84-3.47,1.34-4.51,1.45-9.08-3.62-10.15-2.54-.54,.54,.6,1.85,2,5.88,1.43,4.09,.93,4.67,2.14,6.41,1.91,2.75,3.59,1.9,4.54,4.14,1.09,2.56-.64,4.73,1.07,7.21,.52,.76,.94,.92,.94,1.47,0,1.97-5.37,3.2-5.21,3.87,.15,.66,5.09-1.08,7.48,1.2,1.24,1.18,1.66,3.31,1.2,4.94-.74,2.65-3.69,3.55-3.34,4.67,.29,.95,2.42,.42,3.21,1.74,.87,1.45-1.02,3.27-.27,4.28,.86,1.15,3.6-.88,6.41,.27,1.59,.65,2.76,2.14,3.29,3.36,.34,.78,.42,1.44,.18,1.71-.59,.68-3.32-1.08-3.47-.8-.21,.37,4.48,3.87,5.34,3.07,.52-.48-.71-2.21-1.54-4.12-.62-1.43-1.03-2.96-.33-4.16,.69-1.18,2.05-1.37,2.4-2.94,.3-1.33-.47-2.09,0-2.67,.65-.81,3.16-.67,4.27,.67,1.45,1.75-.86,3.87,.13,7.88,.61,2.45,1.68,2.52,1.87,4.81,.23,2.79-1.27,3.81-.53,5.08,1.09,1.86,4.77,.37,6.14,2.4,.93,1.38-.45,2.52,.4,4.54,1.01,2.4,3.5,2.05,4.41,4.01,1.29,2.79-2.91,5.31-2.14,8.15,1.1,4.04,10.43,1.94,13.36,6.95,2.58,4.42-2.72,9.44,.4,13.76,2.13,2.95,6.37,3.04,6.41,5.34,.02,1.47-1.71,1.97-1.87,4.41-.09,1.33,.38,1.86,0,3.07-.4,1.27-1.22,1.68-1.74,2.4-1.36,1.9,.29,4.68,1.47,8.55,.57,1.87,1.9,6.81,1.34,12.02-.5,4.64-2.27,7.28-1.87,7.48,.55,.27,4.72-4.27,6.01-10.55,1.01-4.96-.75-6.21-.13-12.82,.33-3.5,.93-9.99,4.14-10.95,2.31-.7,5.8,1.52,7.48,4.01,1.28,1.89,1.15,3.43,2.81,4.41,1.26,.74,1.98,.24,4.14,.53,4.28,.58,5.23,3.07,6.95,2.4,.94-.36,.71-1.12,2.81-7.88ZM160.38,75.05c.24-4.74,1.23-6.84,0-7.81-1.08-.85-2.21,.49-4.51,0-3.43-.74-3.51-4.27-6.42-4.86-2.94-.6-4.2,2.74-7.46,2.26-2.36-.35-4.68-2.55-5.03-4.86-.55-3.64,3.88-6.95,7.12-9.37,4.76-3.56,8.9-4.69,8.68-5.55-.25-.95-5.16,.88-10.24-1.39-3.53-1.58-7.07-5.1-6.42-7.46,.93-3.36,9.93-2.9,10.24-5.73,.17-1.56-2.51-2.42-2.26-3.82,.46-2.56,9.86-1.99,10.24-4.16,.25-1.47-4-1.94-7.12-5.9-3.66-4.64-1.98-9.27-4.51-10.24-2.53-.97-6.3,2.81-9.02,5.55-5.19,5.21-4.69,7.72-8.5,9.72-4.21,2.2-5.98-.24-9.37,2.08-4.29,2.95-2.89,7.86-7.12,9.89-3.02,1.45-6.22,.14-6.77,1.56-.44,1.15,1.56,2.15,1.56,4.51,0,1.81-1.17,2.54-1.74,3.99-1.31,3.39,1.79,7.95,3.82,10.07,5.82,6.07,11.98,1.64,16.83,6.77,4.68,4.95,1.54,11.81,6.94,15.1,2.38,1.45,3.62,.5,6.07,2.43,3.84,3.03,3.02,7.12,5.55,7.81,2.94,.8,5.5-4.33,8.85-3.3,1.51,.46,1.35,1.62,3.3,2.43,2.08,.87,5.22,.79,6.77-.87,1.45-1.54,.22-3.09,.52-8.85ZM113.87,13.27c.83-1.16-.91-3.98-2.6-5.55-2.19-2.04-5.79-3.36-9.02-2.43-3.52,1.02-3.34,3.77-6.77,4.34-2.85,.47-4.75-1.13-6.25,.17-1.07,.93-.68,2.26-1.91,2.95-1.11,.63-1.93-.18-3.3,0-2.6,.34-2.62,3.65-5.55,5.73-3.57,2.53-8.61,1.21-9.2,1.04-3.74-1.03-5.65-3.66-6.6-2.95-.68,.51-.22,2.31,.17,3.3,1.27,3.15,4.98,5.75,8.85,5.9,3.26,.13,3.51-1.6,11.28-4.86,4.16-1.74,6.24-2.62,9.2-3.12,3.37-.58,5.09-.26,8.16-1.56,2.74-1.16,2.52-1.89,4.69-2.6,4.56-1.49,7.89,1.01,8.85-.35Z"/><path class="k" d="M271.61,223.98l32.65,30.33c-.57,.67-1.52,1.58-2.91,1.97-2.46,.7-3.78-.96-6.05-.62-3.48,.52-5.41,5.17-5.74,4.96-.34-.22,3.24-4.18,2.33-8.07-.5-2.13-2.31-4.04-4.34-4.81-3.06-1.16-4.51,1.05-7.45,0-2.82-1-5.02-4.3-4.96-7.14,.04-2.02,1.19-2.4,1.09-4.65-.09-1.8-.89-2.73-2.02-4.96-.75-1.48-1.82-4.16-2.59-7.01Z"/><path class="k" d="M267.67,366.02c1.22,1.85,.41,4.5-.43,6.4-4.32,.39-8.63,.77-12.95,1.15-.68-5.41-1.83-9.81-2.82-12.96-1.64-5.21-3.07-9.75-6.76-14.65-2.24-2.98-4.46-5.92-8.45-8.17-4.19-2.37-7.06-2.13-9.3-5.35-1.24-1.79-1.21-3.08-3.1-4.79-.77-.7-2.79-2.52-5.07-2.25-2.88,.34-3.85,3.73-5.07,3.38-1.76-.5,.66-7.49-2.82-10.99-1.09-1.1-3.36-1.58-7.89-2.54-5.64-1.19-6.67-.65-8.17-1.97-2.73-2.41-.89-5.57-3.38-7.33-2.59-1.83-5.33,1.09-10.14-.85-1.91-.77-1.95-1.42-3.94-1.97-2.89-.8-4.06,.2-6.76,0-4.56-.34-4.63-3.45-8.45-3.66-4.47-.25-6.22,3.88-9.58,2.82-2.29-.73-3.4-3.26-3.94-4.51-1.01-2.31-.87-4.95-.56-10.15,.26-4.36,.59-5.1,0-6.76-.62-1.76-1.74-2.89-3.94-5.07-3.77-3.74-6.56-5.11-6.2-6.2,.33-1,2.87-.32,3.38-1.41,.54-1.15-1.66-3.32-8.17-9.02-5.92-5.17-6.47-5.45-7.33-7.04-2.18-4.05-.72-6.26-3.1-8.45-2.56-2.37-5.12-.59-7.61-3.1-2.13-2.15-.8-4.02-3.1-6.76-2.15-2.57-3.88-1.62-5.92-3.94-2.95-3.38-2.95-9.58-.56-11.27,1.22-.87,2.16,.08,3.94-.84,2.11-1.09,3.43-3.76,3.38-6.2-.08-4.45-4.69-6.85-5.07-7.05-3.27-1.65-4.78,.07-9.58-.84-1.61-.31-7.56-1.45-9.86-5.64-1.44-2.61-.05-3.86,0-11.84,.04-6.05-.74-8.92,.28-9.3,1.21-.45,2.82,3.38,7.61,7.05,2.5,1.91,4.88,3.03,6.48,3.66,.43-4.86-.74-7.92-1.97-9.86-2.37-3.74-5.96-4.84-5.92-7.89,.03-1.76,1.25-3.11,2.26-4.23,3.09-3.42,6.83-3.48,6.76-4.51-.07-1.04-3.82-.48-9.02-2.82-2.9-1.3-4.33-2.64-5.64-1.97-1.12,.58-.9,1.99-1.69,3.94-1.28,3.16-4.7,6.46-8.17,6.48-4.54,.03-7.55-5.55-7.89-6.2-2.39-4.57-.26-7.12-2.25-11.84-1.4-3.31-3.07-3.54-7.89-8.17-4.92-4.73-9.64-9.26-11.84-15.78-1.61-4.78-1.65-9.97-1.69-14.37-.04-5.49,.63-7.33-.84-10.14-2.08-3.95-5.23-3.76-6.48-7.61-1.06-3.24,.9-4.22,0-7.89-.72-2.94-2.23-3.32-5.92-8.17-3.55-4.68-5.33-7.01-5.64-10.14-.25-2.55,.87-5.08,3.1-10.15,2.53-5.76,3.76-6.35,4.79-10.43,.37-1.46,.53-3.62,.85-7.89,.24-3.34,.3-5.09,.56-11.84,.35-8.91,.43-10.54-.56-12.96-1.1-2.69-2.78-4.54-3.94-5.64V-.1h50.12c-.3,.43-.79,1.17-1.4,2.09-2.5,3.84-2.96,5.02-4.53,5.81-1.15,.58-2.33,.74-2.33,.74-1.56,.21-2.21-.25-2.82,.24-.62,.51-.17,1.17-.86,2.45-.1,.19-.7,1.29-1.84,1.84-1.08,.53-2.17,.33-2.7,.24-.87-.14-5.82-.93-9.87,.88-1.05,.47-2.63,1.2-3.46,2.81-.56,1.09-.22,1.49-.65,2.16-1.51,2.38-7.18-.26-8.65,1.73-1.06,1.44,.26,5.03,2.6,6.92,2.98,2.4,6.33,1.01,7.79,3.46,.62,1.03,.78,2.56,.22,3.68-1,1.99-3.71,1.54-4.33,3.24-.54,1.49,1.33,2.38,1.08,4.11-.4,2.77-5.48,2.48-6.49,5.41-1.09,3.14,3.87,6.04,2.6,9.3-.81,2.07-3.23,1.93-3.68,4.11-.39,1.89,1.09,3.7,1.95,4.76,2.66,3.26,4.77,2.34,6.27,4.76,.94,1.51,.26,2.12,.65,8.65,.19,3.17,.28,4.76,.65,5.84,1.45,4.29,4.3,4.51,4.54,7.57,.1,1.19-.73,2.89-2.38,6.27-2.11,4.33-2.68,4.3-2.6,5.41,.25,3.37,5.55,3.34,7.79,8.22,1.5,3.25-.09,4.95,1.73,6.92,1.85,2.01,3.86,.64,7.79,2.38,.93,.41,1.53,.81,7.57,6.49,4.72,4.44,5.28,5.07,6.71,5.62,2.13,.82,5.11,1.05,9.3-.65-3.53-1.04-4.96-2.66-5.62-3.89-1.99-3.68,1.23-6.93-.86-10.81-1.57-2.91-4.06-2.33-4.98-5.19-.94-2.92,1.42-4.31,.43-7.14-.99-2.84-3.72-2.47-4.76-5.41-.92-2.58,.96-3.54,.43-6.49-.78-4.4-5.36-4.52-5.62-8-.25-3.31,3.81-3.99,4.76-9.52,.22-1.27,.22-2.5,1.08-4.11,1.01-1.88,1.93-1.93,2.38-3.46,.51-1.75-.55-2.2-.43-4.76,.13-2.66,1.34-3.45,.7-4.53-.61-1.03-1.81-.5-3.83-1.97-.67-.49-1.46-1.06-1.97-2.09-.86-1.72-.11-3.08-.81-3.48-.64-.37-1.37,.72-3.37,1.16-.56,.12-2.63,.58-3.37-.35-.9-1.14,.7-3.65,.81-3.83,.97-1.49,1.78-1.51,3.95-3.37,2.08-1.78,3.12-2.67,3.37-3.95,.44-2.23-1.68-3.29-1.04-5.22,.49-1.5,1.84-1.17,2.9-2.9,1.39-2.26-.31-3.84,.93-6.04,1.36-2.41,4.78-2.95,5.23-3.02,2.62-.38,3.54,.87,5.46,0,1.41-.63,1.23-1.45,3.02-2.44,.79-.44,2.91-1.61,4.3-.7,1.14,.76,1.4,2.69,.93,4.06-.68,2.02-2.58,1.88-3.02,3.6-.5,1.98,1.77,3.05,1.28,4.99-.52,2.04-3.46,2.55-3.25,3.71,.12,.69,1.16,.59,1.97,1.63,.95,1.21,.73,2.85,.58,3.95-.47,3.46-2.34,4.11-1.86,5.57,.62,1.9,3.95,1.38,4.88,3.72,.53,1.33-.42,1.8,0,3.13,.71,2.25,3.7,1.94,7.68,4.91,1.7,1.27,3.12,2.33,3.42,4.05,.35,2.04-1.28,2.68-1.49,5.12-.26,3.02,2.11,3.54,2.99,7.47,.95,4.25-.82,8.15-.21,8.32,.39,.12,.93-1.59,1.49-1.49,.92,.16,1.07,5.01,.85,8.75-.19,3.35-.57,3.88,0,4.69,1.66,2.37,6.33,.07,8.32,2.56,1.43,1.78,.07,4.27,1.71,5.33,1.15,.75,2.18-.25,3.32,.56,1.27,.91,.53,2.55,1.69,4.6,1.08,1.91,2.21,1.36,3.53,3.07,2.19,2.83,1.39,7.33,.92,9.98-.54,3.03-1.23,3.44-.77,4.76,.76,2.18,2.91,1.85,5.52,4.76,2.11,2.35,1.54,3.5,3.38,4.6,2.37,1.42,4.94,.48,5.22,1.38,.22,.71-1.42,1.09-2.46,3.22-.75,1.54-.28,2.14-1.23,3.84-.75,1.34-1.23,1.31-1.38,2.15-.25,1.41,1.03,1.87,1.53,3.84,.6,2.35-.81,3.38,0,4.76,.84,1.42,2.52,.67,3.68,1.84,2.22,2.25-2.03,6.95-.15,11.05,.56,1.21,1.13,1.23,7.52,5.06,4.68,2.8,7.02,4.2,8.59,5.52,4.22,3.54,3.56,4.8,6.6,6.45,4.36,2.36,7.84,.92,8.75,2.92,.79,1.74-1.78,3.02-1.99,6.75-.16,2.71,.95,6.37,3.53,7.98,2.53,1.58,4.84,.17,6.6,2.15,1.27,1.43,.8,2.99,1.84,3.38,1.76,.65,4.08-3.47,5.22-2.92,.89,.44,.94,3.69-.77,5.37-1.69,1.67-3.9,.61-4.76,1.99-.79,1.27,.82,2.59,1.84,6.6,1.02,3.99,.12,5.43,1.38,6.45,2.22,1.79,7.2-.88,7.37-.46,.15,.4-4.75,1.67-5.22,4.45-.26,1.56,.92,3.35,1.99,4.3,1.47,1.3,2.67,.98,3.07,1.99,.53,1.33-1.39,2.25-1.38,4.45,0,2.03,1.63,2.26,1.84,4.3,.26,2.51-2.11,3.02-2.46,5.99-.35,2.96,1.91,3.45,1.69,6.75-.06,.83-.8,2.56-2.3,5.99-1.64,3.76-1.59,3.42-1.84,4.14-1.43,4.11,.03,5.97-.51,9.71-.49,3.37-2.42,6.96-5.1,9-5.47,4.16-12.3,.52-13.49,3-1.1,2.3,3.53,8.04,9.59,10.49,4.67,1.89,6.56,.37,14.39,.9,4.83,.32,9.52,1.62,18.89,4.2,12.11,3.34,11.02,4.14,16.49,4.8,5.07,.61,9.14,.28,10.04,2.41,.96,2.26-2.86,4.53-1.89,7.77,.77,2.59,3.61,2.48,4.55,5.5,.79,2.55-.96,3.53-.19,5.31,1.37,3.18,7.36,1.06,12.13,5.12,2,1.7,4.22,4.85,3.41,7.2-.95,2.77-5.55,2.81-5.68,4.93-.09,1.49,2.19,1.7,3.22,4.17,1.34,3.18-1.43,5.31-.19,7.58,1.51,2.77,6.5,1.19,8.34,3.98Z"/><path class="j" d="M234.81,228.45c.58,.95,.2,2.06-.4,4.01-2.1,6.76-1.87,7.52-2.81,7.88-1.72,.67-2.66-1.82-6.95-2.4-2.16-.29-2.88,.21-4.14-.53-1.66-.98-1.53-2.51-2.81-4.41-1.68-2.49-5.17-4.7-7.48-4.01-3.21,.97-3.81,7.45-4.14,10.95-.62,6.62,1.15,7.87,.13,12.82-1.29,6.29-5.47,10.82-6.01,10.55-.4-.2,1.37-2.84,1.87-7.48,.56-5.21-.76-10.15-1.34-12.02-1.18-3.87-2.83-6.65-1.47-8.55,.52-.73,1.34-1.13,1.74-2.4,.38-1.21-.09-1.74,0-3.07,.16-2.44,1.89-2.93,1.87-4.41-.04-2.3-4.28-2.39-6.41-5.34-3.12-4.32,2.18-9.33-.4-13.76-2.92-5.01-12.25-2.91-13.36-6.95-.78-2.84,3.42-5.36,2.14-8.15-.91-1.96-3.4-1.6-4.41-4.01-.85-2.02,.53-3.17-.4-4.54-1.37-2.03-5.06-.55-6.14-2.4-.74-1.26,.76-2.29,.53-5.08-.19-2.29-1.26-2.36-1.87-4.81-1-4.02,1.32-6.13-.13-7.88-1.11-1.34-3.63-1.48-4.27-.67-.47,.59,.3,1.34,0,2.67-.36,1.57-1.72,1.76-2.4,2.94-.7,1.2-.3,2.73,.33,4.16l-.51,.14c-.53-1.22-1.7-2.71-3.29-3.36-2.81-1.15-5.55,.88-6.41-.27-.75-1,1.13-2.83,.27-4.28-.78-1.31-2.91-.79-3.21-1.74-.35-1.13,2.6-2.03,3.34-4.67,.46-1.63,.04-3.76-1.2-4.94-2.39-2.28-7.33-.55-7.48-1.2-.16-.67,5.2-1.9,5.21-3.87,0-.55-.41-.71-.94-1.47-1.71-2.48,.02-4.65-1.07-7.21-.95-2.24-2.63-1.39-4.54-4.14-1.21-1.74-.71-2.32-2.14-6.41-1.41-4.02-2.54-5.33-2-5.88,1.07-1.08,5.64,3.99,10.15,2.54,1.53-.49,1.96-1.38,3.47-1.34,1.89,.06,3.01,1.51,4.81,3.07,2.91,2.53,4.19,2.39,6.95,4.28,.39,.26,5.76,4.02,8.15,9.88,2.67,6.57-1.08,9.22,1.2,17.5,1.48,5.37,4.58,9.81,5.61,9.48,1.12-.35,.54-6.54,.13-10.82-.42-4.48-.94-6.45,.13-7.21,1.26-.89,4.02,.34,5.74,2,2.94,2.83,1.36,5.46,4.14,10.15,2.41,4.07,4.66,3.87,4.94,6.55,.4,3.75-3.9,5.18-3.34,8.82,.49,3.16,4.06,4.05,3.61,6.54-.34,1.88-2.57,2.46-2.4,4.14,.1,1.02,.96,1.33,2,2.4,2.67,2.76,1.31,5.19,4.14,10.29,.98,1.76,1.47,2.65,2.4,3.21,2.73,1.64,5.16-.82,8.41,.27,2.87,.96,2.08,3.24,5.61,6.01,4.47,3.51,8.33,1.9,9.88,4.94,.94,1.85-.45,2.51,.53,6.28,.46,1.78,1.08,4.14,3.07,5.48,1.52,1.02,2.67,.65,3.34,1.74Z"/><path class="j" d="M166.08,171.57c.84,1.91,2.06,3.64,1.54,4.12-.86,.8-5.55-2.7-5.34-3.07,.16-.28,2.88,1.48,3.47,.8,.23-.27,.16-.94-.18-1.71l.51-.14Z"/><path class="j" d="M160.38,67.24c1.23,.97,.24,3.07,0,7.81-.3,5.76,.93,7.31-.52,8.85-1.55,1.65-4.69,1.74-6.77,.87-1.94-.81-1.79-1.97-3.3-2.43-3.35-1.03-5.91,4.1-8.85,3.3-2.53-.69-1.71-4.78-5.55-7.81-2.45-1.93-3.69-.98-6.07-2.43-5.41-3.29-2.26-10.15-6.94-15.1-4.85-5.13-11.02-.69-16.83-6.77-2.02-2.12-5.13-6.68-3.82-10.07,.56-1.45,1.74-2.18,1.74-3.99,0-2.36-2-3.37-1.56-4.51,.55-1.42,3.75-.11,6.77-1.56,4.23-2.03,2.82-6.95,7.12-9.89,3.39-2.33,5.16,.12,9.37-2.08,3.82-2,3.31-4.51,8.5-9.72,2.73-2.74,6.5-6.52,9.02-5.55,2.54,.97,.86,5.6,4.51,10.24,3.12,3.96,7.37,4.43,7.12,5.9-.38,2.17-9.78,1.6-10.24,4.16-.25,1.4,2.43,2.25,2.26,3.82-.31,2.82-9.31,2.37-10.24,5.73-.65,2.36,2.9,5.89,6.42,7.46,5.08,2.27,9.99,.44,10.24,1.39,.22,.86-3.92,1.99-8.68,5.55-3.24,2.42-7.67,5.73-7.12,9.37,.35,2.31,2.67,4.51,5.03,4.86,3.26,.49,4.52-2.85,7.46-2.26,2.91,.59,3,4.12,6.42,4.86,2.3,.49,3.43-.85,4.51,0Z"/><path class="j" d="M111.27,7.72c1.69,1.58,3.43,4.39,2.6,5.55-.96,1.35-4.29-1.15-8.85,.35-2.17,.71-1.94,1.44-4.69,2.6-3.07,1.3-4.78,.98-8.16,1.56-2.96,.51-5.04,1.38-9.2,3.12-7.77,3.26-8.02,4.99-11.28,4.86-3.87-.15-7.58-2.75-8.85-5.9-.4-.99-.86-2.78-.17-3.3,.94-.71,2.85,1.91,6.6,2.95,.59,.16,5.62,1.49,9.2-1.04,2.94-2.08,2.96-5.39,5.55-5.73,1.36-.18,2.18,.63,3.3,0,1.23-.69,.84-2.02,1.91-2.95,1.5-1.31,3.39,.3,6.25-.17,3.43-.57,3.25-3.32,6.77-4.34,3.23-.93,6.83,.39,9.02,2.43Z"/></g></g></g><g><path class="f" d="M98.3,142.8c11.75-4.19,15.91-3.15,17.46-1.26,1.61,1.98,1.25,4.83,.59,8.91-1.96,12.24-8.08,16.7-5.92,21.02,1.85,3.72,7.03,1.68,9.49,5.72,3.31,5.41-4.15,11.88-1.19,17.83,1.14,2.29,5.04,3.68,12.48,6.54,4.67,1.79,8.17,3.13,12.48,4.16,13.31,3.18,16.89-.82,26.74,1.19,8.03,1.64,20.54,7.33,23.17,17.83,2.41,9.62-3.86,21.77-9.51,21.99-4.73,.18-10.68-7.95-8.91-12.48,3.05-7.82,30.95-9.67,36.84,1.78,2.8,5.44-.2,12.22-.59,13.07-2.68,5.86-7.48,7.74-17.23,13.67-13.69,8.32-16.2,8.56-18.42,12.48-3.18,5.6-3.56,13.95,.59,19.02,3.27,3.98,8.23,4.58,15.45,5.35,11.86,1.26,14.6-1.98,26.74-1.19,6.98,.45,12.94,.84,18.42,4.75,3.52,2.52,5.41,5.87,10.7,20.8,6.62,18.71,7.52,24.82,10.1,24.96,4.75,.24,4.06-20.24,17.83-27.93,7.27-4.06,18.51-4.51,23.17,1.19,3.63,4.45,1.99,11.08,1.78,11.88-1.93,7.38-8.4,10.05-17.23,17.23-4.39,3.57-10.41,9.09-16.64,17.23"/><g><ellipse class="l" cx="98.45" cy="142.93" rx="3.46" ry="2.79" transform="translate(-60.03 213.68) rotate(-79.5)"/><ellipse class="l" cx="109.53" cy="171.18" rx="3.46" ry="2.79" transform="translate(-78.75 247.67) rotate(-79.5)"/><ellipse class="l" cx="119.36" cy="196.08" rx="3.46" ry="2.79" transform="translate(-95.19 277.7) rotate(-79.5)"/><ellipse class="l" cx="159.17" cy="205.67" rx="3.46" ry="2.79" transform="translate(-72.07 324.68) rotate(-79.5)"/><ellipse class="l" cx="294.24" cy="342.42" rx="3.46" ry="2.79" transform="translate(-96.07 569.31) rotate(-79.5)"/><ellipse class="l" cx="252.33" cy="338.26" rx="3.46" ry="2.79" transform="translate(-126.25 524.7) rotate(-79.5)"/><path class="l" d="M176.37,283.56c-.35,1.88-1.86,3.18-3.37,2.89-1.52-.28-2.46-2.03-2.11-3.91,.35-1.88,1.86-3.18,3.37-2.89,1.52,.28,2.46,2.03,2.11,3.91Z"/><ellipse class="l" cx="266.12" cy="368.02" rx="3.46" ry="2.79" transform="translate(-144.24 562.6) rotate(-79.5)"/><ellipse class="l" cx="244.09" cy="312.62" rx="3.46" ry="2.79" transform="translate(-107.78 495.64) rotate(-79.5)"/></g></g></g><g><g><polygon class="h" points="34.84 170.96 37.68 170.96 77.21 170.96 79.94 170.96 78.81 173.23 77.53 173.23 37.47 173.23 34.34 173.23 33.73 173.23 32.08 170.96 34.84 170.96"/><polygon class="v" points="69.19 216.62 78.7 216.72 78.7 218.62 35.79 218.37 35.88 216.3 36.56 216.31 43.89 216.38 51.27 216.45 54.15 216.48 60.12 216.54 63.17 216.57 69.19 216.62"/><polygon class="q" points="78.7 218.62 77.76 219.57 36.74 219.32 35.95 219.31 35.79 218.37 78.7 218.62"/><polygon class="q" points="77.46 215.81 77.5 215.81 78.7 216.72 69.19 216.62 69.19 214.94 69.19 214.64 69.37 214.64 77.15 214.64 77.46 214.64 77.46 215.81"/><polygon class="u" points="71.09 180.21 43.87 180.06 38 180.03 37.15 178.07 37.47 178.08 77.53 178.39 77.94 178.39 77.09 180.24 71.09 180.21"/><polygon class="v" points="77.76 219.57 77.84 222.86 36.74 222.66 36.74 219.38 36.74 219.32 77.76 219.57"/><polygon class="q" points="43.62 223.93 36.95 223.89 36.74 222.66 77.84 222.86 77.13 224.15 70.58 224.11 69.05 224.1 45 223.94 43.62 223.93"/><polygon class="m" points="54.11 161.15 51.93 161.15 45.08 161.15 43.03 161.15 38 161.15 37.06 160.18 38.06 160.18 43.39 160.18 70.92 160.18 71.78 160.18 76.94 160.18 77.68 160.18 76.74 161.15 71.5 161.15 69.91 161.15 63.06 161.15 60.96 161.15 54.11 161.15"/><polygon class="h" points="77.13 224.15 77.65 373.8 69.32 373.85 69.32 373.82 70.58 224.15 70.58 224.11 77.13 224.15"/><polygon class="q" points="69.99 209.57 71.09 209.57 77.09 209.57 77.64 209.57 77.15 210.46 69.37 210.46 69.37 210.46 68.8 209.63 68.76 209.57 69.99 209.57"/><polygon class="v" points="77.53 173.23 77.53 178.39 37.47 178.08 37.47 173.27 37.47 173.23 77.53 173.23"/><polygon class="v" points="76.74 167.56 77.21 167.56 77.21 170.96 37.68 170.96 37.68 170.89 37.68 167.56 38 167.56 43.03 167.56 71.5 167.56 76.74 167.56"/><polygon class="v" points="77.15 214.62 77.15 214.64 69.37 214.64 69.37 214.59 69.37 210.46 77.15 210.46 77.15 214.62"/><polygon class="h" points="77.09 209.51 77.09 209.57 71.09 209.57 71.09 209.56 71.09 190.68 71.09 187.83 71.09 186.79 71.09 185.02 71.09 180.21 77.09 180.24 77.09 209.51"/><polygon class="q" points="72 158.64 76.62 158.64 76.94 158.64 76.94 160.15 76.94 160.18 71.78 160.18 71.78 160.15 71.78 158.64 72 158.64"/><polygon class="x" points="76.74 161.15 76.74 167.56 71.5 167.56 71.5 161.19 71.5 161.15 76.74 161.15"/><polygon class="p" points="76.62 158.59 76.62 158.64 72 158.64 72 157.01 72.22 157.01 76.38 157.01 76.62 157.01 76.62 158.59"/><polygon class="m" points="76.38 156.94 76.38 157.01 72.22 157.01 72.22 156.99 73.08 146.12 73.12 145.58 75.72 145.58 76.38 156.94"/><polygon class="w" points="73.08 146.12 72.22 156.99 72.22 157.01 72 157.01 72 158.64 71.78 158.64 71.78 160.15 71.78 160.18 70.92 160.18 70.92 160.18 70.92 150.92 71.74 149.42 71.26 149.42 71.26 147.56 70.33 147.56 70.33 146.12 70.38 146.12 73.05 146.12 73.08 146.12"/><polygon class="q" points="71.26 149.42 71.74 149.42 70.92 150.92 42.33 150.92 42.24 149.42 71.26 149.42"/><polygon class="q" points="71.5 161.19 71.5 167.56 43.03 167.56 43.03 161.16 43.03 161.15 45.08 161.15 45.08 165.64 51.93 165.64 51.93 161.16 51.93 161.15 54.11 161.15 54.11 165.64 60.96 165.64 60.96 161.16 60.96 161.15 63.06 161.15 63.06 165.64 69.91 165.64 69.91 161.16 69.91 161.15 71.5 161.15 71.5 161.19"/><polygon class="p" points="70.33 147.56 71.26 147.56 71.26 149.42 42.24 149.42 42.12 147.56 42.18 147.56 70.33 147.56"/><polygon class="v" points="71.09 209.56 71.09 209.57 69.99 209.57 69.99 190.68 70.99 190.68 71.09 190.68 71.09 209.56"/><polygon class="p" points="71.09 187.83 71.09 190.68 70.99 190.68 69.99 190.68 69.76 189.59 69.76 187.83 70.99 187.83 71.09 187.83"/><polygon class="q" points="71.09 186.79 71.09 187.83 70.99 187.83 69.76 187.83 69.42 186.79 70.01 186.79 70.96 186.79 71.09 186.79"/><path class="v" d="M71.09,185.02v1.77h-1.08c.05-2.28-1.88-4.04-3.91-3.87-1.82,.15-3.36,1.83-3.3,3.87h-2.04v-.03c.17-2.16-1.58-3.96-3.57-3.91-1.9,.05-3.52,1.78-3.39,3.85v.05h-2.14v-.08c.16-2.07-1.46-3.8-3.36-3.84-1.97-.04-3.7,1.75-3.51,3.91v.02h-.92v-2.23c.77-1.81,2.58-2.99,4.55-2.95,2.04,.04,3.85,1.38,4.48,3.33,.55-1.98,2.33-3.36,4.34-3.39,2.11-.03,4.01,1.44,4.52,3.54,.72-2.01,2.65-3.34,4.76-3.29,2.03,.04,3.84,1.34,4.55,3.26h.01Z"/><path class="p" d="M71.09,180.21v4.81h-.01c-.71-1.92-2.52-3.22-4.55-3.26-2.11-.04-4.04,1.29-4.76,3.29-.51-2.1-2.41-3.57-4.52-3.54-2.01,.03-3.79,1.41-4.34,3.39-.64-1.94-2.44-3.28-4.48-3.33-1.98-.04-3.79,1.13-4.55,2.95v-4.46l27.21,.15Z"/><polygon class="h" points="70.92 160.18 70.92 160.18 43.39 160.18 43.39 160.16 43.39 158.52 42.86 158.52 42.86 156.66 42.68 156.66 42.68 156.57 42.33 150.92 70.92 150.92 70.92 160.18"/><polygon class="t" points="70.58 224.11 70.58 224.15 69.32 373.82 69.32 373.85 68.03 373.85 69.05 224.15 69.05 224.1 70.58 224.11"/><polygon class="q" points="69.5 145.69 70.33 145.69 70.33 146.12 70.33 147.56 42.18 147.56 42.12 147.56 42.01 145.69 42.04 145.69 42.87 145.69 69.5 145.69"/><path class="i" d="M66.1,182.91c2.02-.17,3.96,1.6,3.91,3.87h-.58l.34,1.05v1.76l.22,1.08v18.89h-1.23l.04,.06-.04,.03h-5.6v-.21h-.4v-1.12l.03-18.12,.47-1.31h-.44v-.86l.66-1.25h-.66c-.06-2.04,1.47-3.73,3.3-3.88Z"/><polygon class="i" points="69.91 161.16 69.91 165.64 63.06 165.64 63.06 161.15 69.91 161.15 69.91 161.16"/><polygon class="o" points="69.5 143.99 69.5 145.69 42.87 145.69 42.87 145.61 42.87 143.99 43.65 143.99 47.17 143.99 68.75 143.99 69.5 143.99"/><path class="v" d="M69.37,214.59v.05h-.18v.3h-.7v-4.51c.5,0,.83,.02,.88,.03h0v4.13Z"/><path class="u" d="M65.2,210.42h-.58c-.28,0-.54,0-.75,0h-.71v-.76h5.6l.04-.03,.57,.83s-.38-.02-.88-.03c-.22,0-.48,0-.75,0-.19,0-.38,0-.58,0-.24,0-.5,0-.75,0-.15,0-.3,0-.45,0h-.75Z"/><polygon class="u" points="64.62 214.94 66.4 214.94 67.16 214.94 68.49 214.94 69.19 214.94 69.19 216.62 63.17 216.57 63.17 216.55 63.17 214.94 63.87 214.94 64.62 214.94"/><polygon class="h" points="69.05 224.1 69.05 224.15 68.03 373.85 44.03 374 44.03 373.95 45 223.96 45 223.94 69.05 224.1"/><path class="h" d="M68.75,143.91v.08h-21.58v-.02l7.17-43.16h4.5l9.91,43.1Zm-3.76-1.67l-7.47-40.24h-1.33l-6.85,40.24h15.65Z"/><path class="i" d="M67.74,210.43c.27,0,.53,0,.75,0v4.51h-1.34v-4.52c.2,0,.4,0,.58,0Z"/><path class="v" d="M67.16,210.42v4.52h-.75v-4.52c.26,0,.51,0,.75,0Z"/><path class="i" d="M65.95,210.42c.15,0,.3,0,.45,0v4.52h-1.79v-4.52h1.33Z"/><polygon class="i" points="57.52 102 64.99 142.24 49.34 142.24 56.19 102 57.52 102"/><path class="v" d="M64.62,210.42v4.52h-.75v-4.53c.21,0,.47,0,.75,0Z"/><path class="i" d="M63.87,214.91v.03h-.69v-.3h-.29v-4.06h.27v-.17h.71v4.49Z"/><polygon class="q" points="63.46 186.79 62.81 188.04 60.37 188.04 59.75 186.79 60.76 186.79 62.8 186.79 63.46 186.79"/><polygon class="q" points="63.25 188.9 62.78 190.21 60.44 190.21 59.97 188.9 60.37 188.9 62.81 188.9 63.25 188.9"/><polygon class="q" points="63.17 216.55 63.17 216.57 60.12 216.54 60.12 216.47 60.12 214.94 60.12 214.64 60.36 214.64 62.88 214.64 63.17 214.64 63.17 214.94 63.17 216.55"/><polygon class="q" points="60.36 210.58 60.14 210.58 60.14 210.41 60.14 209.66 60.14 209.44 60.47 209.44 62.75 209.44 63.15 209.44 63.15 209.66 63.15 210.41 63.15 210.58 62.88 210.58 60.36 210.58"/><polygon class="v" points="62.88 210.59 62.88 214.64 60.36 214.64 60.36 210.58 62.88 210.58 62.88 210.59"/><polygon class="p" points="62.81 188.86 62.81 188.9 60.37 188.9 60.37 188.04 62.81 188.04 62.81 188.86"/><polygon class="v" points="62.78 190.21 62.75 208.32 60.47 208.32 60.44 208.32 60.44 190.21 62.78 190.21"/><polygon class="p" points="62.75 209.4 62.75 209.44 60.47 209.44 60.47 209.37 60.47 208.32 62.75 208.32 62.75 209.4"/><polygon class="i" points="60.96 161.16 60.96 165.64 54.11 165.64 54.11 161.15 60.96 161.15 60.96 161.16"/><path class="i" d="M57.19,182.85c1.99-.05,3.75,1.75,3.57,3.91v.03h-1.01l.62,1.25v.86h-.4l.47,1.31v18.12h.03v1.12h-.33v.21h-5.99v-.21h-.24v-1.13h0v-18.2l.5-1.27h-.45v-.86l.7-1.25h-.87v-.05c-.13-2.06,1.49-3.8,3.39-3.85Z"/><polygon class="i" points="60.36 210.58 60.36 214.64 60.12 214.64 60.12 214.94 60.08 214.94 59.52 214.94 59.52 210.41 60.14 210.41 60.14 210.58 60.36 210.58"/><polygon class="u" points="56.98 210.41 56.22 210.41 55.64 210.41 54.89 210.41 54.18 210.41 54.15 210.41 54.15 209.66 54.16 209.66 60.13 209.66 60.14 209.66 60.14 210.41 59.52 210.41 58.76 210.41 58.18 210.41 57.43 210.41 56.98 210.41"/><polygon class="u" points="59.52 214.94 60.08 214.94 60.12 214.94 60.12 216.47 60.12 216.54 54.15 216.48 54.15 214.94 54.89 214.94 55.64 214.94 56.22 214.94 56.98 214.94 57.43 214.94 58.18 214.94 58.76 214.94 59.52 214.94"/><rect class="v" x="58.76" y="210.41" width=".75" height="4.53"/><polygon class="s" points="56.22 81.83 56.95 81.83 57.17 81.83 57.17 83.88 57.78 85.06 58.27 83.3 59.3 81.6 58.83 83.49 58.83 85.68 54.29 85.68 54.29 85.53 54.29 82.96 53.82 81.58 54.84 82.88 55.18 85.06 55.89 83.91 55.87 81.83 56.22 81.83"/><polygon class="o" points="58.95 85.68 58.33 86.56 54.53 86.56 53.91 85.68 54.29 85.68 58.83 85.68 58.95 85.68"/><polygon class="o" points="55.21 97.96 58.84 97.97 58.84 100.81 54.34 100.81 53.44 100.85 53.44 97.95 54.08 97.95 55.21 97.96"/><polygon class="h" points="58.84 96.02 58.84 97.97 55.21 97.96 55.21 96.02 58.84 96.02"/><polygon class="s" points="58.39 94.47 58.84 96.02 55.21 96.02 54.08 96.02 54.55 94.47 58.33 94.47 58.39 94.47"/><polygon class="i" points="58.76 210.41 58.76 214.94 58.18 214.94 58.18 210.48 58.18 210.41 58.76 210.41"/><polygon class="o" points="58.33 92.91 58.33 94.47 54.55 94.47 54.55 92.91 58.33 92.91 58.33 92.91"/><polygon class="h" points="58.33 86.56 58.33 92.91 54.55 92.91 54.53 92.91 54.53 86.56 58.33 86.56"/><polygon class="v" points="58.18 210.48 58.18 214.94 57.43 214.94 57.43 210.45 57.43 210.41 58.18 210.41 58.18 210.48"/><polygon class="i" points="57.43 210.45 57.43 214.94 56.98 214.94 56.98 210.41 57.43 210.41 57.43 210.45"/><polygon class="v" points="56.98 210.41 56.98 214.94 56.22 214.94 56.22 214.9 56.22 210.41 56.98 210.41"/><polygon class="o" points="56.95 81.83 56.22 81.83 56.58 73.72 56.95 81.83"/><polygon class="i" points="56.22 214.9 56.22 214.94 55.64 214.94 55.64 210.45 55.64 210.41 56.22 210.41 56.22 214.9"/><polygon class="v" points="55.64 210.45 55.64 214.94 54.89 214.94 54.89 210.41 55.64 210.41 55.64 210.45"/><polygon class="w" points="55.21 96.02 55.21 97.96 54.08 97.95 54.08 97.92 54.08 96.02 55.21 96.02"/><polygon class="i" points="54.89 210.41 54.89 214.94 54.15 214.94 54.15 214.6 53.91 214.6 53.91 214.59 53.91 210.61 53.91 210.58 54.15 210.58 54.15 210.41 54.18 210.41 54.89 210.41"/><polygon class="q" points="54.67 186.74 53.97 187.99 51.38 187.99 50.72 186.74 51.66 186.74 53.8 186.74 54.67 186.74"/><polygon class="q" points="53.97 188.85 54.42 188.85 53.91 190.12 51.54 190.12 51.47 190.12 50.97 188.85 51.38 188.85 53.97 188.85"/><polygon class="w" points="54.34 100.81 47.17 143.97 47.17 143.99 43.65 143.99 43.65 143.88 53.44 100.85 54.34 100.81"/><polygon class="q" points="51.49 214.6 53.91 214.6 54.15 214.6 54.15 214.94 54.15 216.48 51.27 216.45 51.27 216.38 51.27 215.02 51.27 214.6 51.49 214.6"/><polygon class="q" points="51.49 210.58 51.27 210.58 51.27 210.41 51.27 209.66 51.27 209.44 51.53 209.44 53.91 209.44 54.15 209.44 54.15 209.66 54.15 210.41 54.15 210.58 53.91 210.58 51.49 210.58"/><rect class="p" x="51.38" y="187.99" width="2.59" height=".86"/><polygon class="v" points="53.91 190.12 53.91 208.32 53.91 208.32 51.54 208.32 51.54 190.17 51.54 190.12 53.91 190.12"/><polygon class="v" points="53.91 214.59 53.91 214.6 51.49 214.6 51.49 210.58 53.91 210.58 53.91 210.61 53.91 214.59"/><polygon class="p" points="51.54 208.32 53.91 208.32 53.91 209.41 53.91 209.44 51.53 209.44 51.53 209.41 51.53 208.32 51.54 208.32"/><polygon class="i" points="51.93 161.16 51.93 165.64 45.08 165.64 45.08 161.15 51.93 161.15 51.93 161.16"/><path class="i" d="M48.31,182.82c1.89,.04,3.51,1.78,3.36,3.84v.08h-.95l.66,1.25v.86h-.41l.5,1.27h.07v18.2h0v1.13h-.26v.21h-6.4v-19.02l.22-1.08v-1.76l.34-1.05h-.64v-.02c-.2-2.15,1.54-3.95,3.51-3.91Z"/><polygon class="v" points="51.49 210.58 51.49 214.6 51.27 214.6 51.27 215.02 51.18 215.02 50.57 215.02 50.57 214.99 50.57 210.42 50.57 210.41 51.22 210.41 51.27 210.41 51.27 210.58 51.49 210.58"/><polygon class="u" points="48.73 215.02 50.07 215.02 50.57 215.02 51.18 215.02 51.27 215.02 51.27 216.38 51.27 216.45 43.89 216.38 43.89 215.02 44.02 215.02 44.72 215.02 45.44 215.02 46.19 215.02 47.98 215.02 48.73 215.02"/><polygon class="u" points="46.77 210.41 46.19 210.41 45.44 210.41 44.72 210.41 43.59 210.41 44.17 209.65 44.18 209.66 44.87 209.66 51.21 209.66 51.27 209.66 51.27 210.41 51.22 210.41 50.57 210.41 50.07 210.41 49.31 210.41 48.73 210.41 47.98 210.41 47.53 210.41 46.77 210.41"/><polygon class="i" points="50.57 214.99 50.57 215.02 50.07 215.02 50.07 215 50.07 210.41 50.57 210.41 50.57 210.42 50.57 214.99"/><polygon class="v" points="49.31 210.41 50.07 210.41 50.07 215 50.07 215.02 48.73 215.02 48.73 210.48 48.73 210.41 49.31 210.41"/><polygon class="i" points="48.73 210.48 48.73 215.02 47.98 215.02 47.98 215.02 47.98 210.45 47.98 210.41 48.73 210.41 48.73 210.48"/><polygon class="v" points="47.53 210.41 47.98 210.41 47.98 210.45 47.98 215.02 47.98 215.02 46.19 215.02 46.19 210.44 46.19 210.41 46.77 210.41 47.53 210.41"/><polygon class="i" points="46.19 210.44 46.19 215.02 45.44 215.02 45.44 214.98 45.44 210.41 46.19 210.41 46.19 210.44"/><polygon class="v" points="45.44 214.98 45.44 215.02 44.72 215.02 44.72 214.98 44.72 210.44 44.72 210.41 45.44 210.41 45.44 214.98"/><polygon class="q" points="45.43 186.75 45.09 187.8 43.87 187.8 43.87 186.75 43.9 186.75 44.8 186.75 45.43 186.75"/><polygon class="p" points="45.09 187.8 45.09 189.55 44.87 190.64 43.87 190.64 43.87 187.8 45.09 187.8"/><polygon class="t" points="45 223.94 45 223.96 44.03 373.95 44.03 374 42.37 374.01 42.37 373.94 43.62 223.93 45 223.94"/><polygon class="v" points="44.87 209.59 44.87 209.66 44.18 209.66 44.17 209.65 44.31 209.45 43.87 209.45 43.87 209.43 43.87 190.64 44.87 190.64 44.87 209.59"/><polygon class="i" points="44.72 214.98 44.72 215.02 44.02 215.02 43.89 215.02 43.89 214.52 43.59 214.52 43.59 214.48 43.59 210.41 44.72 210.41 44.72 210.44 44.72 214.98"/><polygon class="q" points="44.31 209.45 44.17 209.65 43.59 210.41 36.54 210.41 35.82 209.45 38 209.45 43.87 209.45 44.31 209.45"/><polygon class="q" points="43.89 215.02 43.89 216.38 36.56 216.31 36.56 216.21 36.56 214.52 43.59 214.52 43.89 214.52 43.89 215.02"/><polygon class="h" points="43.87 184.52 43.87 186.75 43.87 187.8 43.87 190.64 43.87 209.43 43.87 209.45 38 209.45 38 209.38 38 180.03 43.87 180.06 43.87 180.1 43.87 184.52"/><polygon class="h" points="43.62 223.93 42.37 373.94 42.37 374.01 34.38 374.05 36.95 223.89 43.62 223.93"/><polygon class="v" points="43.59 214.48 43.59 214.52 36.56 214.52 36.54 210.41 43.59 210.41 43.59 214.48"/><polygon class="q" points="42.86 158.52 43.39 158.52 43.39 160.16 43.39 160.18 38.06 160.18 38.06 160.13 38.06 158.75 38.06 158.52 38.3 158.52 42.86 158.52"/><polygon class="x" points="43.03 161.16 43.03 167.56 38 167.56 38 161.15 43.03 161.15 43.03 161.16"/><polygon class="p" points="42.86 156.66 42.86 158.52 38.3 158.52 38.3 158.46 38.3 156.82 38.3 156.66 38.53 156.66 42.68 156.66 42.86 156.66"/><polygon class="m" points="39.33 145.47 39.36 145.08 41.97 145.08 42.01 145.69 42.12 147.56 42.24 149.42 42.33 150.92 42.68 156.57 42.68 156.66 38.53 156.66 38.53 156.57 39.33 145.47"/><polygon class="w" points="39.33 145.47 38.53 156.57 38.53 156.66 38.3 156.66 38.3 156.82 38.29 156.82 36.04 156.82 36.04 156.77 37.04 145.47 39.33 145.47"/><polygon class="o" points="38.3 158.46 38.3 158.52 38.06 158.52 38.06 158.75 38.04 158.75 35.69 158.75 35.69 158.65 35.69 156.82 36.04 156.82 38.29 156.82 38.3 156.82 38.3 158.46"/><polygon class="w" points="38.06 160.13 38.06 160.18 37.06 160.18 35.39 160.18 35.39 160.16 35.39 158.75 35.69 158.75 38.04 158.75 38.06 158.75 38.06 160.13"/><polygon class="w" points="38 209.38 38 209.45 35.82 209.45 34.72 209.44 34.72 209.44 34.72 180 38 180.03 38 209.38"/><polygon class="w" points="38 161.15 38 167.56 37.68 167.56 35.32 167.49 35.32 167.45 35.32 161.15 38 161.15"/><polygon class="o" points="37.06 160.18 38 161.15 35.32 161.15 34.67 160.18 35.39 160.18 37.06 160.18"/><polygon class="o" points="34.34 178.08 37.15 178.07 38 180.03 34.72 180 34.24 178.08 34.34 178.08"/><polygon class="o" points="37.68 170.89 37.68 170.96 34.84 170.96 34.84 167.48 35.32 167.49 37.68 167.56 37.68 170.89"/><polygon class="w" points="37.47 173.27 37.47 178.08 37.15 178.07 34.34 178.08 34.34 173.36 34.34 173.23 37.47 173.23 37.47 173.27"/><polygon class="o" points="33.91 221.8 36.74 222.66 36.95 223.89 34.12 223.38 33.41 221.65 33.91 221.8"/><polygon class="w" points="36.95 223.89 34.38 374.05 30.77 372.25 34.12 223.38 36.95 223.89"/><polygon class="w" points="36.74 219.32 36.74 219.38 36.74 222.66 33.91 221.8 33.91 218.78 35.95 219.31 36.74 219.32"/><polygon class="o" points="34.32 215.31 34.32 213.8 34.55 213.87 36.56 214.52 36.56 216.21 36.56 216.31 35.88 216.3 32.98 215.56 32.97 215.49 34.29 215.31 34.32 215.31"/><polygon class="w" points="36.54 210.41 36.56 214.52 34.55 213.87 34.55 213.86 34.55 210.35 36.54 210.41"/><polygon class="o" points="35.82 209.45 36.54 210.41 34.55 210.35 34.53 209.44 34.72 209.44 35.82 209.45"/><polygon class="o" points="35.79 218.37 35.95 219.31 33.91 218.78 32.98 217.46 35.79 218.37"/><polygon class="w" points="35.88 216.3 35.79 218.37 32.98 217.46 32.98 215.56 35.88 216.3"/></g><text class="r" transform="translate(55.75 229.63) rotate(-5.32)"><tspan x="0" y="0">X</tspan></text><text class="r" transform="translate(57.37 229.51) rotate(2.66)"><tspan x="0" y="0">I</tspan></text><text class="r" transform="translate(58.05 229.54) rotate(7.4)"><tspan x="0" y="0">I</tspan></text><text class="r" transform="translate(58.71 229.62) rotate(11.84)"><tspan x="0" y="0"> </tspan></text><text class="r" transform="translate(59.29 229.74) rotate(16.06)"><tspan x="0" y="0"> </tspan></text><text class="r" transform="translate(59.86 229.9) rotate(20.29)"><tspan x="0" y="0"> </tspan></text><text class="r" transform="translate(60.42 230.1) rotate(24.73)"><tspan x="0" y="0">I</tspan></text><text class="r" transform="translate(61.04 230.39) rotate(29.12)"><tspan x="0" y="0"> </tspan></text><text class="r" transform="translate(61.55 230.67) rotate(33.3)"><tspan x="0" y="0"> </tspan></text><text class="r" transform="translate(62.07 231.01) rotate(37.46)"><tspan x="0" y="0"> </tspan></text><text class="r" transform="translate(62.54 231.37) rotate(41.85)"><tspan x="0" y="0">I</tspan></text><text class="r" transform="translate(63.04 231.81) rotate(46.57)"><tspan x="0" y="0">I</tspan></text><text class="r" transform="translate(63.51 232.3) rotate(51.07)"><tspan x="0" y="0"> </tspan></text><text class="r" transform="translate(63.88 232.77) rotate(55.21)"><tspan x="0" y="0"> </tspan></text><text class="r" transform="translate(64.23 233.26) rotate(59.42)"><tspan x="0" y="0"> </tspan></text><text class="r" transform="translate(64.53 233.76) rotate(63.89)"><tspan x="0" y="0">I</tspan></text><text class="r" transform="translate(64.83 234.38) rotate(68.66)"><tspan x="0" y="0">I</tspan></text><text class="r" transform="translate(65.08 235) rotate(73.51)"><tspan x="0" y="0">I</tspan></text><text class="r" transform="translate(65.26 235.64) rotate(75.37)"><tspan x="0" y="0"> </tspan></text><text class="r" transform="translate(65.4 236.2) rotate(82.1)"><tspan x="0" y="0"> </tspan></text><text class="r" transform="translate(65.48 236.82) rotate(85.95)"><tspan x="0" y="0"> </tspan></text><text class="r" transform="translate(65.53 237.39) rotate(90.43)"><tspan x="0" y="0">I</tspan></text><text class="r" transform="translate(65.52 238.05) rotate(95.19)"><tspan x="0" y="0">I</tspan></text><text class="r" transform="translate(65.46 238.74) rotate(99.91)"><tspan x="0" y="0">I</tspan></text><text class="r" transform="translate(65.35 239.38) rotate(104.6)"><tspan x="0" y="0">I</tspan></text><text class="r" transform="translate(65.18 240.04) rotate(109.09)"><tspan x="0" y="0"> </tspan></text><text class="r" transform="translate(64.99 240.6) rotate(113.31)"><tspan x="0" y="0"> </tspan></text><text class="r" transform="translate(64.76 241.14) rotate(117.45)"><tspan x="0" y="0"> </tspan></text><text class="r" transform="translate(64.49 241.68) rotate(121.85)"><tspan x="0" y="0">I</tspan></text><text class="r" transform="translate(64.18 242.25) rotate(129.68)"><tspan x="0" y="0">V</tspan></text><text class="r" transform="translate(63.13 243.46) rotate(137.24)"><tspan x="0" y="0"> </tspan></text><text class="r" transform="translate(62.7 243.87) rotate(141.48)"><tspan x="0" y="0"> </tspan></text><text class="r" transform="translate(62.24 244.24) rotate(145.69)"><tspan x="0" y="0"> </tspan></text><text class="r" transform="translate(61.86 244.55) rotate(152.58)"><tspan x="0" y="0">V</tspan></text><text class="r" transform="translate(60.44 245.25) rotate(160.19)"><tspan x="0" y="0"> </tspan></text><text class="r" transform="translate(59.88 245.45) rotate(164.33)"><tspan x="0" y="0"> </tspan></text><text class="r" transform="translate(59.3 245.62) rotate(168.48)"><tspan x="0" y="0"> </tspan></text><text class="r" transform="translate(58.84 245.75) rotate(175.31)"><tspan x="0" y="0">V</tspan></text><text class="r" transform="translate(57.24 245.86) rotate(-176.84)"><tspan x="0" y="0">I</tspan></text><text class="r" transform="translate(56.6 245.82) rotate(-172.37)"><tspan x="0" y="0"> </tspan></text><text class="r" transform="translate(56.01 245.74) rotate(-168.19)"><tspan x="0" y="0"> </tspan></text><text class="r" transform="translate(55.42 245.62) rotate(-163.98)"><tspan x="0" y="0"> </tspan></text><text class="r" transform="translate(54.96 245.54) rotate(-157.03)"><tspan x="0" y="0">V</tspan></text><text class="r" transform="translate(53.49 244.88) rotate(-149.24)"><tspan x="0" y="0">I</tspan></text><text class="r" transform="translate(52.9 244.53) rotate(-144.53)"><tspan x="0" y="0">I</tspan></text><text class="r" transform="translate(52.37 244.15) rotate(-140.13)"><tspan x="0" y="0"> </tspan></text><text class="r" transform="translate(51.9 243.76) rotate(-135.98)"><tspan x="0" y="0"> </tspan></text><text class="r" transform="translate(51.47 243.35) rotate(-131.76)"><tspan x="0" y="0"> </tspan></text><text class="r" transform="translate(51.14 243.05) rotate(-124.85)"><tspan x="0" y="0">V</tspan></text><text class="r" transform="translate(50.25 241.72) rotate(-116.99)"><tspan x="0" y="0">I</tspan></text><text class="r" transform="translate(49.94 241.13) rotate(-112.22)"><tspan x="0" y="0">I</tspan></text><text class="r" transform="translate(49.68 240.5) rotate(-107.72)"><tspan x="0" y="0"> </tspan></text><text class="r" transform="translate(49.5 239.93) rotate(-103.36)"><tspan x="0" y="0"> </tspan></text><text class="r" transform="translate(49.36 239.37) rotate(-99.28)"><tspan x="0" y="0"> </tspan></text><text class="r" transform="translate(49.26 238.76) rotate(-95.13)"><tspan x="0" y="0">I</tspan></text><text class="r" transform="translate(49.16 238.12) rotate(-87.14)"><tspan x="0" y="0">X</tspan></text><text class="r" transform="translate(49.27 236.48) rotate(-79.41)"><tspan x="0" y="0"> </tspan></text><text class="r" transform="translate(49.38 235.89) rotate(-75.24)"><tspan x="0" y="0"> </tspan></text><text class="r" transform="translate(49.53 235.32) rotate(-71.02)"><tspan x="0" y="0"> </tspan></text><text class="r" transform="translate(49.67 234.79) rotate(-63.29)"><tspan x="0" y="0">X</tspan></text><text class="r" transform="translate(50.45 233.32) rotate(-55.63)"><tspan x="0" y="0"> </tspan></text><text class="r" transform="translate(50.78 232.83) rotate(-51.45)"><tspan x="0" y="0"> </tspan></text><text class="r" transform="translate(51.15 232.37) rotate(-47.32)"><tspan x="0" y="0"> </tspan></text><text class="r" transform="translate(51.49 231.94) rotate(-39.56)"><tspan x="0" y="0">X</tspan></text><text class="r" transform="translate(52.77 230.91) rotate(-31.53)"><tspan x="0" y="0">I</tspan></text><g><polyline class="g" points="57.35 231.63 57.35 237.68 62.02 241.29"/><path class="q" d="M57.35,231.91l.57,.35v-.02l-.36-.93-.21-.97c-.07,.32-.14,.65-.21,.97l-.37,.93v.02l.58-.35Z"/><path class="q" d="M61.79,241.11l.07-.66h.02l.51,.86c.21,.25,.43,.51,.64,.76-.3-.14-.6-.28-.9-.42l-.96-.28v-.02l.61-.24Z"/></g></g></g></svg>