<svg width="1440" height="521" viewBox="0 0 1440 521" fill="none" xmlns="http://www.w3.org/2000/svg">
<path fill-rule="evenodd" clip-rule="evenodd" d="M1440 0H1324.68H1313H993.507H662.338H331.169V9.41493H352.459V30.5996H331.169V273.046H352.459V294.23H331.169V306H662.338H993.507H1313H1324.68H1440V294.23H1424.47V273.046H1440V30.5996H1424.47V9.41493H1440V0ZM331.169 0H0L-4.77664e-06 9.41493H21.2894V30.5996H-4.77664e-06V273.046H21.2894V294.23H-4.77664e-06L0 306H331.169V0ZM33.1169 9.41493H54.4064V30.5996H33.1169V9.41493ZM87.5233 9.41493H66.2339V30.5996H87.5233V9.41493ZM264.935 9.41493H286.225V30.5996H264.935V9.41493ZM319.342 9.41493H298.052V30.5996H319.342V9.41493ZM198.701 9.41493H219.991V30.5996H198.701V9.41493ZM253.108 9.41493H231.818V30.5996H253.108V9.41493ZM99.3508 9.41493H120.64V30.5996H99.3508V9.41493ZM153.757 9.41493H132.468V30.5996H153.757V9.41493ZM165.585 9.41493H186.874V30.5996H165.585V9.41493ZM33.1169 273.046H54.4064V294.23H33.1169V273.046ZM87.5233 273.046H66.2339V294.23H87.5233V273.046ZM264.935 273.046H286.225V294.23H264.935V273.046ZM319.342 273.046H298.052V294.23H319.342V273.046ZM198.701 273.046H219.991V294.23H198.701V273.046ZM253.108 273.046H231.818V294.23H253.108V273.046ZM99.3508 273.046H120.64V294.23H99.3508V273.046ZM153.757 273.046H132.468V294.23H153.757V273.046ZM165.585 273.046H186.874V294.23H165.585V273.046ZM993.507 9.41493V30.5996H1014.8V9.41493H993.507ZM993.507 273.046V294.23H1014.8V273.046H993.507ZM662.338 294.23V273.046H683.628V294.23H662.338ZM662.338 30.5996V9.41493H683.628V30.5996H662.338ZM364.286 9.41493H385.576V30.5996H364.286V9.41493ZM418.693 9.41493H397.403V30.5996H418.693V9.41493ZM596.105 9.41493H617.394V30.5996H596.105V9.41493ZM650.511 9.41493H629.221V30.5996H650.511V9.41493ZM529.871 9.41493H551.16V30.5996H529.871V9.41493ZM584.277 9.41493H562.988V30.5996H584.277V9.41493ZM430.52 9.41493H451.809V30.5996H430.52V9.41493ZM484.926 9.41493H463.637V30.5996H484.926V9.41493ZM496.754 9.41493H518.043V30.5996H496.754V9.41493ZM364.286 273.046H385.576V294.23H364.286V273.046ZM418.693 273.046H397.403V294.23H418.693V273.046ZM596.105 273.046H617.394V294.23H596.105V273.046ZM650.511 273.046H629.221V294.23H650.511V273.046ZM529.871 273.046H551.16V294.23H529.871V273.046ZM584.277 273.046H562.988V294.23H584.277V273.046ZM430.52 273.046H451.809V294.23H430.52V273.046ZM484.926 273.046H463.637V294.23H484.926V273.046ZM496.754 273.046H518.043V294.23H496.754V273.046ZM716.745 9.41493H695.455V30.5996H716.745V9.41493ZM728.572 9.41493H749.862V30.5996H728.572V9.41493ZM948.563 9.41493H927.274V30.5996H948.563V9.41493ZM960.391 9.41493H981.68V30.5996H960.391V9.41493ZM882.329 9.41493H861.04V30.5996H882.329V9.41493ZM894.157 9.41493H915.446V30.5996H894.157V9.41493ZM782.978 9.41493H761.689V30.5996H782.978V9.41493ZM794.806 9.41493H816.095V30.5996H794.806V9.41493ZM849.212 9.41493H827.923V30.5996H849.212V9.41493ZM716.745 273.046H695.455V294.23H716.745V273.046ZM728.572 273.046H749.862V294.23H728.572V273.046ZM948.563 273.046H927.274V294.23H948.563V273.046ZM960.391 273.046H981.68V294.23H960.391V273.046ZM882.329 273.046H861.04V294.23H882.329V273.046ZM894.157 273.046H915.446V294.23H894.157V273.046ZM782.978 273.046H761.689V294.23H782.978V273.046ZM794.806 273.046H816.095V294.23H794.806V273.046ZM849.212 273.046H827.923V294.23H849.212V273.046ZM1026.62 9.41493H1047.91V30.5996H1026.62V9.41493ZM1081.03 9.41493H1059.74V30.5996H1081.03V9.41493ZM1258.44 9.41493H1279.73V30.5996H1258.44V9.41493ZM1312.85 9.41493H1291.56V30.5996H1312.85V9.41493ZM1192.21 9.41493H1213.5V30.5996H1192.21V9.41493ZM1246.62 9.41493H1225.33V30.5996H1246.62V9.41493ZM1092.86 9.41493H1114.15V30.5996H1092.86V9.41493ZM1147.26 9.41493H1125.97V30.5996H1147.26V9.41493ZM1159.09 9.41493H1180.38V30.5996H1159.09V9.41493ZM1026.62 273.046H1047.91V294.23H1026.62V273.046ZM1081.03 273.046H1059.74V294.23H1081.03V273.046ZM1258.44 273.046H1279.73V294.23H1258.44V273.046ZM1312.85 273.046H1291.56V294.23H1312.85V273.046ZM1192.21 273.046H1213.5V294.23H1192.21V273.046ZM1246.62 273.046H1225.33V294.23H1246.62V273.046ZM1092.86 273.046H1114.15V294.23H1092.86V273.046ZM1147.26 273.046H1125.97V294.23H1147.26V273.046ZM1159.09 273.046H1180.38V294.23H1159.09V273.046ZM1346.41 9.41493H1325.12V30.5996H1346.41V9.41493ZM1358.23 9.41493H1379.52V30.5996H1358.23V9.41493ZM1412.64 9.41493H1391.35V30.5996H1412.64V9.41493ZM1346.41 273.046H1325.12V294.23H1346.41V273.046ZM1358.23 273.046H1379.52V294.23H1358.23V273.046ZM1412.64 273.046H1391.35V294.23H1412.64V273.046Z" fill="black"/>
<path fill-rule="evenodd" clip-rule="evenodd" d="M1440 215H1324.68H1313H993.507H662.338H331.169V224.415H352.459V245.6H331.169V488.046H352.459V509.23H331.169V521H662.338H993.507H1313H1324.68H1440V509.23H1424.47V488.046H1440V245.6H1424.47V224.415H1440V215ZM331.169 215H4.77664e-06L0 224.415H21.2894V245.6H0V488.046H21.2894V509.23H0L4.77664e-06 521H331.169V215ZM33.1169 224.415H54.4064V245.6H33.1169V224.415ZM87.5233 224.415H66.2339V245.6H87.5233V224.415ZM264.935 224.415H286.225V245.6H264.935V224.415ZM319.342 224.415H298.052V245.6H319.342V224.415ZM198.701 224.415H219.991V245.6H198.701V224.415ZM253.108 224.415H231.818V245.6H253.108V224.415ZM99.3508 224.415H120.64V245.6H99.3508V224.415ZM153.757 224.415H132.468V245.6H153.757V224.415ZM165.585 224.415H186.874V245.6H165.585V224.415ZM33.1169 488.046H54.4064V509.23H33.1169V488.046ZM87.5233 488.046H66.2339V509.23H87.5233V488.046ZM264.935 488.046H286.225V509.23H264.935V488.046ZM319.342 488.046H298.052V509.23H319.342V488.046ZM198.701 488.046H219.991V509.23H198.701V488.046ZM253.108 488.046H231.818V509.23H253.108V488.046ZM99.3508 488.046H120.64V509.23H99.3508V488.046ZM153.757 488.046H132.468V509.23H153.757V488.046ZM165.585 488.046H186.874V509.23H165.585V488.046ZM993.507 224.415V245.6H1014.8V224.415H993.507ZM993.507 488.046V509.23H1014.8V488.046H993.507ZM662.338 509.23V488.046H683.628V509.23H662.338ZM662.338 245.6V224.415H683.628V245.6H662.338ZM364.286 224.415H385.576V245.6H364.286V224.415ZM418.693 224.415H397.403V245.6H418.693V224.415ZM596.105 224.415H617.394V245.6H596.105V224.415ZM650.511 224.415H629.221V245.6H650.511V224.415ZM529.871 224.415H551.16V245.6H529.871V224.415ZM584.277 224.415H562.988V245.6H584.277V224.415ZM430.52 224.415H451.809V245.6H430.52V224.415ZM484.926 224.415H463.637V245.6H484.926V224.415ZM496.754 224.415H518.043V245.6H496.754V224.415ZM364.286 488.046H385.576V509.23H364.286V488.046ZM418.693 488.046H397.403V509.23H418.693V488.046ZM596.105 488.046H617.394V509.23H596.105V488.046ZM650.511 488.046H629.221V509.23H650.511V488.046ZM529.871 488.046H551.16V509.23H529.871V488.046ZM584.277 488.046H562.988V509.23H584.277V488.046ZM430.52 488.046H451.809V509.23H430.52V488.046ZM484.926 488.046H463.637V509.23H484.926V488.046ZM496.754 488.046H518.043V509.23H496.754V488.046ZM716.745 224.415H695.455V245.6H716.745V224.415ZM728.572 224.415H749.862V245.6H728.572V224.415ZM948.563 224.415H927.274V245.6H948.563V224.415ZM960.391 224.415H981.68V245.6H960.391V224.415ZM882.329 224.415H861.04V245.6H882.329V224.415ZM894.157 224.415H915.446V245.6H894.157V224.415ZM782.978 224.415H761.689V245.6H782.978V224.415ZM794.806 224.415H816.095V245.6H794.806V224.415ZM849.212 224.415H827.923V245.6H849.212V224.415ZM716.745 488.046H695.455V509.23H716.745V488.046ZM728.572 488.046H749.862V509.23H728.572V488.046ZM948.563 488.046H927.274V509.23H948.563V488.046ZM960.391 488.046H981.68V509.23H960.391V488.046ZM882.329 488.046H861.04V509.23H882.329V488.046ZM894.157 488.046H915.446V509.23H894.157V488.046ZM782.978 488.046H761.689V509.23H782.978V488.046ZM794.806 488.046H816.095V509.23H794.806V488.046ZM849.212 488.046H827.923V509.23H849.212V488.046ZM1026.62 224.415H1047.91V245.6H1026.62V224.415ZM1081.03 224.415H1059.74V245.6H1081.03V224.415ZM1258.44 224.415H1279.73V245.6H1258.44V224.415ZM1312.85 224.415H1291.56V245.6H1312.85V224.415ZM1192.21 224.415H1213.5V245.6H1192.21V224.415ZM1246.62 224.415H1225.33V245.6H1246.62V224.415ZM1092.86 224.415H1114.15V245.6H1092.86V224.415ZM1147.26 224.415H1125.97V245.6H1147.26V224.415ZM1159.09 224.415H1180.38V245.6H1159.09V224.415ZM1026.62 488.046H1047.91V509.23H1026.62V488.046ZM1081.03 488.046H1059.74V509.23H1081.03V488.046ZM1258.44 488.046H1279.73V509.23H1258.44V488.046ZM1312.85 488.046H1291.56V509.23H1312.85V488.046ZM1192.21 488.046H1213.5V509.23H1192.21V488.046ZM1246.62 488.046H1225.33V509.23H1246.62V488.046ZM1092.86 488.046H1114.15V509.23H1092.86V488.046ZM1147.26 488.046H1125.97V509.23H1147.26V488.046ZM1159.09 488.046H1180.38V509.23H1159.09V488.046ZM1346.41 224.415H1325.12V245.6H1346.41V224.415ZM1358.23 224.415H1379.52V245.6H1358.23V224.415ZM1412.64 224.415H1391.35V245.6H1412.64V224.415ZM1346.41 488.046H1325.12V509.23H1346.41V488.046ZM1358.23 488.046H1379.52V509.23H1358.23V488.046ZM1412.64 488.046H1391.35V509.23H1412.64V488.046Z" fill="black"/>
<path d="M340.051 205V144.424H319.987V137.8H368.179V144.424H348.115V205H340.051ZM373.226 205V137.8H381.29V167.464H416.138V137.8H424.202V205H416.138V174.088H381.29V205H373.226ZM433.582 205V137.8H475.15V144.424H441.646V167.848H472.27V174.376H441.646V198.376H475.15V205H433.582ZM705.414 205L730.182 137.8H738.726L763.398 205H754.854L748.71 187.72H720.102L713.862 205H705.414ZM722.502 181.192H746.31L734.406 147.976L722.502 181.192ZM794.217 206.152C787.625 206.152 781.929 204.712 777.129 201.832C772.393 198.888 768.713 194.824 766.089 189.64C763.465 184.392 762.153 178.312 762.153 171.4C762.153 164.552 763.465 158.536 766.089 153.352C768.713 148.104 772.393 144.008 777.129 141.064C781.929 138.12 787.625 136.648 794.217 136.648C801.897 136.648 808.137 138.504 812.937 142.216C817.801 145.864 820.905 150.984 822.249 157.576H813.321C812.297 153.416 810.185 150.088 806.985 147.592C803.849 145.032 799.593 143.752 794.217 143.752C789.417 143.752 785.225 144.872 781.641 147.112C778.057 149.288 775.273 152.456 773.289 156.616C771.369 160.712 770.409 165.64 770.409 171.4C770.409 177.16 771.369 182.12 773.289 186.28C775.273 190.376 778.057 193.544 781.641 195.784C785.225 197.96 789.417 199.048 794.217 199.048C799.593 199.048 803.849 197.832 806.985 195.4C810.185 192.904 812.297 189.608 813.321 185.512H822.249C820.905 191.976 817.801 197.032 812.937 200.68C808.137 204.328 801.897 206.152 794.217 206.152ZM823.221 205L847.989 137.8H856.533L881.205 205H872.661L866.517 187.72H837.909L831.669 205H823.221ZM840.309 181.192H864.117L852.213 147.976L840.309 181.192ZM886.395 205V137.8H907.035C918.875 137.8 927.579 140.808 933.147 146.824C938.779 152.84 941.595 161.096 941.595 171.592C941.595 181.896 938.779 190.056 933.147 196.072C927.579 202.024 918.875 205 907.035 205H886.395ZM894.459 198.28H906.843C913.371 198.28 918.555 197.224 922.395 195.112C926.299 192.936 929.083 189.864 930.747 185.896C932.411 181.864 933.243 177.096 933.243 171.592C933.243 165.96 932.411 161.128 930.747 157.096C929.083 153.064 926.299 149.96 922.395 147.784C918.555 145.608 913.371 144.52 906.843 144.52H894.459V198.28ZM948.438 205V137.8H990.006V144.424H956.502V167.848H987.126V174.376H956.502V198.376H990.006V205H948.438ZM997.826 205V137.8H1007.23L1031.43 184.648L1055.43 137.8H1064.93V205H1056.87V152.2L1034.4 195.4H1028.35L1005.89 152.296V205H997.826ZM1091.01 205V179.464L1069.12 137.8H1078.24L1095.04 171.784L1111.84 137.8H1120.87L1099.08 179.464V205H1091.01ZM541.849 301L566.617 233.8H575.161L599.833 301H591.289L585.145 283.72H556.537L550.297 301H541.849ZM558.937 277.192H582.745L570.841 243.976L558.937 277.192ZM612.097 301.096L593.665 233.8H602.305L616.801 291.496L633.313 233.8H642.241L658.273 291.496L672.961 233.8H681.601L662.785 301H653.569L637.537 245.512L621.121 301L612.097 301.096ZM675.311 301L700.079 233.8H708.623L733.295 301H724.751L718.607 283.72H689.999L683.759 301H675.311ZM692.399 277.192H716.207L704.303 243.976L692.399 277.192ZM738.485 301V233.8H760.181C765.429 233.8 769.717 234.664 773.045 236.392C776.373 238.12 778.837 240.488 780.437 243.496C782.037 246.504 782.837 249.832 782.837 253.48C782.837 257.704 781.685 261.512 779.381 264.904C777.141 268.296 773.621 270.696 768.821 272.104L783.509 301H774.005L760.373 273.256H759.797H746.549V301H738.485ZM746.549 266.92H759.605C764.789 266.92 768.565 265.672 770.933 263.176C773.301 260.68 774.485 257.48 774.485 253.576C774.485 249.608 773.301 246.472 770.933 244.168C768.629 241.8 764.821 240.616 759.509 240.616H746.549V266.92ZM790.591 301V233.8H811.231C823.071 233.8 831.775 236.808 837.343 242.824C842.975 248.84 845.791 257.096 845.791 267.592C845.791 277.896 842.975 286.056 837.343 292.072C831.775 298.024 823.071 301 811.231 301H790.591ZM798.655 294.28H811.039C817.567 294.28 822.751 293.224 826.591 291.112C830.495 288.936 833.279 285.864 834.943 281.896C836.607 277.864 837.439 273.096 837.439 267.592C837.439 261.96 836.607 257.128 834.943 253.096C833.279 249.064 830.495 245.96 826.591 243.784C822.751 241.608 817.567 240.52 811.039 240.52H798.655V294.28ZM874.043 302.152C869.115 302.152 864.827 301.256 861.179 299.464C857.531 297.672 854.715 295.176 852.731 291.976C850.747 288.776 849.755 285.064 849.755 280.84H858.203C858.203 283.464 858.811 285.896 860.027 288.136C861.243 290.312 863.003 292.072 865.307 293.416C867.675 294.696 870.587 295.336 874.043 295.336C878.587 295.336 882.107 294.248 884.603 292.072C887.099 289.896 888.347 287.176 888.347 283.912C888.347 281.224 887.771 279.08 886.619 277.48C885.467 275.816 883.899 274.472 881.915 273.448C879.995 272.424 877.755 271.528 875.195 270.76C872.699 269.992 870.075 269.128 867.323 268.168C862.139 266.376 858.299 264.168 855.803 261.544C853.307 258.856 852.059 255.368 852.059 251.08C851.995 247.496 852.827 244.328 854.555 241.576C856.283 238.76 858.715 236.584 861.851 235.048C865.051 233.448 868.827 232.648 873.179 232.648C877.467 232.648 881.179 233.448 884.315 235.048C887.515 236.648 889.979 238.856 891.707 241.672C893.499 244.488 894.427 247.688 894.491 251.272H886.043C886.043 249.416 885.563 247.592 884.603 245.8C883.643 243.944 882.171 242.44 880.187 241.288C878.267 240.136 875.835 239.56 872.891 239.56C869.243 239.496 866.235 240.424 863.867 242.344C861.563 244.264 860.411 246.92 860.411 250.312C860.411 253.192 861.211 255.4 862.811 256.936C864.475 258.472 866.779 259.752 869.723 260.776C872.667 261.736 876.059 262.856 879.899 264.136C883.099 265.288 885.979 266.632 888.539 268.168C891.099 269.704 893.083 271.688 894.491 274.12C895.963 276.552 896.699 279.656 896.699 283.432C896.699 286.632 895.867 289.672 894.203 292.552C892.539 295.368 890.011 297.672 886.619 299.464C883.291 301.256 879.099 302.152 874.043 302.152Z" fill="url(#paint0_linear_287_242)"/>
<path d="M525.167 205.72C523.007 205.72 520.967 205.54 519.047 205.18C517.127 204.94 515.327 204.4 513.647 203.56C513.287 203.32 512.867 202.96 512.387 202.48C512.027 202 512.087 201.34 512.567 200.5C513.047 199.54 513.767 197.62 514.727 194.74C515.687 191.86 516.407 189.52 516.887 187.72L520.127 186.28C519.887 186.52 519.527 187.36 519.047 188.8C518.567 190.24 518.207 191.44 517.967 192.4C517.847 192.76 517.787 193.12 517.787 193.48C517.787 193.84 517.787 194.2 517.787 194.56C517.787 197.08 518.387 198.94 519.587 200.14C520.547 200.98 521.627 201.58 522.827 201.94C524.027 202.18 525.347 202.3 526.787 202.3C531.107 202.3 535.187 201.04 539.027 198.52C542.987 196 546.527 192.88 549.647 189.16C552.887 185.32 555.407 181.54 557.207 177.82C558.167 175.78 559.067 173.74 559.907 171.7C560.867 169.54 561.587 167.5 562.067 165.58C560.147 166.9 558.167 168.04 556.127 169C554.207 169.96 552.527 170.92 551.087 171.88C549.767 172.72 547.847 173.32 545.327 173.68C542.807 174.04 540.647 174.22 538.847 174.22C532.967 174.22 528.767 172.66 526.247 169.54C523.727 166.42 522.467 162.7 522.467 158.38C522.467 153.94 523.667 149.44 526.067 144.88C528.467 140.2 531.587 136.54 535.427 133.9C537.107 132.7 538.787 131.68 540.467 130.84C542.147 130 543.887 128.98 545.687 127.78C547.367 126.7 549.467 125.92 551.987 125.44C554.627 124.96 556.847 124.72 558.647 124.72C565.247 124.72 569.807 126.46 572.327 129.94C574.847 133.3 576.107 137.5 576.107 142.54C576.107 145.78 575.687 149.26 574.847 152.98C574.007 156.58 572.927 160.12 571.607 163.6C569.807 168.64 567.467 173.68 564.587 178.72C561.707 183.64 558.347 188.14 554.507 192.22C550.667 196.3 546.287 199.6 541.367 202.12C536.447 204.52 531.047 205.72 525.167 205.72ZM545.327 169C549.167 169 552.707 167.8 555.947 165.4C559.187 163 561.707 160 563.507 156.4C564.587 154.12 565.427 151.84 566.027 149.56C566.747 147.28 567.107 145.12 567.107 143.08C567.107 140.08 566.387 137.44 564.947 135.16C563.507 132.76 561.107 131.08 557.747 130.12C555.707 129.52 553.847 129.22 552.167 129.22C548.687 129.22 545.387 130.3 542.267 132.46C539.147 134.62 536.567 137.8 534.527 142C533.447 144.28 532.547 146.56 531.827 148.84C531.227 151.12 530.927 153.28 530.927 155.32C530.927 158.32 531.707 161.02 533.267 163.42C534.827 165.82 537.407 167.5 541.007 168.46C542.447 168.82 543.887 169 545.327 169ZM598.596 203.92C598.596 203.92 597.156 204.04 594.276 204.28C591.396 204.4 585.876 204.76 577.716 205.36L579.336 203.02C579.696 203.14 580.416 203.2 581.496 203.2C583.536 203.2 585.996 202.78 588.876 201.94C591.876 200.98 594.036 199.36 595.356 197.08C596.076 195.76 596.976 193.66 598.056 190.78C599.136 187.9 600.216 184.9 601.296 181.78H591.036C591.036 181.78 588.636 181.9 583.836 182.14C579.036 182.26 573.396 182.5 566.916 182.86H565.656C564.696 182.86 564.216 182.74 564.216 182.5C564.216 182.14 564.876 181.54 566.196 180.7C568.236 179.38 570.696 177.16 573.576 174.04C576.456 170.92 579.156 168.04 581.676 165.4L602.736 143.26C606.216 139.54 608.916 136.42 610.836 133.9C612.876 131.38 614.556 129.88 615.876 129.4C617.916 128.8 620.196 127.84 622.716 126.52C625.356 125.2 627.216 124.54 628.296 124.54C629.256 124.54 629.436 125.08 628.836 126.16C626.556 130.6 624.456 135.52 622.536 140.92C620.616 146.32 618.396 152.92 615.876 160.72L613.176 169.54C612.576 171.46 611.916 173.44 611.196 175.48C613.236 175.24 615.036 175 616.596 174.76C618.276 174.4 619.536 173.98 620.376 173.5C621.696 172.78 623.196 171.7 624.876 170.26C626.556 168.82 628.056 167.32 629.376 165.76C630.816 164.2 631.716 163 632.076 162.16L633.876 162.7C633.756 162.94 633.156 163.78 632.076 165.22C631.116 166.54 630.096 168.1 629.016 169.9C627.936 171.58 627.036 173.14 626.316 174.58C625.116 176.86 623.736 178.72 622.176 180.16C620.736 181.48 618.696 182.14 616.056 182.14C615.096 182.14 614.016 182.14 612.816 182.14C611.736 182.02 610.596 181.96 609.396 181.96C608.556 185.08 607.716 188.02 606.876 190.78C606.156 193.54 605.676 195.64 605.436 197.08C605.196 199 605.916 200.44 607.596 201.4C609.276 202.24 611.136 202.78 613.176 203.02C615.336 203.14 616.836 203.2 617.676 203.2L615.516 205.36C614.916 205.12 613.596 204.94 611.556 204.82C609.516 204.58 607.296 204.4 604.896 204.28C602.496 204.04 600.396 203.92 598.596 203.92ZM595.716 176.2C597.036 176.2 598.296 176.2 599.496 176.2C600.696 176.2 601.896 176.14 603.096 176.02C603.576 174.7 603.996 173.5 604.356 172.42C604.836 171.22 605.136 170.2 605.256 169.36L611.376 150.46C612.336 147.82 613.056 145.42 613.536 143.26C614.136 140.98 614.436 139.24 614.436 138.04C614.436 137.08 614.256 136.42 613.896 136.06C612.936 136.66 611.316 138.1 609.036 140.38C606.876 142.54 604.356 145.12 601.476 148.12C598.596 151.12 595.656 154.24 592.656 157.48C589.776 160.6 587.076 163.54 584.556 166.3C582.156 168.94 580.296 170.98 578.976 172.42C578.136 173.26 577.716 173.98 577.716 174.58C577.716 175.06 578.436 175.42 579.876 175.66C581.916 175.78 584.316 175.9 587.076 176.02C589.836 176.14 592.716 176.2 595.716 176.2Z" fill="url(#paint1_linear_287_242)"/>
<path d="M636.379 174.288C635.739 174.288 635.195 174.16 634.747 173.904C634.299 173.648 634.075 173.168 634.075 172.464C634.075 171.568 634.299 170.512 634.747 169.296C635.259 168.08 635.803 166.864 636.379 165.648C636.955 164.432 637.435 163.44 637.819 162.672C638.139 162.096 638.555 161.2 639.067 159.984C639.643 158.704 640.219 157.392 640.795 156.048C641.435 154.64 641.947 153.456 642.331 152.496C642.779 151.536 643.003 151.056 643.003 151.056C642.427 151.696 641.659 152.592 640.699 153.744C639.803 154.896 638.811 156.112 637.723 157.392C636.699 158.608 635.739 159.76 634.843 160.848C634.011 161.936 633.403 162.736 633.019 163.248C632.827 163.504 632.667 163.632 632.539 163.632C632.411 163.632 632.347 163.472 632.347 163.152C632.347 162.64 632.507 162.16 632.827 161.712C633.595 160.752 634.523 159.6 635.611 158.256C636.699 156.848 637.787 155.44 638.875 154.032C640.027 152.624 641.019 151.376 641.851 150.288C641.339 150.288 640.667 150.32 639.835 150.384C639.067 150.448 638.363 150.544 637.723 150.672C637.083 150.736 636.731 150.768 636.667 150.768C636.347 150.768 636.379 150.512 636.763 150C637.147 149.488 637.659 148.976 638.299 148.464C638.939 147.952 639.419 147.696 639.739 147.696C639.803 147.696 640.315 147.728 641.275 147.792C642.235 147.792 642.939 147.792 643.387 147.792C644.667 146.064 645.915 144.08 647.131 141.84C648.411 139.6 649.659 137.136 650.875 134.448C651.387 134.384 652.251 134.032 653.467 133.392C654.747 132.688 655.739 131.984 656.443 131.28C656.763 130.96 657.019 130.8 657.211 130.8C657.595 130.8 657.595 131.056 657.211 131.568C656.763 132.08 655.995 133.168 654.907 134.832C653.819 136.432 652.603 138.384 651.259 140.688C649.915 142.928 648.635 145.296 647.419 147.792H655.195C655.899 147.792 656.251 147.888 656.251 148.08C656.251 148.336 655.771 148.592 654.811 148.848C653.723 149.168 652.571 149.36 651.355 149.424C650.203 149.488 649.115 149.616 648.091 149.808C647.131 150 646.427 150.416 645.979 151.056C645.595 151.504 645.051 152.464 644.347 153.936C643.643 155.408 642.875 157.104 642.043 159.024C641.275 160.88 640.603 162.768 640.027 164.688C639.451 166.544 639.099 168.112 638.971 169.392V169.776C638.971 170.288 639.131 170.704 639.451 171.024C639.771 171.344 640.091 171.504 640.411 171.504C641.243 171.504 642.299 170.992 643.579 169.968C644.923 168.944 646.299 167.728 647.707 166.32C649.115 164.848 650.331 163.504 651.355 162.288C651.803 161.776 652.187 161.296 652.507 160.848C652.891 160.4 653.115 160.112 653.179 159.984C653.307 160.24 653.371 160.432 653.371 160.56C653.371 160.944 653.243 161.36 652.987 161.808C652.795 162.256 652.571 162.64 652.315 162.96C651.099 164.56 649.627 166.256 647.899 168.048C646.171 169.776 644.315 171.248 642.331 172.464C640.411 173.68 638.427 174.288 636.379 174.288ZM660.978 174.576C660.018 174.576 659.154 174.384 658.386 174C657.682 173.616 657.33 172.912 657.33 171.888C657.33 171.312 657.458 170.672 657.714 169.968C658.29 168.496 659.058 166.704 660.018 164.592C661.042 162.48 662.066 160.432 663.09 158.448C664.114 156.4 664.914 154.736 665.49 153.456C665.874 152.688 666.066 152.144 666.066 151.824C666.066 151.248 665.746 151.12 665.106 151.44C664.466 151.76 663.762 152.208 662.994 152.784C662.226 153.36 661.65 153.808 661.266 154.128C659.602 155.664 657.842 157.488 655.986 159.6C654.194 161.648 652.53 163.824 650.994 166.128C649.522 168.368 648.37 170.608 647.538 172.848C647.474 173.232 647.058 173.552 646.29 173.808C645.522 174.064 644.818 174.192 644.178 174.192C643.154 174.192 642.77 173.872 643.026 173.232C644.498 169.904 646.002 166.224 647.538 162.192C649.138 158.16 650.93 154.032 652.914 149.808C654.386 146.608 656.018 143.312 657.81 139.92C659.666 136.528 661.714 133.296 663.954 130.224C666.194 127.088 668.658 124.336 671.346 121.968C673.714 119.92 676.306 118.256 679.122 116.976C682.002 115.632 685.106 114.96 688.434 114.96C689.906 114.96 691.186 115.28 692.274 115.92C693.362 116.496 693.97 117.552 694.098 119.088V119.952C694.098 120.848 694.002 121.744 693.81 122.64C693.746 122.896 693.49 123.024 693.042 123.024C692.85 123.024 692.786 122.992 692.85 122.928C693.106 121.264 692.658 120.08 691.506 119.376C690.418 118.672 689.01 118.32 687.282 118.32C684.146 118.32 681.266 118.896 678.642 120.048C676.018 121.2 673.586 122.736 671.346 124.656C667.89 127.664 664.882 131.504 662.322 136.176C659.762 140.848 657.554 145.616 655.698 150.48C654.802 152.848 653.906 155.216 653.01 157.584C652.178 159.952 651.378 162.16 650.61 164.208C653.49 160.368 656.242 157.072 658.866 154.32C661.554 151.568 663.89 149.616 665.874 148.464C667.474 147.568 668.914 147.12 670.194 147.12C671.41 147.12 672.018 147.632 672.018 148.656C672.018 149.552 671.57 150.704 670.674 152.112C670.226 152.816 669.522 154 668.562 155.664C667.666 157.328 666.706 159.152 665.682 161.136C664.722 163.056 663.89 164.848 663.186 166.512C662.482 168.176 662.13 169.392 662.13 170.16C662.13 171.184 662.578 171.696 663.474 171.696C663.986 171.696 664.562 171.536 665.202 171.216C665.906 170.896 666.418 170.608 666.738 170.352C668.466 169.072 670.162 167.504 671.826 165.648C673.49 163.792 674.898 162.16 676.05 160.752C676.114 160.688 676.146 160.784 676.146 161.04C676.146 161.296 676.082 161.68 675.954 162.192C675.89 162.64 675.698 163.024 675.378 163.344C674.674 164.304 673.938 165.232 673.17 166.128C672.466 166.96 671.762 167.792 671.058 168.624C669.842 170.032 668.37 171.376 666.642 172.656C664.978 173.936 663.09 174.576 660.978 174.576Z" fill="url(#paint2_linear_287_242)"/>
<defs>
<linearGradient id="paint0_linear_287_242" x1="317" y1="220.434" x2="1060.17" y2="220.434" gradientUnits="userSpaceOnUse">
<stop offset="0.0588268" stop-color="#B88F25"/>
<stop offset="0.216754" stop-color="#F5C74E"/>
<stop offset="0.330103" stop-color="#FFE08E"/>
<stop offset="0.550619" stop-color="#EEB82C"/>
<stop offset="0.682516" stop-color="#C0931E"/>
<stop offset="0.754648" stop-color="#FFC93D"/>
<stop offset="0.87418" stop-color="#FFDF8D"/>
<stop offset="1" stop-color="#C08C03"/>
</linearGradient>
<linearGradient id="paint1_linear_287_242" x1="504" y1="173.217" x2="619.257" y2="173.217" gradientUnits="userSpaceOnUse">
<stop offset="0.0588268" stop-color="#B88F25"/>
<stop offset="0.216754" stop-color="#F5C74E"/>
<stop offset="0.330103" stop-color="#FFE08E"/>
<stop offset="1" stop-color="#C08C03"/>
</linearGradient>
<linearGradient id="paint2_linear_287_242" x1="629" y1="157.217" x2="668.648" y2="157.217" gradientUnits="userSpaceOnUse">
<stop offset="0.216754" stop-color="#F5C74E"/>
<stop offset="0.550619" stop-color="#EEB82C"/>
<stop offset="1" stop-color="#C08C03"/>
</linearGradient>
</defs>
</svg>
